<svg id="svg" version="1.1" xmlns="http://www.w3.org/2000/svg" xmlns:xlink="http://www.w3.org/1999/xlink" width="400" height="400" viewBox="0, 0, 400,400"><g id="svgg"><path id="path0" d="M329.124 126.252 C 329.886 126.852,330.359 127.531,330.237 127.848 C 330.004 128.455,330.620 128.616,330.975 128.041 C 331.261 127.578,329.050 125.199,328.340 125.204 C 328.043 125.207,328.396 125.678,329.124 126.252 M173.418 169.494 C 171.863 169.724,171.058 170.324,169.594 172.344 C 168.768 173.484,167.695 174.322,166.228 174.971 C 164.491 175.739,163.801 176.349,162.668 178.121 C 161.895 179.329,160.691 180.651,159.993 181.059 C 158.214 182.097,157.333 184.080,156.998 187.800 C 156.674 191.394,156.290 192.017,153.159 194.027 C 150.669 195.624,150.695 195.527,150.631 203.558 C 150.569 211.349,150.419 210.858,153.864 214.121 C 155.539 215.708,155.666 215.984,156.170 219.147 C 156.763 222.863,157.552 223.894,160.472 224.773 C 163.060 225.551,163.782 227.301,163.202 231.389 C 162.449 236.692,163.705 237.952,168.997 237.200 C 172.996 236.633,174.119 237.066,175.381 239.662 C 176.950 242.889,176.514 242.800,190.680 242.800 C 204.487 242.800,204.271 242.836,205.857 240.283 C 207.743 237.245,208.532 236.831,212.469 236.814 C 215.587 236.801,216.061 236.697,217.142 235.787 L 218.346 234.774 218.131 231.287 C 217.888 227.368,218.728 225.340,220.824 224.783 C 221.387 224.633,222.523 224.189,223.349 223.798 L 224.850 223.085 224.759 218.043 C 224.708 215.269,224.713 207.559,224.769 200.909 C 224.885 187.121,224.688 185.850,221.993 183.000 C 221.161 182.120,219.916 180.269,219.228 178.886 C 217.563 175.546,216.335 174.803,212.470 174.801 C 209.770 174.800,209.471 174.715,208.670 173.722 C 208.191 173.129,207.032 171.869,206.093 170.922 L 204.386 169.200 189.493 169.260 C 181.302 169.293,174.068 169.398,173.418 169.494 M49.362 216.252 C 50.011 217.585,52.154 219.600,52.924 219.600 C 53.178 219.600,52.714 219.144,51.893 218.586 C 51.072 218.028,50.396 217.443,50.391 217.286 C 50.386 217.129,50.015 216.550,49.567 216.000 L 48.752 215.000 49.362 216.252 " stroke="none" fill="#fcecac" fill-rule="evenodd"></path><path id="path1" d="M163.500 59.433 C 163.372 59.562,162.440 59.667,161.430 59.667 C 159.689 59.667,159.596 59.723,159.661 60.733 C 159.699 61.320,159.598 62.549,159.436 63.464 C 158.555 68.448,159.959 68.799,180.773 68.802 C 199.307 68.804,197.867 68.527,200.510 72.600 L 201.808 74.600 206.004 74.830 C 211.200 75.114,211.444 75.224,212.579 77.791 C 213.304 79.429,213.991 80.208,215.799 81.437 C 218.530 83.294,218.983 84.068,219.611 87.941 C 219.947 90.018,220.327 91.076,220.901 91.541 C 225.133 94.968,225.195 95.144,225.198 103.747 L 225.200 110.094 226.900 111.677 C 231.389 115.855,231.085 115.357,231.393 119.050 C 231.625 121.832,231.852 122.638,232.684 123.626 L 233.693 124.826 237.942 124.713 L 242.191 124.600 243.489 122.600 C 245.663 119.252,246.469 118.804,250.326 118.802 C 254.227 118.800,254.862 118.530,256.254 116.283 C 256.827 115.357,257.758 114.105,258.323 113.500 L 259.350 112.400 275.228 112.400 L 291.107 112.400 292.553 114.001 C 293.349 114.882,294.000 115.768,294.000 115.970 C 294.000 117.601,296.486 118.800,299.869 118.800 C 303.896 118.800,304.857 119.303,306.774 122.420 C 307.454 123.525,308.323 124.539,308.705 124.674 C 310.115 125.170,311.976 126.848,312.858 128.418 C 313.401 129.383,314.547 130.514,315.706 131.227 C 316.927 131.978,318.115 133.175,318.910 134.454 C 319.716 135.751,320.942 136.978,322.297 137.845 C 324.822 139.460,325.200 140.294,325.200 144.252 C 325.200 147.926,325.478 148.476,328.220 150.230 C 331.071 152.054,331.599 153.154,331.604 157.280 C 331.607 159.913,331.801 161.014,332.540 162.600 C 333.975 165.678,333.940 165.666,340.670 165.524 L 346.600 165.400 346.717 162.300 L 346.834 159.200 348.317 159.146 C 349.133 159.116,350.460 159.124,351.267 159.164 C 353.112 159.255,353.140 159.161,353.116 152.877 C 353.101 148.649,353.013 147.986,352.493 148.186 C 351.969 148.387,351.962 148.326,352.443 147.732 C 352.751 147.353,352.789 147.173,352.528 147.330 C 352.268 147.486,351.934 147.416,351.785 147.176 C 351.637 146.936,350.859 146.778,350.058 146.826 C 346.688 147.025,346.800 147.128,346.800 143.844 C 346.800 141.737,346.657 140.894,346.300 140.907 C 346.025 140.918,344.675 140.898,343.300 140.863 L 340.800 140.800 340.800 138.233 C 340.800 134.407,340.793 134.400,337.357 134.400 L 334.400 134.400 334.400 132.080 C 334.400 130.804,334.184 129.544,333.920 129.280 C 333.547 128.907,333.558 128.800,333.969 128.800 C 334.328 128.800,334.376 128.640,334.118 128.300 C 333.909 128.025,333.415 126.927,333.020 125.859 C 332.286 123.873,330.810 122.800,328.813 122.800 C 328.366 122.800,328.000 122.620,328.000 122.400 C 328.000 122.180,327.809 122.000,327.576 122.000 C 327.343 122.000,327.264 122.180,327.400 122.400 C 327.536 122.620,327.457 122.800,327.224 122.800 C 326.991 122.800,326.800 122.620,326.800 122.400 C 326.800 122.178,325.733 122.000,324.400 122.000 L 322.000 122.000 322.000 119.249 C 322.000 116.360,321.540 115.470,320.124 115.617 C 319.726 115.658,318.545 115.671,317.500 115.646 L 315.600 115.600 315.600 112.625 C 315.600 110.065,315.502 109.647,314.900 109.631 C 314.515 109.620,311.725 109.496,308.700 109.354 L 303.200 109.096 303.200 106.781 C 303.200 102.988,303.928 103.261,293.688 103.215 C 288.712 103.192,284.593 103.126,284.534 103.068 C 284.476 103.009,284.377 101.862,284.314 100.520 C 284.251 99.177,284.065 98.161,283.900 98.263 C 283.735 98.364,283.600 98.156,283.600 97.800 C 283.600 97.444,283.420 97.264,283.200 97.400 C 282.980 97.536,282.800 97.472,282.800 97.259 C 282.800 96.756,254.366 96.723,253.574 97.225 C 253.082 97.536,253.086 97.590,253.600 97.600 C 254.082 97.610,254.095 97.679,253.666 97.951 C 253.372 98.137,253.147 98.404,253.166 98.545 C 253.185 98.685,253.200 99.790,253.200 101.000 L 253.200 103.200 250.000 103.200 L 246.800 103.200 246.800 100.600 C 246.800 99.170,246.815 97.885,246.834 97.745 C 246.911 97.168,245.688 96.843,243.477 96.854 C 240.547 96.868,240.840 97.515,240.778 90.900 C 240.722 84.991,240.511 84.252,238.924 84.417 C 238.526 84.458,237.345 84.471,236.300 84.446 L 234.400 84.400 234.400 81.614 C 234.400 78.280,234.036 77.950,230.527 78.100 L 228.200 78.200 228.083 75.100 L 227.966 72.000 221.800 72.000 L 215.634 72.000 215.517 68.900 L 215.400 65.800 213.700 65.736 C 212.765 65.700,211.370 65.655,210.600 65.636 L 209.200 65.600 209.200 62.658 L 209.200 59.716 206.500 59.461 C 203.115 59.141,163.817 59.116,163.500 59.433 M140.960 72.559 C 140.843 72.866,140.779 73.361,140.820 73.659 C 140.861 73.956,140.873 75.379,140.847 76.820 L 140.800 79.441 139.040 80.296 C 137.734 80.930,137.096 81.566,136.570 82.760 C 136.179 83.644,135.577 84.423,135.230 84.490 C 134.602 84.611,134.566 84.820,134.450 89.000 L 134.400 90.800 131.432 90.800 C 127.900 90.800,128.113 90.350,128.013 97.993 C 127.936 103.890,128.380 103.113,124.996 103.270 C 122.533 103.385,122.193 103.495,122.143 104.200 C 122.111 104.640,122.066 111.615,122.043 119.700 L 122.000 134.400 117.258 134.400 L 112.515 134.400 112.662 137.900 C 112.869 142.811,113.697 143.600,118.645 143.600 C 122.673 143.600,124.044 144.293,125.066 146.849 C 126.393 150.164,133.381 151.526,136.278 149.035 L 137.400 148.070 137.600 121.800 L 137.800 95.530 138.922 94.565 C 139.540 94.034,140.269 93.600,140.544 93.600 C 140.818 93.600,141.626 92.999,142.338 92.264 L 143.634 90.927 142.970 88.964 C 142.605 87.884,141.968 86.332,141.553 85.516 C 140.824 84.079,140.574 81.853,141.014 80.707 C 141.178 80.281,141.903 80.183,144.068 80.297 C 148.137 80.511,149.171 79.530,149.010 75.604 C 148.861 71.968,148.852 71.959,145.352 72.040 C 142.827 72.099,142.279 72.238,141.784 72.944 C 141.463 73.403,141.200 73.594,141.200 73.369 C 141.200 73.144,141.416 72.744,141.680 72.480 C 142.053 72.107,142.051 72.000,141.667 72.000 C 141.397 72.000,141.078 72.251,140.960 72.559 M330.400 124.200 C 330.950 124.514,331.250 124.778,331.067 124.786 C 330.884 124.794,331.109 125.406,331.567 126.147 C 332.675 127.939,332.620 128.267,331.218 128.267 C 330.567 128.267,330.118 128.133,330.219 127.970 C 330.320 127.807,329.827 127.189,329.123 126.597 L 327.844 125.521 328.822 124.776 C 329.779 124.048,329.781 124.037,328.900 124.263 C 328.366 124.399,328.000 124.312,328.000 124.047 C 328.000 123.434,329.193 123.510,330.400 124.200 M332.614 126.027 C 332.963 126.702,333.168 127.557,333.071 127.927 C 332.934 128.446,332.882 128.411,332.846 127.776 C 332.821 127.324,332.536 126.604,332.213 126.176 C 331.621 125.395,331.439 124.800,331.790 124.800 C 331.894 124.800,332.265 125.352,332.614 126.027 M329.398 127.535 C 328.949 127.984,328.000 127.914,328.000 127.431 C 328.000 126.629,328.484 126.372,329.073 126.860 C 329.373 127.110,329.520 127.414,329.398 127.535 M95.308 130.196 C 94.069 130.732,92.405 132.853,92.401 133.900 C 92.400 134.271,93.586 134.400,97.000 134.400 C 101.981 134.400,101.967 134.407,100.818 132.522 C 99.420 130.230,97.301 129.335,95.308 130.196 M59.340 156.000 C 59.340 157.870,59.409 158.635,59.493 157.700 C 59.577 156.765,59.577 155.235,59.493 154.300 C 59.409 153.365,59.340 154.130,59.340 156.000 M47.494 203.439 C 47.363 203.571,47.363 203.960,47.496 204.305 C 47.644 204.691,47.572 204.830,47.309 204.667 C 47.015 204.485,46.877 205.968,46.867 209.424 C 46.855 213.427,46.968 214.490,47.426 214.665 C 47.742 214.786,48.000 215.057,48.000 215.266 C 48.000 215.476,47.823 215.538,47.606 215.404 C 47.152 215.123,47.437 217.190,48.090 218.919 C 48.604 220.280,50.526 221.355,51.852 221.023 C 53.046 220.723,53.141 220.972,53.286 224.800 L 53.400 227.800 56.255 227.917 L 59.110 228.033 59.394 230.686 C 59.804 234.512,59.700 234.400,62.843 234.400 L 65.600 234.400 65.651 235.700 C 65.679 236.415,65.682 237.601,65.658 238.335 C 65.586 240.487,66.229 240.800,70.728 240.800 L 74.713 240.800 74.761 237.530 C 74.816 233.776,74.330 232.937,71.335 231.613 C 69.960 231.004,69.569 230.584,69.218 229.333 C 68.513 226.826,66.417 224.808,64.510 224.803 C 62.791 224.798,62.400 223.111,62.400 215.690 C 62.400 207.801,62.405 207.811,57.972 206.347 C 56.558 205.879,54.860 204.991,54.200 204.372 C 52.827 203.086,49.402 202.823,48.561 203.939 C 48.206 204.409,48.060 204.421,47.799 203.999 C 47.586 203.654,47.633 203.573,47.938 203.762 C 48.192 203.919,48.400 203.857,48.400 203.624 C 48.400 203.163,47.877 203.056,47.494 203.439 M50.414 216.505 C 50.610 216.452,50.674 216.662,50.556 216.970 C 50.427 217.306,50.875 217.907,51.670 218.465 C 53.138 219.497,53.552 220.400,52.557 220.400 C 52.126 220.400,51.997 220.184,52.166 219.743 C 52.380 219.187,52.322 219.166,51.792 219.606 C 51.318 220.000,51.054 220.014,50.703 219.663 C 50.021 218.981,49.418 219.099,50.000 219.800 C 50.781 220.741,50.213 220.502,49.362 219.531 C 48.943 219.053,48.848 218.808,49.152 218.987 C 49.533 219.211,49.641 219.139,49.502 218.756 C 49.391 218.450,49.104 218.243,48.864 218.295 C 48.625 218.348,48.532 218.123,48.657 217.795 C 48.783 217.468,48.686 217.200,48.443 217.200 C 48.199 217.200,48.000 217.020,48.000 216.800 C 48.000 216.087,48.665 216.376,49.151 217.300 C 49.511 217.984,49.563 218.008,49.367 217.400 C 49.225 216.960,49.026 216.240,48.925 215.800 L 48.741 215.000 49.399 215.800 C 49.760 216.240,50.217 216.557,50.414 216.505 M49.849 217.920 C 49.722 218.125,49.957 218.599,50.370 218.973 C 50.783 219.346,51.224 219.484,51.351 219.280 C 51.478 219.075,51.243 218.601,50.830 218.227 C 50.417 217.854,49.976 217.716,49.849 217.920 M104.262 253.931 C 103.898 254.334,103.611 254.919,103.625 255.231 C 103.639 255.544,103.811 255.402,104.006 254.916 C 104.210 254.410,104.926 253.870,105.681 253.652 C 106.885 253.305,106.910 253.269,105.962 253.236 C 105.391 253.216,104.626 253.529,104.262 253.931 " stroke="none" fill="#ecdce2" fill-rule="evenodd"></path><path id="path2" d="M226.800 114.400 C 225.860 115.340,225.831 116.104,226.600 119.600 C 226.915 121.030,227.178 123.573,227.186 125.251 C 227.209 130.274,228.649 130.489,229.524 125.600 C 231.166 116.422,229.916 111.284,226.800 114.400 M333.878 174.654 C 333.700 174.832,332.260 175.017,330.678 175.064 C 325.819 175.210,324.617 177.320,326.783 181.900 L 327.966 184.400 330.734 184.400 C 332.612 184.400,333.651 184.221,333.965 183.843 C 334.495 183.204,334.409 174.121,333.878 174.654 M151.875 183.122 C 150.529 184.527,150.534 184.796,151.935 186.138 C 153.225 187.374,153.903 187.269,155.102 185.647 L 155.925 184.534 154.934 183.267 C 153.716 181.711,153.248 181.689,151.875 183.122 M323.000 188.315 C 321.536 188.497,320.181 189.695,319.138 191.730 C 318.608 192.763,317.873 193.458,316.876 193.869 C 314.845 194.705,313.637 195.894,312.758 197.918 C 312.194 199.219,311.648 199.786,310.507 200.256 C 307.328 201.565,306.588 203.620,308.038 207.109 C 308.958 209.324,309.945 209.682,313.800 209.200 L 315.400 209.000 315.536 206.200 C 315.699 202.843,315.322 203.243,318.420 203.140 C 321.742 203.029,321.870 202.905,321.958 199.717 C 322.047 196.491,321.654 196.864,325.061 196.765 L 327.903 196.682 327.971 192.776 C 328.013 190.312,327.877 188.771,327.601 188.600 C 327.061 188.267,324.612 188.115,323.000 188.315 M227.456 208.353 C 225.339 214.239,226.776 220.005,229.609 216.990 C 230.706 215.823,230.276 210.481,228.864 207.729 L 228.168 206.372 227.456 208.353 M221.039 227.160 L 219.955 228.291 220.730 230.496 C 222.112 234.430,222.148 234.442,223.550 231.504 C 225.042 228.379,225.043 228.359,223.900 227.329 C 222.417 225.995,222.169 225.980,221.039 227.160 M158.196 227.204 C 157.550 227.918,157.531 228.124,158.028 229.052 C 158.802 230.498,159.488 230.651,160.412 229.586 C 162.116 227.621,159.939 225.279,158.196 227.204 M81.962 238.986 C 78.215 240.365,78.080 240.519,78.163 243.295 C 78.265 246.703,78.361 246.800,81.624 246.800 C 84.309 246.800,84.400 246.832,84.400 247.787 C 84.400 248.473,84.572 248.709,84.964 248.558 C 85.424 248.382,85.465 248.624,85.186 249.863 C 84.692 252.052,85.582 252.966,87.899 252.648 C 88.973 252.501,89.600 252.571,89.600 252.837 C 89.600 253.083,90.393 253.232,91.500 253.194 C 98.511 252.954,106.829 253.233,106.565 253.700 C 106.339 254.100,106.390 254.100,106.821 253.700 C 107.118 253.425,107.785 253.200,108.303 253.200 C 108.822 253.200,109.915 252.663,110.731 252.007 C 111.548 251.351,113.112 250.517,114.208 250.154 C 118.007 248.895,119.095 247.215,117.253 245.451 L 116.106 244.352 105.353 244.476 C 95.092 244.594,94.523 244.641,92.916 245.500 C 89.172 247.501,87.328 246.631,87.253 242.828 C 87.182 239.166,85.261 237.771,81.962 238.986 M170.861 239.947 C 169.760 240.902,169.790 241.229,171.070 242.162 C 172.780 243.409,174.813 241.561,173.421 240.023 C 172.500 239.006,171.965 238.990,170.861 239.947 M208.373 240.051 C 208.042 240.668,208.036 241.161,208.350 241.851 C 209.232 243.787,218.000 242.921,218.000 240.898 C 218.000 239.037,209.324 238.273,208.373 240.051 M177.216 245.357 C 175.958 245.920,175.796 247.131,176.832 248.234 L 177.739 249.200 190.800 249.200 L 203.861 249.200 204.730 248.274 C 205.784 247.153,205.814 246.718,204.897 245.888 C 204.092 245.159,178.745 244.674,177.216 245.357 M202.485 258.875 C 202.119 259.241,202.162 259.516,202.670 260.078 C 203.523 261.020,205.157 259.912,204.350 258.939 C 203.797 258.274,203.110 258.250,202.485 258.875 M208.875 271.285 C 208.250 271.910,208.274 272.597,208.939 273.150 C 209.912 273.957,211.020 272.323,210.078 271.470 C 209.516 270.962,209.241 270.919,208.875 271.285 M333.869 275.064 C 333.724 275.209,332.338 275.287,330.789 275.237 C 327.824 275.141,325.600 276.472,325.600 278.342 C 325.600 279.140,327.118 283.215,327.657 283.868 C 327.870 284.125,327.989 285.295,327.922 286.468 L 327.800 288.600 324.803 288.926 C 321.304 289.307,320.519 289.858,320.216 292.146 C 320.095 293.056,319.922 294.340,319.831 295.000 C 319.740 295.660,319.651 296.591,319.633 297.069 C 319.588 298.257,317.712 300.400,316.717 300.400 C 315.662 300.400,312.800 303.267,312.800 304.324 C 312.800 305.176,311.076 306.800,310.171 306.800 C 309.252 306.800,307.255 308.960,307.033 310.195 C 306.363 313.922,305.003 314.714,300.901 313.763 C 297.389 312.948,269.003 313.111,266.893 313.958 C 264.390 314.963,262.329 313.458,262.183 310.518 C 262.065 308.161,260.496 307.232,256.600 307.214 C 252.431 307.194,250.920 306.471,249.695 303.906 C 248.367 301.125,247.429 300.654,243.789 300.939 C 239.506 301.275,237.855 300.511,237.461 298.013 C 237.194 296.316,235.580 294.654,233.387 293.816 C 232.013 293.292,231.552 292.866,231.199 291.796 C 230.718 290.338,228.358 288.000,227.368 288.000 C 226.436 288.000,224.800 286.147,224.800 285.093 C 224.800 283.935,222.864 282.000,221.707 282.000 C 219.337 282.000,218.998 285.087,220.953 288.856 C 223.048 292.894,222.444 294.241,218.497 294.327 C 213.821 294.429,212.288 296.365,213.657 300.440 C 214.487 302.914,215.028 303.237,218.174 303.143 C 221.760 303.037,221.864 302.942,221.983 299.699 C 222.038 298.215,222.094 296.769,222.108 296.487 C 222.125 296.133,222.262 296.102,222.547 296.387 C 222.774 296.614,224.094 296.800,225.480 296.800 C 227.214 296.800,228.009 296.956,228.030 297.300 C 228.046 297.575,228.115 298.856,228.182 300.147 C 228.330 302.963,228.602 303.186,231.900 303.194 C 233.275 303.197,234.416 303.335,234.436 303.500 C 234.456 303.665,234.503 304.790,234.540 306.000 C 234.640 309.281,234.477 309.200,240.981 309.200 C 247.440 309.200,247.032 308.965,247.009 312.679 C 246.990 315.671,246.575 315.495,253.869 315.578 C 260.350 315.651,259.513 315.243,259.641 318.397 C 259.754 321.161,260.245 322.210,261.100 321.511 C 261.444 321.229,261.600 321.238,261.600 321.539 C 261.600 322.198,307.568 322.145,308.440 321.485 C 309.216 320.897,309.200 320.969,309.200 318.000 L 309.200 315.600 311.920 315.600 C 315.329 315.600,315.600 315.329,315.600 311.920 L 315.600 309.200 318.229 309.200 C 321.758 309.200,322.000 308.957,322.000 305.400 L 322.000 303.200 324.551 303.200 C 326.894 303.200,327.860 302.832,327.966 301.900 C 327.985 301.735,328.000 298.806,328.000 295.390 L 328.000 289.180 329.100 288.763 C 330.558 288.211,331.826 286.987,332.416 285.560 C 332.706 284.862,333.196 284.400,333.649 284.400 C 334.342 284.400,334.400 284.030,334.400 279.600 C 334.400 276.960,334.340 274.800,334.267 274.800 C 334.193 274.800,334.015 274.919,333.869 275.064 M214.000 276.400 C 212.921 277.479,212.993 278.340,214.275 279.678 C 215.964 281.441,218.400 280.860,218.400 278.693 C 218.400 276.491,215.448 274.952,214.000 276.400 M210.431 305.600 C 209.093 305.795,207.200 308.276,207.200 309.832 C 207.200 310.675,205.180 312.800,204.378 312.800 C 203.316 312.800,200.840 315.088,200.544 316.345 C 200.223 317.705,198.862 319.200,197.944 319.200 C 196.845 319.200,194.440 321.530,194.083 322.941 C 193.601 324.849,191.765 325.599,187.575 325.599 C 183.735 325.600,182.937 326.087,181.478 329.322 C 180.989 330.407,180.362 331.021,179.296 331.458 C 176.548 332.587,175.202 334.264,175.187 336.578 C 175.165 340.177,174.086 340.724,169.743 339.342 C 166.071 338.174,145.107 338.062,141.926 339.194 C 139.225 340.155,137.200 338.348,137.200 334.975 C 137.200 332.572,134.463 331.611,129.800 332.376 C 126.627 332.896,124.838 331.825,124.813 329.389 C 124.794 327.628,123.810 326.485,121.337 325.354 C 119.501 324.514,119.032 324.075,118.401 322.603 C 117.361 320.175,116.149 319.488,112.778 319.415 C 109.499 319.344,109.495 319.349,109.495 324.034 C 109.495 327.980,109.512 328.000,112.824 328.000 C 115.958 328.000,115.584 327.462,115.736 332.191 L 115.800 334.183 118.796 334.321 C 122.369 334.486,121.970 334.164,122.164 337.035 C 122.252 338.336,122.363 339.445,122.412 339.500 C 122.499 339.599,122.646 340.113,122.756 340.700 C 122.787 340.865,122.987 340.730,123.200 340.400 C 123.416 340.065,123.590 340.004,123.594 340.262 C 123.598 340.585,125.183 340.740,128.860 340.776 C 134.673 340.833,134.813 340.863,134.519 341.988 C 134.406 342.421,134.500 343.310,134.728 343.964 C 135.032 344.836,135.017 345.204,134.671 345.345 C 134.329 345.484,134.337 345.546,134.700 345.568 C 134.975 345.586,135.200 345.860,135.200 346.177 C 135.200 346.673,138.110 346.743,155.983 346.677 C 179.669 346.589,178.039 346.854,177.899 343.119 C 177.807 340.682,177.396 340.848,183.817 340.730 C 190.483 340.607,190.651 340.515,190.649 336.975 L 190.647 334.600 193.224 334.479 C 195.670 334.364,196.537 334.035,196.650 333.180 C 196.678 332.971,196.722 331.720,196.750 330.400 L 196.800 328.000 199.551 328.000 C 202.855 328.000,203.113 327.760,203.146 324.648 C 203.176 321.811,202.901 322.090,205.800 321.958 C 208.874 321.818,209.200 321.461,209.200 318.229 L 209.200 315.600 211.920 315.600 C 215.550 315.600,215.600 315.525,215.600 310.120 C 215.600 306.094,215.524 305.597,214.900 305.569 C 214.515 305.552,213.660 305.507,213.000 305.469 C 212.340 305.431,211.184 305.490,210.431 305.600 " stroke="none" fill="#ac7c94" fill-rule="evenodd"></path><path id="path3" d="M176.861 97.792 C 174.168 100.858,173.932 104.426,176.291 106.371 C 178.190 107.936,178.432 107.918,180.383 106.062 C 182.661 103.895,182.392 101.047,179.615 97.917 L 178.175 96.295 176.861 97.792 M225.042 114.920 C 223.918 115.742,224.226 129.105,225.399 130.400 C 228.368 133.677,233.796 130.493,231.360 126.904 C 230.832 126.125,230.400 125.243,230.400 124.944 C 230.400 123.571,229.620 124.602,229.374 126.300 C 228.765 130.510,227.200 129.858,227.200 125.394 C 227.200 123.794,226.914 121.102,226.564 119.412 C 226.215 117.722,226.038 115.902,226.172 115.369 C 226.444 114.285,226.098 114.147,225.042 114.920 M183.046 118.435 C 180.902 120.122,180.800 120.720,180.800 131.627 L 180.800 141.694 182.353 143.247 C 183.207 144.101,184.218 144.800,184.600 144.800 C 184.982 144.800,185.993 144.101,186.847 143.247 L 188.400 141.694 188.400 131.627 C 188.400 123.522,188.285 121.337,187.808 120.415 C 187.160 119.163,185.379 117.600,184.600 117.600 C 184.329 117.600,183.630 117.976,183.046 118.435 M329.546 124.216 C 330.286 124.537,331.006 124.794,331.146 124.786 C 331.666 124.757,329.376 123.628,328.800 123.630 C 328.470 123.631,328.806 123.894,329.546 124.216 M331.613 124.815 C 331.606 124.934,331.960 125.737,332.400 126.600 C 332.840 127.463,333.200 127.966,333.200 127.717 C 333.200 127.469,333.307 126.936,333.438 126.533 C 333.635 125.923,333.603 125.901,333.244 126.400 C 333.006 126.730,332.809 126.809,332.806 126.576 C 332.800 126.143,331.636 124.425,331.613 124.815 M72.432 135.539 C 71.779 136.760,71.914 137.100,72.641 136.063 C 72.993 135.560,73.188 135.054,73.073 134.940 C 72.959 134.825,72.670 135.095,72.432 135.539 M280.076 143.782 C 271.368 145.890,276.179 150.778,286.977 150.794 L 291.353 150.800 292.877 149.166 C 293.715 148.268,294.400 147.293,294.400 147.000 C 294.400 146.707,293.715 145.732,292.877 144.834 L 291.353 143.200 286.777 143.234 C 284.260 143.253,281.244 143.499,280.076 143.782 M257.489 150.826 C 256.879 151.492,256.100 152.734,255.758 153.587 C 255.285 154.771,254.767 155.287,253.569 155.766 C 249.791 157.278,248.625 159.886,250.769 162.031 C 252.727 163.988,257.200 162.415,257.200 159.768 C 257.200 157.997,258.990 157.200,262.968 157.200 L 266.773 157.200 268.187 155.787 C 269.030 154.943,269.600 153.981,269.600 153.400 C 269.600 152.819,269.030 151.857,268.187 151.013 L 266.773 149.600 262.687 149.608 C 258.653 149.615,258.586 149.631,257.489 150.826 M56.404 159.795 C 55.973 160.314,56.080 160.332,57.255 159.935 C 59.019 159.340,59.144 159.200,57.916 159.200 C 57.356 159.200,56.676 159.468,56.404 159.795 M54.534 159.868 C 54.681 160.015,54.488 160.510,54.104 160.968 C 53.595 161.574,53.704 161.537,54.503 160.830 C 55.786 159.696,55.820 159.600,54.933 159.600 C 54.567 159.600,54.387 159.720,54.534 159.868 M239.425 164.374 C 238.082 165.776,238.211 166.886,239.904 168.508 L 241.037 169.593 242.967 167.634 L 244.896 165.675 243.188 164.437 C 241.083 162.913,240.829 162.909,239.425 164.374 M333.547 172.586 C 333.425 172.708,332.046 172.874,330.482 172.956 C 326.804 173.147,325.234 174.029,324.360 176.395 C 323.323 179.200,324.582 183.040,326.814 183.883 L 327.919 184.300 326.760 181.850 C 324.616 177.318,325.837 175.209,330.691 175.064 C 333.888 174.968,334.593 174.592,334.097 173.250 C 333.917 172.763,333.669 172.464,333.547 172.586 M151.722 180.431 C 147.599 182.472,147.987 187.602,152.380 189.133 C 153.483 189.518,156.232 186.099,155.449 185.316 C 155.322 185.189,155.103 185.386,154.962 185.754 C 154.412 187.189,153.204 187.353,151.959 186.161 C 150.533 184.794,150.525 184.531,151.875 183.122 C 153.251 181.686,153.716 181.711,154.948 183.286 L 155.954 184.571 155.605 183.023 C 155.413 182.171,154.836 181.054,154.322 180.540 L 153.389 179.607 151.722 180.431 M320.420 186.882 C 319.202 187.484,318.585 188.156,317.926 189.593 C 317.171 191.237,316.730 191.649,314.751 192.558 C 312.714 193.492,312.335 193.860,311.426 195.781 C 310.602 197.523,310.021 198.156,308.472 198.999 C 304.742 201.029,303.564 208.055,306.800 208.973 C 309.412 209.714,309.275 209.869,308.188 207.412 C 306.550 203.707,307.231 201.605,310.507 200.256 C 311.648 199.786,312.194 199.219,312.758 197.918 C 313.637 195.894,314.845 194.705,316.876 193.869 C 317.873 193.458,318.608 192.763,319.138 191.730 C 320.693 188.697,324.079 187.307,327.125 188.452 C 327.986 188.775,328.042 188.709,327.925 187.500 L 327.800 186.200 324.919 186.141 C 322.754 186.096,321.637 186.280,320.420 186.882 M82.251 188.576 C 81.453 189.374,80.800 190.375,80.800 190.800 C 80.800 191.225,81.453 192.226,82.251 193.024 L 83.701 194.475 92.951 194.230 C 104.744 193.918,103.034 193.914,117.000 194.283 C 130.128 194.630,129.975 194.599,131.300 197.193 C 132.651 199.836,133.801 200.487,137.474 200.687 C 141.393 200.900,142.672 201.384,143.466 202.956 C 145.216 206.424,146.955 207.299,147.707 205.091 C 148.403 203.049,147.845 200.557,146.310 198.851 C 145.790 198.273,145.060 197.124,144.688 196.297 C 143.595 193.872,142.016 193.149,138.000 193.231 C 136.130 193.269,134.283 193.278,133.895 193.250 C 133.456 193.219,132.795 192.367,132.144 190.991 C 130.251 186.993,130.624 187.081,116.882 187.370 C 102.584 187.670,104.292 187.670,92.951 187.370 L 83.701 187.125 82.251 188.576 M227.155 201.009 C 225.554 204.627,224.227 214.464,224.951 217.346 C 225.719 220.407,228.643 221.923,231.213 220.593 C 235.220 218.521,234.191 202.612,229.881 199.984 C 228.138 198.921,228.066 198.948,227.155 201.009 M230.059 212.533 C 230.551 215.934,230.545 215.994,229.609 216.990 C 226.776 220.005,225.339 214.239,227.456 208.353 L 228.168 206.372 228.864 207.729 C 229.247 208.475,229.785 210.637,230.059 212.533 M65.600 221.613 C 65.600 222.129,65.871 222.400,66.387 222.400 C 66.904 222.400,67.100 222.204,66.957 221.831 C 66.593 220.885,65.600 220.725,65.600 221.613 M155.382 225.782 C 152.830 228.333,155.226 233.600,158.939 233.600 C 160.138 233.600,162.122 231.454,162.787 229.438 C 163.968 225.860,158.167 222.996,155.382 225.782 M219.641 226.214 C 218.250 227.799,218.189 228.313,218.959 231.989 C 219.881 236.394,218.893 237.200,212.571 237.200 L 208.862 237.200 207.431 238.872 C 206.644 239.792,206.000 240.769,206.000 241.043 C 206.000 243.014,204.695 243.200,190.835 243.200 C 176.164 243.200,176.605 243.284,175.215 240.233 C 173.680 236.864,171.289 236.542,168.166 239.284 C 165.483 241.640,167.538 246.000,171.331 246.000 C 172.543 246.000,173.021 246.588,173.366 248.498 C 173.514 249.323,174.062 250.493,174.583 251.098 L 175.530 252.200 190.247 252.314 C 207.720 252.450,208.400 252.303,208.400 248.391 C 208.400 246.210,208.854 246.000,213.580 245.999 C 219.325 245.996,220.459 245.279,221.385 241.061 C 221.569 240.220,222.026 239.768,223.127 239.336 C 225.729 238.314,227.600 233.716,227.600 228.347 C 227.600 224.640,222.276 223.214,219.641 226.214 M223.900 227.329 C 225.043 228.359,225.042 228.379,223.550 231.504 C 222.148 234.442,222.112 234.430,220.730 230.496 L 219.955 228.291 221.039 227.160 C 222.169 225.980,222.417 225.995,223.900 227.329 M160.469 227.062 C 161.403 227.908,161.391 228.458,160.412 229.586 C 159.488 230.651,158.802 230.498,158.028 229.052 C 157.060 227.244,158.959 225.696,160.469 227.062 M232.160 232.160 C 227.522 236.798,235.071 240.463,240.089 236.010 L 241.719 234.564 240.062 233.146 C 237.004 230.528,234.148 230.172,232.160 232.160 M83.000 236.569 C 80.712 237.186,79.695 237.857,78.994 239.212 C 78.656 239.865,78.429 240.399,78.490 240.398 C 78.550 240.397,79.680 239.951,81.000 239.408 C 85.209 237.674,87.174 238.749,87.253 242.828 C 87.328 246.631,89.172 247.501,92.916 245.500 C 94.523 244.641,95.092 244.594,105.353 244.476 L 116.106 244.352 117.253 245.451 C 119.102 247.223,117.993 248.921,114.177 250.157 C 113.064 250.518,111.534 251.346,110.777 251.998 L 109.400 253.182 110.600 252.822 C 111.260 252.624,113.060 252.241,114.600 251.971 C 121.217 250.809,122.528 244.095,116.467 242.412 C 110.470 240.746,93.489 242.289,91.616 244.670 C 90.385 246.235,90.017 245.692,89.404 241.412 C 88.880 237.756,86.178 235.712,83.000 236.569 M244.182 238.182 C 242.735 239.628,242.881 241.255,244.613 242.987 C 246.619 244.993,248.911 244.652,250.746 242.075 C 252.855 239.114,246.826 235.538,244.182 238.182 M173.421 240.023 C 174.813 241.561,172.780 243.409,171.070 242.162 C 169.790 241.229,169.760 240.902,170.861 239.947 C 171.965 238.990,172.500 239.006,173.421 240.023 M217.269 239.862 C 219.172 241.584,217.236 242.770,212.491 242.787 C 208.365 242.802,207.285 242.084,208.373 240.051 C 208.986 238.906,216.046 238.756,217.269 239.862 M333.219 241.180 C 332.900 241.382,332.495 241.458,332.319 241.350 C 331.499 240.843,332.117 241.985,332.963 242.539 C 333.848 243.119,333.947 243.115,334.186 242.493 C 334.329 242.120,334.254 241.751,334.020 241.673 C 333.786 241.595,333.697 241.367,333.821 241.166 C 334.104 240.708,333.959 240.712,333.219 241.180 M257.241 244.614 C 255.326 246.796,256.797 250.800,259.515 250.800 C 260.696 250.800,263.200 248.218,263.200 247.000 C 263.200 243.992,259.195 242.389,257.241 244.614 M204.897 245.888 C 205.814 246.718,205.784 247.153,204.730 248.274 L 203.861 249.200 190.800 249.200 L 177.739 249.200 176.832 248.234 C 175.796 247.131,175.958 245.920,177.216 245.357 C 178.745 244.674,204.092 245.159,204.897 245.888 M269.813 251.013 C 267.488 253.339,268.293 255.498,272.172 257.335 C 274.085 258.240,274.416 258.573,274.791 259.966 C 275.656 263.179,278.348 264.025,280.587 261.787 C 282.830 259.544,281.892 257.311,278.064 255.779 C 276.815 255.279,276.354 254.772,275.608 253.082 C 273.958 249.338,272.138 248.689,269.813 251.013 M105.836 254.600 C 106.044 255.430,105.943 255.600,105.243 255.600 C 104.284 255.600,104.174 255.214,104.900 254.399 C 105.327 253.920,105.295 253.918,104.682 254.383 C 104.287 254.683,104.054 255.164,104.164 255.451 C 104.275 255.739,104.193 256.081,103.983 256.211 C 103.772 256.341,103.600 256.137,103.600 255.757 C 103.600 255.377,103.500 255.167,103.377 255.289 C 103.255 255.412,103.328 256.117,103.541 256.856 C 103.754 257.595,103.944 257.897,103.964 257.527 C 104.001 256.833,105.104 256.285,106.059 256.486 C 106.395 256.557,106.561 256.297,106.497 255.800 C 106.441 255.360,106.358 254.685,106.312 254.300 C 106.267 253.915,106.085 253.600,105.907 253.600 C 105.730 253.600,105.698 254.050,105.836 254.600 M107.181 254.012 C 106.684 254.319,106.701 254.461,107.295 254.990 C 107.678 255.331,107.904 255.489,107.799 255.342 C 107.693 255.194,107.794 254.848,108.023 254.572 C 108.551 253.936,107.950 253.537,107.181 254.012 M201.929 256.311 C 201.340 256.700,200.451 257.536,199.953 258.169 L 199.047 259.320 199.861 260.723 C 200.308 261.495,201.303 262.490,202.071 262.936 L 203.469 263.746 204.866 262.883 C 207.172 261.458,207.955 259.578,206.836 258.155 C 205.892 256.955,204.074 255.605,203.400 255.605 C 203.180 255.605,202.518 255.923,201.929 256.311 M169.920 257.300 C 169.160 258.015,168.317 259.158,168.046 259.839 C 167.690 260.734,167.005 261.326,165.583 261.969 C 162.285 263.460,161.325 265.487,162.784 267.881 C 164.828 271.233,167.675 270.618,169.480 266.435 C 170.368 264.377,170.714 264.001,172.426 263.227 C 174.741 262.181,176.913 258.400,175.200 258.400 C 174.980 258.400,174.800 258.151,174.800 257.846 C 174.800 255.938,171.731 255.595,169.920 257.300 M104.769 256.900 C 104.427 258.020,104.518 258.400,105.028 257.977 C 105.338 257.720,105.493 257.350,105.372 257.155 C 105.165 256.820,104.836 256.681,104.769 256.900 M204.350 258.939 C 205.157 259.912,203.523 261.020,202.670 260.078 C 202.162 259.516,202.119 259.241,202.485 258.875 C 203.110 258.250,203.797 258.274,204.350 258.939 M288.753 263.553 C 286.534 265.772,287.198 267.762,290.762 269.581 C 291.829 270.125,292.471 270.872,293.137 272.346 C 294.420 275.184,296.408 276.171,298.577 275.046 C 301.958 273.291,301.283 270.280,297.060 268.280 C 295.487 267.535,294.831 266.977,294.641 266.219 C 294.318 264.933,291.722 262.000,290.906 262.000 C 290.576 262.000,289.607 262.699,288.753 263.553 M207.889 268.854 C 204.948 271.048,205.150 273.503,208.440 275.549 C 209.527 276.224,210.524 277.097,210.656 277.489 C 211.680 280.522,212.486 281.550,214.717 282.662 C 216.852 283.726,217.045 283.942,217.695 286.000 C 218.145 287.424,218.883 288.658,219.789 289.500 C 221.762 291.333,222.126 291.117,220.934 288.819 C 218.980 285.053,219.347 282.000,221.754 282.000 C 222.894 282.000,224.800 283.965,224.800 285.140 C 224.800 286.156,226.455 288.000,227.368 288.000 C 228.358 288.000,230.718 290.338,231.199 291.796 C 231.552 292.866,232.013 293.292,233.387 293.816 C 235.580 294.654,237.194 296.316,237.461 298.013 C 237.855 300.511,239.506 301.275,243.789 300.939 C 247.429 300.654,248.367 301.125,249.695 303.906 C 250.920 306.471,252.431 307.194,256.600 307.214 C 260.496 307.232,262.065 308.161,262.183 310.518 C 262.329 313.458,264.390 314.963,266.893 313.958 C 269.003 313.111,297.389 312.948,300.901 313.763 C 305.003 314.714,306.363 313.922,307.033 310.195 C 307.255 308.960,309.252 306.800,310.171 306.800 C 311.076 306.800,312.800 305.176,312.800 304.324 C 312.800 303.267,315.662 300.400,316.717 300.400 C 317.712 300.400,319.588 298.257,319.633 297.069 C 319.651 296.591,319.740 295.660,319.831 295.000 C 319.922 294.340,320.095 293.056,320.216 292.146 C 320.519 289.858,321.304 289.307,324.803 288.926 L 327.800 288.600 327.903 286.600 C 327.989 284.936,327.921 284.706,327.503 285.230 C 326.817 286.089,324.748 286.756,323.506 286.518 C 322.137 286.256,319.779 287.425,318.744 288.879 C 317.869 290.108,317.717 290.960,317.644 295.054 L 317.600 297.507 315.009 298.795 C 312.703 299.942,312.308 300.318,311.409 302.217 C 310.601 303.926,310.014 304.560,308.455 305.409 C 306.650 306.391,304.800 308.699,304.800 309.969 C 304.800 311.338,303.565 312.326,302.279 311.984 C 299.101 311.139,296.609 311.000,284.600 311.000 C 272.217 311.000,269.165 311.177,266.936 312.024 C 265.761 312.471,264.719 311.702,264.464 310.200 C 263.860 306.650,261.007 304.800,256.136 304.800 C 252.590 304.800,252.335 304.653,251.089 301.897 C 249.967 299.414,248.435 298.743,244.200 298.882 L 240.600 299.000 239.253 296.297 C 238.015 293.812,237.722 293.509,235.628 292.548 C 233.667 291.648,233.228 291.235,232.467 289.576 C 231.722 287.952,231.244 287.490,229.420 286.627 C 227.534 285.735,227.112 285.309,226.128 283.302 C 225.185 281.380,224.687 280.851,223.110 280.097 C 221.554 279.353,221.044 278.822,220.220 277.080 C 219.315 275.165,219.021 274.895,217.110 274.223 C 214.480 273.299,214.130 273.024,213.155 271.111 C 211.781 268.419,209.680 267.518,207.889 268.854 M210.143 272.864 C 209.449 273.629,208.400 273.249,208.400 272.231 C 208.400 271.198,209.317 270.782,210.078 271.470 C 210.758 272.086,210.762 272.179,210.143 272.864 M333.538 272.996 C 333.402 273.132,331.957 273.291,330.328 273.350 C 326.632 273.483,325.160 274.265,324.331 276.538 C 323.474 278.891,324.379 282.296,326.193 283.539 C 327.585 284.493,328.322 284.671,327.684 283.900 C 327.124 283.222,325.600 279.160,325.600 278.342 C 325.600 276.468,327.823 275.141,330.801 275.237 C 333.942 275.339,334.761 274.936,334.160 273.587 C 333.954 273.126,333.674 272.860,333.538 272.996 M157.389 275.775 C 156.852 276.311,156.132 277.453,155.789 278.312 C 155.289 279.562,154.768 280.052,153.188 280.767 C 151.174 281.677,150.135 282.807,149.236 285.066 C 148.928 285.838,148.256 286.528,147.513 286.836 C 145.759 287.563,144.151 289.023,143.157 290.791 C 142.609 291.766,141.643 292.664,140.518 293.242 C 137.050 295.026,136.388 297.162,138.613 299.387 C 140.765 301.538,142.988 300.751,144.802 297.197 C 145.318 296.184,146.258 295.303,147.684 294.494 C 149.102 293.690,150.189 292.675,150.978 291.416 C 151.646 290.350,152.772 289.221,153.578 288.807 C 155.462 287.841,156.589 286.571,157.420 284.477 C 157.963 283.113,158.469 282.583,159.859 281.930 C 163.083 280.415,163.961 278.166,162.164 276.031 C 160.829 274.443,158.827 274.336,157.389 275.775 M217.325 276.722 C 219.036 278.507,218.429 280.800,216.246 280.800 C 215.208 280.800,213.200 278.874,213.200 277.878 C 213.200 275.771,215.734 275.061,217.325 276.722 M213.949 292.917 C 212.343 293.712,210.805 296.202,210.794 298.026 C 210.787 299.192,210.356 299.974,208.036 303.022 C 207.065 304.297,206.008 306.253,205.686 307.370 C 204.939 309.963,204.706 310.232,202.155 311.439 C 200.333 312.300,199.897 312.741,199.012 314.612 C 198.119 316.499,197.697 316.920,195.799 317.818 C 193.852 318.739,193.496 319.107,192.543 321.182 L 191.474 323.512 187.627 323.667 C 182.400 323.876,181.297 324.527,179.609 328.400 C 179.465 328.730,178.349 329.482,177.129 330.070 C 174.797 331.195,173.600 333.019,173.600 335.446 C 173.600 337.571,172.411 338.862,171.228 338.023 C 167.607 335.455,149.317 335.088,141.330 337.423 C 140.448 337.681,138.884 335.635,139.366 334.855 C 139.835 334.097,137.901 331.235,136.428 330.506 C 135.099 329.848,134.534 329.804,131.852 330.144 C 128.015 330.630,127.276 330.282,126.200 327.482 C 125.529 325.737,125.111 325.254,123.613 324.499 C 121.393 323.379,121.024 323.011,119.901 320.796 C 118.617 318.262,117.081 317.506,112.962 317.378 L 109.600 317.273 109.606 318.737 C 109.609 319.541,109.744 320.012,109.906 319.783 C 111.227 317.907,117.245 319.905,118.401 322.603 C 119.032 324.075,119.501 324.514,121.337 325.354 C 123.810 326.485,124.794 327.628,124.813 329.389 C 124.838 331.825,126.627 332.896,129.800 332.376 C 134.463 331.611,137.200 332.572,137.200 334.975 C 137.200 338.348,139.225 340.155,141.926 339.194 C 145.107 338.062,166.071 338.174,169.743 339.342 C 174.086 340.724,175.165 340.177,175.187 336.578 C 175.202 334.264,176.548 332.587,179.296 331.458 C 180.362 331.021,180.989 330.407,181.478 329.322 C 182.937 326.087,183.735 325.600,187.575 325.599 C 191.765 325.599,193.601 324.849,194.083 322.941 C 194.440 321.530,196.845 319.200,197.944 319.200 C 198.862 319.200,200.223 317.705,200.544 316.345 C 200.840 315.088,203.316 312.800,204.378 312.800 C 205.149 312.800,207.200 310.689,207.200 309.896 C 207.200 309.262,208.796 306.049,209.250 305.769 C 209.460 305.639,210.975 305.527,212.616 305.520 C 215.916 305.506,216.625 304.589,214.855 302.626 C 211.298 298.680,213.157 294.443,218.497 294.327 C 221.500 294.261,222.914 293.412,221.487 292.530 C 220.485 291.911,215.462 292.169,213.949 292.917 " stroke="none" fill="#d67a80" fill-rule="evenodd"></path><path id="path4" d="M154.216 66.302 C 154.100 66.604,153.864 66.763,153.691 66.657 C 153.519 66.550,153.348 67.637,153.313 69.073 C 153.237 72.197,153.426 71.963,150.900 72.053 L 148.846 72.125 148.989 75.221 C 149.189 79.563,148.264 80.518,144.068 80.297 C 141.903 80.183,141.178 80.281,141.014 80.707 C 140.574 81.853,140.824 84.079,141.553 85.516 C 141.968 86.332,142.605 87.884,142.970 88.964 L 143.634 90.927 142.338 92.264 C 141.626 92.999,140.818 93.600,140.544 93.600 C 140.269 93.600,139.540 94.034,138.922 94.565 L 137.800 95.530 137.600 121.800 L 137.400 148.070 136.278 149.035 C 133.381 151.526,126.393 150.164,125.066 146.849 C 124.044 144.293,122.673 143.600,118.645 143.600 C 113.714 143.600,112.854 142.794,112.672 138.000 L 112.542 134.600 92.871 134.521 C 76.325 134.455,73.200 134.531,73.200 134.998 C 73.200 135.303,72.989 135.683,72.732 135.842 C 72.406 136.043,72.352 135.902,72.553 135.378 C 72.712 134.963,72.698 134.770,72.521 134.948 C 72.175 135.297,72.149 135.510,72.059 138.700 L 72.000 140.800 69.300 140.806 C 66.383 140.813,65.868 141.002,65.673 142.140 C 65.588 142.639,65.706 142.782,66.035 142.578 C 66.381 142.364,66.419 142.440,66.163 142.838 C 65.964 143.147,65.801 144.200,65.800 145.178 L 65.799 146.956 63.800 146.978 C 62.700 146.990,61.575 147.146,61.300 147.324 C 61.005 147.514,60.800 147.464,60.800 147.200 C 60.800 146.954,60.641 146.851,60.446 146.971 C 59.867 147.330,59.496 150.732,59.565 155.057 L 59.630 159.114 57.804 159.737 C 56.800 160.079,56.084 160.188,56.213 159.979 C 56.690 159.207,55.709 159.633,54.812 160.588 C 54.301 161.131,53.730 161.480,53.542 161.364 C 53.021 161.042,53.134 161.769,53.700 162.379 C 54.070 162.777,54.073 162.846,53.714 162.644 C 53.335 162.430,53.223 166.906,53.207 182.904 L 53.187 203.438 54.294 204.467 C 54.902 205.033,56.558 205.878,57.972 206.346 C 62.405 207.811,62.400 207.801,62.400 215.690 C 62.400 223.111,62.791 224.798,64.510 224.803 C 66.417 224.808,68.513 226.826,69.218 229.333 C 69.569 230.584,69.960 231.004,71.335 231.613 C 74.132 232.850,74.870 233.926,74.797 236.658 C 74.681 241.013,74.591 240.800,76.551 240.800 C 78.124 240.800,78.354 240.676,78.804 239.590 C 80.952 234.404,88.595 235.747,89.410 241.453 C 90.015 245.686,90.389 246.231,91.616 244.670 C 93.489 242.289,110.470 240.746,116.467 242.412 C 122.529 244.096,121.216 250.817,114.600 251.966 C 113.060 252.233,111.039 252.724,110.109 253.055 C 109.180 253.387,108.251 253.555,108.045 253.428 C 107.602 253.154,105.410 254.281,104.268 255.369 C 103.595 256.011,103.578 256.094,104.163 255.869 C 104.549 255.721,105.121 255.600,105.433 255.600 C 105.745 255.600,106.011 255.285,106.025 254.900 C 106.044 254.382,106.148 254.444,106.426 255.137 C 106.832 256.150,106.576 256.956,105.969 256.581 C 105.443 256.256,104.000 256.765,104.000 257.276 C 104.000 257.560,104.175 257.553,104.537 257.252 C 105.221 256.684,105.732 257.159,105.167 257.839 C 104.933 258.122,104.485 258.254,104.171 258.133 C 103.857 258.013,103.600 258.114,103.600 258.357 C 103.600 258.601,103.960 258.800,104.400 258.800 C 104.840 258.800,105.200 258.949,105.200 259.132 C 105.200 259.314,104.801 259.449,104.312 259.432 C 103.286 259.395,102.814 260.709,103.661 261.246 C 104.057 261.497,104.068 261.589,103.702 261.594 C 103.026 261.602,102.993 314.625,103.669 315.043 C 103.911 315.192,105.321 315.401,106.801 315.507 L 109.494 315.700 109.398 319.150 C 109.310 322.308,109.323 322.376,109.551 319.944 L 109.800 317.287 113.057 317.382 C 117.065 317.498,118.624 318.276,119.901 320.796 C 121.024 323.011,121.393 323.379,123.613 324.499 C 125.111 325.254,125.529 325.737,126.200 327.482 C 127.276 330.282,128.015 330.630,131.852 330.144 C 134.534 329.804,135.099 329.848,136.428 330.506 C 137.901 331.235,139.835 334.097,139.366 334.855 C 138.884 335.635,140.448 337.681,141.330 337.423 C 149.317 335.088,167.607 335.455,171.228 338.023 C 172.411 338.862,173.600 337.571,173.600 335.446 C 173.600 333.019,174.797 331.195,177.129 330.070 C 178.349 329.482,179.465 328.730,179.609 328.400 C 181.297 324.527,182.400 323.876,187.627 323.667 L 191.474 323.512 192.543 321.182 C 193.496 319.107,193.852 318.739,195.799 317.818 C 197.697 316.920,198.119 316.499,199.012 314.612 C 199.897 312.741,200.333 312.300,202.155 311.439 C 204.706 310.232,204.939 309.963,205.686 307.370 C 206.008 306.253,207.065 304.297,208.036 303.022 C 210.356 299.974,210.787 299.192,210.794 298.026 C 210.819 293.840,217.188 290.482,221.300 292.487 C 221.870 292.765,222.000 292.645,222.000 291.841 C 222.000 291.237,221.717 290.764,221.270 290.622 C 219.956 290.205,218.406 288.189,217.696 285.974 C 217.048 283.950,216.843 283.722,214.717 282.662 C 212.486 281.550,211.680 280.522,210.656 277.489 C 210.524 277.097,209.527 276.224,208.440 275.549 C 205.094 273.468,204.944 270.976,208.033 268.776 C 209.578 267.676,211.593 268.392,212.721 270.443 C 214.010 272.788,214.709 273.403,216.953 274.166 C 219.037 274.874,219.279 275.090,220.212 277.063 C 221.045 278.823,221.550 279.352,223.110 280.097 C 224.687 280.851,225.185 281.380,226.128 283.302 C 227.112 285.309,227.534 285.735,229.420 286.627 C 231.244 287.490,231.722 287.952,232.467 289.576 C 233.228 291.235,233.667 291.648,235.628 292.548 C 237.722 293.509,238.015 293.812,239.253 296.297 L 240.600 299.000 244.200 298.882 C 248.435 298.743,249.967 299.414,251.089 301.897 C 252.335 304.653,252.590 304.800,256.136 304.800 C 261.007 304.800,263.860 306.650,264.464 310.200 C 264.719 311.702,265.761 312.471,266.936 312.024 C 269.165 311.177,272.217 311.000,284.600 311.000 C 296.609 311.000,299.101 311.139,302.279 311.984 C 303.565 312.326,304.800 311.338,304.800 309.969 C 304.800 308.699,306.650 306.391,308.455 305.409 C 310.014 304.560,310.601 303.926,311.409 302.217 C 312.308 300.318,312.703 299.942,315.009 298.795 L 317.600 297.507 317.644 295.054 C 317.717 290.960,317.869 290.108,318.744 288.879 C 319.779 287.425,322.137 286.256,323.506 286.518 C 326.466 287.084,328.553 285.055,326.428 283.677 C 324.384 282.351,323.415 279.052,324.331 276.538 C 325.157 274.274,326.635 273.483,330.284 273.351 C 331.889 273.294,333.366 273.145,333.567 273.021 C 333.767 272.897,334.030 273.021,334.150 273.298 C 334.270 273.574,334.349 267.770,334.326 260.400 C 334.303 253.030,334.121 246.791,333.922 246.536 C 333.702 246.252,333.725 245.970,333.981 245.812 C 334.211 245.669,334.400 245.373,334.400 245.153 C 334.400 244.933,334.236 244.854,334.035 244.978 C 333.621 245.234,333.696 244.171,334.122 243.745 C 334.502 243.365,334.475 242.706,334.089 242.945 C 333.480 243.322,331.746 241.641,332.343 241.253 C 332.729 241.002,332.579 240.900,331.819 240.900 C 331.009 240.900,330.807 241.056,330.977 241.550 C 331.154 242.061,331.081 242.044,330.636 241.472 C 330.090 240.768,330.056 240.768,329.605 241.472 C 329.189 242.123,329.163 242.126,329.357 241.500 C 329.477 241.115,329.401 240.800,329.187 240.800 C 328.974 240.800,328.795 241.025,328.788 241.300 C 328.780 241.608,328.632 241.555,328.403 241.163 C 328.198 240.812,328.007 237.781,327.979 234.428 L 327.927 228.332 326.930 228.582 C 326.382 228.719,326.024 228.685,326.135 228.506 C 326.246 228.326,325.428 228.184,324.318 228.190 C 321.789 228.203,321.749 228.105,321.816 222.175 C 321.856 218.704,321.745 217.600,321.358 217.600 C 321.077 217.600,320.746 217.437,320.623 217.237 C 320.500 217.038,320.804 216.966,321.299 217.077 C 321.969 217.227,321.851 217.056,320.842 216.410 C 319.759 215.717,319.416 215.649,319.148 216.071 C 318.945 216.391,318.810 216.422,318.806 216.150 C 318.803 215.903,318.353 215.700,317.807 215.700 C 317.261 215.700,316.920 215.871,317.049 216.080 C 317.178 216.288,316.905 216.222,316.442 215.933 C 315.770 215.513,315.599 215.004,315.595 213.404 C 315.585 209.809,315.396 209.533,313.021 209.643 C 311.881 209.696,310.735 209.607,310.474 209.446 C 310.213 209.285,309.824 209.261,309.609 209.394 C 308.946 209.804,306.036 208.815,305.621 208.038 C 304.025 205.058,305.411 200.665,308.472 198.999 C 310.021 198.156,310.602 197.523,311.426 195.781 C 312.335 193.860,312.714 193.492,314.751 192.558 C 316.730 191.649,317.171 191.237,317.926 189.593 C 319.138 186.949,321.007 186.041,325.035 186.137 C 328.391 186.218,329.473 184.886,326.854 183.898 C 324.583 183.041,323.314 179.225,324.360 176.395 C 325.231 174.036,326.807 173.147,330.448 172.957 C 331.994 172.877,333.411 172.717,333.599 172.601 C 333.786 172.485,334.022 172.707,334.123 173.095 C 334.224 173.483,334.328 171.876,334.354 169.524 C 334.383 166.790,334.241 165.149,333.959 164.975 C 332.718 164.207,331.608 160.581,331.604 157.280 C 331.599 153.154,331.071 152.054,328.220 150.230 C 325.478 148.476,325.200 147.926,325.200 144.252 C 325.200 140.301,324.806 139.419,322.362 137.900 C 321.052 137.086,319.826 135.864,318.961 134.512 C 318.120 133.197,316.883 131.951,315.687 131.216 C 314.546 130.513,313.398 129.378,312.858 128.418 C 311.976 126.848,310.115 125.170,308.705 124.674 C 308.323 124.539,307.454 123.525,306.774 122.420 C 304.857 119.303,303.896 118.800,299.869 118.800 C 296.486 118.800,294.000 117.601,294.000 115.970 C 294.000 115.768,293.349 114.882,292.553 114.001 L 291.107 112.400 275.228 112.400 L 259.350 112.400 258.323 113.500 C 257.758 114.105,256.827 115.357,256.254 116.283 C 254.862 118.530,254.227 118.800,250.326 118.802 C 246.469 118.804,245.663 119.252,243.489 122.600 L 242.191 124.600 237.942 124.713 L 233.693 124.826 232.684 123.626 C 231.852 122.638,231.625 121.832,231.393 119.050 C 231.085 115.357,231.389 115.855,226.900 111.677 L 225.200 110.094 225.198 103.747 C 225.195 95.144,225.133 94.968,220.901 91.541 C 220.327 91.076,219.947 90.018,219.611 87.941 C 218.983 84.068,218.530 83.294,215.799 81.437 C 213.991 80.208,213.304 79.429,212.579 77.791 C 211.444 75.224,211.200 75.114,206.004 74.830 L 201.808 74.600 200.510 72.600 C 197.867 68.527,199.307 68.804,180.773 68.802 C 162.948 68.800,160.828 68.577,159.932 66.611 C 159.420 65.486,154.629 65.227,154.216 66.302 M181.528 101.116 C 182.293 103.672,182.124 104.406,180.383 106.062 C 178.432 107.918,178.190 107.936,176.291 106.371 C 173.932 104.426,174.168 100.858,176.861 97.792 L 178.175 96.295 179.615 97.917 C 180.407 98.810,181.268 100.249,181.528 101.116 M229.568 114.566 C 230.434 115.488,230.463 115.725,230.198 119.684 C 229.911 123.972,230.313 125.957,231.802 127.602 C 233.188 129.134,229.185 132.827,227.233 131.817 C 224.715 130.515,224.612 130.161,224.468 122.356 L 224.335 115.195 226.068 114.426 C 228.331 113.421,228.499 113.428,229.568 114.566 M186.154 118.435 C 188.298 120.122,188.400 120.720,188.400 131.627 L 188.400 141.694 186.847 143.247 C 185.993 144.101,184.982 144.800,184.600 144.800 C 184.218 144.800,183.207 144.101,182.353 143.247 L 180.800 141.694 180.800 131.627 C 180.800 123.522,180.915 121.337,181.392 120.415 C 182.040 119.163,183.821 117.600,184.600 117.600 C 184.871 117.600,185.570 117.976,186.154 118.435 M328.000 123.992 C 328.000 124.216,328.315 124.414,328.700 124.432 C 329.094 124.449,329.188 124.549,328.914 124.660 C 328.618 124.780,329.144 125.553,330.266 126.643 C 332.349 128.668,332.923 128.634,331.802 126.551 C 331.070 125.192,328.000 123.126,328.000 123.992 M328.617 126.372 C 328.373 126.768,329.047 127.324,329.935 127.458 C 330.306 127.515,330.256 127.304,329.773 126.770 C 328.972 125.886,328.927 125.870,328.617 126.372 M292.877 144.834 C 293.715 145.732,294.400 146.707,294.400 147.000 C 294.400 147.293,293.715 148.268,292.877 149.166 L 291.353 150.800 286.977 150.794 C 278.257 150.781,273.692 148.378,276.776 145.423 C 278.364 143.901,281.225 143.275,286.777 143.234 L 291.353 143.200 292.877 144.834 M268.187 151.013 C 269.030 151.857,269.600 152.819,269.600 153.400 C 269.600 153.981,269.030 154.943,268.187 155.787 L 266.773 157.200 262.968 157.200 C 258.990 157.200,257.200 157.997,257.200 159.768 C 257.200 162.415,252.727 163.988,250.769 162.031 C 248.625 159.886,249.791 157.278,253.569 155.766 C 254.767 155.287,255.285 154.771,255.758 153.587 C 257.129 150.162,258.079 149.616,262.687 149.608 L 266.773 149.600 268.187 151.013 M53.470 160.161 C 53.352 160.469,53.361 160.828,53.491 160.957 C 53.833 161.300,54.831 160.375,54.572 159.955 C 54.245 159.426,53.714 159.526,53.470 160.161 M243.188 164.437 L 244.896 165.675 242.967 167.634 L 241.037 169.593 239.904 168.508 C 238.211 166.886,238.082 165.776,239.425 164.374 C 240.829 162.909,241.083 162.913,243.188 164.437 M206.093 170.922 C 207.032 171.869,208.191 173.129,208.670 173.722 C 209.471 174.715,209.770 174.800,212.470 174.801 C 216.335 174.803,217.563 175.546,219.228 178.886 C 219.916 180.269,221.161 182.120,221.993 183.000 C 224.568 185.723,224.832 187.219,224.901 199.464 C 224.956 209.449,224.995 209.995,225.459 207.267 C 226.584 200.648,227.677 198.704,229.631 199.845 C 234.148 202.483,235.365 218.446,231.213 220.593 C 227.827 222.344,225.118 220.030,224.668 215.000 C 224.589 214.120,224.609 215.574,224.713 218.232 L 224.901 223.064 223.150 223.912 L 221.400 224.760 223.518 224.780 C 227.482 224.817,228.237 226.602,227.007 233.030 C 226.306 236.691,225.174 238.532,223.127 239.336 C 222.026 239.768,221.569 240.220,221.385 241.061 C 220.459 245.279,219.325 245.996,213.580 245.999 C 208.854 246.000,208.400 246.210,208.400 248.391 C 208.400 252.303,207.720 252.450,190.247 252.314 L 175.530 252.200 174.583 251.098 C 174.062 250.493,173.514 249.323,173.366 248.498 C 173.021 246.588,172.543 246.000,171.331 246.000 C 167.538 246.000,165.483 241.640,168.166 239.284 C 170.344 237.371,172.125 236.949,173.596 237.997 C 174.258 238.469,174.800 238.701,174.800 238.513 C 174.800 237.282,172.341 236.726,168.997 237.200 C 163.705 237.952,162.449 236.692,163.202 231.389 C 163.754 227.499,162.025 223.441,160.476 224.991 C 160.361 225.106,160.468 225.200,160.713 225.200 C 161.942 225.200,163.286 227.926,162.794 229.419 C 160.849 235.312,154.400 234.530,154.400 228.402 C 154.400 226.048,155.727 224.808,158.282 224.775 C 159.747 224.755,160.011 224.665,159.400 224.394 C 157.225 223.428,156.724 222.615,156.173 219.164 C 155.665 215.981,155.541 215.709,153.864 214.121 C 150.419 210.858,150.569 211.349,150.631 203.558 C 150.695 195.527,150.669 195.624,153.159 194.027 C 156.290 192.017,156.674 191.394,156.998 187.800 C 157.333 184.080,158.214 182.097,159.993 181.059 C 160.691 180.651,161.895 179.329,162.668 178.121 C 163.801 176.349,164.491 175.739,166.228 174.971 C 167.695 174.322,168.768 173.484,169.594 172.344 C 171.909 169.149,170.704 169.336,189.493 169.260 L 204.386 169.200 206.093 170.922 M155.620 183.037 C 156.217 185.600,154.054 189.717,152.411 189.144 C 147.988 187.602,147.583 182.480,151.722 180.431 L 153.389 179.607 154.322 180.540 C 154.836 181.054,155.420 182.177,155.620 183.037 M103.600 187.617 C 104.370 187.618,110.347 187.507,116.882 187.370 C 130.624 187.081,130.251 186.993,132.144 190.991 C 132.795 192.367,133.456 193.219,133.895 193.250 C 134.283 193.278,136.130 193.269,138.000 193.231 C 142.016 193.149,143.595 193.872,144.688 196.297 C 145.060 197.124,145.790 198.273,146.310 198.851 C 147.845 200.557,148.403 203.049,147.707 205.091 C 146.955 207.299,145.216 206.424,143.466 202.956 C 142.672 201.384,141.393 200.900,137.474 200.687 C 133.801 200.487,132.651 199.836,131.300 197.193 C 129.975 194.599,130.128 194.630,117.000 194.283 C 103.034 193.914,104.744 193.918,92.951 194.230 L 83.701 194.475 82.251 193.024 C 81.453 192.226,80.800 191.225,80.800 190.800 C 80.800 190.375,81.453 189.374,82.251 188.576 L 83.701 187.125 92.951 187.370 C 98.038 187.505,102.830 187.616,103.600 187.617 M48.654 216.202 C 48.205 217.374,50.403 220.187,51.474 219.811 C 51.735 219.720,52.014 219.842,52.094 220.082 C 52.174 220.323,52.485 220.438,52.786 220.338 C 53.126 220.225,52.790 219.837,51.889 219.306 C 51.096 218.838,50.105 217.788,49.687 216.973 C 49.061 215.753,48.879 215.617,48.654 216.202 M50.355 218.619 C 50.710 219.070,50.505 218.932,49.900 218.313 C 49.295 217.694,48.805 216.965,48.812 216.694 C 48.819 216.422,49.023 216.560,49.267 217.000 C 49.510 217.440,50.000 218.169,50.355 218.619 M66.957 221.831 C 67.100 222.204,66.904 222.400,66.387 222.400 C 65.871 222.400,65.600 222.129,65.600 221.613 C 65.600 220.725,66.593 220.885,66.957 221.831 M219.220 225.865 C 218.053 227.349,217.853 228.449,218.138 231.817 C 218.487 235.953,217.534 236.793,212.469 236.814 C 208.532 236.831,207.743 237.245,205.857 240.283 C 204.272 242.835,204.485 242.800,190.715 242.800 C 176.950 242.800,177.050 242.816,175.768 240.339 C 175.423 239.671,175.064 239.203,174.969 239.298 C 174.649 239.618,176.049 241.989,176.917 242.597 C 179.766 244.593,206.000 243.191,206.000 241.043 C 206.000 240.769,206.644 239.792,207.431 238.872 L 208.862 237.200 212.571 237.200 C 218.893 237.200,219.881 236.394,218.959 231.989 C 218.189 228.313,218.250 227.799,219.641 226.214 C 220.324 225.436,220.697 224.800,220.470 224.800 C 220.244 224.800,219.681 225.279,219.220 225.865 M236.857 231.264 C 237.709 231.520,239.151 232.366,240.062 233.146 L 241.719 234.564 240.089 236.010 C 237.083 238.678,234.255 239.029,232.213 236.987 C 229.030 233.803,232.217 229.874,236.857 231.264 M248.838 237.819 C 251.894 239.400,251.871 242.212,248.788 243.806 C 247.045 244.708,246.161 244.534,244.613 242.987 C 241.322 239.695,244.633 235.645,248.838 237.819 M261.787 244.613 C 263.940 246.767,262.459 250.800,259.515 250.800 C 259.039 250.800,258.065 250.153,257.328 249.350 C 254.089 245.813,258.403 241.230,261.787 244.613 M273.845 250.309 C 274.310 250.689,275.103 251.937,275.608 253.082 C 276.354 254.772,276.815 255.279,278.064 255.779 C 281.892 257.311,282.830 259.544,280.587 261.787 C 278.348 264.025,275.656 263.179,274.791 259.966 C 274.416 258.573,274.085 258.240,272.172 257.335 C 268.293 255.498,267.488 253.339,269.813 251.013 C 271.368 249.459,272.553 249.252,273.845 250.309 M108.023 254.572 C 107.794 254.848,107.693 255.194,107.799 255.342 C 107.904 255.489,107.678 255.331,107.295 254.990 C 106.701 254.461,106.684 254.319,107.181 254.012 C 107.950 253.537,108.551 253.936,108.023 254.572 M204.871 256.311 C 208.106 258.445,208.104 260.882,204.866 262.883 L 203.469 263.746 202.071 262.936 C 201.303 262.490,200.308 261.495,199.861 260.723 L 199.047 259.320 199.953 258.169 C 200.906 256.957,202.724 255.605,203.400 255.605 C 203.620 255.605,204.282 255.923,204.871 256.311 M173.814 256.646 C 174.356 257.001,174.800 257.541,174.800 257.846 C 174.800 258.151,174.980 258.400,175.200 258.400 C 176.913 258.400,174.741 262.181,172.426 263.227 C 170.714 264.001,170.368 264.377,169.480 266.435 C 167.675 270.618,164.828 271.233,162.784 267.881 C 161.325 265.487,162.285 263.460,165.583 261.969 C 167.005 261.326,167.690 260.734,168.046 259.839 C 169.217 256.895,171.914 255.401,173.814 256.646 M292.943 263.590 C 293.733 264.464,294.497 265.647,294.641 266.219 C 294.831 266.977,295.487 267.535,297.060 268.280 C 301.283 270.280,301.958 273.291,298.577 275.046 C 296.408 276.171,294.420 275.184,293.137 272.346 C 292.471 270.872,291.829 270.125,290.762 269.581 C 287.198 267.762,286.534 265.772,288.753 263.553 C 290.695 261.611,291.159 261.615,292.943 263.590 M162.164 276.031 C 163.961 278.166,163.083 280.415,159.859 281.930 C 158.469 282.583,157.963 283.113,157.420 284.477 C 156.589 286.571,155.462 287.841,153.578 288.807 C 152.772 289.221,151.646 290.350,150.978 291.416 C 150.189 292.675,149.102 293.690,147.684 294.494 C 146.258 295.303,145.318 296.184,144.802 297.197 C 142.988 300.751,140.765 301.538,138.613 299.387 C 136.388 297.162,137.050 295.026,140.518 293.242 C 141.643 292.664,142.609 291.766,143.157 290.791 C 144.151 289.023,145.759 287.563,147.513 286.836 C 148.256 286.528,148.928 285.838,149.236 285.066 C 150.135 282.807,151.174 281.677,153.188 280.767 C 154.768 280.052,155.289 279.562,155.789 278.312 C 157.233 274.702,160.164 273.653,162.164 276.031 " stroke="none" fill="#ec8494" fill-rule="evenodd"></path></g></svg>