<svg id="svg" version="1.1" xmlns="http://www.w3.org/2000/svg" xmlns:xlink="http://www.w3.org/1999/xlink" width="400" height="400" viewBox="0, 0, 400,400"><g id="svgg"><path id="path0" d="M195.367 55.170 C 194.008 55.748,192.417 57.950,192.150 59.623 C 191.756 62.085,191.085 62.782,190.028 61.825 C 185.882 58.073,173.594 60.957,173.601 65.680 C 173.609 70.283,184.988 73.042,189.700 69.583 L 190.800 68.776 190.800 70.367 L 190.800 71.957 181.785 72.079 C 172.165 72.208,172.021 72.240,172.006 74.236 C 172.003 74.727,171.603 75.253,171.038 75.510 C 170.509 75.751,169.747 76.505,169.345 77.186 C 168.830 78.058,168.139 78.545,167.007 78.833 C 161.647 80.197,160.646 81.074,160.646 84.400 C 160.646 86.929,161.665 88.384,164.009 89.201 C 167.195 90.312,166.421 90.695,160.648 90.864 C 154.123 91.054,153.829 91.220,153.458 94.913 C 152.888 100.576,153.718 102.381,157.070 102.769 C 159.113 103.006,158.735 103.074,154.000 103.322 C 135.465 104.292,135.820 104.110,135.177 112.948 C 134.983 115.616,134.819 117.852,134.812 117.916 C 134.806 117.980,134.035 118.738,133.100 119.600 L 131.400 121.169 131.175 125.084 C 130.805 131.546,129.428 135.819,126.938 138.239 C 124.226 140.875,125.627 143.386,130.792 145.148 L 132.185 145.623 130.592 143.946 C 129.199 142.480,129.150 142.370,130.200 143.070 C 132.503 144.605,133.102 144.557,131.600 142.958 C 130.231 141.500,130.227 141.485,131.400 142.269 C 133.511 143.678,134.353 143.828,133.191 142.587 L 132.200 141.529 133.266 142.014 C 135.130 142.860,135.376 148.000,133.553 148.000 C 133.113 148.000,132.864 147.820,133.000 147.600 C 133.136 147.380,133.066 147.200,132.843 147.200 C 132.621 147.200,132.277 147.491,132.078 147.847 C 131.745 148.441,131.631 148.438,130.684 147.819 C 129.670 147.154,128.373 147.165,124.636 147.871 C 123.583 148.071,120.247 151.040,118.323 153.492 C 117.951 153.967,116.961 154.477,116.123 154.626 C 111.921 155.374,110.965 157.215,110.630 165.200 C 110.365 171.522,109.911 173.600,108.795 173.600 C 106.450 173.600,104.289 177.522,103.740 182.774 C 103.459 185.460,103.322 185.679,101.255 186.721 C 99.891 187.409,99.581 187.842,97.926 191.374 C 97.416 192.460,95.812 194.532,94.360 195.979 C 92.008 198.323,91.689 198.827,91.445 200.605 C 90.932 204.323,90.787 204.716,89.841 204.954 C 88.172 205.373,86.859 206.795,86.006 209.109 C 85.463 210.580,84.560 211.979,83.481 213.018 C 79.677 216.681,78.382 219.758,79.170 223.263 C 80.408 228.775,88.122 228.667,89.600 223.117 C 90.516 219.681,90.800 219.908,90.800 224.073 L 90.800 227.879 86.900 228.138 C 84.755 228.280,81.470 228.398,79.600 228.400 C 73.165 228.408,72.601 228.842,72.173 234.112 L 71.892 237.577 70.784 236.788 C 70.174 236.354,69.216 235.215,68.654 234.256 C 65.791 229.371,62.400 231.197,62.400 237.626 C 62.400 242.429,63.607 243.600,68.560 243.600 L 72.000 243.600 72.000 245.369 L 72.000 247.138 66.613 247.269 C 59.538 247.441,59.861 247.108,59.600 254.514 L 59.400 260.200 58.230 260.115 C 57.416 260.056,56.554 259.479,55.394 258.215 C 53.386 256.028,52.854 255.978,51.237 257.819 C 49.791 259.466,49.927 260.022,52.226 261.867 C 53.796 263.126,54.349 264.834,54.383 268.523 C 54.420 272.609,56.456 276.400,58.614 276.400 C 58.972 276.400,59.200 276.788,59.200 277.400 L 59.200 278.400 54.226 278.400 C 48.611 278.400,47.413 278.695,47.043 280.171 C 46.792 281.171,46.693 281.200,43.530 281.200 L 40.276 281.200 38.741 282.813 C 35.558 286.159,34.593 292.158,36.672 295.675 C 37.699 297.413,37.459 297.758,34.816 298.352 C 30.619 299.295,29.481 301.319,29.730 307.400 C 30.367 322.918,38.427 321.990,39.162 306.313 C 39.354 302.219,39.536 301.091,40.100 300.528 C 40.755 299.874,41.243 307.386,40.806 311.388 C 40.620 313.095,41.291 318.900,41.614 318.377 C 41.798 318.080,41.847 317.334,41.724 316.719 C 41.396 315.080,41.808 315.350,42.818 317.437 C 43.383 318.603,43.815 319.099,44.004 318.794 C 44.216 318.451,44.378 318.440,44.574 318.757 C 44.724 319.001,45.048 319.200,45.293 319.200 C 45.539 319.200,45.303 318.719,44.770 318.131 L 43.800 317.062 45.284 318.166 C 46.841 319.325,47.013 319.650,47.378 322.125 C 47.522 323.096,47.458 323.559,47.202 323.401 C 46.583 323.019,46.726 324.516,47.399 325.478 C 47.859 326.133,47.882 326.373,47.499 326.502 C 46.023 326.999,48.172 328.000,50.716 328.000 C 53.835 328.000,53.778 328.285,50.555 328.802 C 48.827 329.080,47.987 329.442,47.400 330.161 C 46.889 330.788,46.094 331.189,45.200 331.271 C 42.864 331.486,42.945 333.816,45.375 336.281 C 46.379 337.299,47.200 338.278,47.200 338.456 C 47.200 339.049,49.378 339.885,51.063 339.939 C 51.977 339.968,53.204 340.173,53.789 340.396 C 54.373 340.618,55.920 340.800,57.226 340.800 C 59.982 340.800,60.483 341.613,58.300 342.543 C 56.508 343.307,55.207 344.828,54.965 346.443 C 54.058 352.500,68.303 354.367,70.388 348.464 L 70.975 346.800 199.888 346.800 L 328.800 346.800 328.800 348.020 C 328.800 353.443,336.490 354.314,341.467 349.455 C 344.237 346.750,344.548 343.911,342.100 343.675 C 340.910 343.560,340.800 343.433,340.800 342.175 C 340.800 340.110,343.476 340.040,343.675 342.100 C 343.881 344.237,346.951 344.249,348.809 342.120 C 349.538 341.284,350.508 340.502,350.964 340.383 C 352.650 339.941,353.628 332.230,352.406 329.015 C 351.983 327.902,352.418 327.548,354.835 327.036 C 356.045 326.780,358.000 325.338,358.000 324.701 C 358.000 324.459,357.595 324.629,357.100 325.080 C 356.014 326.070,354.643 326.806,353.926 326.784 C 353.637 326.776,353.984 326.515,354.698 326.204 C 355.412 325.894,356.436 325.200,356.974 324.663 C 357.512 324.125,358.081 323.801,358.240 323.942 C 358.398 324.084,358.393 323.966,358.228 323.680 C 358.063 323.394,358.240 322.502,358.621 321.699 C 359.099 320.691,359.174 320.191,358.861 320.087 C 357.381 319.594,359.785 318.800,362.758 318.800 C 365.905 318.800,366.003 318.770,367.387 317.387 L 368.800 315.973 368.800 309.347 L 368.800 302.720 367.440 301.360 C 366.288 300.208,365.799 300.000,364.240 300.000 L 362.400 300.000 362.400 298.139 C 362.400 296.462,362.231 296.120,360.700 294.703 C 359.030 293.156,356.795 291.662,357.900 292.831 C 358.736 293.715,358.562 294.663,357.700 293.923 C 356.428 292.831,355.785 292.654,356.653 293.635 C 357.520 294.615,358.800 296.903,358.800 297.473 C 358.800 297.645,358.364 297.144,357.830 296.359 C 356.522 294.433,354.873 293.354,354.257 294.021 C 353.972 294.330,353.963 294.427,354.233 294.276 C 354.472 294.144,354.667 294.280,354.667 294.579 C 354.667 295.001,354.461 295.028,353.746 294.703 C 353.239 294.472,352.920 294.129,353.036 293.942 C 353.152 293.754,353.067 293.600,352.847 293.600 C 352.626 293.600,352.515 293.244,352.598 292.808 C 352.772 291.905,352.195 291.361,351.778 292.036 C 351.577 292.360,351.414 292.347,351.192 291.987 C 351.023 291.714,350.343 291.469,349.682 291.445 C 349.020 291.420,348.562 291.265,348.663 291.100 C 348.764 290.935,348.387 290.800,347.824 290.800 C 346.104 290.800,346.591 289.811,348.885 288.645 C 349.813 288.173,350.656 287.314,351.130 286.356 C 351.547 285.512,352.011 284.944,352.160 285.093 C 352.309 285.243,352.408 284.203,352.380 282.782 C 352.352 281.362,352.350 279.164,352.377 277.897 C 352.453 274.283,351.472 273.003,348.285 272.560 C 346.038 272.247,345.606 271.665,345.586 268.926 C 345.541 262.663,343.828 258.282,340.623 256.232 C 337.856 254.462,337.600 253.938,337.600 250.040 C 337.600 244.799,335.001 242.499,332.411 245.448 C 331.602 246.370,330.473 247.097,329.306 247.448 C 327.416 248.017,326.139 248.153,327.200 247.672 C 327.692 247.449,327.759 246.787,327.575 244.000 L 327.349 240.600 327.220 244.000 C 327.079 247.731,326.907 247.365,326.705 242.900 C 326.607 240.739,326.705 240.000,327.087 240.000 C 327.392 240.000,327.600 239.507,327.600 238.787 C 327.600 237.440,326.620 234.800,326.120 234.800 C 325.943 234.800,324.754 233.820,323.478 232.622 L 321.156 230.444 320.787 226.722 C 320.116 219.952,319.527 218.698,316.436 217.461 C 314.090 216.522,312.970 213.310,312.462 206.066 C 312.175 201.978,312.362 202.289,308.357 199.219 C 307.653 198.679,306.722 197.635,306.287 196.899 C 304.946 194.626,301.463 192.084,299.292 191.794 C 296.057 191.363,295.126 190.850,295.386 189.643 C 296.554 184.232,294.645 177.230,291.551 175.574 C 290.337 174.924,289.715 173.026,289.397 169.000 C 288.986 163.785,287.755 161.735,284.576 160.970 C 281.404 160.208,281.200 159.917,281.200 156.150 C 281.200 151.899,279.854 150.000,276.840 150.000 L 275.200 150.000 275.200 151.575 L 275.200 153.150 270.792 153.275 C 265.935 153.413,265.600 153.370,265.600 152.612 C 265.600 152.303,266.312 151.984,267.348 151.829 C 268.310 151.684,269.788 151.214,270.633 150.783 C 271.478 150.352,272.761 150.000,273.485 150.000 C 275.624 150.000,275.472 146.638,273.246 144.731 C 272.004 143.667,271.523 142.833,270.851 140.575 C 269.929 137.474,268.841 136.148,266.901 135.760 C 264.979 135.376,264.532 134.552,264.266 130.897 C 263.943 126.481,262.750 124.316,260.346 123.788 C 258.728 123.433,258.401 122.554,258.391 118.526 C 258.379 113.672,257.598 111.962,254.941 110.980 C 252.262 109.989,252.105 109.821,251.801 107.605 C 251.412 104.781,249.422 101.703,246.889 100.011 C 245.728 99.235,244.412 97.970,243.965 97.200 C 243.517 96.430,242.503 95.236,241.712 94.546 L 240.272 93.293 239.993 87.937 C 239.572 79.859,238.988 79.185,232.151 78.889 L 228.103 78.713 227.894 76.113 C 227.573 72.115,227.840 72.222,217.787 72.072 L 209.200 71.943 209.200 70.378 L 209.200 68.813 210.700 69.579 C 217.006 72.801,227.992 67.686,223.409 63.662 C 219.818 60.509,215.097 59.701,211.008 61.541 C 208.688 62.584,208.284 62.334,207.843 59.578 C 207.679 58.556,207.092 57.434,206.225 56.487 L 204.863 55.000 200.532 54.908 C 198.149 54.857,195.825 54.975,195.367 55.170 M205.472 64.900 C 206.138 65.567,205.880 65.600,200.062 65.600 C 194.047 65.600,193.062 65.345,195.341 64.380 C 196.930 63.707,204.678 64.104,205.472 64.900 M172.193 82.000 C 172.158 82.880,172.100 84.320,172.064 85.200 L 172.000 86.800 170.000 86.800 L 168.000 86.800 167.966 88.300 C 167.931 89.791,167.929 89.793,167.583 88.634 C 167.391 87.993,167.001 87.321,166.717 87.140 C 166.359 86.913,166.477 86.810,167.100 86.806 C 168.220 86.799,168.346 85.095,167.338 83.589 C 166.974 83.045,166.920 82.825,167.218 83.100 C 168.225 84.029,168.547 83.608,167.600 82.600 C 166.451 81.377,167.218 81.273,168.844 82.431 L 170.011 83.263 169.560 82.272 C 169.312 81.727,168.724 81.095,168.254 80.868 C 167.562 80.533,167.860 80.449,169.829 80.427 L 172.257 80.400 172.193 82.000 M145.025 95.174 C 143.642 96.617,143.836 97.944,145.615 99.210 C 147.693 100.690,150.753 97.921,149.371 95.812 C 147.994 93.711,146.620 93.509,145.025 95.174 M236.000 96.800 C 235.217 97.306,234.400 97.306,234.400 96.800 C 234.400 96.580,234.895 96.403,235.500 96.406 C 236.357 96.411,236.468 96.498,236.000 96.800 M241.245 109.315 C 240.918 109.642,240.808 109.340,240.832 108.180 C 240.863 106.618,240.868 106.613,241.277 107.735 C 241.570 108.540,241.561 108.999,241.245 109.315 M247.520 120.700 C 247.881 121.770,247.856 122.000,247.379 122.000 C 246.979 122.000,246.800 121.547,246.800 120.533 C 246.800 118.858,246.907 118.883,247.520 120.700 M254.400 128.043 C 254.400 128.239,254.130 128.400,253.800 128.400 C 253.470 128.400,253.200 128.136,253.200 127.813 C 253.200 127.455,253.435 127.315,253.800 127.455 C 254.130 127.582,254.400 127.846,254.400 128.043 M217.713 135.748 C 219.386 136.461,220.658 137.870,221.298 139.717 C 221.641 140.708,222.260 141.440,223.166 141.926 C 224.248 142.506,224.740 143.210,225.610 145.426 C 227.503 150.245,228.152 151.364,230.085 153.142 C 231.408 154.358,232.217 155.550,232.798 157.137 C 233.253 158.382,233.810 159.866,234.035 160.437 C 234.260 161.007,235.069 161.771,235.831 162.134 C 237.342 162.855,239.766 167.395,240.247 170.406 C 240.560 172.360,240.702 172.541,242.716 173.563 C 244.557 174.496,244.657 174.664,246.058 179.152 C 246.831 181.628,247.207 182.248,248.390 183.002 C 250.834 184.560,251.935 185.840,252.219 187.457 C 253.028 192.056,252.848 191.756,255.017 192.116 C 257.625 192.548,258.114 193.113,258.460 196.100 C 258.619 197.475,258.876 199.725,259.032 201.100 L 259.316 203.600 260.972 203.600 C 263.097 203.600,263.811 202.488,264.611 197.935 C 265.250 194.304,266.000 192.891,266.000 195.320 C 266.000 197.031,265.887 196.974,267.738 196.200 C 268.528 195.870,269.225 195.600,269.287 195.600 C 269.349 195.599,269.339 197.381,269.264 199.558 C 269.179 202.031,269.300 203.839,269.587 204.375 L 270.046 205.232 270.723 204.399 C 271.336 203.644,271.755 203.576,275.138 203.683 L 278.876 203.800 279.424 205.395 C 279.725 206.272,280.247 207.192,280.585 207.439 C 280.923 207.686,281.200 208.214,281.200 208.613 C 281.200 209.472,282.312 210.800,283.031 210.800 C 283.938 210.800,285.903 212.765,287.138 214.907 C 287.802 216.058,289.350 218.062,290.578 219.361 C 291.806 220.660,292.735 221.798,292.641 221.892 C 292.548 221.985,292.895 223.019,293.412 224.188 C 293.929 225.358,294.268 226.399,294.165 226.502 C 293.856 226.811,297.621 230.790,298.799 231.400 C 299.849 231.943,302.495 235.545,302.367 236.257 C 302.333 236.446,302.340 236.690,302.383 236.800 C 302.426 236.910,302.537 237.315,302.631 237.700 C 302.724 238.085,302.876 238.715,302.969 239.100 C 303.063 239.485,303.153 239.981,303.169 240.202 C 303.186 240.424,303.751 240.849,304.425 241.147 C 305.099 241.445,306.112 242.164,306.676 242.745 C 307.240 243.325,307.575 243.530,307.421 243.200 C 307.267 242.870,307.424 242.949,307.770 243.376 C 308.117 243.804,308.400 244.299,308.400 244.476 C 308.400 244.654,308.641 244.800,308.936 244.800 C 309.438 244.800,310.400 246.384,310.400 247.210 C 310.400 248.637,313.376 253.637,315.339 255.509 C 316.556 256.669,317.667 258.019,317.808 258.509 C 318.596 261.253,320.620 264.482,323.237 267.170 C 324.028 267.981,325.004 269.535,325.407 270.623 C 325.810 271.710,326.706 273.410,327.399 274.400 C 328.092 275.390,328.864 276.921,329.116 277.801 C 329.367 278.682,330.355 280.482,331.311 281.801 C 332.267 283.121,333.398 284.830,333.825 285.600 C 334.251 286.370,334.829 287.146,335.108 287.325 C 335.388 287.503,335.520 287.806,335.402 287.997 C 335.284 288.188,335.370 288.458,335.593 288.596 C 335.817 288.734,336.000 289.187,336.000 289.603 C 336.000 290.019,336.405 290.820,336.900 291.383 C 337.395 291.946,338.340 293.105,339.000 293.957 C 339.660 294.809,340.706 295.843,341.325 296.253 C 342.652 297.133,343.375 298.664,343.762 301.407 C 344.324 305.391,346.206 308.253,348.527 308.653 C 351.111 309.099,351.329 309.766,348.942 309.920 C 346.406 310.084,343.602 313.976,343.599 317.340 C 343.597 318.760,342.276 321.199,341.506 321.203 C 341.228 321.204,340.550 321.879,340.001 322.703 C 339.451 323.526,338.771 324.443,338.489 324.740 C 337.801 325.466,336.658 328.078,336.756 328.700 C 336.800 328.975,336.667 329.200,336.461 329.200 C 336.255 329.200,335.975 329.645,335.838 330.190 C 335.702 330.734,335.129 331.859,334.565 332.690 C 334.001 333.520,333.450 334.650,333.339 335.200 C 332.970 337.038,332.261 337.476,327.933 338.540 L 323.677 339.585 195.291 339.608 C 98.244 339.625,66.654 339.517,65.880 339.164 C 65.101 338.809,64.738 338.205,64.369 336.648 C 64.102 335.522,63.460 334.091,62.942 333.469 C 62.424 332.847,61.991 332.217,61.980 332.069 C 61.656 327.784,60.090 324.800,58.165 324.800 C 56.151 324.800,54.400 321.350,54.400 317.383 C 54.400 314.690,53.499 311.408,52.491 310.434 L 51.492 309.468 53.092 308.834 C 53.971 308.485,54.941 308.005,55.246 307.767 C 58.075 305.558,57.981 305.566,81.012 305.589 C 92.756 305.601,102.597 305.685,102.882 305.774 C 103.167 305.864,118.610 306.040,137.200 306.166 C 155.790 306.291,176.400 306.476,183.000 306.577 C 189.600 306.678,213.830 306.889,236.845 307.046 L 278.690 307.331 279.776 305.478 C 281.116 303.191,280.976 302.670,278.227 299.690 C 276.076 297.358,274.800 295.326,274.800 294.231 C 274.800 293.137,272.785 289.335,271.608 288.207 C 270.915 287.544,269.699 285.275,268.555 282.512 C 266.830 278.348,266.459 277.764,264.573 276.259 C 262.991 274.997,262.132 273.865,260.981 271.529 C 259.470 268.462,258.957 268.018,256.909 268.005 C 255.322 267.996,254.689 266.384,254.746 262.490 C 254.804 258.488,254.241 257.378,251.933 256.940 C 248.962 256.377,248.051 255.011,247.749 250.670 C 247.437 246.178,247.419 246.137,245.618 245.849 C 243.853 245.567,243.379 244.967,242.820 242.306 C 242.103 238.893,241.158 237.016,239.345 235.400 C 237.645 233.886,237.526 233.639,237.120 230.800 C 236.580 227.020,235.613 225.085,233.597 223.751 C 231.864 222.604,230.239 219.741,229.766 217.000 C 229.396 214.862,228.189 213.200,227.005 213.200 C 224.539 213.200,223.663 211.735,223.356 207.095 C 223.083 202.989,222.687 202.164,220.527 201.209 C 219.414 200.716,218.640 200.049,218.339 199.323 C 216.571 195.054,215.986 194.037,214.945 193.417 C 213.866 192.775,211.215 187.777,211.191 186.342 C 211.165 184.705,209.637 182.472,208.351 182.189 C 205.624 181.590,205.199 180.714,204.610 174.471 C 204.337 171.584,203.965 170.824,202.381 169.915 C 197.352 167.029,197.540 153.286,202.635 151.331 C 203.346 151.058,204.813 148.245,205.773 145.312 C 206.389 143.431,208.241 141.200,209.187 141.200 C 209.367 141.200,209.635 140.716,209.783 140.124 C 210.664 136.615,214.622 134.431,217.713 135.748 M260.000 140.200 C 260.408 140.691,260.380 140.800,259.849 140.800 C 259.492 140.800,259.200 140.530,259.200 140.200 C 259.200 139.870,259.268 139.600,259.351 139.600 C 259.434 139.600,259.726 139.870,260.000 140.200 M121.983 159.500 L 121.966 162.600 121.200 161.200 C 120.321 159.595,120.242 158.867,120.790 157.426 C 121.524 155.496,122.000 156.324,121.983 159.500 M278.356 169.300 C 279.211 171.584,279.259 172.000,278.667 172.000 C 278.260 172.000,278.037 171.450,277.937 170.200 C 277.777 168.181,277.866 167.989,278.356 169.300 M121.827 171.907 C 121.327 172.406,121.166 171.599,121.474 170.141 L 121.799 168.600 121.926 170.140 C 121.996 170.987,121.951 171.782,121.827 171.907 M161.600 184.400 C 162.521 184.695,162.491 184.723,161.211 184.760 L 159.822 184.800 160.754 185.453 C 161.845 186.217,163.590 189.753,163.596 191.211 C 163.598 191.767,163.890 192.636,164.245 193.142 C 164.848 194.003,164.838 194.098,164.086 194.625 C 163.185 195.256,162.199 197.600,162.834 197.600 C 163.049 197.600,163.358 197.243,163.519 196.807 C 163.811 196.017,163.816 196.017,165.116 196.807 C 167.974 198.545,168.337 205.401,165.598 205.911 C 163.359 206.328,161.336 208.842,161.940 210.457 C 162.321 211.478,162.301 213.033,161.900 213.433 C 161.763 213.570,161.827 214.144,162.041 214.708 C 162.256 215.272,162.288 215.839,162.113 215.967 C 161.610 216.336,159.600 219.115,159.600 219.442 C 159.600 219.604,159.346 220.021,159.035 220.369 C 158.685 220.760,158.382 222.356,158.237 224.573 C 157.957 228.869,156.336 232.300,154.182 233.151 C 153.972 233.234,153.577 233.387,153.304 233.492 C 152.842 233.669,152.521 234.546,151.432 238.600 C 151.157 239.623,149.244 245.459,148.714 246.891 C 148.492 247.490,147.265 249.047,145.986 250.350 C 143.997 252.376,143.621 252.999,143.385 254.659 C 142.630 259.953,141.878 261.729,139.353 264.183 C 137.322 266.157,137.269 266.723,138.650 271.700 C 138.787 272.195,138.763 272.471,138.597 272.314 C 138.431 272.157,137.913 272.238,137.447 272.495 C 136.981 272.751,136.240 273.020,135.800 273.093 C 134.772 273.262,130.800 275.661,130.800 276.112 C 130.800 276.301,130.279 277.212,129.643 278.137 C 127.762 280.871,125.214 281.521,116.000 281.616 C 102.606 281.754,103.340 281.834,101.532 280.026 L 99.957 278.452 100.761 276.876 C 101.203 276.010,102.099 274.851,102.752 274.302 C 103.459 273.706,104.866 271.386,106.238 268.552 C 107.554 265.833,109.278 262.968,110.269 261.857 C 111.221 260.788,112.000 259.756,112.000 259.564 C 112.000 258.996,115.204 253.915,116.491 252.442 C 117.144 251.695,118.384 249.604,119.248 247.795 C 120.205 245.791,121.596 243.695,122.809 242.429 C 123.904 241.287,124.800 240.116,124.800 239.826 C 124.800 238.228,127.595 233.282,128.950 232.483 C 130.241 231.721,134.385 224.503,134.405 222.981 C 134.408 222.771,135.034 222.195,135.798 221.701 C 137.156 220.821,139.200 217.503,139.200 216.179 C 139.200 215.822,140.168 214.601,141.350 213.465 C 143.616 211.288,146.181 206.973,146.629 204.587 C 146.833 203.500,147.186 203.048,148.147 202.641 C 149.983 201.863,150.606 200.978,151.973 197.200 C 153.053 194.217,153.326 193.793,154.203 193.742 C 155.816 193.649,156.312 193.326,157.306 191.719 C 158.245 190.201,159.200 186.798,159.200 184.969 C 159.200 183.935,159.744 183.806,161.600 184.400 M201.122 186.917 C 201.495 187.247,202.160 187.583,202.600 187.664 C 203.750 187.875,203.867 194.629,202.731 195.237 C 201.510 195.891,201.182 196.973,201.572 199.063 C 202.059 201.666,201.842 201.686,200.859 199.128 L 200.042 197.000 199.970 200.000 C 199.903 202.835,199.876 202.917,199.479 201.500 C 199.036 199.917,198.400 199.479,198.400 200.756 C 198.400 201.171,198.046 201.936,197.613 202.456 L 196.827 203.400 196.813 201.700 L 196.800 200.000 193.840 200.000 L 190.881 200.000 190.740 198.263 C 190.620 196.770,190.698 196.553,191.300 196.710 C 191.685 196.811,192.000 196.692,192.000 196.447 C 192.000 196.201,192.450 196.000,193.000 196.000 C 193.550 196.000,194.000 195.809,194.000 195.576 C 194.000 195.343,194.193 195.272,194.430 195.418 C 194.911 195.716,196.800 194.112,196.800 193.405 C 196.800 193.155,197.340 192.551,198.000 192.063 C 199.414 191.018,199.470 190.670,198.400 189.600 L 197.600 188.800 198.800 188.800 C 199.974 188.800,200.001 188.755,200.054 186.700 C 200.084 185.545,200.184 184.986,200.277 185.458 C 200.369 185.930,200.750 186.587,201.122 186.917 M99.591 193.478 C 98.936 194.511,98.400 195.581,98.400 195.855 C 98.400 196.129,98.211 196.470,97.979 196.613 C 97.412 196.964,98.573 194.242,99.617 192.777 C 100.928 190.936,100.911 191.397,99.591 193.478 M209.594 197.500 C 209.587 198.238,208.821 199.688,208.801 199.000 C 208.794 198.780,208.681 198.195,208.548 197.700 C 208.371 197.038,208.478 196.800,208.953 196.800 C 209.309 196.800,209.597 197.115,209.594 197.500 M201.448 205.984 C 202.877 206.518,204.591 206.800,206.415 206.800 L 209.200 206.800 209.200 208.200 C 209.200 209.533,209.133 209.600,207.800 209.600 L 206.400 209.600 206.400 216.036 L 206.400 222.471 208.154 224.176 C 209.543 225.526,210.004 226.330,210.370 228.035 C 211.143 231.638,212.371 232.808,216.000 233.398 C 218.655 233.829,218.800 234.059,218.800 237.815 L 218.800 241.132 220.616 242.730 C 221.914 243.873,222.711 245.041,223.411 246.827 C 224.580 249.812,225.254 250.624,227.051 251.217 C 228.615 251.733,228.995 252.312,229.401 254.800 C 229.563 255.790,230.025 257.249,230.427 258.043 L 231.158 259.486 229.633 259.943 C 227.439 260.600,172.518 260.587,170.321 259.929 L 168.748 259.458 168.926 255.829 C 169.260 248.994,170.517 245.502,172.825 244.995 C 174.754 244.571,176.300 242.399,176.578 239.722 C 177.228 233.475,177.212 233.515,179.369 232.376 C 184.166 229.845,184.357 220.074,179.654 217.800 C 176.249 216.154,178.580 215.200,186.006 215.200 C 189.070 215.200,189.783 214.353,190.376 210.018 L 190.870 206.400 193.935 206.404 C 195.621 206.407,197.897 206.681,198.994 207.013 L 200.988 207.618 198.994 205.542 C 197.897 204.401,197.510 203.849,198.133 204.317 C 198.756 204.785,200.248 205.535,201.448 205.984 M204.480 204.220 C 206.229 203.347,206.308 203.435,205.000 204.800 C 203.560 206.303,203.230 206.298,201.775 204.752 L 200.600 203.503 201.919 204.171 C 203.120 204.780,203.348 204.785,204.480 204.220 M265.859 205.085 C 265.540 207.017,265.527 210.400,265.838 210.400 C 268.023 210.400,268.979 207.741,267.699 205.224 C 266.738 203.333,266.156 203.289,265.859 205.085 M304.357 214.450 C 304.741 215.551,304.706 215.642,303.939 215.526 C 303.280 215.427,303.082 215.080,303.012 213.902 C 302.908 212.140,303.659 212.446,304.357 214.450 M215.900 215.530 C 217.241 216.381,215.450 217.351,213.971 216.574 L 212.600 215.854 213.600 215.567 C 214.983 215.170,215.324 215.164,215.900 215.530 M173.600 224.076 C 173.600 225.988,173.647 226.091,174.187 225.376 C 174.716 224.677,174.776 225.015,174.787 228.762 C 174.800 232.769,174.773 232.899,174.069 232.262 C 173.037 231.329,172.528 231.436,173.402 232.402 C 174.383 233.486,174.021 233.721,172.794 232.796 C 171.855 232.088,171.104 223.575,171.867 222.300 C 172.598 221.082,173.600 222.110,173.600 224.076 M177.088 228.897 C 177.682 229.554,177.641 229.600,176.462 229.600 C 175.002 229.600,174.902 229.141,175.700 226.115 L 176.200 224.218 176.326 226.206 C 176.395 227.300,176.738 228.510,177.088 228.897 M310.164 227.053 C 310.339 227.628,310.225 227.982,309.812 228.140 C 309.321 228.328,309.202 228.040,309.212 226.687 C 309.224 225.001,309.579 225.137,310.164 227.053 M222.069 229.600 C 222.296 231.987,221.546 231.773,221.015 229.300 C 220.800 228.295,220.870 228.000,221.326 228.000 C 221.722 228.000,221.966 228.526,222.069 229.600 M318.229 234.046 C 318.349 234.241,317.807 234.400,317.024 234.400 C 316.107 234.400,315.600 234.211,315.600 233.869 C 315.600 233.278,317.847 233.429,318.229 234.046 M223.994 237.920 C 223.997 237.985,224.765 238.386,225.700 238.811 C 227.452 239.606,227.249 239.903,225.426 239.210 C 224.271 238.771,222.795 236.613,222.819 235.400 C 222.831 234.801,223.959 237.219,223.994 237.920 M326.387 237.624 C 325.906 238.524,325.753 238.570,325.362 237.938 C 325.172 237.631,325.254 237.586,325.606 237.804 C 325.984 238.037,326.067 237.952,325.896 237.505 C 325.624 236.797,325.936 236.313,326.457 236.635 C 326.647 236.753,326.615 237.198,326.387 237.624 M166.560 240.240 C 167.039 240.424,167.090 240.658,166.779 241.240 C 166.207 242.309,165.600 242.185,165.600 241.000 C 165.600 239.913,165.635 239.885,166.560 240.240 M234.400 247.449 C 234.400 248.004,234.299 248.021,233.700 247.562 C 233.315 247.267,232.925 246.975,232.833 246.913 C 232.742 246.851,233.057 246.800,233.533 246.800 C 234.066 246.800,234.400 247.050,234.400 247.449 M331.918 249.843 C 332.892 250.478,333.748 252.227,333.445 252.961 C 333.345 253.202,333.249 253.109,333.232 252.754 C 333.170 251.489,331.559 250.001,329.763 249.549 C 328.786 249.303,327.901 248.963,327.796 248.794 C 327.498 248.312,330.895 249.176,331.918 249.843 M161.800 253.175 C 162.541 253.470,162.481 253.607,161.000 255.018 L 159.400 256.542 159.182 254.971 C 158.869 252.714,159.522 252.267,161.800 253.175 M240.788 254.900 C 240.775 256.680,240.348 256.407,239.846 254.300 C 239.648 253.468,239.733 253.200,240.192 253.200 C 240.642 253.200,240.797 253.641,240.788 254.900 M335.540 264.399 C 335.912 265.466,335.871 265.600,335.179 265.600 C 334.553 265.600,334.400 265.321,334.400 264.176 C 334.400 262.543,334.929 262.646,335.540 264.399 M247.348 269.916 C 247.456 270.090,246.882 270.167,246.072 270.087 C 243.858 269.869,243.595 269.667,245.476 269.632 C 246.398 269.614,247.241 269.742,247.348 269.916 M247.817 271.227 C 247.894 271.353,248.908 271.498,250.069 271.551 C 257.749 271.902,246.544 271.993,202.167 271.941 C 174.465 271.909,153.378 271.756,155.306 271.601 C 157.235 271.447,158.931 271.202,159.075 271.058 C 159.395 270.738,247.619 270.906,247.817 271.227 M350.837 286.103 C 350.403 287.243,349.190 288.167,347.600 288.569 L 346.600 288.822 347.600 288.111 C 349.469 286.782,350.415 285.623,350.704 284.310 C 350.970 283.098,351.000 283.076,351.115 284.023 C 351.183 284.586,351.058 285.522,350.837 286.103 M47.110 291.100 L 47.000 297.400 45.600 297.400 C 44.830 297.400,43.975 297.546,43.700 297.724 C 43.400 297.918,43.200 297.859,43.200 297.577 C 43.200 297.304,42.865 297.194,42.400 297.316 C 41.370 297.585,41.032 297.038,41.823 296.381 C 42.161 296.100,42.803 295.358,43.249 294.731 L 44.061 293.591 42.535 294.491 L 41.009 295.392 41.839 294.196 C 43.274 292.127,43.365 291.768,42.192 292.800 L 41.054 293.800 41.890 292.340 C 42.645 291.021,42.671 290.773,42.156 289.780 C 41.387 288.299,41.714 288.110,42.754 289.433 C 43.811 290.776,43.866 289.891,42.849 287.897 C 41.980 286.191,42.947 286.333,44.179 288.092 C 44.774 288.941,44.800 288.891,44.800 286.889 C 44.800 284.831,44.818 284.800,46.010 284.800 L 47.220 284.800 47.110 291.100 M362.400 304.600 L 362.400 309.200 364.000 309.200 L 365.600 309.200 365.600 312.416 L 365.600 315.632 362.300 315.516 L 359.000 315.400 358.973 314.200 C 358.937 312.651,358.430 311.134,358.030 311.382 C 357.546 311.681,356.746 309.601,357.016 308.748 C 357.149 308.330,357.444 308.104,357.672 308.244 C 357.939 308.410,357.984 308.181,357.800 307.600 C 357.605 306.987,357.655 306.787,357.957 306.974 C 358.244 307.151,358.400 306.816,358.400 306.024 C 358.400 305.351,358.580 304.800,358.800 304.800 C 359.022 304.800,359.200 303.733,359.200 302.400 L 359.200 300.000 360.800 300.000 L 362.400 300.000 362.400 304.600 M357.340 322.596 C 356.351 324.366,354.688 326.000,353.878 326.000 C 353.650 326.000,353.169 326.225,352.811 326.500 C 352.452 326.775,352.590 326.640,353.117 326.200 C 354.785 324.808,356.575 322.959,357.319 321.861 C 358.438 320.209,358.449 320.611,357.340 322.596 M39.078 326.010 C 36.617 327.946,38.373 331.200,41.878 331.200 L 43.600 331.200 43.600 329.454 C 43.600 326.575,41.407 324.344,41.089 326.900 C 40.931 328.180,40.927 328.177,40.864 326.700 C 40.791 324.984,40.517 324.878,39.078 326.010 M357.840 332.419 C 356.047 333.993,356.042 334.522,357.805 336.285 C 359.376 337.856,360.086 337.708,361.765 335.460 C 362.553 334.404,362.553 334.396,361.765 333.340 C 360.143 331.167,359.450 331.005,357.840 332.419 M50.045 338.406 C 50.192 338.347,51.489 338.786,52.800 339.338 C 53.130 339.477,52.770 339.480,52.000 339.345 C 51.230 339.210,50.490 338.927,50.355 338.716 C 50.221 338.504,49.955 338.361,49.765 338.396 C 49.575 338.431,49.357 338.222,49.280 337.930 C 49.165 337.496,49.207 337.497,49.514 337.934 C 49.721 338.228,49.959 338.440,50.045 338.406 M69.627 349.135 C 69.362 349.774,68.700 350.500,68.154 350.748 C 66.528 351.489,66.100 351.258,67.508 350.399 C 68.228 349.961,69.022 349.151,69.273 348.599 C 69.903 347.217,70.222 347.699,69.627 349.135 M76.551 348.975 C 75.389 349.481,74.000 350.963,74.000 351.698 C 74.000 351.874,74.405 351.763,74.900 351.451 C 75.395 351.139,76.250 350.752,76.800 350.592 L 77.800 350.301 76.700 351.179 C 75.387 352.228,75.226 353.029,76.461 352.368 C 77.209 351.967,77.286 351.998,77.054 352.604 C 76.907 352.988,76.991 353.549,77.242 353.851 C 77.861 354.597,77.184 354.544,76.063 353.759 C 74.601 352.735,74.643 353.377,76.142 354.966 C 77.595 356.507,77.004 356.677,74.873 355.332 C 73.951 354.749,73.950 354.751,74.597 355.739 C 76.190 358.171,66.699 358.000,200.000 358.000 C 310.547 358.000,321.729 357.942,323.184 357.360 C 327.180 355.761,327.315 350.610,323.404 348.976 C 321.393 348.136,78.482 348.135,76.551 348.975 " stroke="none" fill="#cbd3d9" fill-rule="evenodd"></path><path id="path1" d="M168.081 83.300 C 169.617 85.280,169.986 85.590,170.800 85.582 C 171.270 85.577,171.248 85.487,170.700 85.168 C 170.315 84.944,170.000 84.421,170.000 84.007 C 170.000 83.256,168.087 81.600,167.219 81.600 C 166.968 81.600,167.356 82.365,168.081 83.300 M214.856 139.845 C 214.380 140.180,213.630 141.157,213.192 142.017 C 212.753 142.877,211.588 144.488,210.603 145.597 C 209.618 146.706,208.693 148.105,208.548 148.707 C 208.039 150.810,204.862 156.612,203.507 157.911 L 202.139 159.222 202.604 162.427 C 203.013 165.251,203.238 165.808,204.495 167.116 C 205.877 168.553,207.598 171.366,207.602 172.194 C 207.608 173.248,208.483 175.574,209.173 176.369 C 209.596 176.856,210.684 178.457,211.592 179.927 C 212.500 181.397,213.946 183.680,214.805 185.000 C 215.663 186.320,217.036 188.712,217.854 190.315 C 218.673 191.918,220.093 193.921,221.009 194.766 C 223.139 196.729,224.415 198.527,224.815 200.131 C 226.163 205.525,226.751 206.908,228.359 208.453 C 229.992 210.022,232.034 213.559,232.556 215.724 C 232.705 216.342,233.530 217.610,234.389 218.542 C 236.239 220.548,238.566 224.544,239.533 227.374 C 239.914 228.488,240.960 230.660,241.857 232.200 C 242.755 233.740,243.953 235.810,244.519 236.800 C 245.086 237.790,246.200 239.320,246.995 240.200 C 248.591 241.966,250.218 245.223,250.647 247.512 C 250.842 248.550,251.536 249.602,252.963 251.024 C 254.992 253.046,258.400 259.009,258.400 260.539 C 258.400 260.945,259.100 262.072,259.955 263.044 C 260.983 264.211,261.966 266.048,262.855 268.458 C 264.177 272.045,265.052 273.136,267.897 274.747 C 268.170 274.902,269.282 277.070,270.367 279.565 C 271.453 282.059,272.870 284.663,273.518 285.350 C 274.165 286.038,275.180 287.894,275.773 289.476 C 276.366 291.058,277.377 293.038,278.019 293.876 C 284.526 302.369,285.482 307.414,281.131 310.293 L 279.505 311.369 265.052 311.280 C 257.104 311.230,224.230 311.015,192.000 310.801 C 159.770 310.587,117.470 310.324,98.000 310.218 C 73.436 310.083,62.118 309.886,61.024 309.572 C 59.012 308.995,58.750 309.326,58.035 313.349 C 57.397 316.942,57.705 318.073,60.019 320.634 C 60.831 321.533,61.830 322.793,62.239 323.434 C 62.647 324.076,63.084 324.690,63.210 324.800 C 63.335 324.910,63.837 325.975,64.325 327.167 C 64.954 328.706,65.901 329.957,67.592 331.488 C 68.901 332.673,70.347 334.308,70.804 335.121 L 71.635 336.600 197.117 336.526 L 322.600 336.451 325.605 333.444 C 329.815 329.231,330.015 328.541,327.808 325.832 C 325.921 323.515,324.800 321.581,324.800 320.644 C 324.800 320.317,324.049 319.183,323.132 318.124 C 322.215 317.066,320.684 314.520,319.729 312.466 C 318.618 310.074,317.418 308.178,316.390 307.191 C 315.375 306.216,314.191 304.356,313.167 302.127 C 312.276 300.190,310.839 297.688,309.974 296.566 C 309.108 295.444,308.400 294.362,308.400 294.162 C 308.400 293.189,305.377 287.740,304.020 286.267 C 303.175 285.350,301.563 282.710,300.438 280.400 C 299.312 278.090,297.865 275.746,297.221 275.192 C 296.258 274.363,291.600 265.848,291.600 264.917 C 291.600 264.767,291.166 264.184,290.636 263.622 C 290.106 263.060,288.746 260.980,287.613 259.000 C 286.481 257.020,285.143 254.950,284.641 254.400 C 283.337 252.972,282.227 250.997,281.002 247.925 C 280.390 246.391,279.139 244.340,278.068 243.115 C 277.040 241.941,275.885 240.219,275.500 239.290 C 275.115 238.360,274.485 236.835,274.100 235.900 C 273.715 234.965,272.837 233.570,272.149 232.800 C 271.461 232.030,269.950 229.557,268.792 227.305 C 267.633 225.053,266.112 222.533,265.412 221.705 C 263.938 219.961,263.185 218.661,261.865 215.579 C 261.342 214.357,260.377 212.737,259.720 211.979 C 259.064 211.220,257.522 208.529,256.293 205.997 C 255.064 203.465,253.576 200.945,252.988 200.397 C 252.399 199.849,251.050 197.676,249.990 195.569 C 248.929 193.462,247.279 190.820,246.322 189.699 C 245.352 188.563,243.818 185.947,242.858 183.790 C 241.910 181.662,240.491 179.083,239.705 178.060 C 238.920 177.037,237.696 174.932,236.986 173.382 C 236.276 171.832,234.999 169.832,234.148 168.937 C 233.184 167.924,231.921 165.767,230.800 163.218 C 229.615 160.525,228.625 158.857,227.902 158.337 C 226.650 157.438,224.800 154.491,224.800 153.397 C 224.800 152.497,222.862 149.013,221.018 146.596 C 220.264 145.609,219.066 143.711,218.356 142.378 C 216.838 139.529,216.085 138.985,214.856 139.845 M217.593 145.000 C 218.193 146.320,218.918 148.001,219.205 148.735 C 219.506 149.505,220.368 150.475,221.246 151.029 C 222.346 151.724,222.874 152.404,223.156 153.494 C 223.371 154.322,223.738 155.737,223.972 156.638 C 224.468 158.547,226.435 161.427,227.478 161.769 C 228.215 162.012,229.755 165.222,230.187 167.416 C 230.582 169.421,231.839 171.090,233.372 171.644 C 234.158 171.928,234.800 172.376,234.800 172.640 C 234.800 172.904,235.439 174.803,236.221 176.860 C 237.575 180.426,238.316 181.456,241.100 183.639 C 241.375 183.855,241.600 184.558,241.600 185.201 C 241.600 188.025,244.465 193.186,246.368 193.790 C 247.127 194.031,248.089 195.938,248.793 198.600 C 249.407 200.920,249.998 201.797,251.848 203.136 C 252.828 203.846,253.609 204.789,253.776 205.465 C 253.929 206.089,254.383 207.320,254.784 208.200 C 255.185 209.080,255.834 210.576,256.228 211.524 C 256.621 212.472,257.496 213.633,258.171 214.104 C 259.751 215.206,259.897 215.439,260.364 217.611 C 261.100 221.033,262.981 224.612,264.338 225.174 C 265.767 225.766,266.957 227.581,267.374 229.804 C 267.795 232.046,268.952 234.114,270.917 236.136 C 272.079 237.332,272.997 238.855,273.760 240.851 C 274.380 242.473,275.045 244.206,275.237 244.703 C 275.429 245.200,276.211 245.904,276.975 246.269 C 277.973 246.744,278.441 247.280,278.632 248.166 C 278.913 249.471,280.897 254.756,281.699 256.336 C 281.960 256.851,282.848 257.616,283.672 258.037 C 284.869 258.647,285.259 259.141,285.618 260.500 C 286.233 262.834,288.658 267.101,290.209 268.579 C 291.036 269.367,291.671 270.509,291.999 271.800 C 292.679 274.476,294.073 276.855,295.680 278.083 C 296.680 278.847,297.423 280.124,298.744 283.348 C 300.003 286.419,300.838 287.882,301.744 288.604 C 303.974 290.380,304.311 290.826,304.751 292.571 C 305.453 295.358,307.421 299.284,308.963 300.972 C 309.873 301.968,310.632 303.373,311.033 304.804 C 311.494 306.445,312.209 307.659,313.642 309.232 C 315.933 311.747,317.595 314.532,318.571 317.495 C 319.041 318.923,319.748 320.007,320.791 320.899 C 324.702 324.247,325.723 328.352,323.311 331.036 L 322.200 332.273 319.200 331.961 C 314.367 331.459,79.014 331.523,75.387 332.027 L 72.315 332.454 70.058 329.956 C 68.816 328.581,67.279 326.909,66.642 326.240 C 66.005 325.571,64.782 323.615,63.923 321.894 C 62.798 319.638,61.926 318.463,60.801 317.683 C 57.601 315.463,58.305 313.937,62.800 313.349 C 63.350 313.277,87.830 313.244,117.200 313.275 C 146.570 313.306,195.710 313.347,226.400 313.366 L 282.200 313.400 284.103 312.281 C 287.528 310.268,288.266 305.405,285.558 302.697 C 284.949 302.087,284.326 301.186,284.174 300.694 C 284.021 300.202,283.470 298.991,282.948 298.003 C 282.427 297.015,282.000 295.914,282.000 295.557 C 282.000 294.549,280.463 292.837,279.014 292.232 C 277.850 291.745,277.634 291.398,277.092 289.142 C 276.142 285.187,274.605 281.893,273.348 281.117 C 271.973 280.270,271.381 279.143,271.027 276.702 C 270.793 275.087,270.375 274.408,268.223 272.148 C 266.177 269.999,265.555 269.025,264.966 267.046 C 263.772 263.033,262.906 261.400,261.079 259.716 C 259.270 258.048,258.951 257.427,257.777 253.285 C 257.087 250.852,255.726 249.126,253.450 247.800 C 253.054 247.569,252.454 246.216,252.032 244.600 C 250.687 239.457,249.878 237.906,247.953 236.776 C 246.434 235.885,246.053 235.363,245.004 232.735 C 244.342 231.076,243.156 228.927,242.368 227.959 C 240.874 226.124,239.673 223.540,238.800 220.282 C 238.312 218.460,236.154 216.017,235.009 215.990 C 234.784 215.985,234.093 214.394,233.474 212.454 C 232.071 208.058,231.251 206.695,229.250 205.432 C 228.115 204.715,227.595 204.065,227.399 203.117 C 225.995 196.328,224.858 193.874,222.419 192.374 C 220.819 191.389,220.441 190.927,220.223 189.692 C 219.621 186.267,218.664 184.245,216.570 181.967 C 214.466 179.679,212.800 176.975,212.800 175.850 C 212.800 175.530,212.017 174.578,211.061 173.734 C 209.671 172.508,209.214 171.758,208.783 170.000 C 208.487 168.790,207.947 167.350,207.583 166.800 C 206.532 165.213,205.225 159.276,205.872 159.028 C 206.750 158.691,207.962 156.328,208.240 154.413 C 208.571 152.128,209.015 151.254,210.484 150.000 C 211.677 148.982,212.750 147.225,214.706 143.089 C 215.704 140.977,215.829 140.857,216.150 141.689 C 216.344 142.190,216.993 143.680,217.593 145.000 M131.885 143.158 C 133.644 144.873,134.400 145.194,134.400 144.227 C 134.400 143.912,133.995 143.528,133.500 143.374 C 133.005 143.221,132.060 142.740,131.400 142.306 C 130.468 141.693,130.576 141.883,131.885 143.158 M200.667 189.067 C 200.520 189.213,200.400 190.293,200.400 191.467 L 200.400 193.600 201.757 193.600 C 202.595 193.600,203.203 193.370,203.345 193.000 C 203.477 192.654,203.352 192.400,203.049 192.400 C 201.658 192.400,201.105 190.933,202.179 190.088 C 202.741 189.646,203.200 189.176,203.200 189.042 C 203.200 188.712,201.000 188.734,200.667 189.067 M196.400 194.845 C 196.070 195.294,195.170 195.808,194.400 195.989 C 193.403 196.223,193.267 196.330,193.926 196.359 C 194.912 196.403,196.430 195.742,196.860 195.082 C 197.442 194.188,199.248 196.732,199.003 198.100 C 198.875 198.815,199.029 200.210,199.346 201.200 L 199.921 203.000 199.960 198.500 L 200.000 194.000 198.500 194.015 C 197.466 194.025,196.814 194.283,196.400 194.845 M201.775 204.752 C 203.230 206.298,203.560 206.303,205.000 204.800 C 206.308 203.435,206.229 203.347,204.480 204.220 C 203.348 204.785,203.120 204.780,201.919 204.171 L 200.600 203.503 201.775 204.752 M175.700 226.115 C 174.902 229.141,175.002 229.600,176.462 229.600 C 177.641 229.600,177.682 229.554,177.088 228.897 C 176.738 228.510,176.395 227.300,176.326 226.206 L 176.200 224.218 175.700 226.115 M173.300 230.099 C 171.862 230.560,171.629 231.094,172.700 231.473 C 173.085 231.610,173.715 231.992,174.100 232.323 C 174.751 232.882,174.800 232.807,174.800 231.262 C 174.800 230.348,174.755 229.618,174.700 229.641 C 174.645 229.663,174.015 229.869,173.300 230.099 M326.942 243.400 C 326.941 245.380,327.008 246.240,327.092 245.312 C 327.176 244.384,327.177 242.764,327.095 241.712 C 327.012 240.660,326.943 241.420,326.942 243.400 M349.201 286.998 C 348.686 287.548,348.357 288.090,348.471 288.204 C 348.741 288.474,350.800 286.854,350.800 286.371 C 350.800 285.721,350.168 285.969,349.201 286.998 M42.338 286.922 C 43.904 288.820,43.972 290.875,42.544 293.112 L 41.195 295.223 42.429 294.585 C 45.397 293.050,45.549 288.267,42.679 286.738 C 41.890 286.317,41.855 286.336,42.338 286.922 M348.800 290.956 C 348.800 291.042,349.417 291.185,350.172 291.273 C 350.927 291.361,351.456 291.290,351.348 291.116 C 351.155 290.803,348.800 290.655,348.800 290.956 M353.200 292.864 C 353.200 293.049,353.445 293.200,353.744 293.200 C 354.043 293.200,354.938 293.641,355.733 294.180 C 357.426 295.330,358.015 294.929,356.594 293.594 C 355.647 292.704,353.200 292.178,353.200 292.864 M358.674 311.500 C 358.578 311.665,358.645 312.160,358.822 312.600 C 359.103 313.298,359.147 313.260,359.172 312.300 C 359.200 311.215,359.012 310.914,358.674 311.500 M41.847 317.200 C 42.001 318.419,42.413 319.323,43.122 320.000 C 43.845 320.691,43.947 320.732,43.451 320.132 C 43.056 319.654,42.483 318.394,42.176 317.332 L 41.620 315.400 41.847 317.200 M76.049 352.556 L 75.098 353.083 76.038 353.741 C 77.180 354.542,77.867 354.604,77.242 353.851 C 76.991 353.549,76.899 353.009,77.036 352.651 C 77.333 351.878,77.281 351.873,76.049 352.556 " stroke="none" fill="#747481" fill-rule="evenodd"></path><path id="path2" d="M168.254 80.868 C 169.191 81.321,170.000 82.788,170.000 84.031 C 170.000 84.468,170.269 84.928,170.598 85.054 C 170.926 85.181,171.081 85.468,170.942 85.694 C 170.801 85.922,170.935 86.022,171.244 85.920 C 171.628 85.793,171.837 84.908,171.918 83.068 L 172.037 80.400 169.718 80.427 C 167.826 80.449,167.557 80.530,168.254 80.868 M214.706 143.089 C 212.750 147.225,211.677 148.982,210.484 150.000 C 209.015 151.254,208.571 152.128,208.240 154.413 C 207.962 156.328,206.750 158.691,205.872 159.028 C 205.225 159.276,206.532 165.213,207.583 166.800 C 207.947 167.350,208.487 168.790,208.783 170.000 C 209.214 171.758,209.671 172.508,211.061 173.734 C 212.017 174.578,212.800 175.530,212.800 175.850 C 212.800 176.975,214.466 179.679,216.570 181.967 C 218.664 184.245,219.621 186.267,220.223 189.692 C 220.441 190.927,220.819 191.389,222.419 192.374 C 224.858 193.874,225.995 196.328,227.399 203.117 C 227.595 204.065,228.115 204.715,229.250 205.432 C 231.251 206.695,232.071 208.058,233.474 212.454 C 234.093 214.394,234.784 215.985,235.009 215.990 C 236.154 216.017,238.312 218.460,238.800 220.282 C 239.673 223.540,240.874 226.124,242.368 227.959 C 243.156 228.927,244.342 231.076,245.004 232.735 C 246.053 235.363,246.434 235.885,247.953 236.776 C 249.878 237.906,250.687 239.457,252.032 244.600 C 252.454 246.216,253.054 247.569,253.450 247.800 C 255.726 249.126,257.087 250.852,257.777 253.285 C 258.951 257.427,259.270 258.048,261.079 259.716 C 262.906 261.400,263.772 263.033,264.966 267.046 C 265.555 269.025,266.177 269.999,268.223 272.148 C 270.375 274.408,270.793 275.087,271.027 276.702 C 271.381 279.143,271.973 280.270,273.348 281.117 C 274.605 281.893,276.142 285.187,277.092 289.142 C 277.634 291.398,277.850 291.745,279.014 292.232 C 280.463 292.837,282.000 294.549,282.000 295.557 C 282.000 295.914,282.427 297.015,282.948 298.003 C 283.470 298.991,284.021 300.202,284.174 300.694 C 284.326 301.186,284.949 302.087,285.558 302.697 C 288.266 305.405,287.528 310.268,284.103 312.281 L 282.200 313.400 226.400 313.366 C 195.710 313.347,146.570 313.306,117.200 313.275 C 87.830 313.244,63.350 313.277,62.800 313.349 C 58.305 313.937,57.601 315.463,60.801 317.683 C 61.926 318.463,62.798 319.638,63.923 321.894 C 64.782 323.615,66.005 325.571,66.642 326.240 C 67.279 326.909,68.816 328.581,70.058 329.956 L 72.315 332.454 75.387 332.027 C 79.014 331.523,314.367 331.459,319.200 331.961 L 322.200 332.273 323.311 331.036 C 325.723 328.352,324.702 324.247,320.791 320.899 C 319.748 320.007,319.041 318.923,318.571 317.495 C 317.595 314.532,315.933 311.747,313.642 309.232 C 312.209 307.659,311.494 306.445,311.033 304.804 C 310.632 303.373,309.873 301.968,308.963 300.972 C 307.421 299.284,305.453 295.358,304.751 292.571 C 304.311 290.826,303.974 290.380,301.744 288.604 C 300.838 287.882,300.003 286.419,298.744 283.348 C 297.423 280.124,296.680 278.847,295.680 278.083 C 294.073 276.855,292.679 274.476,291.999 271.800 C 291.671 270.509,291.036 269.367,290.209 268.579 C 288.658 267.101,286.233 262.834,285.618 260.500 C 285.259 259.141,284.869 258.647,283.672 258.037 C 282.848 257.616,281.960 256.851,281.699 256.336 C 280.897 254.756,278.913 249.471,278.632 248.166 C 278.441 247.280,277.973 246.744,276.975 246.269 C 276.211 245.904,275.429 245.200,275.237 244.703 C 275.045 244.206,274.380 242.473,273.760 240.851 C 272.997 238.855,272.079 237.332,270.917 236.136 C 268.952 234.114,267.795 232.046,267.374 229.804 C 266.957 227.581,265.767 225.766,264.338 225.174 C 262.981 224.612,261.100 221.033,260.364 217.611 C 259.897 215.439,259.751 215.206,258.171 214.104 C 257.496 213.633,256.621 212.472,256.228 211.524 C 255.834 210.576,255.185 209.080,254.784 208.200 C 254.383 207.320,253.929 206.089,253.776 205.465 C 253.609 204.789,252.828 203.846,251.848 203.136 C 249.998 201.797,249.407 200.920,248.793 198.600 C 248.089 195.938,247.127 194.031,246.368 193.790 C 244.465 193.186,241.600 188.025,241.600 185.201 C 241.600 184.558,241.375 183.855,241.100 183.639 C 238.316 181.456,237.575 180.426,236.221 176.860 C 235.439 174.803,234.800 172.904,234.800 172.640 C 234.800 172.376,234.158 171.928,233.372 171.644 C 231.839 171.090,230.582 169.421,230.187 167.416 C 229.755 165.222,228.215 162.012,227.478 161.769 C 226.435 161.427,224.468 158.547,223.972 156.638 C 223.738 155.737,223.371 154.322,223.156 153.494 C 222.874 152.404,222.346 151.724,221.246 151.029 C 220.368 150.475,219.506 149.505,219.205 148.735 C 218.918 148.001,218.193 146.320,217.593 145.000 C 216.993 143.680,216.344 142.190,216.150 141.689 C 215.829 140.857,215.704 140.977,214.706 143.089 M130.592 143.946 L 132.185 145.623 130.792 145.153 C 130.027 144.895,129.130 144.493,128.800 144.259 C 128.470 144.026,128.801 144.482,129.535 145.272 C 130.470 146.279,130.710 146.767,130.335 146.900 C 129.145 147.323,130.436 147.623,132.353 147.368 C 135.097 147.005,135.427 145.195,132.900 144.375 C 132.075 144.108,130.860 143.525,130.200 143.080 C 129.157 142.376,129.209 142.490,130.592 143.946 M201.859 190.335 C 201.237 191.022,201.242 191.114,201.928 191.735 C 202.988 192.694,203.200 192.572,203.200 191.000 C 203.200 189.431,202.839 189.252,201.859 190.335 M200.067 191.677 L 200.000 193.554 198.300 193.707 L 196.600 193.860 198.313 193.930 C 200.268 194.010,200.534 193.663,200.294 191.342 C 200.141 189.859,200.132 189.872,200.067 191.677 M195.945 195.105 C 195.452 195.734,195.467 195.748,196.100 195.251 C 196.485 194.949,196.800 194.882,196.800 195.102 C 196.800 195.677,194.544 196.531,193.647 196.296 C 193.230 196.187,192.644 196.253,192.344 196.443 C 191.946 196.696,192.041 196.789,192.700 196.794 C 193.901 196.802,193.837 197.117,192.322 198.681 L 191.043 200.000 193.922 200.000 L 196.800 200.000 196.800 201.686 C 196.800 204.082,197.887 202.930,198.634 199.743 C 199.412 196.419,197.500 193.121,195.945 195.105 M198.994 205.542 L 200.988 207.618 199.108 207.052 L 197.228 206.487 199.514 209.061 C 200.771 210.477,202.377 211.998,203.083 212.440 C 203.789 212.882,204.824 213.788,205.383 214.453 L 206.400 215.661 206.400 212.631 L 206.400 209.600 207.800 209.600 C 209.133 209.600,209.200 209.533,209.200 208.200 L 209.200 206.800 206.415 206.800 C 203.413 206.800,200.131 205.816,198.133 204.317 C 197.510 203.849,197.897 204.401,198.994 205.542 M172.700 223.350 C 171.948 224.937,171.695 230.400,172.374 230.400 C 174.241 230.400,174.800 229.638,174.787 227.110 C 174.776 224.862,174.716 224.678,174.210 225.346 C 173.698 226.022,173.634 225.895,173.522 223.982 L 173.400 221.873 172.700 223.350 M44.800 287.854 C 44.800 291.685,44.240 293.576,42.505 295.603 L 41.138 297.200 44.169 297.200 L 47.200 297.200 47.200 291.000 L 47.200 284.800 46.000 284.800 L 44.800 284.800 44.800 287.854 M351.078 286.431 C 350.583 287.476,349.862 288.183,348.788 288.678 C 347.926 289.075,347.216 289.498,347.210 289.617 C 347.197 289.892,350.519 290.790,351.706 290.832 C 352.198 290.849,352.362 290.958,352.072 291.074 C 351.231 291.411,353.085 292.502,354.717 292.632 C 355.493 292.693,356.639 293.122,357.264 293.584 C 358.445 294.457,358.914 293.903,357.900 292.831 C 357.486 292.394,357.573 292.386,358.400 292.790 C 358.950 293.058,357.915 291.843,356.100 290.091 C 354.105 288.164,352.800 286.584,352.800 286.095 C 352.800 284.656,351.829 284.846,351.078 286.431 M360.807 305.152 L 359.413 306.504 359.182 305.552 C 358.986 304.748,358.908 304.848,358.680 306.200 C 358.286 308.529,358.340 310.716,358.800 311.000 C 359.020 311.136,359.200 312.227,359.200 313.424 L 359.200 315.600 362.400 315.600 L 365.600 315.600 365.600 312.400 L 365.600 309.200 364.018 309.200 L 362.435 309.200 362.318 306.500 L 362.200 303.800 360.807 305.152 M40.870 317.100 L 40.800 318.800 39.200 318.800 L 37.600 318.800 37.600 323.169 L 37.600 327.538 38.769 326.369 C 40.318 324.821,40.787 324.895,40.864 326.700 C 40.927 328.177,40.931 328.180,41.089 326.900 C 41.289 325.295,41.725 325.260,42.834 326.761 L 43.693 327.922 44.888 326.561 C 46.175 325.095,46.800 324.846,46.800 325.800 C 46.800 326.130,46.971 326.400,47.179 326.400 C 47.408 326.400,47.391 325.920,47.135 325.186 C 46.902 324.518,46.805 323.485,46.919 322.890 C 47.186 321.492,46.589 320.400,45.555 320.400 C 45.106 320.400,44.212 319.874,43.569 319.231 C 42.193 317.855,42.028 318.201,43.275 319.846 L 44.150 321.000 43.075 320.030 C 42.484 319.497,41.997 318.777,41.994 318.430 C 41.989 317.893,41.934 317.885,41.621 318.380 C 41.358 318.795,41.209 318.454,41.097 317.180 L 40.940 315.400 40.870 317.100 M36.089 317.474 L 34.777 318.800 36.001 318.800 C 37.277 318.800,37.758 318.204,37.532 316.903 C 37.417 316.245,37.232 316.318,36.089 317.474 M357.744 323.458 C 357.249 324.457,356.409 325.269,355.237 325.881 C 354.267 326.386,353.691 326.800,353.957 326.800 C 354.666 326.800,356.579 325.748,357.174 325.031 C 357.458 324.689,357.862 324.515,358.072 324.645 C 358.282 324.774,358.413 324.637,358.364 324.340 C 358.314 324.043,358.414 323.477,358.586 323.083 C 359.205 321.662,358.471 321.989,357.744 323.458 M356.441 326.234 C 355.693 326.765,355.278 327.200,355.519 327.200 C 355.759 327.200,356.460 326.756,357.078 326.213 C 358.491 324.969,358.208 324.979,356.441 326.234 M69.273 348.599 C 69.022 349.151,68.228 349.961,67.508 350.399 C 66.100 351.258,66.528 351.489,68.154 350.748 C 68.700 350.500,69.362 349.774,69.627 349.135 C 70.222 347.699,69.903 347.217,69.273 348.599 M70.000 349.309 C 69.629 350.108,68.793 350.896,67.808 351.377 L 66.217 352.153 67.483 352.482 C 68.206 352.669,68.857 353.151,69.002 353.605 C 69.389 354.825,71.551 356.257,74.130 357.001 C 76.232 357.608,77.972 357.626,76.066 357.021 C 75.629 356.882,74.973 356.314,74.609 355.758 C 73.948 354.748,73.948 354.747,74.873 355.332 C 76.998 356.673,77.598 356.509,76.157 354.982 L 74.792 353.535 75.618 352.375 C 76.072 351.737,76.749 351.023,77.122 350.789 C 77.673 350.442,77.613 350.411,76.800 350.623 C 76.250 350.766,75.395 351.139,74.900 351.451 C 73.597 352.273,73.759 351.379,75.169 349.969 C 76.482 348.656,76.096 348.519,73.579 349.408 C 71.812 350.031,71.222 349.805,71.206 348.500 C 71.195 347.600,70.612 347.991,70.000 349.309 " stroke="none" fill="#5a5a68" fill-rule="evenodd"></path><path id="path3" d="M167.319 83.589 C 168.345 85.079,168.228 86.798,167.100 86.806 C 166.477 86.810,166.359 86.913,166.717 87.140 C 167.001 87.321,167.391 87.993,167.583 88.634 L 167.931 89.800 167.966 88.338 C 168.000 86.883,168.012 86.873,170.100 86.580 L 172.200 86.285 170.867 85.829 C 170.134 85.579,169.234 85.012,168.867 84.570 C 167.673 83.130,166.485 82.378,167.319 83.589 M213.360 135.962 C 211.611 136.757,210.223 138.371,209.783 140.124 C 209.635 140.716,209.367 141.200,209.187 141.200 C 208.241 141.200,206.389 143.431,205.773 145.312 C 204.813 148.245,203.346 151.058,202.635 151.331 C 197.540 153.286,197.352 167.029,202.381 169.915 C 203.965 170.824,204.337 171.584,204.610 174.471 C 205.199 180.714,205.624 181.590,208.351 182.189 C 209.637 182.472,211.165 184.705,211.191 186.342 C 211.215 187.777,213.866 192.775,214.945 193.417 C 215.986 194.037,216.571 195.054,218.339 199.323 C 218.640 200.049,219.414 200.716,220.527 201.209 C 222.687 202.164,223.083 202.989,223.356 207.095 C 223.663 211.735,224.539 213.200,227.005 213.200 C 228.189 213.200,229.396 214.862,229.766 217.000 C 230.239 219.741,231.864 222.604,233.597 223.751 C 235.613 225.085,236.580 227.020,237.120 230.800 C 237.526 233.639,237.645 233.886,239.345 235.400 C 241.158 237.016,242.103 238.893,242.820 242.306 C 243.379 244.967,243.853 245.567,245.618 245.849 C 247.419 246.137,247.437 246.178,247.749 250.670 C 248.051 255.011,248.962 256.377,251.933 256.940 C 254.241 257.378,254.804 258.488,254.746 262.490 C 254.689 266.384,255.322 267.996,256.909 268.005 C 258.957 268.018,259.470 268.462,260.981 271.529 C 262.132 273.865,262.991 274.997,264.573 276.259 C 266.459 277.764,266.830 278.348,268.555 282.512 C 269.699 285.275,270.915 287.544,271.608 288.207 C 272.785 289.335,274.800 293.137,274.800 294.231 C 274.800 295.326,276.076 297.358,278.227 299.690 C 280.976 302.670,281.116 303.191,279.776 305.478 L 278.690 307.331 236.845 307.046 C 213.830 306.889,189.600 306.678,183.000 306.577 C 176.400 306.476,155.790 306.291,137.200 306.166 C 118.610 306.040,103.167 305.864,102.882 305.774 C 102.597 305.685,92.756 305.601,81.012 305.589 C 57.981 305.566,58.075 305.558,55.246 307.767 C 54.941 308.005,53.971 308.485,53.092 308.834 L 51.492 309.468 52.491 310.434 C 53.499 311.408,54.400 314.690,54.400 317.383 C 54.400 321.350,56.151 324.800,58.165 324.800 C 60.090 324.800,61.656 327.784,61.980 332.069 C 61.991 332.217,62.424 332.847,62.942 333.469 C 63.460 334.091,64.102 335.522,64.369 336.648 C 64.738 338.205,65.101 338.809,65.880 339.164 C 66.654 339.517,98.244 339.625,195.291 339.608 L 323.677 339.585 327.933 338.540 C 332.261 337.476,332.970 337.038,333.339 335.200 C 333.450 334.650,334.001 333.520,334.565 332.690 C 335.129 331.859,335.702 330.734,335.838 330.190 C 335.975 329.645,336.255 329.200,336.461 329.200 C 336.667 329.200,336.800 328.975,336.756 328.700 C 336.658 328.078,337.801 325.466,338.489 324.740 C 338.771 324.443,339.451 323.526,340.001 322.703 C 340.550 321.879,341.228 321.204,341.506 321.203 C 342.276 321.199,343.597 318.760,343.599 317.340 C 343.602 313.976,346.406 310.084,348.942 309.920 C 351.329 309.766,351.111 309.099,348.527 308.653 C 346.206 308.253,344.324 305.391,343.762 301.407 C 343.375 298.664,342.652 297.133,341.325 296.253 C 340.706 295.843,339.660 294.809,339.000 293.957 C 338.340 293.105,337.395 291.946,336.900 291.383 C 336.405 290.820,336.000 290.019,336.000 289.603 C 336.000 289.187,335.817 288.734,335.593 288.596 C 335.370 288.458,335.284 288.188,335.402 287.997 C 335.520 287.806,335.388 287.503,335.108 287.325 C 334.829 287.146,334.251 286.370,333.825 285.600 C 333.398 284.830,332.267 283.121,331.311 281.801 C 330.355 280.482,329.367 278.682,329.116 277.801 C 328.864 276.921,328.092 275.390,327.399 274.400 C 326.706 273.410,325.810 271.710,325.407 270.623 C 325.004 269.535,324.028 267.981,323.237 267.170 C 320.620 264.482,318.596 261.253,317.808 258.509 C 317.667 258.019,316.556 256.669,315.339 255.509 C 313.376 253.637,310.400 248.637,310.400 247.210 C 310.400 246.384,309.438 244.800,308.936 244.800 C 308.641 244.800,308.400 244.654,308.400 244.476 C 308.400 244.299,308.117 243.804,307.770 243.376 C 307.424 242.949,307.267 242.870,307.421 243.200 C 307.575 243.530,307.240 243.325,306.676 242.745 C 306.112 242.164,305.099 241.445,304.425 241.147 C 303.751 240.849,303.186 240.424,303.169 240.202 C 303.153 239.981,303.063 239.485,302.969 239.100 C 302.876 238.715,302.724 238.085,302.631 237.700 C 302.537 237.315,302.426 236.910,302.383 236.800 C 302.340 236.690,302.333 236.446,302.367 236.257 C 302.495 235.545,299.849 231.943,298.799 231.400 C 297.621 230.790,293.856 226.811,294.165 226.502 C 294.268 226.399,293.929 225.358,293.412 224.188 C 292.895 223.019,292.548 221.985,292.641 221.892 C 292.735 221.798,291.806 220.660,290.578 219.361 C 289.350 218.062,287.802 216.058,287.138 214.907 C 285.903 212.765,283.938 210.800,283.031 210.800 C 282.312 210.800,281.200 209.472,281.200 208.613 C 281.200 208.214,280.923 207.686,280.585 207.439 C 280.247 207.192,279.725 206.272,279.424 205.395 L 278.876 203.800 275.138 203.683 C 271.755 203.576,271.336 203.644,270.723 204.399 L 270.046 205.232 269.587 204.375 C 269.300 203.839,269.179 202.031,269.264 199.558 C 269.339 197.381,269.349 195.599,269.287 195.600 C 269.225 195.600,268.528 195.870,267.738 196.200 C 265.887 196.974,266.000 197.031,266.000 195.320 C 266.000 192.891,265.250 194.304,264.611 197.935 C 263.811 202.488,263.097 203.600,260.972 203.600 L 259.316 203.600 259.032 201.100 C 258.876 199.725,258.619 197.475,258.460 196.100 C 258.114 193.113,257.625 192.548,255.017 192.116 C 252.848 191.756,253.028 192.056,252.219 187.457 C 251.935 185.840,250.834 184.560,248.390 183.002 C 247.207 182.248,246.831 181.628,246.058 179.152 C 244.657 174.664,244.557 174.496,242.716 173.563 C 240.702 172.541,240.560 172.360,240.247 170.406 C 239.766 167.395,237.342 162.855,235.831 162.134 C 235.069 161.771,234.260 161.007,234.035 160.437 C 233.810 159.866,233.253 158.382,232.798 157.137 C 232.217 155.550,231.408 154.358,230.085 153.142 C 228.152 151.364,227.503 150.245,225.610 145.426 C 224.740 143.210,224.248 142.506,223.166 141.926 C 222.260 141.440,221.641 140.708,221.298 139.717 C 220.001 135.970,216.740 134.427,213.360 135.962 M217.046 138.709 C 217.512 139.089,218.785 140.750,219.875 142.400 C 220.965 144.050,222.519 146.363,223.328 147.540 C 224.138 148.717,224.800 149.937,224.800 150.252 C 224.800 151.257,227.097 155.347,228.589 157.000 C 229.384 157.880,230.833 160.285,231.810 162.344 C 232.787 164.403,234.243 166.815,235.045 167.702 C 235.847 168.590,237.041 170.505,237.698 171.958 C 238.355 173.411,239.008 174.690,239.149 174.800 C 240.017 175.479,241.784 178.396,243.570 182.099 C 244.703 184.448,246.432 187.309,247.412 188.458 C 248.393 189.606,249.986 192.178,250.953 194.173 C 251.919 196.168,253.316 198.451,254.055 199.247 C 254.795 200.043,256.108 202.293,256.974 204.247 C 257.839 206.201,259.166 208.500,259.922 209.355 C 260.679 210.211,262.097 212.633,263.074 214.738 C 264.051 216.843,265.536 219.309,266.374 220.218 C 267.212 221.127,268.678 223.475,269.633 225.435 C 270.588 227.396,272.141 229.847,273.085 230.883 C 274.028 231.918,274.800 233.036,274.800 233.366 C 274.800 234.827,278.051 241.016,279.150 241.646 C 280.221 242.260,280.572 242.863,282.836 247.979 C 283.366 249.178,284.586 251.068,285.546 252.179 C 286.507 253.291,287.966 255.640,288.789 257.400 C 289.613 259.160,290.924 261.290,291.703 262.134 C 292.482 262.978,293.992 265.588,295.059 267.934 C 296.125 270.280,297.171 272.272,297.382 272.361 C 298.572 272.860,300.463 275.340,301.236 277.415 C 302.319 280.324,302.953 281.338,304.934 283.328 C 306.632 285.033,308.390 288.436,308.396 290.030 C 308.400 291.085,308.943 291.778,310.936 293.266 C 312.108 294.142,314.480 298.819,315.302 301.876 C 315.611 303.024,316.016 303.618,316.588 303.761 C 317.975 304.109,319.450 306.036,320.758 309.209 C 321.732 311.571,322.278 312.368,323.299 312.920 C 324.594 313.619,326.456 317.485,327.480 321.600 C 327.713 322.534,328.193 323.175,328.922 323.525 C 333.532 325.741,331.557 333.142,325.442 336.562 L 322.847 338.013 196.819 338.018 C 113.549 338.022,70.538 337.888,70.044 337.623 C 69.633 337.403,69.020 336.543,68.683 335.712 C 68.345 334.880,67.316 333.480,66.396 332.600 C 65.367 331.616,64.148 329.769,63.227 327.800 C 62.205 325.613,61.023 323.884,59.495 322.338 C 56.502 319.311,56.065 317.723,56.660 312.028 C 57.070 308.109,55.369 308.371,80.250 308.385 C 110.174 308.401,195.495 308.822,240.800 309.177 L 278.600 309.473 280.083 308.542 C 283.513 306.389,283.168 302.221,279.185 297.690 C 277.529 295.807,275.454 292.008,274.815 289.691 C 274.589 288.871,273.750 287.454,272.952 286.542 C 272.153 285.629,270.795 283.200,269.934 281.143 C 268.322 277.292,266.873 274.808,266.238 274.803 C 264.961 274.793,263.229 272.609,261.804 269.211 C 260.962 267.202,259.896 265.251,259.436 264.876 C 258.006 263.711,257.555 262.917,257.024 260.631 C 256.311 257.566,254.132 254.072,252.509 253.390 C 250.898 252.714,249.603 250.652,249.601 248.760 C 249.600 246.959,247.988 243.821,246.162 242.062 C 244.850 240.799,243.204 237.930,241.996 234.800 C 241.698 234.030,240.956 232.819,240.347 232.109 C 239.738 231.398,239.116 230.138,238.965 229.309 C 238.522 226.875,236.418 222.955,234.342 220.697 C 233.282 219.544,232.221 218.060,231.986 217.400 C 230.823 214.147,228.927 210.955,227.709 210.200 C 226.102 209.204,224.800 206.663,224.800 204.523 C 224.800 202.106,223.826 200.203,221.282 197.646 C 220.027 196.385,218.478 194.373,217.839 193.176 C 217.200 191.979,216.098 190.190,215.390 189.200 C 214.682 188.210,213.550 186.278,212.875 184.906 C 211.449 182.010,209.315 178.800,208.816 178.800 C 208.248 178.800,206.874 175.536,206.580 173.486 C 206.294 171.492,205.202 169.579,203.060 167.314 C 201.954 166.145,201.748 165.558,201.373 162.520 L 200.945 159.058 202.917 156.485 C 204.002 155.070,205.874 151.907,207.078 149.456 C 211.166 141.132,214.979 137.021,217.046 138.709 M133.170 142.565 C 134.282 143.752,134.400 143.800,134.400 143.064 C 134.400 142.770,133.905 142.304,133.300 142.029 L 132.200 141.529 133.170 142.565 M159.200 184.969 C 159.200 186.798,158.245 190.201,157.306 191.719 C 156.312 193.326,155.816 193.649,154.203 193.742 C 153.326 193.793,153.053 194.217,151.973 197.200 C 150.606 200.978,149.983 201.863,148.147 202.641 C 147.186 203.048,146.833 203.500,146.629 204.587 C 146.181 206.973,143.616 211.288,141.350 213.465 C 140.168 214.601,139.200 215.822,139.200 216.179 C 139.200 217.503,137.156 220.821,135.798 221.701 C 135.034 222.195,134.408 222.771,134.405 222.981 C 134.385 224.503,130.241 231.721,128.950 232.483 C 127.595 233.282,124.800 238.228,124.800 239.826 C 124.800 240.116,123.904 241.287,122.809 242.429 C 121.596 243.695,120.205 245.791,119.248 247.795 C 118.384 249.604,117.144 251.695,116.491 252.442 C 115.204 253.915,112.000 258.996,112.000 259.564 C 112.000 259.756,111.221 260.788,110.269 261.857 C 109.278 262.968,107.554 265.833,106.238 268.552 C 104.866 271.386,103.459 273.706,102.752 274.302 C 102.099 274.851,101.203 276.010,100.761 276.876 L 99.957 278.452 101.532 280.026 C 103.340 281.834,102.606 281.754,116.000 281.616 C 125.214 281.521,127.762 280.871,129.643 278.137 C 130.279 277.212,130.800 276.301,130.800 276.112 C 130.800 275.661,134.772 273.262,135.800 273.093 C 136.240 273.020,136.981 272.751,137.447 272.495 C 137.913 272.238,138.431 272.157,138.597 272.314 C 138.763 272.471,138.787 272.195,138.650 271.700 C 137.269 266.723,137.322 266.157,139.353 264.183 C 141.878 261.729,142.630 259.953,143.385 254.659 C 143.621 252.999,143.997 252.376,145.986 250.350 C 147.265 249.047,148.492 247.490,148.714 246.891 C 149.244 245.459,151.157 239.623,151.432 238.600 C 152.521 234.546,152.842 233.669,153.304 233.492 C 153.577 233.387,153.972 233.234,154.182 233.151 C 156.336 232.300,157.957 228.869,158.237 224.573 C 158.382 222.356,158.685 220.760,159.035 220.369 C 159.346 220.021,159.600 219.604,159.600 219.442 C 159.600 219.115,161.610 216.336,162.113 215.967 C 162.288 215.839,162.256 215.272,162.041 214.708 C 161.827 214.144,161.763 213.570,161.900 213.433 C 162.301 213.033,162.321 211.478,161.940 210.457 C 161.336 208.842,163.359 206.328,165.598 205.911 C 168.337 205.401,167.974 198.545,165.116 196.807 C 163.816 196.017,163.811 196.017,163.519 196.807 C 163.358 197.243,163.049 197.600,162.834 197.600 C 162.199 197.600,163.185 195.256,164.086 194.625 C 164.838 194.098,164.848 194.003,164.245 193.142 C 163.890 192.636,163.598 191.767,163.596 191.211 C 163.590 189.753,161.845 186.217,160.754 185.453 L 159.822 184.800 161.211 184.760 C 162.491 184.723,162.521 184.695,161.600 184.400 C 159.744 183.806,159.200 183.935,159.200 184.969 M200.054 186.700 C 200.001 188.755,199.974 188.800,198.800 188.800 L 197.600 188.800 198.400 189.600 C 199.470 190.670,199.414 191.018,198.000 192.063 C 196.405 193.242,196.487 193.600,198.350 193.600 L 199.901 193.600 200.083 195.700 C 200.183 196.855,200.653 198.610,201.127 199.600 C 201.602 200.590,201.918 201.040,201.830 200.600 C 201.096 196.932,201.110 196.805,202.378 195.620 C 204.067 194.043,203.930 193.600,201.750 193.600 L 199.901 193.600 200.086 191.363 C 200.291 188.899,200.802 188.300,202.511 188.521 C 203.760 188.683,203.812 187.888,202.567 187.659 C 201.501 187.462,200.476 186.478,200.277 185.458 C 200.184 184.986,200.084 185.545,200.054 186.700 M99.617 192.777 C 98.573 194.242,97.412 196.964,97.979 196.613 C 98.211 196.470,98.400 196.129,98.400 195.855 C 98.400 195.581,98.936 194.511,99.591 193.478 C 100.911 191.397,100.928 190.936,99.617 192.777 M196.172 193.955 C 196.466 194.430,195.415 195.273,194.999 194.897 C 194.819 194.733,194.808 194.837,194.976 195.126 C 195.218 195.546,195.431 195.515,196.030 194.973 C 196.683 194.382,196.752 193.600,196.153 193.600 C 196.043 193.600,196.051 193.760,196.172 193.955 M267.699 205.224 C 268.781 207.352,268.622 208.896,267.238 209.714 C 265.632 210.663,265.599 210.639,265.604 208.500 C 265.615 203.788,266.370 202.608,267.699 205.224 M171.714 228.600 C 171.717 229.700,171.795 230.103,171.887 229.495 C 171.979 228.886,171.977 227.986,171.882 227.495 C 171.787 227.003,171.711 227.500,171.714 228.600 M172.000 231.684 C 172.000 232.027,172.450 232.603,173.000 232.963 C 173.550 233.324,174.000 233.466,174.000 233.279 C 174.000 233.092,173.550 232.517,173.000 232.000 C 172.229 231.276,172.000 231.204,172.000 231.684 M222.819 235.400 C 222.795 236.613,224.271 238.771,225.426 239.210 C 227.249 239.903,227.452 239.606,225.700 238.811 C 224.765 238.386,223.997 237.985,223.994 237.920 C 223.959 237.219,222.831 234.801,222.819 235.400 M327.796 248.794 C 327.901 248.963,328.786 249.303,329.763 249.549 C 331.559 250.001,333.170 251.489,333.232 252.754 C 333.249 253.109,333.345 253.202,333.445 252.961 C 333.748 252.227,332.892 250.478,331.918 249.843 C 330.895 249.176,327.498 248.312,327.796 248.794 M244.200 269.803 C 245.114 270.121,247.529 270.209,247.348 269.916 C 247.241 269.742,246.398 269.614,245.476 269.632 C 244.554 269.649,243.980 269.726,244.200 269.803 M350.854 283.867 C 350.825 284.344,350.696 285.064,350.570 285.467 C 350.352 286.161,350.364 286.162,350.796 285.488 C 351.047 285.097,351.175 284.377,351.081 283.888 C 350.909 283.001,350.909 283.001,350.854 283.867 M41.613 288.454 C 41.606 288.594,41.853 289.197,42.163 289.794 C 42.669 290.769,42.642 291.028,41.893 292.340 L 41.060 293.800 42.330 292.625 C 43.028 291.979,43.600 291.224,43.600 290.947 C 43.600 290.442,41.636 287.979,41.613 288.454 M350.500 291.476 C 350.885 291.576,351.200 291.836,351.200 292.053 C 351.200 292.270,351.360 292.349,351.555 292.228 C 351.995 291.956,352.892 292.975,352.530 293.337 C 352.385 293.482,352.487 293.600,352.757 293.600 C 353.027 293.600,353.152 293.754,353.036 293.942 C 352.920 294.129,353.284 294.492,353.844 294.747 C 354.785 295.176,354.752 295.076,353.412 293.441 C 351.990 291.705,351.200 291.154,350.267 291.246 C 350.010 291.272,350.115 291.375,350.500 291.476 M355.778 294.036 C 355.588 294.343,355.643 294.420,355.927 294.245 C 356.198 294.078,356.858 294.731,357.581 295.883 C 358.825 297.864,359.225 297.983,358.241 296.079 C 357.412 294.476,356.152 293.430,355.778 294.036 M357.798 307.550 C 357.985 308.167,357.940 308.410,357.672 308.244 C 357.032 307.849,356.722 309.392,357.221 310.487 C 357.467 311.026,357.893 311.467,358.169 311.467 C 358.768 311.467,358.544 307.639,357.908 307.000 C 357.644 306.734,357.607 306.919,357.798 307.550 M42.032 316.441 C 41.979 317.517,43.780 319.813,44.568 319.673 C 45.044 319.589,45.180 319.708,44.978 320.035 C 44.787 320.344,44.843 320.421,45.130 320.243 C 45.379 320.089,45.974 320.172,46.452 320.428 C 47.205 320.831,47.286 320.802,47.061 320.214 C 46.917 319.840,46.800 319.481,46.800 319.415 C 46.800 319.349,46.125 318.792,45.300 318.178 L 43.800 317.062 44.770 318.131 C 45.303 318.719,45.556 319.200,45.332 319.200 C 45.107 319.200,44.602 318.844,44.209 318.409 C 43.815 317.975,43.353 317.706,43.181 317.812 C 43.009 317.918,42.687 317.509,42.466 316.902 C 42.244 316.296,42.049 316.088,42.032 316.441 M355.200 324.609 C 354.430 325.127,353.431 325.876,352.979 326.275 C 352.528 326.674,352.438 326.796,352.779 326.547 C 353.121 326.298,353.777 325.980,354.237 325.840 C 354.697 325.701,355.493 325.139,356.006 324.593 C 357.138 323.388,357.013 323.391,355.200 324.609 " stroke="none" fill="#9b9b9f" fill-rule="evenodd"></path><path id="path4" d="M214.422 138.702 C 212.590 140.185,209.175 145.186,207.078 149.456 C 205.874 151.907,204.002 155.070,202.917 156.485 L 200.945 159.058 201.373 162.520 C 201.748 165.558,201.954 166.145,203.060 167.314 C 205.202 169.579,206.294 171.492,206.580 173.486 C 206.874 175.536,208.248 178.800,208.816 178.800 C 209.315 178.800,211.449 182.010,212.875 184.906 C 213.550 186.278,214.682 188.210,215.390 189.200 C 216.098 190.190,217.200 191.979,217.839 193.176 C 218.478 194.373,220.027 196.385,221.282 197.646 C 223.826 200.203,224.800 202.106,224.800 204.523 C 224.800 206.663,226.102 209.204,227.709 210.200 C 228.927 210.955,230.823 214.147,231.986 217.400 C 232.221 218.060,233.282 219.544,234.342 220.697 C 236.418 222.955,238.522 226.875,238.965 229.309 C 239.116 230.138,239.738 231.398,240.347 232.109 C 240.956 232.819,241.698 234.030,241.996 234.800 C 243.204 237.930,244.850 240.799,246.162 242.062 C 247.988 243.821,249.600 246.959,249.601 248.760 C 249.603 250.652,250.898 252.714,252.509 253.390 C 254.132 254.072,256.311 257.566,257.024 260.631 C 257.555 262.917,258.006 263.711,259.436 264.876 C 259.896 265.251,260.962 267.202,261.804 269.211 C 263.229 272.609,264.961 274.793,266.238 274.803 C 266.873 274.808,268.322 277.292,269.934 281.143 C 270.795 283.200,272.153 285.629,272.952 286.542 C 273.750 287.454,274.589 288.871,274.815 289.691 C 275.454 292.008,277.529 295.807,279.185 297.690 C 283.168 302.221,283.513 306.389,280.083 308.542 L 278.600 309.473 240.800 309.177 C 195.495 308.822,110.174 308.401,80.250 308.385 C 55.369 308.371,57.070 308.109,56.660 312.028 C 56.065 317.723,56.502 319.311,59.495 322.338 C 61.023 323.884,62.205 325.613,63.227 327.800 C 64.148 329.769,65.367 331.616,66.396 332.600 C 67.316 333.480,68.345 334.880,68.683 335.712 C 69.020 336.543,69.633 337.403,70.044 337.623 C 70.538 337.888,113.549 338.022,196.819 338.018 L 322.847 338.013 325.442 336.562 C 331.557 333.142,333.532 325.741,328.922 323.525 C 328.193 323.175,327.713 322.534,327.480 321.600 C 326.456 317.485,324.594 313.619,323.299 312.920 C 322.278 312.368,321.732 311.571,320.758 309.209 C 319.450 306.036,317.975 304.109,316.588 303.761 C 316.016 303.618,315.611 303.024,315.302 301.876 C 314.480 298.819,312.108 294.142,310.936 293.266 C 308.943 291.778,308.400 291.085,308.396 290.030 C 308.390 288.436,306.632 285.033,304.934 283.328 C 302.953 281.338,302.319 280.324,301.236 277.415 C 300.463 275.340,298.572 272.860,297.382 272.361 C 297.171 272.272,296.125 270.280,295.059 267.934 C 293.992 265.588,292.482 262.978,291.703 262.134 C 290.924 261.290,289.613 259.160,288.789 257.400 C 287.966 255.640,286.507 253.291,285.546 252.179 C 284.586 251.068,283.366 249.178,282.836 247.979 C 280.572 242.863,280.221 242.260,279.150 241.646 C 278.051 241.016,274.800 234.827,274.800 233.366 C 274.800 233.036,274.028 231.918,273.085 230.883 C 272.141 229.847,270.588 227.396,269.633 225.435 C 268.678 223.475,267.212 221.127,266.374 220.218 C 265.536 219.309,264.051 216.843,263.074 214.738 C 262.097 212.633,260.679 210.211,259.922 209.355 C 259.166 208.500,257.839 206.201,256.974 204.247 C 256.108 202.293,254.795 200.043,254.055 199.247 C 253.316 198.451,251.919 196.168,250.953 194.173 C 249.986 192.178,248.393 189.606,247.412 188.458 C 246.432 187.309,244.703 184.448,243.570 182.099 C 241.784 178.396,240.017 175.479,239.149 174.800 C 239.008 174.690,238.355 173.411,237.698 171.958 C 237.041 170.505,235.847 168.590,235.045 167.702 C 234.243 166.815,232.787 164.403,231.810 162.344 C 230.833 160.285,229.384 157.880,228.589 157.000 C 227.097 155.347,224.800 151.257,224.800 150.252 C 224.800 149.937,224.138 148.717,223.328 147.540 C 222.519 146.363,220.965 144.050,219.875 142.400 C 216.987 138.029,216.043 137.389,214.422 138.702 M218.356 142.378 C 219.066 143.711,220.264 145.609,221.018 146.596 C 222.862 149.013,224.800 152.497,224.800 153.397 C 224.800 154.491,226.650 157.438,227.902 158.337 C 228.625 158.857,229.615 160.525,230.800 163.218 C 231.921 165.767,233.184 167.924,234.148 168.937 C 234.999 169.832,236.276 171.832,236.986 173.382 C 237.696 174.932,238.920 177.037,239.705 178.060 C 240.491 179.083,241.910 181.662,242.858 183.790 C 243.818 185.947,245.352 188.563,246.322 189.699 C 247.279 190.820,248.929 193.462,249.990 195.569 C 251.050 197.676,252.399 199.849,252.988 200.397 C 253.576 200.945,255.064 203.465,256.293 205.997 C 257.522 208.529,259.064 211.220,259.720 211.979 C 260.377 212.737,261.342 214.357,261.865 215.579 C 263.185 218.661,263.938 219.961,265.412 221.705 C 266.112 222.533,267.633 225.053,268.792 227.305 C 269.950 229.557,271.461 232.030,272.149 232.800 C 272.837 233.570,273.715 234.965,274.100 235.900 C 274.485 236.835,275.115 238.360,275.500 239.290 C 275.885 240.219,277.040 241.941,278.068 243.115 C 279.139 244.340,280.390 246.391,281.002 247.925 C 282.227 250.997,283.337 252.972,284.641 254.400 C 285.143 254.950,286.481 257.020,287.613 259.000 C 288.746 260.980,290.106 263.060,290.636 263.622 C 291.166 264.184,291.600 264.767,291.600 264.917 C 291.600 265.848,296.258 274.363,297.221 275.192 C 297.865 275.746,299.312 278.090,300.438 280.400 C 301.563 282.710,303.175 285.350,304.020 286.267 C 305.377 287.740,308.400 293.189,308.400 294.162 C 308.400 294.362,309.108 295.444,309.974 296.566 C 310.839 297.688,312.276 300.190,313.167 302.127 C 314.191 304.356,315.375 306.216,316.390 307.191 C 317.418 308.178,318.618 310.074,319.729 312.466 C 320.684 314.520,322.215 317.066,323.132 318.124 C 324.049 319.183,324.800 320.317,324.800 320.644 C 324.800 321.581,325.921 323.515,327.808 325.832 C 330.015 328.541,329.815 329.231,325.605 333.444 L 322.600 336.451 197.117 336.526 L 71.635 336.600 70.804 335.121 C 70.347 334.308,68.901 332.673,67.592 331.488 C 65.901 329.957,64.954 328.706,64.325 327.167 C 63.837 325.975,63.335 324.910,63.210 324.800 C 63.084 324.690,62.647 324.076,62.239 323.434 C 61.830 322.793,60.831 321.533,60.019 320.634 C 57.705 318.073,57.397 316.942,58.035 313.349 C 58.750 309.326,59.012 308.995,61.024 309.572 C 62.118 309.886,73.436 310.083,98.000 310.218 C 117.470 310.324,159.770 310.587,192.000 310.801 C 224.230 311.015,257.104 311.230,265.052 311.280 L 279.505 311.369 281.131 310.293 C 285.482 307.414,284.526 302.369,278.019 293.876 C 277.377 293.038,276.366 291.058,275.773 289.476 C 275.180 287.894,274.165 286.038,273.518 285.350 C 272.870 284.663,271.453 282.059,270.367 279.565 C 269.282 277.070,268.170 274.902,267.897 274.747 C 265.052 273.136,264.177 272.045,262.855 268.458 C 261.966 266.048,260.983 264.211,259.955 263.044 C 259.100 262.072,258.400 260.945,258.400 260.539 C 258.400 259.009,254.992 253.046,252.963 251.024 C 251.536 249.602,250.842 248.550,250.647 247.512 C 250.218 245.223,248.591 241.966,246.995 240.200 C 246.200 239.320,245.086 237.790,244.519 236.800 C 243.953 235.810,242.755 233.740,241.857 232.200 C 240.960 230.660,239.914 228.488,239.533 227.374 C 238.566 224.544,236.239 220.548,234.389 218.542 C 233.530 217.610,232.705 216.342,232.556 215.724 C 232.034 213.559,229.992 210.022,228.359 208.453 C 226.751 206.908,226.163 205.525,224.815 200.131 C 224.415 198.527,223.139 196.729,221.009 194.766 C 220.093 193.921,218.673 191.918,217.854 190.315 C 217.036 188.712,215.663 186.320,214.805 185.000 C 213.946 183.680,212.500 181.397,211.592 179.927 C 210.684 178.457,209.596 176.856,209.173 176.369 C 208.483 175.574,207.608 173.248,207.602 172.194 C 207.598 171.366,205.877 168.553,204.495 167.116 C 203.238 165.808,203.013 165.251,202.604 162.427 L 202.139 159.222 203.507 157.911 C 204.862 156.612,208.039 150.810,208.548 148.707 C 208.693 148.105,209.618 146.706,210.603 145.597 C 211.588 144.488,212.753 142.877,213.192 142.017 C 214.962 138.547,216.366 138.645,218.356 142.378 M356.384 323.086 C 355.684 324.123,355.392 324.739,355.735 324.454 C 356.363 323.933,358.110 321.200,357.815 321.200 C 357.728 321.200,357.084 322.049,356.384 323.086 " stroke="none" fill="#848c96" fill-rule="evenodd"></path></g></svg>