<svg id="svg" version="1.1" xmlns="http://www.w3.org/2000/svg" xmlns:xlink="http://www.w3.org/1999/xlink" width="400" height="400" viewBox="0, 0, 400,400"><g id="svgg"><path id="path0" d="M195.245 113.904 C 193.773 115.451,193.711 115.633,193.505 118.937 C 193.292 122.352,192.264 124.712,190.962 124.778 C 190.319 124.810,189.147 126.219,188.005 128.332 C 187.370 129.505,186.300 130.648,185.102 131.431 C 181.594 133.725,181.600 133.715,181.600 137.616 L 181.600 141.107 179.974 142.454 C 179.080 143.194,177.628 144.466,176.746 145.281 L 175.144 146.761 175.225 150.281 C 175.328 154.814,174.984 155.587,172.080 157.351 C 169.442 158.954,169.213 159.495,169.204 164.140 C 169.200 166.694,168.308 167.944,165.162 169.807 C 164.402 170.257,163.349 171.448,162.778 172.502 C 162.216 173.540,161.093 174.887,160.282 175.495 C 158.051 177.167,157.652 177.998,157.351 181.605 C 157.049 185.227,156.061 186.927,153.486 188.259 C 150.958 189.566,150.400 190.610,150.400 194.030 C 150.400 197.435,149.984 198.140,146.385 200.838 C 144.929 201.929,144.501 202.625,143.425 205.659 C 143.062 206.681,142.396 207.941,141.944 208.459 C 140.568 210.037,139.296 212.483,138.611 214.872 C 137.930 217.246,137.016 218.382,134.055 220.532 C 132.467 221.686,132.204 222.133,131.140 225.489 C 130.437 227.705,129.433 229.882,128.626 230.939 C 123.905 237.123,124.756 237.348,152.761 237.296 C 176.790 237.253,174.800 237.779,174.800 231.466 L 174.800 227.357 176.119 226.078 C 176.845 225.375,177.720 224.800,178.065 224.800 C 179.233 224.800,180.714 223.216,181.444 221.185 C 181.844 220.073,183.006 218.176,184.026 216.969 C 185.337 215.419,186.086 214.046,186.581 212.288 C 187.625 208.577,187.815 208.205,189.207 207.160 C 192.836 204.435,193.078 204.045,193.395 200.390 C 193.910 194.457,195.399 193.144,200.389 194.222 C 204.511 195.113,205.289 195.912,206.204 200.200 C 206.954 203.716,207.968 205.572,209.693 206.591 C 212.263 208.109,212.666 208.863,212.898 212.580 C 213.139 216.449,213.418 216.948,216.261 218.615 C 217.433 219.301,218.329 220.254,218.993 221.518 C 220.279 223.968,220.825 224.627,221.831 224.946 C 224.398 225.761,224.855 227.017,225.094 233.902 C 225.480 245.019,228.016 243.997,200.047 243.999 L 177.894 244.000 176.530 245.447 L 175.166 246.893 175.408 250.147 C 175.704 254.125,175.252 255.029,171.786 257.393 L 169.422 259.006 168.948 262.603 L 168.473 266.200 166.396 268.035 C 165.254 269.045,163.842 270.751,163.260 271.828 C 162.670 272.918,161.605 274.144,160.857 274.593 C 160.119 275.037,158.873 275.958,158.088 276.641 L 156.662 277.881 157.330 281.209 C 158.741 288.246,151.544 287.603,228.711 287.586 C 305.213 287.569,298.516 288.165,299.589 281.273 C 300.184 277.446,299.898 276.796,296.901 275.165 C 295.856 274.596,294.601 273.516,294.112 272.765 C 292.243 269.890,291.368 268.828,290.466 268.337 C 288.747 267.401,288.075 265.939,287.729 262.379 L 287.400 259.000 284.839 257.317 C 281.278 254.977,280.806 254.137,280.803 250.139 L 280.800 246.879 279.366 245.739 C 278.577 245.113,277.227 243.946,276.366 243.147 L 274.800 241.694 274.800 237.902 C 274.800 234.132,273.914 232.000,272.347 232.000 C 271.413 232.000,268.797 228.997,268.222 227.265 C 267.877 226.228,266.851 224.484,265.941 223.390 C 264.101 221.178,262.410 217.882,262.404 216.497 C 262.401 215.907,261.358 214.558,259.400 212.613 L 256.400 209.632 256.387 206.516 C 256.371 202.928,256.055 202.368,252.966 200.458 C 250.366 198.851,249.914 198.030,249.418 194.010 L 249.000 190.620 246.853 189.019 C 245.045 187.670,244.453 186.880,243.105 184.009 C 242.225 182.134,240.941 180.007,240.252 179.282 C 239.457 178.445,238.562 176.697,237.800 174.492 C 236.643 171.143,236.519 170.967,234.313 169.508 C 231.675 167.763,231.255 167.117,230.538 163.704 C 229.859 160.470,228.982 158.400,228.290 158.400 C 226.349 158.400,224.800 154.790,224.800 150.266 L 224.800 146.493 223.196 145.146 C 218.531 141.230,218.840 141.672,218.349 138.200 C 217.906 135.066,217.853 134.958,215.788 133.000 C 214.628 131.900,213.220 130.078,212.659 128.952 C 211.638 126.901,209.856 125.062,208.461 124.619 C 207.267 124.240,206.455 122.038,206.244 118.600 C 205.981 114.323,204.584 112.803,200.906 112.795 C 199.638 112.792,198.189 112.679,197.686 112.544 C 196.970 112.353,196.440 112.648,195.245 113.904 " stroke="none" fill="#fbfafb" fill-rule="evenodd"></path><path id="path1" d="M150.000 1.620 C 150.000 3.947,150.889 5.351,153.432 7.039 C 154.662 7.855,156.082 9.170,156.589 9.961 C 157.096 10.753,157.933 11.670,158.449 12.000 C 159.903 12.929,162.132 15.282,162.840 16.633 C 163.201 17.323,164.376 18.365,165.541 19.027 C 166.887 19.792,168.055 20.886,168.902 22.174 C 169.739 23.447,170.840 24.484,172.000 25.092 C 174.899 26.611,174.940 26.696,174.850 31.026 C 174.754 35.602,175.088 36.325,177.972 37.786 C 179.905 38.765,181.600 40.589,181.600 41.689 C 181.600 43.490,182.980 46.627,184.273 47.765 C 185.826 49.132,186.743 50.739,187.781 53.912 C 188.517 56.162,190.124 58.400,191.003 58.400 C 191.580 58.400,192.510 60.897,193.239 64.400 C 193.865 67.407,194.578 68.694,196.781 70.800 C 198.699 72.633,198.767 72.798,199.861 78.373 C 200.047 79.320,201.696 81.064,204.518 83.298 C 205.856 84.357,205.915 84.521,206.197 87.898 C 206.602 92.770,207.700 96.090,209.527 97.972 C 212.121 100.646,212.894 102.706,212.594 106.154 C 212.274 109.849,212.780 110.969,215.771 113.178 C 218.188 114.964,218.588 115.832,219.006 120.200 C 219.256 122.810,219.981 126.208,220.586 127.600 C 220.730 127.930,221.536 128.740,222.379 129.400 C 224.629 131.163,224.811 131.628,225.219 136.628 C 225.517 140.284,225.745 141.345,226.367 141.967 C 227.167 142.767,227.393 143.933,227.807 149.389 C 228.086 153.061,228.237 153.319,230.654 154.242 C 232.708 155.026,233.287 155.920,234.001 159.400 C 234.359 161.149,234.887 162.258,235.946 163.486 C 239.060 167.097,239.713 168.086,240.297 170.079 C 240.969 172.370,241.500 173.039,243.701 174.363 C 244.617 174.915,245.299 175.681,245.453 176.333 C 245.592 176.920,246.380 178.300,247.204 179.400 C 248.029 180.500,249.546 182.840,250.574 184.600 C 253.106 188.931,253.200 189.114,253.200 189.707 C 253.200 189.991,253.840 190.828,254.623 191.566 C 256.187 193.042,258.390 196.610,258.396 197.679 C 258.401 198.540,260.189 201.924,261.218 203.019 C 261.648 203.477,262.000 204.065,262.000 204.326 C 262.000 204.587,262.141 204.800,262.314 204.800 C 262.486 204.800,262.963 205.385,263.374 206.100 C 264.141 207.437,267.852 213.332,269.564 215.935 C 270.094 216.741,271.125 218.602,271.855 220.071 C 272.585 221.540,273.362 222.853,273.581 222.988 C 274.310 223.439,276.676 228.164,277.392 230.600 C 277.819 232.054,278.792 233.898,279.858 235.278 C 280.826 236.531,282.262 238.961,283.048 240.678 C 283.835 242.395,284.853 244.520,285.310 245.400 C 285.767 246.280,286.276 247.270,286.441 247.600 C 287.724 250.166,290.354 257.363,290.579 258.927 C 290.803 260.477,291.161 261.128,292.411 262.258 C 293.266 263.030,294.089 264.049,294.239 264.521 C 294.389 264.994,295.154 266.150,295.940 267.090 L 297.369 268.800 300.385 268.818 C 302.043 268.827,304.750 268.995,306.400 269.190 C 309.991 269.614,311.271 269.000,312.800 266.118 C 313.918 264.011,315.277 262.969,317.414 262.580 C 321.499 261.837,324.207 259.322,324.850 255.673 C 325.350 252.833,326.246 251.499,328.387 250.406 C 330.010 249.579,332.000 247.481,332.000 246.600 C 332.000 246.303,333.229 244.968,334.731 243.633 C 337.446 241.220,337.467 241.186,338.157 237.975 C 338.788 235.038,339.034 234.553,340.870 232.638 C 341.981 231.480,343.364 229.557,343.945 228.366 C 344.812 226.587,345.347 226.028,346.944 225.236 C 348.103 224.662,349.476 223.512,350.344 222.388 C 351.145 221.351,352.566 219.985,353.501 219.352 C 354.469 218.697,355.880 217.132,356.773 215.723 C 357.866 213.997,358.835 212.994,359.966 212.417 C 360.992 211.894,361.871 211.040,362.355 210.095 C 362.811 209.204,363.814 208.196,364.836 207.600 C 366.673 206.530,368.943 204.407,370.128 202.652 C 370.529 202.059,371.571 201.124,372.443 200.573 C 374.450 199.306,375.467 197.638,375.815 195.043 C 376.230 191.946,376.932 190.642,378.973 189.177 C 379.996 188.442,381.214 187.201,381.679 186.420 C 382.144 185.639,383.802 183.715,385.362 182.144 C 386.923 180.574,388.843 178.525,389.629 177.592 C 391.161 175.772,391.978 175.497,397.500 174.942 L 400.000 174.690 400.000 87.345 L 400.000 0.000 275.000 0.000 L 150.000 0.000 150.000 1.620 " stroke="none" fill="#d407d5" fill-rule="evenodd"></path><path id="path2" d="M-0.000 121.603 L -0.000 155.327 12.100 155.061 C 18.755 154.914,30.320 154.704,37.800 154.593 C 48.667 154.431,68.000 153.668,68.000 153.401 C 68.000 149.817,63.049 142.085,60.351 141.455 C 59.639 141.289,59.147 140.790,58.823 139.905 C 56.494 133.554,53.357 128.254,50.263 125.447 C 48.538 123.881,46.798 121.962,46.397 121.182 C 45.712 119.850,42.920 116.971,41.530 116.163 C 41.187 115.963,38.718 111.546,36.043 106.348 L 31.181 96.895 33.891 96.619 C 35.381 96.467,37.680 96.099,39.000 95.801 C 40.320 95.504,42.570 95.131,44.000 94.974 C 45.430 94.817,47.010 94.536,47.511 94.350 C 48.479 93.990,48.637 93.880,50.769 92.078 L 52.139 90.920 49.592 90.060 C 47.218 89.258,46.242 89.199,35.222 89.185 C 24.244 89.171,14.060 88.835,4.100 88.158 L 0.000 87.880 -0.000 121.603 M64.600 96.262 C 61.792 96.856,61.898 96.795,62.465 97.478 C 62.991 98.113,65.200 99.200,65.962 99.200 C 66.176 99.200,66.908 98.691,67.590 98.068 L 68.830 96.936 67.269 96.468 C 66.410 96.211,65.638 96.021,65.554 96.046 C 65.469 96.072,65.040 96.169,64.600 96.262 M77.678 103.152 C 77.265 103.407,77.279 103.567,77.745 103.955 C 78.176 104.312,78.402 104.320,78.610 103.985 C 78.993 103.365,78.314 102.758,77.678 103.152 M171.091 151.800 L 169.982 153.400 171.028 153.530 C 172.385 153.699,172.477 153.573,172.327 151.740 L 172.200 150.200 171.091 151.800 M165.089 164.800 C 164.450 165.699,164.443 165.814,165.020 165.935 C 165.884 166.117,166.090 165.846,165.932 164.734 L 165.800 163.800 165.089 164.800 M146.100 177.850 C 145.225 178.229,146.202 184.001,147.197 184.332 C 147.428 184.409,147.171 184.823,146.626 185.251 C 146.081 185.680,144.689 187.598,143.531 189.515 C 142.316 191.528,140.454 193.901,139.124 195.134 C 137.857 196.307,136.287 198.197,135.635 199.334 C 134.983 200.470,133.025 202.980,131.284 204.911 L 128.118 208.422 127.659 211.711 C 127.079 215.858,127.082 217.429,127.672 220.080 L 128.144 222.200 128.464 220.422 C 128.896 218.029,129.540 217.501,132.280 217.294 C 135.439 217.055,135.600 216.768,135.600 211.377 C 135.600 205.763,136.125 204.800,139.186 204.800 C 141.465 204.800,141.600 204.588,141.600 200.990 C 141.600 198.158,142.325 197.200,144.469 197.200 C 145.086 197.200,145.737 196.896,145.968 196.500 C 146.220 196.068,146.380 196.000,146.388 196.324 C 146.395 196.612,146.580 196.736,146.800 196.600 C 147.032 196.457,147.200 194.273,147.200 191.409 C 147.200 184.930,147.051 185.200,150.619 185.200 C 154.015 185.200,154.053 185.167,153.737 182.501 C 153.504 180.533,153.464 180.480,151.978 180.243 C 151.033 180.092,150.160 179.621,149.670 178.998 C 148.894 178.011,147.077 177.427,146.100 177.850 M196.848 200.900 C 196.795 205.656,196.850 205.739,199.340 204.647 C 200.033 204.343,201.230 203.926,202.000 203.721 L 203.400 203.349 201.365 203.069 C 198.784 202.715,197.799 201.683,197.286 198.800 C 196.913 196.700,196.893 196.796,196.848 200.900 M190.691 209.073 C 190.587 209.253,190.614 210.148,190.751 211.062 L 191.000 212.725 192.528 210.962 C 194.032 209.228,194.040 209.200,193.061 209.200 C 192.513 209.200,191.799 209.098,191.473 208.973 C 191.147 208.848,190.796 208.893,190.691 209.073 M178.000 230.024 C 178.000 232.335,178.413 232.326,179.606 229.989 C 180.621 227.998,180.622 228.000,179.200 228.000 C 178.025 228.000,178.000 228.042,178.000 230.024 M43.000 233.381 C 41.680 233.657,39.415 234.452,37.967 235.148 C 34.260 236.929,29.863 237.720,25.477 237.396 C 21.270 237.086,18.833 237.779,16.243 240.022 C 13.156 242.697,10.920 243.343,5.100 243.239 L 0.000 243.148 0.000 321.574 L 0.000 400.000 200.000 400.000 L 400.000 400.000 400.000 375.800 L 400.000 351.600 398.650 351.600 C 396.798 351.600,394.075 353.212,391.388 355.899 C 389.244 358.043,389.018 358.162,386.792 358.323 C 384.431 358.494,382.800 359.408,382.800 360.562 C 382.800 361.556,381.191 363.141,379.694 363.622 C 377.841 364.216,376.885 365.032,376.214 366.592 C 375.468 368.326,374.413 369.296,371.879 370.578 C 370.652 371.198,369.101 372.387,368.433 373.219 C 367.064 374.922,365.477 375.410,357.504 376.582 C 352.470 377.322,351.671 377.638,350.600 379.317 C 349.142 381.601,347.458 382.400,344.100 382.400 C 340.888 382.400,337.451 383.793,336.973 385.290 C 336.491 386.798,334.700 387.481,329.400 388.175 C 321.798 389.171,320.784 389.420,317.333 391.131 C 311.363 394.091,311.681 394.059,287.864 394.084 C 258.280 394.116,241.932 393.561,239.396 392.439 C 238.352 391.978,237.329 391.600,237.122 391.600 C 236.916 391.600,236.174 391.165,235.473 390.634 C 233.616 389.226,229.797 388.070,225.364 387.576 C 220.605 387.045,217.723 386.011,215.400 384.000 C 213.161 382.062,210.245 380.978,206.302 380.616 L 203.204 380.332 201.331 378.139 C 198.815 375.195,197.933 374.800,193.866 374.800 L 190.493 374.800 189.146 373.171 C 186.525 369.998,185.293 368.955,183.557 368.435 C 178.968 367.063,176.713 365.062,174.846 360.707 C 174.339 359.525,173.547 358.616,172.352 357.844 C 169.979 356.313,163.942 350.096,162.232 347.423 C 161.468 346.228,160.461 345.047,159.995 344.797 C 159.529 344.548,158.351 343.113,157.378 341.609 C 156.119 339.662,155.025 338.515,153.582 337.627 C 152.300 336.838,151.106 335.658,150.335 334.418 C 149.597 333.232,148.268 331.895,146.967 331.031 C 145.555 330.093,144.522 329.021,143.953 327.902 C 143.478 326.966,142.156 325.300,141.016 324.200 C 139.024 322.277,138.924 322.077,138.422 319.000 C 137.855 315.518,136.750 313.418,134.909 312.324 C 132.698 311.010,131.712 309.518,131.026 306.448 C 130.269 303.058,129.551 301.491,128.379 300.670 C 126.521 299.369,125.686 297.628,125.213 294.073 C 124.522 288.887,124.203 288.005,122.114 285.530 C 120.360 283.453,118.800 280.218,118.800 278.660 C 118.800 277.706,116.459 275.235,114.962 274.610 C 114.034 274.222,113.259 273.383,112.366 271.801 C 111.665 270.560,110.602 269.182,110.003 268.739 C 109.404 268.296,108.227 267.004,107.388 265.867 C 105.059 262.712,95.789 253.429,92.256 250.714 C 90.527 249.385,88.763 247.705,88.336 246.982 C 86.962 244.653,73.685 237.602,70.665 237.598 C 67.556 237.593,64.225 236.816,61.389 235.434 C 56.199 232.903,49.081 232.108,43.000 233.381 M139.187 240.602 L 137.539 241.004 138.680 241.848 C 139.308 242.313,140.818 243.163,142.035 243.739 C 145.677 245.462,146.767 247.240,146.790 251.500 C 146.798 252.791,146.955 253.200,147.443 253.200 C 147.850 253.200,148.001 252.980,147.855 252.600 C 147.729 252.270,147.754 251.996,147.913 251.992 C 148.071 251.988,149.354 251.817,150.764 251.613 C 152.771 251.323,153.633 251.370,154.735 251.830 C 155.815 252.282,156.211 252.306,156.439 251.936 C 156.657 251.585,157.124 251.718,158.166 252.427 L 159.594 253.400 158.437 253.522 C 157.284 253.644,156.404 255.053,155.388 258.400 C 155.221 258.950,154.680 259.940,154.185 260.600 C 153.254 261.841,152.545 265.481,153.093 266.209 C 153.262 266.434,153.894 266.933,154.498 267.317 C 155.577 268.004,156.800 270.258,156.800 271.561 C 156.800 272.400,159.136 273.351,159.814 272.788 C 160.076 272.571,160.390 271.289,160.512 269.939 C 160.655 268.359,161.031 267.084,161.567 266.359 C 162.025 265.739,162.400 265.054,162.400 264.837 C 162.400 264.367,164.894 262.400,165.489 262.400 C 165.717 262.400,166.105 261.005,166.353 259.300 C 166.906 255.492,167.852 254.400,170.599 254.400 C 172.884 254.400,173.002 254.137,172.853 249.376 C 172.691 244.158,173.218 242.122,174.914 241.409 L 176.181 240.876 174.390 240.634 C 171.199 240.202,140.936 240.175,139.187 240.602 M170.491 290.711 L 169.583 291.000 170.861 292.550 C 171.565 293.402,172.772 294.363,173.545 294.686 C 175.653 295.567,177.491 297.112,177.774 298.241 C 177.952 298.948,178.230 299.187,178.713 299.048 C 179.091 298.940,180.840 298.635,182.600 298.370 C 184.360 298.105,186.070 297.662,186.400 297.384 C 186.730 297.107,189.070 296.582,191.600 296.218 C 194.130 295.854,197.216 295.296,198.458 294.978 C 199.699 294.660,201.814 294.400,203.158 294.400 C 204.519 294.400,205.600 294.223,205.600 294.000 C 205.600 293.780,205.930 293.600,206.334 293.600 C 206.995 293.600,209.455 291.317,209.133 291.003 C 208.847 290.723,171.345 290.440,170.491 290.711 " stroke="none" fill="#2c0e91" fill-rule="evenodd"></path><path id="path3" d="M20.200 16.269 C 17.935 16.409,12.568 17.352,7.745 18.455 C 5.955 18.865,3.480 19.200,2.245 19.200 L 0.000 19.200 0.000 53.529 L 0.000 87.858 6.900 88.361 C 10.695 88.638,21.270 88.954,30.400 89.063 C 45.756 89.248,47.193 89.325,49.573 90.088 L 52.146 90.914 50.773 92.074 C 48.637 93.880,48.479 93.990,47.511 94.350 C 47.010 94.536,45.430 94.817,44.000 94.974 C 42.570 95.131,40.320 95.504,39.000 95.801 C 37.680 96.099,35.381 96.467,33.891 96.619 L 31.181 96.895 36.043 106.348 C 38.718 111.546,41.187 115.963,41.530 116.163 C 42.920 116.971,45.712 119.850,46.397 121.182 C 46.798 121.962,48.538 123.881,50.263 125.447 C 53.357 128.254,56.494 133.554,58.823 139.905 C 59.147 140.790,59.639 141.289,60.351 141.455 C 63.049 142.085,68.000 149.817,68.000 153.401 C 68.000 153.668,48.667 154.431,37.800 154.593 C 30.320 154.704,18.755 154.914,12.100 155.061 L 0.000 155.327 0.000 157.063 L 0.000 158.800 9.900 158.875 C 35.270 159.066,48.348 158.959,59.720 158.467 C 74.485 157.828,74.000 157.718,74.000 161.729 C 74.000 165.501,74.618 165.748,81.171 164.589 C 85.132 163.889,86.400 164.486,86.400 167.051 C 86.400 168.700,87.126 170.332,87.961 170.557 C 88.312 170.652,89.274 170.844,90.097 170.983 C 91.902 171.287,92.229 172.145,91.731 175.269 L 91.391 177.400 89.996 177.265 C 87.005 176.975,85.592 175.770,84.642 172.700 C 84.504 172.254,84.022 171.999,83.313 171.998 C 79.849 171.991,75.145 169.720,74.433 167.711 C 73.553 165.226,73.495 165.200,68.803 165.200 C 62.352 165.200,53.721 164.149,47.000 162.546 C 39.421 160.738,36.967 160.598,26.290 161.371 C 21.525 161.715,13.660 162.117,8.813 162.262 L 0.000 162.527 0.000 202.829 L 0.000 243.131 4.700 243.289 C 10.194 243.474,13.325 242.592,16.243 240.037 C 18.819 237.783,21.259 237.085,25.477 237.396 C 29.922 237.725,34.197 236.937,38.370 235.020 C 45.294 231.838,54.350 232.001,61.389 235.434 C 64.225 236.816,67.556 237.593,70.665 237.598 C 73.685 237.602,86.962 244.653,88.336 246.982 C 88.763 247.705,90.527 249.385,92.256 250.714 C 95.789 253.429,105.059 262.712,107.388 265.867 C 108.227 267.004,109.404 268.296,110.003 268.739 C 110.602 269.182,111.665 270.560,112.366 271.801 C 113.259 273.383,114.034 274.222,114.962 274.610 C 116.459 275.235,118.800 277.706,118.800 278.660 C 118.800 280.218,120.360 283.453,122.114 285.530 C 124.203 288.005,124.522 288.887,125.213 294.073 C 125.686 297.628,126.521 299.369,128.379 300.670 C 129.551 301.491,130.269 303.058,131.026 306.448 C 131.712 309.518,132.698 311.010,134.909 312.324 C 136.750 313.418,137.855 315.518,138.422 319.000 C 138.924 322.077,139.024 322.277,141.016 324.200 C 142.156 325.300,143.478 326.966,143.953 327.902 C 144.522 329.021,145.555 330.093,146.967 331.031 C 148.268 331.895,149.597 333.232,150.335 334.418 C 151.106 335.658,152.300 336.838,153.582 337.627 C 155.025 338.515,156.119 339.662,157.378 341.609 C 158.351 343.113,159.529 344.548,159.995 344.797 C 160.461 345.047,161.468 346.228,162.232 347.423 C 163.942 350.096,169.979 356.313,172.352 357.844 C 173.547 358.616,174.339 359.525,174.846 360.707 C 176.713 365.062,178.968 367.063,183.557 368.435 C 185.293 368.955,186.525 369.998,189.146 373.171 L 190.493 374.800 193.866 374.800 C 197.933 374.800,198.815 375.195,201.331 378.139 L 203.204 380.332 206.302 380.616 C 210.245 380.978,213.161 382.062,215.400 384.000 C 217.723 386.011,220.605 387.045,225.364 387.576 C 229.797 388.070,233.616 389.226,235.473 390.634 C 236.174 391.165,236.916 391.600,237.122 391.600 C 237.329 391.600,238.352 391.978,239.396 392.439 C 241.932 393.561,258.280 394.116,287.864 394.084 C 311.681 394.059,311.363 394.091,317.333 391.131 C 320.784 389.420,321.798 389.171,329.400 388.175 C 334.700 387.481,336.491 386.798,336.973 385.290 C 337.451 383.793,340.888 382.400,344.100 382.400 C 347.458 382.400,349.142 381.601,350.600 379.317 C 351.671 377.638,352.470 377.322,357.504 376.582 C 365.477 375.410,367.064 374.922,368.433 373.219 C 369.101 372.387,370.652 371.198,371.879 370.578 C 374.413 369.296,375.468 368.326,376.214 366.592 C 376.885 365.032,377.841 364.216,379.694 363.622 C 381.191 363.141,382.800 361.556,382.800 360.562 C 382.800 359.408,384.431 358.494,386.792 358.323 C 389.018 358.162,389.244 358.043,391.388 355.899 C 394.075 353.212,396.798 351.600,398.650 351.600 L 400.000 351.600 400.000 346.454 L 400.000 341.308 392.400 341.268 L 384.800 341.227 384.800 344.214 L 384.800 347.200 381.600 347.200 L 378.400 347.200 378.400 350.400 L 378.400 353.600 375.400 353.600 L 372.400 353.600 372.400 356.600 L 372.400 359.600 369.200 359.600 L 366.000 359.600 366.000 362.800 L 366.000 366.000 359.800 366.000 L 353.600 366.000 353.600 369.200 L 353.600 372.400 344.400 372.400 L 335.200 372.400 335.200 375.400 L 335.200 378.400 331.600 378.400 L 328.000 378.400 328.000 375.400 L 328.000 372.400 325.000 372.400 L 322.000 372.400 322.000 369.200 L 322.000 366.000 318.800 366.000 C 316.089 366.000,315.600 365.899,315.600 365.338 C 315.600 364.739,315.016 364.701,309.500 364.938 C 297.931 365.436,291.687 364.212,289.819 361.078 L 288.823 359.409 289.712 359.064 C 294.537 357.193,300.290 356.885,309.200 358.020 C 312.610 358.455,315.760 358.853,316.200 358.905 C 316.935 358.992,317.000 358.765,317.000 356.118 C 317.000 352.960,317.117 352.772,320.084 351.191 C 322.128 350.102,323.829 350.210,326.327 351.587 C 329.642 353.415,331.200 352.334,331.200 348.205 C 331.200 344.159,335.103 342.869,339.523 345.453 C 341.203 346.436,343.141 346.141,343.218 344.891 C 343.476 340.663,343.488 340.631,345.213 339.100 C 346.441 338.010,347.264 337.600,348.225 337.600 C 350.356 337.600,351.527 336.942,352.293 335.314 C 353.075 333.650,354.201 333.314,359.251 333.235 C 361.952 333.193,362.447 332.729,362.710 329.997 C 362.943 327.571,364.760 325.447,366.953 325.035 C 368.343 324.775,370.000 323.222,370.000 322.182 C 370.000 321.546,372.267 319.600,373.008 319.600 C 373.797 319.600,374.800 318.000,374.800 316.742 C 374.800 315.271,376.582 313.265,378.692 312.361 C 379.995 311.802,380.587 311.249,381.039 310.170 C 381.735 308.502,383.188 307.126,385.239 306.190 C 386.222 305.742,386.994 304.942,387.673 303.667 C 388.326 302.444,389.400 301.303,390.789 300.360 C 392.136 299.446,393.182 298.350,393.653 297.360 C 394.741 295.078,396.639 293.600,398.485 293.600 L 400.000 293.600 400.000 260.200 L 400.000 226.800 398.462 226.800 C 396.886 226.800,395.601 227.711,395.599 228.831 C 395.595 230.083,393.934 232.040,392.142 232.902 C 391.115 233.396,390.152 234.070,390.002 234.400 C 388.245 238.270,388.270 238.245,384.400 240.002 C 384.070 240.152,383.396 241.115,382.902 242.142 C 382.017 243.980,380.077 245.595,378.749 245.599 C 377.739 245.601,377.048 246.712,376.537 249.158 C 375.452 254.353,372.413 257.783,368.195 258.575 C 367.057 258.788,365.745 259.873,361.680 263.965 C 358.515 267.151,355.855 269.462,354.648 270.075 C 353.529 270.644,352.174 271.785,351.453 272.766 C 350.541 274.007,349.604 274.705,348.008 275.335 C 346.447 275.952,345.584 276.586,345.008 277.539 C 343.302 280.365,341.662 281.888,340.046 282.146 C 338.998 282.314,337.859 282.961,336.546 284.137 C 334.708 285.782,333.556 286.300,328.921 287.562 C 327.261 288.014,324.803 290.023,324.797 290.931 C 324.794 291.541,322.619 292.969,320.644 293.658 C 319.788 293.956,318.798 294.616,318.444 295.125 C 316.374 298.099,316.018 298.366,314.078 298.396 C 305.575 298.530,302.692 298.311,300.938 297.402 L 299.963 296.896 300.962 296.645 C 302.545 296.248,308.381 289.420,308.410 287.931 C 308.416 287.639,308.864 286.062,309.406 284.426 C 311.205 278.998,311.054 276.000,308.981 276.000 C 308.708 276.000,308.391 275.754,308.276 275.453 C 308.134 275.084,307.290 274.889,305.683 274.852 C 302.769 274.786,302.800 274.701,302.800 282.806 C 302.800 287.637,302.706 288.427,302.033 289.256 L 301.266 290.200 287.133 290.080 C 279.360 290.015,258.420 289.765,240.600 289.525 C 184.849 288.776,171.655 288.723,168.800 289.237 C 159.418 290.928,155.516 289.094,154.783 282.649 C 154.151 277.085,155.107 274.800,158.068 274.800 C 159.894 274.800,161.156 273.679,162.386 270.967 C 163.241 269.081,163.921 268.207,165.128 267.445 C 167.169 266.157,167.084 266.326,167.738 262.242 C 168.362 258.344,168.746 257.758,171.803 256.033 C 174.439 254.545,174.549 254.277,174.577 249.270 L 174.600 245.139 176.023 243.834 L 177.446 242.530 189.686 242.251 C 196.417 242.098,206.487 242.081,212.062 242.214 C 221.645 242.443,222.252 242.414,223.146 241.692 L 224.091 240.928 223.611 234.564 C 223.098 227.780,222.974 227.390,221.202 227.000 C 219.650 226.660,218.087 225.008,217.598 223.193 C 217.128 221.446,216.482 220.824,214.284 220.000 C 211.651 219.013,211.032 217.788,210.800 213.106 L 210.600 209.065 209.200 208.294 C 206.686 206.911,206.069 206.021,204.810 201.969 C 203.428 197.521,202.794 196.804,199.368 195.808 C 195.839 194.782,195.399 195.256,194.970 200.555 C 194.633 204.700,193.962 205.936,191.240 207.417 C 188.989 208.642,188.975 208.669,188.590 212.600 C 188.253 216.047,187.622 217.324,185.636 218.577 C 184.237 219.460,182.400 222.254,182.400 223.499 C 182.400 224.057,180.531 225.397,179.200 225.792 C 176.637 226.555,176.036 227.760,176.288 231.637 C 176.756 238.873,176.544 238.949,156.690 238.600 C 143.583 238.369,140.943 238.422,138.200 238.965 C 134.692 239.661,127.421 239.816,125.876 239.229 C 122.190 237.828,122.863 228.854,126.768 227.320 C 128.100 226.796,128.533 226.301,129.625 224.052 C 131.234 220.736,131.752 220.141,134.038 218.982 C 136.225 217.873,137.094 216.668,137.588 214.062 C 138.175 210.969,139.207 208.778,140.266 208.375 C 140.791 208.175,141.324 207.694,141.450 207.306 C 143.131 202.140,144.195 200.431,146.612 199.014 C 148.636 197.828,148.660 197.775,149.018 193.675 C 149.364 189.703,150.123 188.357,152.771 187.015 C 155.355 185.705,155.600 185.171,155.600 180.849 C 155.600 176.803,156.091 175.828,158.800 174.491 C 159.839 173.978,160.486 173.199,161.308 171.474 C 162.265 169.466,162.675 169.035,164.308 168.325 C 167.518 166.928,167.600 166.781,167.600 162.413 C 167.600 158.012,168.118 157.129,171.476 155.797 C 173.411 155.030,174.570 153.533,174.242 152.226 C 173.023 147.368,174.222 143.589,177.432 142.169 L 179.608 141.207 179.304 138.903 C 178.341 131.605,178.837 130.056,182.243 129.724 C 185.232 129.433,186.000 128.787,186.000 126.564 C 186.000 124.420,186.577 122.857,187.494 122.519 C 188.415 122.179,188.863 121.486,188.362 121.176 C 188.131 121.034,188.321 120.528,188.816 119.966 C 189.438 119.260,189.606 119.192,189.441 119.713 C 189.224 120.397,189.255 120.397,190.195 119.713 C 191.067 119.079,191.176 118.699,191.187 116.273 L 191.200 113.546 189.999 114.401 C 188.522 115.453,187.133 117.783,188.479 116.951 C 188.743 116.788,188.594 117.273,188.149 118.027 C 187.454 119.208,187.148 119.388,185.969 119.313 C 184.802 119.239,184.453 119.437,183.623 120.648 C 183.087 121.430,181.910 122.676,181.006 123.416 C 180.103 124.156,179.117 125.392,178.815 126.163 C 178.512 126.933,178.116 127.472,177.934 127.359 C 177.411 127.036,175.951 126.808,174.000 126.745 C 171.679 126.669,169.709 125.266,167.546 122.149 C 166.650 120.857,165.494 119.349,164.978 118.799 C 164.462 118.248,163.477 116.558,162.790 115.043 C 161.274 111.699,160.276 110.239,158.267 108.428 C 157.423 107.667,156.203 105.995,155.555 104.711 C 154.907 103.427,153.765 101.699,153.017 100.871 C 152.269 100.044,150.929 97.842,150.039 95.978 C 148.691 93.154,147.853 92.041,145.011 89.303 C 143.135 87.495,141.600 85.756,141.600 85.437 C 141.600 85.119,140.720 84.170,139.644 83.329 C 138.568 82.488,137.108 80.957,136.400 79.928 C 135.692 78.898,134.097 77.382,132.856 76.559 C 129.056 74.038,124.800 69.223,124.800 67.444 C 124.800 64.750,123.001 61.527,119.500 57.948 C 117.575 55.981,116.000 54.232,116.000 54.063 C 116.000 53.893,114.834 52.898,113.409 51.852 C 111.984 50.806,110.499 49.551,110.109 49.063 C 108.907 47.559,106.799 46.196,101.680 43.609 C 96.456 40.971,92.898 37.996,91.748 35.307 C 91.373 34.431,90.841 33.939,90.098 33.783 C 89.494 33.655,88.459 33.316,87.798 33.029 C 87.138 32.742,85.999 32.376,85.269 32.215 C 84.539 32.055,82.740 31.013,81.271 29.901 C 79.802 28.788,77.970 27.613,77.200 27.289 C 75.193 26.445,69.546 24.818,68.589 24.808 C 68.143 24.804,67.423 24.553,66.989 24.252 C 64.877 22.783,60.362 21.600,56.876 21.601 C 53.220 21.602,50.025 21.025,44.400 19.348 C 41.375 18.446,38.183 17.757,30.776 16.406 C 28.697 16.027,24.886 15.977,20.200 16.269 M67.269 96.468 L 68.830 96.936 67.590 98.068 C 66.908 98.691,66.176 99.200,65.962 99.200 C 65.200 99.200,62.991 98.113,62.465 97.478 C 61.898 96.795,61.792 96.856,64.600 96.262 C 65.040 96.169,65.469 96.072,65.554 96.046 C 65.638 96.021,66.410 96.211,67.269 96.468 M78.610 103.985 C 78.402 104.320,78.176 104.312,77.745 103.955 C 77.279 103.567,77.265 103.407,77.678 103.152 C 78.314 102.758,78.993 103.365,78.610 103.985 M208.803 117.973 C 208.188 122.997,208.305 123.200,211.816 123.200 C 214.651 123.200,215.013 122.851,214.095 121.000 C 213.570 119.942,210.364 115.154,209.588 114.269 C 209.428 114.087,209.075 115.754,208.803 117.973 M188.400 119.400 C 188.117 119.741,187.796 119.929,187.686 119.819 C 187.576 119.709,187.717 119.341,188.000 119.000 C 188.283 118.659,188.604 118.471,188.714 118.581 C 188.824 118.691,188.683 119.059,188.400 119.400 M215.300 123.487 C 214.641 123.724,214.624 128.464,215.280 129.120 C 216.327 130.167,220.000 129.301,220.000 128.008 C 220.000 126.581,216.381 123.100,215.300 123.487 M221.641 136.535 C 221.398 137.927,221.200 139.636,221.200 140.333 L 221.200 141.600 223.452 141.600 L 225.703 141.600 225.436 139.584 C 225.061 136.758,224.631 135.819,223.269 134.849 L 222.082 134.004 221.641 136.535 M172.263 153.470 C 172.159 153.575,171.603 153.602,171.028 153.530 L 169.982 153.400 171.091 151.800 L 172.200 150.200 172.327 151.740 C 172.396 152.587,172.368 153.366,172.263 153.470 M227.698 153.300 C 227.789 153.575,228.299 153.859,228.831 153.931 C 229.780 154.060,229.784 154.050,229.000 153.444 C 228.024 152.689,227.477 152.629,227.698 153.300 M233.821 162.903 C 233.426 166.292,233.770 166.800,236.458 166.800 L 238.418 166.800 237.738 165.700 C 237.364 165.095,236.476 163.970,235.766 163.200 C 235.056 162.430,234.399 161.440,234.306 161.000 C 234.213 160.560,233.995 161.416,233.821 162.903 M165.864 165.870 C 165.085 166.648,164.424 165.735,165.089 164.800 L 165.800 163.800 165.932 164.734 C 166.005 165.248,165.974 165.759,165.864 165.870 M240.630 172.199 C 240.907 173.615,240.998 173.734,241.629 173.524 C 241.975 173.408,241.944 173.202,241.518 172.775 C 241.194 172.451,240.809 171.919,240.662 171.593 C 240.515 171.267,240.501 171.540,240.630 172.199 M149.670 178.998 C 150.160 179.621,151.033 180.092,151.978 180.243 C 153.464 180.480,153.504 180.533,153.737 182.501 C 154.053 185.167,154.015 185.200,150.619 185.200 C 147.051 185.200,147.200 184.930,147.200 191.409 C 147.200 194.273,147.032 196.457,146.800 196.600 C 146.580 196.736,146.395 196.612,146.388 196.324 C 146.380 196.000,146.220 196.068,145.968 196.500 C 145.737 196.896,145.086 197.200,144.469 197.200 C 142.325 197.200,141.600 198.158,141.600 200.990 C 141.600 204.588,141.465 204.800,139.186 204.800 C 136.125 204.800,135.600 205.763,135.600 211.377 C 135.600 216.768,135.439 217.055,132.280 217.294 C 129.540 217.501,128.896 218.029,128.464 220.422 L 128.144 222.200 127.672 220.080 C 127.082 217.429,127.079 215.858,127.659 211.711 L 128.118 208.422 131.284 204.911 C 133.025 202.980,134.983 200.470,135.635 199.334 C 136.287 198.197,137.857 196.307,139.124 195.134 C 140.454 193.901,142.316 191.528,143.531 189.515 C 144.689 187.598,146.081 185.680,146.626 185.251 C 147.171 184.823,147.428 184.409,147.197 184.332 C 146.744 184.181,145.612 180.345,145.605 178.933 C 145.596 177.271,148.346 177.315,149.670 178.998 M245.893 181.037 C 246.168 185.652,246.360 186.000,248.640 186.000 C 249.637 186.000,250.794 186.183,251.212 186.407 C 252.009 186.833,248.772 181.320,246.740 178.792 L 245.681 177.473 245.893 181.037 M103.600 186.009 L 103.600 188.018 102.590 187.356 C 102.034 186.992,101.220 186.190,100.782 185.575 L 99.984 184.455 101.092 184.287 C 103.665 183.898,103.600 183.854,103.600 186.009 M252.537 189.290 C 252.676 189.846,252.604 191.784,252.377 193.598 C 251.896 197.433,252.344 198.400,254.602 198.400 C 258.360 198.400,258.478 198.659,258.906 207.797 L 259.000 209.794 260.938 210.069 C 263.441 210.425,264.307 211.247,264.603 213.546 C 264.983 216.499,265.714 217.802,267.050 217.910 C 269.883 218.137,270.700 219.663,270.760 224.838 C 270.807 228.855,271.289 229.600,273.842 229.600 C 277.133 229.600,278.053 231.877,277.234 238.000 C 276.799 241.254,277.123 241.997,278.976 242.002 C 282.988 242.013,283.766 243.219,283.667 249.271 C 283.580 254.575,283.337 254.216,287.394 254.767 L 289.505 255.053 288.118 251.627 C 287.354 249.742,286.354 247.480,285.894 246.600 C 284.740 244.390,284.650 244.203,283.042 240.678 C 282.259 238.961,280.826 236.531,279.858 235.278 C 278.792 233.898,277.819 232.054,277.392 230.600 C 276.676 228.164,274.310 223.439,273.581 222.988 C 273.362 222.853,272.585 221.540,271.855 220.071 C 271.125 218.602,270.094 216.741,269.564 215.935 C 267.852 213.332,264.141 207.437,263.374 206.100 C 262.963 205.385,262.486 204.800,262.314 204.800 C 262.141 204.800,262.000 204.587,262.000 204.326 C 262.000 204.065,261.648 203.477,261.218 203.019 C 260.189 201.924,258.401 198.540,258.396 197.679 C 258.390 196.610,256.187 193.042,254.623 191.566 C 253.840 190.828,253.200 189.914,253.200 189.536 C 253.200 189.157,252.994 188.720,252.742 188.564 C 252.422 188.366,252.360 188.585,252.537 189.290 M110.186 190.384 C 110.929 191.206,110.846 192.980,109.956 195.250 C 109.568 196.240,109.455 196.278,108.004 195.910 C 104.635 195.055,102.962 190.862,105.600 189.885 C 107.054 189.347,109.487 189.612,110.186 190.384 M198.503 201.895 C 199.046 202.482,200.029 202.886,201.365 203.069 L 203.400 203.349 202.000 203.721 C 201.230 203.926,200.033 204.343,199.340 204.647 C 196.850 205.739,196.795 205.656,196.848 200.900 C 196.893 196.796,196.913 196.700,197.286 198.800 C 197.501 200.010,198.049 201.403,198.503 201.895 M122.561 209.138 C 123.259 210.267,122.293 212.340,121.252 211.946 C 119.446 211.264,117.816 209.482,118.685 209.139 C 119.702 208.737,122.313 208.736,122.561 209.138 M193.061 209.200 C 194.040 209.200,194.032 209.228,192.528 210.962 L 191.000 212.725 190.751 211.062 C 190.464 209.152,190.637 208.652,191.473 208.973 C 191.799 209.098,192.513 209.200,193.061 209.200 M180.400 228.216 C 180.400 228.671,178.792 231.558,178.406 231.796 C 178.152 231.953,178.000 231.290,178.000 230.024 C 178.000 228.042,178.025 228.000,179.200 228.000 C 179.860 228.000,180.400 228.097,180.400 228.216 M174.390 240.634 L 176.181 240.876 174.914 241.409 C 173.218 242.122,172.691 244.158,172.853 249.376 C 173.002 254.137,172.884 254.400,170.599 254.400 C 167.852 254.400,166.906 255.492,166.353 259.300 C 166.105 261.005,165.717 262.400,165.489 262.400 C 164.894 262.400,162.400 264.367,162.400 264.837 C 162.400 265.054,162.025 265.739,161.567 266.359 C 161.031 267.084,160.655 268.359,160.512 269.939 C 160.390 271.289,160.076 272.571,159.814 272.788 C 159.136 273.351,156.800 272.400,156.800 271.561 C 156.800 270.258,155.577 268.004,154.498 267.317 C 153.894 266.933,153.262 266.434,153.093 266.209 C 152.545 265.481,153.254 261.841,154.185 260.600 C 154.680 259.940,155.221 258.950,155.388 258.400 C 156.404 255.053,157.284 253.644,158.437 253.522 L 159.594 253.400 158.166 252.427 C 157.124 251.718,156.657 251.585,156.439 251.936 C 156.211 252.306,155.815 252.282,154.735 251.830 C 153.633 251.370,152.771 251.323,150.764 251.613 C 149.354 251.817,148.071 251.988,147.913 251.992 C 147.754 251.996,147.729 252.270,147.855 252.600 C 148.001 252.980,147.850 253.200,147.443 253.200 C 146.955 253.200,146.798 252.791,146.790 251.500 C 146.767 247.240,145.677 245.462,142.035 243.739 C 140.818 243.163,139.308 242.313,138.680 241.848 L 137.539 241.004 139.187 240.602 C 140.936 240.175,171.199 240.202,174.390 240.634 M296.648 270.305 C 296.333 272.597,296.588 272.863,298.746 272.494 L 300.465 272.200 299.433 271.000 C 298.865 270.340,298.401 269.708,298.400 269.596 C 298.397 268.092,296.866 268.712,296.648 270.305 M209.133 291.003 C 209.455 291.317,206.995 293.600,206.334 293.600 C 205.930 293.600,205.600 293.780,205.600 294.000 C 205.600 294.223,204.519 294.400,203.158 294.400 C 201.814 294.400,199.699 294.660,198.458 294.978 C 197.216 295.296,194.130 295.854,191.600 296.218 C 189.070 296.582,186.730 297.107,186.400 297.384 C 186.070 297.662,184.360 298.105,182.600 298.370 C 180.840 298.635,179.091 298.940,178.713 299.048 C 178.230 299.187,177.952 298.948,177.774 298.241 C 177.491 297.112,175.653 295.567,173.545 294.686 C 172.772 294.363,171.565 293.402,170.861 292.550 L 169.583 291.000 170.491 290.711 C 171.345 290.440,208.847 290.723,209.133 291.003 M258.923 359.112 L 260.045 359.416 258.826 360.318 C 256.238 362.231,253.150 362.274,249.001 360.454 L 246.602 359.402 249.201 358.925 C 251.807 358.447,256.821 358.544,258.923 359.112 " stroke="none" fill="#791ac2" fill-rule="evenodd"></path><path id="path4" d="M0.000 9.600 L 0.000 19.200 2.226 19.200 C 3.451 19.200,6.016 18.852,7.926 18.427 C 18.036 16.178,25.466 15.504,30.530 16.378 C 37.032 17.500,41.184 18.389,44.400 19.348 C 50.025 21.025,53.220 21.602,56.876 21.601 C 60.362 21.600,64.877 22.783,66.989 24.252 C 67.423 24.553,68.143 24.804,68.589 24.808 C 69.546 24.818,75.193 26.445,77.200 27.289 C 77.970 27.613,79.802 28.788,81.271 29.901 C 82.740 31.013,84.539 32.055,85.269 32.215 C 85.999 32.376,87.138 32.742,87.798 33.029 C 88.459 33.316,89.494 33.655,90.098 33.783 C 90.841 33.939,91.373 34.431,91.748 35.307 C 92.898 37.996,96.456 40.971,101.680 43.609 C 106.799 46.196,108.907 47.559,110.109 49.063 C 110.499 49.551,111.984 50.806,113.409 51.852 C 114.834 52.898,116.000 53.893,116.000 54.063 C 116.000 54.232,117.575 55.981,119.500 57.948 C 123.001 61.527,124.800 64.750,124.800 67.444 C 124.800 69.223,129.056 74.038,132.856 76.559 C 134.097 77.382,135.692 78.898,136.400 79.928 C 137.108 80.957,138.568 82.488,139.644 83.329 C 140.720 84.170,141.600 85.119,141.600 85.437 C 141.600 85.756,143.135 87.495,145.011 89.303 C 147.853 92.041,148.691 93.154,150.039 95.978 C 150.929 97.842,152.269 100.044,153.017 100.871 C 153.765 101.699,154.907 103.427,155.555 104.711 C 156.203 105.995,157.423 107.667,158.267 108.428 C 160.276 110.239,161.274 111.699,162.790 115.043 C 163.477 116.558,164.462 118.248,164.978 118.799 C 165.494 119.349,166.650 120.857,167.546 122.149 C 169.709 125.266,171.679 126.669,174.000 126.745 C 175.951 126.808,177.411 127.036,177.934 127.359 C 178.116 127.472,178.512 126.933,178.815 126.163 C 179.117 125.392,180.103 124.156,181.006 123.416 C 181.910 122.676,183.087 121.430,183.623 120.648 C 184.453 119.437,184.802 119.239,185.969 119.313 C 187.148 119.388,187.454 119.208,188.149 118.027 C 188.594 117.273,188.743 116.788,188.479 116.951 C 187.133 117.783,188.522 115.453,189.999 114.401 L 191.200 113.546 191.187 116.273 C 191.176 118.699,191.067 119.079,190.195 119.713 C 189.255 120.397,189.224 120.397,189.441 119.713 C 189.606 119.192,189.438 119.260,188.816 119.966 C 188.321 120.528,188.131 121.034,188.362 121.176 C 188.863 121.486,188.415 122.179,187.494 122.519 C 186.577 122.857,186.000 124.420,186.000 126.564 C 186.000 128.787,185.232 129.433,182.243 129.724 C 178.837 130.056,178.341 131.605,179.304 138.903 L 179.608 141.207 177.432 142.169 C 174.222 143.589,173.023 147.368,174.242 152.226 C 174.570 153.533,173.411 155.030,171.476 155.797 C 168.118 157.129,167.600 158.012,167.600 162.413 C 167.600 166.781,167.518 166.928,164.308 168.325 C 162.675 169.035,162.265 169.466,161.308 171.474 C 160.486 173.199,159.839 173.978,158.800 174.491 C 156.091 175.828,155.600 176.803,155.600 180.849 C 155.600 185.171,155.355 185.705,152.771 187.015 C 150.123 188.357,149.364 189.703,149.018 193.675 C 148.660 197.775,148.636 197.828,146.612 199.014 C 144.195 200.431,143.131 202.140,141.450 207.306 C 141.324 207.694,140.791 208.175,140.266 208.375 C 139.207 208.778,138.175 210.969,137.588 214.062 C 137.094 216.668,136.225 217.873,134.038 218.982 C 131.752 220.141,131.234 220.736,129.625 224.052 C 128.533 226.301,128.100 226.796,126.768 227.320 C 122.863 228.854,122.190 237.828,125.876 239.229 C 127.421 239.816,134.692 239.661,138.200 238.965 C 140.943 238.422,143.583 238.369,156.690 238.600 C 176.544 238.949,176.756 238.873,176.288 231.637 C 176.036 227.760,176.637 226.555,179.200 225.792 C 180.531 225.397,182.400 224.057,182.400 223.499 C 182.400 222.254,184.237 219.460,185.636 218.577 C 187.622 217.324,188.253 216.047,188.590 212.600 C 188.975 208.669,188.989 208.642,191.240 207.417 C 193.970 205.931,194.633 204.704,194.974 200.505 C 195.394 195.326,195.894 194.798,199.407 195.819 C 202.792 196.803,203.431 197.531,204.810 201.969 C 206.069 206.021,206.686 206.911,209.200 208.294 L 210.600 209.065 210.800 213.106 C 211.032 217.788,211.651 219.013,214.284 220.000 C 216.482 220.824,217.128 221.446,217.598 223.193 C 218.087 225.008,219.650 226.660,221.202 227.000 C 222.974 227.390,223.098 227.780,223.611 234.564 L 224.091 240.928 223.146 241.692 C 222.252 242.414,221.645 242.443,212.062 242.214 C 206.487 242.081,196.417 242.098,189.686 242.251 L 177.446 242.530 176.023 243.834 L 174.600 245.139 174.577 249.270 C 174.549 254.277,174.439 254.545,171.803 256.033 C 168.746 257.758,168.362 258.344,167.738 262.242 C 167.084 266.326,167.169 266.157,165.128 267.445 C 163.921 268.207,163.241 269.081,162.386 270.967 C 161.156 273.679,159.894 274.800,158.068 274.800 C 153.191 274.800,153.189 286.528,158.066 288.871 C 159.805 289.706,165.179 289.890,168.800 289.237 C 171.655 288.723,184.849 288.776,240.600 289.525 C 258.420 289.765,279.360 290.015,287.133 290.080 L 301.266 290.200 302.033 289.256 C 302.706 288.427,302.800 287.637,302.800 282.806 C 302.800 274.701,302.769 274.786,305.683 274.852 C 307.290 274.889,308.134 275.084,308.276 275.453 C 308.391 275.754,308.708 276.000,308.981 276.000 C 311.054 276.000,311.205 278.998,309.406 284.426 C 308.864 286.062,308.416 287.639,308.410 287.931 C 308.381 289.420,302.545 296.248,300.962 296.645 L 299.963 296.896 300.938 297.402 C 302.692 298.311,305.575 298.530,314.078 298.396 C 316.018 298.366,316.374 298.099,318.444 295.125 C 318.798 294.616,319.788 293.956,320.644 293.658 C 322.619 292.969,324.794 291.541,324.797 290.931 C 324.803 290.023,327.261 288.014,328.921 287.562 C 333.556 286.300,334.708 285.782,336.546 284.137 C 337.859 282.961,338.998 282.314,340.046 282.146 C 341.662 281.888,343.302 280.365,345.008 277.539 C 345.584 276.586,346.447 275.952,348.008 275.335 C 349.604 274.705,350.541 274.007,351.453 272.766 C 352.174 271.785,353.529 270.644,354.648 270.075 C 355.855 269.462,358.515 267.151,361.680 263.965 C 365.745 259.873,367.057 258.788,368.195 258.575 C 372.413 257.783,375.452 254.353,376.537 249.158 C 377.048 246.712,377.739 245.601,378.749 245.599 C 380.077 245.595,382.017 243.980,382.902 242.142 C 383.396 241.115,384.070 240.152,384.400 240.002 C 388.270 238.245,388.245 238.270,390.002 234.400 C 390.152 234.070,391.115 233.396,392.142 232.902 C 393.973 232.021,395.595 230.078,395.599 228.762 C 395.601 227.713,396.966 226.800,398.531 226.800 L 400.000 226.800 400.000 200.745 L 400.000 174.690 397.500 174.942 C 391.978 175.497,391.161 175.772,389.629 177.592 C 388.843 178.525,386.923 180.574,385.362 182.144 C 383.802 183.715,382.144 185.639,381.679 186.420 C 381.214 187.201,379.996 188.442,378.973 189.177 C 376.932 190.642,376.230 191.946,375.815 195.043 C 375.467 197.638,374.450 199.306,372.443 200.573 C 371.571 201.124,370.529 202.059,370.128 202.652 C 368.943 204.407,366.673 206.530,364.836 207.600 C 363.814 208.196,362.811 209.204,362.355 210.095 C 361.871 211.040,360.992 211.894,359.966 212.417 C 358.835 212.994,357.866 213.997,356.773 215.723 C 355.880 217.132,354.469 218.697,353.501 219.352 C 352.566 219.985,351.145 221.351,350.344 222.388 C 349.476 223.512,348.103 224.662,346.944 225.236 C 345.347 226.028,344.812 226.587,343.945 228.366 C 343.364 229.557,341.981 231.480,340.870 232.638 C 339.034 234.553,338.788 235.038,338.157 237.975 C 337.467 241.186,337.446 241.220,334.731 243.633 C 333.229 244.968,332.000 246.303,332.000 246.600 C 332.000 247.481,330.010 249.579,328.387 250.406 C 326.246 251.499,325.350 252.833,324.850 255.673 C 324.207 259.322,321.499 261.837,317.414 262.580 C 315.277 262.969,313.918 264.011,312.800 266.118 C 311.271 269.000,309.991 269.614,306.400 269.190 C 304.750 268.995,302.097 268.827,300.504 268.818 C 297.269 268.798,297.353 268.523,299.734 271.334 C 300.466 272.198,300.463 272.201,298.777 272.489 C 296.521 272.874,296.358 272.702,296.646 270.244 C 296.875 268.303,296.799 268.026,295.701 266.768 C 295.045 266.015,294.386 265.009,294.237 264.531 C 294.088 264.053,293.276 263.039,292.434 262.278 C 291.136 261.105,290.835 260.515,290.463 258.403 C 289.936 255.410,289.495 254.801,287.851 254.798 C 287.163 254.797,285.923 254.607,285.095 254.378 L 283.590 253.960 283.667 249.280 C 283.766 243.218,282.990 242.013,278.976 242.002 C 277.123 241.997,276.799 241.254,277.234 238.000 C 278.058 231.835,277.138 229.600,273.773 229.600 C 271.290 229.600,270.808 228.827,270.760 224.769 C 270.700 219.667,269.871 218.136,267.050 217.910 C 265.714 217.802,264.983 216.499,264.603 213.546 C 264.307 211.247,263.441 210.425,260.938 210.069 L 259.000 209.794 258.906 207.797 C 258.478 198.659,258.360 198.400,254.602 198.400 C 252.341 198.400,251.900 197.439,252.372 193.549 C 253.072 187.793,252.209 186.000,248.738 186.000 C 246.321 186.000,246.180 185.734,245.855 180.533 C 245.524 175.247,244.526 173.600,241.653 173.600 C 241.184 173.600,240.799 173.555,240.798 173.500 C 240.693 168.969,239.339 166.800,236.614 166.800 C 233.861 166.800,233.800 166.687,233.800 161.600 C 233.800 155.725,232.981 154.455,228.852 153.922 C 227.929 153.803,227.898 153.678,227.725 149.250 C 227.627 146.748,227.334 144.048,227.073 143.250 L 226.599 141.800 223.900 141.682 L 221.200 141.563 221.200 140.314 C 221.200 139.628,221.398 137.927,221.641 136.535 L 222.082 134.004 223.272 134.851 C 223.927 135.317,224.633 136.082,224.841 136.549 C 225.107 137.147,225.163 136.602,225.027 134.722 C 224.807 131.669,224.509 131.069,222.379 129.400 C 221.536 128.740,220.730 127.930,220.586 127.600 C 219.981 126.208,219.256 122.810,219.006 120.200 C 218.588 115.832,218.188 114.964,215.771 113.178 C 212.780 110.969,212.274 109.849,212.594 106.154 C 212.894 102.706,212.121 100.646,209.527 97.972 C 207.700 96.090,206.602 92.770,206.197 87.898 C 205.915 84.521,205.856 84.357,204.518 83.298 C 201.696 81.064,200.047 79.320,199.861 78.373 C 198.767 72.798,198.699 72.633,196.781 70.800 C 194.578 68.694,193.865 67.407,193.239 64.400 C 192.510 60.897,191.580 58.400,191.003 58.400 C 190.124 58.400,188.517 56.162,187.781 53.912 C 186.743 50.739,185.826 49.132,184.273 47.765 C 182.980 46.627,181.600 43.490,181.600 41.689 C 181.600 40.589,179.905 38.765,177.972 37.786 C 175.088 36.325,174.754 35.602,174.850 31.026 C 174.940 26.696,174.899 26.611,172.000 25.092 C 170.840 24.484,169.739 23.447,168.902 22.174 C 168.055 20.886,166.887 19.792,165.541 19.027 C 164.376 18.365,163.201 17.323,162.840 16.633 C 162.132 15.282,159.903 12.929,158.449 12.000 C 157.933 11.670,157.096 10.753,156.589 9.961 C 156.082 9.170,154.662 7.855,153.432 7.039 C 150.889 5.351,150.000 3.947,150.000 1.620 L 150.000 0.000 75.000 0.000 L 0.000 0.000 0.000 9.600 M200.906 112.795 C 204.584 112.803,205.981 114.323,206.244 118.600 C 206.455 122.038,207.267 124.240,208.461 124.619 C 209.856 125.062,211.638 126.901,212.659 128.952 C 213.220 130.078,214.628 131.900,215.788 133.000 C 217.853 134.958,217.906 135.066,218.349 138.200 C 218.840 141.672,218.531 141.230,223.196 145.146 L 224.800 146.493 224.800 150.266 C 224.800 154.790,226.349 158.400,228.290 158.400 C 228.982 158.400,229.859 160.470,230.538 163.704 C 231.255 167.117,231.675 167.763,234.313 169.508 C 236.519 170.967,236.643 171.143,237.800 174.492 C 238.562 176.697,239.457 178.445,240.252 179.282 C 240.941 180.007,242.225 182.134,243.105 184.009 C 244.453 186.880,245.045 187.670,246.853 189.019 L 249.000 190.620 249.418 194.010 C 249.914 198.030,250.366 198.851,252.966 200.458 C 256.055 202.368,256.371 202.928,256.387 206.516 L 256.400 209.632 259.400 212.613 C 261.358 214.558,262.401 215.907,262.404 216.497 C 262.410 217.882,264.101 221.178,265.941 223.390 C 266.851 224.484,267.877 226.228,268.222 227.265 C 268.797 228.997,271.413 232.000,272.347 232.000 C 273.914 232.000,274.800 234.132,274.800 237.902 L 274.800 241.694 276.366 243.147 C 277.227 243.946,278.577 245.113,279.366 245.739 L 280.800 246.879 280.803 250.139 C 280.806 254.137,281.278 254.977,284.839 257.317 L 287.400 259.000 287.729 262.379 C 288.075 265.939,288.747 267.401,290.466 268.337 C 291.368 268.828,292.243 269.890,294.112 272.765 C 294.601 273.516,295.856 274.596,296.901 275.165 C 299.898 276.796,300.184 277.446,299.589 281.273 C 298.516 288.165,305.213 287.569,228.711 287.586 C 151.544 287.603,158.741 288.246,157.330 281.209 L 156.662 277.881 158.088 276.641 C 158.873 275.958,160.119 275.037,160.857 274.593 C 161.605 274.144,162.670 272.918,163.260 271.828 C 163.842 270.751,165.254 269.045,166.396 268.035 L 168.473 266.200 168.948 262.603 L 169.422 259.006 171.786 257.393 C 175.252 255.029,175.704 254.125,175.408 250.147 L 175.166 246.893 176.530 245.447 L 177.894 244.000 200.047 243.999 C 228.016 243.997,225.480 245.019,225.094 233.902 C 224.855 227.017,224.398 225.761,221.831 224.946 C 220.825 224.627,220.279 223.968,218.993 221.518 C 218.329 220.254,217.433 219.301,216.261 218.615 C 213.418 216.948,213.139 216.449,212.898 212.580 C 212.666 208.863,212.263 208.109,209.693 206.591 C 207.968 205.572,206.954 203.716,206.204 200.200 C 205.289 195.912,204.511 195.113,200.389 194.222 C 195.399 193.144,193.910 194.457,193.395 200.390 C 193.078 204.045,192.836 204.435,189.207 207.160 C 187.815 208.205,187.625 208.577,186.581 212.288 C 186.086 214.046,185.337 215.419,184.026 216.969 C 183.006 218.176,181.844 220.073,181.444 221.185 C 180.714 223.216,179.233 224.800,178.065 224.800 C 177.720 224.800,176.845 225.375,176.119 226.078 L 174.800 227.357 174.800 231.466 C 174.800 237.779,176.790 237.253,152.761 237.296 C 124.756 237.348,123.905 237.123,128.626 230.939 C 129.433 229.882,130.437 227.705,131.140 225.489 C 132.204 222.133,132.467 221.686,134.055 220.532 C 137.016 218.382,137.930 217.246,138.611 214.872 C 139.296 212.483,140.568 210.037,141.944 208.459 C 142.396 207.941,143.062 206.681,143.425 205.659 C 144.501 202.625,144.929 201.929,146.385 200.838 C 149.984 198.140,150.400 197.435,150.400 194.030 C 150.400 190.610,150.958 189.566,153.486 188.259 C 156.061 186.927,157.049 185.227,157.351 181.605 C 157.652 177.998,158.051 177.167,160.282 175.495 C 161.093 174.887,162.216 173.540,162.778 172.502 C 163.349 171.448,164.402 170.257,165.162 169.807 C 168.308 167.944,169.200 166.694,169.204 164.140 C 169.213 159.495,169.442 158.954,172.080 157.351 C 174.984 155.587,175.328 154.814,175.225 150.281 L 175.144 146.761 176.746 145.281 C 177.628 144.466,179.080 143.194,179.974 142.454 L 181.600 141.107 181.600 137.616 C 181.600 133.715,181.594 133.725,185.102 131.431 C 186.300 130.648,187.370 129.505,188.005 128.332 C 189.147 126.219,190.319 124.810,190.962 124.778 C 192.264 124.712,193.292 122.352,193.505 118.937 C 193.752 114.967,195.687 112.009,197.686 112.544 C 198.189 112.679,199.638 112.792,200.906 112.795 M211.689 117.200 C 215.417 122.553,215.431 123.200,211.816 123.200 C 208.305 123.200,208.188 122.997,208.803 117.973 C 209.075 115.754,209.428 114.087,209.588 114.269 C 209.748 114.451,210.693 115.770,211.689 117.200 M188.000 119.000 C 187.717 119.341,187.576 119.709,187.686 119.819 C 187.796 119.929,188.117 119.741,188.400 119.400 C 188.683 119.059,188.824 118.691,188.714 118.581 C 188.604 118.471,188.283 118.659,188.000 119.000 M218.565 125.667 C 220.263 127.651,220.365 128.505,218.981 129.136 C 216.094 130.451,214.800 129.528,214.800 126.153 C 214.800 122.597,215.824 122.465,218.565 125.667 M58.800 158.525 C 54.950 158.744,40.145 158.899,25.900 158.869 L -0.000 158.816 -0.000 160.672 L 0.000 162.527 8.813 162.262 C 13.660 162.117,21.525 161.715,26.290 161.371 C 36.967 160.598,39.421 160.738,47.000 162.546 C 53.721 164.149,62.352 165.200,68.803 165.200 C 73.495 165.200,73.553 165.226,74.433 167.711 C 75.145 169.720,79.849 171.991,83.313 171.998 C 84.022 171.999,84.504 172.254,84.642 172.700 C 85.592 175.770,87.005 176.975,89.996 177.265 L 91.391 177.400 91.731 175.269 C 92.229 172.145,91.902 171.287,90.097 170.983 C 89.274 170.844,88.312 170.652,87.961 170.557 C 87.126 170.332,86.400 168.700,86.400 167.051 C 86.400 164.486,85.132 163.889,81.171 164.589 C 74.623 165.747,74.000 165.500,74.000 161.743 C 74.000 157.655,74.024 157.660,58.800 158.525 M101.092 184.287 L 99.984 184.455 100.782 185.575 C 101.220 186.190,102.034 186.992,102.590 187.356 L 103.600 188.018 103.600 186.009 C 103.600 183.854,103.665 183.898,101.092 184.287 M105.600 189.885 C 102.962 190.862,104.635 195.055,108.004 195.910 C 109.728 196.347,110.066 195.932,110.631 192.684 C 111.073 190.148,108.602 188.774,105.600 189.885 M118.685 209.139 C 117.816 209.482,119.446 211.264,121.252 211.946 C 122.293 212.340,123.259 210.267,122.561 209.138 C 122.313 208.736,119.702 208.737,118.685 209.139 M395.683 294.700 C 394.975 295.305,394.062 296.502,393.653 297.360 C 393.182 298.350,392.136 299.446,390.789 300.360 C 389.400 301.303,388.326 302.444,387.673 303.667 C 386.994 304.942,386.222 305.742,385.239 306.190 C 383.188 307.126,381.735 308.502,381.039 310.170 C 380.587 311.249,379.995 311.802,378.692 312.361 C 376.582 313.265,374.800 315.271,374.800 316.742 C 374.800 318.000,373.797 319.600,373.008 319.600 C 372.267 319.600,370.000 321.546,370.000 322.182 C 370.000 323.222,368.343 324.775,366.953 325.035 C 364.760 325.447,362.943 327.571,362.710 329.997 C 362.447 332.729,361.952 333.193,359.251 333.235 C 354.201 333.314,353.075 333.650,352.293 335.314 C 351.527 336.942,350.356 337.600,348.225 337.600 C 347.264 337.600,346.441 338.010,345.213 339.100 C 343.488 340.631,343.476 340.663,343.218 344.891 C 343.141 346.141,341.203 346.436,339.523 345.453 C 335.103 342.869,331.200 344.159,331.200 348.205 C 331.200 352.334,329.642 353.415,326.327 351.587 C 323.829 350.210,322.128 350.102,320.084 351.191 C 317.117 352.772,317.000 352.960,317.000 356.118 C 317.000 358.765,316.935 358.992,316.200 358.905 C 315.760 358.853,312.610 358.455,309.200 358.020 C 300.290 356.885,294.537 357.193,289.712 359.064 L 288.823 359.409 289.819 361.078 C 291.687 364.212,297.931 365.436,309.500 364.938 C 315.016 364.701,315.600 364.739,315.600 365.338 C 315.600 365.899,316.089 366.000,318.800 366.000 L 322.000 366.000 322.000 369.200 L 322.000 372.400 325.000 372.400 L 328.000 372.400 328.000 375.400 L 328.000 378.400 331.600 378.400 L 335.200 378.400 335.200 375.400 L 335.200 372.400 344.400 372.400 L 353.600 372.400 353.600 369.200 L 353.600 366.000 359.800 366.000 L 366.000 366.000 366.000 362.800 L 366.000 359.600 369.200 359.600 L 372.400 359.600 372.400 356.600 L 372.400 353.600 375.400 353.600 L 378.400 353.600 378.400 350.400 L 378.400 347.200 381.600 347.200 L 384.800 347.200 384.800 344.151 L 384.800 341.103 389.900 341.217 C 392.705 341.280,396.125 341.302,397.500 341.266 L 400.000 341.200 400.000 317.400 L 400.000 293.600 398.485 293.600 C 397.411 293.600,396.595 293.920,395.683 294.700 M249.201 358.925 L 246.602 359.402 249.001 360.454 C 253.150 362.274,256.238 362.231,258.826 360.318 L 260.045 359.416 258.923 359.112 C 256.821 358.544,251.807 358.447,249.201 358.925 " stroke="none" fill="#b520d4" fill-rule="evenodd"></path></g></svg>