<svg id="svg" version="1.1" xmlns="http://www.w3.org/2000/svg" xmlns:xlink="http://www.w3.org/1999/xlink" width="400" height="400" viewBox="0, 0, 400,400"><g id="svgg"><path id="path0" d="M121.137 150.210 C 118.182 151.815,118.506 145.248,117.867 216.400 C 117.792 224.698,118.526 227.484,121.201 229.064 C 121.833 229.438,122.857 230.656,123.475 231.772 L 124.600 233.800 124.800 243.534 L 125.000 253.267 126.279 254.409 C 128.084 256.021,129.855 256.440,135.910 256.688 C 141.967 256.936,141.889 256.967,144.181 253.400 C 145.681 251.065,146.360 250.676,150.428 249.817 C 153.122 249.248,153.651 248.978,155.228 247.363 C 156.202 246.365,157.990 244.941,159.200 244.199 C 163.392 241.628,164.503 235.846,161.445 232.510 L 160.091 231.032 153.468 231.149 C 141.167 231.365,138.302 228.566,138.074 216.112 L 137.949 209.224 139.474 207.627 L 141.000 206.030 144.058 206.488 C 149.569 207.315,150.508 206.011,150.732 197.223 L 150.891 190.970 149.802 189.676 C 147.309 186.712,146.223 187.044,143.151 191.711 L 141.039 194.921 139.474 193.161 L 137.910 191.400 138.180 181.600 L 138.451 171.800 139.925 170.492 C 140.736 169.773,142.075 168.587,142.900 167.856 L 144.400 166.528 144.397 159.964 C 144.395 152.840,144.241 152.249,141.928 150.429 C 140.560 149.353,123.054 149.168,121.137 150.210 M221.495 170.451 C 220.001 171.287,219.844 172.393,221.042 173.644 L 222.156 174.806 223.473 173.529 C 225.125 171.928,223.467 169.347,221.495 170.451 M77.907 174.024 C 77.664 176.551,77.533 176.676,74.443 177.301 C 71.929 177.810,71.911 177.823,71.187 179.729 C 70.210 182.305,69.763 182.764,67.956 183.053 C 65.871 183.387,65.299 183.882,64.060 186.424 C 63.134 188.326,62.773 188.676,61.200 189.205 C 58.716 190.041,58.526 190.205,58.235 191.755 C 57.881 193.642,56.661 195.054,54.894 195.623 C 52.606 196.360,52.521 196.529,52.230 200.907 C 51.800 207.352,51.143 208.400,47.528 208.400 C 45.069 208.400,45.824 213.010,48.350 213.414 C 51.200 213.870,51.511 214.004,52.223 215.091 C 52.703 215.823,53.003 217.228,53.123 219.295 L 53.303 222.400 55.451 222.400 C 58.386 222.400,59.200 223.225,59.200 226.200 C 59.200 228.378,59.212 228.400,60.400 228.400 C 61.573 228.400,61.600 228.356,61.600 226.400 C 61.600 224.705,61.715 224.400,62.356 224.400 C 62.923 224.400,63.153 224.049,63.276 223.000 C 63.366 222.230,63.285 221.600,63.096 221.600 C 62.907 221.600,62.864 221.420,63.000 221.200 C 63.136 220.980,62.939 220.800,62.562 220.800 C 61.927 220.800,61.930 220.741,62.600 220.000 C 63.049 219.504,63.140 219.200,62.838 219.200 C 62.571 219.200,62.464 219.020,62.600 218.800 C 62.736 218.580,62.545 218.400,62.175 218.400 C 61.596 218.400,61.578 218.308,62.048 217.742 C 62.537 217.153,62.490 217.118,61.600 217.400 C 60.710 217.682,60.663 217.647,61.152 217.058 C 61.625 216.488,61.598 216.396,60.949 216.368 C 60.537 216.351,60.380 216.261,60.600 216.169 C 60.825 216.074,60.938 214.997,60.857 213.701 C 60.717 211.426,60.724 211.408,61.511 212.120 C 62.295 212.829,62.303 212.815,62.101 211.020 C 61.920 209.410,61.986 209.200,62.678 209.200 C 64.036 209.200,65.296 207.425,65.508 205.213 C 65.652 203.718,65.869 203.193,66.351 203.172 C 71.896 202.937,74.253 201.868,75.552 199.000 C 77.285 195.173,77.397 195.058,81.256 193.106 L 85.000 191.212 85.227 187.906 C 85.418 185.117,85.333 184.382,84.686 183.208 C 84.264 182.443,83.853 181.473,83.772 181.053 C 83.691 180.634,83.379 180.000,83.079 179.645 C 82.779 179.290,81.754 177.425,80.801 175.500 C 78.804 171.465,78.184 171.148,77.907 174.024 M263.952 175.203 C 262.075 176.299,261.945 177.100,261.986 187.299 C 262.038 200.141,262.383 200.800,269.070 200.800 C 275.579 200.800,275.600 200.757,275.600 187.672 C 275.600 174.845,275.574 174.794,269.038 174.812 C 266.597 174.819,264.308 174.995,263.952 175.203 M349.600 184.357 C 348.390 184.491,347.432 184.780,347.471 185.000 C 347.511 185.220,347.241 185.734,346.871 186.142 C 346.502 186.550,346.257 186.910,346.326 186.942 C 346.395 186.974,346.324 187.332,346.169 187.737 C 346.013 188.143,346.117 189.701,346.400 191.200 C 346.683 192.699,346.801 194.221,346.662 194.583 C 346.514 194.969,346.573 195.140,346.805 194.997 C 347.388 194.637,347.287 196.636,346.700 197.081 C 346.299 197.385,343.968 198.203,342.300 198.624 C 342.135 198.666,341.955 198.736,341.900 198.781 C 341.845 198.825,341.512 198.918,341.160 198.986 C 337.752 199.653,333.200 202.787,333.200 204.465 C 333.200 205.085,332.876 206.448,332.479 207.496 C 331.704 209.546,331.859 211.409,333.009 213.860 C 333.334 214.554,333.608 215.544,333.618 216.060 C 333.628 216.577,333.883 217.540,334.186 218.200 L 334.735 219.400 334.770 218.000 C 334.867 214.095,336.261 212.152,339.254 211.755 L 341.166 211.501 341.405 209.651 C 341.812 206.497,341.983 206.030,342.964 205.387 C 343.487 205.044,344.609 204.657,345.458 204.526 C 347.656 204.188,347.999 203.773,348.006 201.451 C 348.015 198.615,348.323 198.286,351.159 198.080 C 354.355 197.849,354.456 197.681,353.985 193.373 C 353.770 191.408,353.640 188.540,353.697 187.000 C 353.815 183.802,353.933 183.879,349.600 184.357 " stroke="none" fill="#c6cbf9" fill-rule="evenodd"></path><path id="path1" d="M188.200 57.231 C 184.533 58.036,183.668 58.435,182.620 59.810 C 182.030 60.582,180.525 61.732,179.274 62.364 C 176.652 63.688,175.874 64.447,175.006 66.524 C 174.577 67.551,173.765 68.398,172.412 69.231 C 171.172 69.993,169.993 71.172,169.231 72.412 C 168.467 73.653,167.535 74.585,166.709 74.932 C 165.271 75.536,162.800 77.873,162.800 78.629 C 162.800 78.892,162.035 79.755,161.100 80.547 C 158.288 82.930,157.558 83.729,156.745 85.315 C 156.262 86.258,155.163 87.345,153.836 88.194 C 152.663 88.944,151.348 90.161,150.913 90.898 C 150.479 91.635,149.549 92.679,148.847 93.219 C 145.719 95.624,144.710 96.612,144.029 97.940 C 143.628 98.721,142.333 100.098,141.150 101.000 C 139.968 101.902,138.752 103.171,138.448 103.820 C 137.672 105.480,136.523 106.652,134.524 107.824 C 133.472 108.440,132.491 109.437,132.010 110.379 C 131.203 111.962,130.212 112.887,128.050 114.075 C 127.218 114.532,126.474 115.511,125.746 117.106 C 124.857 119.052,124.352 119.629,122.835 120.431 C 121.394 121.192,120.890 121.736,120.490 122.962 C 119.894 124.788,118.838 125.818,116.537 126.817 C 115.048 127.464,114.808 127.767,114.241 129.718 C 113.532 132.156,113.069 132.667,110.904 133.402 C 109.187 133.983,108.414 135.168,108.406 137.230 C 108.398 139.065,107.154 140.270,104.896 140.631 L 103.200 140.902 103.200 144.060 C 103.200 147.120,103.234 147.232,104.300 147.700 C 104.905 147.966,105.490 148.295,105.600 148.432 C 105.710 148.569,106.173 148.877,106.630 149.117 C 107.641 149.648,108.208 151.473,108.831 156.200 C 109.147 158.595,109.523 159.970,109.953 160.308 C 111.916 161.850,114.589 164.780,115.146 166.000 C 115.763 167.353,115.793 167.124,116.031 159.199 C 116.400 146.888,115.388 147.634,131.411 147.855 C 146.557 148.063,147.800 148.769,145.431 155.822 C 143.403 161.859,144.056 170.004,146.669 171.278 C 147.264 171.567,147.910 172.334,148.121 173.000 C 148.678 174.756,149.935 175.952,151.776 176.476 C 155.350 177.493,155.334 178.795,151.730 180.390 C 149.163 181.525,148.411 183.304,149.312 186.111 C 150.518 189.867,150.796 191.361,150.798 194.116 C 150.800 196.906,151.621 199.255,152.989 200.391 C 153.870 201.122,155.266 200.062,157.394 197.046 C 158.282 195.787,159.760 194.319,160.700 193.762 C 161.635 193.208,162.400 192.615,162.400 192.444 C 162.400 192.273,163.092 191.383,163.939 190.467 L 165.477 188.800 168.977 188.800 C 172.588 188.800,174.800 189.630,174.800 190.986 C 174.800 191.687,177.453 194.000,178.258 194.000 C 178.604 194.000,179.903 192.946,181.144 191.659 C 182.385 190.371,184.142 188.939,185.050 188.476 C 186.761 187.604,188.800 185.514,188.800 184.633 C 188.800 181.069,184.106 175.272,180.371 174.224 C 178.038 173.569,176.400 172.195,176.400 170.893 C 176.400 169.595,174.759 167.649,173.283 167.196 C 169.996 166.188,169.601 165.918,168.815 164.140 C 167.880 162.026,165.208 160.577,161.466 160.153 C 158.914 159.864,158.643 159.592,159.130 157.800 C 159.449 156.624,159.520 156.595,162.701 156.329 C 166.389 156.020,167.062 155.737,169.683 153.392 C 171.420 151.839,171.819 151.676,174.816 151.293 C 178.646 150.804,179.031 150.517,182.300 145.704 L 184.544 142.400 186.372 142.409 C 191.726 142.433,203.169 144.509,203.505 145.515 C 203.563 145.689,204.688 147.696,206.005 149.976 C 207.322 152.256,208.400 154.265,208.400 154.442 C 208.400 155.946,209.426 156.753,212.419 157.605 L 215.548 158.496 217.351 157.624 C 218.342 157.144,221.049 156.416,223.366 156.006 C 225.682 155.596,227.763 155.147,227.989 155.007 C 228.364 154.775,228.456 155.382,228.571 158.858 C 228.594 159.544,228.225 159.826,226.732 160.261 C 223.854 161.100,222.379 168.329,224.414 171.622 C 224.663 172.026,224.414 172.561,223.570 173.431 L 222.372 174.667 220.080 173.576 C 218.344 172.749,217.622 172.135,217.101 171.042 C 216.722 170.249,216.138 169.600,215.802 169.600 C 214.765 169.600,211.600 175.119,211.600 176.926 C 211.600 178.011,209.768 180.800,209.055 180.800 C 208.280 180.800,206.987 182.367,205.988 184.516 C 205.400 185.780,204.501 186.842,203.348 187.636 C 202.387 188.297,200.984 189.802,200.231 190.979 C 199.478 192.156,198.029 193.692,197.011 194.392 C 195.665 195.319,194.907 196.239,194.228 197.774 C 193.559 199.287,192.805 200.212,191.559 201.049 C 189.860 202.191,189.544 202.633,188.245 205.704 C 187.789 206.782,187.182 207.392,186.104 207.853 C 185.277 208.207,184.330 208.629,184.000 208.791 C 183.624 208.975,183.307 209.930,183.152 211.354 C 182.847 214.133,182.055 215.083,179.754 215.428 C 178.190 215.662,178.001 215.805,178.006 216.745 C 178.011 217.515,178.108 217.649,178.367 217.239 C 178.574 216.914,180.014 216.494,181.801 216.239 L 184.880 215.800 185.425 214.200 C 186.090 212.246,187.182 211.309,189.518 210.684 C 190.498 210.422,191.393 209.936,191.509 209.604 C 192.062 208.010,193.880 206.232,195.845 205.363 C 197.326 204.708,198.270 203.959,198.937 202.910 C 200.148 201.004,201.027 200.234,202.850 199.481 C 203.647 199.152,204.817 198.205,205.450 197.376 C 207.116 195.194,208.405 194.017,210.052 193.175 C 210.851 192.767,212.101 191.799,212.831 191.026 C 213.561 190.252,215.083 189.181,216.213 188.646 C 217.343 188.111,218.702 187.120,219.234 186.443 C 219.765 185.767,220.593 184.701,221.074 184.075 C 222.002 182.866,224.069 182.414,231.512 181.792 C 234.894 181.510,236.529 182.220,238.008 184.613 C 239.428 186.910,240.760 187.600,243.775 187.600 C 247.065 187.600,248.618 188.231,250.923 190.503 C 252.793 192.347,254.194 192.800,258.024 192.800 C 259.784 192.800,259.793 192.777,260.218 187.000 C 260.732 180.011,261.338 177.595,262.951 176.117 L 264.388 174.800 269.494 174.805 C 278.123 174.815,277.653 174.029,277.782 188.639 C 277.890 200.945,277.813 200.504,279.535 198.612 C 280.688 197.345,280.800 196.987,280.800 194.571 C 280.800 189.100,287.429 182.088,294.400 180.184 C 297.551 179.324,298.652 178.793,301.947 176.541 C 303.594 175.414,304.928 174.800,305.725 174.800 C 306.403 174.800,307.597 174.375,308.378 173.856 C 309.160 173.337,311.236 171.969,312.991 170.817 C 317.825 167.645,319.178 166.453,320.706 164.024 C 321.475 162.801,322.656 161.215,323.330 160.500 C 324.294 159.479,324.409 159.200,323.869 159.200 C 322.976 159.200,322.400 157.640,322.400 155.223 L 322.400 153.297 319.384 152.849 C 314.677 152.149,312.478 150.727,311.794 147.940 C 311.595 147.131,310.983 146.632,309.215 145.839 C 306.636 144.681,306.157 144.228,305.000 141.847 C 304.421 140.656,303.672 139.923,302.293 139.200 C 300.395 138.205,298.808 136.372,298.803 135.170 C 298.799 134.362,297.411 133.152,295.499 132.289 C 294.308 131.752,293.743 131.095,292.760 129.101 C 291.748 127.048,291.173 126.395,289.610 125.522 C 288.202 124.736,287.466 123.976,286.817 122.636 C 286.140 121.236,285.461 120.561,283.874 119.708 C 282.663 119.058,281.478 118.040,281.006 117.243 C 279.220 114.237,278.458 113.752,275.024 113.441 C 271.399 113.112,269.998 112.348,268.832 110.063 C 268.366 109.149,267.424 108.233,266.341 107.639 C 263.999 106.354,262.871 105.291,261.953 103.500 C 261.530 102.675,260.512 101.571,259.692 101.048 C 257.955 99.940,256.882 98.790,255.629 96.695 C 254.548 94.888,254.229 94.709,250.461 93.802 C 248.092 93.232,247.044 92.709,245.061 91.110 C 243.707 90.019,241.731 88.683,240.668 88.140 C 239.541 87.565,238.458 86.643,238.068 85.927 C 236.955 83.882,235.631 82.468,233.934 81.515 C 233.005 80.993,231.900 79.889,231.327 78.911 C 229.630 76.015,228.481 75.326,224.816 75.001 L 221.590 74.716 219.745 72.557 C 218.731 71.369,216.982 69.903,215.859 69.299 C 214.455 68.543,213.377 67.543,212.408 66.096 C 210.638 63.452,210.012 63.042,206.805 62.423 C 203.668 61.818,202.335 61.170,201.452 59.824 C 199.739 57.208,193.695 56.026,188.200 57.231 M250.576 168.269 C 255.381 172.511,254.700 173.186,244.806 173.984 C 241.145 174.280,240.939 174.252,239.400 173.265 L 237.800 172.239 239.600 171.754 C 240.590 171.488,242.074 171.156,242.898 171.017 C 245.072 170.651,246.404 169.340,246.677 167.299 C 246.971 165.110,247.005 165.118,250.576 168.269 M262.759 201.719 C 261.189 202.780,261.157 203.128,261.769 212.642 C 262.405 222.532,261.651 224.319,256.400 225.360 C 245.538 227.513,243.393 227.139,242.000 222.851 L 241.400 221.003 236.513 221.002 C 230.827 221.000,230.106 220.634,229.717 217.559 C 229.483 215.709,228.655 214.400,227.718 214.400 C 226.189 214.400,224.906 213.207,224.407 211.319 C 223.624 208.357,222.971 207.983,219.074 208.269 C 215.171 208.556,214.745 208.814,214.990 210.747 C 215.092 211.546,215.277 213.028,215.403 214.040 L 215.631 215.880 217.779 216.360 C 219.819 216.817,222.000 218.274,222.000 219.181 C 222.000 219.411,222.238 219.600,222.528 219.600 C 222.818 219.600,223.763 220.197,224.628 220.927 C 225.493 221.658,227.700 222.873,229.533 223.627 C 232.307 224.770,233.066 225.285,234.052 226.700 C 234.705 227.635,235.509 228.400,235.839 228.400 C 237.879 228.400,239.600 230.589,239.600 233.183 C 239.600 235.196,240.270 235.559,244.532 235.852 C 249.214 236.174,250.533 236.859,251.942 239.701 L 252.885 241.600 256.742 241.609 C 262.189 241.621,265.592 243.481,265.599 246.448 C 265.600 246.959,266.298 247.186,268.896 247.517 C 272.996 248.041,273.200 247.900,273.200 244.559 C 273.200 240.636,274.534 237.062,276.662 235.283 C 279.335 233.049,280.493 228.645,281.838 215.600 C 282.620 208.011,282.360 206.590,279.954 205.291 C 278.061 204.269,277.200 203.317,277.200 202.247 C 277.200 200.419,265.324 199.985,262.759 201.719 M170.768 221.531 C 169.271 222.236,169.173 222.790,170.314 224.100 C 171.106 225.009,171.950 224.986,172.974 224.027 C 173.428 223.601,174.314 222.987,174.941 222.663 C 177.145 221.522,173.109 220.428,170.768 221.531 M165.172 225.992 C 164.826 226.194,163.413 226.541,162.032 226.764 C 157.786 227.448,157.328 228.565,161.106 229.020 C 162.368 229.172,163.950 229.521,164.622 229.795 C 166.308 230.483,168.619 228.628,168.025 227.065 C 167.519 225.734,166.358 225.298,165.172 225.992 " stroke="none" fill="#04c3f4" fill-rule="evenodd"></path><path id="path2" d="M181.836 9.654 C 181.268 9.806,180.361 9.881,179.821 9.822 C 179.280 9.763,178.851 9.823,178.866 9.957 C 178.958 10.743,178.747 11.215,178.400 11.000 C 178.180 10.864,178.000 11.033,178.000 11.376 C 178.000 11.719,178.164 12.000,178.365 12.000 C 178.776 12.000,178.505 14.256,177.975 15.247 C 177.753 15.661,177.286 15.829,176.681 15.713 C 176.078 15.598,175.718 15.727,175.691 16.066 C 175.667 16.360,175.554 17.877,175.438 19.437 C 175.169 23.070,174.680 24.313,173.315 24.832 C 171.938 25.356,166.688 25.063,166.484 24.452 C 166.401 24.203,166.108 24.000,165.833 24.000 C 165.558 24.000,165.333 23.738,165.333 23.418 C 165.333 23.097,165.507 22.942,165.719 23.073 C 165.930 23.204,166.020 23.061,165.919 22.756 C 165.644 21.933,164.632 22.070,164.389 22.964 C 164.273 23.391,163.913 23.813,163.589 23.901 C 163.085 24.038,163.086 24.000,163.600 23.637 C 163.930 23.403,163.997 23.209,163.749 23.206 C 163.501 23.203,163.009 23.605,162.656 24.100 C 162.015 24.998,162.015 24.998,162.390 23.919 C 162.699 23.029,162.660 22.879,162.166 23.069 C 161.836 23.195,161.653 23.386,161.759 23.492 C 161.866 23.599,161.513 24.160,160.976 24.739 C 159.857 25.946,159.770 26.267,160.562 26.267 C 160.871 26.267,161.039 26.045,160.935 25.774 C 160.831 25.503,160.927 25.169,161.149 25.032 C 161.378 24.890,161.523 25.158,161.486 25.652 C 161.450 26.131,161.086 26.609,160.678 26.716 C 160.177 26.847,160.001 27.160,160.136 27.678 C 160.289 28.262,160.216 28.345,159.832 28.026 C 159.554 27.796,159.215 27.718,159.079 27.854 C 158.654 28.279,155.600 28.711,155.600 28.346 C 155.600 28.156,155.390 28.000,155.133 28.000 C 154.877 28.000,154.772 28.105,154.900 28.234 C 155.194 28.528,153.951 30.017,153.595 29.797 C 153.451 29.708,153.333 29.889,153.333 30.200 C 153.333 30.511,153.528 30.656,153.767 30.524 C 154.005 30.391,153.975 30.525,153.700 30.821 C 153.425 31.118,153.200 32.044,153.200 32.880 C 153.200 34.560,153.626 34.400,148.751 34.554 C 147.773 34.585,147.364 34.762,147.493 35.098 C 147.598 35.371,147.890 35.480,148.142 35.339 C 148.395 35.198,148.368 35.332,148.083 35.638 C 147.643 36.111,147.504 36.105,147.146 35.597 C 146.690 34.951,146.757 35.289,147.404 36.900 C 147.574 37.323,147.504 37.600,147.228 37.600 C 146.928 37.600,146.836 38.153,146.963 39.200 C 147.173 40.944,147.298 40.879,143.690 40.903 C 142.472 40.911,141.014 42.491,140.943 43.879 C 140.911 44.495,140.866 45.485,140.843 46.078 C 140.802 47.095,140.711 47.145,139.200 46.963 C 138.153 46.836,137.600 46.928,137.600 47.228 C 137.600 47.480,137.330 47.576,137.000 47.443 C 135.423 46.805,134.981 46.711,135.597 47.146 C 136.105 47.504,136.111 47.643,135.638 48.083 C 135.332 48.368,135.198 48.395,135.339 48.142 C 135.480 47.890,135.371 47.598,135.098 47.493 C 134.762 47.364,134.585 47.773,134.554 48.751 C 134.400 53.626,134.560 53.200,132.880 53.200 C 132.044 53.200,131.118 53.425,130.821 53.700 C 130.525 53.975,130.391 54.005,130.524 53.767 C 130.656 53.528,130.511 53.333,130.200 53.333 C 129.889 53.333,129.708 53.451,129.797 53.595 C 130.017 53.951,128.528 55.194,128.234 54.900 C 128.105 54.772,128.000 54.877,128.000 55.133 C 128.000 55.390,128.163 55.600,128.363 55.600 C 128.562 55.600,128.663 55.915,128.587 56.300 C 128.048 59.024,128.002 59.100,126.705 59.401 C 125.987 59.568,125.104 59.672,124.743 59.634 C 124.382 59.596,123.681 60.067,123.185 60.682 C 122.366 61.698,122.304 61.718,122.504 60.900 C 122.626 60.406,122.599 59.923,122.445 59.828 C 122.001 59.554,121.995 61.312,122.438 61.846 C 122.707 62.170,122.701 62.414,122.419 62.588 C 122.189 62.731,122.000 63.467,122.000 64.224 C 122.000 65.682,121.695 65.833,119.150 65.641 C 117.709 65.533,115.533 67.709,115.641 69.150 C 115.833 71.695,115.682 72.000,114.224 72.000 C 113.467 72.000,112.731 72.189,112.588 72.419 C 112.414 72.701,112.170 72.707,111.846 72.438 C 111.312 71.995,109.554 72.001,109.828 72.445 C 109.923 72.599,110.406 72.626,110.900 72.504 C 111.718 72.304,111.698 72.366,110.682 73.185 C 110.067 73.681,109.596 74.382,109.634 74.743 C 109.672 75.104,109.568 75.987,109.401 76.705 C 109.100 78.002,109.024 78.048,106.300 78.587 C 105.915 78.663,105.600 78.562,105.600 78.363 C 105.600 78.163,105.390 78.000,105.133 78.000 C 104.877 78.000,104.772 78.105,104.900 78.234 C 105.194 78.528,103.951 80.017,103.595 79.797 C 103.451 79.708,103.333 79.889,103.333 80.200 C 103.333 80.511,103.528 80.656,103.767 80.524 C 104.005 80.391,103.975 80.525,103.700 80.821 C 103.425 81.118,103.200 82.044,103.200 82.880 C 103.200 84.561,103.622 84.404,98.693 84.554 C 97.609 84.587,97.328 84.713,97.693 85.001 C 98.429 85.584,98.503 86.415,97.795 86.143 C 97.468 86.017,97.200 85.724,97.200 85.491 C 97.200 85.257,97.098 85.169,96.972 85.294 C 96.847 85.420,96.982 85.905,97.272 86.373 C 97.696 87.057,97.700 87.286,97.293 87.540 C 96.971 87.741,96.855 88.391,96.975 89.328 C 97.151 90.700,97.090 90.803,96.082 90.843 C 93.379 90.950,92.847 91.019,92.567 91.300 C 92.158 91.709,91.502 91.681,91.759 91.267 C 91.872 91.083,91.733 90.933,91.449 90.933 C 91.165 90.933,90.933 91.165,90.933 91.449 C 90.933 91.733,91.083 91.872,91.267 91.759 C 91.681 91.502,91.709 92.158,91.300 92.567 C 91.019 92.847,90.950 93.379,90.843 96.082 C 90.803 97.087,90.698 97.150,89.347 96.977 C 88.315 96.845,87.759 96.977,87.426 97.432 C 86.998 98.017,86.912 98.017,86.430 97.436 C 86.140 97.086,85.731 96.800,85.522 96.800 C 85.314 96.800,85.427 97.085,85.775 97.432 C 86.123 97.780,86.290 98.254,86.146 98.487 C 85.987 98.745,85.637 98.579,85.243 98.057 L 84.600 97.205 84.600 98.164 C 84.600 98.696,84.778 99.017,85.000 98.885 C 85.233 98.746,85.222 98.887,84.974 99.223 C 84.740 99.540,84.498 100.520,84.436 101.400 C 84.290 103.456,84.254 103.499,82.865 103.295 C 81.593 103.108,79.418 104.583,79.875 105.322 C 80.021 105.558,79.921 105.598,79.632 105.420 C 79.268 105.195,79.357 104.884,79.977 104.224 C 80.609 103.551,80.670 103.333,80.225 103.333 C 79.900 103.333,79.715 103.463,79.813 103.621 C 79.911 103.780,79.725 104.130,79.400 104.400 C 79.075 104.670,78.900 105.038,79.011 105.218 C 79.122 105.398,79.030 105.658,78.807 105.796 C 78.583 105.934,78.386 105.722,78.368 105.324 C 78.349 104.882,78.256 104.800,78.131 105.113 C 78.018 105.395,78.216 106.070,78.572 106.613 C 78.927 107.156,79.046 107.600,78.836 107.600 C 78.626 107.600,78.343 107.948,78.208 108.374 C 78.073 108.800,77.656 109.229,77.281 109.328 C 76.775 109.461,76.823 109.519,77.471 109.554 C 78.200 109.592,78.317 109.797,78.188 110.813 C 78.099 111.519,78.195 111.927,78.417 111.789 C 78.628 111.659,78.800 111.733,78.800 111.953 C 78.800 112.173,78.617 112.466,78.393 112.604 C 78.170 112.742,78.124 113.068,78.291 113.328 C 78.703 113.969,78.716 115.600,78.308 115.600 C 77.608 115.600,82.885 122.830,84.640 124.274 C 86.084 125.463,86.922 126.688,88.436 129.828 C 90.058 133.190,90.909 134.390,93.589 137.092 C 97.287 140.819,97.426 141.198,95.100 141.205 C 91.744 141.216,91.600 141.350,91.600 144.439 C 91.600 147.109,91.570 147.192,90.500 147.428 C 86.807 148.246,85.600 149.374,85.600 152.007 C 85.600 153.407,84.503 155.060,83.222 155.591 C 81.345 156.368,80.032 158.983,79.024 163.949 C 78.607 166.002,78.508 166.127,76.802 166.757 C 75.211 167.345,74.863 167.716,73.608 170.167 C 72.659 172.020,71.874 173.036,71.200 173.282 C 69.703 173.830,68.479 175.145,67.962 176.759 C 67.451 178.356,66.132 180.000,65.361 180.000 C 64.415 180.000,62.306 182.152,61.571 183.867 C 61.024 185.144,60.302 185.914,58.769 186.857 C 57.328 187.744,56.491 188.604,55.999 189.702 C 55.536 190.737,54.557 191.787,53.147 192.764 C 50.172 194.826,49.366 196.168,49.024 199.630 C 48.647 203.461,48.327 204.165,46.490 205.197 C 41.821 207.822,41.883 215.617,46.598 218.840 C 47.435 219.412,48.691 220.852,49.388 222.040 C 50.347 223.675,51.183 224.495,52.828 225.414 C 54.339 226.259,55.279 227.134,55.916 228.289 C 56.420 229.202,57.466 230.455,58.242 231.074 C 60.462 232.847,61.736 234.179,62.600 235.631 C 63.041 236.371,64.351 237.612,65.512 238.388 C 66.672 239.165,67.955 240.353,68.362 241.029 C 69.123 242.293,70.358 243.381,72.800 244.937 C 73.570 245.428,74.449 246.363,74.753 247.015 C 75.663 248.965,76.458 249.637,79.503 251.029 C 81.099 251.760,83.259 253.076,84.303 253.955 C 86.269 255.610,89.273 257.176,90.513 257.191 C 90.904 257.196,91.329 257.470,91.455 257.800 C 91.582 258.130,91.891 258.401,92.143 258.403 C 92.394 258.405,93.012 259.127,93.515 260.008 C 94.125 261.077,95.159 262.022,96.623 262.848 C 98.148 263.708,99.135 264.628,99.860 265.866 C 100.499 266.956,101.764 268.219,103.123 269.123 C 104.344 269.935,105.909 271.410,106.600 272.400 C 107.292 273.390,108.621 274.625,109.554 275.144 C 110.573 275.711,111.799 276.915,112.626 278.161 C 113.509 279.490,114.726 280.656,116.021 281.412 C 117.283 282.150,118.489 283.292,119.241 284.463 C 120.869 287.001,121.676 287.431,125.384 287.739 L 128.567 288.004 130.984 290.428 C 132.313 291.762,134.106 293.246,134.969 293.726 C 135.832 294.207,137.107 295.410,137.802 296.400 C 138.496 297.390,140.015 298.927,141.177 299.816 C 142.339 300.705,143.561 301.965,143.893 302.616 C 144.771 304.337,145.997 305.574,147.682 306.438 C 148.497 306.856,149.667 307.858,150.282 308.664 C 152.371 311.403,153.202 311.999,154.958 312.017 C 158.401 312.054,160.103 312.639,161.485 314.262 C 163.786 316.964,164.529 317.618,166.550 318.721 C 167.765 319.384,168.802 320.320,169.239 321.148 C 170.280 323.120,171.591 324.375,172.978 324.730 C 173.879 324.960,174.473 325.543,175.240 326.950 C 176.947 330.081,177.437 330.391,181.300 330.790 C 185.153 331.187,186.250 331.730,187.735 333.973 C 188.293 334.817,189.796 336.203,191.075 337.053 C 192.396 337.932,193.724 339.206,194.151 340.003 C 195.367 342.273,196.344 342.761,200.269 343.056 C 204.113 343.344,204.418 343.540,208.076 348.068 C 209.328 349.617,210.008 349.436,211.485 347.162 C 211.972 346.413,212.651 345.402,212.993 344.915 C 213.335 344.428,214.934 343.403,216.546 342.638 C 218.158 341.874,219.765 340.807,220.118 340.269 C 220.996 338.930,222.893 337.831,226.121 336.792 C 228.375 336.067,229.002 335.666,229.769 334.458 C 230.962 332.581,232.081 331.593,234.137 330.600 C 235.049 330.159,236.189 329.171,236.674 328.400 C 238.323 325.779,239.172 324.906,240.288 324.682 C 241.056 324.529,241.712 323.932,242.401 322.758 C 243.588 320.737,245.370 318.902,247.215 317.800 C 247.952 317.360,249.025 316.190,249.600 315.200 C 250.175 314.210,251.246 313.040,251.981 312.600 C 252.717 312.160,253.831 311.260,254.458 310.600 C 255.921 309.059,259.059 305.921,260.600 304.458 C 261.260 303.831,262.160 302.717,262.600 301.981 C 263.040 301.246,264.210 300.175,265.200 299.600 C 266.190 299.025,267.360 297.952,267.800 297.215 C 268.898 295.377,270.727 293.609,272.886 292.301 C 274.213 291.497,274.765 290.877,274.943 289.987 C 275.109 289.153,275.596 288.555,276.491 288.085 C 277.863 287.364,280.355 284.965,281.941 282.837 C 282.459 282.143,283.565 281.226,284.401 280.800 C 285.236 280.374,286.326 279.344,286.823 278.512 C 288.085 276.401,289.630 274.800,290.405 274.800 C 291.159 274.800,292.185 273.720,293.720 271.311 C 294.312 270.382,295.382 269.326,296.098 268.964 C 298.126 267.940,299.209 266.773,300.199 264.549 C 300.701 263.421,301.987 261.613,303.056 260.531 C 304.125 259.448,305.583 257.375,306.296 255.924 C 307.069 254.350,308.414 252.502,309.632 251.343 C 310.754 250.274,312.116 248.531,312.659 247.468 C 313.267 246.279,314.136 245.280,314.923 244.868 C 315.625 244.501,317.464 242.940,319.010 241.400 C 320.555 239.860,322.389 238.300,323.085 237.933 C 323.785 237.564,324.719 236.544,325.175 235.649 C 326.060 233.914,327.892 232.000,328.667 232.000 C 329.349 232.000,331.682 229.617,332.469 228.117 C 332.919 227.261,333.917 226.450,335.511 225.645 C 337.298 224.743,338.016 224.121,338.421 223.124 C 338.716 222.396,340.150 220.623,341.608 219.184 C 344.256 216.568,344.257 216.567,344.967 212.984 C 345.710 209.229,346.097 208.400,347.111 208.400 C 348.228 208.400,350.457 206.333,351.194 204.614 C 351.924 202.911,352.878 201.973,355.152 200.723 C 357.665 199.342,357.997 198.171,357.999 190.680 C 358.000 182.679,357.457 181.098,354.400 180.201 C 352.966 179.781,351.681 178.481,351.390 177.155 C 351.108 175.868,349.591 174.505,348.035 174.139 C 346.604 173.802,345.289 172.517,344.993 171.167 C 344.731 169.977,342.988 168.271,340.852 167.115 C 340.156 166.738,339.488 166.108,339.368 165.715 C 338.670 163.434,337.788 162.388,335.666 161.321 C 333.876 160.422,333.246 159.830,332.477 158.327 C 331.706 156.818,331.082 156.234,329.269 155.327 C 327.363 154.373,326.925 153.942,326.409 152.513 C 325.753 150.697,324.291 148.800,323.546 148.800 C 322.672 148.800,319.600 147.056,319.600 146.560 C 319.600 144.690,315.137 142.073,311.212 141.641 L 309.024 141.400 308.674 139.600 C 308.227 137.301,307.502 136.511,305.231 135.853 C 303.369 135.313,302.652 134.487,302.235 132.400 C 301.903 130.741,301.069 129.968,298.780 129.196 C 296.672 128.485,296.586 128.399,296.191 126.587 C 295.719 124.428,294.613 123.349,292.471 122.955 C 290.707 122.631,290.414 122.257,290.406 120.319 C 290.394 117.334,288.952 116.000,285.740 116.000 L 284.400 116.000 284.400 113.574 C 284.400 110.647,283.918 109.600,282.570 109.600 C 281.011 109.600,279.848 106.689,280.732 105.000 C 281.077 104.340,281.501 102.630,281.675 101.200 C 282.306 95.998,282.654 94.538,283.717 92.637 C 284.639 90.988,284.800 90.230,284.800 87.550 C 284.800 84.477,284.944 84.142,286.168 84.375 C 286.370 84.414,286.294 84.154,285.999 83.798 C 285.656 83.386,285.420 81.799,285.347 79.418 C 285.283 77.365,285.144 75.206,285.038 74.620 C 284.908 73.902,285.101 73.299,285.632 72.768 C 286.415 71.985,286.414 71.982,285.442 72.158 C 284.904 72.256,284.135 72.067,283.732 71.738 C 283.330 71.409,283.205 71.242,283.455 71.366 C 284.127 71.699,284.347 69.416,283.725 68.565 C 283.436 68.170,283.197 67.476,283.194 67.024 C 283.190 66.493,283.080 66.370,282.883 66.679 C 282.700 66.967,282.363 67.025,282.038 66.824 C 281.741 66.640,281.621 66.289,281.772 66.045 C 281.924 65.800,281.885 65.600,281.688 65.600 C 281.255 65.600,280.218 67.636,280.364 68.200 C 280.420 68.420,280.326 68.460,280.155 68.288 C 279.705 67.838,279.602 66.754,280.035 67.022 C 280.640 67.395,280.445 66.535,279.805 66.004 C 279.478 65.733,278.982 65.598,278.703 65.705 C 278.184 65.904,277.096 65.038,277.437 64.697 C 277.929 64.205,277.908 62.740,277.406 62.547 C 277.101 62.430,276.948 62.080,277.067 61.769 C 277.186 61.459,277.490 61.307,277.742 61.432 C 277.994 61.557,277.885 61.401,277.500 61.086 C 277.115 60.770,276.800 60.285,276.800 60.007 C 276.800 59.603,276.679 59.602,276.200 60.000 C 275.789 60.341,275.600 60.357,275.600 60.051 C 275.600 59.762,275.090 59.685,274.157 59.834 C 273.119 59.999,272.794 59.933,273.001 59.599 C 273.194 59.286,272.981 59.178,272.346 59.267 C 271.604 59.372,271.394 59.207,271.356 58.487 C 271.330 57.985,271.165 57.445,270.990 57.287 C 270.816 57.129,270.795 57.340,270.945 57.757 C 271.164 58.363,271.110 58.423,270.672 58.060 C 270.372 57.811,269.996 57.737,269.837 57.896 C 269.678 58.055,269.635 57.649,269.741 56.993 C 269.847 56.337,269.963 55.800,269.998 55.800 C 270.033 55.800,270.122 55.485,270.195 55.100 C 270.374 54.164,270.089 54.218,269.134 55.300 C 268.697 55.795,268.461 55.963,268.610 55.673 C 268.996 54.921,267.585 53.980,266.745 54.429 C 266.212 54.715,266.118 54.634,266.278 54.025 C 266.492 53.204,261.504 52.985,259.917 53.745 C 259.116 54.129,258.747 53.089,258.658 50.200 C 258.605 48.478,258.318 48.146,257.070 48.363 C 256.889 48.394,256.855 48.235,256.994 48.010 C 257.139 47.776,256.851 47.597,256.324 47.594 C 255.569 47.589,255.510 47.513,256.000 47.178 C 256.444 46.875,256.140 46.796,254.836 46.874 L 253.072 46.979 253.032 45.319 C 253.010 44.406,252.861 43.527,252.700 43.366 C 252.539 43.205,252.615 42.823,252.869 42.517 C 253.236 42.074,253.154 41.913,252.470 41.734 C 251.997 41.610,251.708 41.350,251.828 41.155 C 251.949 40.960,251.857 40.800,251.624 40.800 C 251.391 40.800,251.200 40.980,251.200 41.200 C 251.200 41.420,251.009 41.600,250.776 41.600 C 250.543 41.600,250.471 41.409,250.615 41.176 C 250.789 40.895,250.324 40.808,249.233 40.917 C 248.330 41.007,247.338 40.883,247.030 40.640 C 246.299 40.066,245.800 36.633,246.509 37.059 C 246.825 37.249,246.805 37.113,246.451 36.677 C 246.028 36.155,246.009 35.871,246.370 35.436 C 246.729 35.003,246.726 34.802,246.358 34.574 C 246.071 34.397,245.981 34.445,246.134 34.693 C 246.275 34.922,246.123 35.332,245.796 35.604 C 245.300 36.015,245.200 35.955,245.200 35.241 C 245.200 34.375,243.978 34.272,242.745 35.034 C 242.452 35.215,242.384 35.150,242.562 34.862 C 242.719 34.608,242.672 34.400,242.457 34.400 C 242.242 34.400,241.976 34.625,241.865 34.900 C 241.704 35.300,241.657 35.300,241.632 34.900 C 241.609 34.538,240.576 34.400,237.900 34.400 L 234.200 34.400 234.200 32.162 C 234.200 30.931,234.037 29.823,233.838 29.700 C 233.634 29.574,233.616 29.721,233.797 30.038 C 234.017 30.424,233.986 30.475,233.698 30.200 C 233.467 29.980,233.213 29.442,233.134 29.005 C 233.055 28.567,232.633 28.152,232.195 28.083 C 231.526 27.977,231.495 28.028,232.000 28.405 C 232.500 28.778,232.467 28.821,231.800 28.661 C 231.360 28.556,230.325 28.356,229.500 28.217 C 228.072 27.976,227.998 27.887,227.956 26.382 C 227.931 25.512,227.895 24.395,227.875 23.900 C 227.827 22.693,226.463 21.657,225.963 22.447 C 225.668 22.912,225.611 22.913,225.606 22.451 C 225.601 22.008,224.624 21.931,220.500 22.051 L 215.400 22.200 215.072 19.800 C 214.891 18.480,214.739 16.967,214.733 16.439 C 214.727 15.813,214.614 15.653,214.412 15.981 C 214.185 16.349,214.024 16.362,213.819 16.031 C 213.648 15.754,212.766 15.637,211.558 15.733 C 209.228 15.916,209.129 15.806,209.077 12.971 C 209.055 11.777,208.871 10.800,208.669 10.800 C 208.467 10.800,208.496 10.566,208.734 10.280 C 209.077 9.867,208.738 9.735,207.083 9.636 C 202.718 9.376,182.822 9.390,181.836 9.654 M140.897 41.774 C 140.852 42.366,140.927 42.441,141.170 42.048 C 141.355 41.750,141.750 41.355,142.048 41.170 C 142.441 40.927,142.366 40.852,141.774 40.897 C 141.263 40.935,140.935 41.263,140.897 41.774 M268.904 53.794 C 268.152 54.648,268.897 54.781,269.700 53.937 C 270.152 53.460,270.223 53.205,269.900 53.215 C 269.625 53.224,269.177 53.484,268.904 53.794 M264.567 53.843 C 264.915 53.976,265.200 54.268,265.200 54.492 C 265.200 54.757,265.022 54.751,264.688 54.473 C 264.407 54.240,263.594 54.065,262.883 54.085 C 262.171 54.106,261.471 54.005,261.328 53.861 C 260.998 53.532,263.717 53.516,264.567 53.843 M200.452 56.504 C 201.414 57.073,202.534 57.995,202.943 58.552 C 203.486 59.293,204.725 59.887,207.560 60.768 C 211.681 62.048,212.600 62.721,213.818 65.347 C 214.407 66.615,214.984 67.096,217.021 68.009 C 218.405 68.630,219.836 69.605,220.253 70.211 C 221.893 72.596,222.609 73.073,225.310 73.583 C 229.993 74.467,230.895 74.913,232.000 76.895 C 233.368 79.349,233.933 79.961,235.387 80.569 C 236.707 81.120,238.800 83.320,238.800 84.156 C 238.800 84.999,240.907 86.634,242.977 87.397 C 244.064 87.797,245.713 88.825,246.641 89.680 C 247.841 90.787,249.098 91.456,250.993 91.998 C 254.783 93.082,255.980 93.912,257.499 96.512 C 258.449 98.138,259.305 99.042,260.452 99.626 C 261.339 100.079,262.366 101.001,262.733 101.675 C 263.858 103.741,265.230 105.199,266.809 106.005 C 267.639 106.428,268.741 107.337,269.259 108.025 C 271.677 111.238,272.029 111.460,275.204 111.773 C 278.827 112.130,280.099 112.826,281.608 115.276 C 282.330 116.449,283.587 117.679,284.962 118.559 C 286.222 119.365,287.446 120.528,287.828 121.283 C 288.700 123.009,289.982 124.401,291.096 124.831 C 291.588 125.021,292.488 125.931,293.096 126.852 C 294.307 128.689,296.410 130.879,298.366 132.341 C 299.059 132.859,299.987 133.990,300.429 134.856 C 300.948 135.875,302.002 136.923,303.414 137.826 C 304.614 138.594,305.912 139.712,306.298 140.311 C 307.750 142.563,309.007 143.633,311.619 144.836 C 313.151 145.543,315.050 146.832,316.032 147.833 C 317.224 149.047,318.609 149.915,320.514 150.643 C 323.264 151.694,324.795 153.190,324.799 154.830 C 324.800 155.653,326.218 156.923,328.113 157.802 C 329.264 158.336,329.861 159.002,330.612 160.588 C 331.338 162.123,331.994 162.873,333.099 163.432 C 335.064 164.426,336.400 165.596,336.400 166.323 C 336.400 167.549,338.075 169.547,339.772 170.345 C 341.165 170.999,341.628 171.484,342.012 172.685 C 342.627 174.608,344.185 176.289,345.651 176.611 C 346.880 176.881,348.399 178.507,348.401 179.554 C 348.405 181.016,349.946 182.752,351.681 183.248 C 354.269 183.989,354.321 184.072,353.903 186.831 C 353.667 188.393,353.684 190.650,353.952 193.112 C 354.451 197.711,354.375 197.848,351.159 198.080 C 348.323 198.286,348.015 198.615,348.006 201.451 C 347.999 203.773,347.656 204.188,345.458 204.526 C 344.609 204.657,343.487 205.044,342.964 205.387 C 341.983 206.030,341.812 206.497,341.405 209.651 L 341.166 211.501 339.254 211.755 C 336.261 212.152,334.867 214.095,334.770 218.000 L 334.735 219.400 334.186 218.200 C 333.883 217.540,333.628 216.577,333.618 216.060 C 333.608 215.544,333.334 214.554,333.009 213.860 C 331.945 211.593,331.695 209.523,332.305 208.035 C 332.709 207.051,332.751 206.436,332.458 205.835 C 331.438 203.746,331.499 203.250,332.876 202.410 C 333.604 201.966,334.412 201.602,334.672 201.601 C 334.932 201.601,336.354 201.040,337.832 200.356 C 339.311 199.671,340.808 199.055,341.160 198.986 C 341.512 198.918,341.845 198.825,341.900 198.781 C 341.955 198.736,342.135 198.666,342.300 198.624 C 343.968 198.203,346.299 197.385,346.700 197.081 C 347.287 196.636,347.388 194.637,346.805 194.997 C 346.573 195.140,346.514 194.969,346.662 194.583 C 346.801 194.221,346.679 192.678,346.391 191.154 L 345.868 188.383 342.634 188.579 C 340.855 188.687,337.646 188.894,335.503 189.039 C 333.020 189.207,331.423 189.153,331.103 188.889 C 330.269 188.205,328.124 188.168,327.333 188.826 C 325.576 190.288,325.030 190.627,325.385 190.038 C 325.622 189.645,325.576 189.567,325.235 189.779 C 324.966 189.945,324.842 190.333,324.960 190.640 C 325.078 190.948,325.011 191.200,324.811 191.200 C 324.610 191.200,323.405 192.112,322.132 193.226 C 320.859 194.340,319.752 195.055,319.672 194.815 C 319.590 194.571,318.638 195.016,317.518 195.821 C 316.414 196.614,315.142 197.334,314.692 197.421 C 314.243 197.507,313.466 197.962,312.967 198.431 C 312.468 198.900,311.887 199.177,311.677 199.047 C 311.466 198.917,310.839 199.168,310.284 199.605 C 309.728 200.042,309.073 200.400,308.828 200.400 C 307.853 200.400,302.031 203.657,299.210 205.780 C 297.565 207.017,295.765 208.139,295.210 208.272 C 294.654 208.405,293.321 208.954,292.246 209.491 C 290.964 210.132,289.417 210.517,287.749 210.609 C 284.588 210.783,284.400 210.902,284.401 212.724 C 284.402 215.076,282.806 229.126,282.188 232.200 C 281.649 234.881,281.515 235.102,279.024 237.400 C 276.064 240.130,275.600 241.085,275.600 244.452 C 275.600 249.154,274.286 250.400,269.330 250.400 L 265.600 250.400 264.100 248.773 C 259.964 244.287,260.131 244.401,257.672 244.390 C 253.557 244.373,252.453 243.902,249.776 241.021 L 247.342 238.400 244.171 238.398 C 240.225 238.395,239.183 237.826,237.236 234.606 C 235.646 231.979,235.101 231.612,230.928 230.365 C 228.266 229.569,227.922 229.334,226.228 227.153 C 224.798 225.311,224.165 224.800,223.317 224.800 C 222.496 224.800,221.600 224.131,219.617 222.034 C 217.860 220.177,216.264 218.928,214.762 218.234 C 211.318 216.643,211.215 216.438,211.786 212.290 C 212.510 207.031,213.715 206.035,220.119 205.401 C 223.409 205.076,224.308 205.531,225.585 208.170 C 226.477 210.013,227.762 211.291,229.875 212.438 C 230.521 212.790,231.376 213.780,231.774 214.638 C 233.290 217.912,234.026 218.335,237.793 218.100 C 241.770 217.852,242.915 218.433,244.621 221.568 C 246.110 224.304,246.730 224.544,251.030 224.050 C 255.622 223.523,257.934 222.623,258.262 221.236 C 258.397 220.666,258.733 219.930,259.009 219.600 C 259.285 219.270,259.655 218.370,259.830 217.600 C 260.150 216.197,260.139 215.586,259.659 208.257 L 259.400 204.314 258.000 203.589 C 257.230 203.190,254.440 201.844,251.800 200.599 C 246.709 198.197,242.785 195.958,241.674 194.820 C 240.383 193.499,237.229 191.586,235.919 191.330 C 235.193 191.189,233.250 190.451,231.600 189.691 C 229.086 188.533,224.252 187.202,222.550 187.200 C 222.303 187.200,221.999 187.706,221.875 188.324 C 221.604 189.680,220.228 190.398,217.881 190.406 C 215.854 190.414,215.505 190.628,214.841 192.271 C 214.132 194.025,213.361 194.603,210.730 195.356 C 208.741 195.925,208.406 196.169,208.021 197.336 C 207.484 198.962,205.888 200.525,203.950 201.322 C 203.152 201.649,202.162 202.397,201.750 202.984 C 199.897 205.619,198.977 206.485,197.005 207.450 C 195.622 208.127,194.473 209.082,193.669 210.223 C 192.994 211.180,191.756 212.396,190.917 212.926 C 190.079 213.455,188.528 214.901,187.471 216.137 C 186.414 217.374,184.917 218.686,184.144 219.053 C 183.371 219.420,182.257 220.358,181.669 221.137 C 180.007 223.339,178.384 224.800,177.599 224.800 C 176.924 224.800,175.494 226.248,173.887 228.560 C 173.494 229.124,172.315 230.148,171.266 230.835 C 170.217 231.522,168.924 232.740,168.392 233.542 C 167.861 234.344,166.947 235.567,166.361 236.260 C 165.775 236.952,164.900 238.745,164.415 240.243 C 163.285 243.743,162.339 245.037,160.161 246.060 C 158.582 246.803,158.400 247.030,158.400 248.262 C 158.400 251.067,155.752 252.394,150.149 252.398 C 146.541 252.400,146.402 252.485,145.648 255.119 C 144.789 258.123,143.906 258.397,135.087 258.399 C 123.051 258.401,122.904 258.193,122.828 240.949 C 122.798 233.953,122.782 233.902,120.486 233.411 C 117.690 232.813,116.927 229.746,116.356 216.804 C 116.128 211.636,115.895 207.361,115.837 207.304 C 115.780 207.247,115.169 207.134,114.479 207.054 C 112.971 206.878,111.433 205.927,110.600 204.656 C 110.018 203.768,107.669 202.341,108.198 203.197 C 108.598 203.843,104.522 203.685,101.290 202.930 C 98.602 202.301,98.330 202.299,97.729 202.900 C 96.993 203.635,94.239 202.478,90.340 199.796 C 85.483 196.455,76.800 194.892,76.800 197.358 C 76.800 197.521,76.350 198.243,75.800 198.964 C 75.250 199.686,74.800 200.463,74.800 200.692 C 74.800 201.627,70.222 202.968,66.351 203.167 C 65.870 203.191,65.652 203.722,65.508 205.213 C 65.296 207.425,64.036 209.200,62.678 209.200 C 61.986 209.200,61.920 209.410,62.101 211.020 C 62.303 212.815,62.295 212.829,61.511 212.120 C 60.724 211.408,60.717 211.426,60.857 213.701 C 60.938 214.997,60.825 216.074,60.600 216.169 C 60.380 216.261,60.537 216.351,60.949 216.368 C 61.598 216.396,61.625 216.488,61.152 217.058 C 60.663 217.647,60.710 217.682,61.600 217.400 C 62.490 217.118,62.537 217.153,62.048 217.742 C 61.578 218.308,61.596 218.400,62.175 218.400 C 62.545 218.400,62.736 218.580,62.600 218.800 C 62.464 219.020,62.571 219.200,62.838 219.200 C 63.140 219.200,63.049 219.504,62.600 220.000 C 61.930 220.741,61.927 220.800,62.562 220.800 C 62.939 220.800,63.136 220.980,63.000 221.200 C 62.864 221.420,62.907 221.600,63.096 221.600 C 63.285 221.600,63.366 222.230,63.276 223.000 C 63.153 224.049,62.923 224.400,62.356 224.400 C 61.715 224.400,61.600 224.705,61.600 226.400 C 61.600 228.356,61.573 228.400,60.400 228.400 C 59.212 228.400,59.200 228.378,59.200 226.200 C 59.200 223.225,58.386 222.400,55.451 222.400 L 53.303 222.400 53.123 219.295 C 53.003 217.228,52.703 215.823,52.223 215.091 C 51.511 214.004,51.200 213.870,48.350 213.414 C 45.824 213.010,45.069 208.400,47.528 208.400 C 51.143 208.400,51.800 207.352,52.230 200.907 C 52.521 196.529,52.606 196.360,54.894 195.623 C 56.661 195.054,57.881 193.642,58.235 191.755 C 58.526 190.205,58.716 190.041,61.200 189.205 C 62.789 188.671,63.141 188.322,64.200 186.233 C 64.860 184.931,65.670 183.745,66.000 183.598 C 69.502 182.033,69.805 181.785,70.402 180.000 C 71.189 177.647,71.973 176.585,73.200 176.208 C 74.478 175.815,75.371 174.872,76.278 172.955 C 76.675 172.115,77.630 171.027,78.400 170.537 C 81.286 168.699,81.863 168.026,82.966 165.216 C 83.603 163.592,84.847 161.474,85.858 160.288 C 87.033 158.912,87.839 157.464,88.241 156.004 C 89.127 152.794,89.589 152.046,91.495 150.734 C 92.558 150.003,93.586 148.812,94.200 147.600 C 94.745 146.524,95.674 145.319,96.264 144.922 C 97.647 143.992,100.393 141.244,101.328 139.856 C 101.729 139.261,102.754 138.334,103.606 137.796 C 104.465 137.254,105.642 135.967,106.246 134.909 C 106.845 133.859,108.430 131.920,109.768 130.600 C 111.106 129.280,112.509 127.611,112.886 126.892 C 113.343 126.020,114.173 125.326,115.371 124.812 C 116.814 124.194,117.419 123.600,118.428 121.812 C 119.303 120.262,120.221 119.270,121.444 118.553 C 123.398 117.408,124.800 115.847,124.800 114.816 C 124.800 114.006,126.118 112.737,127.891 111.841 C 128.610 111.478,129.791 110.237,130.554 109.045 C 131.435 107.668,132.541 106.561,133.647 105.951 C 134.594 105.428,135.771 104.370,136.262 103.600 C 137.859 101.096,138.901 99.936,139.960 99.483 C 141.121 98.987,142.764 97.261,142.786 96.514 C 142.808 95.763,145.145 93.271,146.117 92.963 C 147.381 92.562,149.200 91.131,149.200 90.539 C 149.200 89.771,151.526 87.276,152.525 86.972 C 153.849 86.569,154.788 85.594,155.828 83.544 C 156.491 82.237,157.361 81.323,158.771 80.456 C 160.244 79.550,161.015 78.718,161.687 77.312 C 162.299 76.031,162.996 75.230,163.800 74.886 C 166.436 73.757,166.971 73.336,167.769 71.757 C 168.944 69.433,169.519 68.842,171.514 67.905 C 172.953 67.228,173.466 66.672,174.342 64.839 C 175.261 62.913,175.730 62.432,177.693 61.400 C 178.947 60.740,180.626 59.433,181.422 58.495 C 183.301 56.284,183.897 55.995,187.703 55.453 C 192.616 54.753,198.287 55.221,200.452 56.504 M74.691 110.147 C 74.830 110.372,74.651 110.428,74.266 110.281 C 73.824 110.111,73.600 110.231,73.600 110.636 C 73.600 110.972,73.440 111.149,73.245 111.028 C 73.050 110.907,72.915 111.122,72.945 111.504 C 72.975 111.887,72.813 112.168,72.585 112.128 C 72.357 112.089,72.143 112.539,72.111 113.128 C 72.060 114.064,72.096 114.098,72.398 113.400 C 72.634 112.855,72.757 112.791,72.784 113.200 C 72.833 113.935,73.625 112.712,73.779 111.662 C 73.833 111.298,74.069 111.000,74.305 111.000 C 74.540 111.000,74.868 110.865,75.033 110.700 C 75.198 110.535,75.528 110.405,75.767 110.412 C 76.005 110.419,75.897 110.601,75.527 110.817 C 75.155 111.034,74.854 111.700,74.855 112.305 C 74.855 112.907,74.764 113.801,74.652 114.292 C 74.541 114.782,74.646 115.305,74.886 115.453 C 75.138 115.609,75.210 115.540,75.057 115.292 C 74.910 115.055,75.107 114.778,75.495 114.677 C 76.146 114.507,76.147 114.489,75.510 114.446 C 74.936 114.408,74.886 114.226,75.213 113.366 C 75.429 112.798,75.511 112.180,75.396 111.994 C 75.281 111.808,75.398 111.525,75.655 111.366 C 75.948 111.185,76.016 111.250,75.838 111.538 C 75.681 111.792,75.724 112.000,75.934 112.000 C 76.143 112.000,76.422 111.719,76.554 111.375 C 76.686 111.031,76.963 110.854,77.170 110.981 C 77.376 111.109,77.634 111.068,77.744 110.891 C 77.853 110.714,77.157 110.386,76.197 110.164 C 75.088 109.906,74.538 109.900,74.691 110.147 M72.587 114.306 C 71.897 114.797,72.149 115.781,73.000 115.916 C 73.614 116.014,73.671 115.955,73.242 115.662 C 72.788 115.352,72.826 115.245,73.442 115.087 C 74.136 114.909,74.139 114.889,73.476 114.846 C 73.078 114.821,72.864 114.620,73.000 114.400 C 73.291 113.929,73.159 113.899,72.587 114.306 M208.310 175.312 C 207.710 176.020,207.215 176.816,207.210 177.080 C 207.204 177.344,206.885 177.744,206.500 177.968 C 205.953 178.287,206.215 178.378,207.700 178.388 L 209.600 178.400 209.600 176.200 C 209.600 174.990,209.555 174.005,209.500 174.012 C 209.445 174.019,208.909 174.604,208.310 175.312 M397.500 178.282 C 397.995 178.378,398.805 178.378,399.300 178.282 C 399.795 178.187,399.390 178.109,398.400 178.109 C 397.410 178.109,397.005 178.187,397.500 178.282 M201.000 180.846 C 199.680 181.281,198.187 182.098,197.682 182.661 C 196.734 183.720,195.987 183.758,191.900 182.953 C 190.828 182.742,190.800 182.783,190.800 184.581 C 190.800 188.288,189.530 189.845,186.104 190.340 C 184.423 190.583,184.264 190.714,183.653 192.359 C 181.802 197.344,174.749 197.217,173.013 192.167 C 172.610 190.995,172.263 190.607,171.637 190.629 C 171.177 190.644,169.637 190.689,168.215 190.729 L 165.631 190.800 165.210 192.362 C 164.572 194.734,163.640 195.615,161.188 196.168 L 159.006 196.659 158.534 198.784 C 157.956 201.387,157.406 201.970,154.936 202.597 C 153.085 203.067,152.996 203.156,152.716 204.795 C 152.109 208.349,151.214 208.788,144.550 208.796 L 140.900 208.800 140.650 210.050 C 140.301 211.793,140.348 222.511,140.706 223.004 C 140.868 223.226,141.748 223.892,142.663 224.485 C 143.726 225.173,144.483 226.039,144.762 226.884 C 145.382 228.764,146.232 229.129,150.252 229.245 C 154.277 229.361,154.909 229.124,156.389 226.945 C 157.080 225.929,158.204 225.034,159.679 224.326 C 161.048 223.670,162.442 222.595,163.260 221.565 C 164.290 220.270,165.481 219.472,168.400 218.120 C 170.957 216.936,172.669 215.846,173.633 214.788 C 174.421 213.923,175.896 212.847,176.911 212.398 C 178.721 211.597,180.400 209.966,180.400 209.007 C 180.400 208.357,183.106 205.600,183.744 205.600 C 184.493 205.600,186.261 203.555,186.540 202.365 C 186.932 200.695,188.329 199.250,189.983 198.805 C 191.402 198.422,191.560 198.235,192.000 196.400 C 192.606 193.872,193.662 192.531,195.305 192.201 C 197.966 191.665,197.924 191.712,198.215 188.994 C 198.539 185.976,198.709 185.791,201.600 185.340 L 203.800 184.996 203.919 183.384 C 203.984 182.497,203.894 181.385,203.719 180.913 L 203.400 180.056 201.000 180.846 " stroke="none" fill="#1859e2" fill-rule="evenodd"></path><path id="path3" d="M187.703 55.453 C 183.897 55.995,183.301 56.284,181.422 58.495 C 180.626 59.433,178.947 60.740,177.693 61.400 C 175.730 62.432,175.261 62.913,174.342 64.839 C 173.466 66.672,172.953 67.228,171.514 67.905 C 169.519 68.842,168.944 69.433,167.769 71.757 C 166.971 73.336,166.436 73.757,163.800 74.886 C 162.996 75.230,162.299 76.031,161.687 77.312 C 161.015 78.718,160.244 79.550,158.771 80.456 C 157.361 81.323,156.491 82.237,155.828 83.544 C 154.788 85.594,153.849 86.569,152.525 86.972 C 151.526 87.276,149.200 89.771,149.200 90.539 C 149.200 91.131,147.381 92.562,146.117 92.963 C 145.145 93.271,142.808 95.763,142.786 96.514 C 142.764 97.261,141.121 98.987,139.960 99.483 C 138.901 99.936,137.859 101.096,136.262 103.600 C 135.771 104.370,134.594 105.428,133.647 105.951 C 132.541 106.561,131.435 107.668,130.554 109.045 C 129.791 110.237,128.610 111.478,127.891 111.841 C 126.118 112.737,124.800 114.006,124.800 114.816 C 124.800 115.847,123.398 117.408,121.444 118.553 C 120.221 119.270,119.303 120.262,118.428 121.812 C 117.419 123.600,116.814 124.194,115.371 124.812 C 114.173 125.326,113.343 126.020,112.886 126.892 C 112.509 127.611,111.106 129.280,109.768 130.600 C 108.430 131.920,106.845 133.859,106.246 134.909 C 105.642 135.967,104.465 137.254,103.606 137.796 C 102.754 138.334,101.729 139.261,101.328 139.856 C 100.393 141.244,97.647 143.992,96.264 144.922 C 95.674 145.319,94.745 146.524,94.200 147.600 C 93.586 148.812,92.558 150.003,91.495 150.734 C 89.589 152.046,89.127 152.794,88.241 156.004 C 87.839 157.464,87.033 158.912,85.858 160.288 C 84.847 161.474,83.603 163.592,82.966 165.216 C 81.863 168.026,81.287 168.698,78.400 170.537 C 77.630 171.027,76.722 172.015,76.381 172.732 C 75.381 174.841,74.394 175.937,73.261 176.197 C 71.978 176.491,71.124 177.624,70.457 179.919 C 70.111 181.109,69.563 181.888,68.678 182.450 C 67.576 183.150,67.538 183.224,68.400 182.988 C 69.818 182.600,70.317 182.021,71.167 179.782 C 71.914 177.814,71.917 177.812,74.443 177.301 C 77.533 176.676,77.664 176.551,77.907 174.024 C 78.184 171.148,78.804 171.465,80.801 175.500 C 81.754 177.425,82.779 179.290,83.079 179.645 C 83.379 180.000,83.691 180.634,83.772 181.053 C 83.853 181.473,84.264 182.443,84.686 183.208 C 85.333 184.382,85.418 185.117,85.227 187.906 L 85.000 191.212 81.229 193.106 C 77.614 194.921,75.221 197.354,76.142 198.275 C 76.274 198.407,76.503 198.174,76.651 197.757 C 77.352 195.793,77.710 195.697,81.493 196.461 C 85.862 197.344,87.884 198.107,90.340 199.796 C 94.239 202.478,96.993 203.635,97.729 202.900 C 98.330 202.299,98.602 202.301,101.290 202.930 C 104.522 203.685,108.598 203.843,108.198 203.197 C 107.669 202.341,110.018 203.768,110.600 204.656 C 111.433 205.927,112.971 206.878,114.479 207.054 C 115.169 207.134,115.780 207.247,115.837 207.304 C 115.895 207.361,116.128 211.636,116.356 216.804 C 116.927 229.746,117.690 232.813,120.486 233.411 C 122.782 233.902,122.798 233.953,122.828 240.949 C 122.904 258.193,123.051 258.401,135.087 258.399 C 143.906 258.397,144.789 258.123,145.648 255.119 C 146.402 252.485,146.541 252.400,150.149 252.398 C 155.752 252.394,158.400 251.067,158.400 248.262 C 158.400 247.030,158.582 246.803,160.161 246.060 C 162.339 245.037,163.285 243.743,164.415 240.243 C 164.900 238.745,165.775 236.952,166.361 236.260 C 166.947 235.567,167.861 234.344,168.392 233.542 C 168.924 232.740,170.217 231.522,171.266 230.835 C 172.315 230.148,173.494 229.124,173.887 228.560 C 175.494 226.248,176.924 224.800,177.599 224.800 C 178.384 224.800,180.007 223.339,181.669 221.137 C 182.257 220.358,183.371 219.420,184.144 219.053 C 184.917 218.686,186.414 217.374,187.471 216.137 C 188.528 214.901,190.079 213.455,190.917 212.926 C 191.756 212.396,192.994 211.180,193.669 210.223 C 194.473 209.082,195.622 208.127,197.005 207.450 C 198.977 206.485,199.897 205.619,201.750 202.984 C 202.162 202.397,203.152 201.649,203.950 201.322 C 205.888 200.525,207.484 198.962,208.021 197.336 C 208.406 196.169,208.741 195.925,210.730 195.356 C 213.361 194.603,214.132 194.025,214.841 192.271 C 215.505 190.628,215.854 190.414,217.881 190.406 C 220.228 190.398,221.604 189.680,221.875 188.324 C 221.999 187.706,222.303 187.200,222.550 187.200 C 224.252 187.202,229.086 188.533,231.600 189.691 C 233.250 190.451,235.193 191.189,235.919 191.330 C 237.229 191.586,240.383 193.499,241.674 194.820 C 242.785 195.958,246.709 198.197,251.800 200.599 C 254.440 201.844,257.230 203.190,258.000 203.589 L 259.400 204.314 259.659 208.257 C 260.139 215.586,260.150 216.197,259.830 217.600 C 259.655 218.370,259.285 219.270,259.009 219.600 C 258.733 219.930,258.397 220.666,258.262 221.236 C 257.934 222.623,255.622 223.523,251.030 224.050 C 246.730 224.544,246.110 224.304,244.621 221.568 C 242.915 218.433,241.770 217.852,237.793 218.100 C 234.026 218.335,233.290 217.912,231.774 214.638 C 231.376 213.780,230.521 212.790,229.875 212.438 C 227.762 211.291,226.477 210.013,225.585 208.170 C 224.308 205.531,223.409 205.076,220.119 205.401 C 213.715 206.035,212.510 207.031,211.786 212.290 C 211.215 216.438,211.318 216.643,214.762 218.234 C 216.264 218.928,217.860 220.177,219.617 222.034 C 221.600 224.131,222.496 224.800,223.317 224.800 C 224.165 224.800,224.798 225.311,226.228 227.153 C 227.922 229.334,228.266 229.569,230.928 230.365 C 235.101 231.612,235.646 231.979,237.236 234.606 C 239.183 237.826,240.225 238.395,244.171 238.398 L 247.342 238.400 249.776 241.021 C 252.453 243.902,253.557 244.373,257.672 244.390 C 260.131 244.401,259.964 244.287,264.100 248.773 L 265.600 250.400 269.330 250.400 C 274.286 250.400,275.600 249.154,275.600 244.452 C 275.600 241.085,276.064 240.130,279.024 237.400 C 281.515 235.102,281.649 234.881,282.188 232.200 C 282.806 229.126,284.402 215.076,284.401 212.724 C 284.400 210.902,284.588 210.783,287.749 210.609 C 289.417 210.517,290.964 210.132,292.246 209.491 C 293.321 208.954,294.654 208.405,295.210 208.272 C 295.765 208.139,297.565 207.017,299.210 205.780 C 302.031 203.657,307.853 200.400,308.828 200.400 C 309.073 200.400,309.728 200.042,310.284 199.605 C 310.839 199.168,311.466 198.917,311.677 199.047 C 311.887 199.177,312.468 198.900,312.967 198.431 C 313.466 197.962,314.243 197.507,314.692 197.421 C 315.142 197.334,316.414 196.614,317.518 195.821 C 318.638 195.016,319.590 194.571,319.672 194.815 C 319.752 195.055,320.859 194.340,322.132 193.226 C 323.405 192.112,324.610 191.200,324.811 191.200 C 325.011 191.200,325.078 190.948,324.960 190.640 C 324.842 190.333,324.966 189.945,325.235 189.779 C 325.576 189.567,325.622 189.645,325.385 190.038 C 325.030 190.627,325.576 190.288,327.333 188.826 C 328.124 188.168,330.269 188.205,331.103 188.889 C 331.423 189.153,333.021 189.207,335.503 189.040 C 337.646 188.896,340.835 188.689,342.589 188.580 C 345.571 188.395,346.754 187.857,346.504 186.800 C 346.478 186.690,346.701 186.330,347.000 186.000 C 347.299 185.670,347.511 185.220,347.471 185.000 C 347.360 184.376,353.197 183.910,353.964 184.483 C 354.531 184.904,354.534 184.889,354.000 184.344 C 353.670 184.007,352.626 183.512,351.681 183.244 C 349.946 182.752,348.405 181.018,348.401 179.554 C 348.399 178.507,346.880 176.881,345.651 176.611 C 344.185 176.289,342.627 174.608,342.012 172.685 C 341.628 171.484,341.165 170.999,339.772 170.345 C 338.075 169.547,336.400 167.549,336.400 166.323 C 336.400 165.596,335.064 164.426,333.099 163.432 C 331.994 162.873,331.338 162.123,330.612 160.588 C 329.861 159.002,329.264 158.336,328.113 157.802 C 326.218 156.923,324.800 155.653,324.799 154.830 C 324.795 153.190,323.264 151.694,320.514 150.643 C 318.609 149.915,317.224 149.047,316.032 147.833 C 315.050 146.832,313.151 145.543,311.619 144.836 C 309.007 143.633,307.750 142.563,306.298 140.311 C 305.912 139.712,304.614 138.594,303.414 137.826 C 302.002 136.923,300.948 135.875,300.429 134.856 C 299.987 133.990,299.059 132.859,298.366 132.341 C 296.410 130.879,294.307 128.689,293.096 126.852 C 292.488 125.931,291.588 125.021,291.096 124.831 C 289.982 124.401,288.700 123.009,287.828 121.283 C 287.446 120.528,286.222 119.365,284.962 118.559 C 283.587 117.679,282.330 116.449,281.608 115.276 C 280.099 112.826,278.827 112.130,275.204 111.773 C 272.029 111.460,271.677 111.238,269.259 108.025 C 268.741 107.337,267.639 106.428,266.809 106.005 C 265.230 105.199,263.858 103.741,262.733 101.675 C 262.366 101.001,261.339 100.079,260.452 99.626 C 259.305 99.042,258.449 98.138,257.499 96.512 C 255.980 93.912,254.783 93.082,250.993 91.998 C 249.098 91.456,247.841 90.787,246.641 89.680 C 245.713 88.825,244.064 87.797,242.977 87.397 C 240.907 86.634,238.800 84.999,238.800 84.156 C 238.800 83.320,236.707 81.120,235.387 80.569 C 233.933 79.961,233.368 79.349,232.000 76.895 C 230.895 74.913,229.993 74.467,225.310 73.583 C 222.609 73.073,221.893 72.596,220.253 70.211 C 219.836 69.605,218.405 68.630,217.021 68.009 C 214.984 67.096,214.407 66.615,213.818 65.347 C 212.600 62.721,211.681 62.048,207.560 60.768 C 204.725 59.887,203.486 59.293,202.943 58.552 C 200.792 55.619,194.919 54.425,187.703 55.453 M198.806 57.803 C 199.895 58.355,201.086 59.264,201.452 59.824 C 202.335 61.170,203.668 61.818,206.805 62.423 C 210.012 63.042,210.638 63.452,212.408 66.096 C 213.377 67.543,214.455 68.543,215.859 69.299 C 216.982 69.903,218.731 71.369,219.745 72.557 L 221.590 74.716 224.816 75.001 C 228.481 75.326,229.630 76.015,231.327 78.911 C 231.900 79.889,233.005 80.993,233.934 81.515 C 235.631 82.468,236.955 83.882,238.068 85.927 C 238.458 86.643,239.541 87.565,240.668 88.140 C 241.731 88.683,243.707 90.019,245.061 91.110 C 247.044 92.709,248.092 93.232,250.461 93.802 C 254.229 94.709,254.548 94.888,255.629 96.695 C 256.882 98.790,257.955 99.940,259.692 101.048 C 260.512 101.571,261.530 102.675,261.953 103.500 C 262.871 105.291,263.999 106.354,266.341 107.639 C 267.424 108.233,268.366 109.149,268.832 110.063 C 269.998 112.348,271.399 113.112,275.024 113.441 C 278.458 113.752,279.220 114.237,281.006 117.243 C 281.478 118.040,282.663 119.058,283.874 119.708 C 285.461 120.561,286.140 121.236,286.817 122.636 C 287.466 123.976,288.202 124.736,289.610 125.522 C 291.173 126.395,291.748 127.048,292.760 129.101 C 293.743 131.095,294.308 131.752,295.499 132.289 C 297.411 133.152,298.799 134.362,298.803 135.170 C 298.808 136.372,300.395 138.205,302.293 139.200 C 303.672 139.923,304.421 140.656,305.000 141.847 C 306.157 144.228,306.636 144.681,309.215 145.839 C 310.983 146.632,311.595 147.131,311.794 147.940 C 312.478 150.727,314.677 152.149,319.384 152.849 L 322.400 153.297 322.400 155.223 C 322.400 157.640,322.976 159.200,323.869 159.200 C 324.409 159.200,324.294 159.479,323.330 160.500 C 322.656 161.215,321.475 162.801,320.706 164.024 C 319.178 166.453,317.825 167.645,312.991 170.817 C 311.236 171.969,309.160 173.337,308.378 173.856 C 307.597 174.375,306.403 174.800,305.725 174.800 C 304.928 174.800,303.594 175.414,301.947 176.541 C 298.652 178.793,297.551 179.324,294.400 180.184 C 287.429 182.088,280.800 189.100,280.800 194.571 C 280.800 196.987,280.688 197.345,279.535 198.612 C 277.813 200.504,277.890 200.945,277.782 188.639 C 277.677 176.815,277.464 175.580,275.431 175.034 C 273.794 174.594,273.413 174.724,274.061 175.500 C 275.443 177.155,275.600 178.396,275.600 187.672 C 275.600 197.479,275.302 199.630,273.848 200.335 C 273.063 200.715,273.089 200.748,274.200 200.778 C 276.403 200.838,277.200 201.228,277.200 202.247 C 277.200 203.317,278.061 204.269,279.954 205.291 C 282.360 206.590,282.620 208.011,281.838 215.600 C 280.493 228.645,279.335 233.049,276.662 235.283 C 274.534 237.062,273.200 240.636,273.200 244.559 C 273.200 247.900,272.996 248.041,268.896 247.517 C 266.298 247.186,265.600 246.959,265.599 246.448 C 265.592 243.481,262.189 241.621,256.742 241.609 L 252.885 241.600 251.942 239.701 C 250.533 236.859,249.214 236.174,244.532 235.852 C 240.270 235.559,239.600 235.196,239.600 233.183 C 239.600 230.589,237.879 228.400,235.839 228.400 C 235.509 228.400,234.705 227.635,234.052 226.700 C 233.066 225.285,232.307 224.770,229.533 223.627 C 227.700 222.873,225.493 221.658,224.628 220.927 C 223.763 220.197,222.818 219.600,222.528 219.600 C 222.238 219.600,222.000 219.411,222.000 219.181 C 222.000 218.274,219.819 216.817,217.779 216.360 L 215.631 215.880 215.403 214.040 C 215.277 213.028,215.092 211.546,214.990 210.747 C 214.745 208.814,215.171 208.556,219.074 208.269 C 222.971 207.983,223.624 208.357,224.407 211.319 C 224.906 213.207,226.189 214.400,227.718 214.400 C 228.655 214.400,229.483 215.709,229.717 217.559 C 230.106 220.634,230.827 221.000,236.513 221.002 L 241.400 221.003 242.000 222.851 C 243.393 227.139,245.613 227.524,256.400 225.350 C 262.052 224.211,262.668 222.219,261.539 208.736 C 261.018 202.527,261.060 202.384,263.726 201.189 C 264.790 200.712,265.068 200.435,264.644 200.272 C 262.387 199.406,262.028 197.648,261.986 187.272 C 261.957 180.015,262.075 177.375,262.452 176.873 C 262.923 176.244,262.908 176.244,262.226 176.866 C 261.392 177.628,260.621 181.518,260.218 187.000 C 259.793 192.777,259.784 192.800,258.024 192.800 C 254.194 192.800,252.793 192.347,250.923 190.503 C 248.618 188.231,247.065 187.600,243.775 187.600 C 240.760 187.600,239.428 186.910,238.008 184.613 C 236.529 182.220,234.894 181.510,231.512 181.792 C 224.069 182.414,222.002 182.866,221.074 184.075 C 220.593 184.701,219.765 185.767,219.234 186.443 C 218.702 187.120,217.343 188.111,216.213 188.646 C 215.083 189.181,213.561 190.252,212.831 191.026 C 212.101 191.799,210.851 192.767,210.052 193.175 C 208.405 194.017,207.116 195.194,205.450 197.376 C 204.817 198.205,203.647 199.152,202.850 199.481 C 201.027 200.234,200.148 201.004,198.937 202.910 C 198.270 203.959,197.326 204.708,195.845 205.363 C 193.880 206.232,192.062 208.010,191.509 209.604 C 191.393 209.936,190.498 210.422,189.518 210.684 C 187.182 211.309,186.090 212.246,185.425 214.200 L 184.880 215.800 181.801 216.239 C 180.014 216.494,178.574 216.914,178.367 217.239 C 178.108 217.649,178.011 217.515,178.006 216.745 C 178.001 215.805,178.190 215.662,179.754 215.428 C 182.055 215.083,182.847 214.133,183.152 211.354 C 183.307 209.930,183.624 208.975,184.000 208.791 C 184.330 208.629,185.277 208.207,186.104 207.853 C 187.182 207.392,187.789 206.782,188.245 205.704 C 189.544 202.633,189.860 202.191,191.559 201.049 C 192.805 200.212,193.559 199.287,194.228 197.774 C 194.907 196.239,195.665 195.319,197.011 194.392 C 198.029 193.692,199.478 192.156,200.231 190.979 C 200.984 189.802,202.387 188.297,203.348 187.636 C 204.501 186.842,205.400 185.780,205.988 184.516 C 206.987 182.367,208.280 180.800,209.055 180.800 C 209.768 180.800,211.600 178.011,211.600 176.926 C 211.600 175.133,214.762 169.600,215.787 169.600 C 216.115 169.600,216.751 170.320,217.200 171.200 C 217.649 172.080,218.081 172.800,218.159 172.800 C 218.238 172.800,218.999 173.090,219.851 173.445 C 221.399 174.090,221.400 174.090,220.668 173.279 C 219.222 171.674,221.546 169.413,223.257 170.760 L 224.200 171.502 223.833 167.984 C 223.314 163.009,224.052 161.042,226.732 160.261 C 228.225 159.826,228.594 159.544,228.571 158.858 C 228.456 155.382,228.364 154.775,227.989 155.007 C 227.763 155.147,225.682 155.596,223.366 156.006 C 221.049 156.416,218.342 157.144,217.351 157.624 L 215.548 158.496 212.419 157.605 C 209.426 156.753,208.400 155.946,208.400 154.442 C 208.400 154.265,207.322 152.256,206.005 149.976 C 204.688 147.696,203.563 145.689,203.505 145.515 C 203.169 144.509,191.726 142.433,186.372 142.409 L 184.544 142.400 182.300 145.704 C 179.031 150.517,178.646 150.804,174.816 151.293 C 171.819 151.676,171.420 151.839,169.683 153.392 C 167.062 155.737,166.389 156.020,162.701 156.329 C 159.520 156.595,159.449 156.624,159.130 157.800 C 158.643 159.592,158.914 159.864,161.466 160.153 C 165.208 160.577,167.880 162.026,168.815 164.140 C 169.601 165.918,169.996 166.188,173.283 167.196 C 174.759 167.649,176.400 169.595,176.400 170.893 C 176.400 172.195,178.038 173.569,180.371 174.224 C 184.106 175.272,188.800 181.069,188.800 184.633 C 188.800 185.514,186.761 187.604,185.050 188.476 C 184.142 188.939,182.385 190.371,181.144 191.659 C 179.903 192.946,178.604 194.000,178.258 194.000 C 177.453 194.000,174.800 191.687,174.800 190.986 C 174.800 189.630,172.588 188.800,168.977 188.800 L 165.477 188.800 163.939 190.467 C 163.092 191.383,162.400 192.273,162.400 192.444 C 162.400 192.615,161.635 193.208,160.700 193.762 C 159.760 194.319,158.282 195.787,157.394 197.046 C 154.395 201.297,153.232 201.585,151.636 198.474 L 150.927 197.091 150.672 200.404 C 150.248 205.894,148.825 207.204,144.058 206.488 L 141.000 206.030 139.474 207.627 L 137.949 209.224 138.074 216.112 C 138.302 228.566,141.167 231.365,153.468 231.149 L 160.091 231.032 161.445 232.510 C 164.503 235.846,163.392 241.628,159.200 244.199 C 157.990 244.941,156.202 246.365,155.228 247.363 C 153.651 248.978,153.122 249.248,150.428 249.817 C 146.360 250.676,145.681 251.065,144.181 253.400 C 141.889 256.967,141.967 256.936,135.910 256.688 C 129.855 256.440,128.084 256.021,126.279 254.409 L 125.000 253.267 124.800 243.534 L 124.600 233.800 123.475 231.772 C 122.857 230.656,121.833 229.438,121.201 229.064 C 118.526 227.484,117.792 224.698,117.867 216.400 C 118.507 145.118,118.171 151.767,121.219 150.190 C 123.247 149.141,140.545 149.341,141.928 150.429 C 143.817 151.915,144.393 153.202,144.422 156.000 L 144.449 158.600 145.455 155.674 C 146.739 151.936,146.294 149.837,143.977 148.704 C 142.343 147.904,121.449 147.375,118.934 148.069 C 116.617 148.709,116.310 149.886,116.031 159.199 C 115.793 167.124,115.763 167.353,115.146 166.000 C 114.589 164.780,111.916 161.850,109.953 160.308 C 109.523 159.970,109.147 158.595,108.831 156.200 C 108.208 151.473,107.641 149.648,106.630 149.117 C 106.173 148.877,105.710 148.569,105.600 148.432 C 105.490 148.295,104.905 147.966,104.300 147.700 C 103.234 147.232,103.200 147.120,103.200 144.060 L 103.200 140.902 104.896 140.631 C 107.154 140.270,108.398 139.065,108.406 137.230 C 108.414 135.168,109.187 133.983,110.904 133.402 C 113.069 132.667,113.532 132.156,114.241 129.718 C 114.808 127.767,115.048 127.464,116.537 126.817 C 118.838 125.818,119.894 124.788,120.490 122.962 C 120.890 121.736,121.394 121.192,122.835 120.431 C 124.352 119.629,124.857 119.052,125.746 117.106 C 126.474 115.511,127.218 114.532,128.050 114.075 C 130.212 112.887,131.203 111.962,132.010 110.379 C 132.491 109.437,133.472 108.440,134.524 107.824 C 136.523 106.652,137.672 105.480,138.448 103.820 C 138.752 103.171,139.968 101.902,141.150 101.000 C 142.333 100.098,143.628 98.721,144.029 97.940 C 144.710 96.612,145.719 95.624,148.847 93.219 C 149.549 92.679,150.479 91.635,150.913 90.898 C 151.348 90.161,152.663 88.944,153.836 88.194 C 155.163 87.345,156.262 86.258,156.745 85.315 C 157.558 83.729,158.288 82.930,161.100 80.547 C 162.035 79.755,162.800 78.892,162.800 78.629 C 162.800 77.873,165.271 75.536,166.709 74.932 C 167.535 74.585,168.467 73.653,169.231 72.412 C 169.993 71.172,171.172 69.993,172.412 69.231 C 173.765 68.398,174.577 67.551,175.006 66.524 C 175.874 64.447,176.652 63.688,179.274 62.364 C 180.525 61.732,182.030 60.582,182.620 59.810 C 184.106 57.861,187.544 56.906,193.313 56.840 C 196.319 56.806,197.112 56.945,198.806 57.803 M246.677 167.299 C 246.404 169.340,245.072 170.651,242.898 171.017 C 242.074 171.156,240.590 171.488,239.600 171.754 L 237.800 172.239 239.400 173.265 C 240.939 174.252,241.145 174.280,244.806 173.984 C 254.700 173.186,255.381 172.511,250.576 168.269 C 247.005 165.118,246.971 165.110,246.677 167.299 M142.950 167.800 C 142.262 168.460,140.966 169.630,140.069 170.400 L 138.440 171.800 138.175 181.600 L 137.910 191.400 139.467 193.152 L 141.024 194.904 142.973 191.952 C 146.092 187.230,146.764 186.891,149.042 188.890 C 150.705 190.351,150.694 190.469,149.307 186.111 C 148.413 183.302,149.166 181.524,151.730 180.390 C 155.334 178.795,155.350 177.493,151.776 176.476 C 149.935 175.952,148.678 174.756,148.121 173.000 C 147.911 172.336,147.264 171.567,146.674 171.280 C 145.480 170.698,144.762 169.587,144.426 167.800 L 144.200 166.600 142.950 167.800 M209.600 176.200 L 209.600 178.400 207.700 178.388 C 206.215 178.378,205.953 178.287,206.500 177.968 C 206.885 177.744,207.204 177.344,207.210 177.080 C 207.218 176.680,209.181 174.051,209.500 174.012 C 209.555 174.005,209.600 174.990,209.600 176.200 M203.919 183.384 L 203.800 184.996 201.600 185.340 C 198.709 185.791,198.539 185.976,198.215 188.994 C 197.924 191.712,197.966 191.665,195.305 192.201 C 193.662 192.531,192.606 193.872,192.000 196.400 C 191.560 198.235,191.402 198.422,189.983 198.805 C 188.329 199.250,186.932 200.695,186.540 202.365 C 186.261 203.555,184.493 205.600,183.744 205.600 C 183.106 205.600,180.400 208.357,180.400 209.007 C 180.400 209.966,178.721 211.597,176.911 212.398 C 175.896 212.847,174.421 213.923,173.633 214.788 C 172.669 215.846,170.957 216.936,168.400 218.120 C 165.481 219.472,164.290 220.270,163.260 221.565 C 162.442 222.595,161.048 223.670,159.679 224.326 C 158.204 225.034,157.080 225.929,156.389 226.945 C 154.909 229.124,154.277 229.361,150.252 229.245 C 146.232 229.129,145.382 228.764,144.762 226.884 C 144.483 226.039,143.726 225.173,142.663 224.485 C 141.748 223.892,140.868 223.226,140.706 223.004 C 140.348 222.511,140.301 211.793,140.650 210.050 L 140.900 208.800 144.550 208.796 C 151.214 208.788,152.109 208.349,152.716 204.795 C 152.996 203.156,153.085 203.067,154.936 202.597 C 157.406 201.970,157.956 201.387,158.534 198.784 L 159.006 196.659 161.188 196.168 C 163.640 195.615,164.572 194.734,165.210 192.362 L 165.631 190.800 168.215 190.729 C 169.637 190.689,171.177 190.644,171.637 190.629 C 172.263 190.607,172.610 190.995,173.013 192.167 C 174.749 197.217,181.802 197.344,183.653 192.359 C 184.264 190.714,184.423 190.583,186.104 190.340 C 189.530 189.845,190.800 188.288,190.800 184.581 C 190.800 182.783,190.828 182.742,191.900 182.953 C 195.987 183.758,196.734 183.720,197.682 182.661 C 198.187 182.098,199.680 181.281,201.000 180.846 L 203.400 180.056 203.719 180.913 C 203.894 181.385,203.984 182.497,203.919 183.384 M332.892 202.400 C 331.770 203.084,331.622 203.355,331.847 204.299 C 332.360 206.445,333.200 206.710,333.200 204.726 C 333.200 203.968,333.553 203.076,334.070 202.526 C 335.137 201.390,334.637 201.336,332.892 202.400 M175.341 221.683 C 176.020 222.040,175.986 222.122,174.941 222.663 C 174.314 222.987,173.428 223.601,172.974 224.027 C 171.649 225.268,170.114 224.724,169.520 222.803 C 169.070 221.346,173.188 220.554,175.341 221.683 M166.998 225.855 C 168.433 226.405,168.488 227.933,167.117 229.158 C 165.946 230.204,165.748 230.255,164.622 229.795 C 163.950 229.521,162.368 229.172,161.106 229.020 C 157.328 228.565,157.786 227.448,162.032 226.764 C 163.413 226.541,164.826 226.194,165.172 225.992 C 165.936 225.545,166.149 225.529,166.998 225.855 " stroke="none" fill="#1a9bf3" fill-rule="evenodd"></path><path id="path4" d="M188.831 7.631 C 187.066 9.396,187.249 9.600,190.600 9.600 C 193.961 9.600,194.198 9.337,192.431 7.569 C 190.953 6.091,190.360 6.101,188.831 7.631 M180.800 9.618 C 180.362 9.915,180.524 9.952,181.400 9.756 C 182.871 9.427,183.190 9.198,182.167 9.206 C 181.745 9.209,181.130 9.395,180.800 9.618 M205.200 9.600 C 205.976 10.101,206.400 10.101,206.400 9.600 C 206.400 9.380,205.995 9.203,205.500 9.206 C 204.772 9.211,204.715 9.286,205.200 9.600 M178.616 10.139 C 178.210 10.435,178.041 10.767,178.239 10.875 C 178.438 10.984,178.915 10.742,179.300 10.337 C 180.115 9.479,179.687 9.355,178.616 10.139 M178.267 12.267 C 178.120 12.413,178.000 12.893,178.000 13.333 C 178.000 14.315,178.365 14.018,178.590 12.854 C 178.764 11.951,178.699 11.834,178.267 12.267 M166.124 16.205 C 165.879 16.468,165.733 18.044,165.780 19.912 C 165.825 21.700,165.744 23.089,165.598 22.999 C 165.452 22.909,165.333 23.097,165.333 23.418 C 165.333 23.738,165.558 24.000,165.833 24.000 C 166.108 24.000,166.401 24.203,166.484 24.452 C 166.688 25.063,171.938 25.356,173.315 24.832 C 174.675 24.315,175.183 23.038,175.384 19.626 C 175.470 18.169,175.599 16.713,175.670 16.389 C 175.837 15.633,166.821 15.459,166.124 16.205 M214.641 16.238 C 214.507 16.587,214.514 17.062,214.658 17.293 C 214.801 17.525,215.026 18.723,215.159 19.957 C 215.425 22.436,216.024 22.785,219.038 22.219 C 221.255 21.803,219.080 18.087,216.196 17.363 C 215.638 17.223,215.335 16.913,215.454 16.604 C 215.564 16.316,215.481 15.974,215.269 15.843 C 215.057 15.712,214.774 15.890,214.641 16.238 M159.730 23.697 C 159.814 24.537,159.729 25.320,159.541 25.436 C 158.996 25.773,159.147 27.458,159.769 27.974 C 160.232 28.359,160.300 28.304,160.136 27.678 C 160.001 27.160,160.177 26.847,160.678 26.716 C 161.086 26.609,161.450 26.131,161.486 25.652 C 161.523 25.158,161.378 24.890,161.149 25.032 C 160.927 25.169,160.831 25.503,160.935 25.774 C 161.039 26.045,160.871 26.267,160.562 26.267 C 159.770 26.267,159.857 25.946,160.976 24.739 C 161.513 24.160,161.866 23.599,161.759 23.492 C 161.653 23.386,161.836 23.195,162.166 23.069 C 162.660 22.879,162.699 23.029,162.390 23.919 C 162.015 24.998,162.015 24.998,162.656 24.100 C 163.009 23.605,163.501 23.203,163.749 23.206 C 163.997 23.209,163.930 23.403,163.600 23.637 C 163.067 24.014,163.067 24.043,163.600 23.899 C 165.499 23.387,164.393 22.200,162.003 22.184 L 159.577 22.168 159.730 23.697 M227.043 22.633 C 226.667 23.611,226.749 23.708,227.400 23.057 C 228.080 22.377,228.167 22.000,227.643 22.000 C 227.446 22.000,227.176 22.285,227.043 22.633 M153.724 28.500 C 153.294 29.165,153.259 31.211,153.681 30.950 C 153.864 30.837,153.926 30.604,153.820 30.433 C 153.714 30.261,153.971 29.753,154.390 29.303 C 154.809 28.853,155.043 28.376,154.909 28.243 C 154.526 27.859,154.075 27.957,153.724 28.500 M233.121 28.940 C 233.705 31.176,234.353 31.813,234.285 30.086 C 234.240 28.936,234.023 28.395,233.561 28.274 C 233.059 28.143,232.954 28.302,233.121 28.940 M242.599 34.801 C 242.467 35.016,242.619 35.091,242.939 34.968 C 243.258 34.846,243.638 34.938,243.783 35.173 C 244.139 35.749,244.906 35.719,244.712 35.137 C 244.514 34.543,242.916 34.289,242.599 34.801 M245.200 35.235 C 245.200 35.898,245.321 35.998,245.720 35.666 C 246.132 35.325,246.231 35.543,246.196 36.717 C 246.172 37.533,246.276 38.740,246.427 39.400 C 246.619 40.238,246.704 39.783,246.707 37.891 C 246.711 35.640,246.584 35.113,245.956 34.777 C 245.323 34.438,245.200 34.513,245.200 35.235 M147.055 35.400 C 147.330 36.116,147.844 36.176,148.238 35.538 C 148.415 35.252,148.348 35.185,148.062 35.362 C 147.808 35.519,147.600 35.457,147.600 35.224 C 147.600 34.991,147.426 34.800,147.213 34.800 C 146.999 34.800,146.929 35.070,147.055 35.400 M141.167 40.986 C 141.148 40.994,141.086 41.431,141.029 41.959 C 140.945 42.729,141.014 42.808,141.381 42.359 C 141.632 42.051,142.051 41.614,142.313 41.386 C 142.683 41.064,141.747 40.737,141.167 40.986 M251.817 41.172 C 251.703 41.357,251.967 41.603,252.404 41.717 C 252.842 41.831,253.200 41.781,253.200 41.605 C 253.200 41.135,252.061 40.778,251.817 41.172 M134.800 47.213 C 134.800 47.426,134.991 47.600,135.224 47.600 C 135.457 47.600,135.519 47.808,135.362 48.062 C 135.185 48.348,135.252 48.415,135.538 48.238 C 136.176 47.844,136.116 47.330,135.400 47.055 C 135.070 46.929,134.800 46.999,134.800 47.213 M256.000 47.208 C 255.520 47.512,255.585 47.589,256.324 47.594 C 256.851 47.597,257.139 47.776,256.994 48.010 C 256.855 48.235,256.889 48.394,257.070 48.363 C 258.246 48.158,258.642 48.487,258.677 49.700 C 258.802 54.014,258.888 54.151,261.013 53.418 L 262.600 52.871 260.929 51.279 C 259.763 50.168,259.218 49.293,259.129 48.387 C 258.990 46.990,257.333 46.366,256.000 47.208 M128.375 53.830 C 127.601 54.762,128.373 55.256,129.282 54.410 C 129.743 53.980,130.261 53.714,130.433 53.820 C 130.604 53.926,130.832 53.873,130.938 53.701 C 131.278 53.151,128.837 53.273,128.375 53.830 M266.260 54.093 C 266.118 54.635,266.224 54.708,266.745 54.429 C 267.585 53.980,268.996 54.921,268.610 55.673 C 268.461 55.963,268.697 55.795,269.134 55.300 C 270.089 54.218,270.374 54.164,270.195 55.100 C 270.122 55.485,270.033 55.800,269.998 55.800 C 269.963 55.800,269.847 56.337,269.741 56.993 C 269.635 57.649,269.678 58.055,269.837 57.896 C 269.996 57.737,270.372 57.811,270.672 58.060 C 271.109 58.422,271.169 58.362,270.971 57.757 C 270.781 57.174,270.817 57.130,271.125 57.564 C 271.346 57.874,271.440 58.351,271.336 58.623 C 271.231 58.896,271.347 59.244,271.594 59.396 C 272.189 59.764,272.049 55.623,271.440 54.823 C 271.114 54.396,271.120 54.319,271.463 54.524 C 271.770 54.708,271.858 54.542,271.724 54.031 C 271.486 53.122,270.062 53.234,269.338 54.219 C 269.040 54.626,268.784 54.698,268.615 54.424 C 268.471 54.191,268.543 54.000,268.776 54.000 C 269.009 54.000,269.200 53.844,269.200 53.652 C 269.200 52.959,266.450 53.371,266.260 54.093 M261.328 53.861 C 261.471 54.005,262.171 54.106,262.883 54.085 C 263.594 54.065,264.407 54.240,264.688 54.473 C 265.022 54.751,265.200 54.757,265.200 54.492 C 265.200 54.268,264.915 53.976,264.567 53.843 C 263.717 53.516,260.998 53.532,261.328 53.861 M273.002 59.597 C 272.859 59.828,273.186 59.959,273.778 59.910 C 274.340 59.864,274.800 59.685,274.800 59.513 C 274.800 59.058,273.291 59.129,273.002 59.597 M122.370 59.700 C 122.149 60.428,122.242 62.698,122.486 62.547 C 122.666 62.436,122.723 62.198,122.612 62.019 C 122.501 61.840,122.782 61.223,123.234 60.647 L 124.058 59.600 123.229 59.600 C 122.773 59.600,122.386 59.645,122.370 59.700 M276.800 60.167 C 276.800 60.515,276.986 60.800,277.214 60.800 C 277.497 60.800,277.499 61.041,277.221 61.560 C 276.916 62.131,276.957 62.375,277.390 62.541 C 277.832 62.710,277.945 62.428,277.882 61.313 C 277.803 59.925,276.800 58.862,276.800 60.167 M115.970 65.785 C 115.954 65.793,115.866 66.199,115.775 66.686 C 115.575 67.753,116.593 67.535,117.212 66.378 C 117.536 65.773,116.747 65.396,115.970 65.785 M279.378 66.035 C 279.247 66.247,279.356 66.370,279.620 66.310 C 279.884 66.249,280.191 66.450,280.302 66.756 C 280.417 67.073,280.325 67.201,280.087 67.054 C 279.634 66.774,279.667 67.842,280.122 68.188 C 280.275 68.305,280.316 68.286,280.214 68.147 C 280.112 68.009,280.292 67.519,280.614 67.058 C 280.936 66.598,281.200 66.120,281.200 65.996 C 281.200 65.601,279.626 65.635,279.378 66.035 M281.996 66.017 C 281.472 66.354,281.471 66.446,281.989 66.779 C 282.370 67.023,282.670 67.010,282.836 66.742 C 283.105 66.307,283.471 67.529,283.858 70.150 C 284.038 71.377,283.973 71.641,283.543 71.416 C 283.244 71.259,283.449 71.495,283.997 71.940 C 285.060 72.803,285.055 72.775,285.318 79.476 C 285.408 81.768,285.664 83.395,285.999 83.798 C 286.294 84.154,286.370 84.414,286.168 84.375 C 284.944 84.142,284.800 84.477,284.800 87.550 C 284.800 90.230,284.639 90.988,283.717 92.637 C 282.654 94.538,282.306 95.998,281.675 101.200 C 281.501 102.630,281.077 104.340,280.732 105.000 C 279.848 106.689,281.011 109.600,282.570 109.600 C 283.918 109.600,284.400 110.647,284.400 113.574 L 284.400 116.000 285.740 116.000 C 288.952 116.000,290.394 117.334,290.406 120.319 C 290.414 122.257,290.707 122.631,292.471 122.955 C 294.613 123.349,295.719 124.428,296.191 126.587 C 296.586 128.399,296.672 128.485,298.780 129.196 C 301.069 129.968,301.903 130.741,302.235 132.400 C 302.652 134.487,303.369 135.313,305.231 135.853 C 307.502 136.511,308.227 137.301,308.674 139.600 L 309.024 141.400 311.212 141.641 C 315.137 142.073,319.600 144.690,319.600 146.560 C 319.600 147.056,322.672 148.800,323.546 148.800 C 324.291 148.800,325.753 150.697,326.409 152.513 C 326.925 153.942,327.363 154.373,329.269 155.327 C 331.082 156.234,331.706 156.818,332.477 158.327 C 333.246 159.830,333.876 160.422,335.666 161.321 C 337.788 162.388,338.670 163.434,339.368 165.715 C 339.488 166.108,340.156 166.738,340.852 167.115 C 342.988 168.271,344.731 169.977,344.993 171.167 C 345.289 172.517,346.604 173.802,348.035 174.139 C 349.591 174.505,351.108 175.868,351.390 177.155 C 351.681 178.481,352.966 179.781,354.400 180.201 C 357.457 181.098,358.000 182.679,357.999 190.680 C 357.997 198.171,357.665 199.342,355.152 200.723 C 352.878 201.973,351.924 202.911,351.194 204.614 C 350.457 206.333,348.228 208.400,347.111 208.400 C 346.097 208.400,345.710 209.229,344.967 212.984 C 344.257 216.567,344.256 216.568,341.608 219.184 C 340.150 220.623,338.716 222.396,338.421 223.124 C 338.016 224.121,337.298 224.743,335.511 225.645 C 333.917 226.450,332.919 227.261,332.469 228.117 C 331.682 229.617,329.349 232.000,328.667 232.000 C 327.892 232.000,326.060 233.914,325.175 235.649 C 324.719 236.544,323.785 237.564,323.085 237.933 C 322.389 238.300,320.555 239.860,319.010 241.400 C 317.464 242.940,315.625 244.501,314.923 244.868 C 314.136 245.280,313.267 246.279,312.659 247.468 C 312.116 248.531,310.754 250.274,309.632 251.343 C 308.414 252.502,307.069 254.350,306.296 255.924 C 305.583 257.375,304.125 259.448,303.056 260.531 C 301.987 261.613,300.701 263.421,300.199 264.549 C 299.209 266.773,298.126 267.940,296.098 268.964 C 295.382 269.326,294.312 270.382,293.720 271.311 C 292.185 273.720,291.159 274.800,290.405 274.800 C 289.630 274.800,288.085 276.401,286.823 278.512 C 286.326 279.344,285.236 280.374,284.401 280.800 C 283.565 281.226,282.459 282.143,281.941 282.837 C 280.355 284.965,277.863 287.364,276.491 288.085 C 275.596 288.555,275.109 289.153,274.943 289.987 C 274.765 290.877,274.213 291.497,272.886 292.301 C 270.727 293.609,268.898 295.377,267.800 297.215 C 267.360 297.952,266.190 299.025,265.200 299.600 C 264.210 300.175,263.040 301.246,262.600 301.981 C 262.160 302.717,261.260 303.831,260.600 304.458 C 259.059 305.921,255.921 309.059,254.458 310.600 C 253.831 311.260,252.717 312.160,251.981 312.600 C 251.246 313.040,250.175 314.210,249.600 315.200 C 249.025 316.190,247.952 317.360,247.215 317.800 C 245.370 318.902,243.588 320.737,242.401 322.758 C 241.712 323.932,241.056 324.529,240.288 324.682 C 239.172 324.906,238.323 325.779,236.674 328.400 C 236.189 329.171,235.049 330.159,234.137 330.600 C 232.081 331.593,230.962 332.581,229.769 334.458 C 229.002 335.666,228.375 336.067,226.121 336.792 C 222.893 337.831,220.996 338.930,220.118 340.269 C 219.765 340.807,218.158 341.874,216.546 342.638 C 214.934 343.403,213.335 344.428,212.993 344.915 C 212.651 345.402,211.972 346.413,211.485 347.162 C 210.008 349.436,209.328 349.617,208.076 348.068 C 204.418 343.540,204.113 343.344,200.269 343.056 C 196.344 342.761,195.367 342.273,194.151 340.003 C 193.724 339.206,192.396 337.932,191.075 337.053 C 189.796 336.203,188.293 334.817,187.735 333.973 C 186.250 331.730,185.153 331.187,181.300 330.790 C 177.437 330.391,176.947 330.081,175.240 326.950 C 174.473 325.543,173.879 324.960,172.978 324.730 C 171.591 324.375,170.280 323.120,169.239 321.148 C 168.802 320.320,167.765 319.384,166.550 318.721 C 164.529 317.618,163.786 316.964,161.485 314.262 C 160.103 312.639,158.401 312.054,154.958 312.017 C 153.202 311.999,152.371 311.403,150.282 308.664 C 149.667 307.858,148.497 306.856,147.682 306.438 C 145.997 305.574,144.771 304.337,143.893 302.616 C 143.561 301.965,142.339 300.705,141.177 299.816 C 140.015 298.927,138.496 297.390,137.802 296.400 C 137.107 295.410,135.832 294.207,134.969 293.726 C 134.106 293.246,132.313 291.762,130.984 290.428 L 128.567 288.004 125.384 287.739 C 121.676 287.431,120.869 287.001,119.241 284.463 C 118.489 283.292,117.283 282.150,116.021 281.412 C 114.726 280.656,113.509 279.490,112.626 278.161 C 111.799 276.915,110.573 275.711,109.554 275.144 C 108.621 274.625,107.292 273.390,106.600 272.400 C 105.909 271.410,104.344 269.935,103.123 269.123 C 101.764 268.219,100.499 266.956,99.860 265.866 C 99.135 264.628,98.148 263.708,96.623 262.848 C 95.159 262.022,94.125 261.077,93.515 260.008 C 93.012 259.127,92.394 258.405,92.143 258.403 C 91.891 258.401,91.582 258.130,91.455 257.800 C 91.329 257.470,90.904 257.196,90.513 257.191 C 89.273 257.176,86.269 255.610,84.303 253.955 C 83.259 253.076,81.099 251.760,79.503 251.029 C 76.458 249.637,75.663 248.965,74.753 247.015 C 74.449 246.363,73.570 245.428,72.800 244.937 C 70.358 243.381,69.123 242.293,68.362 241.029 C 67.955 240.353,66.672 239.165,65.512 238.388 C 64.351 237.612,63.041 236.371,62.600 235.631 C 61.736 234.179,60.462 232.847,58.242 231.074 C 57.466 230.455,56.420 229.202,55.916 228.289 C 55.279 227.134,54.339 226.259,52.828 225.414 C 51.183 224.495,50.347 223.675,49.388 222.040 C 48.691 220.852,47.435 219.412,46.598 218.840 C 41.883 215.617,41.821 207.822,46.490 205.197 C 48.327 204.165,48.647 203.461,49.024 199.630 C 49.366 196.168,50.172 194.826,53.147 192.764 C 54.557 191.787,55.536 190.737,55.999 189.702 C 56.491 188.604,57.328 187.744,58.769 186.857 C 60.302 185.914,61.024 185.144,61.571 183.867 C 62.306 182.152,64.415 180.000,65.361 180.000 C 66.132 180.000,67.451 178.356,67.962 176.759 C 68.479 175.145,69.703 173.830,71.200 173.282 C 71.874 173.036,72.659 172.020,73.608 170.167 C 74.863 167.716,75.211 167.345,76.802 166.757 C 78.508 166.127,78.607 166.002,79.024 163.949 C 80.032 158.983,81.345 156.368,83.222 155.591 C 84.503 155.060,85.600 153.407,85.600 152.007 C 85.600 149.374,86.807 148.246,90.500 147.428 C 91.570 147.192,91.600 147.109,91.600 144.439 C 91.600 141.350,91.744 141.216,95.100 141.205 C 97.426 141.198,97.287 140.819,93.589 137.092 C 90.909 134.390,90.058 133.190,88.436 129.828 C 86.922 126.688,86.084 125.463,84.640 124.274 C 82.885 122.830,77.608 115.600,78.308 115.600 C 78.716 115.600,78.703 113.969,78.291 113.328 C 78.124 113.068,78.170 112.742,78.393 112.604 C 78.617 112.466,78.800 112.173,78.800 111.953 C 78.800 111.733,78.628 111.659,78.417 111.789 C 78.196 111.926,78.097 111.531,78.183 110.851 C 78.339 109.623,76.322 108.706,75.112 109.455 C 74.850 109.616,74.102 109.760,73.448 109.774 C 72.275 109.800,72.260 109.828,72.230 112.104 C 72.207 113.841,72.328 114.360,72.721 114.209 C 73.007 114.099,73.140 114.173,73.016 114.374 C 72.892 114.575,73.107 114.822,73.495 114.923 C 74.097 115.080,74.083 115.115,73.400 115.160 C 72.826 115.197,72.745 115.304,73.114 115.538 C 73.397 115.718,71.871 115.850,69.714 115.832 L 65.800 115.800 65.799 118.668 C 65.797 122.139,65.927 121.995,62.642 122.158 C 59.399 122.318,59.615 122.100,59.448 125.398 L 59.311 128.114 56.555 128.213 C 55.040 128.268,53.690 128.332,53.556 128.356 C 53.422 128.380,53.299 129.678,53.283 131.240 C 53.248 134.667,53.573 134.338,50.086 134.468 C 48.499 134.528,47.182 134.672,47.159 134.788 C 47.137 134.905,47.057 136.235,46.981 137.745 C 46.813 141.065,47.158 140.736,43.747 140.835 L 40.914 140.918 40.834 143.934 C 40.737 147.578,40.814 147.439,38.751 147.716 C 35.630 148.134,34.557 150.552,34.430 157.448 L 34.400 159.097 31.631 159.369 C 28.353 159.692,28.162 159.886,28.060 162.976 C 27.965 165.840,28.315 165.516,25.199 165.634 C 22.098 165.751,22.014 165.847,22.006 169.300 L 22.000 172.000 19.300 172.006 C 15.848 172.014,15.751 172.098,15.634 175.196 C 15.519 178.219,15.348 178.386,12.343 178.394 C 9.699 178.401,9.600 178.538,9.600 182.172 C 9.600 183.551,9.484 186.056,9.341 187.740 L 9.083 190.800 6.141 190.800 C 4.524 190.800,3.221 190.935,3.247 191.100 C 3.273 191.265,3.273 192.615,3.247 194.100 L 3.200 196.800 1.600 196.800 L 0.000 196.800 0.000 209.400 L 0.000 222.000 1.600 222.000 L 3.200 222.000 3.247 224.700 C 3.273 226.185,3.273 227.535,3.247 227.700 C 3.221 227.865,3.335 227.979,3.500 227.953 C 3.665 227.927,4.987 227.927,6.438 227.953 L 9.076 228.000 9.438 231.100 L 9.800 234.200 12.700 234.318 L 15.600 234.435 15.650 236.818 C 15.678 238.128,15.745 239.380,15.800 239.600 C 15.855 239.820,15.922 240.180,15.950 240.400 C 15.978 240.620,16.585 240.805,17.300 240.810 C 19.035 240.823,21.995 243.529,22.010 245.114 C 22.051 249.731,23.791 252.400,26.760 252.400 C 27.869 252.400,27.886 252.437,28.139 255.435 C 28.467 259.315,28.360 259.200,31.624 259.200 L 34.400 259.200 34.400 261.771 C 34.400 265.147,34.853 265.600,38.229 265.600 L 40.800 265.600 40.806 267.900 C 40.816 271.616,41.555 272.000,48.697 272.000 L 53.200 272.000 53.247 274.700 C 53.273 276.185,53.273 277.535,53.247 277.700 C 53.221 277.865,53.335 277.979,53.500 277.953 C 53.665 277.927,54.987 277.927,56.438 277.953 L 59.076 278.000 59.438 281.100 L 59.800 284.200 62.700 284.318 L 65.600 284.435 65.650 286.818 C 65.733 290.775,65.756 290.800,69.224 290.800 L 72.000 290.800 72.047 293.500 C 72.073 294.985,72.082 296.308,72.067 296.440 C 72.052 296.572,73.332 296.718,74.910 296.764 C 78.344 296.864,77.991 296.563,78.049 299.434 C 78.120 302.977,78.330 303.200,81.597 303.200 L 84.365 303.200 84.482 306.100 L 84.600 309.000 87.653 309.116 L 90.706 309.232 90.879 311.628 C 91.136 315.181,91.352 315.303,97.783 315.521 L 103.200 315.704 103.200 318.609 C 103.200 321.961,103.242 322.000,106.799 322.000 L 109.132 322.000 109.413 325.000 L 109.694 328.000 112.630 328.000 L 115.566 328.000 115.683 331.100 L 115.800 334.200 118.900 334.317 L 122.000 334.434 122.000 337.137 C 122.000 340.619,122.211 340.800,126.272 340.800 L 129.584 340.800 130.422 342.442 C 131.013 343.602,131.715 344.278,132.808 344.742 C 133.659 345.104,134.439 345.715,134.541 346.100 C 134.696 346.689,135.207 346.800,137.763 346.800 L 140.800 346.800 140.800 349.367 C 140.800 353.163,140.831 353.200,144.043 353.200 L 146.800 353.200 146.843 355.300 C 146.924 359.321,146.640 358.986,150.082 359.117 L 153.164 359.233 153.437 361.643 C 153.808 364.924,154.221 365.147,160.538 365.467 L 165.600 365.723 165.647 368.162 C 165.673 369.503,165.664 370.764,165.626 370.963 C 165.493 371.668,166.629 371.988,169.282 371.994 L 171.965 372.000 172.082 374.900 L 172.200 377.800 178.300 377.910 L 184.400 378.021 184.450 380.610 C 184.478 382.035,184.523 383.425,184.550 383.700 C 184.584 384.041,185.583 384.237,187.700 384.317 L 190.800 384.434 190.800 387.137 C 190.800 391.087,189.343 390.800,209.407 390.800 C 225.198 390.800,229.560 390.605,232.439 389.770 C 233.319 389.515,234.000 387.870,234.000 385.997 L 234.000 384.432 237.300 384.316 L 240.600 384.200 240.717 381.100 L 240.834 378.000 243.817 378.000 L 246.800 378.000 246.800 375.017 L 246.800 372.034 249.900 371.917 L 253.000 371.800 253.117 368.700 L 253.234 365.600 256.217 365.600 L 259.200 365.600 259.200 362.400 L 259.200 359.200 262.400 359.200 L 265.600 359.200 265.600 356.217 L 265.600 353.234 268.700 353.117 L 271.800 353.000 271.917 349.900 L 272.034 346.800 275.017 346.800 L 278.000 346.800 278.000 343.817 L 278.000 340.834 281.100 340.717 L 284.200 340.600 284.317 337.517 L 284.433 334.433 287.517 334.317 L 290.600 334.200 290.717 331.100 L 290.834 328.000 293.817 328.000 L 296.800 328.000 296.800 325.017 L 296.800 322.034 299.900 321.917 L 303.000 321.800 303.117 318.700 L 303.234 315.600 306.217 315.600 L 309.200 315.600 309.200 312.417 L 309.200 309.234 312.300 309.117 L 315.400 309.000 315.517 306.117 L 315.634 303.233 318.717 303.117 L 321.800 303.000 321.917 299.917 L 322.033 296.834 324.917 296.717 L 327.800 296.600 327.917 293.722 C 328.046 290.541,327.925 290.668,331.299 290.209 C 333.804 289.869,333.975 289.467,334.274 283.218 L 334.522 278.031 337.561 277.916 L 340.600 277.800 340.717 274.917 L 340.834 272.034 343.717 271.917 L 346.600 271.800 346.717 268.717 L 346.833 265.633 349.917 265.517 L 353.000 265.400 353.117 262.300 L 353.234 259.200 356.217 259.200 L 359.200 259.200 359.200 256.247 L 359.200 253.293 361.799 253.128 C 365.378 252.900,365.378 252.899,365.530 246.397 L 365.660 240.833 368.730 240.716 L 371.800 240.600 371.917 237.517 L 372.033 234.434 374.917 234.317 L 377.800 234.200 377.917 231.117 L 378.033 228.033 381.117 227.917 L 384.200 227.800 384.310 221.700 L 384.421 215.600 387.130 215.600 C 390.528 215.600,390.800 215.327,390.800 211.920 L 390.800 209.200 393.800 209.200 C 395.450 209.200,396.779 209.065,396.753 208.900 C 396.727 208.735,396.727 207.385,396.753 205.900 L 396.800 203.200 398.400 203.200 L 400.000 203.200 400.000 190.800 L 400.000 178.400 398.400 178.400 L 396.800 178.400 396.753 175.500 C 396.727 173.905,396.719 172.489,396.735 172.354 C 396.751 172.218,396.457 172.108,396.082 172.108 C 395.707 172.109,394.365 172.085,393.100 172.055 L 390.800 172.000 390.794 169.500 C 390.785 165.782,390.756 165.760,385.900 165.638 L 384.400 165.600 384.400 163.233 C 384.400 160.092,384.170 159.608,382.657 159.560 C 380.676 159.497,378.995 158.893,380.656 158.840 C 383.002 158.765,383.760 157.690,383.937 154.187 C 384.209 148.798,383.170 147.200,379.396 147.200 C 378.113 147.200,378.111 147.196,377.889 144.747 C 377.592 141.479,377.102 141.051,373.435 140.866 L 370.484 140.717 369.785 139.167 C 368.946 137.306,368.126 136.725,365.100 135.846 C 363.835 135.478,362.800 135.004,362.800 134.791 C 362.800 134.578,361.924 133.509,360.853 132.416 C 359.205 130.733,358.865 130.117,358.638 128.398 C 358.103 124.367,356.601 122.804,353.260 122.801 C 349.980 122.799,348.028 124.454,347.859 127.382 C 347.826 127.942,347.575 128.400,347.300 128.400 C 346.894 128.400,346.535 124.672,346.722 122.391 C 346.732 122.275,345.451 122.128,343.876 122.064 C 340.455 121.923,340.867 122.287,340.759 119.309 C 340.632 115.781,340.531 115.704,335.900 115.626 L 334.400 115.600 334.394 113.100 C 334.386 109.718,334.244 109.573,330.865 109.480 L 328.003 109.400 327.954 106.600 C 327.927 105.060,327.911 103.710,327.919 103.600 C 327.926 103.490,326.663 103.360,325.111 103.311 C 321.724 103.204,322.101 103.558,321.900 100.300 C 321.696 96.993,321.769 97.066,318.557 96.957 C 315.376 96.850,315.664 97.159,315.565 93.749 L 315.482 90.917 313.241 90.912 C 308.822 90.901,309.200 91.205,309.200 87.667 L 309.200 84.533 306.300 84.567 L 303.400 84.600 303.276 82.412 C 303.208 81.209,302.938 79.959,302.676 79.635 C 302.303 79.174,302.308 79.112,302.700 79.347 C 303.362 79.744,303.337 79.394,302.656 78.713 C 302.297 78.354,301.215 78.184,299.471 78.212 L 296.831 78.255 296.716 75.227 L 296.600 72.200 290.700 72.167 C 283.790 72.128,284.415 72.456,284.286 68.800 C 284.177 65.728,283.578 65.000,281.996 66.017 M109.767 72.367 C 108.914 73.217,109.692 73.985,110.647 73.234 C 111.223 72.782,111.840 72.501,112.019 72.612 C 112.198 72.723,112.433 72.670,112.541 72.495 C 112.739 72.176,110.082 72.053,109.767 72.367 M103.724 78.500 C 103.294 79.165,103.259 81.211,103.681 80.950 C 103.864 80.837,103.926 80.604,103.820 80.433 C 103.714 80.261,103.971 79.753,104.390 79.303 C 104.809 78.853,105.043 78.376,104.909 78.243 C 104.526 77.859,104.075 77.957,103.724 78.500 M97.043 85.369 C 97.319 86.087,98.424 86.543,98.295 85.886 C 98.194 85.369,97.588 84.816,97.113 84.806 C 96.954 84.803,96.923 85.056,97.043 85.369 M91.170 90.985 C 91.154 90.993,91.066 91.450,90.976 92.000 C 90.835 92.852,90.887 92.911,91.324 92.400 C 91.606 92.070,92.080 91.584,92.378 91.320 C 92.809 90.939,91.814 90.663,91.170 90.985 M84.800 97.039 C 84.800 97.156,84.989 97.606,85.220 98.037 C 85.682 98.901,86.494 98.710,86.152 97.818 C 85.943 97.275,84.800 96.616,84.800 97.039 M86.460 97.180 C 86.548 97.444,86.751 97.647,86.910 97.630 C 87.388 97.581,87.296 97.032,86.780 96.860 C 86.516 96.772,86.372 96.916,86.460 97.180 M78.427 103.768 C 77.958 104.332,78.332 106.089,78.852 105.768 C 79.051 105.645,79.122 105.398,79.011 105.218 C 78.900 105.038,79.122 104.645,79.504 104.345 C 80.126 103.858,80.145 103.871,79.681 104.464 C 79.280 104.977,79.271 105.197,79.642 105.426 C 79.942 105.612,80.019 105.555,79.846 105.275 C 79.694 105.028,79.936 104.597,80.384 104.317 C 80.833 104.037,81.200 103.714,81.200 103.600 C 81.200 103.169,78.803 103.314,78.427 103.768 M78.000 107.187 C 78.000 107.729,78.191 107.902,78.610 107.741 C 79.081 107.560,79.115 107.380,78.761 106.953 C 78.145 106.210,78.000 106.255,78.000 107.187 M76.924 110.338 C 77.571 110.374,77.941 110.572,77.796 110.807 C 77.658 111.030,77.376 111.109,77.170 110.981 C 76.963 110.854,76.686 111.031,76.554 111.375 C 76.422 111.719,76.143 112.000,75.934 112.000 C 75.724 112.000,75.681 111.792,75.838 111.538 C 76.016 111.250,75.948 111.185,75.655 111.366 C 75.398 111.525,75.281 111.808,75.396 111.994 C 75.511 112.180,75.429 112.798,75.213 113.366 C 74.886 114.226,74.936 114.408,75.510 114.446 C 76.147 114.489,76.146 114.507,75.495 114.677 C 75.107 114.778,74.910 115.055,75.057 115.292 C 75.210 115.540,75.138 115.609,74.886 115.453 C 74.646 115.305,74.541 114.782,74.652 114.292 C 74.764 113.801,74.855 112.907,74.855 112.305 C 74.854 111.700,75.155 111.034,75.527 110.817 C 75.897 110.601,76.005 110.419,75.767 110.412 C 75.528 110.405,75.198 110.535,75.033 110.700 C 74.868 110.865,74.523 111.000,74.267 111.000 C 74.010 111.000,73.791 111.180,73.780 111.400 C 73.722 112.579,73.097 113.681,72.779 113.166 C 72.590 112.861,72.624 112.412,72.857 112.131 C 73.084 111.858,73.136 111.419,72.973 111.156 C 72.785 110.852,72.846 110.781,73.138 110.962 C 73.400 111.123,73.600 111.014,73.600 110.710 C 73.600 110.194,73.844 110.166,76.924 110.338 M355.400 134.000 C 356.042 134.276,355.903 134.349,354.700 134.372 C 353.875 134.387,353.200 134.220,353.200 134.000 C 353.200 133.522,354.288 133.522,355.400 134.000 M360.386 138.374 C 361.077 139.665,360.897 140.800,360.000 140.800 C 359.333 140.800,359.200 140.533,359.200 139.200 C 359.200 137.482,359.716 137.122,360.386 138.374 " stroke="none" fill="#042273" fill-rule="evenodd"></path></g></svg>