<svg id="svg" version="1.1" xmlns="http://www.w3.org/2000/svg" xmlns:xlink="http://www.w3.org/1999/xlink" width="400" height="400" viewBox="0, 0, 400,400"><g id="svgg"><path id="path0" d="M186.600 88.203 C 176.559 89.149,172.694 89.912,167.113 92.051 C 164.314 93.123,161.842 94.000,161.617 94.000 C 159.928 94.000,153.211 96.667,151.879 97.867 C 151.042 98.620,149.962 99.397,149.479 99.594 C 143.911 101.857,141.667 103.089,140.008 104.792 C 138.761 106.072,137.390 106.968,135.664 107.631 C 133.810 108.344,132.771 109.052,131.739 110.306 C 130.968 111.245,129.766 112.300,129.068 112.651 C 127.430 113.476,125.218 115.555,124.777 116.685 C 124.587 117.172,123.749 118.007,122.916 118.540 C 121.124 119.686,119.665 121.234,118.431 123.300 C 117.938 124.125,117.289 124.800,116.990 124.800 C 115.997 124.800,114.249 126.670,113.016 129.051 C 112.239 130.552,111.270 131.741,110.331 132.347 C 109.225 133.060,108.698 133.794,108.201 135.313 C 107.464 137.566,105.389 140.981,104.016 142.200 C 102.865 143.222,101.763 145.387,100.787 148.547 C 100.363 149.921,99.296 152.072,98.417 153.327 C 96.267 156.397,95.477 158.442,94.024 164.699 C 92.867 169.683,92.236 171.741,90.989 174.600 C 87.707 182.120,88.137 217.801,91.623 227.200 C 92.316 229.070,93.419 232.850,94.074 235.600 C 94.728 238.350,95.610 241.363,96.032 242.296 C 96.454 243.228,96.800 244.173,96.800 244.396 C 96.800 244.618,96.938 244.800,97.107 244.800 C 97.694 244.800,99.931 249.020,100.818 251.800 C 102.001 255.512,102.556 256.548,104.355 258.401 C 106.059 260.157,108.400 264.287,108.400 265.537 C 108.400 266.061,109.041 266.802,110.160 267.573 C 111.313 268.366,112.231 269.443,112.820 270.692 C 113.765 272.698,115.470 274.800,116.153 274.800 C 116.678 274.800,118.800 276.834,118.800 277.337 C 118.800 278.143,120.944 280.488,122.654 281.552 C 123.632 282.161,124.740 283.276,125.116 284.030 C 125.517 284.833,126.609 285.897,127.756 286.600 C 128.832 287.260,130.774 288.835,132.073 290.100 C 133.371 291.365,134.651 292.402,134.917 292.404 C 136.050 292.413,139.521 294.420,140.983 295.911 C 142.418 297.374,144.770 298.676,149.464 300.605 C 150.379 300.981,151.731 301.854,152.469 302.544 C 153.809 303.798,154.770 304.165,164.800 307.256 C 167.110 307.968,169.540 308.861,170.200 309.239 C 177.395 313.366,222.588 313.340,230.386 309.205 C 232.237 308.223,235.652 307.032,238.400 306.409 C 242.629 305.451,247.375 303.580,248.616 302.381 C 249.284 301.735,250.904 300.777,252.216 300.252 C 257.322 298.209,258.505 297.548,259.927 295.945 C 260.885 294.864,262.433 293.810,264.358 292.926 C 266.231 292.066,267.993 290.876,269.162 289.684 C 270.177 288.648,271.789 287.350,272.743 286.800 C 273.697 286.250,274.713 285.350,275.000 284.800 C 275.288 284.250,276.723 282.742,278.189 281.450 C 279.655 280.157,281.294 278.436,281.832 277.624 C 282.369 276.812,283.609 275.584,284.587 274.894 C 285.696 274.113,286.742 272.898,287.366 271.668 C 287.915 270.583,289.063 269.089,289.915 268.348 C 290.949 267.449,291.835 266.101,292.577 264.300 C 293.248 262.673,294.506 260.684,295.745 259.294 C 297.805 256.983,298.456 255.795,300.025 251.486 C 300.489 250.214,301.459 248.399,302.181 247.453 C 303.575 245.625,304.692 242.592,307.059 234.200 C 307.866 231.340,308.663 228.818,308.832 228.597 C 311.244 225.416,313.169 194.267,311.204 190.209 C 310.639 189.041,309.569 187.795,308.350 186.885 C 307.278 186.084,306.400 185.291,306.400 185.123 C 306.400 183.268,297.894 182.641,293.000 184.135 C 291.900 184.471,289.495 185.208,287.655 185.773 C 282.169 187.457,271.535 187.105,266.200 185.063 C 265.320 184.726,261.922 183.806,258.649 183.020 C 251.837 181.382,250.310 180.759,249.164 179.150 C 247.560 176.897,243.559 176.732,244.163 178.943 C 244.292 179.414,244.499 180.790,244.623 182.000 C 244.817 183.894,245.556 187.530,247.207 194.706 C 247.713 196.904,247.714 203.494,247.208 205.694 C 246.992 206.632,246.268 209.914,245.598 212.986 C 244.255 219.143,242.988 222.347,241.138 224.261 C 240.467 224.955,239.262 226.838,238.459 228.446 C 237.264 230.841,236.674 231.559,235.200 232.411 C 234.210 232.983,233.040 234.089,232.600 234.868 C 231.345 237.091,230.873 237.514,228.161 238.849 C 226.751 239.543,225.170 240.689,224.611 241.421 C 223.344 243.083,220.759 244.074,213.611 245.642 C 210.635 246.294,207.390 247.227,206.400 247.714 C 203.943 248.924,196.583 249.013,194.400 247.861 C 193.630 247.454,190.402 246.507,187.228 245.757 C 180.535 244.175,177.755 243.013,175.345 240.792 C 174.392 239.914,172.632 238.762,171.432 238.231 C 169.752 237.488,169.069 236.913,168.464 235.733 C 167.557 233.964,166.340 232.766,164.510 231.842 C 163.520 231.341,162.892 230.480,161.812 228.143 C 161.038 226.468,159.987 224.715,159.477 224.248 C 155.741 220.830,152.326 204.236,153.573 195.562 C 155.215 184.142,156.751 178.726,159.095 176.083 C 159.923 175.150,161.230 173.174,162.000 171.693 C 163.009 169.753,163.771 168.815,164.728 168.337 C 166.648 167.378,167.533 166.466,168.361 164.596 C 169.036 163.068,170.986 161.600,172.340 161.600 C 172.571 161.600,173.624 160.783,174.680 159.783 C 177.172 157.426,179.687 156.267,185.479 154.806 C 188.075 154.152,191.190 153.225,192.400 152.747 C 197.250 150.833,205.227 151.292,211.200 153.830 C 216.888 156.247,226.147 154.940,221.386 152.393 C 219.913 151.604,219.004 149.888,217.788 145.600 C 217.196 143.510,216.000 140.331,215.131 138.536 C 212.496 133.093,211.810 124.443,212.773 108.800 C 213.147 102.723,212.292 97.065,210.546 94.052 C 207.034 87.991,201.976 86.755,186.600 88.203 M139.464 123.021 C 140.199 123.582,140.813 123.897,140.828 123.720 C 140.903 122.872,141.547 125.171,141.572 126.373 C 141.656 130.464,143.938 135.917,146.104 137.199 C 146.817 137.621,147.986 138.865,148.702 139.962 C 149.418 141.060,150.753 142.553,151.668 143.279 C 153.764 144.944,155.448 146.625,157.070 148.671 C 157.779 149.567,159.327 150.774,160.579 151.407 C 163.667 152.970,163.668 152.971,163.035 156.613 C 162.456 159.940,162.247 160.238,158.495 163.072 C 157.861 163.551,156.745 165.064,156.015 166.432 C 155.285 167.801,154.110 169.569,153.402 170.361 C 151.163 172.865,150.103 174.955,148.822 179.387 C 148.137 181.758,147.132 184.456,146.589 185.383 C 142.802 191.844,142.805 208.561,146.594 215.026 C 147.141 215.959,148.061 218.404,148.640 220.461 C 149.804 224.597,150.763 226.499,153.124 229.357 C 153.994 230.410,155.369 232.404,156.178 233.788 C 158.162 237.180,164.042 243.208,166.660 244.531 C 167.793 245.104,169.579 246.316,170.629 247.225 C 173.494 249.704,175.166 250.639,178.434 251.588 C 180.065 252.061,182.136 252.954,183.036 253.571 C 189.443 257.967,211.330 258.067,217.054 253.726 C 217.743 253.204,219.953 252.242,221.965 251.590 C 226.567 250.099,228.144 249.274,230.397 247.183 C 231.385 246.266,233.061 245.076,234.121 244.539 C 236.668 243.248,243.274 236.617,244.580 234.040 C 246.462 230.325,252.352 224.802,254.443 224.790 C 255.409 224.785,256.871 224.625,257.692 224.434 C 259.723 223.963,263.558 225.376,266.103 227.533 C 268.964 229.959,269.221 239.062,266.555 243.568 C 264.097 247.722,262.514 250.987,261.205 254.600 C 260.487 256.580,259.657 258.479,259.360 258.821 C 259.063 259.162,258.636 260.734,258.412 262.313 C 258.188 263.893,257.970 265.323,257.928 265.492 C 257.764 266.146,258.509 270.224,258.875 270.677 C 259.087 270.940,259.517 272.254,259.830 273.597 C 260.144 274.941,260.665 276.553,260.989 277.180 C 261.510 278.186,261.509 278.460,260.979 279.523 C 260.649 280.184,260.161 281.642,259.895 282.763 C 259.445 284.657,259.326 284.800,258.205 284.794 C 254.495 284.776,248.400 288.194,248.400 290.291 C 248.400 291.269,247.434 291.587,244.442 291.595 C 241.359 291.602,236.763 293.828,235.848 295.755 L 235.196 297.128 231.698 297.392 C 226.774 297.763,219.434 298.742,216.600 299.404 C 200.378 303.197,200.624 303.194,186.200 299.855 C 181.704 298.814,174.946 297.863,168.700 297.392 C 166.775 297.247,165.200 296.968,165.200 296.772 C 165.200 296.110,166.485 293.200,166.777 293.200 C 166.936 293.200,167.097 292.930,167.133 292.600 C 167.170 292.270,167.230 291.730,167.267 291.400 C 167.303 291.070,167.618 290.800,167.967 290.800 C 171.151 290.798,174.581 287.727,175.152 284.367 C 176.340 277.381,175.309 275.329,168.200 270.533 C 164.533 268.060,157.640 270.723,155.094 275.598 C 152.487 280.587,154.326 289.960,157.922 290.017 C 160.036 290.050,163.405 291.025,162.781 291.423 C 161.100 292.497,152.568 291.577,152.174 290.280 C 151.372 287.635,148.873 286.154,142.544 284.573 C 142.293 284.510,141.609 283.480,141.024 282.284 C 139.885 279.956,139.042 279.364,136.287 278.955 C 134.420 278.678,133.600 277.930,133.600 276.504 C 133.600 275.224,131.851 273.697,129.651 273.056 C 127.932 272.555,127.806 272.419,127.338 270.563 C 126.788 268.385,125.114 266.643,123.205 266.261 C 122.255 266.071,122.033 265.781,121.805 264.427 C 121.505 262.656,120.219 260.517,119.044 259.838 C 117.826 259.133,115.600 256.819,115.600 256.257 C 115.600 253.236,112.749 248.323,110.531 247.521 C 109.435 247.124,109.200 246.832,109.200 245.866 C 109.200 244.455,108.502 240.018,107.931 237.800 C 107.447 235.923,105.856 233.170,104.292 231.503 C 103.254 230.397,103.158 229.991,102.779 225.061 C 102.557 222.168,102.118 216.920,101.804 213.400 C 100.829 202.472,100.727 197.037,101.382 190.978 C 101.714 187.910,102.168 182.610,102.391 179.200 C 102.985 170.105,103.108 169.385,104.163 168.820 C 106.502 167.568,109.166 159.485,109.197 153.550 C 109.199 153.155,109.652 152.810,110.349 152.670 C 112.717 152.197,115.600 147.357,115.600 143.857 C 115.600 143.496,115.753 143.200,115.941 143.200 C 116.128 143.200,116.812 142.693,117.460 142.074 C 118.108 141.454,118.934 140.834,119.296 140.695 C 120.355 140.289,121.160 138.723,121.491 136.425 C 121.799 134.293,121.808 134.281,123.675 133.737 C 125.878 133.095,127.027 131.809,127.407 129.560 C 127.557 128.672,127.887 127.887,128.140 127.816 C 131.995 126.743,133.600 125.416,133.600 123.300 C 133.600 121.288,136.981 121.128,139.464 123.021 M112.837 167.300 C 109.999 168.342,109.148 171.474,110.126 177.281 C 111.028 182.634,117.530 183.746,121.713 179.263 C 123.326 177.533,124.294 172.388,123.326 170.688 C 121.841 168.083,115.917 166.169,112.837 167.300 M195.560 270.442 C 193.801 272.326,194.075 278.151,196.020 280.221 C 198.616 282.985,204.918 281.215,205.632 277.521 C 206.861 271.167,205.577 269.200,200.200 269.200 C 196.824 269.200,196.687 269.237,195.560 270.442 " stroke="none" fill="#c77835" fill-rule="evenodd"></path><path id="path1" d="M0.000 200.000 L 0.000 400.000 200.000 400.000 L 400.000 400.000 400.000 200.000 L 400.000 0.000 200.000 0.000 L 0.000 0.000 0.000 200.000 M201.200 82.427 C 202.935 82.707,204.133 83.154,204.800 83.770 C 205.350 84.278,206.980 85.343,208.421 86.137 C 211.792 87.994,212.462 88.743,214.211 92.608 C 215.006 94.364,216.303 97.103,217.094 98.696 C 218.913 102.360,219.188 105.763,218.199 112.400 C 217.343 118.144,217.320 124.868,218.143 128.800 C 218.488 130.450,219.130 133.870,219.571 136.400 C 220.886 143.962,221.776 146.618,223.564 148.324 C 224.765 149.470,225.308 150.463,225.993 152.768 C 226.841 155.622,227.483 156.559,229.923 158.496 C 230.893 159.266,231.133 161.872,230.410 163.774 C 229.958 164.961,228.513 165.155,227.084 164.218 C 226.596 163.898,225.104 163.382,223.769 163.070 C 220.741 162.364,220.122 162.032,218.496 160.246 C 217.143 158.759,216.733 158.597,213.400 158.233 C 212.300 158.113,210.230 157.835,208.800 157.615 C 204.862 157.011,195.606 157.118,190.000 157.833 C 183.218 158.699,183.265 158.686,182.062 159.946 C 181.027 161.029,174.642 164.820,172.957 165.352 C 172.493 165.498,171.784 166.349,171.381 167.243 C 170.583 169.011,167.964 171.493,166.511 171.858 C 166.010 171.984,165.600 172.245,165.600 172.438 C 165.600 173.383,161.003 181.933,160.001 182.853 C 158.722 184.027,158.642 184.380,158.021 191.600 C 156.978 203.729,158.121 216.380,160.370 217.584 C 160.784 217.805,161.520 218.844,162.007 219.893 C 165.371 227.143,166.065 228.330,167.213 228.805 C 168.626 229.390,171.475 232.398,171.828 233.676 C 172.017 234.363,173.065 235.063,175.904 236.400 C 178.005 237.390,180.502 238.893,181.451 239.740 C 186.304 244.071,214.246 244.229,219.132 239.952 C 220.805 238.489,224.037 236.584,226.596 235.555 C 227.781 235.078,228.443 234.451,229.132 233.155 C 230.371 230.820,231.329 229.844,233.213 228.994 C 234.076 228.605,234.900 227.907,235.044 227.443 C 235.766 225.111,239.096 218.863,240.140 217.879 C 242.441 215.710,243.719 198.239,242.194 189.800 C 241.876 188.040,241.612 186.022,241.608 185.316 C 241.602 184.339,241.221 183.682,240.013 182.564 C 238.491 181.156,237.809 179.775,236.829 176.118 C 236.581 175.193,235.955 173.933,235.438 173.318 C 234.921 172.703,234.278 171.139,234.008 169.841 C 233.710 168.401,233.157 167.121,232.590 166.554 L 231.661 165.625 233.049 165.364 C 234.645 165.065,234.843 165.195,235.432 166.929 C 235.908 168.329,237.541 169.137,239.972 169.177 C 241.098 169.196,241.674 169.563,243.182 171.220 C 244.821 173.021,245.378 173.345,248.311 174.198 C 250.644 174.876,252.156 175.606,253.501 176.705 C 258.194 180.538,275.022 182.254,289.770 180.404 C 303.924 178.629,309.429 179.709,312.821 184.929 C 314.448 187.431,315.595 190.498,315.606 192.373 C 315.609 192.938,315.871 194.120,316.188 195.000 C 316.858 196.859,316.951 202.126,316.385 206.200 C 316.171 207.740,315.732 211.250,315.409 214.000 C 313.514 230.127,312.735 234.142,310.938 237.029 C 308.883 240.330,308.401 241.385,308.401 242.579 C 308.399 245.205,306.388 250.506,304.786 252.109 C 303.941 252.953,302.959 254.490,302.603 255.522 C 301.316 259.261,299.428 262.582,298.125 263.400 C 296.856 264.197,296.316 265.038,294.961 268.333 C 294.569 269.287,293.679 270.547,292.983 271.133 C 292.286 271.720,291.386 272.740,290.981 273.400 C 289.823 275.287,286.887 278.721,283.496 282.152 C 281.783 283.886,280.250 285.506,280.091 285.752 C 279.799 286.202,278.874 286.969,274.800 290.140 C 273.590 291.082,271.854 292.581,270.943 293.470 C 269.900 294.487,268.575 295.293,267.368 295.643 C 265.872 296.078,265.186 296.574,264.246 297.902 C 263.503 298.954,262.346 299.930,261.221 300.454 C 260.220 300.921,258.410 301.766,257.200 302.330 C 255.990 302.895,254.157 304.103,253.127 305.015 C 251.277 306.653,247.933 307.899,243.512 308.597 C 242.693 308.726,241.523 309.251,240.912 309.764 C 237.991 312.213,235.850 312.836,223.600 314.802 C 219.530 315.455,214.850 316.382,213.200 316.862 C 208.479 318.234,191.959 318.223,187.600 316.844 C 185.950 316.323,181.270 315.391,177.200 314.773 C 164.940 312.913,162.946 312.374,160.775 310.339 C 159.731 309.359,158.314 308.840,154.400 308.002 C 151.312 307.341,148.325 305.837,147.272 304.412 C 146.779 303.745,146.181 303.200,145.944 303.200 C 144.580 303.200,137.979 299.527,136.940 298.190 C 136.189 297.225,134.829 296.276,132.958 295.411 C 131.055 294.532,129.744 293.611,128.992 292.625 C 128.374 291.814,127.287 290.847,126.576 290.476 C 123.929 289.091,110.711 275.538,110.025 273.505 C 109.776 272.767,108.927 271.736,108.072 271.132 C 106.609 270.098,106.178 269.443,104.432 265.600 C 103.953 264.547,103.118 263.520,102.418 263.125 C 101.169 262.420,99.503 259.369,98.031 255.090 C 97.550 253.692,96.668 252.268,95.656 251.256 C 93.920 249.520,93.002 247.159,91.800 241.337 C 91.445 239.619,90.916 237.940,90.624 237.606 C 88.634 235.333,87.370 230.959,86.404 223.000 C 83.366 197.969,85.351 168.374,90.432 162.966 C 90.891 162.478,91.386 161.127,91.608 159.761 C 92.525 154.123,94.047 150.285,96.176 148.243 C 96.920 147.530,97.690 146.232,97.982 145.200 C 98.807 142.284,101.112 138.075,102.301 137.314 C 103.813 136.347,104.224 135.751,105.190 133.122 C 105.775 131.530,106.552 130.382,107.772 129.308 C 108.732 128.463,109.783 127.148,110.107 126.386 C 110.768 124.832,124.019 111.211,126.745 109.284 C 127.705 108.605,128.752 107.675,129.073 107.218 C 129.705 106.315,133.187 104.400,134.195 104.400 C 134.537 104.400,135.387 103.590,136.084 102.601 C 137.229 100.977,143.609 97.200,145.208 97.200 C 145.402 97.200,145.704 96.966,145.880 96.679 C 147.069 94.744,154.019 91.600,157.107 91.600 C 157.583 91.600,158.589 91.059,159.343 90.397 C 161.667 88.356,164.003 87.630,172.894 86.188 C 177.572 85.429,182.480 84.447,183.800 84.005 C 188.977 82.273,196.200 81.618,201.200 82.427 " stroke="none" fill="#fcf4e3" fill-rule="evenodd"></path><path id="path2" d="M134.100 122.046 C 133.825 122.329,133.600 122.893,133.600 123.300 C 133.600 125.416,131.995 126.743,128.140 127.816 C 127.887 127.887,127.557 128.672,127.407 129.560 C 127.027 131.809,125.878 133.095,123.675 133.737 C 121.808 134.281,121.799 134.293,121.491 136.425 C 121.160 138.723,120.355 140.289,119.296 140.695 C 118.934 140.834,118.108 141.454,117.460 142.074 C 116.812 142.693,116.128 143.200,115.941 143.200 C 115.753 143.200,115.600 143.496,115.600 143.857 C 115.600 147.357,112.717 152.197,110.349 152.670 C 109.652 152.810,109.199 153.155,109.197 153.550 C 109.166 159.485,106.502 167.568,104.163 168.820 C 103.108 169.385,102.985 170.105,102.391 179.200 C 102.168 182.610,101.714 187.910,101.382 190.978 C 100.727 197.037,100.829 202.472,101.804 213.400 C 102.118 216.920,102.557 222.168,102.779 225.061 C 103.158 229.991,103.254 230.397,104.292 231.503 C 105.856 233.170,107.447 235.923,107.931 237.800 C 108.502 240.018,109.200 244.455,109.200 245.866 C 109.200 246.832,109.435 247.124,110.531 247.521 C 112.749 248.323,115.600 253.236,115.600 256.257 C 115.600 256.819,117.826 259.133,119.044 259.838 C 120.219 260.517,121.505 262.656,121.805 264.427 C 122.033 265.781,122.255 266.071,123.205 266.261 C 125.114 266.643,126.788 268.385,127.338 270.563 C 127.806 272.419,127.932 272.555,129.651 273.056 C 131.851 273.697,133.600 275.224,133.600 276.504 C 133.600 277.930,134.420 278.678,136.287 278.955 C 139.042 279.364,139.885 279.956,141.024 282.284 C 141.609 283.480,142.293 284.510,142.544 284.573 C 148.873 286.154,151.372 287.635,152.174 290.280 C 152.568 291.577,161.100 292.497,162.781 291.423 C 163.400 291.028,160.044 290.051,157.954 290.017 C 155.299 289.974,154.518 288.332,154.128 281.977 C 153.599 273.339,160.982 266.418,168.190 268.797 C 170.501 269.559,174.997 274.169,175.608 276.401 C 176.308 278.959,175.125 286.756,173.857 287.944 C 172.868 288.870,168.903 290.790,167.967 290.796 C 167.618 290.798,167.303 291.070,167.267 291.400 C 167.230 291.730,167.170 292.270,167.133 292.600 C 167.097 292.930,166.936 293.200,166.777 293.200 C 166.485 293.200,165.200 296.110,165.200 296.772 C 165.200 296.968,166.775 297.247,168.700 297.392 C 174.946 297.863,181.704 298.814,186.200 299.855 C 200.624 303.194,200.378 303.197,216.600 299.404 C 219.434 298.742,226.774 297.763,231.698 297.392 L 235.196 297.128 235.848 295.755 C 236.763 293.828,241.359 291.602,244.442 291.595 C 247.434 291.587,248.400 291.269,248.400 290.291 C 248.400 288.194,254.495 284.776,258.205 284.794 C 259.326 284.800,259.445 284.657,259.895 282.763 C 260.161 281.642,260.642 280.198,260.963 279.554 C 261.489 278.500,261.473 278.213,260.805 276.691 C 260.397 275.761,259.935 274.280,259.779 273.400 C 259.623 272.520,259.296 271.440,259.053 271.000 C 258.366 269.756,257.738 265.889,258.045 264.790 C 258.196 264.245,258.338 262.684,258.360 261.320 C 258.388 259.592,258.577 258.740,258.985 258.512 C 259.307 258.332,260.047 256.388,260.629 254.193 C 261.845 249.613,263.618 245.454,264.974 244.001 C 268.213 240.531,268.404 232.843,265.341 229.203 C 261.001 224.045,252.703 224.001,249.592 229.117 C 249.228 229.716,248.291 230.693,247.510 231.289 C 246.675 231.926,245.542 233.464,244.756 235.028 C 243.820 236.891,242.930 238.022,241.779 238.814 C 240.877 239.435,239.619 240.631,238.985 241.472 C 237.553 243.371,237.114 243.718,234.517 245.008 C 233.371 245.577,231.866 246.760,231.171 247.636 C 229.659 249.546,228.273 250.289,223.000 252.020 C 220.800 252.742,218.370 253.835,217.600 254.449 C 212.301 258.670,188.049 258.645,182.761 254.412 C 181.969 253.778,179.989 252.857,178.361 252.365 C 174.519 251.205,171.349 249.482,169.600 247.604 C 168.830 246.778,167.081 245.539,165.713 244.852 C 163.855 243.918,162.816 243.045,161.601 241.401 C 160.706 240.190,159.825 239.200,159.642 239.200 C 158.805 239.200,156.766 236.729,155.275 233.907 C 154.376 232.206,153.027 230.200,152.277 229.450 C 150.557 227.731,149.506 225.557,148.188 221.000 C 147.616 219.020,146.789 217.017,146.351 216.550 C 142.183 212.102,142.174 188.365,146.339 183.850 C 147.101 183.023,148.800 178.190,148.800 176.847 C 148.800 175.544,151.499 170.594,152.675 169.740 C 153.326 169.267,154.525 167.612,155.340 166.062 C 156.154 164.512,157.359 162.829,158.017 162.322 C 161.610 159.553,161.455 159.770,161.939 156.839 C 162.192 155.303,162.400 153.869,162.400 153.652 C 162.400 153.436,161.370 152.755,160.111 152.139 C 157.445 150.834,155.397 149.141,154.584 147.569 C 154.267 146.957,153.269 146.041,152.366 145.533 C 151.162 144.856,150.292 143.863,149.103 141.805 C 148.211 140.262,146.623 138.082,145.575 136.961 C 143.616 134.865,142.277 131.650,141.775 127.844 C 141.319 124.382,141.141 123.526,140.925 123.742 C 140.802 123.865,140.122 123.524,139.414 122.984 C 137.886 121.818,134.844 121.282,134.100 122.046 M120.765 168.488 C 124.488 170.393,124.969 171.201,124.616 174.967 C 124.249 178.883,123.336 179.889,118.773 181.409 C 113.302 183.231,110.775 181.593,109.940 175.685 C 108.787 167.532,113.184 164.609,120.765 168.488 M205.706 269.612 L 207.317 271.223 207.078 274.618 C 206.683 280.207,205.311 281.600,200.200 281.600 C 195.089 281.600,193.717 280.207,193.322 274.618 L 193.083 271.223 194.694 269.612 L 196.306 268.000 200.200 268.000 L 204.094 268.000 205.706 269.612 " stroke="none" fill="#fcc570" fill-rule="evenodd"></path><path id="path3" d="M189.600 82.642 C 187.730 82.950,185.120 83.564,183.800 84.005 C 182.480 84.447,177.572 85.429,172.894 86.188 C 164.003 87.630,161.667 88.356,159.343 90.397 C 158.589 91.059,157.583 91.600,157.107 91.600 C 154.019 91.600,147.069 94.744,145.880 96.679 C 145.704 96.966,145.402 97.200,145.208 97.200 C 143.609 97.200,137.229 100.977,136.084 102.601 C 135.387 103.590,134.537 104.400,134.195 104.400 C 133.187 104.400,129.705 106.315,129.073 107.218 C 128.752 107.675,127.705 108.605,126.745 109.284 C 124.019 111.211,110.768 124.832,110.107 126.386 C 109.783 127.148,108.732 128.463,107.772 129.308 C 106.552 130.382,105.775 131.530,105.190 133.122 C 104.224 135.751,103.813 136.347,102.301 137.314 C 101.112 138.075,98.807 142.284,97.982 145.200 C 97.690 146.232,96.920 147.530,96.176 148.243 C 94.047 150.285,92.525 154.123,91.608 159.761 C 91.386 161.127,90.891 162.478,90.432 162.966 C 83.031 170.844,83.181 229.101,90.624 237.606 C 90.916 237.940,91.445 239.619,91.800 241.337 C 93.002 247.159,93.920 249.520,95.656 251.256 C 96.668 252.268,97.550 253.692,98.031 255.090 C 99.503 259.369,101.169 262.420,102.418 263.125 C 103.118 263.520,103.953 264.547,104.432 265.600 C 106.178 269.443,106.609 270.098,108.072 271.132 C 108.927 271.736,109.776 272.767,110.025 273.505 C 110.711 275.538,123.929 289.091,126.576 290.476 C 127.287 290.847,128.374 291.814,128.992 292.625 C 129.744 293.611,131.055 294.532,132.958 295.411 C 134.829 296.276,136.189 297.225,136.940 298.190 C 137.979 299.527,144.580 303.200,145.944 303.200 C 146.181 303.200,146.779 303.745,147.272 304.412 C 148.325 305.837,151.312 307.341,154.400 308.002 C 158.314 308.840,159.731 309.359,160.775 310.339 C 162.946 312.374,164.940 312.913,177.200 314.773 C 181.270 315.391,185.950 316.323,187.600 316.844 C 191.959 318.223,208.479 318.234,213.200 316.862 C 214.850 316.382,219.530 315.455,223.600 314.802 C 235.850 312.836,237.991 312.213,240.912 309.764 C 241.523 309.251,242.693 308.726,243.512 308.597 C 247.933 307.899,251.277 306.653,253.127 305.015 C 254.157 304.103,255.990 302.895,257.200 302.330 C 258.410 301.766,260.220 300.921,261.221 300.454 C 262.346 299.930,263.503 298.954,264.246 297.902 C 265.186 296.574,265.872 296.078,267.368 295.643 C 268.575 295.293,269.900 294.487,270.943 293.470 C 271.854 292.581,273.590 291.082,274.800 290.140 C 278.874 286.969,279.799 286.202,280.091 285.752 C 280.250 285.506,281.783 283.886,283.496 282.152 C 286.887 278.721,289.823 275.287,290.981 273.400 C 291.386 272.740,292.286 271.720,292.983 271.133 C 293.679 270.547,294.569 269.287,294.961 268.333 C 296.316 265.038,296.856 264.197,298.125 263.400 C 299.428 262.582,301.316 259.261,302.603 255.522 C 302.959 254.490,303.941 252.953,304.786 252.109 C 306.388 250.506,308.399 245.205,308.401 242.579 C 308.401 241.385,308.883 240.330,310.938 237.029 C 312.735 234.142,313.514 230.127,315.409 214.000 C 315.732 211.250,316.171 207.740,316.385 206.200 C 316.951 202.126,316.858 196.859,316.188 195.000 C 315.871 194.120,315.609 192.938,315.606 192.373 C 315.595 190.498,314.448 187.431,312.821 184.929 C 309.429 179.709,303.924 178.629,289.770 180.404 C 275.022 182.254,258.194 180.538,253.501 176.705 C 252.156 175.606,250.644 174.876,248.311 174.198 C 245.378 173.345,244.821 173.021,243.182 171.220 C 241.674 169.563,241.098 169.196,239.972 169.177 C 237.541 169.137,235.908 168.329,235.432 166.929 C 234.843 165.195,234.645 165.065,233.049 165.364 L 231.661 165.625 232.590 166.554 C 233.157 167.121,233.710 168.401,234.008 169.841 C 234.278 171.139,234.921 172.703,235.438 173.318 C 235.955 173.933,236.581 175.193,236.829 176.118 C 237.809 179.775,238.491 181.156,240.013 182.564 C 241.221 183.682,241.602 184.339,241.608 185.316 C 241.612 186.022,241.876 188.040,242.194 189.800 C 243.719 198.239,242.441 215.710,240.140 217.879 C 239.096 218.863,235.766 225.111,235.044 227.443 C 234.900 227.907,234.076 228.605,233.213 228.994 C 231.329 229.844,230.371 230.820,229.132 233.155 C 228.443 234.451,227.781 235.078,226.596 235.555 C 224.037 236.584,220.805 238.489,219.132 239.952 C 214.246 244.229,186.304 244.071,181.451 239.740 C 180.502 238.893,178.005 237.390,175.904 236.400 C 173.065 235.063,172.017 234.363,171.828 233.676 C 171.475 232.398,168.626 229.390,167.213 228.805 C 166.065 228.330,165.371 227.143,162.007 219.893 C 161.520 218.844,160.784 217.805,160.370 217.584 C 158.121 216.380,156.978 203.729,158.021 191.600 C 158.642 184.380,158.722 184.027,160.001 182.853 C 161.003 181.933,165.600 173.383,165.600 172.438 C 165.600 172.245,166.010 171.984,166.511 171.858 C 167.964 171.493,170.583 169.011,171.381 167.243 C 171.784 166.349,172.493 165.498,172.957 165.352 C 174.642 164.820,181.027 161.029,182.062 159.946 C 183.265 158.686,183.218 158.699,190.000 157.833 C 195.606 157.118,204.862 157.011,208.800 157.615 C 210.230 157.835,212.300 158.113,213.400 158.233 C 216.733 158.597,217.143 158.759,218.496 160.246 C 220.122 162.032,220.741 162.364,223.769 163.070 C 225.104 163.382,226.596 163.898,227.084 164.218 C 228.513 165.155,229.958 164.961,230.410 163.774 C 231.133 161.872,230.893 159.266,229.923 158.496 C 227.483 156.559,226.841 155.622,225.993 152.768 C 225.308 150.463,224.765 149.470,223.564 148.324 C 221.776 146.618,220.886 143.962,219.571 136.400 C 219.130 133.870,218.488 130.450,218.143 128.800 C 217.320 124.868,217.343 118.144,218.199 112.400 C 219.188 105.763,218.913 102.360,217.094 98.696 C 216.303 97.103,215.006 94.364,214.211 92.608 C 212.462 88.743,211.792 87.994,208.421 86.137 C 206.980 85.343,205.350 84.278,204.800 83.770 C 202.936 82.050,196.218 81.551,189.600 82.642 M205.400 87.103 C 210.288 89.571,212.436 92.604,214.231 99.570 C 215.387 104.058,215.401 105.436,214.404 116.678 C 213.789 123.617,214.294 128.821,216.153 134.679 C 216.906 137.056,217.912 140.350,218.387 142.000 C 219.854 147.098,220.472 148.496,222.006 150.177 C 224.393 152.794,224.960 155.081,224.044 158.400 C 223.770 159.395,221.600 160.155,221.600 159.256 C 221.600 157.803,206.045 154.002,200.092 154.001 C 197.002 154.000,184.699 156.453,182.160 157.577 C 181.136 158.029,180.090 158.400,179.836 158.400 C 179.581 158.400,178.209 159.265,176.786 160.322 C 175.364 161.379,173.443 162.684,172.517 163.222 C 171.592 163.760,170.242 165.034,169.517 166.052 C 168.793 167.071,167.256 168.650,166.102 169.560 C 164.948 170.470,163.759 171.802,163.459 172.520 C 163.159 173.237,161.937 175.259,160.743 177.012 C 153.544 187.584,153.398 211.782,160.467 222.600 C 161.473 224.140,162.761 226.322,163.329 227.449 C 164.021 228.821,165.025 229.974,166.371 230.941 C 167.476 231.735,168.823 233.085,169.364 233.942 C 170.413 235.604,172.192 237.200,172.997 237.200 C 173.266 237.200,174.657 238.076,176.089 239.146 C 185.539 246.210,205.480 247.815,218.631 242.570 C 219.969 242.036,221.204 241.600,221.376 241.600 C 221.548 241.600,222.524 240.909,223.544 240.065 C 224.565 239.221,226.363 238.013,227.539 237.380 C 228.838 236.682,230.127 235.578,230.819 234.572 C 231.447 233.660,233.027 231.990,234.330 230.861 C 235.633 229.731,236.932 228.221,237.216 227.504 C 237.500 226.787,238.484 225.120,239.402 223.800 C 246.491 213.606,247.558 190.455,241.409 180.244 C 240.673 179.020,240.133 177.700,240.211 177.310 C 240.789 174.398,240.802 174.373,241.529 174.762 C 241.920 174.971,243.400 175.265,244.820 175.416 C 247.568 175.707,249.931 176.808,251.566 178.558 C 252.189 179.225,253.679 179.937,255.766 180.564 C 258.680 181.440,260.744 181.884,270.200 183.669 C 275.019 184.579,283.374 184.298,289.400 183.023 C 302.486 180.255,308.157 181.681,312.338 188.794 L 313.400 190.600 313.390 202.200 C 313.377 217.342,312.269 226.193,309.602 232.460 C 308.941 234.013,308.400 235.496,308.400 235.755 C 308.400 237.498,304.697 247.516,303.311 249.523 C 302.447 250.776,301.128 253.303,300.380 255.140 C 299.508 257.283,298.346 259.252,297.135 260.636 C 296.097 261.822,294.585 264.054,293.774 265.596 C 292.964 267.138,291.638 269.165,290.829 270.100 C 290.019 271.035,288.981 272.340,288.522 273.000 C 287.274 274.793,274.015 288.146,272.400 289.235 C 271.630 289.754,270.411 290.746,269.691 291.438 C 268.971 292.131,267.261 293.288,265.891 294.010 C 264.521 294.732,262.571 296.088,261.559 297.022 C 260.535 297.967,258.007 299.538,255.865 300.559 C 253.747 301.569,251.199 303.017,250.204 303.776 C 248.915 304.760,246.871 305.629,243.097 306.797 C 236.638 308.797,236.430 308.869,233.241 310.206 C 227.194 312.742,206.878 315.160,196.400 314.590 C 182.628 313.842,171.169 311.988,165.600 309.608 C 164.170 308.997,160.759 307.800,158.020 306.948 C 154.289 305.788,152.469 304.981,150.761 303.730 C 149.506 302.812,146.955 301.406,145.092 300.605 C 142.965 299.691,140.901 298.434,139.549 297.230 C 138.365 296.174,136.309 294.762,134.981 294.091 C 133.653 293.421,131.854 292.169,130.983 291.310 C 130.113 290.450,128.373 289.071,127.119 288.247 C 125.864 287.422,124.735 286.426,124.611 286.034 C 124.486 285.642,123.024 284.098,121.360 282.604 C 119.697 281.109,117.897 279.223,117.360 278.412 C 116.823 277.600,115.595 276.346,114.631 275.623 C 113.667 274.901,112.403 273.438,111.823 272.371 C 111.243 271.305,110.253 270.021,109.623 269.516 C 108.994 269.012,107.684 267.153,106.713 265.385 C 105.743 263.617,104.129 261.165,103.128 259.937 C 101.980 258.526,100.781 256.351,99.879 254.039 C 99.093 252.024,97.829 249.526,97.070 248.488 C 95.653 246.550,94.467 243.463,92.581 236.800 C 91.989 234.710,91.079 231.920,90.559 230.600 C 85.761 218.431,85.849 178.717,90.694 169.428 C 91.047 168.753,91.462 167.570,91.618 166.800 C 92.731 161.285,96.003 152.344,97.297 151.281 C 97.644 150.995,98.696 148.943,99.633 146.721 C 100.689 144.218,102.087 141.752,103.307 140.240 C 104.389 138.898,105.898 136.571,106.659 135.068 C 107.420 133.566,108.718 131.586,109.543 130.668 C 110.369 129.751,111.609 128.100,112.300 126.999 C 112.991 125.899,114.093 124.681,114.749 124.294 C 115.404 123.907,116.533 122.827,117.257 121.895 C 118.926 119.744,127.557 111.200,128.060 111.200 C 128.268 111.200,129.228 110.421,130.193 109.469 C 131.159 108.518,133.055 107.149,134.407 106.429 C 135.759 105.708,137.750 104.332,138.832 103.372 C 139.914 102.411,142.644 100.716,144.899 99.606 C 147.155 98.495,149.720 97.051,150.600 96.397 C 151.513 95.717,154.861 94.275,158.400 93.036 C 161.810 91.842,165.523 90.500,166.650 90.053 C 170.792 88.412,182.518 86.580,195.800 85.498 C 198.474 85.280,203.430 86.109,205.400 87.103 " stroke="none" fill="#d9ac8e" fill-rule="evenodd"></path><path id="path4" d="M195.800 85.498 C 182.518 86.580,170.792 88.412,166.650 90.053 C 165.523 90.500,161.810 91.842,158.400 93.036 C 154.861 94.275,151.513 95.717,150.600 96.397 C 149.720 97.051,147.155 98.495,144.899 99.606 C 142.644 100.716,139.914 102.411,138.832 103.372 C 137.750 104.332,135.759 105.708,134.407 106.429 C 133.055 107.149,131.159 108.518,130.193 109.469 C 129.228 110.421,128.268 111.200,128.060 111.200 C 127.557 111.200,118.926 119.744,117.257 121.895 C 116.533 122.827,115.404 123.907,114.749 124.294 C 114.093 124.681,112.991 125.899,112.300 126.999 C 111.609 128.100,110.369 129.751,109.543 130.668 C 108.718 131.586,107.420 133.566,106.659 135.068 C 105.898 136.571,104.389 138.898,103.307 140.240 C 102.087 141.752,100.689 144.218,99.633 146.721 C 98.696 148.943,97.644 150.995,97.297 151.281 C 96.003 152.344,92.731 161.285,91.618 166.800 C 91.462 167.570,91.047 168.753,90.694 169.428 C 85.849 178.717,85.761 218.431,90.559 230.600 C 91.079 231.920,91.989 234.710,92.581 236.800 C 94.467 243.463,95.653 246.550,97.070 248.488 C 97.829 249.526,99.093 252.024,99.879 254.039 C 100.781 256.351,101.980 258.526,103.128 259.937 C 104.129 261.165,105.743 263.617,106.713 265.385 C 107.684 267.153,108.994 269.012,109.623 269.516 C 110.253 270.021,111.243 271.305,111.823 272.371 C 112.403 273.438,113.667 274.901,114.631 275.623 C 115.595 276.346,116.823 277.600,117.360 278.412 C 117.897 279.223,119.697 281.109,121.360 282.604 C 123.024 284.098,124.486 285.642,124.611 286.034 C 124.735 286.426,125.864 287.422,127.119 288.247 C 128.373 289.071,130.113 290.450,130.983 291.310 C 131.854 292.169,133.653 293.421,134.981 294.091 C 136.309 294.762,138.365 296.174,139.549 297.230 C 140.901 298.434,142.965 299.691,145.092 300.605 C 146.955 301.406,149.506 302.812,150.761 303.730 C 152.469 304.981,154.289 305.788,158.020 306.948 C 160.759 307.800,164.170 308.997,165.600 309.608 C 171.169 311.988,182.628 313.842,196.400 314.590 C 206.878 315.160,227.194 312.742,233.241 310.206 C 236.430 308.869,236.638 308.797,243.097 306.797 C 246.871 305.629,248.915 304.760,250.204 303.776 C 251.199 303.017,253.747 301.569,255.865 300.559 C 258.007 299.538,260.535 297.967,261.559 297.022 C 262.571 296.088,264.521 294.732,265.891 294.010 C 267.261 293.288,268.971 292.131,269.691 291.438 C 270.411 290.746,271.630 289.754,272.400 289.235 C 274.015 288.146,287.274 274.793,288.522 273.000 C 288.981 272.340,290.019 271.035,290.829 270.100 C 291.638 269.165,292.964 267.138,293.774 265.596 C 294.585 264.054,296.097 261.822,297.135 260.636 C 298.346 259.252,299.508 257.283,300.380 255.140 C 301.128 253.303,302.447 250.776,303.311 249.523 C 304.697 247.516,308.400 237.498,308.400 235.755 C 308.400 235.496,308.941 234.013,309.602 232.460 C 312.269 226.193,313.377 217.342,313.390 202.200 L 313.400 190.600 312.338 188.794 C 308.157 181.681,302.486 180.255,289.400 183.023 C 283.374 184.298,275.019 184.579,270.200 183.669 C 260.744 181.884,258.680 181.440,255.766 180.564 C 253.679 179.937,252.189 179.225,251.566 178.558 C 249.931 176.808,247.568 175.707,244.820 175.416 C 243.400 175.265,241.920 174.971,241.529 174.762 C 240.802 174.373,240.789 174.398,240.211 177.310 C 240.133 177.700,240.673 179.020,241.409 180.244 C 247.558 190.455,246.491 213.606,239.402 223.800 C 238.484 225.120,237.500 226.787,237.216 227.504 C 236.932 228.221,235.633 229.731,234.330 230.861 C 233.027 231.990,231.447 233.660,230.819 234.572 C 230.127 235.578,228.838 236.682,227.539 237.380 C 226.363 238.013,224.565 239.221,223.544 240.065 C 222.524 240.909,221.548 241.600,221.376 241.600 C 221.204 241.600,219.969 242.036,218.631 242.570 C 205.480 247.815,185.539 246.210,176.089 239.146 C 174.657 238.076,173.266 237.200,172.997 237.200 C 172.192 237.200,170.413 235.604,169.364 233.942 C 168.823 233.085,167.476 231.735,166.371 230.941 C 165.025 229.974,164.021 228.821,163.329 227.449 C 162.761 226.322,161.473 224.140,160.467 222.600 C 153.398 211.782,153.544 187.584,160.743 177.012 C 161.937 175.259,163.159 173.237,163.459 172.520 C 163.759 171.802,164.948 170.470,166.102 169.560 C 167.256 168.650,168.793 167.071,169.517 166.052 C 170.242 165.034,171.592 163.760,172.517 163.222 C 173.443 162.684,175.364 161.379,176.786 160.322 C 178.209 159.265,179.581 158.400,179.836 158.400 C 180.090 158.400,181.136 158.029,182.160 157.577 C 184.699 156.453,197.002 154.000,200.092 154.001 C 206.045 154.002,221.600 157.803,221.600 159.256 C 221.600 160.155,223.770 159.395,224.044 158.400 C 224.960 155.081,224.393 152.794,222.006 150.177 C 220.472 148.496,219.854 147.098,218.387 142.000 C 217.912 140.350,216.906 137.056,216.153 134.679 C 214.294 128.821,213.789 123.617,214.404 116.678 C 215.568 103.556,215.097 99.071,211.933 93.134 C 209.230 88.064,202.633 84.941,195.800 85.498 M205.694 89.215 C 211.316 92.661,213.409 98.453,212.773 108.800 C 211.810 124.443,212.496 133.093,215.131 138.536 C 216.000 140.331,217.196 143.510,217.788 145.600 C 219.004 149.888,219.913 151.604,221.386 152.393 C 226.147 154.940,216.888 156.247,211.200 153.830 C 205.227 151.292,197.250 150.833,192.400 152.747 C 191.190 153.225,188.075 154.152,185.479 154.806 C 179.687 156.267,177.172 157.426,174.680 159.783 C 173.624 160.783,172.571 161.600,172.340 161.600 C 170.986 161.600,169.036 163.068,168.361 164.596 C 167.533 166.466,166.648 167.378,164.728 168.337 C 163.771 168.815,163.009 169.753,162.000 171.693 C 161.230 173.174,159.923 175.150,159.095 176.083 C 156.751 178.726,155.215 184.142,153.573 195.562 C 152.326 204.236,155.741 220.830,159.477 224.248 C 159.987 224.715,161.038 226.468,161.812 228.143 C 162.892 230.480,163.520 231.341,164.510 231.842 C 166.340 232.766,167.557 233.964,168.464 235.733 C 169.069 236.913,169.752 237.488,171.432 238.231 C 172.632 238.762,174.392 239.914,175.345 240.792 C 177.755 243.013,180.535 244.175,187.228 245.757 C 190.402 246.507,193.630 247.454,194.400 247.861 C 196.583 249.013,203.943 248.924,206.400 247.714 C 207.390 247.227,210.635 246.294,213.611 245.642 C 220.759 244.074,223.344 243.083,224.611 241.421 C 225.170 240.689,226.751 239.543,228.161 238.849 C 230.873 237.514,231.345 237.091,232.600 234.868 C 233.040 234.089,234.210 232.983,235.200 232.411 C 236.674 231.559,237.264 230.841,238.459 228.446 C 239.262 226.838,240.467 224.955,241.138 224.261 C 242.988 222.347,244.255 219.143,245.598 212.986 C 246.268 209.914,246.992 206.632,247.208 205.694 C 247.714 203.494,247.713 196.904,247.207 194.706 C 245.556 187.530,244.817 183.894,244.623 182.000 C 244.499 180.790,244.292 179.414,244.163 178.943 C 243.559 176.732,247.560 176.897,249.164 179.150 C 250.310 180.759,251.837 181.382,258.649 183.020 C 261.922 183.806,265.320 184.726,266.200 185.063 C 271.535 187.105,282.169 187.457,287.655 185.773 C 289.495 185.208,291.900 184.471,293.000 184.135 C 297.894 182.641,306.400 183.268,306.400 185.123 C 306.400 185.291,307.278 186.084,308.350 186.885 C 309.569 187.795,310.639 189.041,311.204 190.209 C 313.169 194.267,311.244 225.416,308.832 228.597 C 308.663 228.818,307.866 231.340,307.059 234.200 C 304.692 242.592,303.575 245.625,302.181 247.453 C 301.459 248.399,300.489 250.214,300.025 251.486 C 298.456 255.795,297.805 256.983,295.745 259.294 C 294.506 260.684,293.248 262.673,292.577 264.300 C 291.835 266.101,290.949 267.449,289.915 268.348 C 289.063 269.089,287.915 270.583,287.366 271.668 C 286.742 272.898,285.696 274.113,284.587 274.894 C 283.609 275.584,282.369 276.812,281.832 277.624 C 281.294 278.436,279.655 280.157,278.189 281.450 C 276.723 282.742,275.288 284.250,275.000 284.800 C 274.713 285.350,273.697 286.250,272.743 286.800 C 271.789 287.350,270.177 288.648,269.162 289.684 C 267.993 290.876,266.231 292.066,264.358 292.926 C 262.433 293.810,260.885 294.864,259.927 295.945 C 258.505 297.548,257.322 298.209,252.216 300.252 C 250.904 300.777,249.284 301.735,248.616 302.381 C 247.375 303.580,242.629 305.451,238.400 306.409 C 235.652 307.032,232.237 308.223,230.386 309.205 C 222.588 313.340,177.395 313.366,170.200 309.239 C 169.540 308.861,167.110 307.968,164.800 307.256 C 154.770 304.165,153.809 303.798,152.469 302.544 C 151.731 301.854,150.379 300.981,149.464 300.605 C 144.770 298.676,142.418 297.374,140.983 295.911 C 139.521 294.420,136.050 292.413,134.917 292.404 C 134.651 292.402,133.371 291.365,132.073 290.100 C 130.774 288.835,128.832 287.260,127.756 286.600 C 126.609 285.897,125.517 284.833,125.116 284.030 C 124.740 283.276,123.632 282.161,122.654 281.552 C 120.944 280.488,118.800 278.143,118.800 277.337 C 118.800 276.834,116.678 274.800,116.153 274.800 C 115.470 274.800,113.765 272.698,112.820 270.692 C 112.231 269.443,111.313 268.366,110.160 267.573 C 109.041 266.802,108.400 266.061,108.400 265.537 C 108.400 264.287,106.059 260.157,104.355 258.401 C 102.556 256.548,102.001 255.512,100.818 251.800 C 99.931 249.020,97.694 244.800,97.107 244.800 C 96.938 244.800,96.800 244.618,96.800 244.396 C 96.800 244.173,96.454 243.228,96.032 242.296 C 95.610 241.363,94.728 238.350,94.074 235.600 C 93.419 232.850,92.316 229.070,91.623 227.200 C 88.137 217.801,87.707 182.120,90.989 174.600 C 92.236 171.741,92.867 169.683,94.024 164.699 C 95.477 158.442,96.267 156.397,98.417 153.327 C 99.296 152.072,100.363 149.921,100.787 148.547 C 101.763 145.387,102.865 143.222,104.016 142.200 C 105.389 140.981,107.464 137.566,108.201 135.313 C 108.698 133.794,109.225 133.060,110.331 132.347 C 111.270 131.741,112.239 130.552,113.016 129.051 C 114.249 126.670,115.997 124.800,116.990 124.800 C 117.289 124.800,117.938 124.125,118.431 123.300 C 119.665 121.234,121.124 119.686,122.916 118.540 C 123.749 118.007,124.587 117.172,124.777 116.685 C 125.218 115.555,127.430 113.476,129.068 112.651 C 129.766 112.300,130.968 111.245,131.739 110.306 C 132.771 109.052,133.810 108.344,135.664 107.631 C 137.390 106.968,138.761 106.072,140.008 104.792 C 141.667 103.089,143.911 101.857,149.479 99.594 C 149.962 99.397,151.042 98.620,151.879 97.867 C 153.211 96.667,159.928 94.000,161.617 94.000 C 161.842 94.000,164.314 93.123,167.113 92.051 C 178.036 87.865,200.766 86.194,205.694 89.215 M146.655 138.078 C 147.115 138.585,148.219 140.262,149.108 141.805 C 150.296 143.867,151.160 144.855,152.366 145.533 C 153.269 146.041,154.267 146.957,154.584 147.569 C 155.397 149.141,157.445 150.834,160.111 152.139 C 161.370 152.755,162.400 153.436,162.400 153.652 C 162.400 156.294,161.366 159.726,160.331 160.521 C 159.702 161.004,158.652 161.819,157.999 162.331 C 157.346 162.843,156.147 164.526,155.335 166.071 C 154.523 167.616,153.326 169.267,152.675 169.740 C 151.499 170.594,148.800 175.544,148.800 176.847 C 148.800 178.190,147.101 183.023,146.339 183.850 C 142.174 188.365,142.183 212.102,146.351 216.550 C 146.789 217.017,147.616 219.020,148.188 221.000 C 149.506 225.557,150.557 227.731,152.277 229.450 C 153.027 230.200,154.376 232.206,155.275 233.907 C 156.766 236.729,158.805 239.200,159.642 239.200 C 159.825 239.200,160.706 240.190,161.601 241.401 C 162.816 243.045,163.855 243.918,165.713 244.852 C 167.081 245.539,168.830 246.778,169.600 247.604 C 171.349 249.482,174.519 251.205,178.361 252.365 C 179.989 252.857,181.969 253.778,182.761 254.412 C 188.049 258.645,212.301 258.670,217.600 254.449 C 218.370 253.835,220.800 252.742,223.000 252.020 C 228.273 250.289,229.659 249.546,231.171 247.636 C 231.866 246.760,233.371 245.577,234.517 245.008 C 237.114 243.718,237.553 243.371,238.985 241.472 C 239.619 240.631,240.877 239.435,241.779 238.814 C 242.930 238.022,243.820 236.891,244.756 235.028 C 245.542 233.464,246.675 231.926,247.510 231.289 C 248.291 230.693,249.228 229.716,249.592 229.117 C 252.703 224.001,261.001 224.045,265.341 229.203 C 268.404 232.843,268.213 240.531,264.974 244.001 C 263.618 245.454,261.845 249.613,260.629 254.193 C 260.047 256.388,259.307 258.332,258.985 258.512 C 258.663 258.692,258.421 259.326,258.446 259.920 C 258.482 260.754,258.537 260.817,258.688 260.200 C 258.795 259.760,259.112 259.130,259.392 258.800 C 259.671 258.470,260.487 256.580,261.205 254.600 C 262.514 250.987,264.097 247.722,266.555 243.568 C 269.221 239.062,268.964 229.959,266.103 227.533 C 263.558 225.376,259.723 223.963,257.692 224.434 C 256.871 224.625,255.409 224.785,254.443 224.790 C 252.352 224.802,246.462 230.325,244.580 234.040 C 243.274 236.617,236.668 243.248,234.121 244.539 C 233.061 245.076,231.385 246.266,230.397 247.183 C 228.144 249.274,226.567 250.099,221.965 251.590 C 219.953 252.242,217.743 253.204,217.054 253.726 C 211.330 258.067,189.443 257.967,183.036 253.571 C 182.136 252.954,180.065 252.061,178.434 251.588 C 175.166 250.639,173.494 249.704,170.629 247.225 C 169.579 246.316,167.793 245.104,166.660 244.531 C 164.042 243.208,158.162 237.180,156.178 233.788 C 155.369 232.404,153.994 230.410,153.124 229.357 C 150.763 226.499,149.804 224.597,148.640 220.461 C 148.061 218.404,147.141 215.959,146.594 215.026 C 142.805 208.561,142.802 191.844,146.589 185.383 C 147.132 184.456,148.137 181.758,148.822 179.387 C 150.103 174.955,151.163 172.865,153.402 170.361 C 154.110 169.569,155.285 167.801,156.015 166.432 C 156.745 165.064,157.861 163.551,158.495 163.072 C 162.247 160.238,162.456 159.940,163.035 156.613 C 163.668 152.971,163.667 152.970,160.579 151.407 C 159.327 150.774,157.779 149.567,157.070 148.671 C 155.450 146.628,153.764 144.943,151.680 143.290 C 150.772 142.569,149.386 141.011,148.600 139.827 C 147.815 138.643,146.867 137.558,146.495 137.415 C 145.958 137.209,145.991 137.345,146.655 138.078 M123.401 170.723 C 124.691 173.376,122.914 178.779,120.200 180.456 C 118.597 181.446,119.331 181.401,121.441 180.380 C 124.632 178.836,126.046 173.024,123.827 170.578 L 122.757 169.400 123.401 170.723 M194.694 269.612 L 193.083 271.223 193.322 274.618 C 193.717 280.207,195.089 281.600,200.200 281.600 C 205.311 281.600,206.683 280.207,207.078 274.618 L 207.317 271.223 205.706 269.612 L 204.094 268.000 200.200 268.000 L 196.306 268.000 194.694 269.612 M162.687 268.837 C 160.740 269.295,159.194 270.102,158.237 271.159 C 157.329 272.162,157.655 272.244,159.013 271.354 C 163.062 268.702,167.007 269.054,170.634 272.392 C 171.533 273.219,172.765 274.221,173.371 274.618 C 174.579 275.409,175.164 276.556,175.609 279.000 L 175.900 280.600 175.948 279.200 C 176.164 272.856,169.092 267.329,162.687 268.837 M204.840 270.442 C 206.599 272.326,206.325 278.151,204.380 280.221 C 201.784 282.985,195.482 281.215,194.768 277.521 C 193.539 271.167,194.823 269.200,200.200 269.200 C 203.576 269.200,203.713 269.237,204.840 270.442 " stroke="none" fill="#cc9c7c" fill-rule="evenodd"></path></g></svg>