<svg id="svg" version="1.1" xmlns="http://www.w3.org/2000/svg" xmlns:xlink="http://www.w3.org/1999/xlink" width="400" height="400" viewBox="0, 0, 400,400"><g id="svgg"><path id="path0" d="M258.741 94.814 C 253.155 95.161,252.633 95.340,249.935 97.840 C 248.909 98.790,247.649 99.660,247.135 99.773 C 244.456 100.361,237.301 100.940,230.023 101.157 L 221.845 101.400 220.057 103.600 C 217.270 107.027,216.938 107.151,209.699 107.449 C 202.715 107.738,201.968 107.961,200.431 110.225 C 198.633 112.873,197.806 113.133,190.636 113.312 L 184.272 113.470 183.236 114.672 C 182.666 115.333,181.896 116.438,181.523 117.128 C 180.401 119.210,178.655 119.997,175.158 119.999 C 171.803 120.000,170.945 120.467,169.375 123.145 C 168.361 124.874,166.528 125.600,163.177 125.600 C 159.519 125.600,158.766 125.962,157.470 128.342 C 155.879 131.265,154.673 131.981,150.922 132.232 C 146.334 132.538,146.193 132.597,144.837 134.801 C 144.160 135.903,142.859 137.298,141.948 137.902 C 141.036 138.506,139.190 140.087,137.845 141.417 C 135.456 143.778,135.317 143.850,131.800 144.574 C 127.621 145.434,127.609 145.442,125.546 148.479 C 124.551 149.944,123.600 150.885,122.949 151.048 C 122.294 151.213,121.434 152.070,120.574 153.414 C 119.061 155.778,118.024 156.707,115.748 157.733 C 114.623 158.240,113.910 158.962,113.194 160.318 C 112.474 161.682,111.695 162.467,110.367 163.168 C 108.954 163.915,108.270 164.641,107.383 166.335 C 106.702 167.636,105.752 168.792,105.057 169.167 C 103.067 170.239,101.205 172.037,100.939 173.145 C 100.527 174.861,98.935 177.686,97.417 179.395 C 96.638 180.272,95.707 181.892,95.346 182.995 C 94.266 186.304,93.699 187.103,91.253 188.764 L 88.914 190.353 88.712 193.895 C 88.465 198.217,87.521 200.562,85.326 202.300 C 82.878 204.239,82.000 207.918,81.999 216.248 C 81.997 223.317,81.670 224.439,79.174 225.958 C 76.544 227.557,75.600 234.046,75.600 250.531 L 75.600 259.448 76.847 260.724 C 78.305 262.215,79.632 262.323,86.884 261.537 L 91.168 261.073 93.484 259.142 C 96.533 256.599,97.163 256.452,107.000 255.967 C 116.444 255.502,116.543 255.474,118.200 252.891 C 120.158 249.838,121.614 249.099,125.200 249.334 C 131.105 249.721,134.741 248.893,136.323 246.800 C 138.374 244.088,139.866 243.346,143.926 243.021 C 147.637 242.725,148.874 242.101,149.929 239.997 C 150.799 238.259,152.725 237.324,156.333 236.884 C 159.657 236.479,161.600 235.480,161.600 234.177 C 161.600 233.026,164.716 230.874,167.061 230.406 C 171.913 229.437,172.365 229.239,173.370 227.647 C 174.688 225.560,175.515 224.800,176.468 224.800 C 178.008 224.800,179.804 223.595,180.937 221.801 C 182.744 218.938,183.463 218.558,187.638 218.262 C 191.642 217.977,191.571 218.020,193.413 214.815 C 193.860 214.037,194.845 213.040,195.602 212.600 C 196.359 212.160,198.172 210.560,199.632 209.043 L 202.286 206.287 205.843 205.763 C 209.653 205.202,209.524 205.285,212.372 201.568 C 212.907 200.870,213.987 200.035,214.772 199.712 C 216.405 199.041,218.400 197.296,218.400 196.538 C 218.400 195.928,221.048 193.200,221.640 193.200 C 222.415 193.200,224.800 191.107,224.800 190.427 C 224.800 189.614,226.524 187.931,228.244 187.064 C 228.929 186.719,230.422 185.360,231.562 184.044 C 232.953 182.438,234.124 181.497,235.118 181.185 C 237.373 180.476,240.671 178.388,241.253 177.302 C 241.924 176.047,243.384 175.065,245.463 174.468 C 247.048 174.013,248.248 172.919,250.140 170.205 C 250.547 169.621,251.717 168.628,252.740 167.998 C 253.763 167.368,254.926 166.300,255.324 165.624 C 256.184 164.165,258.411 162.004,259.059 162.002 C 259.510 162.000,261.111 160.256,262.521 158.230 C 262.917 157.661,264.257 156.521,265.499 155.697 C 267.115 154.625,268.040 153.648,268.754 152.257 C 269.332 151.132,270.352 149.933,271.176 149.409 C 272.963 148.273,273.721 147.410,274.658 145.447 C 275.212 144.286,275.998 143.564,277.766 142.593 C 279.327 141.735,280.365 140.842,280.818 139.964 C 281.196 139.234,282.454 137.908,283.614 137.018 C 285.962 135.216,285.830 135.406,287.780 131.054 C 288.556 129.323,289.817 127.214,290.581 126.368 C 291.346 125.521,292.410 123.967,292.946 122.914 C 294.109 120.631,295.273 119.494,297.309 118.655 C 298.219 118.280,299.093 117.526,299.509 116.758 C 300.712 114.536,302.391 112.865,303.920 112.366 C 305.604 111.818,305.985 111.393,305.994 110.058 C 305.999 109.216,307.920 106.291,308.990 105.494 C 309.521 105.098,312.400 108.264,312.400 109.245 C 312.400 110.414,310.256 112.512,308.582 112.982 C 307.094 113.399,307.038 113.483,306.329 116.368 C 305.545 119.560,304.347 121.865,302.435 123.864 C 301.770 124.560,300.995 125.892,300.713 126.824 C 300.127 128.762,298.697 130.360,296.552 131.473 C 295.737 131.896,294.793 132.683,294.456 133.221 C 293.845 134.196,293.847 134.196,295.021 133.146 C 295.669 132.566,296.830 131.780,297.600 131.399 C 299.744 130.339,300.715 129.263,301.405 127.185 C 301.752 126.141,302.613 124.679,303.318 123.938 C 305.414 121.734,305.561 121.459,306.371 118.217 C 307.195 114.917,307.640 114.299,310.236 112.842 C 312.608 111.512,313.200 110.262,313.200 106.585 C 313.200 100.328,317.320 98.409,318.135 104.286 C 318.432 106.427,318.202 189.121,317.888 193.000 C 317.712 195.178,317.804 194.795,318.175 191.800 C 318.938 185.650,319.140 105.285,318.404 100.800 C 317.839 97.359,317.169 95.840,315.896 95.112 C 314.852 94.515,267.523 94.269,258.741 94.814 M294.070 139.474 C 294.006 140.996,293.768 141.354,291.438 143.412 C 289.346 145.260,285.111 150.997,286.449 150.170 C 286.659 150.040,287.388 148.947,288.068 147.740 C 288.838 146.377,290.082 144.974,291.354 144.034 C 294.217 141.919,294.473 141.527,294.294 139.530 L 294.140 137.800 294.070 139.474 M281.998 156.233 C 281.993 158.588,281.200 160.356,279.548 161.691 C 276.221 164.381,275.860 164.773,278.000 163.373 C 281.549 161.051,281.898 160.600,282.207 157.939 C 282.360 156.625,282.375 155.442,282.242 155.309 C 282.109 155.176,281.999 155.592,281.998 156.233 M269.277 176.242 C 269.191 178.978,268.738 179.657,265.529 181.858 C 264.376 182.649,263.277 183.886,262.567 185.190 C 261.946 186.330,260.944 187.519,260.340 187.831 C 259.248 188.396,256.805 190.763,256.802 191.260 C 256.801 191.403,257.416 190.953,258.169 190.260 C 258.922 189.567,260.209 188.464,261.027 187.810 C 261.846 187.155,262.745 186.075,263.025 185.410 C 263.600 184.045,265.245 182.439,266.934 181.595 C 268.958 180.584,269.657 179.143,269.496 176.311 L 269.354 173.800 269.277 176.242 M315.405 198.729 C 312.220 200.931,312.000 201.616,312.000 209.324 C 312.000 216.570,311.525 218.444,309.276 220.082 C 306.973 221.757,305.377 227.026,305.778 231.624 L 306.045 234.682 304.722 235.769 C 303.995 236.367,302.780 237.250,302.022 237.730 C 299.863 239.097,299.275 240.523,299.602 243.600 L 299.878 246.200 299.939 243.389 C 300.010 240.109,300.476 239.258,303.018 237.768 C 305.900 236.080,306.281 235.249,306.490 230.200 C 306.685 225.503,307.739 222.283,309.645 220.561 C 311.873 218.547,312.400 216.488,312.400 209.793 C 312.400 202.620,312.598 201.957,315.528 199.308 C 317.695 197.350,317.657 197.172,315.405 198.729 M242.287 207.832 C 241.750 208.549,241.718 208.730,242.156 208.561 C 242.476 208.439,242.846 208.056,242.978 207.712 C 243.352 206.737,243.069 206.786,242.287 207.832 M239.706 211.300 C 239.490 211.575,238.643 213.091,237.824 214.669 C 236.776 216.686,235.869 217.845,234.770 218.572 C 233.910 219.141,232.720 220.370,232.125 221.303 C 231.530 222.237,230.674 223.430,230.222 223.955 C 229.642 224.628,229.577 224.855,230.000 224.725 C 230.330 224.624,231.230 223.614,232.000 222.481 C 232.770 221.348,234.120 219.906,235.000 219.277 C 237.079 217.791,237.245 217.564,238.926 213.900 C 240.322 210.858,240.488 210.302,239.706 211.300 M226.472 226.231 C 225.552 227.018,224.805 227.873,224.812 228.131 C 224.819 228.389,225.016 228.270,225.251 227.867 C 225.485 227.464,226.505 226.609,227.517 225.967 C 228.529 225.325,229.084 224.800,228.750 224.800 C 228.417 224.800,227.392 225.444,226.472 226.231 M224.097 229.593 C 223.822 230.033,221.959 231.216,219.957 232.222 C 215.629 234.395,215.467 234.853,219.622 233.170 C 222.586 231.970,225.032 230.095,224.747 229.240 C 224.664 228.991,224.375 229.148,224.097 229.593 M298.770 248.239 C 298.236 248.810,297.142 249.615,296.338 250.028 C 293.783 251.338,293.200 252.465,293.200 256.092 C 293.200 259.798,292.531 261.109,289.975 262.413 C 288.082 263.379,287.182 264.988,287.253 267.280 L 287.307 269.000 287.572 267.200 C 287.928 264.780,288.545 263.771,290.374 262.616 C 292.955 260.987,293.600 259.722,293.600 256.292 C 293.600 252.841,294.114 251.912,296.942 250.255 C 297.901 249.693,298.986 248.775,299.352 248.216 C 300.205 246.916,299.997 246.924,298.770 248.239 M185.762 260.847 C 185.343 261.313,184.640 261.842,184.200 262.022 C 183.634 262.254,183.583 262.357,184.025 262.375 C 184.369 262.389,185.168 261.860,185.800 261.200 C 186.432 260.540,186.854 260.000,186.737 260.000 C 186.620 260.000,186.181 260.381,185.762 260.847 M281.958 276.569 C 281.431 277.102,280.577 278.098,280.059 278.782 C 279.541 279.466,278.428 280.377,277.585 280.807 C 276.129 281.550,274.800 282.951,274.800 283.743 C 274.800 283.944,275.178 283.628,275.639 283.041 C 276.100 282.455,277.450 281.353,278.639 280.592 C 279.828 279.832,280.800 279.034,280.800 278.819 C 280.800 278.604,281.359 277.792,282.041 277.014 C 283.454 275.405,283.400 275.112,281.958 276.569 M157.513 277.500 C 157.178 277.885,156.688 278.615,156.426 279.121 C 155.524 280.863,153.694 281.597,150.247 281.599 C 146.476 281.600,145.252 282.211,142.785 285.323 C 141.317 287.174,140.891 287.453,138.869 287.889 L 136.600 288.377 138.800 288.164 C 141.150 287.936,142.509 287.004,144.000 284.600 C 145.337 282.446,146.871 281.858,150.387 282.151 C 154.092 282.460,155.457 281.775,157.262 278.700 C 158.442 276.688,158.512 276.355,157.513 277.500 M273.581 285.821 C 273.053 286.382,271.865 287.176,270.940 287.585 C 269.912 288.040,268.858 288.934,268.228 289.885 C 267.662 290.741,266.384 291.956,265.388 292.586 C 264.101 293.399,263.219 294.403,262.338 296.056 C 261.437 297.746,260.568 298.722,259.160 299.625 C 258.095 300.309,256.829 301.528,256.348 302.334 C 255.866 303.140,255.096 304.258,254.636 304.819 C 254.176 305.379,254.340 305.263,255.000 304.562 C 255.660 303.860,256.534 302.803,256.942 302.212 C 257.350 301.622,258.520 300.537,259.542 299.802 C 260.564 299.066,261.909 297.595,262.532 296.532 C 263.275 295.263,264.477 294.051,266.036 293.000 C 267.341 292.120,268.505 291.096,268.624 290.725 C 268.879 289.921,270.993 288.064,272.706 287.139 C 273.380 286.775,274.133 286.100,274.379 285.639 C 274.973 284.529,274.746 284.581,273.581 285.821 M133.300 288.676 C 133.685 288.776,134.315 288.776,134.700 288.676 C 135.085 288.575,134.770 288.493,134.000 288.493 C 133.230 288.493,132.915 288.575,133.300 288.676 M117.312 294.695 C 118.364 294.777,119.984 294.776,120.912 294.692 C 121.840 294.608,120.980 294.541,119.000 294.542 C 117.020 294.543,116.260 294.612,117.312 294.695 M105.331 299.173 C 104.149 300.501,103.859 300.616,101.131 300.835 L 98.200 301.071 101.046 301.135 C 104.058 301.204,105.444 300.586,106.435 298.735 C 107.115 297.465,106.706 297.627,105.331 299.173 M89.264 302.134 L 87.971 303.468 89.086 304.553 C 91.187 306.600,93.600 308.493,93.600 308.095 C 93.600 307.876,92.625 306.945,91.434 306.026 C 87.782 303.209,88.330 301.573,93.064 301.163 L 95.800 300.926 93.178 300.863 C 90.696 300.803,90.488 300.871,89.264 302.134 M251.400 307.035 L 250.200 308.066 251.600 307.163 C 253.396 306.004,253.401 306.000,252.967 306.002 C 252.765 306.003,252.060 306.468,251.400 307.035 M239.762 312.358 C 239.082 312.773,237.774 314.236,236.857 315.609 C 235.940 316.983,235.472 317.872,235.818 317.585 C 236.163 317.298,236.894 316.300,237.441 315.366 C 238.582 313.419,239.997 312.365,242.000 311.969 C 243.373 311.697,243.377 311.691,242.200 311.647 C 241.540 311.623,240.443 311.943,239.762 312.358 M108.248 318.770 C 109.155 318.919,110.415 319.356,111.048 319.742 L 112.200 320.444 111.000 319.424 C 110.114 318.671,109.381 318.417,108.200 318.452 L 106.600 318.500 108.248 318.770 M229.978 319.939 C 229.000 320.566,227.843 321.511,227.406 322.039 C 226.713 322.878,226.764 322.864,227.806 321.928 C 228.463 321.339,229.810 320.396,230.800 319.833 C 231.790 319.270,232.410 318.807,232.178 318.805 C 231.946 318.802,230.956 319.313,229.978 319.939 M120.300 324.682 C 120.795 324.778,121.605 324.778,122.100 324.682 C 122.595 324.587,122.190 324.509,121.200 324.509 C 120.210 324.509,119.805 324.587,120.300 324.682 M216.291 324.689 C 217.001 324.777,218.261 324.779,219.091 324.692 C 219.921 324.605,219.340 324.533,217.800 324.531 C 216.260 324.529,215.581 324.600,216.291 324.689 M124.033 324.930 C 124.125 325.001,124.830 325.466,125.600 325.963 L 127.000 326.866 125.800 325.835 C 125.140 325.268,124.435 324.803,124.233 324.802 C 124.032 324.801,123.942 324.858,124.033 324.930 M212.981 325.858 C 212.441 326.441,212.000 327.101,212.000 327.325 C 212.000 327.550,212.045 327.657,212.100 327.565 C 212.155 327.472,212.729 326.812,213.375 326.098 C 214.021 325.384,214.417 324.800,214.256 324.800 C 214.094 324.800,213.520 325.276,212.981 325.858 M148.200 330.806 L 143.400 331.039 148.640 331.120 C 154.445 331.209,156.138 331.879,157.842 334.763 C 158.236 335.430,158.773 336.058,159.037 336.159 C 159.908 336.493,156.849 332.271,155.713 331.572 C 154.137 330.602,153.579 330.545,148.200 330.806 M189.126 331.214 C 188.315 331.642,187.539 332.175,187.402 332.397 C 187.264 332.619,187.838 332.396,188.676 331.901 C 189.514 331.405,191.190 330.891,192.400 330.759 L 194.600 330.518 192.600 330.476 C 191.322 330.450,190.068 330.716,189.126 331.214 M201.900 331.082 C 202.395 331.178,203.205 331.178,203.700 331.082 C 204.195 330.987,203.790 330.909,202.800 330.909 C 201.810 330.909,201.405 330.987,201.900 331.082 " stroke="none" fill="#18b054" fill-rule="evenodd"></path><path id="path1" d="M315.131 100.903 C 313.624 102.123,313.200 103.359,313.200 106.527 C 313.200 110.267,312.618 111.506,310.236 112.842 C 307.640 114.299,307.195 114.917,306.371 118.217 C 305.561 121.459,305.414 121.734,303.318 123.938 C 302.613 124.679,301.752 126.141,301.405 127.185 C 300.700 129.308,299.756 130.329,297.400 131.516 C 294.256 133.100,293.861 133.871,294.188 137.792 C 294.514 141.708,294.520 141.695,291.331 144.051 C 290.041 145.004,288.839 146.355,288.143 147.634 C 287.354 149.084,286.408 150.082,284.923 151.032 C 282.630 152.499,282.575 152.624,282.215 157.180 C 281.948 160.553,281.653 161.020,278.514 163.034 C 276.999 164.006,276.148 164.924,275.406 166.388 C 274.605 167.969,273.998 168.585,272.586 169.248 C 269.733 170.590,269.222 171.617,269.487 175.478 C 269.736 179.112,269.165 180.480,266.934 181.595 C 265.245 182.439,263.600 184.045,263.025 185.410 C 262.745 186.075,261.850 187.155,261.035 187.810 C 260.220 188.464,258.619 189.874,257.477 190.942 C 256.335 192.011,254.841 193.127,254.158 193.423 C 252.949 193.948,250.400 196.487,250.400 197.166 C 250.400 197.661,247.926 200.000,247.403 200.000 C 246.321 200.000,244.369 202.729,243.666 205.223 C 243.238 206.744,242.461 208.333,241.770 209.100 C 241.127 209.816,239.790 212.065,238.800 214.100 C 237.329 217.123,236.642 218.067,235.043 219.262 C 233.967 220.066,232.590 221.521,231.984 222.495 C 231.177 223.792,230.284 224.559,228.651 225.358 C 226.339 226.489,224.800 228.016,224.800 229.179 C 224.800 230.346,222.707 231.917,219.399 233.231 C 217.640 233.931,215.639 235.032,214.953 235.678 C 214.268 236.325,212.648 237.179,211.353 237.577 C 209.215 238.235,208.833 238.534,207.174 240.850 C 206.170 242.253,204.583 243.915,203.647 244.545 C 202.711 245.174,201.433 246.513,200.806 247.520 C 200.079 248.689,198.915 249.794,197.591 250.576 C 196.149 251.426,195.216 252.350,194.537 253.600 C 193.322 255.833,191.650 257.323,189.598 258.001 C 188.590 258.333,187.452 259.199,186.434 260.406 C 184.890 262.237,184.736 262.313,181.183 263.003 C 177.384 263.741,175.863 264.880,174.986 267.645 C 174.646 268.714,172.998 269.470,169.366 270.220 C 165.862 270.944,165.196 271.305,163.904 273.185 C 163.313 274.044,162.259 274.794,160.863 275.350 C 159.038 276.076,158.538 276.521,157.436 278.400 C 155.451 281.786,154.169 282.466,150.370 282.149 C 146.874 281.858,145.214 282.508,143.932 284.672 C 141.981 287.970,138.501 289.010,131.109 288.506 C 127.654 288.271,126.584 288.919,125.033 292.186 C 123.792 294.801,121.263 295.282,113.447 294.386 C 108.881 293.863,108.651 293.960,107.198 297.003 C 105.332 300.913,104.634 301.305,99.800 301.158 C 88.738 300.822,86.322 302.205,91.374 305.983 C 92.391 306.744,93.774 308.224,94.446 309.272 C 95.167 310.395,96.352 311.555,97.330 312.094 C 98.243 312.598,99.352 313.621,99.795 314.367 C 101.838 317.813,102.796 318.400,106.374 318.400 C 110.221 318.400,111.050 318.817,112.774 321.620 C 114.553 324.511,115.459 324.965,118.823 324.653 C 123.338 324.233,124.623 324.606,127.061 327.043 C 130.485 330.467,132.241 330.844,144.496 330.779 C 155.848 330.718,155.820 330.711,158.120 334.227 C 159.882 336.919,161.889 337.294,173.400 337.080 C 183.470 336.894,184.305 336.691,186.268 333.959 C 188.698 330.575,189.117 330.476,199.916 330.709 L 209.232 330.909 210.256 329.955 C 210.820 329.430,211.653 328.213,212.107 327.252 C 213.239 324.858,214.624 324.327,219.334 324.480 C 223.503 324.616,225.066 324.042,228.318 321.180 C 229.800 319.875,231.362 319.096,235.096 317.800 C 235.369 317.706,236.236 316.622,237.022 315.392 C 239.099 312.146,240.295 311.532,243.914 311.854 C 247.202 312.146,247.738 311.856,250.024 308.554 C 250.651 307.649,251.760 306.626,252.488 306.280 C 253.992 305.566,255.080 304.454,256.347 302.334 C 256.828 301.528,258.095 300.309,259.160 299.625 C 260.568 298.722,261.437 297.746,262.338 296.056 C 263.219 294.403,264.101 293.399,265.388 292.586 C 266.384 291.956,267.662 290.741,268.228 289.885 C 268.858 288.934,269.912 288.040,270.940 287.585 C 272.965 286.690,274.424 285.215,274.985 283.498 C 275.224 282.765,275.992 281.847,276.800 281.329 C 279.540 279.569,280.098 279.080,280.882 277.750 C 281.429 276.824,282.451 276.035,284.162 275.218 C 287.401 273.672,287.768 272.958,287.408 268.893 C 287.067 265.034,287.631 263.609,289.975 262.413 C 292.531 261.109,293.200 259.798,293.200 256.092 C 293.200 252.466,293.782 251.340,296.338 250.025 C 299.386 248.457,299.961 247.399,299.612 244.000 C 299.252 240.493,299.765 239.159,302.022 237.730 C 302.780 237.250,303.995 236.367,304.722 235.769 L 306.045 234.682 305.778 231.624 C 305.377 227.026,306.973 221.757,309.276 220.082 C 311.525 218.444,312.000 216.570,312.000 209.324 C 312.000 201.573,312.226 200.888,315.509 198.683 C 317.442 197.384,317.400 197.522,317.965 190.600 C 318.571 183.172,318.363 103.694,317.734 102.596 C 316.836 101.024,315.807 100.356,315.131 100.903 " stroke="none" fill="#8cd354" fill-rule="evenodd"></path><path id="path2" d="M0.000 200.000 L 0.000 400.000 200.000 400.000 L 400.000 400.000 400.000 370.600 L 400.000 341.200 398.400 341.200 L 396.800 341.200 396.800 338.000 L 396.800 334.800 393.800 334.800 L 390.800 334.800 390.800 328.418 C 390.800 322.253,390.766 321.985,389.790 320.547 C 389.235 319.729,388.399 317.786,387.934 316.230 C 386.958 312.968,386.210 311.333,385.172 310.194 C 384.615 309.583,384.408 308.617,384.319 306.208 C 384.184 302.593,383.397 301.669,379.604 300.672 C 374.574 299.350,374.060 296.517,378.333 293.666 C 381.188 291.760,381.470 291.277,380.877 289.301 C 379.789 285.667,378.961 285.014,375.286 284.884 L 372.000 284.768 372.000 278.584 L 372.000 272.400 368.800 272.400 L 365.600 272.400 365.600 262.891 L 365.600 253.381 362.400 250.200 L 359.200 247.019 359.200 240.909 L 359.200 234.800 356.200 234.800 L 353.200 234.800 353.200 228.600 L 353.200 222.400 350.000 222.400 L 346.800 222.400 346.800 216.000 L 346.800 209.600 343.800 209.600 L 340.800 209.600 340.800 201.800 L 340.800 194.000 337.672 194.000 C 334.666 194.000,334.479 193.945,332.882 192.578 L 331.220 191.155 332.009 189.078 C 332.443 187.935,333.159 186.512,333.599 185.916 C 334.089 185.253,334.400 184.205,334.400 183.216 L 334.400 181.600 331.178 181.600 L 327.955 181.600 327.169 183.500 C 325.687 187.085,324.929 188.195,323.460 188.933 L 322.000 189.666 322.000 195.407 C 322.000 201.683,321.685 203.200,320.383 203.200 C 319.775 203.200,319.602 203.391,319.750 203.900 C 321.052 208.362,319.466 212.000,316.220 212.000 C 315.706 212.000,315.597 212.632,315.584 215.700 C 315.543 224.776,315.144 225.831,311.599 226.232 C 308.750 226.554,308.941 226.095,308.630 233.400 C 308.379 239.306,308.314 239.425,305.137 239.846 C 302.612 240.181,302.410 240.504,302.891 243.442 L 303.292 245.883 305.069 246.242 C 307.323 246.696,307.341 247.156,305.150 248.312 C 304.187 248.819,303.259 249.651,303.086 250.160 C 302.704 251.284,301.271 251.982,298.722 252.284 C 296.068 252.598,295.984 252.791,296.485 257.410 C 297.100 263.084,296.641 264.106,293.138 264.862 L 290.600 265.410 290.564 270.067 C 290.516 276.424,289.785 278.000,286.888 278.000 C 285.571 278.000,284.629 278.888,284.249 280.489 C 283.893 281.987,282.535 283.148,280.830 283.410 C 278.236 283.810,277.448 284.447,277.119 286.410 C 276.789 288.386,275.484 289.837,273.681 290.231 C 271.775 290.647,271.680 290.724,271.408 292.073 C 270.800 295.088,270.563 295.321,267.266 296.145 C 265.529 296.580,265.426 296.687,264.949 298.564 C 264.322 301.034,263.384 301.976,260.936 302.595 C 259.354 302.995,258.981 303.259,258.895 304.042 C 258.837 304.569,258.694 305.740,258.578 306.645 L 258.368 308.289 255.884 308.546 C 253.317 308.811,252.400 309.430,252.400 310.896 C 252.400 314.194,248.730 315.582,242.675 314.575 C 240.752 314.255,239.744 315.074,239.148 317.441 C 238.624 319.523,237.524 320.589,235.289 321.182 C 233.852 321.564,233.482 321.879,232.971 323.155 C 231.715 326.296,225.468 327.968,219.053 326.882 C 215.314 326.248,214.747 326.558,213.640 329.839 C 213.288 330.882,212.550 332.058,212.000 332.454 C 210.049 333.856,200.507 334.435,194.099 333.540 C 190.268 333.004,189.511 333.361,188.791 336.034 C 187.764 339.847,186.720 340.075,170.929 339.921 C 156.635 339.782,156.767 339.814,155.562 336.243 C 154.476 333.027,154.206 332.906,149.999 333.757 C 148.018 334.157,146.083 334.363,145.699 334.216 C 145.314 334.068,141.291 333.799,136.758 333.618 C 126.716 333.217,125.284 332.793,124.439 329.972 C 123.683 327.450,123.203 327.227,118.487 327.213 C 112.784 327.195,110.902 326.293,110.110 323.200 L 109.751 321.800 105.715 321.530 C 100.267 321.167,98.000 319.791,98.000 316.848 C 98.000 315.825,96.965 314.800,95.932 314.800 C 93.471 314.800,91.600 312.823,91.600 310.224 C 91.600 308.767,91.106 308.400,89.149 308.400 C 85.147 308.400,84.024 300.863,87.736 298.923 C 89.315 298.098,96.137 297.772,100.400 298.318 C 103.829 298.757,104.576 298.423,105.002 296.259 C 105.892 291.739,106.596 291.431,115.209 291.800 C 122.665 292.120,123.346 291.970,123.757 289.917 C 124.497 286.214,125.514 285.606,130.967 285.602 C 137.377 285.598,140.790 284.374,141.422 281.854 C 141.944 279.775,145.082 278.841,150.200 279.243 C 153.894 279.533,154.369 279.272,155.144 276.525 C 155.559 275.056,155.886 274.719,157.811 273.777 C 159.567 272.918,160.153 272.374,160.745 271.052 C 162.046 268.144,163.995 267.211,168.800 267.196 C 172.276 267.185,173.113 266.678,173.991 264.051 C 174.819 261.576,174.924 261.490,178.400 260.428 C 180.370 259.827,181.507 259.158,183.093 257.666 C 185.216 255.671,187.309 254.800,189.986 254.800 C 191.322 254.800,191.631 254.355,192.390 251.344 C 192.839 249.562,193.830 248.677,195.878 248.227 C 197.437 247.884,197.798 247.461,198.376 245.302 C 198.626 244.368,199.225 243.236,199.707 242.786 C 200.529 242.020,201.093 241.800,202.959 241.516 C 203.491 241.434,203.885 240.804,204.281 239.400 C 204.965 236.977,205.764 236.242,208.614 235.413 C 209.817 235.064,210.800 234.585,210.800 234.349 C 210.800 231.959,212.745 230.447,217.463 229.167 C 220.710 228.287,222.163 227.346,222.567 225.862 C 222.882 224.701,224.504 223.593,226.710 223.030 C 228.438 222.589,228.564 222.459,229.224 220.435 C 229.993 218.077,230.785 217.112,232.795 216.086 C 234.425 215.254,234.537 215.038,235.417 211.003 C 236.187 207.472,237.627 205.503,239.836 204.962 C 241.388 204.582,241.587 204.195,241.594 201.544 C 241.602 198.507,242.380 197.561,245.082 197.302 L 247.113 197.107 247.275 194.562 C 247.453 191.765,248.865 189.213,250.800 188.192 C 253.771 186.625,255.379 185.982,256.905 185.749 C 259.449 185.361,259.878 185.007,260.171 183.057 C 260.509 180.801,261.493 179.931,263.978 179.692 C 266.834 179.418,267.311 178.746,266.760 175.769 C 265.594 169.466,266.573 166.848,270.248 166.451 L 272.569 166.200 273.036 163.862 C 273.601 161.040,274.240 160.329,276.482 160.029 C 278.472 159.763,278.672 159.284,278.755 154.600 C 278.847 149.372,279.717 147.909,283.048 147.377 L 284.697 147.114 284.922 144.929 C 285.232 141.930,285.599 141.600,288.625 141.600 C 291.619 141.600,291.457 141.855,291.175 137.600 C 291.051 135.730,290.916 134.803,290.875 135.540 C 290.702 138.633,289.349 140.018,285.950 140.578 C 284.560 140.808,284.490 140.897,284.239 142.792 C 283.901 145.335,283.306 145.881,280.500 146.221 C 277.864 146.539,277.200 146.935,277.200 148.189 C 277.200 150.821,275.409 152.800,273.027 152.800 C 272.270 152.800,271.963 153.051,271.808 153.800 C 271.693 154.350,271.518 155.205,271.417 155.700 C 271.043 157.543,270.191 158.174,267.779 158.392 C 265.197 158.626,264.960 158.872,264.596 161.695 C 264.329 163.776,263.656 164.693,262.172 164.999 C 261.637 165.110,260.759 165.291,260.220 165.403 C 259.382 165.576,259.170 165.955,258.766 168.012 C 258.225 170.762,258.194 170.792,255.295 171.373 C 253.159 171.801,253.138 171.819,252.428 173.917 C 251.628 176.281,250.848 177.028,248.800 177.393 C 246.405 177.820,246.000 178.029,246.000 178.840 C 246.000 182.156,243.391 183.892,238.200 184.031 C 234.308 184.135,234.000 184.236,234.000 185.417 C 234.000 187.867,232.624 189.199,229.511 189.763 C 227.987 190.038,226.800 191.218,226.800 192.458 C 226.800 193.619,224.898 195.493,223.442 195.766 C 221.798 196.074,221.411 196.503,220.836 198.653 C 220.297 200.669,219.702 201.197,217.278 201.808 C 215.324 202.301,214.672 203.049,214.201 205.334 C 213.676 207.883,212.536 208.400,207.441 208.400 C 202.561 208.400,201.600 208.805,201.600 210.858 C 201.600 212.025,199.648 213.955,198.190 214.228 C 196.543 214.537,196.023 215.116,195.217 217.538 C 194.251 220.444,192.421 221.270,187.841 220.869 C 184.118 220.542,182.800 221.143,182.800 223.165 C 182.800 224.436,181.556 225.582,179.519 226.187 C 177.434 226.806,176.000 227.772,176.000 228.558 C 176.000 231.726,173.871 233.220,168.870 233.563 C 165.494 233.794,165.395 233.830,164.890 235.000 C 163.727 237.695,163.328 238.230,161.994 238.877 C 161.078 239.321,159.381 239.589,157.040 239.658 C 153.149 239.772,153.104 239.796,151.858 242.376 C 150.485 245.219,149.391 245.777,144.872 245.939 C 140.779 246.086,140.001 246.375,139.999 247.749 C 139.996 249.052,138.527 251.171,137.304 251.637 C 134.064 252.868,128.212 253.433,125.971 252.730 C 122.466 251.630,121.693 251.749,120.953 253.500 C 118.844 258.486,119.291 258.300,108.400 258.741 C 98.602 259.138,97.669 259.346,96.384 261.426 C 94.972 263.711,93.466 264.122,85.067 264.516 C 72.678 265.097,73.375 266.304,73.472 244.432 C 73.556 225.457,73.560 225.432,76.794 224.041 C 79.469 222.890,79.361 223.368,79.382 212.606 C 79.405 200.614,79.498 200.337,84.200 198.311 C 85.382 197.801,85.406 197.729,85.809 193.565 C 86.294 188.550,86.861 187.442,89.298 186.749 C 91.885 186.013,92.379 185.161,92.400 181.400 C 92.424 177.072,93.276 175.167,95.518 174.427 C 97.154 173.887,97.641 173.222,98.220 170.738 C 98.562 169.269,100.112 167.916,102.299 167.175 C 103.314 166.831,104.278 166.291,104.441 165.975 C 104.604 165.659,105.084 164.680,105.507 163.800 C 106.091 162.586,106.667 162.055,107.898 161.598 C 109.719 160.923,111.200 159.738,111.200 158.957 C 111.200 157.428,112.292 156.236,114.668 155.170 C 116.968 154.137,117.189 153.924,117.615 152.327 C 118.191 150.161,118.955 149.288,121.077 148.372 C 122.464 147.773,122.939 147.257,123.825 145.384 C 125.143 142.597,126.363 141.988,131.200 141.699 C 134.775 141.486,135.600 141.164,135.600 139.982 C 135.600 138.699,137.565 136.834,139.517 136.265 C 141.254 135.759,141.396 135.612,141.845 133.852 C 142.869 129.837,144.587 128.921,150.217 129.390 C 153.879 129.695,154.125 129.560,155.207 126.653 C 156.204 123.976,157.784 123.200,162.236 123.200 C 166.188 123.200,167.200 122.688,167.200 120.691 C 167.200 117.859,169.505 116.600,174.693 116.600 C 178.754 116.600,178.688 116.644,179.378 113.490 C 180.032 110.498,182.373 109.840,191.023 110.219 C 198.098 110.529,198.400 110.440,198.400 108.057 C 198.400 105.202,200.436 104.501,209.969 104.075 L 216.139 103.800 216.675 101.434 C 217.598 97.362,218.719 96.994,228.273 97.630 C 234.915 98.072,241.600 97.575,241.600 96.639 C 241.600 95.717,243.595 94.090,245.366 93.567 C 246.375 93.269,247.200 92.914,247.200 92.777 C 247.200 91.750,249.809 91.428,258.600 91.371 C 272.896 91.279,271.599 91.425,271.606 89.900 C 271.615 88.095,271.938 87.762,274.000 87.440 C 275.441 87.215,275.700 87.259,275.300 87.660 C 274.222 88.739,274.711 89.317,276.500 89.080 C 278.045 88.876,278.129 88.908,277.424 89.428 C 276.666 89.986,276.668 90.000,277.524 90.000 C 278.012 90.000,278.400 90.250,278.400 90.566 C 278.400 91.303,281.206 91.442,292.466 91.261 L 301.133 91.123 301.386 90.114 C 301.549 89.464,301.419 88.863,301.019 88.421 C 300.679 88.045,300.400 87.274,300.400 86.708 C 300.400 85.306,298.816 84.800,294.431 84.800 L 290.982 84.800 287.691 81.492 L 284.400 78.183 284.400 68.892 L 284.400 59.600 281.200 59.600 L 278.000 59.600 278.000 56.600 L 278.000 53.600 275.000 53.600 L 272.000 53.600 272.000 47.400 L 272.000 41.200 268.800 41.200 L 265.600 41.200 265.600 31.800 L 265.600 22.400 262.400 22.400 L 259.200 22.400 259.200 16.000 L 259.200 9.600 256.200 9.600 L 253.200 9.600 253.200 4.800 L 253.200 0.000 126.600 0.000 L 0.000 0.000 0.000 200.000 M308.589 108.818 C 308.447 109.047,308.551 109.499,308.819 109.822 C 309.416 110.542,310.473 109.857,310.133 108.971 C 309.878 108.305,308.962 108.214,308.589 108.818 M321.787 125.900 C 321.623 129.585,321.614 135.750,321.768 139.600 C 321.922 143.450,322.048 146.780,322.048 147.000 C 322.048 147.220,322.015 149.793,321.975 152.718 C 321.935 155.642,322.013 158.146,322.149 158.283 C 323.140 159.273,326.230 155.568,326.555 153.000 C 327.020 149.324,327.160 149.052,329.126 148.014 C 330.587 147.242,330.590 147.235,329.481 147.218 C 328.755 147.206,328.009 147.586,327.357 148.300 C 326.536 149.198,326.430 149.239,326.778 148.522 C 327.012 148.040,327.399 147.524,327.638 147.377 C 327.942 147.189,327.977 144.890,327.757 139.655 C 327.420 131.659,327.420 131.421,327.743 129.013 C 327.860 128.141,327.757 126.021,327.514 124.302 L 327.072 121.178 325.103 120.189 C 321.985 118.623,322.121 118.388,321.787 125.900 M296.901 123.400 C 296.905 124.280,296.987 124.593,297.083 124.095 C 297.179 123.598,297.175 122.878,297.075 122.495 C 296.975 122.113,296.896 122.520,296.901 123.400 " stroke="none" fill="#132534" fill-rule="evenodd"></path><path id="path3" d="M313.086 92.241 C 310.739 93.090,304.239 93.454,297.113 93.136 C 292.413 92.927,289.850 92.989,287.813 93.365 C 284.197 94.030,260.479 93.529,256.189 92.696 C 251.884 91.860,250.788 92.474,248.600 96.947 C 247.619 98.953,247.181 99.446,246.200 99.653 C 245.242 99.854,245.185 99.915,245.920 99.953 C 247.155 100.016,248.744 99.143,250.200 97.600 C 252.245 95.434,253.108 95.196,260.513 94.761 C 270.607 94.169,314.734 94.448,315.896 95.112 C 318.847 96.798,318.907 97.830,318.821 145.490 C 318.730 196.077,318.680 196.871,315.415 199.361 C 312.798 201.358,312.400 202.735,312.400 209.797 C 312.400 216.487,311.873 218.547,309.645 220.561 C 307.739 222.283,306.685 225.503,306.490 230.200 C 306.281 235.249,305.900 236.080,303.018 237.768 C 300.356 239.328,300.000 240.052,300.000 243.903 C 300.000 247.793,299.550 248.726,296.942 250.255 C 294.114 251.912,293.600 252.841,293.600 256.292 C 293.600 259.724,292.955 260.987,290.368 262.620 C 288.149 264.021,287.600 265.351,287.600 269.322 C 287.600 272.836,286.680 274.800,285.033 274.800 C 284.216 274.800,281.694 277.058,280.989 278.421 C 280.676 279.027,279.740 279.929,278.910 280.426 C 276.557 281.834,275.565 282.859,274.760 284.714 C 274.295 285.786,273.542 286.685,272.749 287.114 C 270.996 288.063,268.881 289.914,268.624 290.725 C 268.505 291.096,267.341 292.120,266.036 293.000 C 264.491 294.042,263.272 295.266,262.541 296.511 C 261.924 297.563,260.526 299.093,259.436 299.911 C 258.346 300.730,256.889 302.210,256.198 303.200 C 255.508 304.190,253.920 305.681,252.668 306.513 C 251.417 307.345,249.948 308.733,249.403 309.596 C 248.085 311.684,247.372 312.000,243.988 312.000 C 240.431 312.000,239.190 312.656,237.357 315.506 C 236.433 316.943,235.526 317.815,234.501 318.251 C 230.424 319.989,229.586 320.437,228.300 321.566 C 225.577 323.957,223.063 324.792,218.575 324.796 C 214.094 324.800,213.724 324.998,211.628 328.505 C 210.197 330.899,209.960 330.947,199.832 330.882 C 189.398 330.816,188.204 331.118,185.921 334.400 C 185.209 335.424,184.326 336.115,183.321 336.435 C 181.148 337.128,166.728 337.386,162.641 336.806 C 158.902 336.275,158.976 336.311,157.506 334.338 C 155.327 331.413,154.942 331.318,144.000 331.019 C 133.188 330.724,130.079 330.144,128.033 328.042 C 125.353 325.288,124.115 324.804,119.754 324.802 C 115.194 324.800,114.391 324.437,112.576 321.562 C 111.289 319.524,109.961 318.902,106.163 318.560 C 102.725 318.250,101.475 317.438,99.933 314.514 C 99.566 313.819,98.554 312.887,97.683 312.442 C 96.813 311.998,95.626 311.042,95.045 310.318 C 93.349 308.201,91.479 306.397,90.359 305.798 C 88.180 304.631,87.878 303.475,89.374 302.025 L 90.697 300.743 97.131 300.743 C 104.557 300.743,104.609 300.723,107.061 296.861 C 107.851 295.617,108.580 294.510,108.682 294.400 C 108.784 294.290,111.899 294.263,115.605 294.340 C 123.084 294.495,124.148 294.231,125.148 291.974 C 126.472 288.980,127.550 288.400,131.783 288.400 C 138.602 288.400,140.890 287.819,142.465 285.690 C 144.889 282.414,146.419 281.600,150.160 281.599 C 153.805 281.597,155.522 280.876,156.545 278.918 C 157.444 277.196,159.218 275.737,161.200 275.088 C 162.394 274.698,163.304 274.057,163.904 273.184 C 165.155 271.366,165.766 271.022,169.200 270.204 C 173.245 269.240,174.192 268.697,175.388 266.657 C 176.899 264.079,177.577 263.634,181.355 262.743 C 184.411 262.023,184.945 261.758,186.129 260.374 C 186.896 259.479,188.400 258.402,189.668 257.842 C 191.651 256.964,194.000 254.881,194.000 254.000 C 194.000 253.283,196.172 251.129,197.661 250.369 C 198.519 249.931,199.862 248.680,200.646 247.589 C 201.430 246.498,202.809 245.109,203.710 244.502 C 204.611 243.896,206.170 242.249,207.174 240.843 C 208.633 238.799,209.321 238.190,210.600 237.810 C 212.868 237.136,214.657 236.140,215.333 235.174 C 215.653 234.717,217.689 233.411,219.858 232.271 C 223.036 230.601,223.933 229.929,224.486 228.800 C 225.287 227.167,227.837 224.800,228.797 224.800 C 229.559 224.800,230.580 223.727,232.125 221.303 C 232.720 220.370,233.910 219.141,234.770 218.572 C 235.864 217.849,236.785 216.675,237.836 214.669 C 238.662 213.091,240.209 210.646,241.273 209.236 C 242.337 207.825,243.477 205.762,243.807 204.651 C 244.396 202.670,246.480 200.000,247.439 200.000 C 247.704 200.000,248.434 199.352,249.061 198.560 C 250.763 196.408,253.672 193.526,255.252 192.425 C 256.021 191.889,257.089 190.866,257.625 190.151 C 258.161 189.435,259.243 188.486,260.028 188.040 C 260.917 187.535,261.880 186.452,262.576 185.173 C 263.277 183.885,264.381 182.646,265.529 181.858 C 268.977 179.493,269.200 179.098,269.200 175.370 C 269.200 171.732,270.007 170.342,273.042 168.754 C 273.800 168.358,274.627 167.384,275.184 166.233 C 275.785 164.991,276.819 163.820,278.244 162.767 C 281.020 160.717,281.465 159.985,281.993 156.600 C 282.611 152.633,282.658 152.536,284.639 151.173 C 285.711 150.435,286.897 149.107,287.608 147.847 C 288.260 146.693,289.964 144.714,291.396 143.449 L 294.000 141.148 294.000 137.335 C 294.000 133.428,295.082 131.200,296.981 131.200 C 297.921 131.200,300.201 128.532,300.713 126.832 C 300.995 125.895,301.770 124.560,302.435 123.864 C 304.347 121.865,305.545 119.560,306.329 116.368 C 307.038 113.483,307.094 113.399,308.582 112.982 C 312.066 112.004,313.136 109.375,311.030 106.967 L 309.659 105.400 310.042 107.146 C 310.700 110.148,309.938 110.965,307.385 109.994 C 306.663 109.720,306.395 109.390,306.555 108.974 C 306.690 108.622,306.621 108.463,306.395 108.603 C 306.178 108.737,305.997 109.332,305.994 109.924 C 305.985 111.398,305.639 111.806,303.920 112.366 C 302.391 112.865,300.712 114.536,299.509 116.758 C 299.093 117.526,298.219 118.280,297.309 118.655 C 295.273 119.494,294.109 120.631,292.946 122.914 C 292.410 123.967,291.346 125.521,290.581 126.368 C 289.817 127.214,288.556 129.323,287.780 131.054 C 285.830 135.406,285.962 135.216,283.614 137.018 C 282.454 137.908,281.196 139.234,280.818 139.964 C 280.365 140.842,279.327 141.735,277.766 142.593 C 275.998 143.564,275.212 144.286,274.658 145.447 C 273.721 147.410,272.963 148.273,271.176 149.409 C 270.352 149.933,269.332 151.132,268.754 152.257 C 268.040 153.648,267.115 154.625,265.499 155.697 C 264.257 156.521,262.917 157.661,262.521 158.230 C 261.111 160.256,259.510 162.000,259.059 162.002 C 258.411 162.004,256.184 164.165,255.324 165.624 C 254.926 166.300,253.763 167.368,252.740 167.998 C 251.717 168.628,250.547 169.621,250.140 170.205 C 248.151 173.058,247.036 174.047,245.279 174.516 C 243.540 174.982,241.752 176.283,240.972 177.652 C 240.767 178.011,239.734 178.850,238.676 179.518 L 236.751 180.732 238.981 181.231 C 241.456 181.785,242.386 181.316,243.639 178.887 C 244.414 177.386,245.454 176.517,247.855 175.367 C 249.283 174.683,250.062 174.016,250.408 173.181 C 251.001 171.748,252.653 170.489,254.397 170.141 C 256.113 169.797,258.400 167.590,258.400 166.277 C 258.400 165.650,259.032 164.519,260.019 163.378 C 260.910 162.349,261.745 160.975,261.875 160.326 C 262.136 159.021,262.943 158.378,266.546 156.600 C 268.275 155.747,269.332 154.888,270.203 153.628 C 270.877 152.653,272.117 151.470,272.960 150.999 C 273.937 150.451,274.754 149.568,275.217 148.558 C 276.108 146.614,276.846 145.940,279.360 144.769 C 280.537 144.220,281.576 143.389,281.960 142.688 C 283.186 140.452,284.074 139.590,286.012 138.757 C 288.450 137.708,289.101 136.721,289.815 132.990 C 290.141 131.284,291.049 128.700,291.951 126.911 C 292.814 125.200,293.641 123.220,293.789 122.511 C 294.064 121.195,296.011 119.200,297.020 119.200 C 298.368 119.200,298.909 121.503,298.374 124.955 C 297.763 128.889,297.903 128.717,295.200 128.843 C 291.310 129.025,291.600 128.497,291.600 135.394 L 291.600 141.495 289.985 141.711 C 287.642 142.026,286.504 142.931,285.979 144.898 C 285.308 147.416,285.052 147.757,283.610 148.051 C 280.175 148.754,279.200 150.502,279.200 155.959 C 279.200 159.866,279.129 159.995,276.578 160.723 C 274.926 161.194,273.600 162.988,273.600 164.752 C 273.600 165.791,272.437 166.688,270.662 167.018 C 267.492 167.606,267.000 168.505,267.000 173.705 C 267.000 178.905,266.828 179.297,264.261 179.943 C 262.189 180.465,261.343 181.330,260.686 183.601 C 260.140 185.487,259.782 185.788,257.375 186.386 C 255.618 186.823,254.869 187.439,253.482 189.587 C 252.857 190.554,252.145 191.078,251.126 191.319 C 249.198 191.775,248.388 192.745,247.816 195.286 C 247.358 197.317,247.288 197.397,245.690 197.713 C 243.436 198.159,242.137 199.766,241.791 202.534 C 241.470 205.107,241.352 205.303,239.747 205.952 C 237.448 206.881,236.427 208.396,235.507 212.247 L 234.657 215.806 232.738 216.673 C 231.144 217.394,230.672 217.868,229.957 219.470 C 229.484 220.532,228.968 221.670,228.811 222.000 C 228.654 222.330,227.727 222.870,226.751 223.200 C 224.327 224.019,223.427 224.739,222.548 226.559 C 221.839 228.030,221.611 228.165,218.129 229.190 C 213.708 230.491,212.582 231.178,211.684 233.120 C 210.848 234.929,210.640 235.095,208.495 235.653 C 206.351 236.212,205.117 237.478,204.584 239.666 C 204.204 241.226,204.016 241.418,202.416 241.881 C 200.121 242.546,198.977 243.673,198.442 245.799 C 198.046 247.372,197.830 247.596,196.103 248.234 C 193.651 249.138,192.908 249.793,192.574 251.341 C 191.982 254.092,191.402 254.679,188.821 255.134 C 186.214 255.593,183.230 257.127,182.066 258.607 C 181.610 259.187,180.253 259.865,178.453 260.411 C 175.055 261.444,174.534 261.887,173.890 264.296 C 173.259 266.653,172.513 267.059,168.312 267.333 C 163.706 267.632,161.526 268.804,160.984 271.272 C 160.776 272.222,160.239 272.684,158.152 273.713 C 155.859 274.844,155.527 275.159,155.120 276.591 C 154.314 279.424,154.082 279.536,149.478 279.323 C 144.637 279.100,142.153 279.992,141.468 282.200 C 140.672 284.766,138.182 285.600,131.314 285.600 C 125.824 285.600,124.590 286.308,123.816 289.903 C 123.387 291.891,122.729 292.038,114.774 291.913 L 107.544 291.800 106.433 293.038 C 105.806 293.737,105.211 294.971,105.067 295.871 C 104.636 298.568,104.031 298.829,99.383 298.324 C 94.200 297.760,89.668 298.165,87.910 299.348 C 84.363 301.734,85.647 307.678,89.857 308.363 C 91.211 308.584,91.347 308.738,91.816 310.586 C 92.364 312.747,93.732 314.240,95.519 314.631 C 96.114 314.760,96.816 314.933,97.079 315.013 C 97.343 315.093,97.762 315.917,98.011 316.843 C 98.261 317.769,98.963 319.025,99.572 319.634 C 100.723 320.785,101.304 320.938,106.570 321.476 C 109.631 321.789,109.753 321.841,110.120 323.000 C 111.125 326.176,113.900 327.448,118.920 327.035 C 122.865 326.710,124.218 327.341,124.615 329.688 C 125.112 332.628,126.814 333.122,138.200 333.627 C 144.685 333.915,147.867 333.893,150.298 333.545 C 154.113 332.998,154.739 333.283,155.532 335.930 C 156.643 339.638,157.971 339.967,171.800 339.959 C 185.991 339.950,187.491 339.617,188.670 336.209 C 189.814 332.906,190.176 332.833,200.422 333.852 C 207.118 334.517,212.639 332.848,213.640 329.856 C 214.726 326.609,215.240 326.327,219.176 326.821 C 225.297 327.588,230.887 326.111,232.181 323.383 C 232.815 322.047,234.538 320.800,235.749 320.800 C 236.825 320.800,238.777 318.771,239.195 317.217 C 239.833 314.850,240.389 314.600,245.031 314.600 C 249.882 314.600,251.024 314.036,252.000 311.158 C 252.866 308.603,253.076 308.400,254.842 308.400 C 257.031 308.400,258.400 307.031,258.400 304.842 C 258.400 303.083,258.519 302.962,261.397 301.801 C 263.183 301.080,263.482 300.777,264.215 298.938 C 265.272 296.285,265.742 295.752,267.290 295.442 C 268.994 295.101,270.332 293.771,270.644 292.106 C 270.847 291.024,271.202 290.609,272.350 290.114 C 275.420 288.791,275.721 288.568,276.293 287.205 C 277.610 284.062,277.803 283.837,279.778 283.130 C 282.173 282.273,282.784 281.695,283.584 279.529 C 284.139 278.027,284.398 277.802,286.053 277.380 C 289.581 276.480,290.137 275.416,290.046 269.741 C 289.976 265.399,290.432 264.400,292.483 264.400 C 294.715 264.400,295.792 262.322,295.937 257.734 C 296.094 252.803,296.164 252.655,298.644 252.031 C 302.177 251.141,303.167 249.055,302.487 243.934 C 302.036 240.540,302.365 239.846,304.625 239.422 C 307.699 238.845,308.172 237.915,308.431 231.935 C 308.701 225.712,308.829 225.306,310.644 224.965 C 313.747 224.383,314.753 221.162,315.069 210.800 C 315.200 206.510,315.375 202.923,315.458 202.829 C 315.540 202.735,316.447 202.375,317.471 202.029 C 321.680 200.608,321.476 203.595,321.385 144.800 C 321.311 97.219,321.441 100.425,319.431 96.800 C 319.126 96.250,318.643 95.260,318.357 94.600 C 317.099 91.699,315.976 91.196,313.086 92.241 M220.279 99.609 C 219.714 100.054,218.871 101.449,218.408 102.709 C 217.944 103.969,217.206 105.496,216.768 106.103 L 215.972 107.205 217.120 106.503 C 217.751 106.116,219.073 104.810,220.057 103.600 L 221.845 101.400 227.423 101.200 C 232.370 101.023,232.751 100.961,230.800 100.659 C 229.590 100.472,227.571 99.977,226.313 99.559 C 223.366 98.581,221.567 98.596,220.279 99.609 M239.200 100.417 C 238.335 100.609,238.946 100.646,240.800 100.512 C 242.450 100.393,243.875 100.229,243.967 100.148 C 244.258 99.890,240.657 100.093,239.200 100.417 M202.175 107.648 L 201.000 108.897 202.280 108.248 C 203.165 107.800,204.709 107.588,207.280 107.560 C 209.326 107.539,211.990 107.399,213.200 107.251 L 215.400 106.980 212.600 106.693 C 206.106 106.027,203.474 106.268,202.175 107.648 M182.692 112.166 C 181.321 112.888,180.751 113.563,179.687 115.728 L 178.374 118.400 175.062 118.400 C 171.226 118.400,170.497 118.893,168.705 122.700 C 167.562 125.129,167.904 125.499,169.259 123.300 C 171.041 120.408,171.770 120.000,175.158 119.999 C 178.655 119.997,180.401 119.210,181.523 117.128 C 183.271 113.888,183.994 113.443,187.651 113.359 C 192.886 113.239,192.901 113.137,187.855 112.034 L 184.383 111.275 182.692 112.166 M158.286 125.845 C 157.286 126.995,155.144 131.344,155.878 130.736 C 156.168 130.494,156.894 129.401,157.490 128.306 C 158.773 125.948,159.518 125.602,163.326 125.594 C 164.907 125.591,166.405 125.456,166.655 125.294 C 166.905 125.132,165.308 124.979,163.105 124.954 C 159.376 124.912,159.044 124.973,158.286 125.845 M145.400 130.744 C 143.640 131.832,142.984 132.745,142.201 135.200 C 141.815 136.410,141.117 137.841,140.650 138.380 L 139.800 139.359 141.000 138.627 C 142.844 137.501,143.920 136.406,145.008 134.551 C 146.150 132.601,146.496 132.446,149.900 132.350 C 151.275 132.312,152.400 132.160,152.400 132.014 C 152.400 131.739,147.710 129.988,147.000 129.997 C 146.780 130.000,146.060 130.337,145.400 130.744 M127.092 145.120 C 126.531 145.714,125.672 146.975,125.184 147.922 C 124.538 149.176,123.820 149.869,122.549 150.466 C 121.589 150.917,120.307 151.909,119.702 152.669 C 118.230 154.516,116.748 155.994,115.192 157.168 C 114.486 157.701,113.370 159.012,112.712 160.082 C 111.998 161.241,110.926 162.331,110.057 162.779 C 109.256 163.193,107.914 164.359,107.075 165.371 C 106.237 166.383,104.677 167.654,103.610 168.195 C 101.482 169.273,100.125 170.873,99.751 172.746 C 99.516 173.921,98.852 174.703,96.079 177.072 C 94.938 178.047,94.702 178.580,94.338 181.000 C 94.107 182.540,93.848 184.187,93.761 184.660 C 93.611 185.487,92.755 186.432,89.500 189.367 C 88.114 190.617,88.000 190.886,88.000 192.910 C 88.000 197.013,87.774 197.462,84.847 199.178 C 80.743 201.584,80.048 204.462,81.606 212.600 L 81.912 214.200 81.956 212.048 C 82.039 208.001,83.513 203.736,85.326 202.300 C 87.521 200.562,88.465 198.217,88.712 193.895 L 88.914 190.353 91.253 188.764 C 93.699 187.103,94.266 186.304,95.346 182.995 C 95.707 181.892,96.638 180.272,97.417 179.395 C 98.935 177.686,100.527 174.861,100.939 173.145 C 101.205 172.037,103.067 170.239,105.057 169.167 C 105.752 168.792,106.702 167.636,107.383 166.335 C 108.270 164.641,108.954 163.915,110.367 163.168 C 111.695 162.467,112.474 161.682,113.194 160.318 C 113.910 158.962,114.623 158.240,115.748 157.733 C 118.024 156.707,119.061 155.778,120.574 153.414 C 121.434 152.070,122.294 151.213,122.949 151.048 C 123.600 150.885,124.551 149.944,125.546 148.479 C 127.509 145.589,127.803 145.356,129.927 145.006 C 131.969 144.669,131.945 144.563,129.756 144.264 C 128.334 144.069,127.975 144.185,127.092 145.120 M223.400 192.188 C 222.740 192.729,221.981 193.178,221.713 193.186 C 221.058 193.205,218.400 195.895,218.400 196.538 C 218.400 197.296,216.405 199.041,214.772 199.712 C 213.987 200.035,212.907 200.864,212.372 201.556 C 211.838 202.247,210.984 203.344,210.476 203.993 C 209.861 204.777,209.057 205.252,208.076 205.409 C 204.384 206.001,204.395 205.983,206.958 207.235 C 210.289 208.862,213.092 207.663,213.816 204.301 C 214.280 202.145,215.139 200.848,216.796 199.802 C 217.662 199.256,218.994 197.833,219.757 196.640 C 220.520 195.448,221.501 194.358,221.937 194.220 C 222.568 194.020,225.174 191.195,224.720 191.202 C 224.654 191.203,224.060 191.647,223.400 192.188 M198.376 210.629 C 198.089 210.975,197.183 211.600,196.365 212.018 C 194.824 212.804,194.092 213.613,192.420 216.379 C 191.586 217.757,191.238 218.000,190.096 218.000 C 188.593 218.000,188.649 218.601,190.179 218.894 C 191.286 219.105,191.908 218.547,193.959 215.501 C 194.662 214.456,195.755 213.334,196.387 213.007 C 197.020 212.680,197.923 211.869,198.396 211.206 C 199.293 209.946,199.279 209.541,198.376 210.629 M80.000 224.402 C 79.670 224.597,78.770 224.861,78.000 224.987 C 74.805 225.513,73.670 230.037,74.987 237.000 C 75.071 237.440,75.167 238.520,75.201 239.400 C 75.314 242.309,75.897 239.443,76.362 233.692 C 76.802 228.253,77.312 226.672,78.773 226.209 C 79.158 226.086,79.893 225.539,80.406 224.993 C 81.335 224.005,81.143 223.726,80.000 224.402 M174.993 225.464 C 174.628 225.829,173.898 226.811,173.370 227.647 C 172.365 229.239,171.913 229.437,167.061 230.406 C 164.716 230.874,161.600 233.026,161.600 234.177 C 161.600 235.260,159.624 236.515,157.613 236.708 C 155.050 236.955,155.057 237.331,157.633 237.859 C 160.021 238.348,161.525 237.609,163.068 235.190 C 165.260 231.755,165.279 231.743,168.880 231.475 C 172.369 231.217,174.800 229.612,174.800 227.569 C 174.800 227.185,175.354 226.405,176.031 225.836 C 177.093 224.942,177.152 224.800,176.459 224.800 C 176.018 224.800,175.358 225.099,174.993 225.464 M150.655 239.055 C 150.075 239.635,149.600 240.321,149.600 240.579 C 149.600 241.603,147.360 242.690,144.593 243.008 L 141.800 243.328 143.400 243.833 C 146.859 244.925,150.800 243.135,150.800 240.472 C 150.800 240.090,151.080 239.378,151.423 238.889 C 152.256 237.699,151.943 237.766,150.655 239.055 M138.749 244.303 C 138.172 244.686,137.083 245.810,136.331 246.800 C 134.761 248.865,131.165 249.713,125.400 249.377 L 122.600 249.214 124.311 249.768 C 125.251 250.073,126.511 250.651,127.111 251.053 C 128.002 251.651,128.818 251.759,131.600 251.648 C 136.645 251.448,137.843 250.614,139.371 246.242 C 140.371 243.381,140.330 243.254,138.749 244.303 M119.241 251.414 C 118.559 252.192,118.000 252.977,118.000 253.159 C 118.000 254.939,116.095 255.511,109.287 255.776 C 105.609 255.919,101.880 256.152,101.000 256.294 L 99.400 256.553 101.200 256.851 C 102.190 257.015,104.049 257.046,105.331 256.919 C 106.614 256.793,109.548 256.922,111.853 257.207 C 116.910 257.830,117.699 257.472,119.004 253.963 C 119.446 252.773,120.037 251.395,120.318 250.900 C 121.051 249.606,120.668 249.789,119.241 251.414 M75.334 254.000 C 75.334 255.650,75.405 256.325,75.491 255.500 C 75.578 254.675,75.578 253.325,75.491 252.500 C 75.405 251.675,75.334 252.350,75.334 254.000 M92.453 260.007 C 91.298 260.976,90.618 261.178,87.653 261.434 L 84.200 261.733 87.600 262.391 C 91.337 263.115,91.411 263.094,93.011 260.784 C 94.388 258.797,94.203 258.540,92.453 260.007 " stroke="none" fill="#244c52" fill-rule="evenodd"></path><path id="path4" d="M253.200 4.800 L 253.200 9.600 256.200 9.600 L 259.200 9.600 259.200 16.000 L 259.200 22.400 262.400 22.400 L 265.600 22.400 265.600 31.800 L 265.600 41.200 268.800 41.200 L 272.000 41.200 272.000 47.400 L 272.000 53.600 275.000 53.600 L 278.000 53.600 278.000 56.600 L 278.000 59.600 281.200 59.600 L 284.400 59.600 284.400 68.909 L 284.400 78.218 287.708 81.509 L 291.017 84.800 294.449 84.800 C 298.817 84.800,300.400 85.308,300.400 86.708 C 300.400 87.274,300.679 88.045,301.019 88.421 C 301.419 88.863,301.549 89.464,301.386 90.114 L 301.133 91.123 292.466 91.261 C 281.206 91.442,278.400 91.303,278.400 90.566 C 278.400 90.250,278.012 90.000,277.524 90.000 C 276.668 90.000,276.666 89.986,277.424 89.428 C 278.129 88.908,278.045 88.876,276.500 89.080 C 274.711 89.317,274.222 88.739,275.300 87.660 C 275.700 87.259,275.441 87.215,274.000 87.440 C 271.938 87.762,271.615 88.095,271.606 89.900 C 271.599 91.425,272.896 91.279,258.600 91.371 C 249.809 91.428,247.200 91.750,247.200 92.777 C 247.200 92.914,246.375 93.269,245.366 93.567 C 243.595 94.090,241.600 95.717,241.600 96.639 C 241.600 97.575,234.915 98.072,228.273 97.630 C 218.719 96.994,217.598 97.362,216.675 101.434 L 216.139 103.800 209.969 104.075 C 200.436 104.501,198.400 105.202,198.400 108.057 C 198.400 110.440,198.098 110.529,191.023 110.219 C 182.373 109.840,180.032 110.498,179.378 113.490 C 178.688 116.644,178.754 116.600,174.693 116.600 C 169.505 116.600,167.200 117.859,167.200 120.691 C 167.200 122.688,166.188 123.200,162.236 123.200 C 157.784 123.200,156.204 123.976,155.207 126.653 C 154.125 129.560,153.879 129.695,150.217 129.390 C 144.587 128.921,142.869 129.837,141.845 133.852 C 141.396 135.612,141.254 135.759,139.517 136.265 C 137.565 136.834,135.600 138.699,135.600 139.982 C 135.600 141.164,134.775 141.486,131.200 141.699 C 126.363 141.988,125.143 142.597,123.825 145.384 C 122.939 147.257,122.464 147.773,121.077 148.372 C 118.955 149.288,118.191 150.161,117.615 152.327 C 117.189 153.924,116.968 154.137,114.668 155.170 C 112.292 156.236,111.200 157.428,111.200 158.957 C 111.200 159.738,109.719 160.923,107.898 161.598 C 106.667 162.055,106.091 162.586,105.507 163.800 C 105.084 164.680,104.604 165.659,104.441 165.975 C 104.278 166.291,103.314 166.831,102.299 167.175 C 100.112 167.916,98.562 169.269,98.220 170.738 C 97.641 173.222,97.154 173.887,95.518 174.427 C 93.276 175.167,92.424 177.072,92.400 181.400 C 92.379 185.161,91.885 186.013,89.298 186.749 C 86.861 187.442,86.294 188.550,85.809 193.565 C 85.406 197.729,85.382 197.801,84.200 198.311 C 79.498 200.337,79.405 200.614,79.382 212.606 C 79.361 223.368,79.469 222.890,76.794 224.041 C 73.560 225.432,73.556 225.457,73.472 244.432 C 73.375 266.304,72.678 265.097,85.067 264.516 C 93.466 264.122,94.972 263.711,96.384 261.426 C 97.669 259.346,98.602 259.138,108.400 258.741 C 119.291 258.300,118.844 258.486,120.953 253.500 C 121.693 251.749,122.466 251.630,125.971 252.730 C 128.212 253.433,134.064 252.868,137.304 251.637 C 138.527 251.171,139.996 249.052,139.999 247.749 C 140.001 246.375,140.779 246.086,144.872 245.939 C 149.391 245.777,150.485 245.219,151.858 242.376 C 153.104 239.796,153.149 239.772,157.040 239.658 C 159.381 239.589,161.078 239.321,161.994 238.877 C 163.328 238.230,163.727 237.695,164.890 235.000 C 165.395 233.830,165.494 233.794,168.870 233.563 C 173.871 233.220,176.000 231.726,176.000 228.558 C 176.000 227.772,177.434 226.806,179.519 226.187 C 181.556 225.582,182.800 224.436,182.800 223.165 C 182.800 221.143,184.118 220.542,187.841 220.869 C 192.421 221.270,194.251 220.444,195.217 217.538 C 196.023 215.116,196.543 214.537,198.190 214.228 C 199.672 213.950,201.600 212.019,201.600 210.814 C 201.600 209.125,202.833 208.423,206.000 208.308 L 209.000 208.200 206.652 207.100 C 203.025 205.401,201.754 205.922,198.995 210.235 C 198.247 211.405,197.095 212.640,196.436 212.981 C 195.777 213.322,194.662 214.456,193.959 215.501 C 191.704 218.850,191.299 219.173,189.868 218.762 C 185.650 217.552,183.238 218.409,180.814 221.979 C 179.738 223.563,178.814 224.456,177.932 224.764 C 176.336 225.320,174.800 226.713,174.800 227.603 C 174.800 229.614,172.348 231.218,168.880 231.475 C 165.279 231.743,165.260 231.755,163.068 235.190 C 161.429 237.760,160.012 238.392,157.314 237.757 C 153.122 236.771,151.471 237.387,150.913 240.145 C 150.222 243.564,147.282 244.913,143.089 243.737 C 140.356 242.970,140.360 242.968,139.376 246.272 C 138.163 250.349,136.570 251.451,131.600 251.648 C 128.827 251.759,128.001 251.650,127.119 251.059 C 122.914 248.236,120.636 249.035,119.031 253.895 C 118.013 256.978,116.832 257.765,113.800 257.381 C 111.672 257.111,102.395 256.717,98.281 256.721 C 96.723 256.722,94.008 258.196,94.003 259.042 C 94.001 259.286,93.378 260.300,92.617 261.296 L 91.234 263.108 88.717 262.568 C 87.333 262.271,84.274 262.022,81.920 262.014 L 77.641 262.000 76.530 260.543 L 75.418 259.086 75.372 248.843 C 75.347 243.209,75.216 237.790,75.082 236.800 C 73.867 227.844,74.820 224.800,78.835 224.800 C 81.770 224.800,82.872 220.058,81.629 212.773 C 80.118 203.914,80.657 201.634,84.847 199.178 C 87.774 197.462,88.000 197.013,88.000 192.910 C 88.000 190.886,88.114 190.617,89.500 189.367 C 92.755 186.432,93.611 185.487,93.761 184.660 C 93.848 184.187,94.107 182.540,94.338 181.000 C 94.702 178.580,94.938 178.047,96.079 177.072 C 98.852 174.703,99.516 173.921,99.751 172.746 C 100.125 170.873,101.482 169.273,103.610 168.195 C 104.677 167.654,106.237 166.383,107.075 165.371 C 107.914 164.359,109.256 163.193,110.057 162.779 C 110.926 162.331,111.998 161.241,112.712 160.082 C 113.370 159.012,114.486 157.701,115.192 157.168 C 116.748 155.994,118.230 154.516,119.702 152.669 C 120.307 151.909,121.589 150.917,122.549 150.466 C 123.820 149.869,124.538 149.176,125.184 147.922 C 126.768 144.849,127.828 144.022,129.862 144.271 C 134.861 144.883,140.543 140.674,142.227 135.111 C 143.566 130.688,146.019 129.412,150.173 130.975 C 154.269 132.517,155.076 132.200,156.729 128.400 C 158.168 125.092,158.738 124.761,162.517 125.039 C 166.806 125.355,167.789 124.961,168.838 122.505 C 170.338 118.992,171.236 118.400,175.062 118.400 L 178.374 118.400 179.687 115.728 C 180.751 113.564,181.321 112.888,182.689 112.167 L 184.379 111.278 187.689 112.070 C 195.136 113.852,198.683 113.364,200.323 110.333 C 200.696 109.645,201.514 108.478,202.141 107.741 L 203.283 106.400 207.141 106.434 C 209.264 106.452,212.080 106.608,213.400 106.780 C 216.394 107.170,216.800 106.864,218.217 103.156 C 219.851 98.880,221.540 98.054,225.836 99.428 C 230.704 100.985,233.512 101.255,238.200 100.619 C 240.620 100.291,243.680 99.882,245.000 99.711 L 247.400 99.400 248.600 96.947 C 250.788 92.474,251.884 91.860,256.189 92.696 C 260.479 93.529,284.197 94.030,287.813 93.365 C 289.851 92.989,292.414 92.927,297.118 93.137 C 304.400 93.462,310.474 93.112,313.275 92.206 C 316.215 91.256,317.084 91.666,318.357 94.600 C 318.643 95.260,319.126 96.250,319.431 96.800 C 321.441 100.425,321.311 97.219,321.385 144.800 C 321.476 203.595,321.680 200.608,317.471 202.029 C 316.447 202.375,315.540 202.735,315.458 202.829 C 315.375 202.923,315.200 206.510,315.069 210.800 C 314.752 221.192,313.750 224.383,310.616 224.971 C 308.794 225.312,308.299 226.903,308.493 231.800 L 308.635 235.400 308.724 231.400 C 308.831 226.566,308.823 226.579,311.710 226.224 C 315.137 225.802,315.543 224.699,315.584 215.700 C 315.597 212.632,315.706 212.000,316.220 212.000 C 319.466 212.000,321.052 208.362,319.750 203.900 C 319.602 203.391,319.775 203.200,320.383 203.200 C 321.685 203.200,322.000 201.683,322.000 195.407 L 322.000 189.666 323.460 188.933 C 324.929 188.195,325.687 187.085,327.169 183.500 L 327.955 181.600 331.178 181.600 L 334.400 181.600 334.400 183.216 C 334.400 184.205,334.089 185.253,333.599 185.916 C 333.159 186.512,332.443 187.935,332.009 189.078 L 331.220 191.155 332.882 192.578 C 334.479 193.945,334.666 194.000,337.672 194.000 L 340.800 194.000 340.800 201.800 L 340.800 209.600 343.800 209.600 L 346.800 209.600 346.800 216.000 L 346.800 222.400 350.000 222.400 L 353.200 222.400 353.200 228.600 L 353.200 234.800 356.200 234.800 L 359.200 234.800 359.200 240.909 L 359.200 247.019 362.400 250.200 L 365.600 253.381 365.600 262.891 L 365.600 272.400 368.800 272.400 L 372.000 272.400 372.000 278.584 L 372.000 284.768 375.286 284.884 C 378.961 285.014,379.789 285.667,380.877 289.301 C 381.470 291.277,381.188 291.760,378.333 293.666 C 374.060 296.517,374.574 299.350,379.604 300.672 C 383.397 301.669,384.184 302.593,384.319 306.208 C 384.408 308.617,384.615 309.583,385.172 310.194 C 386.210 311.333,386.958 312.968,387.934 316.230 C 388.399 317.786,389.235 319.729,389.790 320.547 C 390.766 321.985,390.800 322.253,390.800 328.418 L 390.800 334.800 393.800 334.800 L 396.800 334.800 396.800 338.000 L 396.800 341.200 398.400 341.200 L 400.000 341.200 400.000 170.600 L 400.000 0.000 326.600 0.000 L 253.200 0.000 253.200 4.800 M308.424 106.054 C 306.128 108.489,306.062 109.713,308.200 110.238 C 309.275 110.502,309.344 110.465,308.866 109.884 C 308.572 109.527,308.447 109.047,308.589 108.818 C 308.944 108.243,309.886 108.293,310.154 108.900 C 310.275 109.175,310.267 108.680,310.136 107.800 C 309.757 105.257,309.461 104.955,308.424 106.054 M295.260 120.211 C 294.599 120.767,293.938 121.802,293.789 122.511 C 293.641 123.220,292.814 125.200,291.951 126.911 C 291.049 128.700,290.141 131.284,289.815 132.990 C 289.101 136.721,288.450 137.708,286.012 138.757 C 284.074 139.590,283.186 140.452,281.960 142.688 C 281.576 143.389,280.537 144.220,279.360 144.769 C 276.846 145.940,276.108 146.614,275.217 148.558 C 274.754 149.568,273.937 150.451,272.960 150.999 C 272.117 151.470,270.877 152.653,270.203 153.628 C 269.332 154.888,268.275 155.747,266.546 156.600 C 262.943 158.378,262.136 159.021,261.875 160.326 C 261.745 160.975,260.910 162.349,260.019 163.378 C 259.032 164.519,258.400 165.650,258.400 166.277 C 258.400 167.590,256.113 169.797,254.397 170.141 C 252.653 170.489,251.001 171.748,250.408 173.181 C 250.062 174.016,249.283 174.683,247.855 175.367 C 245.454 176.517,244.414 177.386,243.639 178.887 C 242.375 181.338,241.486 181.770,238.857 181.212 C 235.531 180.506,234.168 181.036,231.562 184.044 C 230.422 185.360,228.929 186.719,228.244 187.064 C 226.467 187.960,224.800 189.624,224.800 190.502 C 224.800 191.490,222.944 193.900,221.937 194.220 C 221.501 194.358,220.520 195.448,219.757 196.640 C 218.994 197.833,217.662 199.256,216.796 199.802 C 215.166 200.832,214.285 202.138,213.833 204.200 C 213.492 205.753,212.501 207.005,211.000 207.778 L 209.800 208.395 210.918 208.398 C 212.276 208.401,213.877 206.906,214.201 205.334 C 214.672 203.049,215.324 202.301,217.278 201.808 C 219.702 201.197,220.297 200.669,220.836 198.653 C 221.411 196.503,221.798 196.074,223.442 195.766 C 224.898 195.493,226.800 193.619,226.800 192.458 C 226.800 191.218,227.987 190.038,229.511 189.763 C 232.624 189.199,234.000 187.867,234.000 185.417 C 234.000 184.236,234.308 184.135,238.200 184.031 C 243.391 183.892,246.000 182.156,246.000 178.840 C 246.000 178.029,246.405 177.820,248.800 177.393 C 250.848 177.028,251.628 176.281,252.428 173.917 C 253.138 171.819,253.159 171.801,255.295 171.373 C 258.194 170.792,258.225 170.762,258.766 168.012 C 259.170 165.955,259.382 165.576,260.220 165.403 C 260.759 165.291,261.637 165.110,262.172 164.999 C 263.656 164.693,264.329 163.776,264.596 161.695 C 264.960 158.872,265.197 158.626,267.779 158.392 C 270.191 158.174,271.043 157.543,271.417 155.700 C 271.518 155.205,271.693 154.350,271.808 153.800 C 271.963 153.051,272.270 152.800,273.027 152.800 C 275.409 152.800,277.200 150.821,277.200 148.189 C 277.200 146.935,277.864 146.539,280.500 146.221 C 283.306 145.881,283.901 145.335,284.239 142.792 C 284.490 140.897,284.560 140.808,285.950 140.578 C 289.349 140.018,290.702 138.633,290.875 135.540 C 290.916 134.803,291.062 135.730,291.200 137.600 C 291.427 140.670,291.458 140.433,291.525 135.147 C 291.610 128.537,291.326 129.024,295.200 128.843 C 297.903 128.717,297.763 128.889,298.374 124.955 C 299.152 119.943,297.880 118.006,295.260 120.211 M325.103 120.189 L 327.072 121.178 327.514 124.302 C 327.757 126.021,327.860 128.141,327.743 129.013 C 327.420 131.421,327.420 131.659,327.757 139.655 C 327.977 144.890,327.942 147.189,327.638 147.377 C 327.399 147.524,327.012 148.040,326.778 148.522 C 326.430 149.239,326.536 149.198,327.357 148.300 C 328.009 147.586,328.755 147.206,329.481 147.218 C 330.590 147.235,330.587 147.242,329.126 148.014 C 327.160 149.052,327.020 149.324,326.555 153.000 C 326.230 155.568,323.140 159.273,322.149 158.283 C 322.013 158.146,321.935 155.642,321.975 152.718 C 322.015 149.793,322.048 147.220,322.048 147.000 C 322.048 146.780,321.922 143.450,321.768 139.600 C 321.406 130.545,321.874 119.200,322.610 119.200 C 322.898 119.200,324.020 119.645,325.103 120.189 M297.083 124.095 C 296.987 124.593,296.905 124.280,296.901 123.400 C 296.896 122.520,296.975 122.113,297.075 122.495 C 297.175 122.878,297.179 123.598,297.083 124.095 M285.623 142.172 C 285.362 142.487,285.046 143.728,284.922 144.929 L 284.697 147.114 283.048 147.377 C 279.717 147.909,278.847 149.372,278.755 154.600 C 278.672 159.284,278.472 159.763,276.482 160.029 C 274.240 160.329,273.601 161.040,273.036 163.862 L 272.569 166.200 270.248 166.451 C 266.965 166.806,266.614 167.285,266.536 171.514 L 266.472 175.000 266.766 172.040 C 267.103 168.641,267.976 167.516,270.662 167.018 C 272.437 166.688,273.600 165.791,273.600 164.752 C 273.600 162.988,274.926 161.194,276.578 160.723 C 279.129 159.995,279.200 159.866,279.200 155.959 C 279.200 150.502,280.175 148.754,283.610 148.051 C 285.031 147.761,285.214 147.518,286.048 144.800 C 286.477 143.401,286.912 142.844,288.000 142.301 L 289.400 141.601 287.749 141.601 C 286.804 141.600,285.895 141.845,285.623 142.172 M262.400 179.884 C 261.133 180.349,260.425 181.357,260.171 183.057 C 259.878 185.007,259.449 185.361,256.905 185.749 C 255.379 185.982,253.771 186.625,250.800 188.192 C 248.865 189.213,247.453 191.765,247.275 194.562 L 247.113 197.107 245.082 197.302 C 242.543 197.546,241.582 198.563,241.641 200.944 L 241.682 202.600 241.996 201.274 C 242.435 199.419,243.836 198.080,245.730 197.705 C 247.282 197.398,247.361 197.307,247.816 195.286 C 248.388 192.745,249.198 191.775,251.126 191.319 C 252.145 191.078,252.857 190.554,253.482 189.587 C 254.869 187.439,255.618 186.823,257.375 186.386 C 259.782 185.788,260.140 185.487,260.686 183.601 C 261.296 181.493,262.154 180.498,263.767 180.030 C 264.873 179.709,264.897 179.672,264.000 179.668 C 263.450 179.665,262.730 179.762,262.400 179.884 M241.200 204.283 C 241.200 204.513,240.670 204.806,240.023 204.935 C 237.395 205.461,234.719 210.018,234.822 213.791 C 234.834 214.236,235.195 213.259,235.624 211.619 C 236.484 208.338,237.698 206.706,239.863 205.923 C 241.094 205.477,241.877 204.543,241.409 204.076 C 241.294 203.961,241.200 204.054,241.200 204.283 M234.243 215.131 C 234.076 215.401,233.284 215.932,232.483 216.311 C 231.095 216.968,229.180 219.224,229.218 220.159 C 229.227 220.402,229.595 219.919,230.034 219.087 C 230.596 218.022,231.391 217.313,232.716 216.695 C 233.752 216.211,234.664 215.779,234.742 215.733 C 234.820 215.687,234.808 215.423,234.715 215.145 C 234.583 214.748,234.481 214.745,234.243 215.131 M221.402 227.598 C 221.003 228.039,220.862 228.400,221.089 228.400 C 221.592 228.400,222.590 227.257,222.321 226.988 C 222.215 226.882,221.802 227.156,221.402 227.598 M213.153 230.601 C 212.136 231.154,210.791 233.368,210.809 234.460 C 210.814 234.757,211.163 234.239,211.586 233.308 C 212.029 232.331,212.913 231.276,213.677 230.810 C 215.175 229.897,214.756 229.730,213.153 230.601 M205.544 236.766 C 205.025 237.187,204.693 237.624,204.806 237.738 C 204.919 237.852,205.433 237.507,205.948 236.973 C 207.068 235.809,206.857 235.701,205.544 236.766 M308.060 236.871 C 307.976 237.806,306.177 239.130,304.586 239.429 C 302.367 239.845,302.037 240.552,302.487 243.934 C 303.133 248.798,302.385 250.711,299.400 251.830 L 297.800 252.430 299.336 252.190 C 301.563 251.842,302.729 251.211,303.086 250.160 C 303.259 249.651,304.183 248.822,305.139 248.317 C 307.405 247.122,307.406 246.678,305.146 246.242 L 303.292 245.883 302.891 243.442 C 302.410 240.504,302.612 240.181,305.137 239.846 C 307.707 239.505,308.515 238.874,308.294 237.380 C 308.198 236.731,308.093 236.502,308.060 236.871 M204.078 240.050 C 203.848 240.958,203.807 241.543,203.988 241.350 C 204.361 240.952,204.960 238.400,204.680 238.400 C 204.580 238.400,204.309 239.143,204.078 240.050 M200.309 242.298 C 199.710 242.670,199.115 243.245,198.987 243.578 C 198.851 243.933,199.155 243.806,199.726 243.270 C 200.259 242.769,201.214 242.204,201.848 242.014 C 202.654 241.772,202.760 241.662,202.200 241.645 C 201.760 241.632,200.909 241.926,200.309 242.298 M295.982 258.333 C 295.790 262.275,294.564 264.400,292.483 264.400 C 290.432 264.400,289.976 265.399,290.046 269.741 C 290.137 275.416,289.581 276.480,286.053 277.380 C 284.382 277.806,284.142 278.020,283.560 279.595 C 282.807 281.633,281.712 282.631,279.609 283.198 C 278.775 283.422,277.863 283.883,277.583 284.221 C 277.124 284.774,277.190 284.775,278.236 284.232 C 278.876 283.899,280.043 283.529,280.830 283.409 C 282.534 283.148,283.893 281.988,284.249 280.489 C 284.629 278.888,285.571 278.000,286.888 278.000 C 289.783 278.000,290.516 276.422,290.564 270.082 L 290.600 265.440 293.187 264.820 C 296.568 264.009,297.103 262.904,296.537 257.898 L 296.163 254.600 295.982 258.333 M161.970 269.100 L 161.000 270.200 162.200 269.200 C 162.860 268.650,163.475 268.155,163.567 268.100 C 163.658 268.045,163.555 268.000,163.336 268.000 C 163.118 268.000,162.503 268.495,161.970 269.100 M160.467 271.580 C 160.233 272.251,160.127 272.800,160.231 272.800 C 160.501 272.800,161.256 270.722,161.057 270.524 C 160.967 270.433,160.701 270.908,160.467 271.580 M139.800 284.000 C 139.402 284.440,139.256 284.800,139.476 284.800 C 139.696 284.800,140.202 284.440,140.600 284.000 C 140.998 283.560,141.144 283.200,140.924 283.200 C 140.704 283.200,140.198 283.560,139.800 284.000 M276.854 285.720 C 276.761 286.954,275.710 288.609,274.734 289.059 C 274.220 289.295,273.151 289.769,272.357 290.111 C 271.241 290.592,270.854 291.031,270.651 292.047 C 270.305 293.777,268.988 295.128,267.350 295.436 C 265.754 295.735,265.281 296.263,264.215 298.938 C 263.482 300.777,263.183 301.080,261.397 301.801 C 258.519 302.962,258.400 303.083,258.400 304.842 C 258.400 306.001,258.132 306.704,257.418 307.418 L 256.436 308.400 257.394 308.400 C 258.380 308.400,258.432 308.250,258.895 304.042 C 258.981 303.259,259.354 302.995,260.936 302.595 C 263.384 301.976,264.322 301.034,264.949 298.564 C 265.426 296.687,265.529 296.580,267.266 296.145 C 269.886 295.490,270.759 294.920,271.030 293.688 C 271.625 290.988,271.855 290.621,273.120 290.363 C 275.734 289.828,277.471 287.835,277.073 285.826 C 276.941 285.164,276.898 285.143,276.854 285.720 M87.535 299.010 C 84.471 300.674,85.212 308.400,88.436 308.400 C 88.695 308.400,88.448 308.038,87.885 307.596 C 85.178 305.466,85.216 301.160,87.959 299.315 C 89.466 298.301,89.197 298.108,87.535 299.010 M252.880 308.880 C 252.616 309.144,252.400 309.538,252.400 309.756 C 252.400 309.975,252.625 309.861,252.900 309.505 C 253.175 309.148,253.850 308.778,254.400 308.683 L 255.400 308.509 254.380 308.454 C 253.819 308.425,253.144 308.616,252.880 308.880 M252.032 311.011 C 251.985 312.213,250.863 313.610,249.449 314.225 C 248.762 314.524,248.434 314.776,248.720 314.784 C 250.467 314.837,252.836 312.127,252.272 310.720 C 252.153 310.423,252.050 310.548,252.032 311.011 M91.616 311.126 C 91.581 312.301,93.201 314.355,94.189 314.387 C 94.403 314.394,94.160 314.107,93.648 313.749 C 93.137 313.390,92.474 312.535,92.175 311.849 C 91.876 311.162,91.624 310.837,91.616 311.126 M237.478 319.813 C 236.860 320.356,236.514 320.800,236.708 320.800 C 236.902 320.800,237.483 320.350,238.000 319.800 C 239.195 318.528,238.931 318.534,237.478 319.813 M104.300 321.482 C 104.795 321.578,105.605 321.578,106.100 321.482 C 106.595 321.387,106.190 321.309,105.200 321.309 C 104.210 321.309,103.805 321.387,104.300 321.482 M232.880 322.080 C 232.616 322.344,232.400 322.769,232.400 323.025 C 232.400 323.917,230.267 325.615,228.440 326.178 C 227.428 326.489,226.960 326.753,227.400 326.763 C 228.144 326.781,230.776 325.696,231.884 324.914 C 232.327 324.602,233.777 321.600,233.485 321.600 C 233.416 321.600,233.144 321.816,232.880 322.080 M120.305 327.083 C 120.802 327.179,121.522 327.175,121.905 327.075 C 122.287 326.975,121.880 326.896,121.000 326.901 C 120.120 326.905,119.807 326.987,120.305 327.083 M196.905 333.887 C 197.514 333.979,198.414 333.977,198.905 333.882 C 199.397 333.787,198.900 333.711,197.800 333.714 C 196.700 333.717,196.297 333.795,196.905 333.887 M146.100 334.276 C 146.485 334.376,147.115 334.376,147.500 334.276 C 147.885 334.175,147.570 334.093,146.800 334.093 C 146.030 334.093,145.715 334.175,146.100 334.276 " stroke="none" fill="#14444c" fill-rule="evenodd"></path></g></svg>