<svg id="svg" version="1.1" xmlns="http://www.w3.org/2000/svg" xmlns:xlink="http://www.w3.org/1999/xlink" width="400" height="400" viewBox="0, 0, 400,400"><g id="svgg"><path id="path0" d="M211.200 89.835 C 210.650 89.927,208.852 90.202,207.204 90.446 C 204.943 90.780,203.586 91.264,201.670 92.420 C 199.364 93.811,194.960 95.200,192.857 95.200 C 190.644 95.200,187.131 96.782,184.981 98.748 C 183.556 100.050,182.153 100.936,181.078 101.213 C 176.770 102.322,176.373 102.569,174.688 105.178 C 174.069 106.136,172.859 107.023,170.713 108.094 C 168.377 109.258,167.114 110.222,165.518 112.057 C 164.359 113.390,162.778 114.803,162.005 115.198 C 160.290 116.073,159.495 116.967,158.803 118.800 C 158.028 120.850,155.297 124.383,154.150 124.819 C 153.473 125.076,152.841 125.928,152.164 127.498 C 150.356 131.687,149.814 132.499,148.253 133.360 C 146.831 134.144,146.645 134.451,145.956 137.166 C 144.584 142.566,142.394 144.803,136.880 146.431 C 135.600 146.809,134.881 147.353,134.071 148.560 C 133.275 149.745,132.447 150.381,130.991 150.928 C 127.037 152.414,125.741 153.215,125.093 154.574 C 124.480 155.860,121.728 158.052,120.062 158.580 C 119.615 158.722,117.573 160.576,115.524 162.699 C 113.476 164.822,111.154 167.199,110.365 167.980 C 109.575 168.761,108.351 170.592,107.644 172.049 C 106.576 174.249,106.086 174.820,104.751 175.422 C 102.998 176.212,102.369 177.171,101.637 180.160 C 100.991 182.805,100.362 183.930,98.403 185.949 C 96.655 187.750,95.877 189.442,95.434 192.405 C 94.887 196.062,93.884 199.840,93.099 201.200 C 92.655 201.970,91.984 203.140,91.609 203.800 C 90.110 206.437,89.800 210.005,89.800 224.600 C 89.800 240.082,90.081 242.745,92.069 246.116 C 93.892 249.209,94.396 250.712,95.218 255.510 C 96.082 260.561,96.657 261.974,98.174 262.786 C 99.219 263.345,101.998 268.258,102.002 269.554 C 102.010 271.763,102.860 273.192,104.716 274.118 C 106.611 275.062,106.887 275.417,108.441 278.900 C 108.907 279.945,109.532 280.800,109.831 280.800 C 110.517 280.800,113.200 283.456,113.200 284.135 C 113.200 284.765,115.667 287.200,116.306 287.200 C 116.924 287.200,119.600 289.891,119.601 290.513 C 119.602 290.781,120.815 291.630,122.298 292.400 C 124.758 293.678,125.388 294.290,127.000 296.968 C 127.220 297.334,128.470 297.910,129.778 298.249 C 133.037 299.094,135.636 300.480,137.109 302.158 C 138.530 303.776,140.172 304.559,143.007 304.971 C 147.086 305.564,150.127 306.549,152.130 307.927 C 158.160 312.075,193.598 312.477,199.677 308.468 C 201.816 307.057,204.846 306.003,210.877 304.573 C 215.322 303.519,215.600 303.393,216.480 302.032 C 217.426 300.570,218.766 299.747,222.055 298.610 C 223.286 298.184,224.803 297.101,226.567 295.388 C 229.548 292.494,230.655 291.818,233.075 291.416 C 234.520 291.176,234.786 290.973,235.013 289.939 C 235.396 288.199,237.369 286.154,239.425 285.369 C 240.703 284.881,241.269 284.417,241.407 283.743 C 241.513 283.224,241.692 282.357,241.804 281.815 C 241.916 281.274,243.260 279.598,244.791 278.090 C 246.733 276.179,247.891 274.632,248.620 272.975 C 250.362 269.012,250.500 268.803,251.975 267.903 C 253.827 266.773,254.275 266.143,254.578 264.246 C 255.414 259.022,260.614 254.000,265.189 254.000 C 265.636 254.000,266.414 253.302,267.085 252.300 C 267.712 251.365,268.848 250.295,269.612 249.922 C 270.375 249.549,271.720 248.897,272.600 248.473 C 273.480 248.048,275.532 246.418,277.160 244.850 C 279.264 242.824,280.596 241.871,281.760 241.560 C 283.853 241.001,284.173 240.721,285.235 238.527 C 285.852 237.253,286.719 236.330,288.173 235.400 C 290.628 233.829,291.041 233.373,291.435 231.798 C 291.880 230.014,294.768 225.992,296.216 225.138 C 297.456 224.406,297.995 223.450,299.394 219.500 C 299.849 218.214,300.620 217.145,301.777 216.197 C 303.593 214.709,303.794 214.167,305.778 205.416 C 306.462 202.403,307.732 199.468,308.826 198.374 C 312.335 194.865,311.711 158.372,308.043 152.600 C 306.628 150.373,305.807 147.928,305.165 144.020 C 304.554 140.308,303.703 138.227,302.403 137.266 C 300.891 136.147,298.925 132.620,298.369 130.028 C 297.883 127.764,297.379 127.127,294.921 125.667 C 293.693 124.937,293.104 124.172,292.231 122.167 C 291.616 120.755,290.868 119.600,290.570 119.600 C 289.883 119.600,287.200 116.945,287.200 116.265 C 287.200 115.576,284.811 113.352,283.718 113.023 C 282.720 112.723,280.800 110.611,280.800 109.813 C 280.800 109.524,279.945 108.907,278.900 108.441 C 275.547 106.945,275.117 106.629,274.251 105.012 C 273.156 102.969,272.560 102.516,270.573 102.218 C 268.058 101.839,264.352 99.881,262.760 98.089 C 261.194 96.326,260.451 96.047,254.600 95.020 C 252.074 94.576,249.926 93.863,247.400 92.631 C 245.420 91.665,242.990 90.657,242.000 90.391 C 240.261 89.924,213.550 89.442,211.200 89.835 M237.800 106.207 C 240.084 106.682,241.533 107.254,242.863 108.209 C 244.859 109.641,245.839 109.968,251.324 111.030 C 255.354 111.810,257.097 112.794,258.112 114.861 C 258.698 116.056,259.147 116.392,260.665 116.775 C 263.607 117.515,265.379 118.614,268.459 121.603 C 270.045 123.143,271.986 124.717,272.772 125.101 C 273.557 125.486,274.452 126.340,274.759 127.000 C 275.235 128.021,277.037 130.379,278.428 131.800 C 281.219 134.652,282.882 137.107,283.480 139.258 C 284.061 141.348,284.340 141.757,285.632 142.416 C 287.455 143.346,288.594 145.532,289.399 149.649 C 290.498 155.263,290.917 156.607,292.075 158.231 C 296.564 164.532,296.190 191.287,291.546 196.007 C 291.225 196.333,290.731 197.680,290.448 199.000 C 288.744 206.957,288.467 207.705,286.490 209.700 C 285.304 210.897,283.930 212.973,282.800 215.276 C 281.409 218.111,280.706 219.098,279.704 219.620 C 277.721 220.653,277.242 221.168,276.755 222.792 C 276.145 224.830,274.295 226.723,272.696 226.946 C 271.983 227.045,270.050 227.333,268.400 227.586 L 265.400 228.045 264.060 226.522 C 262.230 224.444,262.001 223.684,261.995 219.674 C 261.990 215.984,260.684 201.492,260.069 198.296 C 259.839 197.105,259.293 195.984,258.609 195.300 C 257.038 193.729,255.735 190.941,255.184 187.975 C 254.499 184.281,253.755 182.724,252.187 181.699 C 250.764 180.769,247.981 175.893,247.435 173.375 C 247.235 172.451,246.833 172.028,245.804 171.656 C 244.024 171.012,242.491 169.151,241.890 166.905 C 241.453 165.270,241.216 165.020,239.309 164.177 C 237.451 163.355,237.081 162.981,236.095 160.924 C 235.042 158.725,234.890 158.588,233.283 158.372 C 231.187 158.091,229.788 157.081,228.634 155.019 C 228.052 153.979,227.347 153.325,226.575 153.108 C 223.561 152.263,218.649 149.394,218.026 148.114 C 217.274 146.569,217.176 146.523,212.527 145.558 C 208.224 144.664,205.912 143.716,204.061 142.087 C 201.898 140.184,190.221 138.600,180.200 138.850 C 176.429 138.944,174.184 138.126,172.050 135.879 L 170.699 134.458 171.515 133.129 C 171.964 132.398,172.519 130.769,172.750 129.510 C 173.413 125.887,174.058 124.986,176.689 124.001 C 179.466 122.962,179.892 122.632,180.578 120.991 C 181.189 119.529,182.364 118.654,185.956 116.987 C 187.362 116.334,189.265 115.059,190.184 114.153 C 192.394 111.975,192.595 111.887,198.390 110.591 C 202.011 109.780,203.803 109.168,204.919 108.360 C 209.100 105.331,227.709 104.113,237.800 106.207 M194.800 155.715 C 198.238 156.472,199.240 156.908,200.910 158.375 C 201.950 159.288,203.302 159.855,206.181 160.585 C 210.633 161.715,212.549 162.753,213.471 164.539 C 214.296 166.136,214.989 166.643,217.066 167.171 C 219.167 167.705,221.021 169.247,221.648 170.983 C 221.998 171.951,222.442 172.388,223.232 172.546 C 224.752 172.850,227.541 175.603,227.839 177.094 C 228.025 178.023,228.349 178.370,229.191 178.538 C 230.801 178.860,232.752 181.010,233.303 183.068 C 233.826 185.026,234.343 185.670,236.327 186.839 C 237.845 187.734,239.202 190.443,240.266 194.703 C 240.732 196.571,241.275 197.708,242.031 198.400 C 247.278 203.203,248.042 237.979,243.011 243.010 C 240.403 245.618,230.535 246.556,215.200 245.653 C 204.375 245.017,202.028 244.465,199.352 241.928 C 198.469 241.090,197.301 240.562,195.352 240.120 C 191.570 239.261,188.650 237.903,187.753 236.585 C 186.467 234.697,184.753 233.201,183.858 233.183 C 182.202 233.151,180.238 231.725,179.201 229.803 C 178.435 228.382,177.829 227.798,176.724 227.418 C 174.950 226.808,173.424 225.121,172.818 223.100 C 172.486 221.992,172.151 221.600,171.537 221.600 C 170.264 221.600,167.747 218.830,167.211 216.840 C 166.749 215.127,165.917 214.101,163.816 212.657 C 162.508 211.757,161.397 209.279,160.419 205.078 C 159.986 203.221,159.366 201.642,158.898 201.206 C 155.465 198.007,154.043 187.238,154.802 170.200 C 155.310 158.821,156.774 156.509,164.400 155.052 C 166.791 154.595,192.235 155.150,194.800 155.715 M136.397 174.103 C 138.310 175.640,138.800 177.189,138.800 181.700 C 138.800 192.846,140.190 202.599,142.086 204.759 C 143.664 206.556,144.740 209.135,145.443 212.800 C 146.256 217.043,146.269 217.072,148.158 218.371 C 149.881 219.557,152.459 224.197,153.058 227.190 C 153.230 228.048,153.580 228.420,154.385 228.597 C 156.102 228.974,157.971 231.179,158.311 233.228 C 158.590 234.905,158.729 235.059,160.928 236.108 C 162.982 237.088,163.366 237.465,164.232 239.357 C 165.093 241.239,165.382 241.525,166.622 241.726 C 168.873 242.091,170.813 243.528,171.670 245.464 C 172.110 246.460,172.708 247.200,173.072 247.200 C 174.721 247.200,181.206 250.765,181.997 252.106 C 182.989 253.786,183.805 254.200,187.600 254.950 C 191.295 255.679,193.861 256.752,195.641 258.312 C 197.873 260.268,206.872 261.570,219.394 261.749 C 224.178 261.817,226.608 262.643,228.735 264.923 L 229.670 265.926 228.835 267.814 C 228.376 268.852,228.000 270.153,228.000 270.704 C 228.000 273.725,225.986 276.250,223.000 276.972 C 221.635 277.302,220.400 278.281,220.400 279.031 C 220.400 280.152,218.321 281.890,215.496 283.132 C 213.567 283.980,212.325 284.793,211.983 285.432 C 211.215 286.867,208.084 288.645,205.360 289.193 C 201.137 290.042,198.631 290.887,196.980 292.018 C 190.644 296.360,162.962 296.638,156.786 292.422 C 154.875 291.118,153.628 290.652,149.732 289.789 C 144.376 288.602,142.104 287.421,141.748 285.641 C 141.553 284.663,141.215 284.424,139.261 283.880 C 136.952 283.237,132.000 280.335,132.000 279.624 C 132.000 278.907,128.629 275.955,126.906 275.164 C 125.722 274.620,125.131 274.064,124.944 273.318 C 124.600 271.949,122.456 269.023,121.332 268.388 C 119.927 267.596,117.599 263.855,116.750 261.025 C 116.166 259.080,115.779 258.400,115.256 258.400 C 113.271 258.400,111.577 255.138,110.618 249.472 C 109.820 244.754,109.760 244.577,108.378 242.799 C 103.743 236.834,104.215 211.180,109.063 205.560 C 109.366 205.208,109.970 203.054,110.405 200.773 C 111.711 193.919,112.666 191.869,114.765 191.408 C 115.710 191.200,115.970 190.885,116.194 189.677 C 116.684 187.046,119.481 182.190,120.969 181.389 C 122.390 180.623,123.421 179.191,124.408 176.610 C 125.579 173.546,133.613 171.866,136.397 174.103 " stroke="none" fill="#fcfbf9" fill-rule="evenodd"></path><path id="path1" d="M0.000 200.000 L 0.000 400.000 200.000 400.000 L 400.000 400.000 400.000 200.000 L 400.000 0.000 200.000 0.000 L 0.000 0.000 0.000 200.000 M241.633 85.814 C 253.349 87.268,255.884 87.990,257.564 90.350 C 258.282 91.357,258.740 91.602,259.927 91.610 C 263.146 91.632,268.882 94.036,270.105 95.874 C 271.009 97.234,271.611 97.665,273.309 98.167 C 275.289 98.752,280.000 102.027,280.000 102.818 C 280.000 103.012,281.395 104.066,283.100 105.161 C 286.604 107.410,286.954 107.707,288.536 109.767 C 289.160 110.581,290.420 111.787,291.336 112.446 C 292.251 113.106,293.360 114.249,293.800 114.985 C 295.726 118.207,297.026 119.979,297.686 120.278 C 298.845 120.805,301.940 125.263,302.203 126.787 C 302.510 128.560,303.059 129.301,304.688 130.143 C 305.397 130.509,306.165 131.160,306.395 131.591 C 307.104 132.915,308.389 137.340,308.395 138.474 C 308.403 140.176,309.075 141.515,310.588 142.843 C 312.579 144.591,313.368 147.543,314.607 157.880 C 315.182 162.676,315.935 167.590,316.279 168.800 C 317.386 172.683,317.246 183.074,316.062 185.000 C 315.927 185.220,315.340 189.180,314.758 193.800 C 313.338 205.075,312.835 206.980,310.758 208.950 C 309.252 210.378,309.065 210.796,308.362 214.290 C 307.400 219.073,306.665 220.613,304.737 221.889 C 303.892 222.448,303.200 223.050,303.200 223.225 C 303.200 224.672,299.416 231.196,298.258 231.745 C 296.545 232.559,295.872 233.368,294.785 235.923 C 294.029 237.700,293.572 238.204,291.984 239.008 C 290.523 239.749,289.879 240.397,289.188 241.824 C 288.314 243.629,286.449 245.195,285.170 245.199 C 284.380 245.200,282.948 246.702,282.070 248.449 C 281.702 249.183,280.950 250.000,280.400 250.264 C 279.850 250.528,278.355 251.242,277.077 251.849 C 275.800 252.457,274.481 253.414,274.148 253.977 C 273.131 255.693,270.625 257.169,267.333 257.992 C 264.192 258.777,263.954 258.940,262.734 261.144 C 262.367 261.806,261.336 262.809,260.441 263.374 C 258.837 264.387,258.695 264.664,258.191 267.775 C 257.752 270.481,255.735 273.984,254.262 274.600 C 253.017 275.120,251.737 277.193,250.999 279.882 C 250.732 280.856,248.626 282.800,247.839 282.800 C 247.084 282.800,245.740 284.452,245.429 285.764 C 245.118 287.075,243.213 289.065,241.307 290.071 C 240.601 290.444,239.784 291.335,239.472 292.071 C 238.734 293.817,237.820 294.585,235.424 295.474 C 233.844 296.060,233.239 296.566,232.398 298.003 C 231.320 299.846,230.998 300.076,227.163 301.732 C 225.874 302.288,224.265 303.415,223.363 304.390 C 221.203 306.729,215.931 308.800,212.139 308.800 C 212.044 308.800,211.086 309.623,210.010 310.629 C 207.575 312.907,206.455 313.218,195.674 314.608 C 191.123 315.194,186.804 315.930,186.076 316.242 C 182.548 317.755,173.102 318.036,168.600 316.761 C 167.060 316.325,162.193 315.448,157.784 314.811 C 146.081 313.122,143.860 312.449,142.107 310.066 C 141.407 309.113,140.802 308.794,139.307 308.585 C 134.006 307.846,129.600 305.655,129.600 303.758 C 129.600 303.451,129.555 303.195,129.500 303.189 C 127.123 302.921,120.670 299.072,120.214 297.651 C 120.023 297.053,118.416 295.867,115.002 293.800 C 114.275 293.360,113.072 292.195,112.329 291.212 C 111.585 290.228,110.172 288.817,109.188 288.076 C 108.205 287.335,107.121 286.249,106.780 285.664 C 105.201 282.953,103.633 280.835,101.796 278.934 C 99.724 276.789,98.958 275.515,97.812 272.300 C 97.439 271.255,96.903 270.400,96.621 270.400 C 94.760 270.400,91.601 263.793,91.599 259.895 C 91.599 258.905,91.227 258.250,90.019 257.114 C 83.277 250.770,83.145 199.244,89.854 192.440 C 91.023 191.253,91.600 190.321,91.600 189.617 C 91.600 188.266,93.531 181.573,94.131 180.846 C 94.382 180.541,95.244 179.877,96.045 179.372 C 97.079 178.719,97.576 178.068,97.759 177.126 C 98.205 174.825,100.868 170.601,102.799 169.131 C 103.963 168.244,104.996 166.956,105.728 165.477 C 106.350 164.221,107.307 162.880,107.854 162.497 C 110.233 160.833,111.173 159.899,111.882 158.495 C 112.421 157.428,113.217 156.714,114.661 156.000 C 117.206 154.742,117.877 154.179,119.053 152.316 C 119.573 151.493,120.673 150.482,121.499 150.068 C 126.051 147.790,127.842 146.629,128.655 145.433 C 129.485 144.212,132.006 142.800,133.357 142.800 C 134.683 142.800,137.633 141.096,138.197 140.005 C 138.526 139.369,139.324 138.535,139.970 138.154 C 141.147 137.459,142.056 135.621,142.618 132.800 C 143.002 130.868,143.695 129.649,145.390 127.926 C 147.280 126.005,148.651 123.959,149.821 121.314 C 150.539 119.691,151.087 119.039,152.084 118.621 C 153.792 117.905,154.983 116.570,155.583 114.696 C 156.028 113.307,158.129 111.200,159.068 111.200 C 159.629 111.200,160.993 109.625,161.782 108.065 C 162.248 107.142,163.035 106.479,164.328 105.917 C 166.633 104.915,168.800 103.332,168.800 102.649 C 168.800 101.561,176.054 97.200,177.863 97.200 C 178.159 97.200,178.400 97.003,178.400 96.762 C 178.400 95.743,180.130 94.020,181.705 93.471 C 183.904 92.704,187.794 91.696,189.718 91.395 C 190.833 91.220,191.333 90.902,191.602 90.195 C 192.403 88.089,196.186 87.082,208.800 85.616 C 221.143 84.181,228.855 84.228,241.633 85.814 M218.600 112.275 C 217.011 112.415,209.780 113.328,204.800 114.019 C 199.901 114.698,197.357 115.649,196.318 117.191 C 195.681 118.136,194.743 118.821,193.390 119.329 C 190.205 120.525,187.901 121.722,186.605 122.851 C 185.161 124.112,182.563 125.677,179.700 127.011 C 175.142 129.136,178.647 131.602,187.098 132.216 C 190.232 132.444,191.026 132.650,192.298 133.566 C 193.549 134.466,194.902 134.830,200.400 135.747 C 208.410 137.083,211.236 138.029,212.766 139.885 C 213.699 141.017,214.348 141.343,216.609 141.816 C 220.684 142.669,224.337 144.501,224.840 145.944 C 225.248 147.112,225.877 147.513,230.526 149.565 C 232.094 150.257,232.596 150.742,233.231 152.177 C 233.905 153.700,234.273 154.027,235.948 154.583 C 238.027 155.273,239.121 156.238,240.161 158.296 C 240.523 159.011,241.485 159.933,242.308 160.354 C 244.291 161.365,245.111 162.333,245.932 164.628 C 246.467 166.123,246.876 166.622,247.808 166.920 C 249.553 167.479,250.750 168.735,251.291 170.576 C 251.980 172.920,253.172 174.800,253.970 174.800 C 255.507 174.800,258.383 180.034,258.414 182.888 C 258.432 184.514,259.030 185.592,260.677 186.967 C 262.389 188.396,263.293 190.985,264.597 198.200 C 265.462 202.985,265.869 204.402,266.610 205.200 C 268.115 206.821,268.739 209.099,268.911 213.600 C 269.256 222.672,271.364 224.769,274.239 218.900 C 275.267 216.801,276.689 214.434,277.399 213.641 C 278.936 211.926,279.871 210.181,280.641 207.586 C 281.156 205.852,283.394 203.200,284.342 203.200 C 284.963 203.200,286.783 193.850,287.634 186.283 C 288.173 181.500,287.926 168.388,287.214 164.000 C 285.230 151.763,285.307 152.061,283.797 150.643 C 282.243 149.182,280.741 146.312,279.789 142.983 C 279.088 140.534,278.243 139.200,277.392 139.200 C 276.298 139.200,274.900 137.589,274.653 136.044 C 274.370 134.269,272.817 132.180,271.482 131.775 C 270.375 131.440,268.800 130.022,268.800 129.361 C 268.800 128.266,266.672 126.416,264.397 125.534 C 262.539 124.813,261.912 124.348,261.528 123.406 C 260.884 121.823,260.238 121.356,257.621 120.579 C 254.478 119.645,250.918 117.752,250.175 116.619 C 249.268 115.234,247.209 114.651,239.400 113.565 C 230.234 112.291,223.304 111.862,218.600 112.275 M168.326 159.144 C 165.739 159.392,165.611 159.456,164.400 161.133 C 163.711 162.086,162.263 163.416,161.181 164.088 C 158.674 165.646,158.681 165.607,158.897 177.265 L 159.069 186.600 160.769 189.721 C 162.147 192.249,162.683 193.882,163.590 198.321 C 164.886 204.657,165.244 205.581,166.736 206.437 C 167.915 207.114,170.377 211.434,171.232 214.324 C 171.636 215.691,172.022 216.166,173.100 216.616 C 174.820 217.335,175.860 218.567,176.463 220.600 C 176.990 222.374,177.867 223.600,178.611 223.600 C 180.235 223.600,182.664 225.248,183.462 226.891 C 184.203 228.417,184.565 228.706,186.493 229.314 C 189.164 230.156,193.435 232.851,193.770 233.906 C 194.119 235.004,195.279 235.431,201.709 236.828 C 204.839 237.509,207.850 238.357,208.400 238.713 C 212.675 241.481,212.044 241.364,223.535 241.523 C 235.581 241.690,235.636 241.683,236.802 239.797 C 237.279 239.025,238.465 237.927,239.437 237.357 C 241.548 236.120,241.509 236.272,241.726 228.361 C 242.031 217.282,241.470 209.585,240.289 208.612 C 238.747 207.342,236.400 200.992,236.400 198.090 C 236.400 196.805,234.559 193.313,233.616 192.808 C 232.396 192.156,230.345 188.907,229.593 186.436 C 228.979 184.421,228.723 184.101,226.998 183.200 C 225.398 182.364,224.957 181.873,224.311 180.203 C 223.291 177.570,223.116 177.392,220.191 175.995 C 218.092 174.994,217.586 174.547,217.060 173.234 C 216.494 171.818,216.208 171.601,214.117 170.997 C 211.214 170.157,207.276 167.804,206.715 166.573 C 206.181 165.402,205.109 165.016,198.400 163.584 C 193.273 162.489,188.902 161.010,186.883 159.686 C 185.867 159.021,173.414 158.657,168.326 159.144 M126.473 181.825 C 125.553 183.269,124.800 184.826,124.800 185.287 C 124.800 185.747,124.125 186.771,123.300 187.562 C 121.309 189.470,120.630 190.603,120.036 193.000 C 119.575 194.863,116.787 199.200,116.050 199.200 C 114.387 199.200,111.813 220.106,112.414 228.728 C 113.297 241.393,114.793 248.989,116.709 250.538 C 117.874 251.479,119.087 253.809,120.379 257.587 C 121.262 260.172,121.628 260.727,123.090 261.707 C 124.315 262.528,124.910 263.275,125.254 264.423 C 125.515 265.293,126.415 266.680,127.255 267.503 C 129.719 269.920,131.300 271.514,132.917 273.209 C 133.751 274.084,134.798 274.800,135.243 274.800 C 136.566 274.800,137.550 275.534,138.362 277.126 C 139.198 278.763,140.016 279.311,142.899 280.161 C 144.902 280.752,149.200 283.381,149.200 284.016 C 149.200 285.034,152.604 285.854,164.200 287.627 C 176.002 289.433,178.147 289.431,189.000 287.611 C 191.420 287.205,194.300 286.751,195.400 286.602 C 198.723 286.151,203.787 284.840,203.936 284.391 C 204.346 283.163,206.289 281.549,208.235 280.821 C 211.658 279.541,213.629 278.444,215.800 276.615 C 216.900 275.688,218.700 274.596,219.800 274.188 C 223.361 272.869,223.664 272.561,222.925 271.012 C 222.173 269.435,221.705 269.318,214.127 268.808 C 208.816 268.451,207.949 268.197,205.800 266.373 C 205.293 265.943,202.749 265.302,198.848 264.622 C 191.523 263.345,188.818 262.416,187.367 260.677 C 185.958 258.990,185.394 258.697,182.890 258.355 C 179.581 257.902,175.688 255.905,175.014 254.314 C 174.373 252.800,173.443 252.148,170.810 251.366 C 168.692 250.737,167.900 250.016,167.025 247.921 C 166.525 246.726,166.075 246.356,164.467 245.822 C 162.375 245.127,161.280 244.165,160.240 242.107 C 159.881 241.395,159.005 240.519,158.293 240.160 C 156.235 239.120,155.273 238.025,154.578 235.933 C 154.044 234.325,153.674 233.875,152.479 233.375 C 150.485 232.542,149.704 231.751,149.198 230.052 C 148.335 227.156,147.091 225.240,145.905 224.979 C 144.243 224.614,141.600 218.821,141.600 215.543 C 141.600 214.932,141.310 214.199,140.955 213.916 C 137.796 211.388,137.359 210.313,135.791 201.200 C 135.066 196.990,134.494 194.743,134.009 194.200 C 132.486 192.496,132.000 190.901,132.000 187.607 C 132.000 184.025,131.379 182.049,129.704 180.300 C 128.313 178.848,128.396 178.809,126.473 181.825 " stroke="none" fill="#fccc5c" fill-rule="evenodd"></path><path id="path2" d="M214.600 86.242 C 213.940 86.337,211.150 86.683,208.400 87.011 C 202.424 87.722,198.306 88.637,196.400 89.676 C 195.630 90.096,194.550 90.682,194.000 90.979 C 193.450 91.275,190.754 92.212,188.008 93.059 C 183.860 94.340,182.704 94.877,181.166 96.237 C 180.148 97.137,177.928 98.559,176.231 99.398 C 174.534 100.236,172.031 101.930,170.667 103.161 C 169.304 104.392,167.105 106.087,165.780 106.926 C 164.455 107.766,163.018 108.988,162.586 109.643 C 162.153 110.298,160.856 111.551,159.702 112.428 C 158.521 113.326,157.231 114.756,156.748 115.702 C 156.277 116.626,154.857 118.376,153.594 119.591 C 151.474 121.630,150.837 122.555,148.600 126.840 C 148.160 127.683,147.053 129.088,146.140 129.963 C 145.052 131.005,144.239 132.278,143.781 133.656 C 141.692 139.945,140.976 140.766,135.162 143.534 C 132.671 144.720,130.664 145.948,130.293 146.514 C 129.946 147.044,128.669 147.947,127.455 148.522 C 124.799 149.780,121.902 151.845,120.000 153.839 C 119.230 154.646,117.478 156.061,116.106 156.985 C 114.734 157.908,113.069 159.413,112.406 160.328 C 111.743 161.243,110.600 162.386,109.866 162.867 C 109.132 163.348,107.798 164.925,106.901 166.371 C 106.004 167.817,104.083 170.349,102.631 171.997 C 101.180 173.645,99.692 175.805,99.324 176.797 C 98.554 178.877,97.348 180.770,96.311 181.526 C 95.006 182.478,93.808 185.456,91.696 193.000 C 91.573 193.440,90.959 194.717,90.333 195.838 C 84.523 206.231,84.749 245.123,90.670 253.993 C 91.182 254.759,91.603 255.659,91.606 255.993 C 91.628 258.427,94.854 266.137,96.628 268.000 C 97.362 268.770,98.530 270.660,99.224 272.200 C 99.985 273.890,101.150 275.634,102.163 276.600 C 103.087 277.480,104.718 279.550,105.789 281.200 C 108.264 285.013,115.245 291.977,119.410 294.788 C 121.175 295.979,123.155 297.627,123.810 298.449 C 124.617 299.463,125.921 300.351,127.860 301.209 C 129.434 301.904,131.234 303.021,131.860 303.691 C 133.269 305.196,136.913 306.904,140.995 307.974 C 142.697 308.419,144.916 309.332,145.927 310.001 C 155.636 316.432,198.563 316.192,207.586 309.656 C 208.540 308.965,209.615 308.400,209.976 308.400 C 212.070 308.400,218.569 305.861,220.137 304.431 C 221.052 303.597,223.550 301.975,225.689 300.828 C 228.175 299.495,230.002 298.208,230.752 297.261 C 231.397 296.446,233.075 295.107,234.481 294.285 C 235.886 293.463,237.590 292.069,238.267 291.188 C 238.945 290.307,240.235 289.053,241.135 288.401 C 242.035 287.749,243.076 286.717,243.450 286.108 C 245.329 283.039,246.221 281.929,247.387 281.208 C 248.091 280.773,249.164 279.475,249.783 278.310 C 251.193 275.655,253.643 272.000,254.013 272.000 C 254.494 272.000,256.294 269.019,256.931 267.167 C 258.982 261.211,261.304 258.887,267.924 256.166 C 268.872 255.776,270.222 254.889,270.924 254.194 C 271.626 253.499,273.910 251.920,276.000 250.686 C 278.113 249.437,280.310 247.793,280.949 246.981 C 281.581 246.178,282.881 245.024,283.839 244.416 C 286.071 243.001,292.752 236.287,294.005 234.200 C 294.534 233.320,295.895 231.610,297.031 230.400 C 298.168 229.190,299.944 226.580,300.978 224.600 C 302.013 222.620,303.370 220.550,303.993 220.000 C 305.648 218.539,308.400 211.796,308.400 209.200 C 308.400 208.837,309.018 207.672,309.772 206.611 C 316.299 197.431,316.219 155.766,309.655 145.422 C 308.965 144.334,308.400 143.152,308.400 142.797 C 308.400 140.437,305.585 133.947,303.629 131.800 C 302.828 130.920,301.669 129.030,301.053 127.600 C 300.312 125.878,299.431 124.598,298.444 123.810 C 297.625 123.155,295.979 121.175,294.788 119.410 C 291.977 115.245,285.013 108.264,281.200 105.789 C 279.550 104.718,277.479 103.080,276.597 102.148 C 275.639 101.135,273.925 99.974,272.336 99.261 C 270.874 98.605,268.986 97.448,268.139 96.689 C 266.124 94.882,265.027 94.361,260.000 92.818 C 257.690 92.110,255.350 91.278,254.800 90.970 C 250.980 88.833,247.437 87.847,239.800 86.796 C 236.579 86.352,216.835 85.918,214.600 86.242 M233.200 87.597 C 240.733 88.054,246.262 88.987,249.200 90.296 C 250.410 90.836,254.076 92.169,257.346 93.259 C 263.471 95.302,264.033 95.571,267.368 98.068 C 268.450 98.879,270.376 99.922,271.649 100.386 C 273.290 100.984,274.404 101.735,275.481 102.968 C 276.317 103.924,278.620 105.800,280.600 107.137 C 283.955 109.402,290.678 115.657,291.734 117.495 C 293.113 119.894,295.792 123.314,297.056 124.289 C 298.026 125.037,298.992 126.446,300.009 128.600 C 300.841 130.360,302.094 132.430,302.795 133.200 C 304.527 135.103,304.958 136.010,306.825 141.691 C 307.712 144.391,308.983 147.729,309.649 149.109 C 314.574 159.318,314.450 193.158,309.449 203.800 C 307.856 207.188,307.382 208.460,306.191 212.545 C 305.240 215.808,304.742 216.823,303.313 218.412 C 302.363 219.469,301.131 221.294,300.577 222.467 C 299.017 225.766,297.865 227.502,295.886 229.532 C 294.885 230.559,293.421 232.510,292.633 233.867 C 291.783 235.330,290.627 236.689,289.794 237.204 C 289.021 237.681,287.839 238.871,287.167 239.848 C 286.421 240.933,285.099 242.102,283.773 242.850 C 282.579 243.524,280.867 244.910,279.969 245.930 C 278.440 247.668,277.271 248.484,272.800 250.934 C 271.810 251.477,270.550 252.410,270.000 253.008 C 269.450 253.607,267.380 254.876,265.400 255.830 C 259.702 258.573,258.204 260.218,255.977 266.171 C 255.535 267.352,254.414 269.176,253.487 270.225 C 251.643 272.311,250.590 273.918,249.019 277.049 C 248.422 278.238,247.363 279.536,246.495 280.143 C 245.673 280.717,244.565 281.865,244.032 282.694 C 241.559 286.545,241.111 287.112,240.229 287.514 C 239.711 287.750,238.593 288.781,237.744 289.804 C 236.895 290.828,234.988 292.377,233.506 293.247 C 232.024 294.117,230.314 295.462,229.706 296.236 C 229.015 297.115,227.068 298.468,224.517 299.843 C 222.271 301.054,219.584 302.746,218.545 303.605 C 217.277 304.652,215.726 305.437,213.828 305.989 C 210.103 307.073,207.013 308.230,204.800 309.367 C 194.734 314.541,158.514 314.551,148.400 309.383 C 147.410 308.877,144.800 307.881,142.600 307.170 C 136.966 305.348,135.416 304.628,133.277 302.839 C 132.245 301.975,130.112 300.697,128.537 299.997 C 126.568 299.123,125.284 298.240,124.422 297.168 C 123.323 295.800,119.902 293.117,117.493 291.733 C 116.464 291.142,108.400 283.124,108.400 282.692 C 108.400 281.997,104.315 276.604,102.817 275.321 C 101.697 274.363,100.967 273.244,100.340 271.522 C 99.850 270.180,98.750 268.197,97.896 267.116 C 95.848 264.526,94.672 262.092,93.598 258.226 C 93.114 256.481,92.482 254.501,92.196 253.826 C 91.909 253.152,91.192 251.462,90.602 250.070 C 88.314 244.677,87.854 240.489,87.828 224.800 C 87.800 207.579,88.059 205.646,91.576 196.800 C 92.057 195.590,93.164 192.400,94.037 189.712 C 95.304 185.803,95.950 184.445,97.256 182.936 C 98.154 181.897,99.474 179.764,100.189 178.196 C 100.974 176.473,102.343 174.430,103.645 173.037 C 105.918 170.604,108.400 166.993,108.400 166.118 C 108.400 165.832,109.294 164.957,110.386 164.172 C 111.479 163.387,113.018 161.865,113.807 160.790 C 114.670 159.614,115.954 158.480,117.027 157.944 C 118.009 157.453,119.780 156.141,120.964 155.026 C 124.437 151.756,125.061 151.282,127.528 150.036 C 128.818 149.385,130.784 148.076,131.896 147.126 C 133.009 146.177,134.742 145.096,135.748 144.724 C 140.474 142.975,142.659 140.501,144.864 134.400 C 145.143 133.630,146.120 132.190,147.035 131.200 C 147.951 130.210,149.182 128.500,149.770 127.400 C 151.767 123.669,152.596 122.506,154.656 120.551 C 155.787 119.478,157.173 117.678,157.737 116.551 C 158.372 115.281,159.276 114.198,160.112 113.705 C 160.855 113.267,162.258 111.975,163.231 110.835 C 164.225 109.670,165.986 108.232,167.249 107.552 C 168.486 106.887,170.196 105.680,171.049 104.870 C 173.692 102.360,175.746 100.902,178.123 99.851 C 179.380 99.295,181.262 98.124,182.304 97.249 C 183.818 95.978,185.489 95.216,190.600 93.464 C 194.120 92.257,198.260 90.789,199.800 90.202 C 206.081 87.807,219.461 86.764,233.200 87.597 M217.095 108.062 C 213.953 108.318,211.899 108.739,209.495 109.620 C 207.683 110.284,203.959 111.365,201.220 112.023 C 196.241 113.218,193.703 114.337,192.200 116.003 C 191.760 116.490,189.960 117.610,188.200 118.492 C 186.440 119.374,184.062 120.977,182.916 122.055 C 181.770 123.133,179.970 124.383,178.916 124.833 C 175.012 126.501,174.218 128.228,175.049 133.251 C 175.422 135.510,177.469 136.492,181.099 136.155 C 186.963 135.610,202.926 138.526,207.796 141.032 C 209.627 141.974,212.298 143.107,213.731 143.550 C 216.954 144.545,219.595 145.941,222.200 148.026 C 223.300 148.906,225.323 150.169,226.696 150.832 C 228.256 151.585,229.681 152.649,230.496 153.668 C 231.213 154.564,232.758 155.840,233.928 156.503 C 235.099 157.166,236.539 158.240,237.128 158.891 C 238.495 160.400,240.124 162.045,241.665 163.474 C 242.332 164.093,243.218 165.262,243.632 166.070 C 244.047 166.879,245.276 168.291,246.364 169.209 C 247.570 170.226,248.727 171.689,249.328 172.958 C 249.870 174.103,251.250 176.200,252.394 177.620 C 254.404 180.114,256.400 183.501,256.400 184.420 C 256.400 185.250,258.805 190.880,259.580 191.865 C 260.780 193.392,261.857 197.246,263.006 204.136 C 263.587 207.621,264.344 211.491,264.687 212.736 C 265.036 214.001,265.331 216.745,265.356 218.954 C 265.408 223.671,265.950 224.369,269.901 224.821 C 273.054 225.180,273.781 224.814,274.991 222.256 C 275.558 221.057,276.973 219.011,278.135 217.709 C 279.296 216.407,280.989 213.822,281.896 211.966 C 282.803 210.110,284.018 208.146,284.597 207.603 C 286.419 205.892,287.107 204.344,288.337 199.200 C 288.994 196.450,289.923 193.210,290.400 192.000 C 292.642 186.318,293.059 166.932,291.010 163.617 C 290.623 162.990,289.263 158.352,288.425 154.800 C 287.178 149.513,286.294 147.257,284.723 145.355 C 283.878 144.333,282.447 142.076,281.544 140.338 C 280.640 138.601,279.456 136.830,278.913 136.403 C 277.990 135.677,274.800 131.438,274.800 130.939 C 274.800 130.457,268.938 124.939,267.839 124.385 C 267.200 124.063,265.622 122.859,264.333 121.708 C 263.043 120.558,260.906 119.080,259.584 118.424 C 258.262 117.768,256.330 116.521,255.290 115.654 C 253.333 114.021,251.258 113.165,246.802 112.151 C 245.371 111.825,242.130 110.862,239.600 110.012 C 235.453 108.617,224.871 107.216,221.800 107.655 C 221.580 107.686,219.463 107.869,217.095 108.062 M233.800 110.403 C 239.661 111.813,244.955 113.042,246.712 113.401 C 249.220 113.913,252.976 115.614,254.184 116.784 C 254.853 117.431,256.622 118.515,258.115 119.191 C 259.690 119.905,261.831 121.342,263.212 122.611 C 264.522 123.815,265.851 124.800,266.166 124.800 C 267.159 124.800,274.213 132.061,275.423 134.329 C 276.048 135.501,277.073 136.825,277.702 137.272 C 279.050 138.232,280.397 140.281,281.370 142.850 C 281.755 143.867,282.750 145.522,283.581 146.528 C 285.382 148.708,286.514 152.117,288.584 161.600 C 289.377 165.230,290.315 169.442,290.670 170.960 C 291.397 174.068,291.231 182.835,290.405 184.994 C 290.154 185.651,289.709 187.271,289.417 188.594 C 286.319 202.609,285.533 205.180,284.112 205.940 C 283.692 206.165,282.376 208.166,281.187 210.388 C 279.998 212.609,278.166 215.455,277.116 216.713 C 276.066 217.971,275.028 219.630,274.808 220.400 C 274.018 223.175,272.753 224.233,270.893 223.675 C 267.961 222.797,267.682 222.320,267.230 217.400 C 266.997 214.857,266.412 211.734,265.845 210.000 C 265.306 208.350,264.404 204.480,263.842 201.400 C 262.486 193.980,261.856 191.997,260.143 189.752 C 259.333 188.691,258.390 186.762,257.980 185.329 C 256.878 181.476,255.502 178.810,253.476 176.600 C 252.467 175.500,251.069 173.462,250.369 172.072 C 249.483 170.313,248.631 169.251,247.570 168.581 C 246.731 168.051,245.541 166.759,244.926 165.709 C 243.460 163.208,236.995 156.720,234.907 155.655 C 234.006 155.195,232.590 153.990,231.760 152.978 C 230.821 151.832,229.336 150.676,227.826 149.916 C 226.492 149.244,224.131 147.676,222.579 146.430 C 220.225 144.540,219.029 143.923,215.349 142.703 C 212.924 141.898,210.013 140.617,208.881 139.855 C 206.595 138.316,203.958 137.605,196.044 136.392 C 193.270 135.967,189.560 135.243,187.800 134.785 C 185.227 134.114,183.960 134.001,181.332 134.209 C 177.574 134.505,177.649 134.563,176.605 130.556 C 175.875 127.752,176.302 127.097,179.932 125.454 C 181.179 124.889,182.946 123.746,183.859 122.914 C 184.771 122.081,187.106 120.590,189.049 119.600 C 190.991 118.610,193.235 117.216,194.036 116.502 C 195.945 114.800,197.249 114.292,203.000 113.006 C 209.397 111.575,212.211 110.874,214.536 110.131 C 219.236 108.628,226.870 108.737,233.800 110.403 M163.600 157.646 C 158.471 159.625,156.963 162.713,156.588 172.000 C 156.125 183.464,157.305 192.639,159.911 197.842 C 160.561 199.139,161.657 202.030,162.347 204.267 C 163.038 206.504,163.748 208.394,163.925 208.467 C 164.611 208.750,167.649 212.975,168.999 215.525 C 169.909 217.243,170.973 218.594,171.973 219.300 C 172.861 219.928,173.912 221.191,174.420 222.241 C 175.060 223.564,175.907 224.462,177.434 225.439 C 178.603 226.187,180.243 227.617,181.079 228.617 C 181.929 229.633,183.483 230.863,184.600 231.402 C 187.129 232.623,188.337 233.443,190.350 235.306 C 191.567 236.431,193.009 237.145,196.279 238.241 C 198.655 239.038,201.410 240.100,202.400 240.602 C 207.151 243.009,213.837 244.001,225.200 243.983 C 240.419 243.960,243.202 242.231,244.026 232.287 C 245.098 219.363,243.808 207.536,240.638 201.200 C 239.922 199.770,238.822 197.018,238.192 195.084 C 237.257 192.211,236.670 191.151,234.979 189.283 C 233.842 188.025,232.351 185.888,231.667 184.532 C 230.860 182.934,229.865 181.670,228.834 180.934 C 227.960 180.310,226.588 178.773,225.786 177.518 C 224.760 175.913,223.831 174.996,222.655 174.427 C 221.736 173.982,220.301 172.800,219.465 171.800 C 218.508 170.655,216.957 169.480,215.273 168.624 C 213.803 167.876,211.563 166.380,210.296 165.299 C 208.343 163.632,207.340 163.135,203.704 162.027 C 201.345 161.308,198.512 160.262,197.408 159.702 C 191.916 156.918,169.086 155.529,163.600 157.646 M192.440 159.385 C 195.490 160.922,198.111 161.891,201.765 162.834 C 205.718 163.853,207.669 164.837,210.141 167.055 C 211.209 168.013,212.994 169.112,214.107 169.498 C 216.113 170.194,217.932 171.671,219.319 173.732 C 219.714 174.319,220.347 174.800,220.726 174.800 C 221.985 174.800,224.314 176.728,224.787 178.161 C 225.069 179.016,226.183 180.366,227.721 181.716 C 229.333 183.131,230.395 184.436,230.757 185.446 C 231.401 187.244,233.468 190.400,234.002 190.400 C 234.682 190.400,236.507 194.046,237.647 197.682 C 238.271 199.674,239.355 202.315,240.054 203.552 C 244.175 210.835,244.240 236.084,240.149 240.049 C 236.255 243.824,213.460 243.794,205.170 240.004 C 203.284 239.142,200.314 238.047,198.570 237.570 C 194.622 236.492,192.596 235.482,190.800 233.695 C 190.030 232.929,188.115 231.698,186.544 230.959 C 184.443 229.971,183.234 229.074,181.968 227.561 C 180.958 226.356,179.556 225.210,178.577 224.790 C 176.811 224.033,175.429 222.453,174.985 220.683 C 174.823 220.037,173.932 219.052,172.730 218.188 C 171.451 217.269,170.536 216.232,170.164 215.280 C 169.077 212.498,168.200 211.033,166.348 208.909 C 164.983 207.344,164.261 206.023,163.606 203.892 C 163.117 202.302,162.352 199.830,161.906 198.400 C 161.460 196.970,160.499 194.630,159.771 193.200 C 158.005 189.735,156.994 168.828,158.363 164.070 C 158.383 163.998,159.677 162.703,161.237 161.191 C 164.673 157.862,163.587 158.048,178.840 158.190 L 190.279 158.297 192.440 159.385 M126.809 176.790 C 126.198 177.445,125.296 178.840,124.805 179.890 C 124.314 180.941,122.959 182.970,121.794 184.400 C 120.629 185.830,119.096 188.216,118.386 189.702 C 117.677 191.189,116.404 193.192,115.557 194.154 C 113.725 196.235,113.441 196.923,112.149 202.400 C 111.604 204.710,110.497 208.580,109.688 211.000 L 108.217 215.400 108.229 224.800 L 108.242 234.200 109.723 238.512 C 110.538 240.884,111.648 244.702,112.190 246.996 C 113.410 252.160,114.048 253.713,115.707 255.554 C 116.424 256.349,117.696 258.390,118.535 260.089 C 119.373 261.788,120.546 263.588,121.141 264.089 C 122.289 265.055,124.800 268.497,124.800 269.104 C 124.800 269.650,130.304 274.818,132.800 276.615 C 134.010 277.487,135.419 278.692,135.931 279.294 C 136.443 279.896,138.028 280.945,139.454 281.626 C 140.879 282.306,142.996 283.636,144.156 284.582 C 147.017 286.912,147.166 286.978,152.824 288.406 C 155.556 289.096,157.972 289.800,158.195 289.972 C 162.475 293.270,185.977 293.811,192.600 290.763 C 193.480 290.358,196.630 289.372,199.600 288.572 C 204.864 287.152,208.105 285.746,208.503 284.708 C 208.612 284.425,210.388 283.310,212.450 282.230 C 214.647 281.080,217.221 279.319,218.665 277.980 C 220.021 276.722,221.934 275.386,222.917 275.010 C 224.568 274.380,225.797 272.966,225.708 271.800 C 225.286 266.239,223.814 264.612,219.477 264.911 C 217.431 265.051,215.213 264.843,211.800 264.188 C 209.160 263.682,205.020 262.970,202.600 262.605 C 197.826 261.887,193.179 260.467,191.944 259.349 C 191.146 258.627,189.919 258.106,185.904 256.782 C 182.718 255.731,181.464 255.039,177.901 252.364 C 176.196 251.085,174.018 249.692,173.062 249.269 C 172.104 248.845,170.641 247.683,169.804 246.682 C 168.968 245.682,167.451 244.411,166.434 243.857 C 165.416 243.303,164.080 242.310,163.466 241.650 C 162.025 240.104,160.392 238.490,158.827 237.066 C 158.142 236.442,157.233 235.249,156.808 234.416 C 156.383 233.583,155.455 232.383,154.746 231.751 C 152.122 229.408,151.343 228.444,150.839 226.919 C 150.556 226.060,149.361 224.164,148.183 222.705 C 145.746 219.684,144.575 217.562,143.733 214.637 C 143.410 213.517,142.177 210.620,140.993 208.200 C 139.077 204.286,138.749 203.226,138.013 198.600 C 137.559 195.740,136.806 191.258,136.340 188.639 C 135.736 185.244,135.561 183.064,135.729 181.039 C 136.044 177.259,135.546 176.589,132.000 176.022 C 128.297 175.430,128.045 175.467,126.809 176.790 M131.819 178.007 C 132.835 178.393,133.594 180.417,133.598 182.748 C 133.599 183.490,134.131 186.370,134.781 189.148 C 135.430 191.927,136.327 196.362,136.774 199.004 C 137.847 205.347,138.622 207.893,140.022 209.664 C 140.659 210.469,141.795 212.915,142.546 215.099 C 144.282 220.145,144.892 221.303,146.999 223.563 C 147.942 224.573,149.267 226.577,149.945 228.015 C 150.864 229.964,151.634 230.952,152.970 231.893 C 153.979 232.605,155.139 233.896,155.626 234.851 C 156.701 236.958,163.413 243.684,165.506 244.752 C 166.359 245.187,167.736 246.372,168.566 247.385 C 169.457 248.472,171.002 249.699,172.338 250.379 C 173.582 251.012,175.571 252.366,176.758 253.387 C 179.603 255.834,184.846 258.351,187.183 258.390 C 187.503 258.396,188.763 259.095,189.983 259.943 C 192.763 261.879,194.735 262.515,202.000 263.824 C 205.190 264.399,209.330 265.296,211.200 265.818 C 213.070 266.340,216.305 266.873,218.389 267.002 C 222.687 267.269,223.214 267.562,224.246 270.264 L 224.920 272.031 223.779 273.222 C 223.152 273.877,221.964 274.594,221.141 274.816 C 220.308 275.040,218.702 276.079,217.522 277.157 C 216.355 278.222,213.780 279.909,211.800 280.906 C 209.820 281.903,207.750 283.204,207.200 283.798 C 205.669 285.451,203.876 286.187,198.000 287.572 C 195.030 288.271,190.710 289.479,188.400 290.255 L 184.200 291.666 175.600 291.508 C 168.412 291.376,166.737 291.232,165.400 290.631 C 163.638 289.838,159.912 288.753,155.000 287.603 C 149.923 286.413,147.126 285.288,145.606 283.824 C 144.833 283.079,142.960 281.890,141.445 281.180 C 139.930 280.471,138.034 279.240,137.232 278.445 C 135.477 276.706,132.994 274.800,132.484 274.800 C 131.793 274.800,125.243 267.676,124.668 266.300 C 124.353 265.548,123.292 264.137,122.311 263.166 C 121.188 262.056,119.929 260.137,118.921 258.000 C 118.038 256.130,116.856 254.179,116.293 253.663 C 115.180 252.644,113.713 248.434,112.578 243.000 C 112.210 241.240,111.578 238.450,111.174 236.800 C 108.694 226.681,108.601 221.878,110.735 214.200 C 111.464 211.576,112.694 206.314,112.978 204.600 C 113.628 200.687,115.173 196.576,116.440 195.388 C 117.138 194.735,118.207 193.120,118.816 191.800 C 119.426 190.480,120.850 188.148,121.982 186.618 C 123.114 185.088,124.495 182.928,125.052 181.818 C 127.389 177.154,128.270 176.658,131.819 178.007 " stroke="none" fill="#fcda9c" fill-rule="evenodd"></path><path id="path3" d="M215.000 87.637 C 208.177 88.056,203.246 88.888,199.800 90.202 C 198.260 90.789,194.120 92.257,190.600 93.464 C 185.489 95.216,183.818 95.978,182.304 97.249 C 181.262 98.124,179.380 99.295,178.123 99.851 C 175.746 100.902,173.692 102.360,171.049 104.870 C 170.196 105.680,168.486 106.887,167.249 107.552 C 165.986 108.232,164.225 109.670,163.231 110.835 C 162.258 111.975,160.855 113.267,160.112 113.705 C 159.276 114.198,158.372 115.281,157.737 116.551 C 157.173 117.678,155.787 119.478,154.656 120.551 C 152.596 122.506,151.767 123.669,149.770 127.400 C 149.182 128.500,147.951 130.210,147.035 131.200 C 146.120 132.190,145.143 133.630,144.864 134.400 C 142.659 140.501,140.474 142.975,135.748 144.724 C 134.742 145.096,133.009 146.177,131.896 147.126 C 130.784 148.076,128.818 149.385,127.528 150.036 C 125.061 151.282,124.437 151.756,120.964 155.026 C 119.780 156.141,118.009 157.453,117.027 157.944 C 115.954 158.480,114.670 159.614,113.807 160.790 C 113.018 161.865,111.479 163.387,110.386 164.172 C 109.294 164.957,108.400 165.832,108.400 166.118 C 108.400 166.993,105.918 170.604,103.645 173.037 C 102.343 174.430,100.974 176.473,100.189 178.196 C 99.474 179.764,98.154 181.897,97.256 182.936 C 95.950 184.445,95.304 185.803,94.037 189.712 C 93.164 192.400,92.057 195.590,91.576 196.800 C 88.059 205.646,87.800 207.579,87.828 224.800 C 87.854 240.489,88.314 244.677,90.602 250.070 C 91.192 251.462,91.909 253.152,92.196 253.826 C 92.482 254.501,93.114 256.481,93.598 258.226 C 94.672 262.092,95.848 264.526,97.896 267.116 C 98.750 268.197,99.850 270.180,100.340 271.522 C 100.967 273.244,101.697 274.363,102.817 275.321 C 104.315 276.604,108.400 281.997,108.400 282.692 C 108.400 283.124,116.464 291.142,117.493 291.733 C 119.902 293.117,123.323 295.800,124.422 297.168 C 125.284 298.240,126.568 299.123,128.537 299.997 C 130.112 300.697,132.245 301.975,133.277 302.839 C 135.416 304.628,136.966 305.348,142.600 307.170 C 144.800 307.881,147.410 308.877,148.400 309.383 C 158.514 314.551,194.734 314.541,204.800 309.367 C 207.013 308.230,210.103 307.073,213.828 305.989 C 215.726 305.437,217.277 304.652,218.545 303.605 C 219.584 302.746,222.271 301.054,224.517 299.843 C 227.068 298.468,229.015 297.115,229.706 296.236 C 230.314 295.462,232.024 294.117,233.506 293.247 C 234.988 292.377,236.895 290.828,237.744 289.804 C 238.593 288.781,239.711 287.750,240.229 287.514 C 241.111 287.112,241.559 286.545,244.032 282.694 C 244.565 281.865,245.673 280.717,246.495 280.143 C 247.363 279.536,248.422 278.238,249.019 277.049 C 250.590 273.918,251.643 272.311,253.487 270.225 C 254.414 269.176,255.535 267.352,255.977 266.171 C 258.204 260.218,259.702 258.573,265.400 255.830 C 267.380 254.876,269.450 253.607,270.000 253.008 C 270.550 252.410,271.810 251.477,272.800 250.934 C 277.271 248.484,278.440 247.668,279.969 245.930 C 280.867 244.910,282.579 243.524,283.773 242.850 C 285.099 242.102,286.421 240.933,287.167 239.848 C 287.839 238.871,289.021 237.681,289.794 237.204 C 290.627 236.689,291.783 235.330,292.633 233.867 C 293.421 232.510,294.885 230.559,295.886 229.532 C 297.865 227.502,299.017 225.766,300.577 222.467 C 301.131 221.294,302.363 219.469,303.313 218.412 C 304.742 216.823,305.240 215.808,306.191 212.545 C 307.382 208.460,307.856 207.188,309.449 203.800 C 314.450 193.158,314.574 159.318,309.649 149.109 C 308.983 147.729,307.712 144.391,306.825 141.691 C 304.958 136.010,304.527 135.103,302.795 133.200 C 302.094 132.430,300.841 130.360,300.009 128.600 C 298.992 126.446,298.026 125.037,297.056 124.289 C 295.792 123.314,293.113 119.894,291.734 117.495 C 290.678 115.657,283.955 109.402,280.600 107.137 C 278.620 105.800,276.317 103.924,275.481 102.968 C 274.404 101.735,273.290 100.984,271.649 100.386 C 270.376 99.922,268.450 98.879,267.368 98.068 C 264.033 95.571,263.471 95.302,257.346 93.259 C 254.076 92.169,250.410 90.836,249.200 90.296 C 243.731 87.859,229.458 86.749,215.000 87.637 M242.000 90.391 C 242.990 90.657,245.420 91.665,247.400 92.631 C 249.926 93.863,252.074 94.576,254.600 95.020 C 260.451 96.047,261.194 96.326,262.760 98.089 C 264.352 99.881,268.058 101.839,270.573 102.218 C 272.560 102.516,273.156 102.969,274.251 105.012 C 275.117 106.629,275.547 106.945,278.900 108.441 C 279.945 108.907,280.800 109.524,280.800 109.813 C 280.800 110.611,282.720 112.723,283.718 113.023 C 284.811 113.352,287.200 115.576,287.200 116.265 C 287.200 116.945,289.883 119.600,290.570 119.600 C 290.868 119.600,291.616 120.755,292.231 122.167 C 293.104 124.172,293.693 124.937,294.921 125.667 C 297.379 127.127,297.883 127.764,298.369 130.028 C 298.925 132.620,300.891 136.147,302.403 137.266 C 303.703 138.227,304.554 140.308,305.165 144.020 C 305.807 147.928,306.628 150.373,308.043 152.600 C 311.711 158.372,312.335 194.865,308.826 198.374 C 307.732 199.468,306.462 202.403,305.778 205.416 C 303.794 214.167,303.593 214.709,301.777 216.197 C 300.620 217.145,299.849 218.214,299.394 219.500 C 297.995 223.450,297.456 224.406,296.216 225.138 C 294.768 225.992,291.880 230.014,291.435 231.798 C 291.041 233.373,290.628 233.829,288.173 235.400 C 286.719 236.330,285.852 237.253,285.235 238.527 C 284.173 240.721,283.853 241.001,281.760 241.560 C 280.596 241.871,279.264 242.824,277.160 244.850 C 275.532 246.418,273.480 248.048,272.600 248.473 C 271.720 248.897,270.375 249.549,269.612 249.922 C 268.848 250.295,267.712 251.365,267.085 252.300 C 266.414 253.302,265.636 254.000,265.189 254.000 C 260.614 254.000,255.414 259.022,254.578 264.246 C 254.275 266.143,253.827 266.773,251.975 267.903 C 250.500 268.803,250.362 269.012,248.620 272.975 C 247.891 274.632,246.733 276.179,244.791 278.090 C 243.260 279.598,241.916 281.274,241.804 281.815 C 241.692 282.357,241.513 283.224,241.407 283.743 C 241.269 284.417,240.703 284.881,239.425 285.369 C 237.369 286.154,235.396 288.199,235.013 289.939 C 234.786 290.973,234.520 291.176,233.075 291.416 C 230.655 291.818,229.548 292.494,226.567 295.388 C 224.803 297.101,223.286 298.184,222.055 298.610 C 218.766 299.747,217.426 300.570,216.480 302.032 C 215.600 303.393,215.322 303.519,210.877 304.573 C 204.846 306.003,201.816 307.057,199.677 308.468 C 193.598 312.477,158.160 312.075,152.130 307.927 C 150.127 306.549,147.086 305.564,143.007 304.971 C 140.172 304.559,138.530 303.776,137.109 302.158 C 135.636 300.480,133.037 299.094,129.778 298.249 C 128.470 297.910,127.220 297.334,127.000 296.968 C 125.388 294.290,124.758 293.678,122.298 292.400 C 120.815 291.630,119.602 290.781,119.601 290.513 C 119.600 289.891,116.924 287.200,116.306 287.200 C 115.667 287.200,113.200 284.765,113.200 284.135 C 113.200 283.456,110.517 280.800,109.831 280.800 C 109.532 280.800,108.907 279.945,108.441 278.900 C 106.887 275.417,106.611 275.062,104.716 274.118 C 102.860 273.192,102.010 271.763,102.002 269.554 C 101.998 268.258,99.219 263.345,98.174 262.786 C 96.657 261.974,96.082 260.561,95.218 255.510 C 94.396 250.712,93.892 249.209,92.069 246.116 C 88.986 240.889,88.640 209.024,91.609 203.800 C 91.984 203.140,92.655 201.970,93.099 201.200 C 93.884 199.840,94.887 196.062,95.434 192.405 C 95.877 189.442,96.655 187.750,98.403 185.949 C 100.362 183.930,100.991 182.805,101.637 180.160 C 102.369 177.171,102.998 176.212,104.751 175.422 C 106.086 174.820,106.576 174.249,107.644 172.049 C 108.351 170.592,109.575 168.761,110.365 167.980 C 111.154 167.199,113.476 164.822,115.524 162.699 C 117.573 160.576,119.615 158.722,120.062 158.580 C 121.728 158.052,124.480 155.860,125.093 154.574 C 125.741 153.215,127.037 152.414,130.991 150.928 C 132.447 150.381,133.275 149.745,134.071 148.560 C 134.881 147.353,135.600 146.809,136.880 146.431 C 142.394 144.803,144.584 142.566,145.956 137.166 C 146.645 134.451,146.831 134.144,148.253 133.360 C 149.814 132.499,150.356 131.687,152.164 127.498 C 152.841 125.928,153.473 125.076,154.150 124.819 C 155.297 124.383,158.028 120.850,158.803 118.800 C 159.495 116.967,160.290 116.073,162.005 115.198 C 162.778 114.803,164.359 113.390,165.518 112.057 C 167.114 110.222,168.377 109.258,170.713 108.094 C 172.859 107.023,174.069 106.136,174.688 105.178 C 176.373 102.569,176.770 102.322,181.078 101.213 C 182.153 100.936,183.556 100.050,184.981 98.748 C 187.131 96.782,190.644 95.200,192.857 95.200 C 194.960 95.200,199.364 93.811,201.670 92.420 C 203.586 91.264,204.943 90.780,207.204 90.446 C 208.852 90.202,210.650 89.927,211.200 89.835 C 213.550 89.442,240.261 89.924,242.000 90.391 M213.600 105.628 C 209.473 106.091,206.959 106.882,204.919 108.360 C 203.803 109.168,202.011 109.780,198.390 110.591 C 192.595 111.887,192.394 111.975,190.184 114.153 C 189.265 115.059,187.362 116.334,185.956 116.987 C 182.364 118.654,181.189 119.529,180.578 120.991 C 179.892 122.632,179.466 122.962,176.689 124.001 C 174.058 124.986,173.413 125.887,172.750 129.510 C 172.519 130.769,171.964 132.398,171.515 133.129 L 170.699 134.458 172.050 135.879 C 174.184 138.126,176.429 138.944,180.200 138.850 C 190.221 138.600,201.898 140.184,204.061 142.087 C 205.912 143.716,208.224 144.664,212.527 145.558 C 217.176 146.523,217.274 146.569,218.026 148.114 C 218.649 149.394,223.561 152.263,226.575 153.108 C 227.347 153.325,228.052 153.979,228.634 155.019 C 229.788 157.081,231.187 158.091,233.283 158.372 C 234.890 158.588,235.042 158.725,236.095 160.924 C 237.081 162.981,237.451 163.355,239.309 164.177 C 241.216 165.020,241.453 165.270,241.890 166.905 C 242.491 169.151,244.024 171.012,245.804 171.656 C 246.833 172.028,247.235 172.451,247.435 173.375 C 247.981 175.893,250.764 180.769,252.187 181.699 C 253.755 182.724,254.499 184.281,255.184 187.975 C 255.735 190.941,257.038 193.729,258.609 195.300 C 259.293 195.984,259.839 197.105,260.069 198.296 C 260.684 201.492,261.990 215.984,261.995 219.674 C 262.001 223.684,262.230 224.444,264.060 226.522 L 265.400 228.045 268.400 227.586 C 270.050 227.333,271.983 227.045,272.696 226.946 C 274.295 226.723,276.145 224.830,276.755 222.792 C 277.242 221.168,277.721 220.653,279.704 219.620 C 280.706 219.098,281.409 218.111,282.800 215.276 C 283.930 212.973,285.304 210.897,286.490 209.700 C 288.467 207.705,288.744 206.957,290.448 199.000 C 290.731 197.680,291.225 196.333,291.546 196.007 C 296.190 191.287,296.564 164.532,292.075 158.231 C 290.917 156.607,290.498 155.263,289.399 149.649 C 288.594 145.532,287.455 143.346,285.632 142.416 C 284.340 141.757,284.061 141.348,283.480 139.258 C 282.882 137.107,281.219 134.652,278.428 131.800 C 277.037 130.379,275.235 128.021,274.759 127.000 C 274.452 126.340,273.557 125.486,272.772 125.101 C 271.986 124.717,270.045 123.143,268.459 121.603 C 265.379 118.614,263.607 117.515,260.665 116.775 C 259.147 116.392,258.698 116.056,258.112 114.861 C 257.097 112.794,255.354 111.810,251.324 111.030 C 245.839 109.968,244.859 109.641,242.863 108.209 C 239.455 105.763,224.311 104.427,213.600 105.628 M228.600 108.031 C 234.331 108.419,235.481 108.626,239.600 110.012 C 242.130 110.862,245.371 111.825,246.802 112.151 C 251.258 113.165,253.333 114.021,255.290 115.654 C 256.330 116.521,258.262 117.768,259.584 118.424 C 260.906 119.080,263.043 120.558,264.333 121.708 C 265.622 122.859,267.200 124.063,267.839 124.385 C 268.938 124.939,274.800 130.457,274.800 130.939 C 274.800 131.438,277.990 135.677,278.913 136.403 C 279.456 136.830,280.640 138.601,281.544 140.338 C 282.447 142.076,283.878 144.333,284.723 145.355 C 286.294 147.257,287.178 149.513,288.425 154.800 C 289.263 158.352,290.623 162.990,291.010 163.617 C 293.059 166.932,292.642 186.318,290.400 192.000 C 289.923 193.210,288.994 196.450,288.337 199.200 C 287.107 204.344,286.419 205.892,284.597 207.603 C 284.018 208.146,282.803 210.110,281.896 211.966 C 280.989 213.822,279.296 216.407,278.135 217.709 C 276.973 219.011,275.558 221.057,274.991 222.256 C 273.781 224.814,273.054 225.180,269.901 224.821 C 265.950 224.369,265.408 223.671,265.356 218.954 C 265.331 216.745,265.036 214.001,264.687 212.736 C 264.344 211.491,263.587 207.621,263.006 204.136 C 261.857 197.246,260.780 193.392,259.580 191.865 C 258.805 190.880,256.400 185.250,256.400 184.420 C 256.400 183.501,254.404 180.114,252.394 177.620 C 251.250 176.200,249.870 174.103,249.328 172.958 C 248.727 171.689,247.570 170.226,246.364 169.209 C 245.276 168.291,244.047 166.879,243.632 166.070 C 243.218 165.262,242.332 164.093,241.665 163.474 C 240.124 162.045,238.495 160.400,237.128 158.891 C 236.539 158.240,235.099 157.166,233.928 156.503 C 232.758 155.840,231.213 154.564,230.496 153.668 C 229.681 152.649,228.256 151.585,226.696 150.832 C 225.323 150.169,223.300 148.906,222.200 148.026 C 219.595 145.941,216.954 144.545,213.731 143.550 C 212.298 143.107,209.627 141.974,207.796 141.032 C 202.926 138.526,186.963 135.610,181.099 136.155 C 177.469 136.492,175.422 135.510,175.049 133.251 C 174.218 128.228,175.012 126.501,178.916 124.833 C 179.970 124.383,181.770 123.133,182.916 122.055 C 184.062 120.977,186.440 119.374,188.200 118.492 C 189.960 117.610,191.760 116.490,192.200 116.003 C 193.703 114.337,196.241 113.218,201.220 112.023 C 203.959 111.365,207.683 110.284,209.495 109.620 C 211.899 108.739,213.953 108.318,217.095 108.062 C 219.463 107.869,221.580 107.686,221.800 107.655 C 222.020 107.623,225.080 107.793,228.600 108.031 M164.400 155.052 C 156.774 156.509,155.310 158.821,154.802 170.200 C 154.043 187.238,155.465 198.007,158.898 201.206 C 159.366 201.642,159.986 203.221,160.419 205.078 C 161.397 209.279,162.508 211.757,163.816 212.657 C 165.917 214.101,166.749 215.127,167.211 216.840 C 167.747 218.830,170.264 221.600,171.537 221.600 C 172.151 221.600,172.486 221.992,172.818 223.100 C 173.424 225.121,174.950 226.808,176.724 227.418 C 177.829 227.798,178.435 228.382,179.201 229.803 C 180.238 231.725,182.202 233.151,183.858 233.183 C 184.753 233.201,186.467 234.697,187.753 236.585 C 188.650 237.903,191.570 239.261,195.352 240.120 C 197.301 240.562,198.469 241.090,199.352 241.928 C 204.618 246.920,238.267 247.754,243.011 243.010 C 248.042 237.979,247.278 203.203,242.031 198.400 C 241.275 197.708,240.732 196.571,240.266 194.703 C 239.202 190.443,237.845 187.734,236.327 186.839 C 234.343 185.670,233.826 185.026,233.303 183.068 C 232.752 181.010,230.801 178.860,229.191 178.538 C 228.349 178.370,228.025 178.023,227.839 177.094 C 227.541 175.603,224.752 172.850,223.232 172.546 C 222.442 172.388,221.998 171.951,221.648 170.983 C 221.021 169.247,219.167 167.705,217.066 167.171 C 214.989 166.643,214.296 166.136,213.471 164.539 C 212.549 162.753,210.633 161.715,206.181 160.585 C 203.302 159.855,201.950 159.288,200.910 158.375 C 197.739 155.590,194.999 155.172,178.800 155.002 C 171.430 154.924,164.950 154.947,164.400 155.052 M192.400 157.894 C 194.050 158.329,196.303 159.142,197.408 159.702 C 198.512 160.262,201.345 161.308,203.704 162.027 C 207.340 163.135,208.343 163.632,210.296 165.299 C 211.563 166.380,213.803 167.876,215.273 168.624 C 216.957 169.480,218.508 170.655,219.465 171.800 C 220.301 172.800,221.736 173.982,222.655 174.427 C 223.831 174.996,224.760 175.913,225.786 177.518 C 226.588 178.773,227.960 180.310,228.834 180.934 C 229.865 181.670,230.860 182.934,231.667 184.532 C 232.351 185.888,233.842 188.025,234.979 189.283 C 236.670 191.151,237.257 192.211,238.192 195.084 C 238.822 197.018,239.922 199.770,240.638 201.200 C 243.808 207.536,245.098 219.363,244.026 232.287 C 243.202 242.231,240.419 243.960,225.200 243.983 C 213.837 244.001,207.151 243.009,202.400 240.602 C 201.410 240.100,198.655 239.038,196.279 238.241 C 193.009 237.145,191.567 236.431,190.350 235.306 C 188.337 233.443,187.129 232.623,184.600 231.402 C 183.483 230.863,181.929 229.633,181.079 228.617 C 180.243 227.617,178.603 226.187,177.434 225.439 C 175.907 224.462,175.060 223.564,174.420 222.241 C 173.912 221.191,172.861 219.928,171.973 219.300 C 170.973 218.594,169.909 217.243,168.999 215.525 C 167.649 212.975,164.611 208.750,163.925 208.467 C 163.748 208.394,163.038 206.504,162.347 204.267 C 161.657 202.030,160.561 199.139,159.911 197.842 C 157.305 192.639,156.125 183.464,156.588 172.000 C 156.963 162.713,158.471 159.625,163.600 157.646 C 166.728 156.439,187.552 156.619,192.400 157.894 M131.400 173.288 C 126.928 173.868,125.129 174.722,124.408 176.610 C 123.421 179.191,122.390 180.623,120.969 181.389 C 119.481 182.190,116.684 187.046,116.194 189.677 C 115.970 190.885,115.710 191.200,114.765 191.408 C 112.666 191.869,111.711 193.919,110.405 200.773 C 109.970 203.054,109.366 205.208,109.063 205.560 C 104.215 211.180,103.743 236.834,108.378 242.799 C 109.760 244.577,109.820 244.754,110.618 249.472 C 111.577 255.138,113.271 258.400,115.256 258.400 C 115.779 258.400,116.166 259.080,116.750 261.025 C 117.599 263.855,119.927 267.596,121.332 268.388 C 122.456 269.023,124.600 271.949,124.944 273.318 C 125.131 274.064,125.722 274.620,126.906 275.164 C 128.629 275.955,132.000 278.907,132.000 279.624 C 132.000 280.335,136.952 283.237,139.261 283.880 C 141.215 284.424,141.553 284.663,141.748 285.641 C 142.104 287.421,144.376 288.602,149.732 289.789 C 153.628 290.652,154.875 291.118,156.786 292.422 C 162.962 296.638,190.644 296.360,196.980 292.018 C 198.631 290.887,201.137 290.042,205.360 289.193 C 208.084 288.645,211.215 286.867,211.983 285.432 C 212.325 284.793,213.567 283.980,215.496 283.132 C 218.321 281.890,220.400 280.152,220.400 279.031 C 220.400 278.281,221.635 277.302,223.000 276.972 C 225.986 276.250,228.000 273.725,228.000 270.704 C 228.000 270.153,228.376 268.852,228.835 267.814 L 229.670 265.926 228.735 264.923 C 226.608 262.643,224.178 261.817,219.394 261.749 C 206.872 261.570,197.873 260.268,195.641 258.312 C 193.861 256.752,191.295 255.679,187.600 254.950 C 183.805 254.200,182.989 253.786,181.997 252.106 C 181.206 250.765,174.721 247.200,173.072 247.200 C 172.708 247.200,172.110 246.460,171.670 245.464 C 170.813 243.528,168.873 242.091,166.622 241.726 C 165.382 241.525,165.093 241.239,164.232 239.357 C 163.366 237.465,162.982 237.088,160.928 236.108 C 158.729 235.059,158.590 234.905,158.311 233.228 C 157.971 231.179,156.102 228.974,154.385 228.597 C 153.580 228.420,153.230 228.048,153.058 227.190 C 152.459 224.197,149.881 219.557,148.158 218.371 C 146.269 217.072,146.256 217.043,145.443 212.800 C 144.740 209.135,143.664 206.556,142.086 204.759 C 140.190 202.599,138.800 192.846,138.800 181.700 C 138.800 174.659,136.960 172.567,131.400 173.288 M132.000 176.022 C 135.546 176.589,136.044 177.259,135.729 181.039 C 135.561 183.064,135.736 185.244,136.340 188.639 C 136.806 191.258,137.559 195.740,138.013 198.600 C 138.749 203.226,139.077 204.286,140.993 208.200 C 142.177 210.620,143.410 213.517,143.733 214.637 C 144.575 217.562,145.746 219.684,148.183 222.705 C 149.361 224.164,150.556 226.060,150.839 226.919 C 151.343 228.444,152.122 229.408,154.746 231.751 C 155.455 232.383,156.383 233.583,156.808 234.416 C 157.233 235.249,158.142 236.442,158.827 237.066 C 160.392 238.490,162.025 240.104,163.466 241.650 C 164.080 242.310,165.416 243.303,166.434 243.857 C 167.451 244.411,168.968 245.682,169.804 246.682 C 170.641 247.683,172.104 248.845,173.062 249.269 C 174.018 249.692,176.196 251.085,177.901 252.364 C 181.464 255.039,182.718 255.731,185.904 256.782 C 189.919 258.106,191.146 258.627,191.944 259.349 C 193.179 260.467,197.826 261.887,202.600 262.605 C 205.020 262.970,209.160 263.682,211.800 264.188 C 215.213 264.843,217.431 265.051,219.477 264.911 C 223.814 264.612,225.286 266.239,225.708 271.800 C 225.797 272.966,224.568 274.380,222.917 275.010 C 221.934 275.386,220.021 276.722,218.665 277.980 C 217.221 279.319,214.647 281.080,212.450 282.230 C 210.388 283.310,208.612 284.425,208.503 284.708 C 208.105 285.746,204.864 287.152,199.600 288.572 C 196.630 289.372,193.480 290.358,192.600 290.763 C 185.977 293.811,162.475 293.270,158.195 289.972 C 157.972 289.800,155.556 289.096,152.824 288.406 C 147.166 286.978,147.017 286.912,144.156 284.582 C 142.996 283.636,140.879 282.306,139.454 281.626 C 138.028 280.945,136.443 279.896,135.931 279.294 C 135.419 278.692,134.010 277.487,132.800 276.615 C 130.304 274.818,124.800 269.650,124.800 269.104 C 124.800 268.497,122.289 265.055,121.141 264.089 C 120.546 263.588,119.373 261.788,118.535 260.089 C 117.696 258.390,116.424 256.349,115.707 255.554 C 114.048 253.713,113.410 252.160,112.190 246.996 C 111.648 244.702,110.538 240.884,109.723 238.512 L 108.242 234.200 108.229 224.800 L 108.217 215.400 109.688 211.000 C 110.497 208.580,111.604 204.710,112.149 202.400 C 113.441 196.923,113.725 196.235,115.557 194.154 C 116.404 193.192,117.677 191.189,118.386 189.702 C 119.096 188.216,120.629 185.830,121.794 184.400 C 122.959 182.970,124.314 180.941,124.805 179.890 C 125.891 177.566,127.660 175.599,128.660 175.603 C 129.067 175.605,130.570 175.793,132.000 176.022 " stroke="none" fill="#fce6c1" fill-rule="evenodd"></path><path id="path4" d="M218.200 84.648 C 203.328 85.604,192.488 87.865,191.602 90.195 C 191.333 90.902,190.833 91.220,189.718 91.395 C 187.794 91.696,183.904 92.704,181.705 93.471 C 180.130 94.020,178.400 95.743,178.400 96.762 C 178.400 97.003,178.159 97.200,177.863 97.200 C 176.054 97.200,168.800 101.561,168.800 102.649 C 168.800 103.332,166.633 104.915,164.328 105.917 C 163.035 106.479,162.248 107.142,161.782 108.065 C 160.993 109.625,159.629 111.200,159.068 111.200 C 158.129 111.200,156.028 113.307,155.583 114.696 C 154.983 116.570,153.792 117.905,152.084 118.621 C 151.087 119.039,150.539 119.691,149.821 121.314 C 148.651 123.959,147.280 126.005,145.390 127.926 C 143.695 129.649,143.002 130.868,142.618 132.800 C 142.056 135.621,141.147 137.459,139.970 138.154 C 139.324 138.535,138.526 139.369,138.197 140.005 C 137.633 141.096,134.683 142.800,133.357 142.800 C 132.006 142.800,129.485 144.212,128.655 145.433 C 127.842 146.629,126.051 147.790,121.499 150.068 C 120.673 150.482,119.573 151.493,119.053 152.316 C 117.877 154.179,117.206 154.742,114.661 156.000 C 113.217 156.714,112.421 157.428,111.882 158.495 C 111.173 159.899,110.233 160.833,107.854 162.497 C 107.307 162.880,106.350 164.221,105.728 165.477 C 104.996 166.956,103.963 168.244,102.799 169.131 C 100.868 170.601,98.205 174.825,97.759 177.126 C 97.576 178.068,97.079 178.719,96.045 179.372 C 95.244 179.877,94.382 180.541,94.131 180.846 C 93.531 181.573,91.600 188.266,91.600 189.617 C 91.600 190.321,91.023 191.253,89.854 192.440 C 83.145 199.244,83.277 250.770,90.019 257.114 C 91.227 258.250,91.599 258.905,91.599 259.895 C 91.601 263.793,94.760 270.400,96.621 270.400 C 96.903 270.400,97.439 271.255,97.812 272.300 C 98.958 275.515,99.724 276.789,101.796 278.934 C 103.633 280.835,105.201 282.953,106.780 285.664 C 107.121 286.249,108.205 287.335,109.188 288.076 C 110.172 288.817,111.585 290.228,112.329 291.212 C 113.072 292.195,114.275 293.360,115.002 293.800 C 118.416 295.867,120.023 297.053,120.214 297.651 C 120.670 299.072,127.123 302.921,129.500 303.189 C 129.555 303.195,129.600 303.451,129.600 303.758 C 129.600 305.655,134.006 307.846,139.307 308.585 C 140.802 308.794,141.407 309.113,142.107 310.066 C 143.860 312.449,146.081 313.122,157.784 314.811 C 162.193 315.448,167.060 316.325,168.600 316.761 C 173.102 318.036,182.548 317.755,186.076 316.242 C 186.804 315.930,191.123 315.194,195.674 314.608 C 206.455 313.218,207.575 312.907,210.010 310.629 C 211.086 309.623,212.044 308.800,212.139 308.800 C 215.931 308.800,221.203 306.729,223.363 304.390 C 224.265 303.415,225.874 302.288,227.163 301.732 C 230.998 300.076,231.320 299.846,232.398 298.003 C 233.239 296.566,233.844 296.060,235.424 295.474 C 237.820 294.585,238.734 293.817,239.472 292.071 C 239.784 291.335,240.601 290.444,241.307 290.071 C 243.213 289.065,245.118 287.075,245.429 285.764 C 245.740 284.452,247.084 282.800,247.839 282.800 C 248.626 282.800,250.732 280.856,250.999 279.882 C 251.737 277.193,253.017 275.120,254.262 274.600 C 255.735 273.984,257.752 270.481,258.191 267.775 C 258.695 264.664,258.837 264.387,260.441 263.374 C 261.336 262.809,262.367 261.806,262.734 261.144 C 263.954 258.940,264.192 258.777,267.333 257.992 C 270.625 257.169,273.131 255.693,274.148 253.977 C 274.481 253.414,275.800 252.457,277.077 251.849 C 278.355 251.242,279.850 250.528,280.400 250.264 C 280.950 250.000,281.702 249.183,282.070 248.449 C 282.948 246.702,284.380 245.200,285.170 245.199 C 286.449 245.195,288.314 243.629,289.188 241.824 C 289.879 240.397,290.523 239.749,291.984 239.008 C 293.572 238.204,294.029 237.700,294.785 235.923 C 295.872 233.368,296.545 232.559,298.258 231.745 C 299.416 231.196,303.200 224.672,303.200 223.225 C 303.200 223.050,303.892 222.448,304.737 221.889 C 306.665 220.613,307.400 219.073,308.362 214.290 C 309.065 210.796,309.252 210.378,310.758 208.950 C 312.835 206.980,313.338 205.075,314.758 193.800 C 315.340 189.180,315.927 185.220,316.062 185.000 C 317.246 183.074,317.386 172.683,316.279 168.800 C 315.935 167.590,315.182 162.676,314.607 157.880 C 313.368 147.543,312.579 144.591,310.588 142.843 C 309.075 141.515,308.403 140.176,308.395 138.474 C 308.389 137.340,307.104 132.915,306.395 131.591 C 306.165 131.160,305.397 130.509,304.688 130.143 C 303.059 129.301,302.510 128.560,302.203 126.787 C 301.940 125.263,298.845 120.805,297.686 120.278 C 297.026 119.979,295.726 118.207,293.800 114.985 C 293.360 114.249,292.251 113.106,291.336 112.446 C 290.420 111.787,289.160 110.581,288.536 109.767 C 286.954 107.707,286.604 107.410,283.100 105.161 C 281.395 104.066,280.000 103.012,280.000 102.818 C 280.000 102.027,275.289 98.752,273.309 98.167 C 271.611 97.665,271.009 97.234,270.105 95.874 C 268.882 94.036,263.146 91.632,259.927 91.610 C 258.740 91.602,258.282 91.357,257.564 90.350 C 256.598 88.992,254.455 87.885,251.525 87.228 C 244.584 85.673,225.384 84.186,218.200 84.648 M239.800 86.796 C 247.437 87.847,250.980 88.833,254.800 90.970 C 255.350 91.278,257.690 92.110,260.000 92.818 C 265.027 94.361,266.124 94.882,268.139 96.689 C 268.986 97.448,270.874 98.605,272.336 99.261 C 273.925 99.974,275.639 101.135,276.597 102.148 C 277.479 103.080,279.550 104.718,281.200 105.789 C 285.013 108.264,291.977 115.245,294.788 119.410 C 295.979 121.175,297.625 123.155,298.444 123.810 C 299.431 124.598,300.312 125.878,301.053 127.600 C 301.669 129.030,302.828 130.920,303.629 131.800 C 305.585 133.947,308.400 140.437,308.400 142.797 C 308.400 143.152,308.965 144.334,309.655 145.422 C 316.219 155.766,316.299 197.431,309.772 206.611 C 309.018 207.672,308.400 208.837,308.400 209.200 C 308.400 211.796,305.648 218.539,303.993 220.000 C 303.370 220.550,302.013 222.620,300.978 224.600 C 299.944 226.580,298.168 229.190,297.031 230.400 C 295.895 231.610,294.534 233.320,294.005 234.200 C 292.752 236.287,286.071 243.001,283.839 244.416 C 282.881 245.024,281.581 246.178,280.949 246.981 C 280.310 247.793,278.113 249.437,276.000 250.686 C 273.910 251.920,271.626 253.499,270.924 254.194 C 270.222 254.889,268.872 255.776,267.924 256.166 C 261.304 258.887,258.982 261.211,256.931 267.167 C 256.294 269.019,254.494 272.000,254.013 272.000 C 253.643 272.000,251.193 275.655,249.783 278.310 C 249.164 279.475,248.091 280.773,247.387 281.208 C 246.221 281.929,245.329 283.039,243.450 286.108 C 243.076 286.717,242.035 287.749,241.135 288.401 C 240.235 289.053,238.945 290.307,238.267 291.188 C 237.590 292.069,235.886 293.463,234.481 294.285 C 233.075 295.107,231.397 296.446,230.752 297.261 C 230.002 298.208,228.175 299.495,225.689 300.828 C 223.550 301.975,221.052 303.597,220.137 304.431 C 218.569 305.861,212.070 308.400,209.976 308.400 C 209.615 308.400,208.540 308.965,207.586 309.656 C 198.563 316.192,155.636 316.432,145.927 310.001 C 144.916 309.332,142.697 308.419,140.995 307.974 C 136.913 306.904,133.269 305.196,131.860 303.691 C 131.234 303.021,129.434 301.904,127.860 301.209 C 125.921 300.351,124.617 299.463,123.810 298.449 C 123.155 297.627,121.175 295.979,119.410 294.788 C 115.245 291.977,108.264 285.013,105.789 281.200 C 104.718 279.550,103.087 277.480,102.163 276.600 C 101.150 275.634,99.985 273.890,99.224 272.200 C 98.530 270.660,97.362 268.770,96.628 268.000 C 94.854 266.137,91.628 258.427,91.606 255.993 C 91.603 255.659,91.182 254.759,90.670 253.993 C 84.749 245.123,84.523 206.231,90.333 195.838 C 90.959 194.717,91.573 193.440,91.696 193.000 C 93.808 185.456,95.006 182.478,96.311 181.526 C 97.348 180.770,98.554 178.877,99.324 176.797 C 99.692 175.805,101.180 173.645,102.631 171.997 C 104.083 170.349,106.004 167.817,106.901 166.371 C 107.798 164.925,109.132 163.348,109.866 162.867 C 110.600 162.386,111.743 161.243,112.406 160.328 C 113.069 159.413,114.734 157.908,116.106 156.985 C 117.478 156.061,119.230 154.646,120.000 153.839 C 121.902 151.845,124.799 149.780,127.455 148.522 C 128.669 147.947,129.946 147.044,130.293 146.514 C 130.664 145.948,132.671 144.720,135.162 143.534 C 140.976 140.766,141.692 139.945,143.781 133.656 C 144.239 132.278,145.052 131.005,146.140 129.963 C 147.053 129.088,148.160 127.683,148.600 126.840 C 150.837 122.555,151.474 121.630,153.594 119.591 C 154.857 118.376,156.277 116.626,156.748 115.702 C 157.231 114.756,158.521 113.326,159.702 112.428 C 160.856 111.551,162.153 110.298,162.586 109.643 C 163.018 108.988,164.455 107.766,165.780 106.926 C 167.105 106.087,169.304 104.392,170.667 103.161 C 172.031 101.930,174.534 100.236,176.231 99.398 C 177.928 98.559,180.148 97.137,181.166 96.237 C 182.704 94.877,183.860 94.340,188.008 93.059 C 190.754 92.212,193.450 91.275,194.000 90.979 C 194.550 90.682,195.630 90.096,196.400 89.676 C 198.306 88.637,202.424 87.722,208.400 87.011 C 211.150 86.683,213.940 86.337,214.600 86.242 C 216.835 85.918,236.579 86.352,239.800 86.796 M219.336 109.249 C 217.761 109.394,215.601 109.790,214.536 110.131 C 212.211 110.874,209.397 111.575,203.000 113.006 C 197.249 114.292,195.945 114.800,194.036 116.502 C 193.235 117.216,190.991 118.610,189.049 119.600 C 187.106 120.590,184.771 122.081,183.859 122.914 C 182.946 123.746,181.179 124.889,179.932 125.454 C 176.302 127.097,175.875 127.752,176.605 130.556 C 177.649 134.563,177.574 134.505,181.332 134.209 C 183.960 134.001,185.227 134.114,187.800 134.785 C 189.560 135.243,193.270 135.967,196.044 136.392 C 203.958 137.605,206.595 138.316,208.881 139.855 C 210.013 140.617,212.924 141.898,215.349 142.703 C 219.029 143.923,220.225 144.540,222.579 146.430 C 224.131 147.676,226.492 149.244,227.826 149.916 C 229.336 150.676,230.821 151.832,231.760 152.978 C 232.590 153.990,234.006 155.195,234.907 155.655 C 236.995 156.720,243.460 163.208,244.926 165.709 C 245.541 166.759,246.731 168.051,247.570 168.581 C 248.631 169.251,249.483 170.313,250.369 172.072 C 251.069 173.462,252.467 175.500,253.476 176.600 C 255.502 178.810,256.878 181.476,257.980 185.329 C 258.390 186.762,259.333 188.691,260.143 189.752 C 261.856 191.997,262.486 193.980,263.842 201.400 C 264.404 204.480,265.306 208.350,265.845 210.000 C 266.412 211.734,266.997 214.857,267.230 217.400 C 267.682 222.320,267.961 222.797,270.893 223.675 C 272.753 224.233,274.018 223.175,274.808 220.400 C 275.028 219.630,276.066 217.971,277.116 216.713 C 278.166 215.455,279.998 212.609,281.187 210.388 C 282.376 208.166,283.692 206.165,284.112 205.940 C 285.533 205.180,286.319 202.609,289.417 188.594 C 289.709 187.271,290.154 185.651,290.405 184.994 C 291.231 182.835,291.397 174.068,290.670 170.960 C 290.315 169.442,289.377 165.230,288.584 161.600 C 286.514 152.117,285.382 148.708,283.581 146.528 C 282.750 145.522,281.755 143.867,281.370 142.850 C 280.397 140.281,279.050 138.232,277.702 137.272 C 277.073 136.825,276.048 135.501,275.423 134.329 C 274.213 132.061,267.159 124.800,266.166 124.800 C 265.851 124.800,264.522 123.815,263.212 122.611 C 261.831 121.342,259.690 119.905,258.115 119.191 C 256.622 118.515,254.853 117.431,254.184 116.784 C 252.976 115.614,249.220 113.913,246.712 113.401 C 244.955 113.042,239.661 111.813,233.800 110.403 C 228.712 109.179,224.101 108.811,219.336 109.249 M231.000 112.596 C 244.793 114.025,249.063 114.921,250.175 116.619 C 250.918 117.752,254.478 119.645,257.621 120.579 C 260.238 121.356,260.884 121.823,261.528 123.406 C 261.912 124.348,262.539 124.813,264.397 125.534 C 266.672 126.416,268.800 128.266,268.800 129.361 C 268.800 130.022,270.375 131.440,271.482 131.775 C 272.817 132.180,274.370 134.269,274.653 136.044 C 274.900 137.589,276.298 139.200,277.392 139.200 C 278.243 139.200,279.088 140.534,279.789 142.983 C 280.741 146.312,282.243 149.182,283.797 150.643 C 285.307 152.061,285.230 151.763,287.214 164.000 C 287.926 168.388,288.173 181.500,287.634 186.283 C 286.783 193.850,284.963 203.200,284.342 203.200 C 283.394 203.200,281.156 205.852,280.641 207.586 C 279.871 210.181,278.936 211.926,277.399 213.641 C 276.689 214.434,275.267 216.801,274.239 218.900 C 271.364 224.769,269.256 222.672,268.911 213.600 C 268.739 209.099,268.115 206.821,266.610 205.200 C 265.869 204.402,265.462 202.985,264.597 198.200 C 263.293 190.985,262.389 188.396,260.677 186.967 C 259.030 185.592,258.432 184.514,258.414 182.888 C 258.383 180.034,255.507 174.800,253.970 174.800 C 253.172 174.800,251.980 172.920,251.291 170.576 C 250.750 168.735,249.553 167.479,247.808 166.920 C 246.876 166.622,246.467 166.123,245.932 164.628 C 245.111 162.333,244.291 161.365,242.308 160.354 C 241.485 159.933,240.523 159.011,240.161 158.296 C 239.121 156.238,238.027 155.273,235.948 154.583 C 234.273 154.027,233.905 153.700,233.231 152.177 C 232.596 150.742,232.094 150.257,230.526 149.565 C 225.877 147.513,225.248 147.112,224.840 145.944 C 224.337 144.501,220.684 142.669,216.609 141.816 C 214.348 141.343,213.699 141.017,212.766 139.885 C 211.236 138.029,208.410 137.083,200.400 135.747 C 194.902 134.830,193.549 134.466,192.298 133.566 C 191.026 132.650,190.232 132.444,187.098 132.216 C 178.647 131.602,175.142 129.136,179.700 127.011 C 182.563 125.677,185.161 124.112,186.605 122.851 C 187.901 121.722,190.205 120.525,193.390 119.329 C 194.743 118.821,195.681 118.136,196.318 117.191 C 197.357 115.649,199.901 114.698,204.800 114.019 C 220.443 111.851,222.649 111.731,231.000 112.596 M165.737 158.263 C 164.333 158.414,158.717 162.837,158.363 164.070 C 156.994 168.828,158.005 189.735,159.771 193.200 C 160.499 194.630,161.460 196.970,161.906 198.400 C 162.352 199.830,163.117 202.302,163.606 203.892 C 164.261 206.023,164.983 207.344,166.348 208.909 C 168.200 211.033,169.077 212.498,170.164 215.280 C 170.536 216.232,171.451 217.269,172.730 218.188 C 173.932 219.052,174.823 220.037,174.985 220.683 C 175.429 222.453,176.811 224.033,178.577 224.790 C 179.556 225.210,180.958 226.356,181.968 227.561 C 183.234 229.074,184.443 229.971,186.544 230.959 C 188.115 231.698,190.030 232.929,190.800 233.695 C 192.596 235.482,194.622 236.492,198.570 237.570 C 200.314 238.047,203.284 239.142,205.170 240.004 C 213.460 243.794,236.255 243.824,240.149 240.049 C 244.240 236.084,244.175 210.835,240.054 203.552 C 239.355 202.315,238.271 199.674,237.647 197.682 C 236.507 194.046,234.682 190.400,234.002 190.400 C 233.468 190.400,231.401 187.244,230.757 185.446 C 230.395 184.436,229.333 183.131,227.721 181.716 C 226.183 180.366,225.069 179.016,224.787 178.161 C 224.314 176.728,221.985 174.800,220.726 174.800 C 220.347 174.800,219.714 174.319,219.319 173.732 C 217.932 171.671,216.113 170.194,214.107 169.498 C 212.994 169.112,211.209 168.013,210.141 167.055 C 207.669 164.837,205.718 163.853,201.765 162.834 C 198.111 161.891,195.490 160.922,192.440 159.385 L 190.279 158.297 178.840 158.190 C 172.548 158.131,166.652 158.164,165.737 158.263 M186.883 159.686 C 188.902 161.010,193.273 162.489,198.400 163.584 C 205.109 165.016,206.181 165.402,206.715 166.573 C 207.276 167.804,211.214 170.157,214.117 170.997 C 216.208 171.601,216.494 171.818,217.060 173.234 C 217.586 174.547,218.092 174.994,220.191 175.995 C 223.116 177.392,223.291 177.570,224.311 180.203 C 224.957 181.873,225.398 182.364,226.998 183.200 C 228.723 184.101,228.979 184.421,229.593 186.436 C 230.345 188.907,232.396 192.156,233.616 192.808 C 234.559 193.313,236.400 196.805,236.400 198.090 C 236.400 200.992,238.747 207.342,240.289 208.612 C 241.470 209.585,242.031 217.282,241.726 228.361 C 241.509 236.272,241.548 236.120,239.437 237.357 C 238.465 237.927,237.279 239.025,236.802 239.797 C 235.636 241.683,235.581 241.690,223.535 241.523 C 212.044 241.364,212.675 241.481,208.400 238.713 C 207.850 238.357,204.839 237.509,201.709 236.828 C 195.279 235.431,194.119 235.004,193.770 233.906 C 193.435 232.851,189.164 230.156,186.493 229.314 C 184.565 228.706,184.203 228.417,183.462 226.891 C 182.664 225.248,180.235 223.600,178.611 223.600 C 177.867 223.600,176.990 222.374,176.463 220.600 C 175.860 218.567,174.820 217.335,173.100 216.616 C 172.022 216.166,171.636 215.691,171.232 214.324 C 170.377 211.434,167.915 207.114,166.736 206.437 C 165.244 205.581,164.886 204.657,163.590 198.321 C 162.683 193.882,162.147 192.249,160.769 189.721 L 159.069 186.600 158.897 177.265 C 158.681 165.607,158.674 165.646,161.181 164.088 C 162.263 163.416,163.711 162.086,164.400 161.133 C 165.611 159.456,165.739 159.392,168.326 159.144 C 173.414 158.657,185.867 159.021,186.883 159.686 M127.079 178.464 C 126.520 179.199,125.608 180.708,125.052 181.818 C 124.495 182.928,123.114 185.088,121.982 186.618 C 120.850 188.148,119.426 190.480,118.816 191.800 C 118.207 193.120,117.138 194.735,116.440 195.388 C 115.173 196.576,113.628 200.687,112.978 204.600 C 112.694 206.314,111.464 211.576,110.735 214.200 C 108.601 221.878,108.694 226.681,111.174 236.800 C 111.578 238.450,112.210 241.240,112.578 243.000 C 113.713 248.434,115.180 252.644,116.293 253.663 C 116.856 254.179,118.038 256.130,118.921 258.000 C 119.929 260.137,121.188 262.056,122.311 263.166 C 123.292 264.137,124.353 265.548,124.668 266.300 C 125.243 267.676,131.793 274.800,132.484 274.800 C 132.994 274.800,135.477 276.706,137.232 278.445 C 138.034 279.240,139.930 280.471,141.445 281.180 C 142.960 281.890,144.833 283.079,145.606 283.824 C 147.126 285.288,149.923 286.413,155.000 287.603 C 159.912 288.753,163.638 289.838,165.400 290.631 C 166.737 291.232,168.412 291.376,175.600 291.508 L 184.200 291.666 188.400 290.255 C 190.710 289.479,195.030 288.271,198.000 287.572 C 203.876 286.187,205.669 285.451,207.200 283.798 C 207.750 283.204,209.820 281.903,211.800 280.906 C 213.780 279.909,216.355 278.222,217.522 277.157 C 218.702 276.079,220.308 275.040,221.141 274.816 C 221.964 274.594,223.152 273.877,223.779 273.222 L 224.920 272.031 224.246 270.264 C 223.214 267.562,222.687 267.269,218.389 267.002 C 216.305 266.873,213.070 266.340,211.200 265.818 C 209.330 265.296,205.190 264.399,202.000 263.824 C 194.735 262.515,192.763 261.879,189.983 259.943 C 188.763 259.095,187.503 258.396,187.183 258.390 C 184.846 258.351,179.603 255.834,176.758 253.387 C 175.571 252.366,173.582 251.012,172.338 250.379 C 171.002 249.699,169.457 248.472,168.566 247.385 C 167.736 246.372,166.359 245.187,165.506 244.752 C 163.413 243.684,156.701 236.958,155.626 234.851 C 155.139 233.896,153.979 232.605,152.970 231.893 C 151.634 230.952,150.864 229.964,149.945 228.015 C 149.267 226.577,147.942 224.573,146.999 223.563 C 144.892 221.303,144.282 220.145,142.546 215.099 C 141.795 212.915,140.659 210.469,140.022 209.664 C 138.622 207.893,137.847 205.347,136.774 199.004 C 136.327 196.362,135.430 191.927,134.781 189.148 C 134.131 186.370,133.599 183.490,133.598 182.748 C 133.592 179.116,132.736 177.999,129.490 177.391 C 128.239 177.156,127.990 177.267,127.079 178.464 M129.704 180.300 C 131.379 182.049,132.000 184.025,132.000 187.607 C 132.000 190.901,132.486 192.496,134.009 194.200 C 134.494 194.743,135.066 196.990,135.791 201.200 C 137.359 210.313,137.796 211.388,140.955 213.916 C 141.310 214.199,141.600 214.932,141.600 215.543 C 141.600 218.821,144.243 224.614,145.905 224.979 C 147.091 225.240,148.335 227.156,149.198 230.052 C 149.704 231.751,150.485 232.542,152.479 233.375 C 153.674 233.875,154.044 234.325,154.578 235.933 C 155.273 238.025,156.235 239.120,158.293 240.160 C 159.005 240.519,159.881 241.395,160.240 242.107 C 161.280 244.165,162.375 245.127,164.467 245.822 C 166.075 246.356,166.525 246.726,167.025 247.921 C 167.900 250.016,168.692 250.737,170.810 251.366 C 173.443 252.148,174.373 252.800,175.014 254.314 C 175.688 255.905,179.581 257.902,182.890 258.355 C 185.394 258.697,185.958 258.990,187.367 260.677 C 188.818 262.416,191.523 263.345,198.848 264.622 C 202.749 265.302,205.293 265.943,205.800 266.373 C 207.949 268.197,208.816 268.451,214.127 268.808 C 221.705 269.318,222.173 269.435,222.925 271.012 C 223.664 272.561,223.361 272.869,219.800 274.188 C 218.700 274.596,216.900 275.688,215.800 276.615 C 213.629 278.444,211.658 279.541,208.235 280.821 C 206.289 281.549,204.346 283.163,203.936 284.391 C 203.787 284.840,198.723 286.151,195.400 286.602 C 194.300 286.751,191.420 287.205,189.000 287.611 C 178.147 289.431,176.002 289.433,164.200 287.627 C 152.604 285.854,149.200 285.034,149.200 284.016 C 149.200 283.381,144.902 280.752,142.899 280.161 C 140.016 279.311,139.198 278.763,138.362 277.126 C 137.550 275.534,136.566 274.800,135.243 274.800 C 134.798 274.800,133.751 274.084,132.917 273.209 C 131.300 271.514,129.719 269.920,127.255 267.503 C 126.415 266.680,125.515 265.293,125.254 264.423 C 124.910 263.275,124.315 262.528,123.090 261.707 C 121.628 260.727,121.262 260.172,120.379 257.587 C 119.087 253.809,117.874 251.479,116.709 250.538 C 114.793 248.989,113.297 241.393,112.414 228.728 C 111.813 220.106,114.387 199.200,116.050 199.200 C 116.787 199.200,119.575 194.863,120.036 193.000 C 120.630 190.603,121.309 189.470,123.300 187.562 C 124.125 186.771,124.800 185.747,124.800 185.287 C 124.800 184.461,127.910 179.200,128.399 179.200 C 128.537 179.200,129.124 179.695,129.704 180.300 " stroke="none" fill="#fcd484" fill-rule="evenodd"></path></g></svg>