<svg id="svg" version="1.1" xmlns="http://www.w3.org/2000/svg" xmlns:xlink="http://www.w3.org/1999/xlink" width="400" height="400" viewBox="0, 0, 400,400"><g id="svgg"><path id="path0" d="M249.766 109.916 C 246.961 110.031,246.926 110.046,246.263 111.437 C 245.609 112.808,243.124 114.370,241.562 114.391 C 240.702 114.403,239.600 115.678,239.600 116.660 C 239.600 118.535,238.261 121.185,236.178 123.434 C 234.771 124.953,233.838 126.373,233.574 127.400 C 232.614 131.131,231.675 132.358,229.162 133.161 C 227.692 133.631,227.190 134.304,226.416 136.841 C 225.930 138.436,224.820 139.610,223.000 140.452 C 221.867 140.976,221.772 141.207,221.297 144.550 C 220.559 149.744,219.046 152.000,216.302 152.000 C 215.456 152.000,214.604 153.170,214.059 155.079 C 213.512 157.000,211.980 158.400,210.426 158.400 C 209.035 158.400,208.404 159.074,208.383 160.580 C 208.359 162.352,207.252 164.121,205.200 165.669 C 203.483 166.964,203.357 167.200,202.482 170.770 C 201.480 174.856,200.757 175.809,198.033 176.634 C 197.173 176.895,196.423 177.455,196.156 178.034 C 194.327 182.017,194.179 182.210,192.200 183.200 L 190.200 184.200 189.938 187.800 C 189.554 193.071,188.854 194.334,185.726 195.393 C 184.843 195.693,184.013 196.309,183.756 196.855 C 181.670 201.301,182.001 200.958,178.000 202.807 C 177.564 203.009,177.321 204.094,177.112 206.786 C 176.744 211.520,175.991 213.121,173.600 214.250 C 172.127 214.946,171.582 215.528,170.600 217.450 C 169.531 219.543,169.196 219.868,167.540 220.417 C 165.209 221.192,164.400 221.854,164.400 222.990 C 164.400 224.275,162.766 226.514,161.385 227.121 C 159.010 228.165,159.012 228.161,158.676 231.439 C 158.148 236.594,158.027 237.064,156.961 238.130 C 156.400 238.690,155.370 239.271,154.671 239.419 C 152.843 239.807,152.119 240.612,151.823 242.583 C 151.534 244.510,149.753 247.464,147.979 248.956 C 147.137 249.665,146.604 250.716,146.022 252.819 C 144.855 257.031,144.483 257.463,141.101 258.550 C 140.716 258.673,139.966 259.758,139.435 260.959 C 138.503 263.066,136.970 264.400,135.482 264.400 C 134.242 264.400,133.540 265.912,133.221 269.266 C 132.808 273.615,132.321 274.568,129.895 275.777 C 127.825 276.809,126.834 277.782,126.813 278.806 C 126.782 280.291,125.259 282.234,123.371 283.200 C 121.518 284.147,121.381 284.331,120.771 286.673 C 120.417 288.033,119.833 289.595,119.475 290.142 L 118.822 291.138 120.831 291.569 C 123.506 292.143,152.958 292.158,154.026 291.586 C 154.679 291.237,154.803 290.719,154.818 288.286 C 154.845 283.797,155.913 281.502,158.559 280.246 C 159.831 279.642,160.247 279.053,161.217 276.479 C 161.698 275.203,163.983 273.600,165.322 273.600 C 166.134 273.600,167.072 272.382,167.381 270.929 C 167.734 269.264,169.337 267.702,171.207 267.198 C 173.344 266.623,173.508 266.261,173.662 261.790 C 173.825 257.067,174.443 255.860,177.231 254.831 C 178.722 254.280,179.080 253.922,179.631 252.429 C 180.451 250.210,181.675 248.933,183.314 248.584 C 185.297 248.163,186.000 247.319,186.000 245.358 C 186.000 240.921,187.277 238.189,190.001 236.800 C 191.258 236.158,191.572 235.750,191.787 234.477 C 192.174 232.185,193.409 230.434,195.109 229.766 C 197.542 228.811,197.702 228.649,198.433 226.407 C 198.957 224.801,199.695 223.719,201.361 222.118 C 203.416 220.144,203.654 219.723,204.423 216.708 C 205.527 212.388,205.728 212.075,208.074 211.040 C 209.791 210.282,210.231 209.842,211.139 207.977 C 212.077 206.052,212.415 205.729,214.060 205.183 C 216.539 204.359,217.199 203.745,217.206 202.251 C 217.225 198.448,219.017 194.502,221.155 193.556 C 222.276 193.059,223.268 191.591,223.825 189.600 C 224.314 187.853,225.560 186.472,226.905 186.186 C 228.792 185.785,229.600 184.902,229.602 183.238 C 229.610 178.599,231.013 175.133,233.096 174.613 C 234.668 174.221,235.542 173.302,236.015 171.543 C 236.568 169.490,237.864 168.081,239.800 167.427 C 241.229 166.944,241.474 166.662,242.092 164.784 C 242.937 162.215,243.663 161.370,245.548 160.763 C 247.844 160.024,248.000 159.763,248.002 156.651 C 248.006 151.733,249.312 149.179,252.129 148.581 C 253.635 148.261,254.799 147.327,254.801 146.438 C 254.805 144.988,256.444 143.136,258.549 142.206 L 260.677 141.264 260.914 137.611 C 261.198 133.223,261.909 131.760,264.360 130.517 C 266.341 129.512,266.978 128.750,267.379 126.905 C 267.688 125.488,269.169 124.215,271.024 123.773 C 272.589 123.400,273.600 122.472,273.600 121.409 C 273.600 120.134,274.815 116.668,275.438 116.164 C 276.149 115.590,275.730 111.829,274.841 110.802 C 274.203 110.066,259.122 109.533,249.766 109.916 M125.629 110.771 C 124.497 111.903,124.475 115.446,125.589 117.277 C 126.022 117.990,126.496 119.369,126.642 120.340 C 126.926 122.233,127.960 123.600,129.107 123.600 C 130.449 123.600,132.717 125.509,133.017 126.892 C 133.421 128.746,134.054 129.509,136.026 130.517 C 138.630 131.848,139.219 132.938,139.743 137.383 L 140.200 141.259 142.328 141.977 C 144.969 142.869,145.196 143.097,145.795 145.457 C 146.338 147.594,146.591 147.793,149.362 148.266 C 152.118 148.735,152.763 149.736,153.067 154.013 L 153.308 157.400 156.554 157.381 C 162.617 157.347,175.984 149.368,176.574 145.432 C 177.234 141.031,177.206 140.800,176.006 140.800 C 174.031 140.800,173.122 139.654,172.846 136.815 L 172.600 134.286 170.722 133.810 C 167.385 132.965,167.061 132.405,166.372 126.278 L 165.901 122.097 164.372 121.639 C 162.548 121.092,161.317 119.657,160.960 117.659 C 160.610 115.705,159.878 114.956,157.565 114.188 C 155.789 113.599,153.938 112.014,153.505 110.715 C 153.164 109.690,126.656 109.744,125.629 110.771 " stroke="none" fill="#f0f0f1" fill-rule="evenodd"></path><path id="path1" d="M221.038 213.563 C 219.593 217.713,218.788 218.927,216.736 220.053 C 215.528 220.716,214.696 221.581,214.000 222.899 C 213.219 224.378,212.507 225.057,210.752 225.992 L 208.504 227.191 208.022 230.896 C 207.464 235.179,207.910 236.912,209.944 238.360 C 211.301 239.326,212.672 242.030,213.047 244.478 C 213.448 247.095,214.243 248.311,216.432 249.657 C 217.780 250.487,218.691 251.423,219.241 252.543 C 219.688 253.454,221.139 255.193,222.466 256.408 L 224.877 258.616 225.084 262.208 L 225.291 265.800 227.705 268.096 C 229.033 269.358,230.679 271.246,231.363 272.292 C 232.047 273.337,233.145 274.442,233.803 274.748 C 235.809 275.679,236.728 276.796,237.800 279.601 C 238.365 281.079,239.407 282.988,240.116 283.844 C 241.612 285.650,242.903 287.977,243.576 290.080 C 244.887 294.182,246.191 294.418,266.400 294.199 C 279.696 294.055,280.416 293.978,283.700 292.371 C 285.876 291.305,285.980 290.974,284.561 289.627 C 283.997 289.092,282.829 287.248,281.965 285.530 C 280.813 283.240,279.995 282.152,278.897 281.451 C 276.748 280.079,275.749 278.846,275.154 276.831 C 274.810 275.665,274.047 274.522,272.918 273.482 C 271.516 272.190,271.020 271.320,270.197 268.716 C 268.842 264.424,268.712 264.229,266.087 262.492 C 264.751 261.608,263.279 260.184,262.547 259.066 C 261.858 258.014,260.508 256.399,259.547 255.477 C 258.314 254.294,257.448 252.917,256.604 250.800 C 255.729 248.603,254.896 247.305,253.494 245.950 C 252.442 244.933,251.062 243.031,250.428 241.723 C 249.795 240.416,248.627 238.818,247.832 238.173 C 243.923 234.999,244.022 235.135,243.055 231.591 C 242.015 227.776,241.393 226.400,240.707 226.400 C 239.906 226.400,237.236 224.345,236.977 223.528 C 236.636 222.453,234.431 220.000,233.805 220.000 C 233.193 220.000,230.400 216.995,230.400 216.337 C 230.400 215.164,228.406 213.303,226.890 213.061 C 226.036 212.924,224.612 212.287,223.725 211.644 L 222.112 210.476 221.038 213.563 M253.606 255.300 C 253.615 258.333,254.586 259.200,257.970 259.200 L 259.489 259.200 259.735 261.279 C 260.043 263.883,260.817 264.672,263.573 265.195 C 266.288 265.710,266.030 265.323,266.649 269.799 C 267.333 274.741,268.694 276.793,271.291 276.799 C 272.194 276.800,273.058 278.203,273.386 280.200 C 273.736 282.322,274.723 283.441,276.722 283.979 C 278.203 284.378,278.392 284.572,278.605 285.911 C 278.735 286.730,279.022 288.193,279.243 289.163 C 279.552 290.524,279.524 291.001,279.122 291.257 C 278.523 291.636,251.422 291.725,248.731 291.356 L 246.950 291.112 246.106 286.533 C 245.126 281.217,244.590 280.209,242.393 279.551 C 240.666 279.033,240.583 278.873,240.264 275.424 C 240.037 272.971,239.331 272.400,236.524 272.400 C 234.512 272.400,234.400 272.346,234.400 271.376 C 234.400 270.674,234.557 270.441,234.900 270.635 C 235.300 270.861,235.300 270.810,234.900 270.379 C 234.619 270.076,234.400 268.822,234.400 267.520 C 234.400 265.928,234.557 265.202,234.900 265.205 C 236.167 265.219,237.147 265.747,237.370 266.537 C 237.598 267.348,237.646 267.357,238.154 266.696 C 238.635 266.069,238.751 266.059,239.200 266.600 C 239.612 267.097,239.819 267.116,240.315 266.705 C 240.649 266.427,241.006 266.256,241.107 266.323 C 241.435 266.544,242.400 264.335,242.400 263.362 C 242.400 260.859,244.334 258.400,246.302 258.400 C 246.600 258.400,247.878 257.347,249.141 256.061 C 252.678 252.457,253.597 252.300,253.606 255.300 " stroke="none" fill="#5a57d4" fill-rule="evenodd"></path><path id="path2" d="M120.331 107.494 C 118.537 108.968,118.373 109.239,118.576 110.400 C 118.672 110.950,118.869 112.475,119.015 113.789 C 119.265 116.040,119.412 116.307,121.564 118.389 C 123.602 120.362,124.162 121.239,124.943 123.682 C 125.063 124.057,125.935 124.752,126.881 125.227 C 129.339 126.461,130.349 127.519,130.838 129.374 C 131.140 130.517,131.907 131.600,133.420 133.019 C 135.395 134.872,135.628 135.283,136.258 138.019 C 137.015 141.307,138.096 143.105,139.847 143.992 C 141.394 144.775,142.130 145.550,143.603 147.942 C 144.285 149.052,145.176 150.065,145.581 150.194 C 145.987 150.323,147.057 150.963,147.959 151.617 L 149.600 152.805 149.600 156.041 C 149.600 159.697,150.266 161.108,152.532 162.253 C 154.344 163.168,155.498 164.305,157.027 166.681 C 157.763 167.825,158.868 169.023,159.483 169.343 C 161.093 170.180,162.166 171.527,162.977 173.728 C 163.368 174.788,164.658 176.858,165.845 178.328 C 167.138 179.929,168.276 181.854,168.684 183.131 C 169.841 186.747,171.390 187.756,175.367 187.484 C 178.859 187.244,178.887 187.226,181.950 183.201 C 183.410 181.283,184.496 180.704,185.746 181.179 L 186.800 181.580 186.800 186.395 L 186.800 191.210 184.639 192.592 C 182.463 193.984,180.800 195.710,180.800 196.575 C 180.800 197.189,178.584 199.245,176.735 200.348 C 174.904 201.440,174.400 202.830,174.400 206.785 C 174.400 210.078,173.588 211.491,171.300 212.182 C 170.386 212.458,168.400 214.728,168.400 215.496 C 168.400 215.990,165.744 218.400,165.200 218.400 C 164.592 218.400,162.000 220.839,162.000 221.411 C 162.000 222.187,160.104 224.306,158.886 224.892 C 156.834 225.879,156.000 227.754,156.000 231.381 C 156.000 234.654,154.659 237.200,152.935 237.200 C 152.068 237.200,150.445 238.856,149.267 240.942 C 148.601 242.123,147.300 243.687,146.377 244.419 C 144.427 245.963,143.867 247.137,143.220 251.035 C 142.722 254.035,142.187 254.851,139.631 256.511 C 138.877 257.000,137.694 258.210,137.002 259.200 C 136.309 260.190,134.995 261.416,134.081 261.925 C 131.813 263.187,131.043 264.425,130.053 268.400 C 129.204 271.813,128.995 272.135,126.252 274.289 C 125.523 274.862,124.984 275.785,124.737 276.883 C 124.287 278.886,123.538 279.811,121.538 280.831 C 119.904 281.665,118.599 283.151,117.782 285.104 C 117.483 285.822,116.329 287.369,115.219 288.543 C 112.869 291.027,112.857 291.093,114.472 292.371 C 117.036 294.401,118.490 294.555,136.481 294.703 C 157.114 294.873,156.922 294.936,158.064 287.663 C 158.570 284.441,158.642 284.290,160.170 283.263 C 161.294 282.507,162.135 281.420,163.078 279.502 C 164.233 277.153,164.691 276.643,166.618 275.555 C 168.111 274.712,169.073 273.833,169.573 272.853 C 170.426 271.182,171.269 270.365,173.096 269.440 C 175.139 268.405,176.000 266.265,176.000 262.219 L 176.000 258.807 178.202 257.564 C 180.435 256.304,181.249 255.480,182.488 253.228 C 182.867 252.539,183.762 251.667,184.478 251.288 C 187.028 249.939,188.226 248.373,189.188 245.129 C 189.845 242.915,190.529 241.575,191.640 240.329 C 192.488 239.378,193.475 237.790,193.833 236.800 C 194.986 233.615,195.331 233.159,197.581 231.844 C 199.331 230.822,200.069 230.056,201.116 228.176 C 202.614 225.487,203.343 224.800,204.697 224.800 C 205.926 224.800,206.572 223.243,207.146 218.899 C 207.632 215.231,208.289 213.909,209.973 213.211 C 211.364 212.635,213.012 210.923,213.396 209.656 C 213.594 209.000,214.439 208.369,216.168 207.586 C 219.092 206.260,219.369 205.972,220.003 203.600 C 220.662 201.135,221.452 199.682,223.156 197.800 C 224.259 196.583,224.737 195.578,225.156 193.600 C 225.717 190.952,227.465 188.400,228.718 188.400 C 230.080 188.400,231.893 185.793,232.956 182.306 C 233.856 179.356,234.284 178.578,235.776 177.179 C 236.833 176.188,237.883 174.674,238.407 173.384 C 239.076 171.735,239.777 170.860,241.433 169.610 C 242.618 168.715,243.882 167.402,244.241 166.691 C 245.144 164.904,246.354 163.659,247.902 162.925 C 250.088 161.888,250.756 160.532,251.047 156.547 C 251.332 152.647,251.675 151.987,254.050 150.775 C 255.708 149.929,257.229 148.261,257.966 146.481 C 258.251 145.793,259.027 144.993,259.737 144.656 C 262.135 143.516,263.226 141.924,264.058 138.351 C 264.783 135.241,264.963 134.912,266.981 133.018 C 268.517 131.578,269.259 130.522,269.574 129.329 C 270.040 127.565,271.456 126.088,273.490 125.245 C 274.333 124.896,274.969 124.139,275.643 122.681 C 276.195 121.488,277.578 119.675,278.910 118.398 L 281.221 116.183 281.528 112.681 C 281.867 108.808,281.927 109.020,280.069 107.494 L 278.739 106.400 262.507 106.400 L 246.275 106.400 243.600 109.200 C 242.129 110.740,240.731 112.000,240.493 112.000 C 239.608 112.000,237.583 114.123,236.817 115.854 C 236.382 116.839,235.054 118.580,233.868 119.723 C 231.856 121.660,231.663 122.015,230.998 125.000 C 230.250 128.359,230.044 128.648,226.212 131.739 C 225.436 132.366,224.800 133.148,224.800 133.478 C 224.800 134.665,223.363 136.475,221.518 137.611 C 219.028 139.145,218.400 140.453,218.400 144.105 C 218.400 147.362,217.730 148.433,214.760 149.925 C 214.021 150.296,213.020 151.230,212.536 152.000 C 211.292 153.981,209.586 156.000,209.157 156.000 C 208.524 156.000,206.344 158.152,205.713 159.400 C 205.379 160.060,203.978 161.680,202.600 163.000 L 200.094 165.400 199.656 169.000 C 199.191 172.820,197.953 174.800,196.029 174.800 C 195.212 174.800,194.071 176.069,192.246 179.010 C 191.140 180.792,191.033 180.858,189.646 180.609 C 186.046 179.963,186.501 172.191,190.290 169.594 C 192.783 167.886,193.540 166.263,193.653 162.383 L 193.753 158.966 192.219 157.583 C 191.375 156.822,190.171 155.660,189.544 155.000 C 187.632 152.989,184.683 150.080,183.100 148.644 L 181.600 147.282 181.600 143.895 C 181.600 140.158,181.047 138.962,178.777 137.788 C 177.271 137.010,175.752 135.347,175.151 133.821 C 174.585 132.383,173.251 130.800,172.605 130.800 C 171.203 130.800,170.048 128.600,169.770 125.400 C 169.435 121.547,168.863 120.303,166.844 119.028 C 165.297 118.051,164.285 116.936,162.677 114.435 C 162.195 113.684,161.080 112.701,160.200 112.250 C 159.320 111.800,158.150 110.903,157.600 110.258 C 157.050 109.612,155.977 108.480,155.217 107.742 L 153.833 106.400 137.747 106.400 L 121.661 106.400 120.331 107.494 M274.841 110.802 C 275.730 111.829,276.149 115.590,275.438 116.164 C 274.815 116.668,273.600 120.134,273.600 121.409 C 273.600 122.472,272.589 123.400,271.024 123.773 C 269.169 124.215,267.688 125.488,267.379 126.905 C 266.978 128.750,266.341 129.512,264.360 130.517 C 261.909 131.760,261.198 133.223,260.914 137.611 L 260.677 141.264 258.549 142.206 C 256.444 143.136,254.805 144.988,254.801 146.438 C 254.799 147.327,253.635 148.261,252.129 148.581 C 249.312 149.179,248.006 151.733,248.002 156.651 C 248.000 159.763,247.844 160.024,245.548 160.763 C 243.663 161.370,242.937 162.215,242.092 164.784 C 241.474 166.662,241.229 166.944,239.800 167.427 C 237.864 168.081,236.568 169.490,236.015 171.543 C 235.542 173.302,234.668 174.221,233.096 174.613 C 231.013 175.133,229.610 178.599,229.602 183.238 C 229.600 184.902,228.792 185.785,226.905 186.186 C 225.560 186.472,224.314 187.853,223.825 189.600 C 223.268 191.591,222.276 193.059,221.155 193.556 C 219.017 194.502,217.225 198.448,217.206 202.251 C 217.199 203.745,216.539 204.359,214.060 205.183 C 212.415 205.729,212.077 206.052,211.139 207.977 C 210.231 209.842,209.791 210.282,208.074 211.040 C 205.728 212.075,205.527 212.388,204.423 216.708 C 203.654 219.723,203.416 220.144,201.361 222.118 C 199.695 223.719,198.957 224.801,198.433 226.407 C 197.702 228.649,197.542 228.811,195.109 229.766 C 193.409 230.434,192.174 232.185,191.787 234.477 C 191.572 235.750,191.258 236.158,190.001 236.800 C 187.277 238.189,186.000 240.921,186.000 245.358 C 186.000 247.319,185.297 248.163,183.314 248.584 C 181.675 248.933,180.451 250.210,179.631 252.429 C 179.080 253.922,178.722 254.280,177.231 254.831 C 174.443 255.860,173.825 257.067,173.662 261.790 C 173.508 266.261,173.344 266.623,171.207 267.198 C 169.337 267.702,167.734 269.264,167.381 270.929 C 167.072 272.382,166.134 273.600,165.322 273.600 C 163.983 273.600,161.698 275.203,161.217 276.479 C 160.247 279.053,159.831 279.642,158.559 280.246 C 155.913 281.502,154.845 283.797,154.818 288.286 C 154.803 290.719,154.679 291.237,154.026 291.586 C 152.958 292.158,123.506 292.143,120.831 291.569 L 118.822 291.138 119.475 290.142 C 119.833 289.595,120.417 288.033,120.771 286.673 C 121.381 284.331,121.518 284.147,123.371 283.200 C 125.259 282.234,126.782 280.291,126.813 278.806 C 126.834 277.782,127.825 276.809,129.895 275.777 C 132.321 274.568,132.808 273.615,133.221 269.266 C 133.540 265.912,134.242 264.400,135.482 264.400 C 136.970 264.400,138.503 263.066,139.435 260.959 C 139.966 259.758,140.716 258.673,141.101 258.550 C 144.483 257.463,144.855 257.031,146.022 252.819 C 146.604 250.716,147.137 249.665,147.979 248.956 C 149.753 247.464,151.534 244.510,151.823 242.583 C 152.119 240.612,152.843 239.807,154.671 239.419 C 155.370 239.271,156.400 238.690,156.961 238.130 C 158.027 237.064,158.148 236.594,158.676 231.439 C 159.012 228.161,159.010 228.165,161.385 227.121 C 162.766 226.514,164.400 224.275,164.400 222.990 C 164.400 221.854,165.209 221.192,167.540 220.417 C 169.196 219.868,169.531 219.543,170.600 217.450 C 171.582 215.528,172.127 214.946,173.600 214.250 C 175.991 213.121,176.744 211.520,177.112 206.786 C 177.321 204.094,177.564 203.009,178.000 202.807 C 181.408 201.232,181.842 200.907,182.556 199.399 C 182.972 198.520,183.513 197.375,183.756 196.855 C 184.013 196.309,184.843 195.693,185.726 195.393 C 188.854 194.334,189.554 193.071,189.938 187.800 L 190.200 184.200 192.200 183.200 C 194.179 182.210,194.327 182.017,196.156 178.034 C 196.423 177.455,197.173 176.895,198.033 176.634 C 200.757 175.809,201.480 174.856,202.482 170.770 C 203.357 167.200,203.483 166.964,205.200 165.669 C 207.252 164.121,208.359 162.352,208.383 160.580 C 208.404 159.074,209.035 158.400,210.426 158.400 C 211.980 158.400,213.512 157.000,214.059 155.079 C 214.604 153.170,215.456 152.000,216.302 152.000 C 219.046 152.000,220.559 149.744,221.297 144.550 C 221.772 141.207,221.867 140.976,223.000 140.452 C 224.820 139.610,225.930 138.436,226.416 136.841 C 227.190 134.304,227.692 133.631,229.162 133.161 C 231.675 132.358,232.614 131.131,233.574 127.400 C 233.838 126.373,234.771 124.953,236.178 123.434 C 238.261 121.185,239.600 118.535,239.600 116.660 C 239.600 115.678,240.702 114.403,241.562 114.391 C 243.124 114.370,245.609 112.808,246.263 111.437 C 247.077 109.731,247.056 109.733,263.400 109.931 C 273.318 110.051,274.252 110.123,274.841 110.802 M153.505 110.715 C 153.938 112.014,155.789 113.599,157.565 114.188 C 159.878 114.956,160.610 115.705,160.960 117.659 C 161.317 119.657,162.548 121.092,164.372 121.639 L 165.901 122.097 166.372 126.278 C 167.061 132.405,167.385 132.965,170.722 133.810 L 172.600 134.286 172.846 136.815 C 173.122 139.654,174.031 140.800,176.006 140.800 C 177.206 140.800,177.234 141.031,176.574 145.432 C 175.984 149.368,162.617 157.347,156.554 157.381 L 153.308 157.400 153.067 154.013 C 152.763 149.736,152.118 148.735,149.362 148.266 C 146.591 147.793,146.338 147.594,145.795 145.457 C 145.196 143.097,144.969 142.869,142.328 141.977 L 140.200 141.259 139.743 137.383 C 139.219 132.938,138.630 131.848,136.026 130.517 C 134.054 129.509,133.421 128.746,133.017 126.892 C 132.717 125.509,130.449 123.600,129.107 123.600 C 127.960 123.600,126.926 122.233,126.642 120.340 C 126.496 119.369,126.022 117.990,125.589 117.277 C 124.475 115.446,124.497 111.903,125.629 110.771 C 126.656 109.744,153.164 109.690,153.505 110.715 " stroke="none" fill="#acb4b4" fill-rule="evenodd"></path><path id="path3" d="M252.018 253.492 C 251.699 253.618,250.404 254.774,249.141 256.061 C 247.878 257.347,246.600 258.400,246.302 258.400 C 244.334 258.400,242.400 260.859,242.400 263.362 C 242.400 264.335,241.435 266.544,241.107 266.323 C 241.006 266.256,240.649 266.427,240.315 266.705 C 239.819 267.116,239.612 267.097,239.200 266.600 C 238.751 266.059,238.635 266.069,238.154 266.696 C 237.646 267.357,237.598 267.348,237.370 266.537 C 237.147 265.747,236.167 265.219,234.900 265.205 C 234.557 265.202,234.400 265.928,234.400 267.520 C 234.400 268.822,234.619 270.076,234.900 270.379 C 235.300 270.810,235.300 270.861,234.900 270.635 C 234.557 270.441,234.400 270.674,234.400 271.376 C 234.400 272.346,234.512 272.400,236.524 272.400 C 239.331 272.400,240.037 272.971,240.264 275.424 C 240.583 278.873,240.666 279.033,242.393 279.551 C 244.590 280.209,245.126 281.217,246.106 286.533 L 246.950 291.112 248.731 291.356 C 251.422 291.725,278.523 291.636,279.122 291.257 C 279.524 291.001,279.552 290.524,279.243 289.163 C 279.022 288.193,278.735 286.730,278.605 285.911 C 278.392 284.572,278.203 284.378,276.722 283.979 C 274.723 283.441,273.736 282.322,273.386 280.200 C 273.058 278.203,272.194 276.800,271.291 276.799 C 268.694 276.793,267.333 274.741,266.649 269.799 C 266.030 265.323,266.288 265.710,263.573 265.195 C 260.817 264.672,260.043 263.883,259.735 261.279 L 259.489 259.200 257.970 259.200 C 254.586 259.200,253.615 258.333,253.606 255.300 C 253.600 253.192,253.389 252.952,252.018 253.492 " stroke="none" fill="#6c6cec" fill-rule="evenodd"></path><path id="path4" d="M0.000 200.000 L 0.000 400.000 200.000 400.000 L 400.000 400.000 400.000 200.000 L 400.000 0.000 200.000 0.000 L 0.000 0.000 0.000 200.000 M155.217 107.742 C 155.977 108.480,157.050 109.612,157.600 110.258 C 158.150 110.903,159.320 111.800,160.200 112.250 C 161.080 112.701,162.195 113.684,162.677 114.435 C 164.285 116.936,165.297 118.051,166.844 119.028 C 168.863 120.303,169.435 121.547,169.770 125.400 C 170.048 128.600,171.203 130.800,172.605 130.800 C 173.251 130.800,174.585 132.383,175.151 133.821 C 175.752 135.347,177.271 137.010,178.777 137.788 C 181.047 138.962,181.600 140.158,181.600 143.895 L 181.600 147.282 183.100 148.644 C 184.683 150.080,187.632 152.989,189.544 155.000 C 190.171 155.660,191.375 156.822,192.219 157.583 L 193.753 158.966 193.653 162.383 C 193.540 166.263,192.783 167.886,190.290 169.594 C 187.869 171.253,186.202 177.747,187.697 179.695 C 188.950 181.327,191.000 181.018,192.246 179.010 C 194.071 176.069,195.212 174.800,196.029 174.800 C 197.953 174.800,199.191 172.820,199.656 169.000 L 200.094 165.400 202.600 163.000 C 203.978 161.680,205.379 160.060,205.713 159.400 C 206.344 158.152,208.524 156.000,209.157 156.000 C 209.586 156.000,211.292 153.981,212.536 152.000 C 213.020 151.230,214.021 150.296,214.760 149.925 C 217.730 148.433,218.400 147.362,218.400 144.105 C 218.400 140.453,219.028 139.145,221.518 137.611 C 223.363 136.475,224.800 134.665,224.800 133.478 C 224.800 133.148,225.436 132.366,226.212 131.739 C 230.044 128.648,230.250 128.359,230.998 125.000 C 231.663 122.015,231.856 121.660,233.868 119.723 C 235.054 118.580,236.382 116.839,236.817 115.854 C 237.583 114.123,239.608 112.000,240.493 112.000 C 240.731 112.000,242.129 110.740,243.600 109.200 L 246.275 106.400 262.507 106.400 L 278.739 106.400 280.069 107.494 C 281.927 109.020,281.867 108.808,281.528 112.681 L 281.221 116.183 278.910 118.398 C 277.578 119.675,276.195 121.488,275.643 122.681 C 274.969 124.139,274.333 124.896,273.490 125.245 C 271.456 126.088,270.040 127.565,269.574 129.329 C 269.259 130.522,268.517 131.578,266.981 133.018 C 264.963 134.912,264.783 135.241,264.058 138.351 C 263.226 141.924,262.135 143.516,259.737 144.656 C 259.027 144.993,258.251 145.793,257.966 146.481 C 257.229 148.261,255.708 149.929,254.050 150.775 C 251.675 151.987,251.332 152.647,251.047 156.547 C 250.756 160.532,250.088 161.888,247.902 162.925 C 246.354 163.659,245.144 164.904,244.241 166.691 C 243.882 167.402,242.618 168.715,241.433 169.610 C 239.777 170.860,239.076 171.735,238.407 173.384 C 237.883 174.674,236.833 176.188,235.776 177.179 C 234.284 178.578,233.856 179.356,232.956 182.306 C 231.893 185.793,230.080 188.400,228.718 188.400 C 227.465 188.400,225.717 190.952,225.156 193.600 C 224.737 195.578,224.259 196.583,223.156 197.800 C 221.452 199.682,220.662 201.135,220.003 203.600 C 219.369 205.972,219.092 206.260,216.168 207.586 C 214.439 208.369,213.594 209.000,213.396 209.656 C 213.012 210.923,211.364 212.635,209.973 213.211 C 208.289 213.909,207.632 215.231,207.146 218.899 C 206.572 223.243,205.926 224.800,204.697 224.800 C 203.343 224.800,202.614 225.487,201.116 228.176 C 200.069 230.056,199.331 230.822,197.581 231.844 C 195.331 233.159,194.986 233.615,193.833 236.800 C 193.475 237.790,192.488 239.378,191.640 240.329 C 190.529 241.575,189.845 242.915,189.188 245.129 C 188.226 248.373,187.028 249.939,184.478 251.288 C 183.762 251.667,182.867 252.539,182.488 253.228 C 181.249 255.480,180.435 256.304,178.202 257.564 L 176.000 258.807 176.000 262.219 C 176.000 266.265,175.139 268.405,173.096 269.440 C 171.269 270.365,170.426 271.182,169.573 272.853 C 169.073 273.833,168.111 274.712,166.618 275.555 C 164.691 276.643,164.233 277.153,163.078 279.502 C 162.135 281.420,161.294 282.507,160.170 283.263 C 158.642 284.290,158.570 284.441,158.064 287.663 C 156.922 294.936,157.114 294.873,136.481 294.703 C 118.490 294.555,117.036 294.401,114.472 292.371 C 112.857 291.093,112.869 291.027,115.219 288.543 C 116.329 287.369,117.483 285.822,117.782 285.104 C 118.599 283.151,119.904 281.665,121.538 280.831 C 123.538 279.811,124.287 278.886,124.737 276.883 C 124.984 275.785,125.523 274.862,126.252 274.289 C 128.995 272.135,129.204 271.813,130.053 268.400 C 131.043 264.425,131.813 263.187,134.081 261.925 C 134.995 261.416,136.309 260.190,137.002 259.200 C 137.694 258.210,138.877 257.000,139.631 256.511 C 142.187 254.851,142.722 254.035,143.220 251.035 C 143.867 247.137,144.427 245.963,146.377 244.419 C 147.300 243.687,148.601 242.123,149.267 240.942 C 150.445 238.856,152.068 237.200,152.935 237.200 C 154.659 237.200,156.000 234.654,156.000 231.381 C 156.000 227.754,156.834 225.879,158.886 224.892 C 160.104 224.306,162.000 222.187,162.000 221.411 C 162.000 220.839,164.592 218.400,165.200 218.400 C 165.744 218.400,168.400 215.990,168.400 215.496 C 168.400 214.728,170.386 212.458,171.300 212.182 C 173.588 211.491,174.400 210.078,174.400 206.785 C 174.400 202.830,174.904 201.440,176.735 200.348 C 178.584 199.245,180.800 197.189,180.800 196.575 C 180.800 195.710,182.463 193.984,184.639 192.592 L 186.800 191.210 186.800 186.395 L 186.800 181.580 185.746 181.179 C 184.496 180.704,183.410 181.283,181.950 183.201 C 178.887 187.226,178.859 187.244,175.367 187.484 C 171.390 187.756,169.841 186.747,168.684 183.131 C 168.276 181.854,167.138 179.929,165.845 178.328 C 164.658 176.858,163.368 174.788,162.977 173.728 C 162.166 171.527,161.093 170.180,159.483 169.343 C 158.868 169.023,157.763 167.825,157.027 166.681 C 155.498 164.305,154.344 163.168,152.532 162.253 C 150.266 161.108,149.600 159.697,149.600 156.041 L 149.600 152.805 147.959 151.617 C 147.057 150.963,145.987 150.323,145.581 150.194 C 145.176 150.065,144.285 149.052,143.603 147.942 C 142.130 145.550,141.394 144.775,139.847 143.992 C 138.096 143.105,137.015 141.307,136.258 138.019 C 135.628 135.283,135.395 134.872,133.420 133.019 C 131.907 131.600,131.140 130.517,130.838 129.374 C 130.349 127.519,129.339 126.461,126.881 125.227 C 125.935 124.752,125.063 124.057,124.943 123.682 C 124.162 121.239,123.602 120.362,121.564 118.389 C 119.412 116.307,119.265 116.040,119.015 113.789 C 118.869 112.475,118.672 110.950,118.576 110.400 C 118.373 109.239,118.537 108.968,120.331 107.494 L 121.661 106.400 137.747 106.400 L 153.833 106.400 155.217 107.742 M226.890 213.061 C 228.406 213.303,230.400 215.164,230.400 216.337 C 230.400 216.995,233.193 220.000,233.805 220.000 C 234.431 220.000,236.636 222.453,236.977 223.528 C 237.236 224.345,239.906 226.400,240.707 226.400 C 241.393 226.400,242.015 227.776,243.055 231.591 C 244.022 235.135,243.923 234.999,247.832 238.173 C 248.627 238.818,249.795 240.416,250.428 241.723 C 251.062 243.031,252.442 244.933,253.494 245.950 C 254.896 247.305,255.729 248.603,256.604 250.800 C 257.448 252.917,258.314 254.294,259.547 255.477 C 260.508 256.399,261.858 258.014,262.547 259.066 C 263.279 260.184,264.751 261.608,266.087 262.492 C 268.712 264.229,268.842 264.424,270.197 268.716 C 271.020 271.320,271.516 272.190,272.918 273.482 C 274.047 274.522,274.810 275.665,275.154 276.831 C 275.749 278.846,276.748 280.079,278.897 281.451 C 279.995 282.152,280.813 283.240,281.965 285.530 C 282.829 287.248,283.997 289.092,284.561 289.627 C 285.980 290.974,285.876 291.305,283.700 292.371 C 280.416 293.978,279.696 294.055,266.400 294.199 C 246.191 294.418,244.887 294.182,243.576 290.080 C 242.903 287.977,241.612 285.650,240.116 283.844 C 239.407 282.988,238.365 281.079,237.800 279.601 C 236.728 276.796,235.809 275.679,233.803 274.748 C 233.145 274.442,232.047 273.337,231.363 272.292 C 230.679 271.246,229.033 269.358,227.705 268.096 L 225.291 265.800 225.084 262.208 L 224.877 258.616 222.466 256.408 C 221.139 255.193,219.688 253.454,219.241 252.543 C 218.691 251.423,217.780 250.487,216.432 249.657 C 214.243 248.311,213.448 247.095,213.047 244.478 C 212.672 242.030,211.301 239.326,209.944 238.360 C 207.910 236.912,207.464 235.179,208.022 230.896 L 208.504 227.191 210.752 225.992 C 212.507 225.057,213.219 224.378,214.000 222.899 C 214.696 221.581,215.528 220.716,216.736 220.053 C 218.788 218.927,219.593 217.713,221.038 213.563 L 222.112 210.476 223.725 211.644 C 224.612 212.287,226.036 212.924,226.890 213.061 " stroke="none" fill="#1c1c2c" fill-rule="evenodd"></path></g></svg>