<svg id="svg" version="1.1" xmlns="http://www.w3.org/2000/svg" xmlns:xlink="http://www.w3.org/1999/xlink" width="400" height="400" viewBox="0, 0, 400,400"><g id="svgg"><path id="path0" d="M235.600 94.784 C 226.922 95.013,225.169 95.407,224.579 97.267 C 223.963 99.207,215.512 100.800,205.831 100.800 L 203.161 100.800 200.393 103.552 L 197.625 106.303 194.143 106.593 C 190.259 106.917,188.722 107.647,187.274 109.856 C 186.089 111.663,184.739 112.245,181.038 112.544 C 177.771 112.809,175.477 113.931,174.912 115.542 C 174.458 116.834,173.082 117.955,170.858 118.844 C 168.144 119.929,167.243 120.473,164.491 122.690 C 163.331 123.625,161.981 124.470,161.491 124.570 C 161.001 124.669,160.150 124.847,159.600 124.966 C 158.973 125.102,157.952 126.077,156.863 127.580 C 155.855 128.970,154.313 130.477,153.191 131.168 C 152.127 131.822,150.532 133.338,149.647 134.537 C 148.178 136.525,147.772 136.804,145.002 137.736 C 142.819 138.470,141.406 139.260,139.975 140.546 C 138.880 141.531,137.133 142.734,136.092 143.219 C 135.027 143.717,132.977 145.347,131.400 146.951 C 129.860 148.518,127.970 150.267,127.200 150.838 C 125.619 152.010,124.968 153.130,124.613 155.286 C 124.453 156.262,123.620 157.686,122.182 159.440 C 120.979 160.908,119.681 163.015,119.297 164.123 C 118.883 165.320,117.989 166.719,117.093 167.569 C 116.264 168.356,114.284 170.306,112.693 171.902 C 111.102 173.498,109.591 174.803,109.336 174.802 C 108.453 174.798,106.805 177.261,106.173 179.527 C 104.930 183.989,104.710 184.440,102.993 186.049 C 100.844 188.064,100.119 189.818,99.767 193.857 C 99.428 197.744,99.290 198.013,96.600 200.000 C 93.821 202.053,93.698 202.314,93.248 207.097 C 92.722 212.684,91.781 215.885,90.162 217.600 C 87.569 220.344,87.560 220.411,87.490 237.961 L 87.426 253.836 88.512 256.056 C 89.110 257.278,89.986 258.450,90.460 258.662 C 91.851 259.282,93.568 265.001,93.586 269.069 C 93.600 272.421,94.678 274.800,96.182 274.800 C 97.080 274.800,98.786 276.416,100.167 278.575 C 101.126 280.074,102.143 281.030,103.736 281.929 C 104.992 282.638,106.540 283.957,107.282 284.952 C 108.106 286.054,109.389 287.106,110.705 287.756 C 111.925 288.359,113.124 289.314,113.559 290.028 C 114.635 291.798,115.411 292.220,119.000 292.986 C 120.760 293.361,122.519 293.757,122.910 293.864 C 123.300 293.972,124.325 295.015,125.188 296.183 C 127.151 298.841,127.748 299.034,134.400 299.158 C 139.413 299.252,148.874 299.657,160.052 300.257 C 164.037 300.472,165.184 300.385,168.052 299.652 C 175.908 297.647,178.607 297.305,187.167 297.232 C 189.238 297.214,190.854 297.120,190.757 297.023 C 190.565 296.832,182.591 296.334,180.554 296.386 C 179.155 296.422,176.505 295.381,174.053 293.834 C 173.153 293.265,171.962 292.800,171.406 292.800 C 170.851 292.800,169.725 292.440,168.904 292.000 C 168.084 291.560,167.049 291.193,166.606 291.184 C 166.002 291.173,166.113 291.033,167.049 290.625 C 168.563 289.966,169.386 288.851,170.227 286.318 C 170.642 285.070,171.098 284.393,171.532 284.379 C 182.924 284.017,184.282 283.619,186.000 280.135 C 187.180 277.743,188.801 277.046,194.200 276.612 C 199.068 276.220,201.493 275.401,203.382 273.512 C 204.594 272.301,206.036 271.493,209.136 270.292 C 212.503 268.987,213.638 268.324,215.228 266.734 C 217.022 264.940,220.071 263.200,221.420 263.200 C 222.570 263.200,224.644 261.866,225.800 260.381 C 226.460 259.534,227.920 258.380,229.045 257.818 C 230.169 257.255,232.274 255.710,233.722 254.383 C 235.274 252.961,237.420 251.488,238.947 250.795 C 240.717 249.992,241.960 249.089,242.869 247.945 C 244.486 245.909,246.134 244.192,248.007 242.591 C 248.781 241.929,249.904 240.551,250.503 239.529 C 251.103 238.506,252.183 237.305,252.903 236.860 C 254.831 235.668,255.733 234.540,257.428 231.200 C 258.265 229.550,259.655 227.390,260.517 226.400 C 261.378 225.410,262.507 223.766,263.024 222.747 C 263.542 221.728,264.699 220.314,265.595 219.604 C 267.815 217.846,268.338 216.653,268.790 212.318 C 269.293 207.502,270.068 204.942,272.235 200.938 L 274.000 197.677 274.000 191.412 C 274.000 184.648,274.054 184.867,271.395 180.800 C 269.931 178.560,269.603 177.646,269.030 174.200 C 268.358 170.162,266.461 165.200,265.590 165.200 C 264.413 165.200,262.894 167.468,262.627 169.621 C 262.141 173.550,261.926 174.113,260.205 175.967 C 258.437 177.871,257.858 179.492,256.804 185.499 C 256.104 189.487,255.400 191.000,253.376 192.864 C 252.128 194.013,251.058 195.546,250.212 197.400 C 249.291 199.416,248.418 200.621,247.093 201.705 C 245.944 202.645,244.864 204.033,244.216 205.403 C 242.883 208.221,241.691 209.965,240.098 211.428 C 239.396 212.073,238.232 213.659,237.511 214.954 C 236.382 216.980,235.811 217.525,233.400 218.875 C 231.860 219.737,229.981 221.087,229.224 221.874 C 227.711 223.450,225.155 224.777,223.600 224.793 C 222.140 224.808,220.168 226.152,219.062 227.886 C 217.524 230.296,216.422 231.009,212.800 231.938 C 210.490 232.530,209.208 233.078,208.800 233.648 C 206.630 236.682,204.856 237.583,200.479 237.872 C 196.561 238.131,195.556 238.590,192.872 241.349 L 191.145 243.125 186.472 243.393 C 183.903 243.541,179.820 243.826,177.400 244.027 C 166.536 244.931,164.518 244.535,161.400 240.887 C 160.680 240.044,158.908 238.866,156.968 237.940 C 155.190 237.091,153.341 235.976,152.859 235.463 L 151.982 234.529 153.183 231.963 C 154.768 228.575,155.250 225.996,155.390 220.163 C 155.524 214.608,156.195 212.511,158.439 210.637 C 160.333 209.056,160.486 208.687,160.834 204.864 C 161.004 203.005,161.299 201.374,161.490 201.241 C 161.682 201.109,162.247 200.415,162.747 199.700 C 163.246 198.985,163.867 198.396,164.127 198.391 C 166.083 198.354,166.380 197.332,166.556 190.044 C 166.812 179.392,166.668 178.767,163.227 175.593 C 160.250 172.848,159.906 172.211,161.182 171.806 C 162.388 171.423,163.934 169.345,164.399 167.482 C 164.630 166.557,164.994 165.487,165.209 165.105 C 165.424 164.723,165.600 164.053,165.600 163.616 C 165.600 163.132,166.082 162.571,166.830 162.185 C 167.506 161.835,168.235 161.065,168.450 160.474 C 168.664 159.883,169.416 159.037,170.120 158.593 C 171.213 157.904,171.449 157.458,171.737 155.548 L 172.074 153.311 174.180 152.839 C 176.834 152.245,179.262 150.480,180.158 148.493 C 180.682 147.330,181.498 146.571,183.506 145.378 C 184.966 144.510,186.889 143.044,187.780 142.121 C 188.671 141.197,190.390 140.001,191.600 139.464 C 193.957 138.417,195.125 137.354,196.149 135.328 C 196.502 134.629,197.108 133.970,197.496 133.865 C 197.883 133.760,199.506 133.367,201.101 132.993 C 204.491 132.199,205.488 131.508,207.400 128.626 C 208.934 126.316,209.667 126.014,213.765 126.004 C 216.657 125.998,219.949 124.860,222.059 123.138 C 225.245 120.539,226.369 120.087,232.353 119.006 C 239.159 117.776,240.221 117.379,242.319 115.281 C 243.192 114.408,244.513 113.494,245.254 113.251 C 247.250 112.597,279.389 111.250,284.000 111.627 C 286.090 111.798,289.960 112.051,292.600 112.190 C 303.924 112.785,305.328 113.171,306.749 116.079 C 308.393 119.444,309.259 120.197,310.652 119.477 C 313.441 118.034,313.048 116.386,309.167 113.247 C 307.975 112.283,306.615 110.872,306.144 110.112 C 305.570 109.185,304.450 108.313,302.744 107.465 C 300.562 106.380,300.038 105.898,299.061 104.075 C 297.639 101.422,297.471 101.364,290.324 101.084 C 283.562 100.820,283.344 100.742,280.400 97.551 L 278.200 95.166 268.800 94.793 C 259.136 94.409,249.930 94.407,235.600 94.784 M321.378 128.035 C 321.231 128.274,321.302 128.662,321.538 128.898 C 322.037 129.397,323.336 128.543,322.972 127.955 C 322.668 127.462,321.702 127.511,321.378 128.035 " stroke="none" fill="#5985de" fill-rule="evenodd"></path><path id="path1" d="M262.200 112.018 C 245.372 112.834,244.648 112.952,242.342 115.258 C 240.220 117.380,239.172 117.774,232.353 119.006 C 226.369 120.087,225.245 120.539,222.059 123.138 C 219.949 124.860,216.657 125.998,213.765 126.004 C 209.667 126.014,208.934 126.316,207.400 128.626 C 205.488 131.508,204.491 132.199,201.101 132.993 C 199.506 133.367,197.883 133.760,197.496 133.865 C 197.108 133.970,196.502 134.629,196.149 135.328 C 195.125 137.354,193.957 138.417,191.600 139.464 C 190.390 140.001,188.671 141.197,187.780 142.121 C 186.889 143.044,184.966 144.510,183.506 145.378 C 181.498 146.571,180.682 147.330,180.158 148.493 C 179.262 150.480,176.834 152.245,174.180 152.839 L 172.074 153.311 171.737 155.548 C 171.449 157.458,171.213 157.904,170.120 158.593 C 169.416 159.037,168.664 159.883,168.450 160.474 C 168.235 161.065,167.506 161.835,166.830 162.185 C 166.082 162.571,165.600 163.132,165.600 163.616 C 165.600 164.053,165.424 164.723,165.209 165.105 C 164.994 165.487,164.630 166.557,164.399 167.482 C 163.934 169.345,162.388 171.423,161.182 171.806 C 159.906 172.211,160.250 172.848,163.227 175.593 C 166.668 178.767,166.812 179.392,166.556 190.044 C 166.380 197.332,166.083 198.354,164.127 198.391 C 163.867 198.396,163.246 198.985,162.747 199.700 C 162.247 200.415,161.685 201.107,161.497 201.237 C 161.309 201.368,161.080 202.538,160.988 203.837 C 160.827 206.124,160.833 206.144,161.199 204.448 C 161.680 202.214,162.550 200.896,164.093 200.062 C 166.322 198.858,167.904 197.237,168.157 195.897 C 168.509 194.036,169.835 192.043,171.021 191.592 C 172.106 191.180,173.594 188.328,174.508 184.913 C 174.990 183.110,175.596 182.449,178.400 180.664 C 179.170 180.174,180.380 178.888,181.090 177.807 C 182.627 175.463,183.230 175.114,187.389 174.156 C 189.143 173.752,190.811 173.147,191.096 172.811 C 191.381 172.475,192.160 171.536,192.827 170.724 C 193.501 169.905,194.698 169.033,195.520 168.764 C 197.847 168.001,198.776 167.221,199.828 165.145 C 201.178 162.481,202.293 161.861,206.293 161.550 L 209.637 161.290 212.318 158.545 L 215.000 155.800 221.000 155.759 C 227.427 155.716,230.178 155.211,233.647 153.438 C 239.041 150.680,240.990 150.771,247.936 154.107 C 251.286 155.715,252.692 156.162,255.336 156.458 C 261.829 157.186,262.210 157.545,262.603 163.306 L 262.886 167.453 264.012 166.326 C 264.632 165.707,265.342 165.200,265.590 165.200 C 266.461 165.200,268.358 170.162,269.030 174.200 C 269.603 177.646,269.931 178.560,271.395 180.800 C 274.054 184.867,274.000 184.648,274.000 191.412 L 274.000 197.677 272.235 200.938 C 270.068 204.942,269.293 207.502,268.790 212.318 C 268.338 216.653,267.815 217.846,265.595 219.604 C 264.699 220.314,263.542 221.728,263.024 222.747 C 262.507 223.766,261.378 225.410,260.517 226.400 C 259.655 227.390,258.265 229.550,257.428 231.200 C 255.733 234.540,254.831 235.668,252.903 236.860 C 252.183 237.305,251.103 238.506,250.503 239.529 C 249.904 240.551,248.781 241.929,248.007 242.591 C 246.134 244.192,244.486 245.909,242.869 247.945 C 241.960 249.089,240.717 249.992,238.947 250.795 C 237.420 251.488,235.274 252.961,233.722 254.383 C 232.274 255.710,230.169 257.255,229.045 257.818 C 227.920 258.380,226.460 259.534,225.800 260.381 C 224.644 261.866,222.570 263.200,221.420 263.200 C 220.071 263.200,217.022 264.940,215.228 266.734 C 213.638 268.324,212.503 268.987,209.136 270.292 C 206.036 271.493,204.594 272.301,203.382 273.512 C 201.493 275.401,199.068 276.220,194.200 276.612 C 188.801 277.046,187.180 277.743,186.000 280.135 C 184.282 283.619,182.924 284.017,171.532 284.379 C 171.098 284.393,170.642 285.070,170.227 286.318 C 169.386 288.851,168.563 289.966,167.049 290.625 C 166.113 291.033,166.002 291.173,166.606 291.184 C 167.049 291.193,168.084 291.560,168.904 292.000 C 169.725 292.440,170.851 292.800,171.406 292.800 C 171.962 292.800,173.153 293.265,174.053 293.834 C 176.505 295.381,179.155 296.422,180.554 296.386 C 182.591 296.334,190.565 296.832,190.757 297.023 C 190.854 297.120,189.238 297.214,187.167 297.232 C 178.838 297.303,176.498 297.585,168.690 299.462 C 165.175 300.306,165.431 300.452,169.615 299.987 C 171.477 299.780,178.310 299.507,184.800 299.380 C 198.260 299.117,200.730 298.688,203.519 296.129 C 206.282 293.593,208.352 292.800,212.207 292.800 C 216.325 292.800,217.485 292.312,220.000 289.526 L 221.800 287.532 225.200 287.303 C 229.061 287.044,230.979 286.099,232.439 283.737 C 233.499 282.022,234.695 281.419,238.200 280.835 C 240.936 280.378,241.060 280.305,243.600 277.635 L 246.200 274.902 249.125 274.646 C 252.620 274.340,254.564 273.602,255.215 272.334 C 255.884 271.031,258.459 268.400,259.064 268.400 C 259.641 268.400,262.253 265.865,263.324 264.267 C 263.722 263.672,265.265 262.573,266.752 261.824 C 268.239 261.075,269.893 260.002,270.428 259.438 C 270.963 258.875,271.580 258.407,271.800 258.400 C 272.259 258.383,274.800 255.428,274.800 254.910 C 274.800 253.549,282.045 248.800,284.121 248.800 C 284.855 248.800,286.160 247.280,286.785 245.698 C 287.336 244.301,289.448 242.229,290.736 241.820 C 291.170 241.682,291.821 240.832,292.182 239.929 C 292.912 238.104,294.590 235.580,296.200 233.886 C 296.782 233.273,297.889 231.383,298.660 229.686 C 300.169 226.364,301.360 224.800,302.381 224.800 C 303.469 224.800,304.773 223.625,305.628 221.874 C 306.077 220.953,307.509 219.210,308.809 218.000 L 311.173 215.800 311.595 212.200 C 312.055 208.276,312.021 208.327,316.583 204.661 C 317.994 203.526,318.000 203.509,318.000 200.296 C 318.000 196.508,319.072 194.147,321.286 193.058 C 324.592 191.433,324.343 192.593,324.559 177.786 C 324.742 165.185,324.795 164.451,325.688 161.986 C 326.703 159.186,326.451 153.930,325.189 151.584 C 324.789 150.840,324.652 147.900,324.630 139.532 L 324.600 128.464 323.624 127.426 C 323.088 126.855,321.869 125.930,320.916 125.372 C 319.723 124.673,318.927 123.810,318.357 122.599 C 317.415 120.593,317.280 120.461,314.720 119.040 L 312.840 117.997 311.364 118.998 C 310.553 119.549,309.742 120.000,309.563 120.000 C 309.150 120.000,306.925 116.782,306.419 115.451 C 305.623 113.356,302.479 112.536,294.600 112.369 C 292.620 112.327,289.740 112.150,288.200 111.976 C 282.208 111.300,276.845 111.309,262.200 112.018 M322.972 127.955 C 323.336 128.543,322.037 129.397,321.538 128.898 C 321.302 128.662,321.231 128.274,321.378 128.035 C 321.702 127.511,322.668 127.462,322.972 127.955 " stroke="none" fill="#c15ede" fill-rule="evenodd"></path><path id="path2" d="M0.000 200.000 L 0.000 400.000 200.000 400.000 L 400.000 400.000 400.000 200.000 L 400.000 0.000 200.000 0.000 L 0.000 0.000 0.000 200.000 M282.706 92.231 C 283.425 92.524,284.149 93.087,284.316 93.482 C 285.944 97.335,287.263 97.876,294.451 97.642 C 299.999 97.460,302.400 98.942,302.400 102.546 C 302.400 103.651,303.375 104.400,304.813 104.400 C 306.734 104.400,308.305 105.579,308.852 107.429 C 309.376 109.205,309.529 109.326,311.850 109.791 C 313.578 110.137,314.672 111.445,315.198 113.790 C 315.678 115.933,316.082 116.384,317.531 116.394 C 319.020 116.404,320.690 118.392,321.012 120.540 C 321.322 122.609,321.437 122.728,323.967 123.595 C 327.305 124.738,327.372 124.983,327.600 136.928 C 327.803 147.564,327.915 148.400,329.135 148.400 C 334.422 148.400,334.792 164.436,329.607 168.912 C 327.625 170.623,327.502 171.461,327.558 182.800 C 327.616 194.401,327.430 194.948,323.000 196.261 L 321.800 196.617 321.556 200.617 C 321.173 206.901,320.367 208.400,317.373 208.400 C 315.291 208.400,315.200 208.602,315.200 213.246 C 315.200 218.613,314.098 220.514,310.669 221.066 C 309.023 221.331,308.400 222.234,308.400 224.356 C 308.400 225.859,306.911 227.155,304.764 227.521 L 303.000 227.821 302.702 230.798 C 302.187 235.952,301.177 237.842,298.249 239.137 C 296.993 239.693,296.407 240.251,296.034 241.246 C 295.755 241.991,295.363 243.015,295.162 243.523 C 294.934 244.099,293.965 244.813,292.585 245.423 C 291.369 245.961,290.299 246.626,290.207 246.901 C 290.115 247.175,289.842 248.172,289.600 249.116 C 289.129 250.954,288.512 251.388,284.822 252.476 C 283.380 252.901,282.889 253.302,282.221 254.600 C 281.597 255.811,280.847 256.474,279.135 257.328 C 277.437 258.176,276.757 258.774,276.406 259.728 C 274.832 264.006,274.556 264.344,272.029 265.088 C 270.447 265.555,269.514 266.071,269.265 266.618 C 269.058 267.071,268.152 267.686,267.252 267.983 C 266.351 268.280,265.514 268.839,265.392 269.226 C 265.070 270.240,263.515 271.141,261.245 271.628 C 259.292 272.047,259.261 272.077,258.784 274.067 C 258.225 276.396,257.619 276.767,253.000 277.606 C 250.130 278.128,249.172 278.702,246.000 281.797 C 244.966 282.807,243.898 283.337,241.913 283.827 C 239.834 284.341,239.167 284.685,238.968 285.345 C 238.681 286.297,236.845 288.400,236.300 288.400 C 236.108 288.400,235.017 288.834,233.875 289.364 C 232.734 289.894,230.871 290.448,229.735 290.596 C 227.941 290.830,227.431 291.119,225.835 292.804 C 223.188 295.600,220.835 296.379,214.121 296.683 C 209.119 296.909,208.774 296.977,208.617 297.762 C 207.721 302.260,208.001 302.179,191.400 302.764 C 178.418 303.221,178.187 303.244,177.400 304.145 C 175.180 306.688,171.787 307.806,164.965 308.240 C 158.094 308.677,145.165 306.744,142.487 304.879 C 140.835 303.728,139.938 303.578,132.737 303.241 C 126.732 302.961,125.863 302.828,123.937 301.890 C 122.762 301.318,120.102 300.558,118.028 300.200 C 113.642 299.445,112.373 298.964,110.241 297.248 C 109.332 296.517,107.341 295.582,105.461 295.005 C 101.984 293.937,98.744 291.990,97.938 290.484 C 97.661 289.967,96.167 288.624,94.617 287.499 C 90.702 284.657,88.166 282.179,86.536 279.600 C 85.772 278.390,84.367 276.770,83.415 276.000 C 82.278 275.080,81.177 273.603,80.208 271.696 C 79.396 270.099,78.388 268.607,77.966 268.382 C 75.995 267.327,75.325 264.772,74.822 256.400 C 74.621 253.058,74.207 249.837,73.845 248.800 C 72.569 245.148,72.481 241.739,73.474 234.520 C 73.983 230.824,74.375 226.450,74.346 224.800 C 74.155 213.920,75.529 206.876,78.546 203.265 C 79.539 202.076,80.366 200.293,81.377 197.161 C 82.458 193.814,83.189 192.283,84.380 190.869 C 85.246 189.841,86.758 187.290,87.740 185.200 C 88.722 183.110,89.992 180.913,90.563 180.317 C 91.133 179.722,91.600 179.143,91.600 179.031 C 91.600 178.436,95.461 172.953,97.255 171.000 C 97.862 170.340,98.990 168.450,99.762 166.800 C 101.456 163.181,101.730 162.827,103.900 161.461 C 104.835 160.872,105.600 160.213,105.600 159.998 C 105.600 159.782,106.820 158.389,108.311 156.903 C 109.802 155.416,111.434 153.616,111.936 152.903 C 112.439 152.190,113.874 151.009,115.125 150.280 C 116.733 149.342,117.835 148.298,118.883 146.720 C 119.698 145.491,121.265 143.792,122.366 142.943 C 123.501 142.068,124.551 140.866,124.793 140.165 C 125.359 138.525,131.675 132.833,134.744 131.197 C 136.162 130.442,137.835 129.098,138.835 127.913 C 140.691 125.712,142.392 124.800,144.643 124.800 C 146.520 124.800,149.441 123.347,150.471 121.900 C 150.911 121.283,152.193 120.310,153.321 119.739 C 155.839 118.463,158.400 116.448,158.400 115.742 C 158.400 115.002,159.993 114.048,163.112 112.920 C 164.591 112.385,166.946 111.285,168.347 110.474 C 172.668 107.974,175.730 106.461,177.400 106.002 C 184.549 104.039,185.345 103.745,186.259 102.735 C 187.559 101.299,191.024 100.000,193.556 100.000 C 195.377 100.000,196.411 99.730,198.281 98.766 C 200.367 97.690,201.208 97.504,204.837 97.317 C 208.425 97.132,209.138 96.977,210.000 96.197 C 211.887 94.489,214.549 93.538,220.800 92.343 C 226.716 91.211,279.974 91.114,282.706 92.231 M226.000 158.641 C 225.450 158.708,222.902 158.878,220.338 159.018 L 215.675 159.274 215.408 160.696 C 214.760 164.151,213.495 164.858,207.400 165.173 L 203.000 165.400 202.749 167.737 C 202.435 170.659,201.861 171.235,198.949 171.549 C 196.629 171.799,196.623 171.804,196.012 173.558 C 195.203 175.882,194.047 176.662,190.173 177.501 C 186.865 178.218,184.400 180.018,184.400 181.717 C 184.400 182.477,182.176 184.394,181.269 184.416 C 179.909 184.449,178.109 186.511,177.796 188.395 C 177.080 192.704,175.636 195.007,173.385 195.429 C 171.910 195.706,171.353 196.600,171.061 199.155 C 170.810 201.363,170.175 201.996,167.758 202.447 C 165.227 202.920,165.306 202.781,164.884 207.481 C 164.450 212.311,163.949 213.257,161.317 214.227 C 160.262 214.615,159.284 215.037,159.142 215.166 C 159.000 215.295,158.820 219.808,158.742 225.196 L 158.600 234.992 160.984 235.596 C 163.634 236.267,165.200 237.914,165.200 240.030 C 165.200 242.102,174.440 242.247,176.856 240.214 C 178.179 239.101,182.528 237.627,187.600 236.572 C 189.470 236.184,191.284 235.626,191.631 235.333 C 191.979 235.040,192.420 234.800,192.612 234.800 C 192.805 234.800,193.510 234.290,194.181 233.668 C 194.851 233.045,196.788 231.943,198.484 231.220 C 200.399 230.404,202.517 229.084,204.070 227.739 C 205.790 226.250,207.237 225.379,208.697 224.955 C 210.509 224.428,211.056 224.019,212.423 222.169 C 213.471 220.751,214.694 219.662,215.960 219.020 C 217.025 218.481,218.362 217.445,218.932 216.720 C 220.069 215.272,223.752 211.260,227.230 207.682 C 228.456 206.420,230.317 204.085,231.366 202.494 C 232.414 200.902,233.391 199.593,233.536 199.585 C 234.939 199.505,236.803 196.808,237.375 194.030 C 238.023 190.882,239.463 188.224,240.741 187.819 C 242.028 187.410,244.181 180.515,243.695 178.361 C 243.556 177.749,244.871 169.573,245.402 167.741 C 245.912 165.982,246.000 159.763,245.520 159.421 C 244.550 158.730,230.047 158.150,226.000 158.641 " stroke="none" fill="#333333" fill-rule="evenodd"></path><path id="path3" d="M236.600 92.381 C 226.278 92.602,226.183 92.612,223.961 93.702 C 222.730 94.306,221.469 94.800,221.160 94.800 C 220.850 94.800,219.337 95.270,217.798 95.845 C 214.332 97.139,212.900 97.442,207.600 98.004 C 202.334 98.562,199.961 99.313,198.193 100.981 C 196.961 102.142,196.471 102.319,193.901 102.527 C 189.753 102.862,186.212 104.756,185.210 107.176 L 184.703 108.400 181.136 108.400 C 177.458 108.400,175.394 109.039,173.400 110.795 C 171.114 112.808,167.005 115.252,164.604 116.028 C 162.638 116.663,161.313 117.430,159.775 118.822 C 158.388 120.078,156.910 120.977,155.496 121.422 C 153.689 121.992,153.276 122.302,152.968 123.319 C 152.449 125.034,151.044 125.915,147.381 126.823 C 144.159 127.622,142.613 128.444,141.831 129.773 C 140.815 131.500,138.142 133.573,136.380 134.000 C 134.650 134.420,134.506 134.565,133.466 136.953 C 132.402 139.395,130.793 140.800,129.061 140.800 C 128.779 140.800,128.252 141.422,127.889 142.182 C 127.162 143.708,124.402 146.935,124.091 146.625 C 123.413 145.946,122.400 147.361,122.400 148.988 C 122.400 151.524,121.830 152.737,120.514 153.004 C 116.668 153.785,116.450 154.187,116.123 161.100 L 115.892 166.000 113.246 166.047 C 111.791 166.073,110.476 166.077,110.324 166.055 C 110.173 166.034,109.936 166.373,109.797 166.808 C 109.659 167.244,109.278 167.600,108.949 167.600 C 108.621 167.600,108.464 167.780,108.600 168.000 C 108.736 168.220,108.646 168.400,108.400 168.400 C 108.154 168.400,108.056 168.567,108.182 168.771 C 108.308 168.975,108.035 169.262,107.576 169.408 C 107.116 169.554,106.846 169.779,106.975 169.909 C 107.288 170.221,105.185 172.400,104.572 172.400 C 103.914 172.400,103.612 173.745,103.605 176.700 C 103.601 178.929,103.514 179.200,102.802 179.200 C 99.772 179.200,97.880 183.428,97.342 191.400 C 97.179 193.820,97.013 195.935,96.973 196.100 C 96.933 196.265,96.877 196.580,96.850 196.800 C 96.823 197.020,96.341 197.200,95.780 197.200 C 92.914 197.200,91.767 198.670,91.403 202.812 C 91.113 206.116,90.590 207.810,89.536 208.864 C 86.291 212.109,85.146 221.037,85.155 243.000 C 85.163 260.053,85.677 262.547,89.647 264.778 L 91.107 265.599 91.264 270.950 C 91.449 277.276,91.570 277.514,94.692 277.681 C 97.122 277.811,97.409 278.068,97.788 280.455 C 98.090 282.356,99.666 283.887,101.739 284.295 L 103.400 284.622 103.604 286.901 C 103.855 289.706,104.457 290.350,107.127 290.666 C 109.054 290.894,109.309 291.056,110.622 292.883 C 111.970 294.760,115.154 296.785,116.773 296.796 C 117.828 296.803,122.192 298.495,122.851 299.151 C 125.397 301.688,126.221 301.885,136.400 302.393 C 146.988 302.922,148.288 303.067,151.800 304.114 C 153.340 304.573,154.690 304.966,154.800 304.986 C 154.910 305.007,156.110 305.265,157.468 305.560 C 161.986 306.541,173.200 305.128,173.200 303.577 C 173.200 302.985,178.717 302.422,188.600 302.006 C 203.291 301.388,204.916 301.062,206.824 298.350 C 208.534 295.919,208.605 295.887,212.125 295.964 C 217.530 296.082,220.927 294.916,224.405 291.748 C 225.001 291.205,226.547 290.576,228.205 290.203 C 232.743 289.180,236.110 287.424,237.448 285.382 C 237.829 284.801,239.002 284.131,240.532 283.621 C 243.660 282.578,245.365 281.537,246.273 280.119 C 247.376 278.395,247.931 278.101,251.800 277.192 C 256.115 276.178,258.400 274.801,258.400 273.213 C 258.400 272.115,259.098 271.556,261.200 270.973 C 262.841 270.517,264.369 269.229,265.199 267.602 C 265.845 266.336,266.346 265.951,268.090 265.380 C 272.735 263.860,274.484 262.658,274.962 260.661 C 275.113 260.031,276.078 258.778,277.117 257.861 C 278.153 256.947,279.701 255.480,280.557 254.600 C 281.413 253.720,283.393 252.370,284.957 251.600 C 287.554 250.321,287.905 249.998,289.009 247.865 C 289.855 246.231,290.696 245.244,291.809 244.577 C 292.780 243.995,293.945 242.734,294.800 241.340 C 295.579 240.070,296.982 238.509,297.962 237.822 C 300.494 236.046,301.132 234.992,301.853 231.396 C 302.511 228.118,303.233 226.800,304.371 226.800 C 305.698 226.800,307.942 224.457,308.287 222.711 C 308.577 221.243,308.851 220.923,310.581 220.022 C 313.624 218.438,314.165 217.426,314.400 212.873 L 314.600 209.000 316.869 207.869 C 319.649 206.483,320.318 205.259,320.796 200.684 C 321.237 196.459,321.411 196.069,323.169 195.366 C 326.321 194.105,326.800 192.560,326.800 183.668 C 326.800 174.090,327.518 168.853,329.229 165.951 C 332.496 160.410,332.182 150.830,328.689 149.489 C 327.686 149.105,327.255 146.194,326.858 137.124 C 326.395 126.564,326.147 125.656,323.387 124.436 C 321.592 123.641,320.634 122.533,320.193 120.738 C 319.868 119.412,318.438 118.046,316.285 117.003 C 315.042 116.401,314.373 115.699,313.614 114.200 C 312.820 112.634,312.175 111.982,310.644 111.196 C 309.569 110.644,308.554 109.834,308.390 109.396 C 307.883 108.046,306.079 106.390,304.219 105.567 C 302.435 104.778,301.562 103.902,300.338 101.674 C 299.111 99.438,297.953 99.017,292.825 98.943 C 286.497 98.852,284.550 98.282,283.082 96.092 C 280.998 92.985,280.194 92.786,268.054 92.382 C 256.949 92.012,253.799 92.012,236.600 92.381 M268.800 94.793 L 278.200 95.166 280.400 97.551 C 283.344 100.742,283.562 100.820,290.324 101.084 C 297.471 101.364,297.639 101.422,299.061 104.075 C 300.038 105.898,300.562 106.380,302.744 107.465 C 304.450 108.313,305.570 109.185,306.144 110.112 C 306.615 110.872,307.975 112.283,309.166 113.247 C 310.358 114.211,311.729 115.710,312.214 116.578 C 312.699 117.446,313.643 118.450,314.312 118.808 C 316.825 120.156,317.508 120.792,318.334 122.550 C 318.927 123.811,319.707 124.663,320.916 125.372 C 321.869 125.930,323.088 126.855,323.624 127.426 L 324.600 128.464 324.630 139.532 C 324.652 147.900,324.789 150.840,325.189 151.584 C 326.451 153.930,326.703 159.186,325.688 161.986 C 324.795 164.451,324.742 165.185,324.559 177.786 C 324.343 192.593,324.592 191.433,321.286 193.058 C 319.072 194.147,318.000 196.508,318.000 200.296 C 318.000 203.509,317.994 203.526,316.583 204.661 C 312.021 208.327,312.055 208.276,311.595 212.200 L 311.173 215.800 308.809 218.000 C 307.509 219.210,306.077 220.953,305.628 221.874 C 304.773 223.625,303.469 224.800,302.381 224.800 C 301.360 224.800,300.169 226.364,298.660 229.686 C 297.889 231.383,296.782 233.273,296.200 233.886 C 294.596 235.573,292.913 238.102,292.190 239.908 C 291.755 240.997,291.158 241.686,290.369 242.013 C 289.005 242.578,286.995 244.737,286.589 246.074 C 286.233 247.247,284.827 248.800,284.121 248.800 C 282.045 248.800,274.800 253.549,274.800 254.910 C 274.800 255.428,272.259 258.383,271.800 258.400 C 271.580 258.407,270.963 258.875,270.428 259.438 C 269.893 260.002,268.239 261.075,266.752 261.824 C 265.265 262.573,263.722 263.672,263.324 264.267 C 262.253 265.865,259.641 268.400,259.064 268.400 C 258.459 268.400,255.884 271.031,255.215 272.334 C 254.564 273.602,252.620 274.340,249.125 274.646 L 246.200 274.902 243.600 277.635 C 241.060 280.305,240.936 280.378,238.200 280.835 C 234.695 281.419,233.499 282.022,232.439 283.737 C 230.979 286.099,229.061 287.044,225.200 287.303 L 221.800 287.532 220.000 289.526 C 217.485 292.312,216.325 292.800,212.207 292.800 C 208.365 292.800,206.175 293.627,203.669 296.025 C 201.083 298.499,198.029 299.182,189.513 299.192 C 185.396 299.196,178.826 299.425,174.913 299.700 C 166.157 300.315,160.085 300.318,148.200 299.711 C 143.140 299.452,136.750 299.198,134.000 299.146 C 127.766 299.029,127.133 298.816,125.188 296.183 C 124.325 295.015,123.300 293.972,122.910 293.864 C 122.519 293.757,120.760 293.361,119.000 292.986 C 115.411 292.220,114.635 291.798,113.559 290.028 C 113.124 289.314,111.925 288.359,110.705 287.756 C 109.389 287.106,108.106 286.054,107.282 284.952 C 106.540 283.957,104.992 282.638,103.736 281.929 C 102.143 281.030,101.126 280.074,100.167 278.575 C 98.786 276.416,97.080 274.800,96.182 274.800 C 94.678 274.800,93.600 272.421,93.586 269.069 C 93.568 265.001,91.851 259.282,90.460 258.662 C 89.986 258.450,89.110 257.278,88.512 256.056 L 87.426 253.836 87.490 237.961 C 87.560 220.411,87.569 220.344,90.162 217.600 C 91.781 215.885,92.722 212.684,93.248 207.097 C 93.698 202.314,93.821 202.053,96.600 200.000 C 99.290 198.013,99.428 197.744,99.767 193.857 C 100.119 189.818,100.844 188.064,102.993 186.049 C 104.710 184.440,104.930 183.989,106.173 179.527 C 106.805 177.261,108.453 174.798,109.336 174.802 C 109.591 174.803,111.102 173.498,112.693 171.902 C 114.284 170.306,116.264 168.356,117.093 167.569 C 117.989 166.719,118.883 165.320,119.297 164.123 C 119.681 163.015,120.979 160.908,122.182 159.440 C 123.620 157.686,124.453 156.262,124.613 155.286 C 124.968 153.130,125.619 152.010,127.200 150.838 C 127.970 150.267,129.860 148.518,131.400 146.951 C 132.977 145.347,135.027 143.717,136.092 143.219 C 137.133 142.734,138.880 141.531,139.975 140.546 C 141.406 139.260,142.819 138.470,145.002 137.736 C 147.772 136.804,148.178 136.525,149.647 134.537 C 150.532 133.338,152.127 131.822,153.191 131.168 C 154.313 130.477,155.855 128.970,156.863 127.580 C 157.952 126.077,158.973 125.102,159.600 124.966 C 160.150 124.847,161.001 124.669,161.491 124.570 C 161.981 124.470,163.331 123.625,164.491 122.690 C 167.243 120.473,168.144 119.929,170.858 118.844 C 173.082 117.955,174.458 116.834,174.912 115.542 C 175.477 113.931,177.771 112.809,181.038 112.544 C 184.739 112.245,186.089 111.663,187.274 109.856 C 188.722 107.647,190.259 106.917,194.143 106.593 L 197.625 106.303 200.393 103.552 L 203.161 100.800 205.831 100.800 C 215.512 100.800,223.963 99.207,224.579 97.267 C 225.391 94.707,242.511 93.749,268.800 94.793 M238.000 151.829 C 236.790 152.146,234.900 152.848,233.800 153.390 C 230.061 155.231,227.441 155.716,221.000 155.759 L 215.000 155.800 212.318 158.545 L 209.637 161.290 206.293 161.550 C 202.293 161.861,201.178 162.481,199.828 165.145 C 198.776 167.221,197.847 168.001,195.520 168.764 C 194.698 169.033,193.501 169.905,192.827 170.724 C 192.160 171.536,191.381 172.475,191.096 172.811 C 190.811 173.147,189.143 173.752,187.389 174.156 C 183.230 175.114,182.627 175.463,181.090 177.807 C 180.380 178.888,179.170 180.174,178.400 180.664 C 175.596 182.449,174.990 183.110,174.508 184.913 C 173.594 188.328,172.106 191.180,171.021 191.592 C 169.870 192.030,168.554 193.964,168.170 195.784 C 167.851 197.297,166.642 198.651,164.738 199.628 C 162.861 200.590,161.684 202.101,161.378 203.941 C 160.761 207.644,160.021 209.403,158.615 210.515 C 156.347 212.309,155.914 213.586,155.548 219.555 C 155.129 226.402,154.679 228.764,153.189 231.950 L 151.982 234.529 152.859 235.463 C 153.341 235.976,155.190 237.091,156.968 237.940 C 158.908 238.866,160.680 240.044,161.400 240.887 C 164.518 244.535,166.536 244.931,177.400 244.027 C 179.820 243.826,183.903 243.541,186.472 243.393 L 191.145 243.125 192.872 241.349 C 195.556 238.590,196.561 238.131,200.479 237.872 C 204.856 237.583,206.630 236.682,208.800 233.648 C 209.208 233.078,210.490 232.530,212.800 231.938 C 216.422 231.009,217.524 230.296,219.062 227.886 C 220.168 226.152,222.140 224.808,223.600 224.793 C 225.155 224.777,227.711 223.450,229.224 221.874 C 229.981 221.087,231.860 219.737,233.400 218.875 C 235.811 217.525,236.382 216.980,237.511 214.954 C 238.232 213.659,239.396 212.073,240.098 211.428 C 241.691 209.965,242.883 208.221,244.216 205.403 C 244.864 204.033,245.944 202.645,247.093 201.705 C 248.418 200.621,249.291 199.416,250.212 197.400 C 251.058 195.546,252.128 194.013,253.376 192.864 C 255.400 191.000,256.104 189.487,256.804 185.499 C 257.862 179.473,258.435 177.873,260.225 175.946 C 262.348 173.659,262.607 172.539,262.575 165.800 C 262.537 157.738,262.227 157.307,255.945 156.556 C 252.697 156.168,251.456 155.793,248.141 154.198 C 241.483 150.995,241.325 150.958,238.000 151.829 M243.600 158.195 C 249.980 158.949,250.712 159.205,250.923 160.757 C 251.031 161.551,251.324 162.992,251.575 163.961 C 252.409 167.180,250.174 173.391,247.790 174.477 C 246.627 175.007,246.549 175.232,246.015 179.590 C 245.289 185.517,245.562 190.000,246.650 190.000 C 246.977 190.000,247.200 190.426,247.200 191.050 C 247.200 192.011,247.095 192.079,245.958 191.852 C 244.989 191.658,244.763 191.727,244.932 192.166 C 245.103 192.613,244.910 192.661,243.995 192.398 C 243.178 192.164,242.710 192.226,242.392 192.610 C 242.144 192.908,241.703 193.061,241.412 192.949 C 241.033 192.804,240.801 193.349,240.594 194.873 C 240.141 198.216,238.361 200.606,234.966 202.425 C 234.108 202.885,233.671 203.535,233.311 204.889 C 233.020 205.984,232.328 207.187,231.599 207.864 C 230.926 208.489,229.706 209.714,228.888 210.587 C 222.572 217.325,222.893 216.837,222.508 220.300 L 222.319 222.000 218.992 222.000 L 215.664 222.000 215.396 223.218 C 215.080 224.658,212.981 226.188,210.594 226.717 C 209.711 226.912,208.366 227.641,207.605 228.336 C 206.844 229.031,206.097 229.600,205.945 229.600 C 205.793 229.600,205.124 230.485,204.459 231.567 C 203.157 233.681,203.615 233.480,197.400 234.669 C 195.822 234.971,192.622 236.597,191.718 237.557 C 190.030 239.348,178.419 241.898,170.243 242.274 C 165.174 242.506,164.463 242.261,163.003 239.770 C 162.351 238.657,161.427 237.791,160.306 237.243 C 159.368 236.785,158.112 236.003,157.516 235.505 L 156.431 234.600 157.239 231.400 C 157.839 229.023,158.086 226.484,158.201 221.530 C 158.366 214.405,158.568 213.614,160.388 212.927 C 162.450 212.149,163.538 210.123,163.840 206.501 C 164.138 202.927,164.732 201.958,166.948 201.433 C 168.456 201.075,169.464 199.886,170.529 197.208 C 171.236 195.430,171.723 194.837,173.101 194.078 C 174.035 193.562,174.800 192.943,174.800 192.702 C 174.800 192.460,175.055 191.979,175.367 191.631 C 175.678 191.284,176.370 189.477,176.905 187.616 C 177.829 184.397,177.942 184.214,179.224 183.882 C 181.285 183.348,182.642 182.182,183.630 180.097 C 184.125 179.054,184.566 178.150,184.610 178.088 C 184.654 178.027,186.200 177.557,188.045 177.045 C 191.936 175.964,194.254 174.706,194.630 173.471 C 195.078 171.996,196.011 171.254,198.223 170.611 C 200.509 169.946,201.775 168.735,202.198 166.809 C 202.560 165.159,203.020 164.930,206.600 164.613 C 211.518 164.177,213.119 163.265,215.038 159.807 C 215.647 158.709,216.724 158.491,222.000 158.400 C 224.530 158.356,228.130 158.177,230.000 158.002 C 233.361 157.687,240.111 157.783,243.600 158.195 " stroke="none" fill="#54345c" fill-rule="evenodd"></path><path id="path4" d="M235.000 91.591 C 223.847 91.835,221.055 92.106,215.818 93.452 C 213.025 94.170,211.383 94.945,210.000 96.197 C 209.138 96.977,208.425 97.132,204.837 97.317 C 201.208 97.504,200.367 97.690,198.281 98.766 C 196.411 99.730,195.377 100.000,193.556 100.000 C 191.024 100.000,187.559 101.299,186.259 102.735 C 185.345 103.745,184.549 104.039,177.400 106.002 C 175.730 106.461,172.668 107.974,168.347 110.474 C 166.946 111.285,164.591 112.385,163.112 112.920 C 159.993 114.048,158.400 115.002,158.400 115.742 C 158.400 116.448,155.839 118.463,153.321 119.739 C 152.193 120.310,150.911 121.283,150.471 121.900 C 149.441 123.347,146.520 124.800,144.643 124.800 C 142.392 124.800,140.691 125.712,138.835 127.913 C 137.835 129.098,136.162 130.442,134.744 131.197 C 131.675 132.833,125.359 138.525,124.793 140.165 C 124.551 140.866,123.501 142.068,122.366 142.943 C 121.265 143.792,119.698 145.491,118.883 146.720 C 117.835 148.298,116.733 149.342,115.125 150.280 C 113.874 151.009,112.439 152.190,111.936 152.903 C 111.434 153.616,109.802 155.416,108.311 156.903 C 106.820 158.389,105.600 159.782,105.600 159.998 C 105.600 160.213,104.835 160.872,103.900 161.461 C 101.730 162.827,101.456 163.181,99.762 166.800 C 98.990 168.450,97.862 170.340,97.255 171.000 C 95.461 172.953,91.600 178.436,91.600 179.031 C 91.600 179.143,91.133 179.722,90.563 180.317 C 89.992 180.913,88.722 183.110,87.740 185.200 C 86.758 187.290,85.246 189.841,84.380 190.869 C 83.189 192.283,82.458 193.814,81.377 197.161 C 80.366 200.293,79.539 202.076,78.546 203.265 C 75.529 206.876,74.155 213.920,74.346 224.800 C 74.375 226.450,73.983 230.824,73.474 234.520 C 72.481 241.739,72.569 245.148,73.845 248.800 C 74.207 249.837,74.621 253.058,74.822 256.400 C 75.325 264.772,75.995 267.327,77.966 268.382 C 78.388 268.607,79.396 270.099,80.208 271.696 C 81.177 273.603,82.278 275.080,83.415 276.000 C 84.367 276.770,85.772 278.390,86.536 279.600 C 88.166 282.179,90.702 284.657,94.617 287.499 C 96.167 288.624,97.661 289.967,97.938 290.484 C 98.744 291.990,101.984 293.937,105.461 295.005 C 107.341 295.582,109.332 296.517,110.241 297.248 C 112.373 298.964,113.642 299.445,118.028 300.200 C 120.102 300.558,122.762 301.318,123.937 301.890 C 125.863 302.828,126.732 302.961,132.737 303.241 C 139.938 303.578,140.835 303.728,142.487 304.879 C 145.165 306.744,158.094 308.677,164.965 308.240 C 171.787 307.806,175.180 306.688,177.400 304.145 C 178.187 303.244,178.418 303.221,191.400 302.764 C 208.001 302.179,207.721 302.260,208.617 297.762 C 208.774 296.977,209.119 296.909,214.121 296.683 C 220.835 296.379,223.188 295.600,225.835 292.804 C 227.431 291.119,227.941 290.830,229.735 290.596 C 230.871 290.448,232.734 289.894,233.875 289.364 C 235.017 288.834,236.108 288.400,236.300 288.400 C 236.845 288.400,238.681 286.297,238.968 285.345 C 239.167 284.685,239.834 284.341,241.913 283.827 C 243.898 283.337,244.966 282.807,246.000 281.797 C 249.172 278.702,250.130 278.128,253.000 277.606 C 257.619 276.767,258.225 276.396,258.784 274.067 C 259.261 272.077,259.292 272.047,261.245 271.628 C 263.515 271.141,265.070 270.240,265.392 269.226 C 265.514 268.839,266.351 268.280,267.252 267.983 C 268.152 267.686,269.058 267.071,269.265 266.618 C 269.514 266.071,270.447 265.555,272.029 265.088 C 274.556 264.344,274.832 264.006,276.406 259.728 C 276.757 258.774,277.437 258.176,279.135 257.328 C 280.847 256.474,281.597 255.811,282.221 254.600 C 282.889 253.302,283.380 252.901,284.822 252.476 C 288.512 251.388,289.129 250.954,289.600 249.116 C 289.842 248.172,290.115 247.175,290.207 246.901 C 290.299 246.626,291.369 245.961,292.585 245.423 C 293.965 244.813,294.934 244.099,295.162 243.523 C 295.363 243.015,295.755 241.991,296.034 241.246 C 296.407 240.251,296.993 239.693,298.249 239.137 C 301.177 237.842,302.187 235.952,302.702 230.798 L 303.000 227.821 304.764 227.521 C 307.011 227.137,308.408 225.865,308.375 224.230 C 308.352 223.135,308.311 223.094,308.003 223.858 C 307.594 224.872,305.183 226.800,304.324 226.800 C 303.233 226.800,302.503 228.159,301.853 231.396 C 301.132 234.992,300.494 236.046,297.962 237.822 C 296.982 238.509,295.579 240.070,294.800 241.340 C 293.945 242.734,292.780 243.995,291.809 244.577 C 290.696 245.244,289.855 246.231,289.009 247.865 C 287.905 249.998,287.554 250.321,284.957 251.600 C 283.393 252.370,281.413 253.720,280.557 254.600 C 279.701 255.480,278.153 256.947,277.117 257.861 C 276.078 258.778,275.113 260.031,274.962 260.661 C 274.484 262.658,272.735 263.860,268.090 265.380 C 266.346 265.951,265.845 266.336,265.199 267.602 C 264.369 269.229,262.841 270.517,261.200 270.973 C 259.098 271.556,258.400 272.115,258.400 273.213 C 258.400 274.801,256.115 276.178,251.800 277.192 C 247.931 278.101,247.376 278.395,246.273 280.119 C 245.365 281.537,243.660 282.578,240.532 283.621 C 239.002 284.131,237.829 284.801,237.448 285.382 C 236.110 287.424,232.743 289.180,228.205 290.203 C 226.547 290.576,225.001 291.205,224.405 291.748 C 220.927 294.916,217.530 296.082,212.125 295.964 C 208.605 295.887,208.534 295.919,206.824 298.350 C 204.916 301.062,203.291 301.388,188.600 302.006 C 178.717 302.422,173.200 302.985,173.200 303.577 C 173.200 305.128,161.986 306.541,157.468 305.560 C 156.110 305.265,154.910 305.007,154.800 304.986 C 154.690 304.966,153.340 304.573,151.800 304.114 C 148.288 303.067,146.988 302.922,136.400 302.393 C 126.221 301.885,125.397 301.688,122.851 299.151 C 122.192 298.495,117.828 296.803,116.773 296.796 C 115.154 296.785,111.970 294.760,110.622 292.883 C 109.309 291.056,109.054 290.894,107.127 290.666 C 104.457 290.350,103.855 289.706,103.604 286.901 L 103.400 284.622 101.739 284.295 C 99.666 283.887,98.090 282.356,97.788 280.455 C 97.409 278.068,97.122 277.811,94.692 277.681 C 91.570 277.514,91.449 277.276,91.264 270.950 L 91.107 265.599 89.647 264.778 C 85.677 262.547,85.163 260.053,85.155 243.000 C 85.146 221.037,86.291 212.109,89.536 208.864 C 90.590 207.810,91.113 206.116,91.403 202.812 C 91.767 198.670,92.914 197.200,95.780 197.200 C 96.341 197.200,96.823 197.020,96.850 196.800 C 96.877 196.580,96.933 196.265,96.973 196.100 C 97.013 195.935,97.179 193.820,97.342 191.400 C 97.880 183.428,99.772 179.200,102.802 179.200 C 103.514 179.200,103.601 178.929,103.605 176.700 C 103.612 173.745,103.914 172.400,104.572 172.400 C 105.185 172.400,107.288 170.221,106.975 169.909 C 106.846 169.779,107.116 169.554,107.576 169.408 C 108.035 169.262,108.308 168.975,108.182 168.771 C 108.056 168.567,108.154 168.400,108.400 168.400 C 108.646 168.400,108.736 168.220,108.600 168.000 C 108.464 167.780,108.621 167.600,108.949 167.600 C 109.278 167.600,109.659 167.244,109.797 166.808 C 109.936 166.373,110.173 166.034,110.324 166.055 C 110.476 166.077,111.791 166.073,113.246 166.047 L 115.892 166.000 116.123 161.100 C 116.450 154.187,116.668 153.785,120.514 153.004 C 121.830 152.737,122.400 151.524,122.400 148.988 C 122.400 147.361,123.413 145.946,124.091 146.625 C 124.402 146.935,127.162 143.708,127.889 142.182 C 128.252 141.422,128.779 140.800,129.061 140.800 C 130.793 140.800,132.402 139.395,133.466 136.953 C 134.506 134.565,134.650 134.420,136.380 134.000 C 138.142 133.573,140.815 131.500,141.831 129.773 C 142.613 128.444,144.159 127.622,147.381 126.823 C 151.044 125.915,152.449 125.034,152.968 123.319 C 153.276 122.302,153.689 121.992,155.496 121.422 C 156.910 120.977,158.388 120.078,159.775 118.822 C 161.313 117.430,162.638 116.663,164.604 116.028 C 167.005 115.252,171.114 112.808,173.400 110.795 C 175.394 109.039,177.458 108.400,181.136 108.400 L 184.703 108.400 185.210 107.176 C 186.212 104.756,189.753 102.862,193.901 102.527 C 196.471 102.319,196.961 102.142,198.193 100.981 C 199.961 99.313,202.334 98.562,207.600 98.004 C 212.900 97.442,214.332 97.139,217.798 95.845 C 219.337 95.270,220.850 94.800,221.160 94.800 C 221.469 94.800,222.730 94.315,223.961 93.723 L 226.200 92.646 240.400 92.316 C 248.619 92.126,259.677 92.145,266.654 92.362 C 280.359 92.788,280.957 92.924,283.082 96.092 C 284.550 98.282,286.497 98.852,292.825 98.943 C 297.953 99.017,299.111 99.438,300.338 101.674 C 301.562 103.902,302.435 104.778,304.219 105.567 C 306.079 106.390,307.883 108.046,308.390 109.396 C 308.554 109.834,309.569 110.644,310.644 111.196 C 312.175 111.982,312.820 112.634,313.614 114.200 C 314.373 115.699,315.042 116.401,316.285 117.003 C 318.438 118.046,319.868 119.412,320.193 120.738 C 320.634 122.533,321.592 123.641,323.387 124.436 C 326.147 125.656,326.395 126.564,326.858 137.124 C 327.255 146.194,327.686 149.105,328.689 149.489 C 332.182 150.830,332.496 160.410,329.229 165.951 C 327.518 168.853,326.800 174.090,326.800 183.668 C 326.800 192.560,326.321 194.105,323.169 195.366 C 321.411 196.069,321.237 196.459,320.796 200.684 C 320.350 204.946,319.588 206.524,317.466 207.575 L 315.800 208.399 317.430 208.400 C 320.361 208.400,321.175 206.863,321.556 200.617 L 321.800 196.617 323.000 196.261 C 327.430 194.948,327.616 194.401,327.558 182.800 C 327.502 171.461,327.625 170.623,329.607 168.912 C 334.792 164.436,334.422 148.400,329.135 148.400 C 327.915 148.400,327.803 147.564,327.600 136.928 C 327.372 124.983,327.305 124.738,323.967 123.595 C 321.437 122.728,321.322 122.609,321.012 120.540 C 320.690 118.392,319.020 116.404,317.531 116.394 C 316.082 116.384,315.678 115.933,315.198 113.790 C 314.672 111.445,313.578 110.137,311.850 109.791 C 309.529 109.326,309.376 109.205,308.852 107.429 C 308.305 105.579,306.734 104.400,304.813 104.400 C 303.375 104.400,302.400 103.651,302.400 102.546 C 302.400 98.942,299.999 97.460,294.451 97.642 C 287.263 97.876,285.944 97.335,284.316 93.482 C 283.525 91.612,265.522 90.921,235.000 91.591 M230.400 157.980 C 227.675 158.231,227.892 158.262,232.755 158.328 C 237.124 158.387,245.017 159.063,245.520 159.421 C 246.000 159.763,245.912 165.982,245.402 167.741 C 244.871 169.573,243.556 177.749,243.695 178.361 C 244.181 180.515,242.028 187.410,240.741 187.819 C 239.463 188.224,238.023 190.882,237.375 194.030 C 236.803 196.808,234.939 199.505,233.536 199.585 C 233.391 199.593,232.414 200.902,231.366 202.494 C 230.317 204.085,228.456 206.420,227.230 207.682 C 223.752 211.260,220.069 215.272,218.932 216.720 C 218.362 217.445,217.025 218.481,215.960 219.020 C 214.694 219.662,213.471 220.751,212.423 222.169 C 211.056 224.019,210.509 224.428,208.697 224.955 C 207.237 225.379,205.790 226.250,204.070 227.739 C 202.517 229.084,200.399 230.404,198.484 231.220 C 196.788 231.943,194.851 233.045,194.181 233.668 C 193.510 234.290,192.805 234.800,192.612 234.800 C 192.420 234.800,191.979 235.040,191.631 235.333 C 191.284 235.626,189.470 236.184,187.600 236.572 C 182.528 237.627,178.179 239.101,176.856 240.214 C 174.440 242.247,165.200 242.102,165.200 240.030 C 165.200 237.914,163.634 236.267,160.984 235.596 L 158.600 234.992 158.742 225.196 C 158.820 219.808,159.000 215.295,159.142 215.166 C 159.284 215.037,160.262 214.615,161.317 214.227 C 163.949 213.257,164.450 212.311,164.884 207.481 C 165.306 202.781,165.227 202.920,167.758 202.447 C 170.175 201.996,170.810 201.363,171.061 199.155 C 171.353 196.600,171.910 195.706,173.385 195.429 C 175.636 195.007,177.080 192.704,177.796 188.395 C 178.109 186.511,179.909 184.449,181.269 184.416 C 182.176 184.394,184.400 182.477,184.400 181.717 C 184.400 180.018,186.865 178.218,190.173 177.501 C 194.047 176.662,195.203 175.882,196.012 173.558 C 196.623 171.804,196.629 171.799,198.949 171.549 C 201.861 171.235,202.435 170.659,202.749 167.737 L 203.000 165.400 207.400 165.173 C 213.495 164.858,214.760 164.151,215.408 160.696 L 215.675 159.274 220.338 159.018 C 227.149 158.645,227.588 158.522,222.200 158.500 C 216.782 158.477,215.662 158.682,215.038 159.807 C 213.119 163.265,211.518 164.177,206.600 164.613 C 203.020 164.930,202.560 165.159,202.198 166.809 C 201.775 168.735,200.509 169.946,198.223 170.611 C 196.011 171.254,195.078 171.996,194.630 173.471 C 194.254 174.706,191.936 175.964,188.045 177.045 C 186.200 177.557,184.654 178.027,184.610 178.088 C 184.566 178.150,184.125 179.054,183.630 180.097 C 182.642 182.182,181.285 183.348,179.224 183.882 C 177.942 184.214,177.829 184.397,176.905 187.616 C 176.370 189.477,175.678 191.284,175.367 191.631 C 175.055 191.979,174.800 192.460,174.800 192.702 C 174.800 192.943,174.035 193.562,173.101 194.078 C 171.723 194.837,171.236 195.430,170.529 197.208 C 169.464 199.886,168.456 201.075,166.948 201.433 C 164.732 201.958,164.138 202.927,163.840 206.501 C 163.538 210.123,162.450 212.149,160.388 212.927 C 158.568 213.614,158.366 214.405,158.201 221.530 C 158.086 226.484,157.839 229.023,157.239 231.400 L 156.431 234.600 157.516 235.505 C 158.112 236.003,159.368 236.785,160.306 237.243 C 161.427 237.791,162.351 238.657,163.003 239.770 C 164.463 242.261,165.174 242.506,170.243 242.274 C 178.419 241.898,190.030 239.348,191.718 237.557 C 192.622 236.597,195.822 234.971,197.400 234.669 C 203.615 233.480,203.157 233.681,204.459 231.567 C 205.124 230.485,205.793 229.600,205.945 229.600 C 206.097 229.600,206.844 229.031,207.605 228.336 C 208.366 227.641,209.711 226.912,210.594 226.717 C 212.981 226.188,215.080 224.658,215.396 223.218 L 215.664 222.000 218.992 222.000 L 222.319 222.000 222.508 220.300 C 222.835 217.359,223.120 216.758,225.287 214.438 C 229.825 209.578,230.416 208.963,231.599 207.864 C 232.328 207.187,233.020 205.984,233.311 204.889 C 233.671 203.535,234.108 202.885,234.966 202.425 C 238.361 200.606,240.141 198.216,240.594 194.873 C 240.801 193.349,241.033 192.804,241.412 192.949 C 241.703 193.061,242.144 192.908,242.392 192.610 C 242.710 192.226,243.178 192.164,243.995 192.398 C 244.910 192.661,245.103 192.613,244.932 192.166 C 244.763 191.727,244.989 191.658,245.958 191.852 C 247.095 192.079,247.200 192.011,247.200 191.050 C 247.200 190.426,246.977 190.000,246.650 190.000 C 245.562 190.000,245.289 185.517,246.015 179.590 C 246.549 175.232,246.627 175.007,247.790 174.477 C 250.174 173.391,252.409 167.180,251.575 163.961 C 251.324 162.992,251.031 161.551,250.923 160.757 C 250.728 159.321,250.715 159.312,248.063 158.861 C 242.240 157.869,235.337 157.525,230.400 157.980 M314.873 208.887 C 314.582 209.178,314.400 210.689,314.400 212.821 C 314.400 217.019,313.639 218.458,310.593 220.024 C 309.113 220.785,308.575 221.300,308.504 222.024 C 308.408 222.997,308.409 222.997,308.791 222.100 C 309.012 221.581,309.524 221.200,310.000 221.200 C 313.598 221.200,314.939 219.146,315.214 213.218 C 315.459 207.923,315.487 208.273,314.873 208.887 " stroke="none" fill="#343c51" fill-rule="evenodd"></path></g></svg>