<?xml version="1.0" standalone="no"?>
<!DOCTYPE svg PUBLIC "-//W3C//DTD SVG 20010904//EN"
 "http://www.w3.org/TR/2001/REC-SVG-20010904/DTD/svg10.dtd">
<svg version="1.0" xmlns="http://www.w3.org/2000/svg"
 width="32.000000pt" height="32.000000pt" viewBox="0 0 32.000000 32.000000"
 preserveAspectRatio="xMidYMid meet">

<g transform="translate(0.000000,32.000000) scale(0.100000,-0.100000)"
fill="#000000" stroke="none">
<path d="M198 223 c7 -3 16 -2 19 1 4 3 -2 6 -13 5 -11 0 -14 -3 -6 -6z"/>
<path d="M18 197 c-20 -104 81 -198 180 -169 72 22 122 104 102 170 -5 15 -9
21 -9 15 -1 -8 -16 -13 -41 -13 -22 0 -40 -4 -40 -10 0 -5 -18 -10 -40 -10
-22 0 -40 -4 -40 -10 0 -5 14 -10 30 -10 17 0 30 -4 30 -10 0 -5 -12 -10 -26
-10 -22 0 -25 -2 -14 -15 7 -8 25 -15 41 -15 19 0 29 -5 29 -15 0 -23 -75 -20
-97 4 -37 40 -44 51 -38 60 10 17 -7 41 -30 41 -13 0 -25 6 -28 13 -2 6 -6 -1
-9 -16z"/>
</g>
</svg>
