<svg id="svg" version="1.1" xmlns="http://www.w3.org/2000/svg" xmlns:xlink="http://www.w3.org/1999/xlink" width="400" height="400" viewBox="0, 0, 400,400"><g id="svgg"><path id="path0" d="M218.701 94.633 C 218.573 94.761,215.050 95.019,210.872 95.207 C 206.695 95.395,202.494 95.759,201.538 96.017 C 200.582 96.274,198.630 96.616,197.200 96.776 L 194.600 97.067 196.000 97.704 C 196.770 98.055,197.615 98.697,197.878 99.130 C 198.140 99.563,199.445 100.682,200.778 101.617 L 203.200 103.316 203.200 109.368 L 203.200 115.419 206.200 118.508 C 207.850 120.207,209.200 121.752,209.200 121.941 C 209.200 122.427,198.544 123.609,194.000 123.627 C 191.910 123.635,188.850 123.884,187.200 124.179 C 185.550 124.474,181.950 124.732,179.200 124.751 C 165.733 124.847,153.893 125.641,151.600 126.601 C 150.390 127.107,148.851 127.636,148.181 127.775 C 147.115 127.996,146.949 128.213,146.863 129.497 C 146.656 132.567,145.397 133.773,141.950 134.203 C 140.155 134.427,140.095 134.479,139.892 135.989 C 139.592 138.226,137.657 140.000,135.517 140.000 C 134.850 140.000,134.356 140.421,133.791 141.472 C 132.500 143.873,131.628 144.772,129.590 145.805 C 128.528 146.343,127.550 147.129,127.415 147.551 C 126.930 149.081,124.777 151.596,123.305 152.352 C 122.414 152.810,121.473 153.741,121.000 154.632 C 120.130 156.271,117.510 158.400,116.364 158.400 C 113.983 158.400,115.050 161.886,118.130 164.169 C 121.373 166.574,122.660 166.677,125.569 164.764 C 127.571 163.446,127.534 163.453,131.574 163.590 C 133.457 163.653,134.751 163.894,135.102 164.245 C 135.546 164.689,137.789 164.805,146.329 164.827 C 152.198 164.842,163.261 164.992,170.912 165.160 C 186.628 165.506,188.328 165.324,194.000 162.701 C 195.650 161.938,198.007 161.021,199.237 160.664 C 200.467 160.307,201.973 159.621,202.584 159.141 C 203.644 158.308,203.750 158.298,204.947 158.923 C 207.248 160.125,209.767 160.728,213.600 160.994 C 221.947 161.576,223.981 162.222,224.980 164.613 C 225.436 165.705,225.922 166.042,228.080 166.760 C 231.591 167.928,232.214 168.457,233.203 171.103 C 234.112 173.535,235.006 174.800,235.816 174.800 C 239.940 174.800,239.514 190.731,235.306 193.864 C 234.698 194.317,233.528 196.018,232.706 197.644 C 231.421 200.184,230.943 200.741,229.306 201.600 C 227.662 202.462,227.315 202.868,226.783 204.549 C 226.102 206.702,224.452 208.400,223.040 208.400 C 221.991 208.400,220.800 209.540,220.800 210.544 C 220.800 212.415,219.672 213.946,217.931 214.440 C 215.573 215.109,215.144 215.597,214.755 218.060 C 214.364 220.533,213.472 221.408,210.962 221.785 C 209.306 222.033,209.297 222.043,209.026 224.086 C 208.614 227.191,208.348 227.481,205.607 227.799 L 203.200 228.079 203.200 231.239 L 203.200 234.400 200.000 234.400 C 196.661 234.400,195.405 235.261,197.900 235.840 C 198.505 235.980,199.389 236.338,199.866 236.634 C 200.664 237.131,200.763 237.081,201.145 235.987 C 201.422 235.191,201.829 234.800,202.379 234.800 C 203.619 234.800,203.637 264.883,202.400 268.400 C 201.331 271.440,201.381 272.855,202.600 274.000 C 203.545 274.888,203.600 274.896,203.600 274.150 C 203.600 273.189,204.329 272.400,205.216 272.400 C 205.576 272.400,206.072 271.960,206.317 271.422 C 206.613 270.773,207.215 270.358,208.105 270.191 C 209.094 270.006,209.560 269.642,209.873 268.812 C 210.434 267.326,211.997 266.347,214.206 266.098 C 215.873 265.910,216.000 265.814,216.000 264.735 C 216.000 261.694,218.097 259.600,221.143 259.600 C 222.159 259.600,222.345 259.420,222.571 258.212 C 222.956 256.163,224.572 254.469,226.637 253.949 C 228.210 253.553,228.447 253.337,228.875 251.907 C 229.482 249.880,231.067 248.286,233.070 247.686 C 234.407 247.286,234.755 246.931,235.469 245.242 C 236.363 243.124,238.504 241.600,240.584 241.600 C 241.342 241.600,241.600 241.391,241.600 240.780 C 241.600 238.778,243.449 236.627,245.874 235.809 C 247.019 235.422,247.585 234.907,248.140 233.747 C 249.113 231.713,250.195 230.576,251.740 229.966 C 253.503 229.270,254.255 228.546,255.193 226.647 C 255.808 225.401,256.516 224.743,258.103 223.944 C 259.766 223.107,260.407 222.488,261.200 220.951 C 261.972 219.455,262.695 218.739,264.372 217.807 C 266.014 216.895,266.850 216.079,267.797 214.467 C 268.628 213.050,269.689 211.935,270.954 211.147 C 272.521 210.172,273.079 209.484,274.089 207.281 C 274.764 205.806,275.987 203.786,276.806 202.791 C 278.625 200.580,280.122 197.649,280.759 195.051 C 281.267 192.978,282.672 189.981,284.264 187.575 C 288.947 180.498,288.448 145.293,283.579 139.234 C 282.895 138.383,281.671 135.642,280.612 132.592 C 279.439 129.213,278.493 127.144,277.905 126.666 C 275.464 124.684,274.800 123.921,274.797 123.097 C 274.793 121.560,274.349 121.027,265.542 111.976 C 263.619 110.000,261.512 108.337,259.460 107.176 C 257.550 106.096,256.099 104.974,255.756 104.312 C 255.086 103.020,254.068 102.400,251.493 101.718 C 249.546 101.202,244.658 98.642,242.731 97.130 C 241.557 96.208,239.959 95.885,232.200 95.000 C 227.001 94.408,219.140 94.194,218.701 94.633 M160.110 133.555 C 160.906 134.903,160.770 135.075,157.905 136.324 C 156.433 136.966,155.865 137.490,155.357 138.675 C 154.997 139.514,154.570 140.470,154.408 140.800 C 153.895 141.843,147.771 141.656,147.890 140.600 C 148.455 135.587,148.709 134.650,149.660 134.055 C 150.334 133.634,156.046 132.627,158.814 132.441 C 159.151 132.419,159.734 132.920,160.110 133.555 M211.997 153.058 C 212.462 153.207,212.373 153.425,211.597 154.036 C 209.557 155.645,209.234 155.712,208.739 154.627 C 207.885 152.751,209.145 152.144,211.997 153.058 M195.963 277.237 L 195.127 278.073 195.997 278.683 C 196.637 279.132,196.985 279.175,197.314 278.846 C 197.559 278.601,198.205 278.400,198.750 278.400 L 199.739 278.400 198.800 277.400 C 197.655 276.181,197.053 276.147,195.963 277.237 " stroke="none" fill="#db59be" fill-rule="evenodd"></path><path id="path1" d="M0.000 200.000 L 0.000 400.000 200.000 400.000 L 400.000 400.000 400.000 200.000 L 400.000 0.000 200.000 0.000 L 0.000 0.000 0.000 200.000 M230.854 87.353 C 234.419 88.180,237.528 89.393,238.556 90.358 C 239.064 90.836,240.418 91.315,241.960 91.563 C 246.722 92.329,249.629 93.532,251.578 95.543 C 252.802 96.805,254.040 97.608,255.550 98.117 C 258.095 98.977,259.206 99.748,262.431 102.894 C 263.725 104.156,265.594 105.569,266.586 106.035 C 267.877 106.642,268.896 107.593,270.174 109.384 C 271.179 110.792,272.469 112.097,273.125 112.369 C 273.985 112.725,274.691 113.641,275.822 115.869 C 276.694 117.586,278.497 120.145,280.008 121.809 C 282.283 124.314,282.768 125.119,283.396 127.442 C 283.967 129.549,284.467 130.469,285.646 131.576 C 287.647 133.457,288.552 135.937,289.800 142.960 C 290.413 146.416,291.248 149.682,291.858 151.014 C 294.001 155.695,294.049 168.020,291.953 175.600 C 291.497 177.250,290.775 180.668,290.348 183.197 C 288.949 191.483,287.814 194.744,285.772 196.350 C 285.028 196.936,284.313 198.374,283.316 201.288 C 281.695 206.030,281.083 207.010,279.021 208.164 C 277.980 208.747,277.367 209.461,277.005 210.514 C 276.206 212.838,274.729 214.762,273.359 215.264 C 272.504 215.577,271.964 216.143,271.624 217.085 C 270.916 219.042,269.045 221.015,267.195 221.755 C 266.318 222.106,265.600 222.664,265.600 222.996 C 265.600 224.024,262.852 226.699,261.017 227.458 C 259.558 228.062,259.185 228.448,258.764 229.791 C 258.107 231.888,257.078 233.006,255.021 233.857 C 253.687 234.408,253.204 234.897,252.636 236.271 C 251.839 238.197,250.253 239.712,248.290 240.422 C 247.369 240.755,246.656 241.476,245.890 242.848 C 245.124 244.221,244.236 245.117,242.900 245.869 C 241.460 246.679,240.770 247.415,240.050 248.910 C 239.131 250.816,236.281 253.200,234.922 253.200 C 234.635 253.200,234.400 253.435,234.400 253.722 C 234.400 255.231,232.048 257.902,230.104 258.601 C 228.533 259.166,228.024 259.577,227.665 260.572 C 227.086 262.171,224.274 265.116,223.025 265.430 C 222.447 265.575,221.970 266.065,221.818 266.670 C 221.488 267.984,217.958 271.495,216.632 271.828 C 216.010 271.984,215.502 272.453,215.365 272.996 C 215.063 274.200,213.018 276.141,210.836 277.294 C 209.487 278.007,208.944 278.594,208.531 279.787 C 207.837 281.793,207.098 282.584,204.951 283.624 C 203.650 284.254,203.017 284.891,202.458 286.134 C 201.567 288.115,200.314 289.343,198.341 290.167 C 197.364 290.575,196.541 291.371,195.815 292.611 C 195.124 293.790,193.958 294.948,192.568 295.837 C 191.376 296.600,190.400 297.462,190.400 297.752 C 190.400 298.870,188.008 301.525,186.223 302.389 C 184.963 302.999,184.134 303.749,183.623 304.742 C 182.662 306.610,180.909 308.224,179.473 308.563 C 178.794 308.723,178.079 309.315,177.673 310.054 C 176.374 312.417,175.557 313.162,172.890 314.415 C 171.411 315.110,169.664 316.221,169.009 316.884 C 164.803 321.141,144.947 320.772,141.871 316.379 C 141.572 315.954,139.257 315.031,136.053 314.061 C 132.699 313.045,130.264 312.064,129.466 311.408 C 128.770 310.835,127.435 309.799,126.500 309.106 C 125.236 308.169,124.588 307.281,123.976 305.643 L 123.151 303.440 124.188 300.598 C 125.104 298.085,125.608 297.391,128.557 294.579 C 130.390 292.830,134.030 289.245,136.645 286.611 C 139.260 283.976,145.274 277.946,150.009 273.211 C 154.744 268.475,159.448 263.700,160.463 262.600 C 161.477 261.500,164.497 258.530,167.172 256.000 C 169.848 253.470,173.217 249.915,174.660 248.100 C 176.102 246.285,177.438 244.800,177.627 244.800 C 177.817 244.800,181.713 241.009,186.286 236.375 C 190.859 231.741,195.090 227.466,195.690 226.875 C 196.289 226.284,199.409 223.190,202.624 220.000 C 205.838 216.810,209.837 212.850,211.510 211.200 C 220.938 201.900,224.227 198.444,225.287 196.720 C 225.937 195.664,226.599 194.800,226.759 194.800 C 227.100 194.800,228.233 193.747,229.505 192.248 C 230.146 191.493,230.536 190.278,230.840 188.091 C 231.076 186.391,231.285 184.910,231.305 184.800 C 232.206 179.806,228.321 173.028,223.226 170.706 C 221.571 169.951,203.557 169.150,197.200 169.548 C 196.430 169.597,181.850 169.712,164.800 169.804 C 131.253 169.986,129.287 170.111,127.527 172.162 C 127.131 172.623,125.972 173.831,124.950 174.846 C 122.745 177.038,121.460 178.333,118.903 180.939 C 105.957 194.130,104.406 195.189,100.114 193.765 C 94.104 191.772,94.000 191.356,94.000 169.200 C 94.000 151.404,94.285 148.351,96.181 145.800 C 96.671 145.140,97.776 143.264,98.636 141.631 C 99.496 139.998,100.754 138.108,101.431 137.431 C 105.274 133.586,108.482 130.866,109.462 130.620 C 110.075 130.466,112.202 129.560,114.188 128.607 C 119.763 125.931,119.965 125.897,131.113 125.781 C 136.675 125.724,141.445 125.515,141.713 125.318 C 141.981 125.122,143.100 124.734,144.200 124.458 C 146.880 123.784,147.876 123.071,148.617 121.298 C 149.421 119.372,150.671 118.037,152.329 117.331 C 153.059 117.020,153.959 116.215,154.329 115.543 C 155.767 112.924,157.168 111.306,158.578 110.637 C 159.387 110.254,160.159 109.638,160.295 109.270 C 160.880 107.680,162.589 106.004,164.596 105.054 C 165.783 104.492,166.968 103.620,167.227 103.116 C 168.134 101.358,169.420 100.296,172.200 99.009 C 173.740 98.296,175.648 97.075,176.441 96.295 C 178.681 94.089,183.038 92.278,188.200 91.407 C 189.080 91.259,190.250 90.719,190.800 90.208 C 192.331 88.785,197.814 87.287,203.800 86.657 C 207.887 86.226,228.259 86.750,230.854 87.353 " stroke="none" fill="#1f1113" fill-rule="evenodd"></path><path id="path2" d="M205.232 90.412 C 203.820 90.607,202.380 90.881,202.032 91.020 C 201.288 91.319,198.652 92.038,192.600 93.590 C 184.875 95.572,183.660 96.013,181.922 97.465 C 180.993 98.242,178.425 99.779,176.216 100.881 C 173.185 102.393,171.763 103.379,170.418 104.901 C 169.313 106.151,167.853 107.263,166.573 107.829 C 164.983 108.532,164.267 109.157,163.445 110.560 C 162.781 111.692,161.697 112.778,160.572 113.438 C 159.302 114.182,158.476 115.066,157.795 116.409 C 156.816 118.342,155.901 119.238,153.631 120.486 C 152.825 120.929,152.098 121.838,151.578 123.052 C 151.134 124.086,150.135 125.532,149.357 126.266 C 147.622 127.903,148.315 128.021,151.550 126.640 C 153.900 125.637,165.432 124.849,179.200 124.751 C 181.950 124.732,185.550 124.474,187.200 124.179 C 188.850 123.884,191.910 123.635,194.000 123.627 C 198.544 123.609,209.200 122.427,209.200 121.941 C 209.200 121.752,207.850 120.207,206.200 118.508 L 203.200 115.419 203.200 109.368 L 203.200 103.316 200.778 101.617 C 199.445 100.682,198.140 99.563,197.878 99.130 C 197.615 98.697,196.770 98.055,196.000 97.704 L 194.600 97.067 197.200 96.776 C 198.630 96.616,200.586 96.273,201.546 96.015 C 202.506 95.756,206.646 95.362,210.746 95.139 C 214.846 94.916,219.820 94.638,221.800 94.523 C 228.246 94.146,240.952 95.732,242.739 97.135 C 244.658 98.642,249.549 101.203,251.493 101.718 C 254.068 102.400,255.086 103.020,255.756 104.312 C 256.099 104.974,257.550 106.096,259.460 107.176 C 261.512 108.337,263.619 110.000,265.542 111.976 C 274.349 121.027,274.793 121.560,274.797 123.097 C 274.800 123.921,275.464 124.684,277.905 126.666 C 278.493 127.144,279.439 129.213,280.612 132.592 C 281.671 135.642,282.895 138.383,283.579 139.234 C 288.448 145.293,288.947 180.498,284.264 187.575 C 282.672 189.981,281.267 192.978,280.759 195.051 C 280.122 197.649,278.625 200.580,276.806 202.791 C 275.987 203.786,274.764 205.806,274.089 207.281 C 273.079 209.484,272.521 210.172,270.954 211.147 C 269.689 211.935,268.628 213.050,267.797 214.467 C 266.850 216.079,266.014 216.895,264.372 217.807 C 262.695 218.739,261.972 219.455,261.200 220.951 C 260.407 222.488,259.766 223.107,258.103 223.944 C 256.516 224.743,255.808 225.401,255.193 226.647 C 254.255 228.546,253.503 229.270,251.740 229.966 C 250.195 230.576,249.113 231.713,248.140 233.747 C 247.585 234.907,247.019 235.422,245.874 235.809 C 243.449 236.627,241.600 238.778,241.600 240.780 C 241.600 241.391,241.342 241.600,240.584 241.600 C 238.504 241.600,236.363 243.124,235.469 245.242 C 234.755 246.931,234.407 247.286,233.070 247.686 C 231.067 248.286,229.482 249.880,228.875 251.907 C 228.447 253.337,228.210 253.553,226.637 253.949 C 224.572 254.469,222.956 256.163,222.571 258.212 C 222.345 259.420,222.159 259.600,221.143 259.600 C 218.097 259.600,216.000 261.694,216.000 264.735 C 216.000 265.814,215.873 265.910,214.206 266.098 C 211.997 266.347,210.434 267.326,209.873 268.812 C 209.560 269.642,209.094 270.006,208.105 270.191 C 207.215 270.358,206.613 270.773,206.317 271.422 C 206.072 271.960,205.576 272.400,205.216 272.400 C 204.329 272.400,203.600 273.189,203.600 274.150 C 203.600 274.896,203.545 274.888,202.600 274.000 C 201.381 272.855,201.331 271.440,202.400 268.400 C 203.637 264.883,203.619 234.800,202.379 234.800 C 201.829 234.800,201.422 235.191,201.145 235.987 C 200.763 237.081,200.664 237.131,199.866 236.634 C 199.389 236.338,198.505 235.980,197.900 235.840 C 195.405 235.261,196.661 234.400,200.000 234.400 L 203.200 234.400 203.200 231.239 L 203.200 228.079 205.607 227.799 C 208.348 227.481,208.614 227.191,209.026 224.086 C 209.297 222.043,209.306 222.033,210.962 221.785 C 213.472 221.408,214.364 220.533,214.755 218.060 C 215.144 215.597,215.573 215.109,217.931 214.440 C 219.694 213.940,220.800 212.412,220.800 210.475 C 220.800 209.504,222.028 208.400,223.109 208.400 C 224.457 208.400,226.115 206.662,226.783 204.549 C 227.315 202.868,227.662 202.462,229.306 201.600 C 230.943 200.741,231.421 200.184,232.706 197.644 C 233.528 196.018,234.698 194.317,235.306 193.864 C 239.514 190.731,239.940 174.800,235.816 174.800 C 235.006 174.800,234.112 173.535,233.203 171.103 C 232.214 168.457,231.591 167.928,228.080 166.760 C 225.922 166.042,225.436 165.705,224.980 164.613 C 223.981 162.222,221.947 161.576,213.600 160.994 C 209.767 160.728,207.248 160.125,204.947 158.923 C 203.750 158.298,203.644 158.308,202.584 159.141 C 201.973 159.621,200.467 160.307,199.237 160.664 C 198.007 161.021,195.650 161.938,194.000 162.701 C 188.328 165.324,186.628 165.506,170.912 165.160 C 147.405 164.643,136.000 164.706,136.000 165.355 C 136.000 166.284,138.396 166.379,163.400 166.442 C 188.679 166.505,188.868 166.495,193.600 164.901 C 196.942 163.774,197.926 163.741,201.400 164.634 C 202.869 165.012,206.206 165.310,210.000 165.402 C 220.161 165.651,227.341 167.587,230.231 170.859 C 233.662 174.744,237.137 182.571,236.680 185.385 C 236.123 188.814,231.287 196.590,227.225 200.585 C 225.891 201.897,224.800 203.180,224.800 203.437 C 224.800 203.693,223.587 204.959,222.104 206.251 C 218.629 209.279,209.279 218.629,206.251 222.104 C 204.959 223.587,203.713 224.800,203.482 224.800 C 203.250 224.800,200.465 227.455,197.291 230.700 C 189.625 238.539,187.653 240.514,180.741 247.272 C 177.519 250.422,174.763 253.403,174.616 253.897 C 174.469 254.390,173.283 255.613,171.980 256.615 C 170.678 257.617,169.128 259.072,168.537 259.847 C 167.946 260.622,166.682 261.794,165.728 262.450 C 164.774 263.106,163.278 264.611,162.404 265.795 C 161.530 266.978,160.316 268.241,159.707 268.602 C 159.098 268.962,157.750 270.397,156.712 271.790 C 155.597 273.286,154.213 274.625,153.330 275.061 C 152.509 275.468,151.018 276.836,150.018 278.102 C 149.018 279.369,147.435 280.945,146.500 281.605 C 145.565 282.265,144.800 283.006,144.800 283.251 C 144.800 283.496,141.060 287.415,136.489 291.959 C 131.918 296.503,127.670 300.886,127.049 301.700 L 125.921 303.178 126.781 304.569 C 127.335 305.466,128.379 306.306,129.720 306.935 C 130.864 307.471,132.413 308.374,133.162 308.943 C 133.910 309.511,136.340 310.520,138.562 311.185 C 146.040 313.424,149.390 314.542,151.400 315.469 C 155.320 317.278,159.407 316.683,167.000 313.198 C 167.880 312.794,169.667 312.045,170.971 311.532 C 172.823 310.804,173.616 310.210,174.591 308.820 C 175.278 307.841,176.632 306.482,177.600 305.800 C 178.568 305.118,179.923 303.759,180.610 302.780 C 181.298 301.801,182.594 300.505,183.491 299.900 C 184.387 299.295,185.634 298.158,186.261 297.372 C 186.887 296.587,187.940 295.413,188.600 294.763 C 190.140 293.246,193.246 290.140,194.763 288.600 C 195.413 287.940,196.607 286.870,197.417 286.222 C 198.226 285.574,199.322 284.357,199.852 283.518 C 200.382 282.679,201.667 281.463,202.708 280.817 C 203.799 280.140,205.192 278.758,206.000 277.552 C 206.813 276.338,208.071 275.093,209.000 274.583 C 209.951 274.061,211.197 272.815,212.072 271.511 C 212.922 270.245,214.105 269.051,214.872 268.687 C 216.376 267.972,217.946 266.397,219.007 264.538 C 219.404 263.843,220.374 262.911,221.164 262.467 C 222.928 261.473,224.616 259.711,224.991 258.472 C 225.145 257.962,226.240 256.925,227.423 256.168 C 228.697 255.353,230.091 254.002,230.843 252.853 C 231.542 251.786,232.983 250.343,234.047 249.647 C 235.111 248.951,236.558 247.500,237.262 246.424 C 237.967 245.347,239.186 244.086,239.972 243.621 C 240.757 243.156,241.850 242.226,242.400 241.555 C 242.950 240.884,244.030 239.718,244.800 238.965 C 246.093 237.700,247.316 236.484,251.300 232.500 C 252.124 231.675,253.564 230.252,254.500 229.337 C 255.435 228.423,256.713 227.028,257.339 226.237 C 257.966 225.447,258.710 224.800,258.993 224.800 C 259.276 224.800,260.113 224.068,260.854 223.174 C 262.706 220.937,264.859 218.785,266.399 217.632 C 267.110 217.099,268.221 215.802,268.869 214.750 C 269.516 213.698,270.677 212.447,271.449 211.970 C 272.914 211.064,274.489 208.907,274.931 207.200 C 275.073 206.650,275.929 205.390,276.833 204.400 C 278.822 202.220,279.990 200.002,281.366 195.788 C 281.938 194.035,282.921 191.882,283.550 191.001 C 288.623 183.898,289.927 157.618,285.950 142.636 C 285.721 141.775,284.753 139.615,283.798 137.836 C 282.843 136.056,281.491 132.952,280.794 130.938 C 279.640 127.604,277.809 124.800,276.787 124.800 C 276.612 124.800,275.811 123.467,275.006 121.838 C 274.201 120.208,272.963 118.273,272.255 117.538 C 271.547 116.802,269.378 114.445,267.435 112.300 C 265.491 110.155,263.715 108.400,263.487 108.400 C 262.919 108.400,259.395 105.676,257.149 103.500 C 255.885 102.276,254.385 101.359,252.419 100.607 C 250.835 100.002,248.699 98.866,247.672 98.082 C 245.338 96.300,242.475 95.196,235.600 93.426 C 232.630 92.662,228.850 91.645,227.200 91.166 C 223.827 90.186,210.245 89.720,205.232 90.412 M208.787 153.016 C 208.010 153.951,208.931 155.783,209.898 155.226 C 211.682 154.201,212.601 153.252,211.997 153.058 C 210.123 152.458,209.260 152.446,208.787 153.016 M198.800 277.400 L 199.739 278.400 198.750 278.400 C 198.205 278.400,197.559 278.601,197.314 278.846 C 196.985 279.175,196.637 279.132,195.997 278.683 L 195.127 278.073 195.963 277.237 C 197.053 276.147,197.655 276.181,198.800 277.400 " stroke="none" fill="#d5547b" fill-rule="evenodd"></path><path id="path3" d="M143.600 127.617 C 142.390 127.784,137.046 127.939,131.725 127.960 C 117.972 128.017,110.763 129.868,106.180 134.519 C 104.836 135.884,103.077 137.588,102.271 138.307 C 101.465 139.027,100.367 140.467,99.830 141.507 C 99.294 142.548,98.218 144.375,97.440 145.567 C 94.919 149.428,94.742 151.138,94.883 170.212 C 94.998 185.801,95.064 187.156,95.803 189.181 L 96.600 191.362 99.914 192.541 C 104.051 194.012,106.211 192.678,114.061 183.800 C 114.645 183.140,115.876 181.991,116.796 181.248 C 117.717 180.504,119.005 179.158,119.658 178.257 C 120.311 177.355,121.636 176.103,122.603 175.474 C 123.570 174.845,124.925 173.452,125.614 172.379 C 126.826 170.489,133.294 166.400,135.070 166.400 C 136.007 166.400,136.156 165.204,135.316 164.422 C 134.726 163.873,133.787 163.664,131.565 163.589 C 127.535 163.453,127.571 163.446,125.569 164.764 C 122.660 166.677,121.373 166.574,118.130 164.169 C 115.050 161.886,113.983 158.400,116.364 158.400 C 117.510 158.400,120.130 156.271,121.000 154.632 C 121.473 153.741,122.414 152.810,123.305 152.352 C 124.777 151.596,126.930 149.081,127.415 147.551 C 127.550 147.129,128.528 146.343,129.590 145.805 C 131.628 144.772,132.500 143.873,133.791 141.472 C 134.356 140.421,134.850 140.000,135.517 140.000 C 137.657 140.000,139.592 138.226,139.892 135.989 C 140.095 134.479,140.155 134.427,141.950 134.203 C 145.402 133.772,146.656 132.568,146.864 129.483 C 146.924 128.587,147.169 128.000,147.482 128.000 C 147.767 128.000,148.000 127.820,148.000 127.600 C 148.000 127.157,146.895 127.161,143.600 127.617 M154.348 133.008 C 148.599 133.793,148.666 133.714,147.890 140.600 C 147.771 141.656,153.895 141.843,154.408 140.800 C 154.570 140.470,154.997 139.514,155.357 138.675 C 155.865 137.490,156.433 136.966,157.905 136.324 C 160.770 135.075,160.906 134.903,160.110 133.555 C 159.734 132.920,159.151 132.419,158.814 132.441 C 158.476 132.464,156.466 132.719,154.348 133.008 " stroke="none" fill="#5440ca" fill-rule="evenodd"></path><path id="path4" d="M203.800 86.657 C 197.814 87.287,192.331 88.785,190.800 90.208 C 190.250 90.719,189.080 91.259,188.200 91.407 C 183.038 92.278,178.681 94.089,176.441 96.295 C 175.648 97.075,173.740 98.296,172.200 99.009 C 169.420 100.296,168.134 101.358,167.227 103.116 C 166.968 103.620,165.783 104.492,164.596 105.054 C 162.589 106.004,160.880 107.680,160.295 109.270 C 160.159 109.638,159.387 110.254,158.578 110.637 C 157.168 111.306,155.767 112.924,154.329 115.543 C 153.959 116.215,153.059 117.020,152.329 117.331 C 150.671 118.037,149.421 119.372,148.617 121.298 C 147.876 123.071,146.880 123.784,144.200 124.458 C 143.100 124.734,141.981 125.122,141.713 125.318 C 141.445 125.515,136.675 125.724,131.113 125.781 C 119.965 125.897,119.763 125.931,114.188 128.607 C 112.202 129.560,110.075 130.466,109.462 130.620 C 108.482 130.866,105.274 133.586,101.431 137.431 C 100.754 138.108,99.496 139.998,98.636 141.631 C 97.776 143.264,96.671 145.140,96.181 145.800 C 94.285 148.351,94.000 151.404,94.000 169.200 C 94.000 191.356,94.104 191.772,100.114 193.765 C 104.406 195.189,105.957 194.130,118.903 180.939 C 121.460 178.333,122.745 177.038,124.950 174.846 C 125.972 173.831,127.131 172.623,127.527 172.162 C 129.287 170.111,131.253 169.986,164.800 169.804 C 181.850 169.712,196.430 169.597,197.200 169.548 C 203.557 169.150,221.571 169.951,223.226 170.706 C 228.321 173.028,232.206 179.806,231.305 184.800 C 231.285 184.910,231.076 186.391,230.840 188.091 C 230.536 190.278,230.146 191.493,229.505 192.248 C 228.233 193.747,227.100 194.800,226.759 194.800 C 226.599 194.800,225.937 195.664,225.287 196.720 C 224.227 198.444,220.938 201.900,211.510 211.200 C 209.837 212.850,205.838 216.810,202.624 220.000 C 199.409 223.190,196.289 226.284,195.690 226.875 C 195.090 227.466,190.859 231.741,186.286 236.375 C 181.713 241.009,177.817 244.800,177.627 244.800 C 177.438 244.800,176.102 246.285,174.660 248.100 C 173.217 249.915,169.848 253.470,167.172 256.000 C 164.497 258.530,161.477 261.500,160.463 262.600 C 159.448 263.700,154.744 268.475,150.009 273.211 C 145.274 277.946,139.260 283.976,136.645 286.611 C 134.030 289.245,130.390 292.830,128.557 294.579 C 125.608 297.391,125.104 298.085,124.188 300.598 L 123.151 303.440 123.976 305.643 C 124.588 307.281,125.236 308.169,126.500 309.106 C 127.435 309.799,128.770 310.835,129.466 311.408 C 130.264 312.064,132.699 313.045,136.053 314.061 C 139.257 315.031,141.572 315.954,141.871 316.379 C 144.947 320.772,164.803 321.141,169.009 316.884 C 169.664 316.221,171.411 315.110,172.890 314.415 C 175.557 313.162,176.374 312.417,177.673 310.054 C 178.079 309.315,178.794 308.723,179.473 308.563 C 180.909 308.224,182.662 306.610,183.623 304.742 C 184.134 303.749,184.963 302.999,186.223 302.389 C 188.008 301.525,190.400 298.870,190.400 297.752 C 190.400 297.462,191.376 296.600,192.568 295.837 C 193.958 294.948,195.124 293.790,195.815 292.611 C 196.541 291.371,197.364 290.575,198.341 290.167 C 200.314 289.343,201.567 288.115,202.458 286.134 C 203.017 284.891,203.650 284.254,204.951 283.624 C 207.098 282.584,207.837 281.793,208.531 279.787 C 208.944 278.594,209.487 278.007,210.836 277.294 C 213.018 276.141,215.063 274.200,215.365 272.996 C 215.502 272.453,216.010 271.984,216.632 271.828 C 217.958 271.495,221.488 267.984,221.818 266.670 C 221.970 266.065,222.447 265.575,223.025 265.430 C 224.274 265.116,227.086 262.171,227.665 260.572 C 228.024 259.577,228.533 259.166,230.104 258.601 C 232.048 257.902,234.400 255.231,234.400 253.722 C 234.400 253.435,234.635 253.200,234.922 253.200 C 236.281 253.200,239.131 250.816,240.050 248.910 C 240.770 247.415,241.460 246.679,242.900 245.869 C 244.236 245.117,245.124 244.221,245.890 242.848 C 246.656 241.476,247.369 240.755,248.290 240.422 C 250.253 239.712,251.839 238.197,252.636 236.271 C 253.204 234.897,253.687 234.408,255.021 233.857 C 257.078 233.006,258.107 231.888,258.764 229.791 C 259.185 228.448,259.558 228.062,261.017 227.458 C 262.852 226.699,265.600 224.024,265.600 222.996 C 265.600 222.664,266.318 222.106,267.195 221.755 C 269.045 221.015,270.916 219.042,271.624 217.085 C 271.964 216.143,272.504 215.577,273.359 215.264 C 274.729 214.762,276.206 212.838,277.005 210.514 C 277.367 209.461,277.980 208.747,279.021 208.164 C 281.083 207.010,281.695 206.030,283.316 201.288 C 284.313 198.374,285.028 196.936,285.772 196.350 C 287.814 194.744,288.949 191.483,290.348 183.197 C 290.775 180.668,291.497 177.250,291.953 175.600 C 294.049 168.020,294.001 155.695,291.858 151.014 C 291.248 149.682,290.413 146.416,289.800 142.960 C 288.552 135.937,287.647 133.457,285.646 131.576 C 284.467 130.469,283.967 129.549,283.396 127.442 C 282.768 125.119,282.283 124.314,280.008 121.809 C 278.497 120.145,276.694 117.586,275.822 115.869 C 274.691 113.641,273.985 112.725,273.125 112.369 C 272.469 112.097,271.179 110.792,270.174 109.384 C 268.896 107.593,267.877 106.642,266.586 106.035 C 265.594 105.569,263.725 104.156,262.431 102.894 C 259.206 99.748,258.095 98.977,255.550 98.117 C 254.040 97.608,252.802 96.805,251.578 95.543 C 249.629 93.532,246.722 92.329,241.960 91.563 C 240.418 91.315,239.064 90.836,238.556 90.358 C 237.528 89.393,234.419 88.180,230.854 87.353 C 228.259 86.750,207.887 86.226,203.800 86.657 M227.200 91.166 C 228.850 91.645,232.630 92.662,235.600 93.426 C 242.475 95.196,245.338 96.300,247.672 98.082 C 248.699 98.866,250.835 100.002,252.419 100.607 C 254.385 101.359,255.885 102.276,257.149 103.500 C 259.395 105.676,262.919 108.400,263.487 108.400 C 263.715 108.400,265.491 110.155,267.435 112.300 C 269.378 114.445,271.547 116.802,272.255 117.538 C 272.963 118.273,274.201 120.208,275.006 121.838 C 275.811 123.467,276.612 124.800,276.787 124.800 C 277.809 124.800,279.640 127.604,280.794 130.938 C 281.491 132.952,282.843 136.056,283.798 137.836 C 289.966 149.327,289.812 182.233,283.550 191.001 C 282.921 191.882,281.938 194.035,281.366 195.788 C 279.990 200.002,278.822 202.220,276.833 204.400 C 275.929 205.390,275.073 206.650,274.931 207.200 C 274.489 208.907,272.914 211.064,271.449 211.970 C 270.677 212.447,269.516 213.698,268.869 214.750 C 268.221 215.802,267.110 217.099,266.399 217.632 C 264.859 218.785,262.706 220.937,260.854 223.174 C 260.113 224.068,259.276 224.800,258.993 224.800 C 258.710 224.800,257.966 225.447,257.339 226.237 C 256.713 227.028,255.435 228.423,254.500 229.337 C 253.564 230.252,252.124 231.675,251.300 232.500 C 247.316 236.484,246.093 237.700,244.800 238.965 C 244.030 239.718,242.950 240.884,242.400 241.555 C 241.850 242.226,240.757 243.156,239.972 243.621 C 239.186 244.086,237.967 245.347,237.262 246.424 C 236.558 247.500,235.111 248.951,234.047 249.647 C 232.983 250.343,231.542 251.786,230.843 252.853 C 230.091 254.002,228.697 255.353,227.423 256.168 C 226.240 256.925,225.145 257.962,224.991 258.472 C 224.616 259.711,222.928 261.473,221.164 262.467 C 220.374 262.911,219.404 263.843,219.007 264.538 C 217.946 266.397,216.376 267.972,214.872 268.687 C 214.105 269.051,212.922 270.245,212.072 271.511 C 211.197 272.815,209.951 274.061,209.000 274.583 C 208.071 275.093,206.813 276.338,206.000 277.552 C 205.192 278.758,203.799 280.140,202.708 280.817 C 201.667 281.463,200.382 282.679,199.852 283.518 C 199.322 284.357,198.226 285.574,197.417 286.222 C 196.607 286.870,195.413 287.940,194.763 288.600 C 193.246 290.140,190.140 293.246,188.600 294.763 C 187.940 295.413,186.887 296.587,186.261 297.372 C 185.634 298.158,184.387 299.295,183.491 299.900 C 182.594 300.505,181.298 301.801,180.610 302.780 C 179.923 303.759,178.568 305.118,177.600 305.800 C 176.632 306.482,175.278 307.841,174.591 308.820 C 173.616 310.210,172.823 310.804,170.971 311.532 C 169.667 312.045,167.880 312.794,167.000 313.198 C 159.407 316.683,155.320 317.278,151.400 315.469 C 149.390 314.542,146.040 313.424,138.562 311.185 C 136.340 310.520,133.910 309.511,133.162 308.943 C 132.413 308.374,130.864 307.471,129.720 306.935 C 128.379 306.306,127.335 305.466,126.781 304.569 L 125.921 303.178 127.049 301.700 C 127.670 300.886,131.918 296.503,136.489 291.959 C 141.060 287.415,144.800 283.496,144.800 283.251 C 144.800 283.006,145.565 282.265,146.500 281.605 C 147.435 280.945,149.018 279.369,150.018 278.102 C 151.018 276.836,152.509 275.468,153.330 275.061 C 154.213 274.625,155.597 273.286,156.712 271.790 C 157.750 270.397,159.098 268.962,159.707 268.602 C 160.316 268.241,161.530 266.978,162.404 265.795 C 163.278 264.611,164.774 263.106,165.728 262.450 C 166.682 261.794,167.946 260.622,168.537 259.847 C 169.128 259.072,170.678 257.617,171.980 256.615 C 173.283 255.613,174.469 254.390,174.616 253.897 C 174.763 253.403,177.519 250.422,180.741 247.272 C 187.653 240.514,189.625 238.539,197.291 230.700 C 200.465 227.455,203.250 224.800,203.482 224.800 C 203.713 224.800,204.959 223.587,206.251 222.104 C 209.279 218.629,218.629 209.279,222.104 206.251 C 223.587 204.959,224.800 203.693,224.800 203.437 C 224.800 203.180,225.891 201.897,227.225 200.585 C 231.287 196.590,236.123 188.814,236.680 185.385 C 237.137 182.571,233.662 174.744,230.231 170.859 C 227.341 167.587,220.161 165.651,210.000 165.402 C 206.206 165.310,202.869 165.012,201.400 164.634 C 197.916 163.738,196.937 163.774,193.600 164.919 C 190.041 166.140,184.233 166.983,181.647 166.654 C 180.631 166.525,169.630 166.400,157.200 166.376 L 134.600 166.333 130.733 168.380 C 127.464 170.110,126.673 170.728,125.614 172.379 C 124.925 173.452,123.570 174.845,122.603 175.474 C 121.636 176.103,120.311 177.355,119.658 178.257 C 119.005 179.158,117.717 180.504,116.796 181.248 C 115.876 181.991,114.645 183.140,114.061 183.800 C 106.211 192.678,104.051 194.012,99.914 192.541 L 96.600 191.362 95.803 189.181 C 95.064 187.156,94.998 185.801,94.883 170.212 C 94.742 151.138,94.919 149.428,97.440 145.567 C 98.218 144.375,99.294 142.548,99.830 141.507 C 100.367 140.467,101.465 139.027,102.271 138.307 C 103.077 137.588,104.836 135.884,106.180 134.519 C 110.722 129.909,118.051 128.000,131.211 128.000 C 147.220 128.000,149.449 127.487,151.404 123.355 C 152.082 121.922,152.887 120.894,153.668 120.465 C 155.897 119.241,156.820 118.334,157.795 116.409 C 158.476 115.066,159.302 114.182,160.572 113.438 C 161.697 112.778,162.781 111.692,163.445 110.560 C 164.267 109.157,164.983 108.532,166.573 107.829 C 167.853 107.263,169.313 106.151,170.418 104.901 C 171.763 103.379,173.185 102.393,176.216 100.881 C 178.425 99.779,180.993 98.242,181.922 97.465 C 183.660 96.013,184.875 95.572,192.600 93.590 C 198.652 92.038,201.288 91.319,202.032 91.020 C 205.258 89.724,222.579 89.824,227.200 91.166 " stroke="none" fill="#702c4c" fill-rule="evenodd"></path></g></svg>