<?xml version="1.0" standalone="no"?>
<!DOCTYPE svg PUBLIC "-//W3C//DTD SVG 20010904//EN"
 "http://www.w3.org/TR/2001/REC-SVG-20010904/DTD/svg10.dtd">
<svg version="1.0" xmlns="http://www.w3.org/2000/svg"
 width="32.000000pt" height="32.000000pt" viewBox="0 0 32.000000 32.000000"
 preserveAspectRatio="xMidYMid meet">

<g transform="translate(0.000000,32.000000) scale(0.100000,-0.100000)"
fill="#000000" stroke="none">
<path d="M83 290 c-46 -28 -66 -64 -67 -120 -1 -82 61 -145 144 -145 52 0 87
19 124 69 26 35 27 112 2 151 -41 63 -138 85 -203 45z m132 -33 c28 -21 10
-39 -31 -31 -30 5 -34 4 -34 -15 0 -17 6 -21 30 -21 23 0 30 -4 30 -20 0 -16
-7 -20 -30 -20 -23 0 -30 -4 -30 -20 0 -17 7 -20 40 -20 29 0 40 -4 40 -15 0
-12 -14 -15 -70 -15 -56 0 -70 3 -70 15 0 8 5 15 10 15 6 0 10 9 10 20 0 11
-4 20 -10 20 -5 0 -10 9 -10 20 0 11 5 20 10 20 6 0 10 11 10 24 0 45 65 71
105 43z"/>
</g>
</svg>
