<svg id="svg" version="1.1" xmlns="http://www.w3.org/2000/svg" xmlns:xlink="http://www.w3.org/1999/xlink" width="400" height="400" viewBox="0, 0, 400,400"><g id="svgg"><path id="path0" d="M144.400 171.469 C 141.964 172.128,141.343 172.649,140.187 175.000 C 139.126 177.158,138.819 227.302,139.854 229.305 C 140.935 231.395,145.799 232.575,150.400 231.864 C 152.414 231.552,156.489 231.479,162.800 231.641 C 172.942 231.901,172.751 231.931,175.541 229.656 L 177.282 228.236 175.141 227.496 C 173.236 226.838,171.833 226.767,162.400 226.852 L 151.800 226.948 149.169 225.874 C 147.721 225.283,146.351 224.800,146.123 224.800 C 144.143 224.800,143.600 222.928,143.600 216.106 L 143.600 209.521 144.751 208.460 C 147.195 206.210,150.052 205.424,156.000 205.366 C 165.465 205.273,167.838 204.603,166.532 202.393 C 165.670 200.933,161.560 200.173,156.497 200.537 C 148.358 201.122,144.175 197.309,143.621 188.800 C 143.287 183.678,143.998 181.754,147.096 179.390 C 148.143 178.591,149.142 177.685,149.316 177.376 C 149.489 177.068,150.389 176.378,151.316 175.843 L 153.000 174.871 162.719 175.218 C 173.377 175.599,172.988 175.659,176.459 173.093 L 177.659 172.206 175.330 171.508 C 172.131 170.551,147.903 170.520,144.400 171.469 M210.200 171.076 C 208.282 171.326,206.886 172.009,206.221 173.025 C 205.880 173.544,204.910 174.155,204.064 174.383 C 201.366 175.109,197.194 179.008,195.900 182.013 L 194.787 184.600 194.893 203.200 L 195.000 221.800 195.933 223.300 C 196.583 224.347,197.151 224.800,197.810 224.800 C 198.881 224.800,200.000 226.150,200.000 227.442 C 200.000 230.616,205.082 231.566,222.159 231.586 L 234.519 231.600 237.857 229.781 C 240.462 228.360,241.251 227.724,241.454 226.881 C 241.597 226.286,242.048 225.132,242.457 224.316 C 243.003 223.226,243.208 221.899,243.228 219.316 C 243.244 217.382,243.395 214.360,243.564 212.600 C 243.853 209.596,243.808 209.290,242.836 207.608 C 242.266 206.623,241.618 205.460,241.396 205.024 C 240.990 204.227,239.737 203.785,236.400 203.262 C 233.567 202.817,233.201 203.008,233.196 204.929 C 233.193 205.848,233.083 207.256,232.950 208.058 C 232.722 209.439,232.775 209.531,233.964 209.792 C 236.378 210.322,239.211 213.731,239.193 216.084 C 239.184 217.320,238.110 222.349,237.579 223.641 C 236.684 225.822,231.007 226.800,219.237 226.800 L 209.222 226.800 206.911 225.720 C 200.031 222.504,199.832 221.911,199.680 204.212 C 199.522 185.669,199.918 182.571,202.553 181.759 C 204.163 181.263,207.945 178.214,208.207 177.202 C 208.727 175.186,208.650 175.200,219.391 175.200 L 229.483 175.200 230.542 176.181 C 231.124 176.720,231.600 177.355,231.600 177.591 C 231.600 177.827,232.815 178.600,234.300 179.310 C 236.831 180.519,237.075 180.756,238.202 183.091 C 238.864 184.462,239.772 185.950,240.221 186.398 L 241.037 187.214 242.168 186.033 L 243.300 184.852 242.820 181.573 C 242.204 177.359,241.502 176.020,239.903 176.006 C 238.335 175.992,235.994 174.595,235.384 173.309 C 234.730 171.932,234.514 171.841,230.400 171.207 C 227.962 170.831,212.834 170.733,210.200 171.076 M304.600 171.205 C 301.622 171.573,300.896 171.868,300.588 172.837 C 300.302 173.737,299.516 174.200,297.600 174.592 C 296.200 174.879,292.400 178.108,292.400 179.010 C 292.400 179.251,292.027 179.849,291.571 180.339 C 289.325 182.750,289.131 183.971,288.903 197.154 C 288.563 216.786,289.314 223.404,291.987 224.335 C 293.175 224.750,293.732 225.591,294.158 227.615 C 294.806 230.685,297.776 231.247,314.536 231.473 L 327.672 231.650 331.269 230.127 L 334.866 228.604 336.252 225.605 C 337.803 222.248,337.777 221.663,335.978 219.492 L 334.728 217.983 334.031 218.892 C 333.171 220.012,332.217 221.805,331.617 223.428 C 330.647 226.049,325.755 226.909,312.800 226.736 L 302.600 226.600 300.468 225.477 C 299.272 224.847,298.043 223.837,297.668 223.176 C 297.301 222.528,296.694 221.899,296.320 221.778 C 294.034 221.040,293.816 219.680,293.597 204.800 C 293.330 186.666,293.699 183.082,295.886 182.553 C 296.499 182.404,297.720 181.629,298.600 180.830 C 299.480 180.031,300.560 179.111,301.000 178.785 C 301.440 178.460,302.075 177.658,302.411 177.004 C 303.256 175.360,305.011 175.131,315.626 175.279 L 324.311 175.400 325.142 176.400 C 325.599 176.950,325.979 177.597,325.987 177.837 C 325.994 178.077,326.712 178.487,327.582 178.747 C 329.860 179.430,331.449 180.941,332.173 183.112 C 332.520 184.150,333.209 185.507,333.705 186.126 L 334.606 187.252 336.091 185.926 L 337.575 184.600 337.087 181.399 C 336.491 177.483,335.346 175.600,333.560 175.600 C 331.515 175.600,329.686 174.581,329.065 173.095 C 328.511 171.767,328.417 171.724,325.149 171.267 C 321.536 170.762,308.512 170.723,304.600 171.205 M265.449 172.321 C 263.562 175.373,263.566 175.307,263.573 202.906 L 263.580 228.898 264.610 230.249 C 265.894 231.932,266.055 231.928,267.383 230.187 L 268.461 228.774 268.459 202.845 L 268.458 176.915 267.361 174.458 C 266.310 172.102,265.881 171.622,265.449 172.321 M114.513 174.230 C 112.495 177.381,112.431 177.764,112.775 184.650 C 113.502 199.225,111.771 200.476,90.854 200.493 C 75.452 200.506,76.396 200.693,72.709 196.899 C 68.653 192.726,68.262 190.696,69.452 179.959 L 69.700 177.718 67.796 175.759 L 65.892 173.800 65.192 175.347 C 64.550 176.769,64.492 178.999,64.485 202.742 C 64.476 231.363,64.480 231.411,66.712 230.234 C 69.564 228.731,69.385 229.497,69.393 218.749 L 69.400 209.023 71.400 207.902 C 76.616 204.980,75.320 205.160,90.889 205.190 C 105.173 205.217,106.787 205.357,109.598 206.807 C 112.967 208.545,112.844 208.078,112.778 218.887 L 112.719 228.507 114.260 230.046 L 115.800 231.584 116.724 230.233 L 117.647 228.881 117.659 202.660 L 117.670 176.438 116.722 174.348 L 115.774 172.259 114.513 174.230 " stroke="none" fill="#43dcda" fill-rule="evenodd"></path><path id="path1" d="M0.000 200.000 L 0.000 400.000 200.000 400.000 L 400.000 400.000 400.000 200.000 L 400.000 0.000 200.000 0.000 L 0.000 0.000 0.000 200.000 M207.736 163.576 C 211.089 164.850,227.227 165.329,229.800 164.230 C 233.258 162.754,238.415 163.227,240.185 165.183 C 240.906 165.980,208.061 166.673,201.429 166.000 L 199.457 165.800 200.942 164.500 C 202.530 163.111,205.463 162.712,207.736 163.576 M304.556 163.798 C 310.668 165.093,310.185 165.775,303.000 166.000 C 295.147 166.245,293.338 166.075,294.080 165.159 C 295.761 163.084,299.123 162.647,304.556 163.798 M332.469 164.226 C 337.262 165.811,336.136 166.003,322.349 165.953 C 309.579 165.907,306.804 165.326,318.000 165.044 C 321.586 164.953,323.085 164.736,324.800 164.057 C 327.224 163.098,329.190 163.141,332.469 164.226 M178.911 165.551 C 179.243 165.883,175.567 166.000,164.813 166.000 C 149.374 166.000,145.717 165.534,158.532 165.200 C 170.271 164.894,178.394 165.034,178.911 165.551 M116.200 165.600 C 116.343 165.831,115.972 165.997,115.324 165.994 C 114.451 165.989,114.334 165.901,114.800 165.600 C 115.569 165.103,115.893 165.103,116.200 165.600 M179.200 168.059 C 184.580 170.510,183.467 179.488,177.563 181.266 C 175.646 181.843,156.908 182.048,154.537 181.517 C 153.435 181.271,153.038 181.442,151.437 182.851 L 149.600 184.468 149.604 187.734 L 149.609 191.000 151.504 193.081 L 153.400 195.163 156.589 194.542 C 164.501 193.000,169.067 194.868,170.643 200.289 C 172.518 206.740,170.265 208.400,159.632 208.400 C 149.656 208.400,150.011 207.983,150.002 219.692 L 150.000 222.384 151.500 223.139 C 152.884 223.836,153.776 223.880,163.000 223.709 C 181.251 223.370,183.718 224.379,182.296 231.601 C 181.037 237.988,180.790 238.072,162.482 238.297 C 141.206 238.558,139.271 238.130,136.720 232.595 L 135.800 230.600 135.680 204.600 C 135.515 169.025,135.629 168.402,142.474 167.579 C 147.623 166.960,177.649 167.353,179.200 168.059 M232.312 167.581 C 236.810 168.016,239.169 169.033,240.224 170.993 C 240.633 171.752,241.424 172.567,241.983 172.804 C 244.331 173.802,245.222 175.070,246.131 178.705 C 246.612 180.627,247.349 182.710,247.770 183.332 C 249.082 185.276,246.183 189.962,243.235 190.664 C 242.666 190.799,241.976 191.087,241.703 191.302 C 240.338 192.377,236.607 189.426,235.781 186.619 C 234.569 182.496,231.931 181.753,218.741 181.819 L 209.281 181.866 207.697 183.233 C 205.240 185.353,204.800 188.434,204.800 203.521 C 204.800 215.439,204.805 215.508,205.767 217.250 C 206.299 218.212,206.928 219.736,207.165 220.636 C 207.940 223.577,207.816 223.545,218.851 223.627 C 232.022 223.725,233.878 223.100,235.352 218.068 C 236.280 214.896,235.751 214.284,231.519 213.636 C 225.255 212.677,224.414 211.700,224.712 205.729 C 224.992 200.106,226.572 199.149,235.546 199.163 C 243.074 199.176,244.763 200.079,247.572 205.592 C 249.972 210.304,249.888 217.736,247.380 222.400 C 247.084 222.950,246.360 224.840,245.771 226.600 C 244.302 230.988,243.982 231.397,240.754 233.023 C 239.199 233.806,237.330 235.043,236.602 235.771 C 234.570 237.804,231.796 238.200,219.600 238.200 C 208.425 238.200,207.611 238.072,204.682 235.850 C 203.757 235.148,202.190 234.267,201.200 233.892 C 196.647 232.167,192.918 227.687,192.006 222.845 C 191.290 219.045,191.479 184.550,192.237 180.883 C 193.184 176.294,193.665 175.392,195.665 174.458 C 197.578 173.565,199.200 172.289,199.200 171.677 C 199.200 171.135,201.763 168.929,202.761 168.612 C 206.968 167.277,223.286 166.708,232.312 167.581 M330.372 168.191 C 331.868 168.661,333.136 169.452,334.451 170.737 C 335.501 171.762,337.065 173.184,337.927 173.898 C 339.169 174.928,339.638 175.710,340.188 177.672 C 340.570 179.033,341.288 180.789,341.783 181.573 C 343.273 183.934,343.330 184.571,342.244 186.713 C 339.311 192.501,330.689 192.247,329.745 186.346 C 329.119 182.430,326.207 181.677,312.600 181.914 L 303.000 182.081 301.400 183.424 L 299.800 184.767 299.661 200.136 C 299.529 214.741,299.562 215.620,300.334 217.852 C 300.781 219.143,301.251 220.693,301.379 221.295 C 301.829 223.405,302.521 223.542,313.200 223.625 C 325.162 223.719,328.157 223.219,328.563 221.061 C 328.857 219.498,331.025 214.859,331.929 213.859 C 336.863 208.398,346.270 218.973,341.430 224.540 C 340.885 225.166,340.064 226.806,339.606 228.183 C 338.599 231.207,337.711 232.103,334.446 233.382 C 333.070 233.921,331.581 234.824,331.137 235.389 C 327.845 239.574,302.976 239.756,298.600 235.627 C 297.940 235.004,296.680 234.274,295.800 234.004 C 293.926 233.428,291.607 231.980,291.603 231.383 C 291.601 231.154,290.775 230.164,289.767 229.183 C 285.825 225.348,285.459 222.999,285.438 201.400 C 285.423 185.532,285.582 183.306,287.070 178.600 C 287.793 176.313,288.545 175.319,290.049 174.662 C 290.630 174.408,292.007 173.106,293.110 171.768 C 296.438 167.733,299.320 167.194,316.600 167.382 C 326.169 167.486,328.580 167.628,330.372 168.191 M117.650 168.425 C 121.104 170.188,120.982 169.050,121.128 200.800 C 121.266 230.731,121.232 231.332,119.206 234.527 C 116.883 238.190,114.672 238.183,110.735 234.501 C 107.282 231.270,106.663 229.312,106.914 222.401 C 107.247 213.206,106.912 209.379,105.725 208.838 C 104.219 208.153,77.216 208.261,76.300 208.957 C 75.669 209.436,75.600 210.397,75.600 218.714 C 75.600 231.817,75.131 233.425,70.686 235.556 C 65.581 238.002,63.006 236.809,61.453 231.275 C 59.958 225.945,60.622 173.452,62.224 170.353 C 63.946 167.023,72.371 167.618,74.220 171.200 C 75.477 173.637,76.040 187.615,74.996 190.493 C 74.895 190.772,75.586 191.883,76.531 192.962 L 78.250 194.925 81.425 194.362 C 84.703 193.782,100.206 193.920,102.400 194.549 C 103.212 194.782,103.796 194.513,105.506 193.118 L 107.613 191.400 107.306 188.600 C 105.957 176.270,107.855 169.936,113.400 168.260 C 115.988 167.478,115.776 167.470,117.650 168.425 M268.600 168.352 C 270.700 169.317,271.397 170.155,272.662 173.237 L 273.713 175.800 273.826 202.400 L 273.939 229.000 272.970 230.491 C 272.436 231.312,272.000 232.141,272.000 232.334 C 272.000 233.254,269.073 236.371,267.524 237.101 C 265.024 238.280,263.240 237.189,261.145 233.200 L 260.200 231.400 260.086 203.800 C 260.017 187.323,260.127 175.192,260.359 173.699 C 261.148 168.618,264.476 166.459,268.600 168.352 M80.129 171.187 C 81.434 173.397,81.788 177.204,81.039 180.976 L 80.354 184.426 81.537 185.913 C 84.232 189.299,84.407 189.380,87.769 188.805 C 89.638 188.486,91.934 188.393,93.881 188.559 L 97.000 188.824 99.510 186.758 C 101.204 185.364,101.955 184.482,101.820 184.046 C 101.192 182.019,100.529 177.876,100.678 176.917 C 101.172 173.726,101.751 171.997,102.590 171.209 L 103.520 170.335 103.808 174.164 C 103.965 176.270,103.971 179.311,103.820 180.921 C 103.627 182.984,103.741 184.890,104.206 187.371 C 104.659 189.790,104.737 191.023,104.454 191.306 C 104.039 191.721,88.650 191.765,86.982 191.355 C 86.532 191.245,84.405 191.334,82.255 191.554 C 76.958 192.096,77.048 192.154,77.429 188.441 C 77.601 186.769,77.694 182.599,77.635 179.175 C 77.469 169.485,78.041 167.653,80.129 171.187 M59.568 173.300 C 59.538 174.927,59.519 174.952,59.131 173.887 C 58.907 173.275,58.826 172.510,58.950 172.187 C 59.356 171.129,59.601 171.570,59.568 173.300 M280.439 175.062 C 281.188 175.316,282.475 175.639,283.300 175.780 L 284.800 176.036 284.800 178.338 C 284.800 180.606,284.780 180.647,283.396 181.147 C 280.339 182.253,279.898 185.263,280.069 203.901 C 280.217 220.077,280.370 220.979,283.100 221.783 L 284.400 222.165 284.400 225.238 L 284.400 228.311 282.900 228.587 C 282.075 228.739,280.655 229.190,279.744 229.590 L 278.088 230.316 277.806 220.258 C 277.172 197.605,277.614 171.121,278.587 173.432 C 278.907 174.193,279.553 174.761,280.439 175.062 M191.200 177.837 L 191.200 180.474 189.900 179.717 C 188.260 178.762,188.087 177.654,189.363 176.277 C 190.882 174.639,191.200 174.909,191.200 177.837 M254.468 181.795 C 254.904 184.814,254.871 185.619,254.155 189.289 L 253.353 193.400 252.877 190.767 C 251.904 185.393,252.517 174.608,253.631 177.506 C 253.822 178.005,254.199 179.935,254.468 181.795 M349.033 182.632 C 349.829 184.716,349.586 185.956,348.040 187.685 L 346.898 188.964 346.615 186.526 C 345.903 180.399,347.314 178.129,349.033 182.632 M165.600 184.061 C 182.569 183.741,185.666 184.852,175.000 187.433 C 170.190 188.597,168.986 189.089,167.837 190.359 C 167.166 191.100,166.621 191.201,163.238 191.212 C 161.127 191.219,158.078 191.396,156.462 191.606 C 152.224 192.156,152.000 191.969,152.000 187.866 C 152.000 183.644,152.199 183.423,155.600 183.863 C 157.030 184.049,161.530 184.137,165.600 184.061 M219.955 184.039 C 223.780 184.007,227.061 183.886,227.246 183.771 C 227.520 183.602,230.649 184.298,231.129 184.635 C 231.455 184.863,229.885 187.257,229.051 187.803 C 228.211 188.354,227.510 188.341,221.959 187.666 L 215.800 186.919 213.200 188.729 C 211.770 189.724,210.458 190.659,210.284 190.806 C 210.110 190.952,210.354 192.483,210.827 194.206 C 211.627 197.121,211.660 197.760,211.305 203.370 C 210.778 211.708,211.879 218.105,214.393 221.300 L 215.258 222.400 212.267 222.400 L 209.275 222.400 209.036 220.500 C 208.904 219.455,208.823 212.210,208.855 204.400 C 208.888 196.590,208.773 188.989,208.600 187.510 C 208.191 184.008,208.604 183.416,211.177 183.816 C 212.180 183.972,216.130 184.072,219.955 184.039 M321.310 184.147 C 326.541 184.302,326.672 184.344,325.969 185.657 C 324.711 188.009,323.378 188.468,319.116 188.018 C 317.292 187.825,314.353 187.553,312.583 187.414 L 309.367 187.160 307.383 188.971 C 306.293 189.967,305.284 190.786,305.142 190.791 C 305.000 190.796,305.061 191.475,305.277 192.300 C 305.493 193.125,305.807 199.200,305.975 205.800 C 306.301 218.643,306.590 220.447,308.537 221.811 C 309.309 222.352,309.131 222.400,306.346 222.400 L 303.315 222.400 303.040 218.755 C 302.888 216.751,302.786 209.506,302.813 202.655 C 302.840 195.805,302.733 188.988,302.576 187.507 C 302.128 183.277,300.670 183.538,321.310 184.147 M235.326 194.188 C 235.820 194.512,238.157 195.048,240.520 195.380 C 242.882 195.711,245.297 196.235,245.885 196.543 L 246.955 197.104 245.290 197.385 C 244.374 197.540,240.235 197.561,236.091 197.433 C 231.947 197.305,227.801 197.200,226.878 197.200 C 223.182 197.200,226.224 194.951,230.908 194.221 C 232.719 193.939,234.251 193.684,234.314 193.654 C 234.377 193.624,234.832 193.865,235.326 194.188 M335.461 197.254 C 334.932 197.561,334.598 197.558,334.281 197.241 C 333.960 196.920,334.159 196.803,335.020 196.812 C 336.054 196.823,336.109 196.877,335.461 197.254 M254.413 204.155 C 255.912 212.122,254.845 228.786,253.031 225.726 C 252.206 224.336,252.553 198.379,253.385 199.259 C 253.458 199.337,253.920 201.540,254.413 204.155 M337.431 208.226 C 340.837 209.216,340.444 209.600,336.024 209.600 C 331.850 209.600,331.165 209.279,333.100 208.229 C 334.502 207.468,334.823 207.468,337.431 208.226 M81.108 212.500 C 81.742 215.195,81.818 216.313,81.524 218.600 C 81.325 220.140,81.277 223.054,81.417 225.076 C 81.724 229.518,81.030 232.446,79.273 234.130 L 78.116 235.239 77.861 233.119 C 77.532 230.379,77.523 212.084,77.850 210.450 C 78.423 207.585,80.217 208.714,81.108 212.500 M103.750 210.450 C 104.077 212.084,104.068 227.819,103.738 231.309 C 103.493 233.904,103.452 233.990,102.750 233.354 C 101.279 232.023,100.295 228.462,100.567 225.447 C 100.704 223.934,100.605 221.193,100.348 219.357 C 99.740 215.012,101.033 209.200,102.607 209.200 C 103.287 209.200,103.560 209.498,103.750 210.450 M155.736 212.536 C 159.182 220.186,159.225 222.214,155.947 222.511 C 152.225 222.849,152.273 222.907,152.564 218.441 C 153.266 207.671,153.418 207.388,155.736 212.536 M233.000 215.623 L 235.000 215.654 233.257 216.197 C 230.881 216.939,229.746 218.122,229.190 220.442 L 228.720 222.400 225.960 222.400 C 222.934 222.400,222.924 222.394,223.826 221.017 C 224.170 220.492,224.554 219.068,224.679 217.852 C 224.939 215.338,225.289 215.142,229.000 215.435 C 230.100 215.522,231.900 215.607,233.000 215.623 M348.776 219.006 C 349.657 221.974,349.659 222.026,348.912 223.304 C 347.101 226.406,346.187 224.651,346.618 218.900 C 346.952 214.448,347.430 214.472,348.776 219.006 M322.810 220.226 C 323.603 222.311,323.473 222.401,319.700 222.391 L 316.200 222.382 317.200 221.578 C 320.182 219.181,322.225 218.688,322.810 220.226 M179.000 222.000 C 179.158 222.256,177.980 222.386,175.724 222.360 C 173.345 222.333,172.525 222.216,173.200 222.000 C 174.658 221.533,178.711 221.533,179.000 222.000 M59.564 228.300 C 59.532 231.045,59.482 231.242,59.131 230.017 C 58.773 228.771,58.991 225.200,59.425 225.200 C 59.521 225.200,59.584 226.595,59.564 228.300 M191.200 227.800 C 191.200 230.260,190.942 230.429,189.322 229.031 L 188.200 228.062 189.375 226.831 C 190.983 225.146,191.200 225.261,191.200 227.800 M197.200 235.049 C 197.200 235.580,197.091 235.608,196.600 235.200 C 196.270 234.926,196.000 234.634,196.000 234.551 C 196.000 234.468,196.270 234.400,196.600 234.400 C 196.930 234.400,197.200 234.692,197.200 235.049 M291.443 235.033 C 291.309 235.381,291.200 235.859,291.200 236.095 C 291.200 236.331,290.840 236.198,290.400 235.800 C 289.320 234.823,289.394 234.400,290.643 234.400 C 291.429 234.400,291.626 234.555,291.443 235.033 M118.721 241.006 C 118.956 241.206,116.097 242.800,115.504 242.800 C 115.173 242.800,114.024 242.396,112.951 241.903 L 111.000 241.006 113.000 240.762 C 114.737 240.550,118.368 240.705,118.721 241.006 M179.796 240.729 L 181.393 241.012 179.956 242.108 C 177.902 243.675,174.966 243.912,159.000 243.801 C 143.741 243.695,142.148 243.552,139.600 242.059 L 137.800 241.005 139.400 240.759 C 141.656 240.413,177.860 240.386,179.796 240.729 M236.100 240.657 C 237.938 240.961,237.956 241.154,236.255 242.312 C 234.337 243.618,227.608 244.153,217.351 243.817 C 209.342 243.554,207.562 243.273,204.200 241.744 L 202.600 241.016 204.800 240.773 C 207.780 240.444,234.221 240.346,236.100 240.657 M269.948 241.036 C 270.029 241.105,269.096 241.652,267.875 242.251 L 265.654 243.340 264.230 242.370 C 262.469 241.171,262.447 240.889,264.100 240.709 C 265.415 240.566,269.676 240.804,269.948 241.036 M330.564 240.724 L 332.129 241.002 330.494 242.135 C 328.231 243.703,325.499 243.964,312.800 243.825 C 302.171 243.708,301.397 243.615,298.500 242.098 C 295.650 240.607,296.256 240.547,314.600 240.490 C 322.520 240.466,329.704 240.571,330.564 240.724 M71.600 241.154 C 69.802 242.142,66.035 242.508,64.613 241.833 C 62.561 240.859,62.743 240.799,67.700 240.812 C 70.285 240.819,71.945 240.965,71.600 241.154 " stroke="none" fill="#141c34" fill-rule="evenodd"></path><path id="path2" d="M142.474 167.579 C 135.629 168.402,135.515 169.025,135.680 204.600 L 135.800 230.600 136.720 232.595 C 139.271 238.130,141.206 238.558,162.482 238.297 C 180.790 238.072,181.037 237.988,182.296 231.601 C 183.718 224.379,181.251 223.370,163.000 223.709 C 153.776 223.880,152.884 223.836,151.500 223.139 L 150.000 222.384 150.002 219.692 C 150.011 207.983,149.656 208.400,159.632 208.400 C 170.265 208.400,172.518 206.740,170.643 200.289 C 169.067 194.868,164.501 193.000,156.589 194.542 L 153.400 195.163 151.504 193.081 L 149.609 191.000 149.604 187.734 L 149.600 184.468 151.437 182.851 C 153.038 181.442,153.435 181.271,154.537 181.517 C 156.908 182.048,175.646 181.843,177.563 181.266 C 183.467 179.488,184.580 170.510,179.200 168.059 C 177.649 167.353,147.623 166.960,142.474 167.579 M206.287 167.815 C 204.795 168.112,203.208 168.470,202.761 168.612 C 201.763 168.929,199.200 171.135,199.200 171.677 C 199.200 172.289,197.578 173.565,195.665 174.458 C 193.665 175.392,193.184 176.294,192.237 180.883 C 191.479 184.550,191.290 219.045,192.006 222.845 C 192.918 227.687,196.647 232.167,201.200 233.892 C 202.190 234.267,203.757 235.148,204.682 235.850 C 207.611 238.072,208.425 238.200,219.600 238.200 C 231.796 238.200,234.570 237.804,236.602 235.771 C 237.330 235.043,239.199 233.806,240.754 233.023 C 243.982 231.397,244.302 230.988,245.771 226.600 C 246.360 224.840,247.084 222.950,247.380 222.400 C 249.888 217.736,249.972 210.304,247.572 205.592 C 244.763 200.079,243.074 199.176,235.546 199.163 C 226.572 199.149,224.992 200.106,224.712 205.729 C 224.414 211.700,225.255 212.677,231.519 213.636 C 235.751 214.284,236.280 214.896,235.352 218.068 C 233.878 223.100,232.022 223.725,218.851 223.627 C 207.816 223.545,207.940 223.577,207.165 220.636 C 206.928 219.736,206.299 218.212,205.767 217.250 C 204.805 215.508,204.800 215.439,204.800 203.521 C 204.800 188.434,205.240 185.353,207.697 183.233 L 209.281 181.866 218.741 181.819 C 231.931 181.753,234.569 182.496,235.781 186.619 C 236.607 189.426,240.338 192.377,241.703 191.302 C 241.976 191.087,242.666 190.799,243.235 190.664 C 246.183 189.962,249.082 185.276,247.770 183.332 C 247.349 182.710,246.612 180.627,246.131 178.705 C 245.222 175.070,244.331 173.802,241.983 172.804 C 241.424 172.567,240.633 171.752,240.224 170.993 C 239.169 169.033,236.810 168.016,232.312 167.581 C 226.568 167.025,209.485 167.179,206.287 167.815 M302.281 167.597 C 297.125 168.243,295.352 169.049,293.110 171.768 C 292.007 173.106,290.630 174.408,290.049 174.662 C 288.545 175.319,287.793 176.313,287.070 178.600 C 285.582 183.306,285.423 185.532,285.438 201.400 C 285.459 222.999,285.825 225.348,289.767 229.183 C 290.775 230.164,291.601 231.154,291.603 231.383 C 291.607 231.980,293.926 233.428,295.800 234.004 C 296.680 234.274,297.940 235.004,298.600 235.627 C 300.911 237.808,302.188 238.066,311.869 238.302 C 324.505 238.611,329.156 237.907,331.137 235.389 C 331.581 234.824,333.070 233.921,334.446 233.382 C 337.711 232.103,338.599 231.207,339.606 228.183 C 340.064 226.806,340.885 225.166,341.430 224.540 C 346.270 218.973,336.863 208.398,331.929 213.859 C 331.025 214.859,328.857 219.498,328.563 221.061 C 328.157 223.219,325.162 223.719,313.200 223.625 C 302.521 223.542,301.829 223.405,301.379 221.295 C 301.251 220.693,300.781 219.143,300.334 217.852 C 299.562 215.620,299.529 214.741,299.661 200.136 L 299.800 184.767 301.400 183.424 L 303.000 182.081 312.600 181.914 C 326.207 181.677,329.119 182.430,329.745 186.346 C 330.689 192.247,339.311 192.501,342.244 186.713 C 343.330 184.571,343.273 183.934,341.783 181.573 C 341.288 180.789,340.570 179.033,340.188 177.672 C 339.638 175.710,339.169 174.928,337.927 173.898 C 337.065 173.184,335.501 171.762,334.451 170.737 C 331.387 167.744,330.247 167.530,316.600 167.382 C 310.220 167.313,303.776 167.409,302.281 167.597 M113.400 168.260 C 107.855 169.936,105.957 176.270,107.306 188.600 L 107.613 191.400 105.506 193.118 C 103.796 194.513,103.212 194.782,102.400 194.549 C 100.206 193.920,84.703 193.782,81.425 194.362 L 78.250 194.925 76.531 192.962 C 75.586 191.883,74.895 190.772,74.996 190.493 C 76.040 187.615,75.477 173.637,74.220 171.200 C 72.371 167.618,63.946 167.023,62.224 170.353 C 60.622 173.452,59.958 225.945,61.453 231.275 C 63.006 236.809,65.581 238.002,70.686 235.556 C 75.131 233.425,75.600 231.817,75.600 218.714 C 75.600 210.397,75.669 209.436,76.300 208.957 C 77.216 208.261,104.219 208.153,105.725 208.838 C 106.912 209.379,107.247 213.206,106.914 222.401 C 106.663 229.312,107.282 231.270,110.735 234.501 C 114.672 238.183,116.883 238.190,119.206 234.527 C 121.232 231.332,121.266 230.731,121.128 200.800 C 120.982 169.050,121.104 170.188,117.650 168.425 C 115.776 167.470,115.988 167.478,113.400 168.260 M263.759 168.172 C 260.041 169.790,259.948 170.691,260.086 203.800 L 260.200 231.400 261.145 233.200 C 263.240 237.189,265.024 238.280,267.524 237.101 C 269.073 236.371,272.000 233.254,272.000 232.334 C 272.000 232.141,272.436 231.312,272.970 230.491 L 273.939 229.000 273.826 202.400 L 273.713 175.800 272.662 173.237 C 270.719 168.501,267.373 166.598,263.759 168.172 M174.883 169.438 C 180.391 170.449,181.137 171.514,179.057 175.400 C 177.153 178.955,168.118 180.316,155.513 178.948 C 148.884 178.228,143.849 186.694,147.447 192.508 C 150.399 197.277,152.201 198.354,156.437 197.879 C 161.669 197.292,165.903 197.982,167.295 199.648 C 171.641 204.847,167.196 207.826,156.339 206.991 C 153.251 206.754,152.790 206.822,150.200 207.897 L 147.400 209.059 147.140 211.230 C 145.546 224.505,146.067 224.989,162.000 225.025 C 174.636 225.053,177.708 225.434,179.379 227.178 L 180.434 228.279 179.571 230.586 C 177.763 235.418,177.032 235.604,159.827 235.588 L 146.600 235.576 143.400 234.488 C 140.324 233.442,140.150 233.315,138.900 231.218 L 137.600 229.035 137.600 202.879 C 137.600 166.108,135.650 169.529,156.800 169.186 C 164.390 169.063,170.780 168.925,171.000 168.880 C 171.220 168.835,172.967 169.086,174.883 169.438 M235.400 170.267 C 236.280 170.733,237.360 171.520,237.800 172.016 C 238.240 172.511,239.542 173.524,240.694 174.267 C 245.512 177.373,246.722 184.828,242.917 187.964 C 240.704 189.789,239.164 189.091,237.459 185.490 C 236.157 182.741,235.215 181.938,231.492 180.401 L 228.384 179.119 218.976 179.178 L 209.569 179.238 206.284 181.864 C 201.872 185.392,201.954 184.993,202.009 202.798 L 202.052 216.596 203.636 219.465 C 206.827 225.247,207.125 225.344,220.877 225.103 C 234.605 224.863,235.415 224.559,236.824 219.134 C 237.811 215.336,237.841 215.564,236.100 213.674 C 234.830 212.295,234.111 211.916,231.414 211.200 C 227.189 210.080,227.200 210.093,227.200 206.361 C 227.200 202.712,227.350 202.560,232.000 201.512 C 242.903 199.054,247.329 204.894,245.558 219.400 C 244.470 228.317,241.142 231.845,231.053 234.778 C 226.546 236.088,210.657 235.913,208.393 234.528 C 207.627 234.060,206.078 233.406,204.951 233.075 C 201.674 232.113,200.665 231.418,197.750 228.115 C 196.237 226.402,194.876 224.906,194.725 224.792 C 192.401 223.033,191.952 188.138,194.165 181.303 C 195.157 178.242,197.287 175.200,198.441 175.200 C 198.615 175.200,199.882 174.265,201.255 173.122 C 205.818 169.325,206.549 169.185,221.200 169.310 C 233.158 169.413,233.882 169.461,235.400 170.267 M329.200 170.157 C 329.970 170.571,331.267 171.507,332.082 172.237 C 332.897 172.968,334.299 173.940,335.198 174.399 C 338.200 175.930,340.973 183.690,339.320 185.934 C 336.433 189.852,333.436 189.509,331.170 185.000 C 328.714 180.113,325.999 179.139,315.000 179.199 C 301.787 179.271,298.629 180.701,296.755 187.460 C 295.564 191.753,295.611 215.531,296.813 217.219 C 297.261 217.847,298.051 219.315,298.570 220.481 C 300.510 224.839,301.449 225.105,315.071 225.168 C 327.472 225.226,328.761 224.826,330.973 220.235 C 332.691 216.669,334.371 214.943,335.524 215.559 C 342.293 219.182,340.013 228.548,331.400 232.495 C 323.705 236.021,307.529 237.032,302.200 234.320 C 301.100 233.760,299.194 233.013,297.965 232.659 C 295.535 231.959,292.238 229.415,291.779 227.886 C 291.633 227.399,290.924 226.370,290.204 225.600 C 287.495 222.703,287.197 220.342,287.208 201.810 C 287.218 183.653,287.619 181.042,291.001 177.091 C 293.137 174.595,297.502 171.293,299.767 170.459 C 300.885 170.047,302.070 169.602,302.400 169.469 C 304.086 168.792,327.790 169.400,329.200 170.157 M268.314 171.332 C 270.729 173.534,270.828 174.854,270.709 203.400 L 270.600 229.400 269.342 231.200 C 266.626 235.088,264.745 234.954,262.635 230.720 L 261.600 228.643 261.600 203.079 C 261.600 174.063,261.683 173.063,264.289 170.775 C 265.761 169.483,266.377 169.568,268.314 171.332 M117.280 171.100 C 119.465 173.434,119.574 174.938,119.576 203.000 L 119.579 228.600 118.553 230.715 C 116.631 234.675,114.444 234.625,111.332 230.548 L 110.200 229.064 110.000 219.042 L 109.800 209.020 107.152 208.002 L 104.503 206.985 90.751 207.008 L 76.998 207.031 75.199 208.023 L 73.400 209.014 73.200 219.007 C 72.977 230.145,73.052 229.784,70.663 231.295 C 66.372 234.009,65.140 233.870,63.424 230.475 C 62.422 228.495,62.379 177.772,63.376 174.342 C 64.351 170.988,65.404 170.174,67.646 171.041 C 72.438 172.894,73.400 175.243,73.060 184.258 C 72.798 191.198,72.799 191.215,73.799 192.798 C 74.349 193.670,74.800 194.547,74.800 194.746 C 74.800 196.091,78.116 198.059,79.956 197.806 C 83.002 197.387,96.735 197.269,100.116 197.633 C 104.428 198.097,106.794 196.950,109.174 193.240 L 110.393 191.341 110.133 184.469 C 109.817 176.094,110.626 173.070,113.717 171.065 C 115.763 169.739,116.008 169.741,117.280 171.100 " stroke="none" fill="#266a78" fill-rule="evenodd"></path><path id="path3" d="M156.800 169.186 C 135.650 169.529,137.600 166.108,137.600 202.879 L 137.600 229.035 138.900 231.218 C 140.150 233.315,140.324 233.442,143.400 234.488 L 146.600 235.576 159.827 235.588 C 177.032 235.604,177.763 235.418,179.571 230.586 L 180.434 228.279 179.379 227.178 C 177.708 225.434,174.636 225.053,162.000 225.025 C 150.329 224.998,149.820 224.924,147.500 222.890 C 146.751 222.233,146.560 216.058,147.140 211.230 L 147.400 209.059 150.200 207.897 C 152.790 206.822,153.251 206.754,156.339 206.991 C 167.196 207.826,171.641 204.847,167.295 199.648 C 165.903 197.982,161.669 197.292,156.437 197.879 C 152.201 198.354,150.399 197.277,147.447 192.508 C 143.849 186.694,148.884 178.228,155.513 178.948 C 170.901 180.618,178.419 178.777,180.182 172.905 C 180.721 171.109,174.161 168.233,171.000 168.880 C 170.780 168.925,164.390 169.063,156.800 169.186 M206.176 170.123 C 204.814 170.641,202.658 171.955,201.255 173.122 C 199.882 174.265,198.615 175.200,198.441 175.200 C 197.287 175.200,195.157 178.242,194.165 181.303 C 191.952 188.138,192.401 223.033,194.725 224.792 C 194.876 224.906,196.237 226.402,197.750 228.115 C 200.665 231.418,201.674 232.113,204.951 233.075 C 206.078 233.406,207.627 234.060,208.393 234.528 C 210.657 235.913,226.546 236.088,231.053 234.778 C 241.142 231.845,244.470 228.317,245.558 219.400 C 247.329 204.894,242.903 199.054,232.000 201.512 C 227.350 202.560,227.200 202.712,227.200 206.361 C 227.200 210.093,227.189 210.080,231.414 211.200 C 234.111 211.916,234.830 212.295,236.100 213.674 C 237.841 215.564,237.811 215.336,236.824 219.134 C 235.415 224.559,234.605 224.863,220.877 225.103 C 207.125 225.344,206.827 225.247,203.636 219.465 L 202.052 216.596 202.009 202.798 C 201.954 184.993,201.872 185.392,206.284 181.864 L 209.569 179.238 218.976 179.178 L 228.384 179.119 231.492 180.401 C 235.215 181.938,236.157 182.741,237.459 185.490 C 239.164 189.091,240.704 189.789,242.917 187.964 C 246.722 184.828,245.512 177.373,240.694 174.267 C 239.542 173.524,238.240 172.511,237.800 172.016 C 235.598 169.535,234.938 169.428,221.200 169.310 C 208.885 169.205,208.545 169.223,206.176 170.123 M302.400 169.469 C 302.070 169.602,300.885 170.047,299.767 170.459 C 297.502 171.293,293.137 174.595,291.001 177.091 C 287.619 181.042,287.218 183.653,287.208 201.810 C 287.197 220.342,287.495 222.703,290.204 225.600 C 290.924 226.370,291.633 227.399,291.779 227.886 C 292.238 229.415,295.535 231.959,297.965 232.659 C 299.194 233.013,301.100 233.760,302.200 234.320 C 307.529 237.032,323.705 236.021,331.400 232.495 C 340.013 228.548,342.293 219.182,335.524 215.559 C 334.371 214.943,332.691 216.669,330.973 220.235 C 328.761 224.826,327.472 225.226,315.071 225.168 C 301.449 225.105,300.510 224.839,298.570 220.481 C 298.051 219.315,297.261 217.847,296.813 217.219 C 295.611 215.531,295.564 191.753,296.755 187.460 C 298.629 180.701,301.787 179.271,315.000 179.199 C 325.999 179.139,328.714 180.113,331.170 185.000 C 333.436 189.509,336.433 189.852,339.320 185.934 C 340.973 183.690,338.200 175.930,335.198 174.399 C 334.299 173.940,332.897 172.968,332.082 172.237 C 328.884 169.371,329.138 169.415,315.400 169.317 C 308.580 169.268,302.730 169.336,302.400 169.469 M264.289 170.775 C 261.683 173.063,261.600 174.063,261.600 203.079 L 261.600 228.643 262.635 230.720 C 264.745 234.954,266.626 235.088,269.342 231.200 L 270.600 229.400 270.709 203.400 C 270.828 174.854,270.729 173.534,268.314 171.332 C 266.377 169.568,265.761 169.483,264.289 170.775 M113.717 171.065 C 110.626 173.070,109.817 176.094,110.133 184.469 L 110.393 191.341 109.174 193.240 C 106.794 196.950,104.428 198.097,100.116 197.633 C 96.735 197.269,83.002 197.387,79.956 197.806 C 78.116 198.059,74.800 196.091,74.800 194.746 C 74.800 194.547,74.349 193.670,73.799 192.798 C 72.799 191.215,72.798 191.198,73.060 184.258 C 73.400 175.243,72.438 172.894,67.646 171.041 C 65.404 170.174,64.351 170.988,63.376 174.342 C 62.379 177.772,62.422 228.495,63.424 230.475 C 65.140 233.870,66.372 234.009,70.663 231.295 C 73.052 229.784,72.977 230.145,73.200 219.007 L 73.400 209.014 75.199 208.023 L 76.998 207.031 90.751 207.008 L 104.503 206.985 107.152 208.002 L 109.800 209.020 110.000 219.042 L 110.200 229.064 111.332 230.548 C 114.444 234.625,116.631 234.675,118.553 230.715 L 119.579 228.600 119.576 203.000 C 119.574 174.938,119.465 173.434,117.280 171.100 C 116.008 169.741,115.763 169.739,113.717 171.065 M175.330 171.508 L 177.659 172.206 176.459 173.093 C 172.988 175.659,173.377 175.599,162.719 175.218 L 153.000 174.871 151.316 175.843 C 150.389 176.378,149.489 177.068,149.316 177.376 C 149.142 177.685,148.143 178.591,147.096 179.390 C 143.998 181.754,143.287 183.678,143.621 188.800 C 144.175 197.309,148.358 201.122,156.497 200.537 C 161.560 200.173,165.670 200.933,166.532 202.393 C 167.838 204.603,165.465 205.273,156.000 205.366 C 150.052 205.424,147.195 206.210,144.751 208.460 L 143.600 209.521 143.600 216.106 C 143.600 222.928,144.143 224.800,146.123 224.800 C 146.351 224.800,147.721 225.283,149.169 225.874 L 151.800 226.948 162.400 226.852 C 171.833 226.767,173.236 226.838,175.141 227.496 L 177.282 228.236 175.541 229.656 C 172.751 231.931,172.942 231.901,162.800 231.641 C 156.489 231.479,152.414 231.552,150.400 231.864 C 145.799 232.575,140.935 231.395,139.854 229.305 C 138.819 227.302,139.126 177.158,140.187 175.000 C 142.123 171.064,142.985 170.881,159.800 170.842 C 171.256 170.815,173.308 170.903,175.330 171.508 M230.400 171.207 C 234.514 171.841,234.730 171.932,235.384 173.309 C 235.994 174.595,238.335 175.992,239.903 176.006 C 241.502 176.020,242.204 177.359,242.820 181.573 L 243.300 184.852 242.168 186.033 L 241.037 187.214 240.221 186.398 C 239.772 185.950,238.864 184.462,238.202 183.091 C 237.075 180.756,236.831 180.519,234.300 179.310 C 232.815 178.600,231.600 177.827,231.600 177.591 C 231.600 177.355,231.124 176.720,230.542 176.181 L 229.483 175.200 219.391 175.200 C 208.650 175.200,208.727 175.186,208.207 177.202 C 207.945 178.214,204.163 181.263,202.553 181.759 C 199.918 182.571,199.522 185.669,199.680 204.212 C 199.832 221.911,200.031 222.504,206.911 225.720 L 209.222 226.800 219.237 226.800 C 231.007 226.800,236.684 225.822,237.579 223.641 C 238.110 222.349,239.184 217.320,239.193 216.084 C 239.211 213.731,236.378 210.322,233.964 209.792 C 232.775 209.531,232.722 209.439,232.950 208.058 C 233.083 207.256,233.193 205.848,233.196 204.929 C 233.201 203.008,233.567 202.817,236.400 203.262 C 239.737 203.785,240.990 204.227,241.396 205.024 C 241.618 205.460,242.266 206.623,242.836 207.608 C 243.808 209.290,243.853 209.596,243.564 212.600 C 243.395 214.360,243.244 217.382,243.228 219.316 C 243.208 221.899,243.003 223.226,242.457 224.316 C 242.048 225.132,241.597 226.286,241.454 226.881 C 241.251 227.724,240.462 228.360,237.857 229.781 L 234.519 231.600 222.159 231.586 C 205.082 231.566,200.000 230.616,200.000 227.442 C 200.000 226.150,198.881 224.800,197.810 224.800 C 197.151 224.800,196.583 224.347,195.933 223.300 L 195.000 221.800 194.893 203.200 L 194.787 184.600 195.900 182.013 C 197.194 179.008,201.366 175.109,204.064 174.383 C 204.910 174.155,205.880 173.544,206.221 173.025 C 206.886 172.009,208.282 171.326,210.200 171.076 C 212.834 170.733,227.962 170.831,230.400 171.207 M325.149 171.267 C 328.417 171.724,328.511 171.767,329.065 173.095 C 329.686 174.581,331.515 175.600,333.560 175.600 C 335.346 175.600,336.491 177.483,337.087 181.399 L 337.575 184.600 336.091 185.926 L 334.606 187.252 333.705 186.126 C 333.209 185.507,332.520 184.150,332.173 183.112 C 331.449 180.941,329.860 179.430,327.582 178.747 C 326.712 178.487,325.994 178.077,325.987 177.837 C 325.979 177.597,325.599 176.950,325.142 176.400 L 324.311 175.400 315.626 175.279 C 305.011 175.131,303.256 175.360,302.411 177.004 C 302.075 177.658,301.440 178.460,301.000 178.785 C 300.560 179.111,299.480 180.031,298.600 180.830 C 297.720 181.629,296.499 182.404,295.886 182.553 C 293.699 183.082,293.330 186.666,293.597 204.800 C 293.816 219.680,294.034 221.040,296.320 221.778 C 296.694 221.899,297.301 222.528,297.668 223.176 C 298.043 223.837,299.272 224.847,300.468 225.477 L 302.600 226.600 312.800 226.736 C 325.755 226.909,330.647 226.049,331.617 223.428 C 332.217 221.805,333.171 220.012,334.031 218.892 L 334.728 217.983 335.978 219.492 C 337.777 221.663,337.803 222.248,336.252 225.605 L 334.866 228.604 331.269 230.127 L 327.672 231.650 314.536 231.473 C 297.776 231.247,294.806 230.685,294.158 227.615 C 293.732 225.591,293.175 224.750,291.987 224.335 C 289.314 223.404,288.563 216.786,288.903 197.154 C 289.131 183.971,289.325 182.750,291.571 180.339 C 292.027 179.849,292.400 179.251,292.400 179.010 C 292.400 178.108,296.200 174.879,297.600 174.592 C 299.516 174.200,300.302 173.737,300.588 172.837 C 301.173 170.995,316.287 170.029,325.149 171.267 M267.361 174.458 L 268.458 176.915 268.459 202.845 L 268.461 228.774 267.383 230.187 C 266.055 231.928,265.894 231.932,264.610 230.249 L 263.580 228.898 263.573 202.906 C 263.567 177.417,263.583 176.872,264.409 174.777 C 265.820 171.197,265.902 171.188,267.361 174.458 M117.659 202.660 L 117.647 228.881 116.724 230.233 L 115.800 231.584 114.260 230.046 L 112.719 228.507 112.778 218.887 C 112.844 208.078,112.967 208.545,109.598 206.807 C 106.787 205.357,105.173 205.217,90.889 205.190 C 75.320 205.160,76.616 204.980,71.400 207.902 L 69.400 209.023 69.393 218.749 C 69.385 229.497,69.564 228.731,66.712 230.234 C 64.480 231.411,64.476 231.363,64.485 202.742 C 64.492 178.999,64.550 176.769,65.192 175.347 L 65.892 173.800 67.796 175.759 L 69.700 177.718 69.452 179.959 C 68.262 190.696,68.653 192.726,72.709 196.899 C 76.396 200.693,75.452 200.506,90.854 200.493 C 111.771 200.476,113.502 199.225,112.775 184.650 C 112.431 177.764,112.495 177.381,114.513 174.230 L 115.774 172.259 116.722 174.348 L 117.670 176.438 117.659 202.660 " stroke="none" fill="#2c8c94" fill-rule="evenodd"></path><path id="path4" d="M200.942 164.500 L 199.457 165.800 201.429 166.000 C 208.061 166.673,240.906 165.980,240.185 165.183 C 238.415 163.227,233.258 162.754,229.800 164.230 C 227.227 165.329,211.089 164.850,207.736 163.576 C 205.463 162.712,202.530 163.111,200.942 164.500 M295.589 163.859 C 292.363 166.006,293.381 166.301,303.000 166.000 C 309.281 165.804,309.381 165.787,308.356 165.091 C 305.878 163.407,297.484 162.597,295.589 163.859 M324.800 164.057 C 323.085 164.736,321.586 164.953,318.000 165.044 C 306.804 165.326,309.579 165.907,322.349 165.953 C 333.599 165.994,335.235 165.924,334.818 165.422 C 333.347 163.649,327.755 162.888,324.800 164.057 M158.532 165.200 C 145.717 165.534,149.374 166.000,164.813 166.000 C 175.567 166.000,179.243 165.883,178.911 165.551 C 178.394 165.034,170.271 164.894,158.532 165.200 M114.800 165.600 C 114.334 165.901,114.451 165.989,115.324 165.994 C 115.972 165.997,116.343 165.831,116.200 165.600 C 115.893 165.103,115.569 165.103,114.800 165.600 M77.806 171.098 C 77.653 172.117,77.576 175.752,77.635 179.175 C 77.694 182.599,77.601 186.769,77.429 188.441 C 77.048 192.154,76.958 192.096,82.255 191.554 C 84.405 191.334,86.532 191.245,86.982 191.355 C 88.650 191.765,104.039 191.721,104.454 191.306 C 104.737 191.023,104.659 189.790,104.206 187.371 C 103.741 184.890,103.627 182.984,103.820 180.921 C 103.971 179.311,103.965 176.270,103.808 174.164 L 103.520 170.335 102.590 171.209 C 101.751 171.997,101.172 173.726,100.678 176.917 C 100.529 177.876,101.192 182.019,101.820 184.046 C 101.955 184.482,101.204 185.364,99.510 186.758 L 97.000 188.824 93.881 188.559 C 91.934 188.393,89.638 188.486,87.769 188.805 C 84.407 189.380,84.232 189.299,81.537 185.913 L 80.354 184.426 81.039 180.976 C 82.023 176.023,81.043 171.093,78.795 169.690 C 78.162 169.295,78.053 169.450,77.806 171.098 M58.950 172.187 C 58.826 172.510,58.907 173.275,59.131 173.887 C 59.519 174.952,59.538 174.927,59.568 173.300 C 59.601 171.570,59.356 171.129,58.950 172.187 M277.747 183.432 C 277.365 195.721,277.380 205.023,277.806 220.258 L 278.088 230.316 279.744 229.590 C 280.655 229.190,282.075 228.739,282.900 228.587 L 284.400 228.311 284.400 225.238 L 284.400 222.165 283.100 221.783 C 280.370 220.979,280.217 220.077,280.069 203.901 C 279.898 185.263,280.339 182.253,283.396 181.147 C 284.780 180.647,284.800 180.606,284.800 178.338 L 284.800 176.036 283.300 175.780 C 280.384 175.282,279.096 174.641,278.587 173.432 C 278.172 172.446,278.040 174.010,277.747 183.432 M189.363 176.277 C 188.087 177.654,188.260 178.762,189.900 179.717 L 191.200 180.474 191.200 177.837 C 191.200 174.909,190.882 174.639,189.363 176.277 M252.841 177.726 C 252.255 179.222,252.278 187.459,252.877 190.767 L 253.353 193.400 254.155 189.289 C 255.209 183.885,254.134 174.426,252.841 177.726 M346.614 181.825 C 346.459 183.069,346.459 185.184,346.615 186.526 L 346.898 188.964 348.040 187.685 C 349.980 185.514,349.799 182.190,347.634 180.231 C 346.928 179.592,346.885 179.659,346.614 181.825 M152.500 184.043 C 152.182 184.372,152.000 185.763,152.000 187.866 C 152.000 191.969,152.224 192.156,156.462 191.606 C 158.078 191.396,161.127 191.219,163.238 191.212 C 166.621 191.201,167.166 191.100,167.837 190.359 C 168.986 189.089,170.190 188.597,175.000 187.433 C 185.666 184.852,182.569 183.741,165.600 184.061 C 161.530 184.137,157.030 184.049,155.600 183.863 C 153.638 183.609,152.877 183.654,152.500 184.043 M208.820 184.176 C 208.417 184.662,208.363 185.478,208.600 187.510 C 208.773 188.989,208.888 196.590,208.855 204.400 C 208.823 212.210,208.904 219.455,209.036 220.500 L 209.275 222.400 212.267 222.400 L 215.258 222.400 214.393 221.300 C 211.879 218.105,210.778 211.708,211.305 203.370 C 211.660 197.760,211.627 197.121,210.827 194.206 C 210.354 192.483,210.110 190.952,210.284 190.806 C 210.458 190.659,211.770 189.724,213.200 188.729 L 215.800 186.919 221.959 187.666 C 227.510 188.341,228.211 188.354,229.051 187.803 C 229.885 187.257,231.455 184.863,231.129 184.635 C 230.649 184.298,227.520 183.602,227.246 183.771 C 226.721 184.096,213.219 184.133,211.177 183.816 C 209.744 183.593,209.240 183.670,208.820 184.176 M302.748 184.263 C 302.438 184.636,302.383 185.683,302.576 187.507 C 302.733 188.988,302.840 195.805,302.813 202.655 C 302.786 209.506,302.888 216.751,303.040 218.755 L 303.315 222.400 306.346 222.400 C 309.131 222.400,309.309 222.352,308.537 221.811 C 306.590 220.447,306.301 218.643,305.975 205.800 C 305.807 199.200,305.493 193.125,305.277 192.300 C 305.061 191.475,305.000 190.796,305.142 190.791 C 305.284 190.786,306.293 189.967,307.383 188.971 L 309.367 187.160 312.583 187.414 C 314.353 187.553,317.292 187.825,319.116 188.018 C 323.378 188.468,324.711 188.009,325.969 185.657 C 326.672 184.344,326.541 184.302,321.310 184.147 C 305.869 183.692,303.208 183.708,302.748 184.263 M230.908 194.221 C 226.224 194.951,223.182 197.200,226.878 197.200 C 227.801 197.200,231.947 197.305,236.091 197.433 C 240.235 197.561,244.374 197.540,245.290 197.385 L 246.955 197.104 245.885 196.543 C 245.297 196.235,242.882 195.711,240.520 195.380 C 238.157 195.048,235.820 194.512,235.326 194.188 C 234.832 193.865,234.377 193.624,234.314 193.654 C 234.251 193.684,232.719 193.939,230.908 194.221 M334.281 197.241 C 334.598 197.558,334.932 197.561,335.461 197.254 C 336.109 196.877,336.054 196.823,335.020 196.812 C 334.159 196.803,333.960 196.920,334.281 197.241 M252.926 200.659 C 252.426 203.025,252.517 224.860,253.031 225.726 C 254.845 228.786,255.912 212.122,254.413 204.155 C 253.379 198.661,253.358 198.614,252.926 200.659 M333.100 208.229 C 331.165 209.279,331.850 209.600,336.024 209.600 C 340.444 209.600,340.837 209.216,337.431 208.226 C 334.823 207.468,334.502 207.468,333.100 208.229 M77.850 210.450 C 77.523 212.084,77.532 230.379,77.861 233.119 L 78.116 235.239 79.273 234.130 C 81.030 232.446,81.724 229.518,81.417 225.076 C 81.277 223.054,81.325 220.140,81.524 218.600 C 82.074 214.321,80.817 209.200,79.216 209.200 C 78.286 209.200,78.058 209.409,77.850 210.450 M100.798 212.609 C 99.954 215.748,99.918 216.283,100.348 219.357 C 100.605 221.193,100.704 223.934,100.567 225.447 C 100.295 228.462,101.279 232.023,102.750 233.354 C 103.738 234.249,103.993 231.542,103.997 220.150 C 104.000 210.258,103.866 209.200,102.607 209.200 C 101.824 209.200,101.600 209.622,100.798 212.609 M153.048 211.900 C 152.055 223.384,151.917 222.877,155.947 222.511 C 159.225 222.214,159.182 220.186,155.736 212.536 C 153.894 208.446,153.357 208.319,153.048 211.900 M225.954 215.460 C 225.009 215.625,224.885 215.858,224.679 217.852 C 224.554 219.068,224.170 220.492,223.826 221.017 C 222.924 222.394,222.934 222.400,225.960 222.400 L 228.720 222.400 229.190 220.442 C 229.746 218.122,230.881 216.939,233.257 216.197 L 235.000 215.654 233.000 215.623 C 231.900 215.607,230.100 215.522,229.000 215.435 C 227.900 215.348,226.529 215.359,225.954 215.460 M346.618 218.900 C 346.187 224.651,347.101 226.406,348.912 223.304 C 349.659 222.026,349.657 221.974,348.776 219.006 C 347.430 214.472,346.952 214.448,346.618 218.900 M319.600 220.005 C 318.830 220.428,317.750 221.136,317.200 221.578 L 316.200 222.382 319.700 222.391 C 323.473 222.401,323.603 222.311,322.810 220.226 C 322.347 219.008,321.517 218.951,319.600 220.005 M173.200 222.000 C 172.525 222.216,173.345 222.333,175.724 222.360 C 177.980 222.386,179.158 222.256,179.000 222.000 C 178.711 221.533,174.658 221.533,173.200 222.000 M58.992 226.917 C 58.850 227.861,58.913 229.256,59.131 230.017 C 59.482 231.242,59.532 231.045,59.564 228.300 C 59.604 224.852,59.382 224.315,58.992 226.917 M189.375 226.831 L 188.200 228.062 189.322 229.031 C 190.942 230.429,191.200 230.260,191.200 227.800 C 191.200 225.261,190.983 225.146,189.375 226.831 M196.000 234.551 C 196.000 234.634,196.270 234.926,196.600 235.200 C 197.091 235.608,197.200 235.580,197.200 235.049 C 197.200 234.692,196.930 234.400,196.600 234.400 C 196.270 234.400,196.000 234.468,196.000 234.551 M289.600 234.738 C 289.600 234.924,289.960 235.402,290.400 235.800 C 290.840 236.198,291.200 236.331,291.200 236.095 C 291.200 235.859,291.309 235.381,291.443 235.033 C 291.626 234.555,291.429 234.400,290.643 234.400 C 290.069 234.400,289.600 234.552,289.600 234.738 M113.000 240.762 L 111.000 241.006 112.951 241.903 C 114.024 242.396,115.173 242.800,115.504 242.800 C 116.097 242.800,118.956 241.206,118.721 241.006 C 118.368 240.705,114.737 240.550,113.000 240.762 M139.400 240.759 L 137.800 241.005 139.600 242.059 C 142.148 243.552,143.741 243.695,159.000 243.801 C 174.966 243.912,177.902 243.675,179.956 242.108 L 181.393 241.012 179.796 240.729 C 177.860 240.386,141.656 240.413,139.400 240.759 M204.800 240.773 L 202.600 241.016 204.200 241.744 C 207.562 243.273,209.342 243.554,217.351 243.817 C 229.787 244.225,237.575 243.200,237.597 241.152 C 237.605 240.424,210.778 240.114,204.800 240.773 M264.100 240.709 C 262.447 240.889,262.469 241.171,264.230 242.370 L 265.654 243.340 267.875 242.251 C 269.096 241.652,270.029 241.105,269.948 241.036 C 269.676 240.804,265.415 240.566,264.100 240.709 M298.700 240.691 C 296.859 240.884,296.812 241.215,298.500 242.098 C 301.397 243.615,302.171 243.708,312.800 243.825 C 325.499 243.964,328.231 243.703,330.494 242.135 L 332.129 241.002 330.564 240.724 C 328.957 240.438,301.389 240.410,298.700 240.691 M63.200 240.981 C 63.200 241.898,66.196 242.469,68.513 241.994 C 72.678 241.139,72.462 240.825,67.700 240.812 C 65.225 240.805,63.200 240.882,63.200 240.981 " stroke="none" fill="#0c0d2b" fill-rule="evenodd"></path></g></svg>