<svg id="svg" version="1.1" xmlns="http://www.w3.org/2000/svg" xmlns:xlink="http://www.w3.org/1999/xlink" width="400" height="400" viewBox="0, 0, 400,400"><g id="svgg"><path id="path0" d="M96.800 109.557 L 91.000 109.800 90.883 112.693 L 90.765 115.585 81.483 115.693 L 72.200 115.800 72.083 118.893 L 71.967 121.985 62.683 122.093 L 53.400 122.200 53.284 125.046 L 53.167 127.891 50.884 128.175 C 49.628 128.331,48.305 128.459,47.944 128.458 C 47.204 128.456,46.800 129.930,46.800 132.632 L 46.800 134.365 43.900 134.482 L 41.000 134.600 40.883 137.683 L 40.767 140.767 37.683 140.883 L 34.600 141.000 34.484 144.072 L 34.367 147.144 33.084 147.397 C 30.999 147.808,29.677 148.429,29.375 149.137 C 28.881 150.296,28.356 153.307,28.133 156.264 C 27.887 159.518,27.806 159.585,24.088 159.595 L 21.976 159.600 22.088 164.661 L 22.200 169.722 25.181 169.767 C 28.734 169.821,29.816 169.147,31.241 165.994 C 31.992 164.333,32.416 163.907,33.872 163.351 C 35.646 162.674,38.400 160.048,38.400 159.035 C 38.400 158.500,38.965 158.187,43.890 156.000 C 45.040 155.490,46.390 154.633,46.890 154.097 C 48.000 152.907,50.792 151.448,53.204 150.799 C 55.818 150.095,57.782 148.993,58.573 147.785 C 60.605 144.684,65.255 144.051,86.227 144.019 C 104.504 143.991,105.600 144.334,105.600 150.075 L 105.600 153.200 107.600 153.200 C 109.763 153.200,109.800 153.254,109.612 156.100 C 109.569 156.749,109.744 157.200,110.037 157.200 C 110.310 157.200,110.422 157.311,110.286 157.448 C 110.150 157.584,110.316 157.973,110.655 158.312 C 111.181 158.839,111.325 158.846,111.630 158.365 C 111.919 157.909,111.989 157.936,111.994 158.505 C 111.999 159.086,112.335 159.201,113.900 159.159 C 114.945 159.130,117.195 159.128,118.900 159.154 L 122.000 159.200 122.000 162.157 C 122.000 165.776,121.650 165.600,128.833 165.600 L 134.400 165.600 134.400 168.000 C 134.400 169.422,134.573 170.400,134.824 170.400 C 135.057 170.400,135.152 170.554,135.036 170.742 C 134.680 171.318,136.730 172.000,138.819 172.000 L 140.800 172.000 140.800 174.757 C 140.800 177.943,140.863 178.000,144.397 178.000 L 146.729 178.000 146.886 180.300 C 147.171 184.483,146.916 184.335,153.900 184.372 L 159.200 184.400 159.247 186.500 C 159.273 187.655,159.408 190.400,159.547 192.600 L 159.800 196.600 162.700 196.718 L 165.600 196.835 165.600 199.538 C 165.600 202.887,165.896 203.200,169.069 203.200 C 171.497 203.200,171.636 203.143,173.314 201.465 C 177.587 197.191,182.080 199.413,182.337 205.926 C 182.472 209.353,183.492 211.600,184.913 211.600 C 185.790 211.600,187.523 213.295,188.411 215.021 C 189.653 217.436,190.529 217.975,194.272 218.625 C 199.549 219.541,201.200 222.547,201.200 231.235 C 201.200 234.344,201.218 234.400,202.200 234.400 C 203.176 234.400,203.200 234.470,203.200 237.357 C 203.200 240.792,203.209 240.800,207.015 240.800 L 209.565 240.800 209.682 243.700 C 209.814 246.935,209.491 246.676,213.500 246.757 L 215.600 246.800 215.600 249.757 C 215.600 253.193,215.607 253.200,219.433 253.200 L 222.000 253.200 222.000 256.200 L 222.000 259.200 225.200 259.200 L 228.400 259.200 228.400 260.624 C 228.400 261.407,228.554 261.952,228.742 261.836 C 228.930 261.719,229.010 262.024,228.919 262.512 C 228.581 264.325,229.865 265.071,233.500 265.174 C 234.344 265.198,234.400 265.372,234.400 267.971 C 234.400 271.971,234.450 272.000,241.229 272.000 L 246.800 272.000 246.800 274.367 C 246.800 278.204,246.427 278.000,253.443 278.000 L 259.600 278.000 259.600 280.957 C 259.600 284.574,259.257 284.400,266.377 284.400 L 271.888 284.400 272.122 286.663 C 272.262 288.023,272.626 289.181,273.034 289.563 C 273.449 289.953,273.594 289.990,273.407 289.659 C 273.216 289.320,273.526 289.395,274.233 289.859 C 275.295 290.555,276.545 290.600,294.621 290.600 C 315.085 290.600,315.544 290.558,315.065 288.728 C 314.961 288.328,315.038 288.000,315.237 288.000 C 315.437 288.000,315.600 287.195,315.600 286.210 L 315.600 284.421 321.700 284.310 L 327.800 284.200 327.917 281.100 L 328.034 278.000 336.617 278.000 C 341.338 278.000,345.258 278.045,345.329 278.100 C 345.977 278.604,346.800 276.551,346.800 274.429 L 346.800 272.000 349.520 272.000 C 352.926 272.000,353.200 271.727,353.200 268.338 L 353.200 265.635 356.100 265.518 L 359.000 265.400 359.117 262.317 L 359.233 259.233 362.317 259.117 L 365.400 259.000 365.516 255.719 C 365.607 253.150,365.750 252.483,366.175 252.646 C 366.474 252.761,366.842 252.655,366.993 252.411 C 367.148 252.161,367.645 252.083,368.134 252.233 C 368.610 252.380,368.886 252.378,368.746 252.229 C 368.478 251.943,370.444 249.694,370.821 249.856 C 370.943 249.908,371.062 249.292,371.084 248.487 C 371.107 247.683,371.322 246.959,371.563 246.879 C 371.826 246.791,372.000 245.562,372.000 243.784 L 372.000 240.835 374.900 240.718 L 377.800 240.600 377.913 236.100 L 378.026 231.600 375.042 231.600 C 371.940 231.600,369.600 233.154,369.600 235.216 C 369.600 236.241,368.116 237.538,366.421 237.994 C 364.881 238.409,364.094 239.159,362.277 241.946 C 361.529 243.094,360.824 243.483,357.469 244.597 C 354.274 245.659,353.250 246.203,351.996 247.508 C 351.118 248.422,349.624 249.414,348.527 249.812 C 344.501 251.272,342.336 252.410,341.089 253.722 C 338.197 256.766,337.352 256.870,317.017 256.698 C 294.128 256.505,294.759 256.679,294.400 250.460 L 294.200 247.000 292.514 246.878 C 290.908 246.761,290.817 246.685,290.595 245.278 C 289.950 241.174,289.313 240.813,282.700 240.805 L 278.000 240.800 278.000 237.843 C 278.000 234.224,278.350 234.400,271.167 234.400 L 265.600 234.400 265.586 232.300 C 265.572 230.290,264.942 228.425,264.294 228.477 C 264.126 228.491,262.911 228.380,261.594 228.231 L 259.200 227.960 259.153 225.880 C 259.127 224.736,259.140 223.549,259.183 223.243 C 259.309 222.347,258.368 222.013,255.700 222.006 L 253.200 222.000 253.195 219.900 C 253.188 217.462,252.849 215.922,252.382 216.211 C 252.202 216.322,251.942 216.230,251.804 216.007 C 251.654 215.764,249.387 215.600,246.176 215.600 L 240.800 215.600 240.800 210.174 C 240.800 203.276,240.761 203.200,237.186 203.200 L 234.400 203.200 234.400 200.414 C 234.400 197.088,234.083 196.800,230.426 196.800 C 228.618 196.800,228.000 196.942,228.000 197.358 C 228.000 198.407,225.762 200.325,223.979 200.806 C 220.336 201.787,218.000 199.238,218.000 194.283 C 218.000 191.186,216.877 188.800,215.418 188.800 C 214.456 188.800,212.773 187.120,211.787 185.175 C 210.605 182.841,210.146 182.568,206.130 181.799 C 200.764 180.773,199.727 179.053,199.252 170.400 L 199.000 165.800 197.900 165.673 C 196.810 165.548,196.800 165.520,196.800 162.573 L 196.800 159.600 195.656 159.600 C 195.027 159.600,193.677 159.486,192.656 159.346 L 190.800 159.091 190.800 156.919 C 190.800 153.536,190.474 153.200,187.186 153.200 L 184.400 153.200 184.400 150.243 C 184.400 146.807,184.393 146.800,180.567 146.800 L 178.000 146.800 178.000 143.800 L 178.000 140.800 174.800 140.800 C 171.667 140.800,171.599 140.779,171.550 139.800 C 171.500 138.804,171.375 138.090,171.217 137.900 C 171.171 137.845,171.088 137.389,171.032 136.886 C 170.878 135.489,170.228 135.085,167.814 134.885 L 165.600 134.701 165.594 132.050 C 165.585 128.200,165.779 128.317,159.041 128.088 L 153.200 127.890 153.200 125.578 C 153.200 121.812,153.538 122.000,146.757 122.000 L 140.800 122.000 140.800 119.429 C 140.800 115.643,140.721 115.600,133.771 115.600 C 127.510 115.600,127.792 115.710,127.979 113.338 C 128.017 112.864,127.854 112.357,127.617 112.211 C 127.381 112.064,127.295 111.769,127.428 111.555 C 127.773 110.997,126.773 109.925,126.136 110.169 C 125.841 110.282,125.600 110.218,125.600 110.027 C 125.600 109.836,123.665 109.665,121.300 109.648 C 118.935 109.631,113.760 109.548,109.800 109.465 C 105.840 109.382,99.990 109.423,96.800 109.557 M31.900 148.900 C 31.808 149.175,31.478 149.400,31.167 149.400 C 30.855 149.400,30.600 149.655,30.600 149.967 C 30.600 150.278,30.375 150.608,30.100 150.700 C 29.340 150.953,29.501 150.357,30.470 149.326 C 31.412 148.322,32.167 148.098,31.900 148.900 M16.096 172.464 C 15.758 172.802,15.615 174.302,15.646 177.180 C 15.672 179.501,15.767 181.129,15.857 180.798 C 15.990 180.310,16.619 180.222,19.150 180.337 C 23.900 180.553,25.184 178.309,22.940 173.715 L 22.200 172.200 19.396 172.084 C 17.558 172.009,16.420 172.140,16.096 172.464 M380.746 220.717 C 377.282 220.870,376.722 221.424,377.226 224.200 C 377.978 228.347,377.704 228.050,380.713 227.966 C 384.311 227.866,384.454 227.709,384.363 223.956 C 384.279 220.434,384.414 220.555,380.746 220.717 " stroke="none" fill="#2dace2" fill-rule="evenodd"></path><path id="path1" d="M100.500 109.476 C 100.885 109.576,101.515 109.576,101.900 109.476 C 102.285 109.375,101.970 109.293,101.200 109.293 C 100.430 109.293,100.115 109.375,100.500 109.476 M68.000 144.384 C 63.236 144.674,59.799 145.914,58.573 147.785 C 57.782 148.993,55.818 150.095,53.204 150.799 C 50.792 151.448,48.000 152.907,46.890 154.097 C 46.390 154.633,45.040 155.490,43.890 156.000 C 38.965 158.187,38.400 158.500,38.400 159.035 C 38.400 160.048,35.646 162.674,33.872 163.351 C 32.416 163.907,31.992 164.333,31.241 165.994 C 29.801 169.181,28.735 169.832,25.076 169.760 C 21.506 169.689,21.228 170.152,22.839 173.481 C 25.186 178.329,23.984 180.557,19.140 180.337 L 16.000 180.194 15.781 181.397 C 15.538 182.735,15.792 223.342,16.059 225.680 C 16.280 227.625,16.324 227.654,19.378 227.899 L 22.000 228.110 22.000 233.855 C 22.000 237.015,21.985 239.715,21.966 239.855 C 21.886 240.450,23.160 240.788,25.500 240.794 L 28.000 240.800 28.067 242.300 C 28.143 244.006,28.235 245.469,28.333 246.524 C 28.370 246.922,28.577 247.138,28.794 247.004 C 29.038 246.853,29.095 247.223,28.944 247.978 C 28.440 250.502,29.732 251.941,33.100 252.607 C 33.924 252.769,34.412 253.108,34.432 253.532 C 34.450 253.899,34.475 255.312,34.487 256.672 L 34.510 259.143 37.877 259.127 C 39.729 259.118,41.369 259.250,41.522 259.420 C 41.675 259.589,41.530 259.596,41.200 259.434 C 40.870 259.273,40.926 259.407,41.323 259.732 C 42.133 260.393,43.454 260.336,43.300 259.647 C 43.245 259.401,43.481 259.200,43.824 259.200 C 44.206 259.200,44.338 259.393,44.165 259.700 C 43.939 260.100,43.990 260.100,44.421 259.700 C 45.080 259.089,46.150 259.034,45.782 259.630 C 45.598 259.927,45.745 259.940,46.258 259.673 C 47.609 258.969,49.394 258.235,49.800 258.218 C 50.169 258.201,51.400 257.281,52.606 256.119 C 52.880 255.855,53.192 255.726,53.300 255.833 C 53.588 256.122,57.623 251.598,58.129 250.417 C 58.724 249.029,67.140 240.829,68.476 240.336 C 69.179 240.076,69.473 239.736,69.327 239.353 C 69.195 239.010,69.307 238.815,69.598 238.884 C 69.871 238.948,70.149 238.669,70.217 238.265 C 70.284 237.861,70.623 237.216,70.970 236.833 C 71.316 236.450,71.600 235.921,71.600 235.656 C 71.600 235.391,71.885 235.065,72.234 234.932 C 72.623 234.782,72.706 234.589,72.448 234.430 C 72.218 234.287,71.996 233.052,71.955 231.685 C 71.865 228.707,71.483 228.297,68.676 228.164 C 67.534 228.109,66.380 228.050,66.110 228.032 C 65.752 228.009,65.591 226.362,65.510 221.900 L 65.400 215.800 62.600 215.723 C 61.060 215.680,59.665 215.635,59.500 215.623 C 59.335 215.610,59.200 208.588,59.200 200.017 L 59.200 184.434 62.300 184.317 L 65.400 184.200 65.510 178.100 L 65.621 172.000 68.330 172.000 C 71.728 172.000,72.000 171.727,72.000 168.320 L 72.000 165.600 76.300 165.558 C 78.665 165.534,81.115 165.550,81.745 165.592 C 82.403 165.637,82.788 165.504,82.649 165.280 C 82.517 165.066,82.722 164.915,83.104 164.945 C 83.539 164.979,83.779 164.738,83.744 164.300 C 83.714 163.915,83.862 163.600,84.073 163.600 C 84.284 163.600,84.424 163.195,84.384 162.700 C 84.344 162.205,84.331 161.215,84.356 160.500 L 84.400 159.200 90.120 159.200 C 96.811 159.200,96.800 159.206,96.800 155.720 L 96.800 153.200 101.200 153.200 L 105.600 153.200 105.600 150.075 C 105.600 144.273,104.586 143.971,85.427 144.064 C 78.152 144.099,70.310 144.243,68.000 144.384 M30.470 149.326 C 29.501 150.357,29.340 150.953,30.100 150.700 C 30.375 150.608,30.600 150.278,30.600 149.967 C 30.600 149.655,30.855 149.400,31.167 149.400 C 31.478 149.400,31.808 149.175,31.900 148.900 C 32.167 148.098,31.412 148.322,30.470 149.326 M199.286 170.500 C 199.792 179.184,200.753 180.770,206.130 181.799 C 210.146 182.568,210.605 182.841,211.787 185.175 C 212.773 187.120,214.456 188.800,215.418 188.800 C 216.877 188.800,218.000 191.186,218.000 194.283 C 218.000 200.619,222.952 203.320,226.872 199.123 C 228.303 197.591,228.315 197.017,226.900 197.748 C 222.146 200.204,220.001 199.047,219.999 194.025 C 219.997 190.310,219.271 188.929,216.390 187.156 C 214.928 186.256,214.096 185.373,213.381 183.963 C 212.141 181.515,211.215 180.914,206.924 179.769 C 202.305 178.536,201.200 176.582,201.200 169.651 C 201.200 166.282,200.974 165.600,199.857 165.600 C 199.012 165.600,199.004 165.669,199.286 170.500 M176.400 199.483 C 175.210 199.708,172.972 201.332,172.414 202.375 C 172.029 203.093,172.079 203.093,174.012 202.358 C 178.648 200.597,179.912 201.463,180.329 206.684 C 180.656 210.771,181.263 212.008,183.506 213.152 C 185.303 214.070,186.035 214.859,187.157 217.092 C 188.177 219.119,189.335 219.775,193.941 220.931 L 197.400 221.800 198.068 224.200 C 198.465 225.628,198.749 228.179,198.768 230.500 L 198.800 234.400 200.000 234.400 L 201.200 234.400 201.200 231.235 C 201.200 222.547,199.549 219.541,194.272 218.625 C 190.529 217.975,189.653 217.436,188.411 215.021 C 187.523 213.295,185.790 211.600,184.913 211.600 C 183.488 211.600,182.472 209.353,182.337 205.907 C 182.151 201.165,179.972 198.808,176.400 199.483 M377.178 221.119 C 376.385 222.126,376.428 224.589,377.262 226.000 C 377.594 226.562,377.388 224.355,376.959 222.767 C 376.618 221.502,378.059 220.838,381.313 220.763 C 383.011 220.723,384.400 220.551,384.400 220.379 C 384.400 219.479,377.948 220.140,377.178 221.119 M371.187 231.814 C 370.663 232.372,369.776 233.662,369.217 234.680 C 368.658 235.699,367.930 236.669,367.600 236.835 C 367.270 237.001,366.280 237.481,365.400 237.900 C 364.384 238.383,363.328 239.375,362.507 240.616 C 361.032 242.845,360.467 243.189,356.627 244.199 C 354.337 244.801,353.458 245.292,351.588 247.011 C 349.777 248.676,348.665 249.312,346.045 250.185 C 343.669 250.976,342.267 251.731,340.951 252.929 C 337.187 256.355,337.122 256.366,319.316 256.384 C 296.228 256.408,295.200 256.152,295.200 250.398 C 295.200 248.267,295.360 247.202,295.700 247.065 C 295.975 246.954,295.750 246.849,295.200 246.831 L 294.200 246.799 294.400 250.359 C 294.756 256.695,294.076 256.505,317.017 256.698 C 337.352 256.870,338.197 256.766,341.089 253.722 C 342.336 252.410,344.501 251.272,348.527 249.812 C 349.624 249.414,351.118 248.422,351.996 247.508 C 353.250 246.203,354.274 245.659,357.469 244.597 C 360.824 243.483,361.529 243.094,362.277 241.946 C 364.094 239.159,364.881 238.409,366.421 237.994 C 368.116 237.538,369.600 236.241,369.600 235.216 C 369.600 233.151,371.939 231.600,375.053 231.600 C 376.947 231.600,377.956 231.453,377.800 231.200 C 377.225 230.270,372.199 230.737,371.187 231.814 M75.902 234.675 C 76.179 234.781,76.327 234.995,76.231 235.149 C 76.136 235.304,76.500 235.467,77.041 235.512 C 77.829 235.577,77.929 235.490,77.542 235.076 C 77.277 234.792,76.686 234.542,76.230 234.521 C 75.773 234.499,75.626 234.569,75.902 234.675 M92.006 241.898 C 92.011 242.444,92.089 242.480,92.356 242.057 C 92.585 241.697,92.788 241.657,92.963 241.940 C 93.107 242.174,93.535 242.249,93.913 242.108 C 94.521 241.880,94.535 241.930,94.032 242.548 C 93.542 243.150,93.542 243.228,94.032 243.123 C 94.351 243.054,94.546 243.249,94.477 243.568 C 94.375 244.040,94.461 244.048,94.987 243.611 C 95.520 243.169,95.581 243.183,95.382 243.703 C 95.252 244.042,95.357 244.450,95.615 244.610 C 95.964 244.825,95.946 244.988,95.543 245.244 C 95.146 245.495,95.241 245.589,95.895 245.594 C 96.797 245.600,96.827 245.441,96.445 242.676 C 96.420 242.498,96.175 242.488,95.900 242.653 C 95.560 242.857,95.576 242.737,95.949 242.277 C 96.251 241.905,96.431 241.591,96.349 241.581 C 93.070 241.159,92.000 241.238,92.006 241.898 M369.530 250.876 C 368.942 251.489,368.627 252.093,368.830 252.219 C 369.034 252.344,369.200 252.246,369.200 252.000 C 369.200 251.754,369.384 251.667,369.610 251.806 C 369.835 251.945,369.970 251.821,369.910 251.530 C 369.849 251.238,370.038 251.049,370.330 251.110 C 370.621 251.170,370.755 251.051,370.627 250.844 C 370.500 250.637,370.612 250.396,370.878 250.307 C 371.143 250.219,371.189 250.060,370.980 249.954 C 370.771 249.848,370.119 250.263,369.530 250.876 M41.459 260.795 C 41.932 260.987,42.439 261.339,42.587 261.578 C 42.734 261.817,43.010 261.917,43.200 261.800 C 43.390 261.683,43.652 261.760,43.783 261.973 C 43.914 262.185,43.688 262.294,43.280 262.215 C 42.507 262.067,42.299 263.265,42.989 263.892 C 43.176 264.061,43.182 263.947,43.002 263.638 C 42.774 263.245,42.826 263.169,43.173 263.383 C 43.531 263.604,43.548 263.812,43.235 264.125 C 42.922 264.438,42.666 264.426,42.320 264.080 C 42.056 263.816,41.561 263.603,41.220 263.606 C 40.674 263.612,40.671 263.658,41.200 264.000 C 41.643 264.286,41.662 264.389,41.271 264.394 C 40.864 264.399,40.881 264.538,41.343 265.000 C 42.561 266.218,44.324 265.202,44.028 263.453 C 43.995 263.263,44.277 262.633,44.654 262.053 C 45.226 261.175,45.234 261.087,44.705 261.519 C 43.979 262.114,43.361 261.520,43.853 260.700 C 44.057 260.360,43.937 260.376,43.477 260.749 C 43.105 261.051,42.800 261.135,42.800 260.936 C 42.800 260.737,42.305 260.546,41.700 260.511 C 40.703 260.453,40.680 260.479,41.459 260.795 M45.500 260.811 C 46.455 261.197,46.665 261.789,45.993 262.204 C 45.444 262.543,45.812 263.058,46.787 263.312 C 47.459 263.488,47.524 263.405,47.193 262.787 C 46.977 262.383,46.800 261.720,46.800 261.314 C 46.800 260.789,46.480 260.556,45.700 260.511 C 44.661 260.450,44.650 260.467,45.500 260.811 M44.366 264.464 C 43.814 265.496,43.925 265.732,44.632 265.025 C 44.980 264.677,45.458 264.512,45.694 264.658 C 45.938 264.809,46.008 264.737,45.857 264.492 C 45.710 264.255,45.907 263.977,46.295 263.875 C 46.683 263.773,46.490 263.710,45.866 263.735 C 45.242 263.760,44.567 264.088,44.366 264.464 M46.976 268.961 C 47.143 271.764,47.244 271.886,49.390 271.886 C 51.444 271.886,51.308 271.063,49.177 270.595 C 47.848 270.303,47.273 269.649,47.968 269.220 C 48.309 269.009,48.264 268.785,47.801 268.401 C 47.450 268.110,47.256 267.631,47.369 267.336 C 47.482 267.041,47.411 266.800,47.211 266.800 C 47.011 266.800,46.905 267.772,46.976 268.961 M272.626 289.642 C 272.752 289.846,273.010 289.917,273.200 289.800 C 273.390 289.683,273.658 289.770,273.796 289.993 C 273.934 290.217,274.262 290.395,274.524 290.388 C 274.786 290.381,274.640 290.163,274.200 289.903 C 273.180 289.301,272.328 289.160,272.626 289.642 " stroke="none" fill="#772484" fill-rule="evenodd"></path><path id="path2" d="M286.779 109.341 C 286.658 109.469,283.381 109.594,279.496 109.619 C 271.523 109.668,272.133 109.377,272.018 113.191 C 271.937 115.885,272.715 115.559,266.212 115.624 C 259.163 115.694,259.600 115.468,259.600 119.043 L 259.600 122.000 253.500 122.008 C 243.304 122.021,241.281 122.579,241.185 125.400 C 241.104 127.777,240.717 128.180,238.643 128.053 C 237.384 127.976,236.414 128.161,235.729 128.610 C 235.148 128.990,234.837 129.064,235.013 128.780 C 235.214 128.453,235.162 128.377,234.862 128.562 C 234.585 128.733,234.400 129.956,234.400 131.624 L 234.400 134.400 232.900 134.447 C 232.075 134.473,231.151 134.460,230.846 134.418 C 228.929 134.150,228.504 134.695,228.213 137.796 L 227.932 140.800 224.966 140.800 L 222.000 140.800 222.000 143.800 L 222.000 146.800 219.700 146.846 C 218.435 146.872,217.220 146.934,217.000 146.985 C 216.780 147.036,216.367 147.106,216.082 147.139 C 215.798 147.173,215.594 147.425,215.630 147.700 C 215.666 147.975,215.673 149.325,215.647 150.700 L 215.600 153.200 212.600 153.200 L 209.600 153.200 209.600 154.344 C 209.600 154.973,209.487 156.310,209.350 157.315 L 209.099 159.141 206.165 159.416 C 204.551 159.567,203.245 159.806,203.263 159.946 C 203.642 162.950,203.130 165.555,202.136 165.673 L 201.072 165.800 201.160 169.200 C 201.362 176.924,202.229 178.516,206.924 179.769 C 211.215 180.914,212.141 181.515,213.381 183.963 C 214.096 185.373,214.928 186.256,216.390 187.156 C 219.271 188.929,219.997 190.310,219.999 194.025 C 220.001 199.088,222.258 200.259,227.000 197.658 C 227.667 197.292,229.533 196.911,231.200 196.800 L 234.200 196.600 234.317 193.717 L 234.434 190.833 237.517 190.717 L 240.600 190.600 240.717 187.517 L 240.833 184.434 243.717 184.317 L 246.600 184.200 246.717 181.117 L 246.833 178.033 249.917 177.917 L 253.000 177.800 253.117 174.917 L 253.234 172.034 256.117 171.917 L 259.000 171.800 259.117 168.710 L 259.233 165.620 265.517 165.510 L 271.800 165.400 271.917 162.300 L 272.034 159.200 276.917 159.152 C 279.603 159.125,282.205 159.100,282.700 159.097 C 283.195 159.093,283.600 158.845,283.600 158.545 C 283.600 158.245,283.791 158.000,284.025 158.000 C 284.259 158.000,284.418 157.685,284.379 157.300 C 284.340 156.915,284.329 155.835,284.354 154.900 L 284.400 153.200 293.911 153.200 L 303.421 153.200 303.264 154.853 C 303.146 156.083,303.231 156.428,303.596 156.203 C 303.962 155.976,304.016 156.215,303.811 157.148 C 303.406 158.994,304.411 159.200,313.826 159.200 C 319.883 159.200,322.000 159.323,322.000 159.676 C 322.000 159.939,322.244 159.819,322.542 159.411 C 322.874 158.958,323.339 158.768,323.742 158.922 C 324.115 159.065,324.400 158.978,324.400 158.721 C 324.400 158.471,324.518 158.385,324.663 158.530 C 324.808 158.675,325.168 158.593,325.463 158.348 C 325.862 158.017,326.180 158.040,326.700 158.438 C 327.085 158.733,327.267 158.816,327.103 158.624 C 326.940 158.431,327.030 157.997,327.303 157.660 C 327.709 157.159,327.699 157.107,327.248 157.379 C 326.864 157.610,326.758 157.542,326.898 157.156 C 327.009 156.850,327.274 156.636,327.487 156.679 C 327.700 156.723,328.660 155.958,329.621 154.979 C 330.607 153.973,331.738 153.200,332.221 153.200 C 333.281 153.200,334.400 152.017,334.400 150.897 C 334.400 150.365,335.302 149.274,336.856 147.928 C 339.985 145.216,344.451 140.804,344.082 140.788 C 343.927 140.781,344.119 140.590,344.508 140.363 C 344.898 140.136,345.112 139.781,344.983 139.573 C 344.854 139.365,345.030 139.087,345.372 138.955 C 345.715 138.824,345.872 138.510,345.721 138.258 C 345.570 138.006,345.786 138.070,346.200 138.400 C 346.639 138.750,346.828 138.791,346.653 138.500 C 346.488 138.225,346.507 138.000,346.696 138.000 C 346.885 138.000,347.278 138.225,347.569 138.500 C 348.005 138.912,348.020 138.849,347.659 138.144 C 347.287 137.420,347.344 137.256,348.032 137.076 C 348.675 136.908,348.753 136.975,348.403 137.396 C 348.078 137.788,348.088 138.007,348.442 138.226 C 348.707 138.390,348.825 138.361,348.704 138.162 C 348.583 137.963,348.735 137.568,349.042 137.284 C 349.471 136.888,349.600 136.882,349.600 137.261 C 349.600 137.531,349.854 137.405,350.165 136.981 C 350.475 136.556,350.644 136.072,350.541 135.904 C 350.236 135.412,350.996 135.556,351.533 136.093 C 351.924 136.484,352.075 136.399,352.262 135.684 C 352.485 134.832,352.531 134.821,353.082 135.491 C 353.588 136.106,353.638 136.112,353.459 135.535 C 353.287 134.983,353.434 134.923,354.326 135.176 C 354.917 135.344,355.725 135.433,356.122 135.373 C 356.732 135.281,356.764 135.361,356.330 135.884 C 355.878 136.429,355.968 136.471,357.070 136.229 C 357.888 136.049,358.428 136.122,358.624 136.438 C 358.815 136.747,358.756 136.820,358.462 136.638 C 357.883 136.280,357.865 137.001,358.428 138.052 C 358.746 138.646,358.720 139.019,358.328 139.502 C 358.007 139.898,357.984 140.043,358.270 139.872 C 358.544 139.708,358.816 139.884,358.923 140.295 C 359.024 140.683,359.125 139.740,359.147 138.200 C 359.198 134.702,359.057 134.504,356.600 134.618 C 353.294 134.772,353.200 134.695,353.200 131.822 C 353.200 128.646,352.737 128.200,349.438 128.200 L 347.000 128.200 346.800 125.200 L 346.600 122.200 344.200 122.131 C 342.880 122.092,338.703 122.047,334.917 122.031 L 328.034 122.000 327.917 118.900 C 327.826 116.493,327.666 115.788,327.200 115.746 C 326.870 115.717,324.150 115.672,321.155 115.646 L 315.710 115.600 315.497 112.950 C 315.265 110.063,314.894 109.574,313.000 109.660 C 312.340 109.690,306.220 109.577,299.400 109.410 C 292.580 109.243,286.901 109.212,286.779 109.341 M366.200 147.573 C 366.889 147.892,366.903 147.948,366.300 147.972 C 365.708 147.996,365.600 148.401,365.600 150.600 L 365.600 153.200 366.900 153.263 C 367.615 153.297,368.784 153.351,369.498 153.383 C 370.264 153.417,371.037 153.760,371.385 154.220 C 371.917 154.924,371.976 154.932,371.987 154.300 C 371.994 153.915,371.857 153.600,371.682 153.600 C 371.507 153.600,371.324 152.925,371.275 152.100 C 371.087 148.928,370.164 147.964,366.800 147.426 C 365.753 147.259,365.602 147.296,366.200 147.573 M376.546 160.202 C 377.960 160.940,378.000 160.940,378.000 160.200 C 378.000 159.789,377.590 159.601,376.700 159.602 L 375.400 159.605 376.546 160.202 M322.535 160.493 C 322.018 161.309,322.116 164.553,322.674 165.121 C 323.266 165.725,328.515 165.709,328.141 165.105 C 328.016 164.902,327.465 164.848,326.918 164.985 C 326.338 165.130,325.664 165.019,325.300 164.717 C 324.957 164.433,324.615 164.245,324.539 164.300 C 323.966 164.713,322.887 164.298,322.979 163.700 C 323.038 163.315,322.887 162.848,322.643 162.662 C 322.370 162.454,322.463 162.409,322.887 162.545 C 323.265 162.666,323.698 162.565,323.849 162.321 C 324.005 162.067,323.943 161.988,323.704 162.136 C 323.473 162.279,323.175 162.112,323.042 161.765 C 322.661 160.773,322.767 160.129,323.200 160.800 C 323.433 161.161,323.590 161.210,323.594 160.924 C 323.603 160.204,322.899 159.918,322.535 160.493 M323.784 163.227 C 323.639 163.461,323.653 163.776,323.815 163.927 C 323.977 164.077,324.190 163.975,324.288 163.700 C 324.386 163.425,324.642 163.200,324.857 163.200 C 325.072 163.200,325.119 163.408,324.962 163.662 C 324.784 163.950,324.852 164.015,325.145 163.834 C 325.402 163.675,325.509 163.377,325.383 163.172 C 325.071 162.668,324.108 162.701,323.784 163.227 M328.000 167.710 C 328.000 168.283,328.169 168.857,328.375 168.985 C 328.590 169.117,328.665 168.747,328.551 168.117 C 328.282 166.637,328.000 166.428,328.000 167.710 M328.000 170.333 C 328.000 170.907,328.454 171.154,329.073 170.917 C 329.557 170.731,329.568 170.626,329.134 170.350 C 328.450 169.917,328.000 169.910,328.000 170.333 M380.311 172.347 C 379.470 172.542,379.307 172.736,379.594 173.197 C 379.891 173.672,380.068 173.692,380.463 173.297 C 381.169 172.591,381.798 172.679,381.200 173.400 C 380.926 173.730,380.769 174.013,380.851 174.030 C 382.883 174.435,382.920 174.427,382.354 173.706 C 381.853 173.068,381.866 173.052,382.487 173.538 C 382.865 173.834,383.135 174.194,383.087 174.338 C 383.039 174.482,383.180 174.647,383.400 174.705 C 383.620 174.763,383.820 174.456,383.844 174.024 C 383.869 173.591,383.779 173.250,383.644 173.266 C 382.879 173.356,382.677 173.136,383.200 172.782 C 383.640 172.484,383.490 172.448,382.640 172.646 C 381.818 172.838,381.563 172.784,381.764 172.458 C 382.068 171.967,381.980 171.960,380.311 172.347 M383.484 176.400 C 383.348 176.920,383.472 177.200,383.837 177.200 C 384.147 177.200,384.400 176.840,384.400 176.400 C 384.400 175.960,384.241 175.600,384.047 175.600 C 383.852 175.600,383.599 175.960,383.484 176.400 M334.400 182.400 C 334.400 182.620,334.602 182.800,334.849 182.800 C 335.179 182.800,335.180 182.942,334.852 183.337 C 334.247 184.066,334.691 184.409,336.167 184.354 C 336.886 184.327,337.099 184.229,336.677 184.120 C 336.280 184.017,335.789 183.498,335.587 182.966 C 335.225 182.014,334.400 181.621,334.400 182.400 M163.505 209.483 C 164.002 209.579,164.722 209.575,165.105 209.475 C 165.487 209.375,165.080 209.296,164.200 209.301 C 163.320 209.305,163.007 209.387,163.505 209.483 M159.301 214.200 C 159.305 215.080,159.387 215.393,159.483 214.895 C 159.579 214.398,159.575 213.678,159.475 213.295 C 159.375 212.913,159.296 213.320,159.301 214.200 M317.831 235.297 C 318.072 236.058,318.026 236.119,317.521 235.700 C 316.761 235.069,316.255 235.543,316.882 236.299 C 317.268 236.764,317.218 236.846,316.620 236.736 C 316.215 236.661,315.804 236.825,315.708 237.100 C 315.394 237.998,316.435 237.626,317.657 236.404 C 318.768 235.294,318.898 234.400,317.949 234.400 C 317.714 234.400,317.664 234.772,317.831 235.297 M321.120 234.880 C 321.493 235.253,321.707 235.253,322.080 234.880 C 322.453 234.507,322.347 234.400,321.600 234.400 C 320.853 234.400,320.747 234.507,321.120 234.880 M305.800 241.351 C 306.190 241.635,306.941 241.786,307.471 241.684 C 308.683 241.453,308.573 241.371,306.646 241.073 C 305.308 240.866,305.190 240.905,305.800 241.351 M304.480 242.080 C 303.817 242.743,303.879 243.403,304.665 244.051 C 305.274 244.553,305.287 244.515,304.811 243.600 C 304.525 243.050,304.434 242.733,304.609 242.897 C 305.015 243.276,306.064 242.426,305.772 241.955 C 305.472 241.469,305.050 241.510,304.480 242.080 M115.600 243.424 C 115.600 244.004,115.773 244.340,116.000 244.200 C 116.220 244.064,116.400 243.603,116.400 243.176 C 116.400 242.749,116.220 242.400,116.000 242.400 C 115.780 242.400,115.600 242.861,115.600 243.424 M303.243 243.600 C 303.329 245.001,303.815 245.967,304.284 245.674 C 304.646 245.449,304.570 245.071,303.987 244.186 C 303.557 243.534,303.222 243.270,303.243 243.600 M171.484 263.999 C 171.369 264.438,170.853 264.967,170.338 265.174 C 169.692 265.432,169.609 265.557,170.071 265.575 C 170.883 265.605,172.000 264.561,172.000 263.771 C 172.000 262.948,171.728 263.069,171.484 263.999 M158.406 273.100 C 158.411 273.957,158.498 274.068,158.800 273.600 C 159.306 272.817,159.306 272.000,158.800 272.000 C 158.580 272.000,158.403 272.495,158.406 273.100 M157.997 274.700 C 157.993 275.180,155.201 276.948,154.349 277.011 C 153.921 277.043,153.353 277.298,153.086 277.579 C 152.697 277.988,152.763 278.041,153.414 277.845 C 153.861 277.711,155.000 277.526,155.944 277.436 C 157.986 277.239,160.282 274.400,158.400 274.400 C 158.180 274.400,157.999 274.535,157.997 274.700 M84.400 287.200 C 84.400 287.860,84.592 288.400,84.827 288.400 C 85.068 288.400,85.146 288.739,85.007 289.179 C 84.730 290.049,87.239 291.008,88.931 290.678 C 89.513 290.565,89.365 290.491,88.482 290.454 C 86.757 290.383,85.200 288.848,85.200 287.218 C 85.200 286.548,85.020 286.000,84.800 286.000 C 84.580 286.000,84.400 286.540,84.400 287.200 M127.522 289.099 C 127.386 289.593,126.853 290.167,126.338 290.374 C 125.781 290.597,125.653 290.760,126.024 290.775 C 127.037 290.816,128.100 289.811,127.927 288.974 C 127.782 288.270,127.745 288.282,127.522 289.099 " stroke="none" fill="#f46025" fill-rule="evenodd"></path><path id="path3" d="M352.262 135.684 C 352.075 136.399,351.924 136.484,351.533 136.093 C 350.996 135.556,350.236 135.412,350.541 135.904 C 350.644 136.072,350.475 136.556,350.165 136.981 C 349.854 137.405,349.600 137.531,349.600 137.261 C 349.600 136.882,349.471 136.888,349.042 137.284 C 348.735 137.568,348.583 137.963,348.704 138.162 C 348.825 138.361,348.707 138.390,348.442 138.226 C 348.088 138.007,348.078 137.788,348.403 137.396 C 348.753 136.975,348.675 136.908,348.032 137.076 C 347.344 137.256,347.287 137.420,347.659 138.144 C 348.020 138.849,348.005 138.912,347.569 138.500 C 347.278 138.225,346.885 138.000,346.696 138.000 C 346.507 138.000,346.488 138.225,346.653 138.500 C 346.828 138.791,346.639 138.750,346.200 138.400 C 345.786 138.070,345.570 138.006,345.721 138.258 C 345.872 138.510,345.715 138.824,345.372 138.955 C 345.030 139.087,344.854 139.365,344.983 139.573 C 345.112 139.781,344.898 140.136,344.508 140.363 C 344.119 140.590,343.927 140.781,344.082 140.788 C 344.451 140.804,339.985 145.216,336.856 147.928 C 335.191 149.370,334.400 150.349,334.400 150.966 C 334.400 152.053,333.245 153.200,332.152 153.200 C 331.720 153.200,330.581 154.001,329.621 154.979 C 328.660 155.958,327.700 156.723,327.487 156.679 C 327.274 156.636,327.009 156.850,326.898 157.156 C 326.758 157.542,326.864 157.610,327.248 157.379 C 327.699 157.107,327.709 157.159,327.303 157.660 C 327.030 157.997,326.940 158.431,327.103 158.624 C 327.267 158.816,327.085 158.733,326.700 158.438 C 326.180 158.040,325.862 158.017,325.463 158.348 C 325.168 158.593,324.808 158.675,324.663 158.530 C 324.518 158.385,324.400 158.471,324.400 158.721 C 324.400 158.978,324.115 159.065,323.742 158.922 C 323.339 158.768,322.874 158.958,322.542 159.411 C 321.844 160.366,321.841 161.030,322.537 160.452 C 323.100 159.985,323.604 160.231,323.594 160.967 C 323.591 161.205,323.413 161.130,323.200 160.800 C 322.871 160.291,322.811 160.310,322.806 160.924 C 322.803 161.322,322.656 161.558,322.480 161.449 C 322.304 161.341,322.160 161.671,322.160 162.183 C 322.160 162.767,322.348 163.041,322.664 162.920 C 322.997 162.792,323.113 163.011,323.007 163.563 C 322.890 164.170,323.060 164.414,323.623 164.450 C 324.485 164.505,324.727 164.561,325.600 164.906 C 325.930 165.036,326.627 165.111,327.149 165.072 C 327.887 165.016,328.125 165.223,328.217 166.000 C 328.282 166.550,328.429 167.499,328.543 168.108 C 328.662 168.746,328.591 169.118,328.375 168.985 C 328.169 168.857,328.000 169.021,328.000 169.349 C 328.000 169.678,328.372 170.064,328.828 170.209 C 329.597 170.453,329.606 170.507,328.967 170.975 C 328.485 171.327,328.417 171.563,328.739 171.763 C 328.993 171.919,329.200 171.857,329.200 171.624 C 329.200 171.391,329.391 171.200,329.624 171.200 C 329.857 171.200,329.949 171.359,329.829 171.553 C 329.709 171.748,330.486 171.859,331.557 171.800 C 334.345 171.647,334.344 171.645,334.438 177.109 C 334.485 179.799,334.679 182.000,334.871 182.000 C 335.063 182.000,335.385 182.433,335.586 182.963 C 335.915 183.828,337.539 184.577,338.643 184.372 C 338.839 184.335,339.405 184.327,339.900 184.353 L 340.800 184.400 340.800 200.000 L 340.800 215.600 338.900 215.663 C 337.855 215.698,336.672 215.698,336.272 215.663 C 334.779 215.533,334.535 216.404,334.442 222.196 C 334.338 228.738,334.670 228.081,331.413 228.187 C 328.208 228.290,328.290 228.208,328.187 231.413 C 328.084 234.585,328.332 234.334,325.191 234.432 C 323.766 234.476,322.367 234.695,322.083 234.919 C 321.728 235.199,321.421 235.181,321.103 234.863 C 320.567 234.327,318.245 234.226,318.571 234.753 C 318.874 235.244,317.347 237.099,316.390 237.403 C 315.780 237.597,315.600 238.012,315.600 239.227 L 315.600 240.800 312.576 240.800 C 310.264 240.800,309.623 240.918,309.853 241.300 C 310.053 241.633,309.925 241.615,309.470 241.245 C 306.965 239.213,302.539 242.009,304.214 244.566 C 304.752 245.386,304.755 245.532,304.239 245.730 C 303.852 245.878,303.591 245.654,303.479 245.078 C 303.361 244.470,303.292 244.599,303.254 245.500 L 303.200 246.800 299.833 246.800 C 295.089 246.800,295.200 246.714,295.200 250.407 C 295.200 256.151,296.236 256.408,319.316 256.384 C 337.122 256.366,337.187 256.355,340.951 252.929 C 342.267 251.731,343.669 250.976,346.045 250.185 C 348.665 249.312,349.777 248.676,351.588 247.011 C 353.458 245.292,354.337 244.801,356.627 244.199 C 360.467 243.189,361.032 242.845,362.507 240.616 C 363.328 239.375,364.384 238.383,365.400 237.900 C 366.280 237.481,367.270 237.001,367.600 236.835 C 367.930 236.669,368.658 235.699,369.217 234.680 C 371.168 231.127,371.788 230.726,375.097 230.872 L 378.002 231.000 378.001 229.280 C 378.000 228.334,377.755 227.074,377.456 226.480 C 375.334 222.270,376.541 220.144,381.077 220.107 L 384.200 220.082 384.268 198.641 C 384.325 180.539,384.248 177.200,383.778 177.200 C 383.344 177.200,383.307 176.971,383.610 176.174 C 384.109 174.861,384.102 174.780,383.500 174.900 C 383.225 174.955,383.039 174.792,383.087 174.538 C 383.135 174.284,382.865 173.834,382.487 173.538 C 381.866 173.052,381.853 173.068,382.354 173.706 C 382.853 174.342,382.813 174.397,381.954 174.266 C 380.878 174.102,380.788 173.621,381.723 173.031 C 382.184 172.740,382.578 172.837,383.194 173.394 C 383.892 174.026,383.991 174.043,383.780 173.493 C 383.390 172.474,382.084 172.253,380.930 173.009 C 380.080 173.566,379.840 173.589,379.561 173.142 C 379.316 172.750,379.523 172.530,380.311 172.347 C 381.213 172.138,381.108 172.087,379.700 172.047 L 378.000 172.000 377.953 166.900 C 377.927 164.095,377.929 161.597,377.959 161.349 C 378.043 160.646,375.458 159.600,373.640 159.600 C 371.870 159.600,371.777 159.414,371.950 156.249 C 371.985 155.616,371.815 154.859,371.572 154.566 C 371.330 154.274,371.224 153.886,371.336 153.703 C 371.449 153.520,370.790 153.363,369.871 153.354 C 368.952 153.344,367.615 153.306,366.900 153.268 L 365.600 153.200 365.600 150.629 C 365.600 148.517,365.725 148.026,366.300 147.876 C 366.967 147.702,366.967 147.691,366.300 147.646 C 365.776 147.612,365.587 147.223,365.549 146.100 C 365.455 143.303,365.400 142.870,365.103 142.571 C 364.940 142.408,365.029 142.006,365.300 141.679 C 365.721 141.172,365.654 141.129,364.847 141.385 C 364.195 141.592,363.985 141.548,364.174 141.243 C 364.364 140.935,363.586 140.800,361.624 140.800 C 359.333 140.800,358.800 140.682,358.800 140.176 C 358.800 139.784,358.615 139.664,358.300 139.853 C 357.935 140.072,357.943 139.977,358.328 139.502 C 358.720 139.019,358.746 138.646,358.428 138.052 C 357.865 137.001,357.883 136.280,358.462 136.638 C 358.756 136.820,358.815 136.747,358.624 136.438 C 358.428 136.122,357.888 136.049,357.070 136.229 C 355.968 136.471,355.878 136.429,356.330 135.884 C 356.764 135.361,356.732 135.281,356.122 135.373 C 355.725 135.433,354.917 135.344,354.326 135.176 C 353.434 134.923,353.287 134.983,353.459 135.535 C 353.638 136.112,353.588 136.106,353.082 135.491 C 352.531 134.821,352.485 134.832,352.262 135.684 M325.383 163.172 C 325.509 163.377,325.402 163.675,325.145 163.834 C 324.852 164.015,324.784 163.950,324.962 163.662 C 325.119 163.408,325.072 163.200,324.857 163.200 C 324.642 163.200,324.386 163.425,324.288 163.700 C 324.190 163.975,323.977 164.077,323.815 163.927 C 323.407 163.548,323.928 162.800,324.600 162.800 C 324.904 162.800,325.256 162.968,325.383 163.172 M316.134 235.427 C 316.002 235.772,316.099 236.259,316.350 236.510 C 316.913 237.073,318.246 235.922,317.824 235.238 C 317.424 234.592,316.411 234.705,316.134 235.427 M308.400 241.353 C 308.400 241.693,306.366 241.869,306.167 241.546 C 306.049 241.356,306.503 241.200,307.176 241.200 C 307.849 241.200,308.400 241.269,308.400 241.353 M305.772 241.955 C 306.064 242.426,305.015 243.276,304.609 242.897 C 304.434 242.733,304.525 243.050,304.811 243.600 C 305.287 244.515,305.274 244.553,304.665 244.051 C 303.879 243.403,303.817 242.743,304.480 242.080 C 305.050 241.510,305.472 241.469,305.772 241.955 " stroke="none" fill="#fbad3a" fill-rule="evenodd"></path><path id="path4" d="M173.800 202.418 C 172.568 202.899,170.829 203.199,169.271 203.200 C 166.099 203.200,165.745 203.551,165.648 206.790 C 165.555 209.890,165.941 209.536,162.549 209.635 L 159.718 209.718 159.635 212.549 C 159.536 215.941,159.890 215.555,156.790 215.648 C 153.531 215.746,153.200 216.089,153.200 219.371 L 153.200 222.000 150.176 222.000 C 148.412 222.000,147.249 222.155,147.383 222.372 C 147.509 222.577,147.461 222.839,147.276 222.953 C 147.090 223.068,146.896 224.201,146.845 225.472 C 146.733 228.252,146.852 228.113,144.502 228.199 C 140.443 228.348,140.800 228.040,140.800 231.400 L 140.800 234.400 135.096 234.400 C 128.497 234.400,128.510 234.392,128.147 238.327 C 128.032 239.575,127.900 240.633,127.855 240.679 C 127.809 240.724,125.389 240.798,122.476 240.844 C 119.176 240.895,116.938 241.103,116.537 241.396 C 115.948 241.827,115.949 241.867,116.547 241.867 C 116.906 241.867,117.200 241.717,117.200 241.533 C 117.200 241.350,117.425 241.206,117.700 241.213 C 117.975 241.221,117.775 241.581,117.256 242.013 C 116.736 242.446,116.442 242.800,116.602 242.800 C 116.761 242.800,116.591 243.259,116.224 243.819 C 115.857 244.380,115.611 245.235,115.678 245.719 L 115.800 246.600 105.910 246.707 C 97.204 246.801,96.048 246.741,96.253 246.207 C 96.409 245.800,96.241 245.598,95.743 245.594 C 95.329 245.590,95.177 245.458,95.400 245.294 C 95.988 244.862,96.120 243.879,95.542 244.236 C 95.209 244.442,95.148 244.313,95.341 243.809 C 95.579 243.188,95.530 243.161,94.987 243.611 C 94.461 244.048,94.375 244.040,94.477 243.568 C 94.546 243.249,94.351 243.054,94.032 243.123 C 93.582 243.220,93.563 243.126,93.943 242.669 C 94.321 242.213,94.290 242.043,93.789 241.851 C 93.359 241.686,93.253 241.766,93.456 242.105 C 93.653 242.433,93.525 242.415,93.077 242.051 C 92.503 241.586,92.399 241.586,92.394 242.051 C 92.389 242.515,92.333 242.514,92.039 242.049 C 91.847 241.746,91.489 241.621,91.245 241.772 C 91.000 241.924,90.800 241.869,90.800 241.650 C 90.800 241.432,91.295 241.193,91.900 241.119 C 92.505 241.045,89.688 240.937,85.639 240.878 C 81.591 240.820,77.991 240.604,77.639 240.398 C 77.247 240.169,77.193 240.020,77.500 240.012 C 78.262 239.994,78.096 238.884,77.300 238.676 C 76.648 238.505,76.649 238.490,77.318 238.446 C 78.075 238.397,78.129 237.247,77.400 236.700 C 77.149 236.512,77.224 236.253,77.600 236.006 C 78.188 235.620,77.362 235.360,76.232 235.575 C 76.030 235.614,76.060 235.410,76.298 235.123 C 76.633 234.719,76.512 234.587,75.766 234.542 C 75.158 234.506,74.800 234.702,74.800 235.071 C 74.800 235.568,74.704 235.562,74.171 235.029 C 73.826 234.683,73.454 234.400,73.345 234.400 C 72.803 234.400,71.600 235.284,71.600 235.683 C 71.600 235.933,71.316 236.450,70.970 236.833 C 70.623 237.216,70.284 237.861,70.217 238.265 C 70.149 238.669,69.871 238.948,69.598 238.884 C 69.307 238.815,69.195 239.010,69.327 239.353 C 69.473 239.736,69.179 240.076,68.476 240.336 C 67.140 240.829,58.724 249.029,58.129 250.417 C 57.636 251.566,53.592 256.125,53.313 255.846 C 53.156 255.689,52.325 256.298,50.647 257.800 C 50.401 258.020,50.020 258.208,49.800 258.218 C 49.394 258.235,47.609 258.969,46.258 259.673 C 45.745 259.940,45.598 259.927,45.782 259.630 C 46.150 259.034,45.080 259.089,44.421 259.700 C 43.990 260.100,43.939 260.100,44.165 259.700 C 44.338 259.393,44.206 259.200,43.824 259.200 C 43.481 259.200,43.245 259.417,43.300 259.682 C 43.389 260.111,42.928 260.209,41.576 260.050 C 41.343 260.022,41.256 259.832,41.383 259.628 C 41.509 259.423,41.467 259.165,41.290 259.055 C 41.112 258.945,40.941 259.192,40.910 259.604 C 40.879 260.015,41.156 260.432,41.527 260.529 C 42.135 260.690,42.133 260.712,41.500 260.754 C 40.762 260.803,40.496 262.000,41.224 262.000 C 41.457 262.000,41.536 261.820,41.400 261.600 C 41.264 261.380,41.343 261.200,41.576 261.200 C 42.250 261.200,42.067 261.999,41.329 262.283 C 40.729 262.513,40.740 262.572,41.429 262.842 C 42.176 263.135,42.176 263.145,41.400 263.174 C 40.744 263.199,40.811 263.315,41.768 263.814 C 42.929 264.420,44.213 264.026,43.173 263.383 C 42.826 263.169,42.774 263.245,43.002 263.638 C 43.182 263.947,43.176 264.061,42.989 263.892 C 42.299 263.265,42.507 262.067,43.280 262.215 C 43.688 262.294,43.914 262.185,43.783 261.973 C 43.652 261.760,43.398 261.678,43.218 261.789 C 43.038 261.900,42.682 261.739,42.426 261.431 C 42.108 261.048,42.093 260.789,42.381 260.612 C 42.611 260.469,42.800 260.565,42.800 260.825 C 42.800 261.159,42.999 261.136,43.477 260.749 C 43.937 260.376,44.057 260.360,43.853 260.700 C 43.361 261.520,43.979 262.114,44.705 261.519 C 45.217 261.100,45.204 261.209,44.635 262.082 C 44.248 262.678,44.039 263.340,44.172 263.555 C 44.305 263.769,44.230 264.058,44.007 264.196 C 43.783 264.334,43.603 264.752,43.606 265.124 C 43.611 265.707,43.666 265.717,44.000 265.200 C 44.213 264.870,44.391 264.795,44.394 265.033 C 44.403 265.655,45.996 265.451,46.426 264.772 C 46.817 264.154,46.930 264.483,46.816 265.900 C 46.776 266.395,46.946 266.800,47.195 266.800 C 47.444 266.800,47.529 266.991,47.384 267.225 C 47.240 267.459,47.437 267.999,47.823 268.425 C 48.280 268.930,48.352 269.200,48.029 269.200 C 47.068 269.200,47.866 270.151,49.224 270.625 C 49.981 270.888,50.564 271.278,50.521 271.489 C 50.477 271.701,51.062 271.833,51.821 271.782 C 52.858 271.713,53.208 271.852,53.233 272.345 C 53.252 272.705,53.285 273.937,53.307 275.082 C 53.350 277.274,54.285 278.194,56.260 277.986 C 56.667 277.943,60.375 277.929,64.500 277.954 L 72.000 278.000 72.000 280.511 C 72.000 284.234,72.300 284.400,79.005 284.400 C 84.133 284.400,84.400 284.440,84.400 285.200 C 84.400 285.640,84.604 286.000,84.853 286.000 C 85.151 286.000,85.235 286.579,85.097 287.700 C 84.983 288.635,84.975 289.174,85.079 288.898 C 85.210 288.550,85.476 288.653,85.943 289.230 C 86.979 290.508,88.462 290.600,108.086 290.600 C 129.037 290.600,127.523 290.887,127.889 286.853 L 128.111 284.400 133.156 284.369 C 140.709 284.324,140.641 284.363,140.750 280.000 L 140.800 278.000 146.511 278.000 C 150.651 278.000,152.439 277.851,153.011 277.460 C 153.445 277.163,154.266 276.806,154.835 276.668 C 156.522 276.259,157.949 274.878,158.230 273.383 C 158.488 272.005,158.497 272.000,160.745 271.969 C 165.042 271.911,165.414 271.614,165.555 268.127 C 165.666 265.379,165.369 265.722,167.852 265.480 C 170.424 265.229,171.583 264.622,171.661 263.486 C 171.694 262.999,171.764 262.420,171.815 262.200 C 171.866 261.980,171.928 261.215,171.954 260.500 L 172.000 259.200 174.520 259.200 C 177.671 259.200,178.000 258.871,178.000 255.720 L 178.000 253.200 180.720 253.200 C 184.129 253.200,184.400 252.929,184.400 249.520 L 184.400 246.800 187.120 246.800 C 190.491 246.800,190.800 246.508,190.800 243.320 L 190.800 240.800 193.320 240.800 C 196.508 240.800,196.800 240.491,196.800 237.120 C 196.800 234.485,196.831 234.400,197.800 234.400 L 198.800 234.400 198.768 230.500 C 198.749 228.179,198.465 225.628,198.068 224.200 L 197.400 221.800 193.941 220.931 C 189.335 219.775,188.177 219.119,187.157 217.092 C 186.035 214.859,185.303 214.070,183.506 213.152 C 181.263 212.008,180.656 210.771,180.329 206.684 C 179.910 201.438,178.563 200.558,173.800 202.418 M46.800 261.314 C 46.800 261.720,46.977 262.383,47.193 262.787 C 47.524 263.405,47.459 263.488,46.787 263.312 C 45.812 263.058,45.444 262.543,45.993 262.204 C 46.665 261.789,46.455 261.197,45.500 260.811 C 44.650 260.467,44.661 260.450,45.700 260.511 C 46.480 260.556,46.800 260.789,46.800 261.314 M46.295 263.875 C 45.907 263.977,45.670 264.190,45.767 264.347 C 45.865 264.505,45.597 264.660,45.172 264.692 C 44.458 264.746,44.158 264.375,44.578 263.956 C 44.675 263.858,45.260 263.758,45.878 263.734 C 46.495 263.709,46.683 263.773,46.295 263.875 " stroke="none" fill="#e41d7c" fill-rule="evenodd"></path></g></svg>