<svg id="svg" version="1.1" xmlns="http://www.w3.org/2000/svg" xmlns:xlink="http://www.w3.org/1999/xlink" width="400" height="400" viewBox="0, 0, 400,400"><g id="svgg"><path id="path0" d="M90.316 84.300 C 89.981 84.685,89.586 85.511,89.437 86.134 C 89.289 86.758,88.740 87.696,88.218 88.218 C 87.696 88.740,86.758 89.289,86.134 89.437 C 83.461 90.074,83.600 88.966,83.600 109.582 C 83.600 123.560,83.720 128.360,84.080 128.720 C 84.779 129.419,315.621 129.419,316.320 128.720 C 316.680 128.360,316.800 123.560,316.800 109.582 C 316.800 88.966,316.939 90.074,314.266 89.437 C 312.813 89.092,311.308 87.587,310.963 86.134 C 310.297 83.339,321.702 83.600,200.200 83.600 C 96.626 83.600,90.892 83.637,90.316 84.300 M84.080 158.880 C 83.710 159.250,83.600 176.573,83.600 234.418 C 83.600 317.817,83.351 310.300,86.134 310.963 C 87.587 311.308,89.092 312.813,89.437 314.266 C 90.103 317.061,78.698 316.800,200.200 316.800 C 321.702 316.800,310.297 317.061,310.963 314.266 C 311.308 312.813,312.813 311.308,314.266 310.963 C 317.004 310.311,316.800 313.192,316.800 275.218 C 316.800 249.106,316.686 240.846,316.320 240.480 C 315.963 240.123,311.827 240.000,300.182 240.000 C 282.780 240.000,283.961 239.813,282.798 242.747 C 282.262 244.100,280.354 245.596,279.162 245.599 C 277.792 245.602,277.200 246.937,277.198 250.031 C 277.194 255.040,275.546 258.400,273.093 258.400 C 271.945 258.400,271.011 259.364,270.637 260.934 C 270.282 262.426,268.714 263.957,267.238 264.252 C 265.819 264.536,264.603 265.785,264.236 267.334 C 263.892 268.786,262.387 270.292,260.934 270.637 C 259.364 271.011,258.400 271.945,258.400 273.093 C 258.400 275.559,255.040 277.194,249.962 277.198 C 246.893 277.200,245.600 277.779,245.600 279.151 C 245.600 281.819,242.493 283.578,237.762 283.591 C 234.218 283.601,233.556 283.957,233.037 286.134 C 232.119 289.995,232.118 289.996,200.200 289.996 C 168.282 289.996,168.281 289.995,167.363 286.134 C 166.844 283.957,166.182 283.601,162.638 283.591 C 157.856 283.578,154.800 281.820,154.800 279.082 C 154.800 277.796,153.447 277.289,149.583 277.129 C 145.316 276.952,143.389 276.176,142.504 274.280 C 142.227 273.686,141.775 272.730,141.500 272.155 C 141.184 271.495,140.411 270.912,139.400 270.570 C 137.627 269.972,136.518 268.841,136.142 267.249 C 135.796 265.779,134.554 264.531,133.162 264.252 C 131.686 263.957,130.118 262.426,129.763 260.934 C 129.417 259.483,128.475 258.400,127.557 258.400 C 124.830 258.400,123.539 256.099,123.290 250.800 C 123.111 246.959,122.595 245.600,121.318 245.600 C 118.580 245.600,116.822 242.544,116.809 237.762 C 116.799 234.218,116.443 233.556,114.266 233.037 C 109.542 231.913,108.808 220.166,113.307 217.707 C 114.532 217.037,119.888 216.995,215.163 216.897 C 288.377 216.822,315.872 216.673,316.263 216.348 C 317.009 215.728,317.065 159.625,316.320 158.880 C 315.621 158.181,84.779 158.181,84.080 158.880 M160.551 167.235 C 162.406 167.750,163.867 169.110,164.237 170.666 C 164.749 172.816,165.434 173.200,168.762 173.202 C 173.737 173.206,176.162 174.312,176.661 176.803 C 176.937 178.184,178.199 179.400,179.734 179.764 C 182.407 180.397,183.594 182.961,183.598 188.109 C 183.600 191.127,183.632 191.230,184.700 191.651 C 187.799 192.873,188.416 193.271,189.022 194.442 C 190.352 197.015,189.485 200.186,187.093 201.493 C 185.481 202.374,167.685 202.777,164.791 201.998 C 162.820 201.467,161.342 200.130,160.963 198.534 C 160.590 196.971,159.746 196.102,157.730 195.210 C 156.464 194.650,155.829 194.048,155.321 192.925 C 154.060 190.136,153.822 190.000,150.200 190.000 C 146.579 190.000,146.340 190.136,145.079 192.924 C 144.530 194.138,143.945 194.645,142.208 195.414 C 140.367 196.228,139.882 196.674,139.113 198.266 C 137.351 201.908,134.292 202.593,121.000 202.323 C 111.952 202.140,110.830 201.359,110.486 195.000 C 110.202 189.764,111.538 186.712,114.362 186.148 C 115.781 185.864,116.997 184.615,117.364 183.066 C 117.708 181.613,119.213 180.108,120.666 179.764 C 122.207 179.398,123.463 178.183,123.743 176.784 C 124.247 174.263,126.577 173.206,131.638 173.202 C 134.937 173.200,135.653 172.810,136.141 170.751 C 136.516 169.169,137.621 168.033,139.400 167.403 C 141.388 166.697,158.137 166.565,160.551 167.235 M260.551 167.235 C 262.406 167.750,263.867 169.110,264.237 170.666 C 264.749 172.816,265.434 173.200,268.762 173.202 C 273.737 173.206,276.162 174.312,276.661 176.803 C 276.937 178.184,278.199 179.400,279.734 179.764 C 281.226 180.117,282.757 181.685,283.052 183.162 C 283.336 184.581,284.585 185.797,286.134 186.164 C 288.914 186.822,290.195 189.816,289.914 195.000 C 289.570 201.359,288.448 202.140,279.400 202.323 C 266.108 202.593,263.049 201.908,261.287 198.266 C 260.518 196.674,260.033 196.228,258.192 195.414 C 256.455 194.645,255.870 194.138,255.321 192.924 C 254.060 190.136,253.821 190.000,250.200 190.000 C 246.578 190.000,246.340 190.136,245.079 192.925 C 244.571 194.048,243.936 194.650,242.670 195.210 C 240.654 196.102,239.810 196.971,239.437 198.534 C 239.058 200.130,237.580 201.467,235.609 201.998 C 232.715 202.777,214.919 202.374,213.307 201.493 C 210.915 200.186,210.048 197.015,211.378 194.442 C 211.984 193.271,212.601 192.873,215.700 191.651 C 216.768 191.230,216.800 191.127,216.802 188.109 C 216.806 182.961,217.993 180.397,220.666 179.764 C 222.207 179.398,223.463 178.183,223.743 176.784 C 224.247 174.263,226.577 173.206,231.638 173.202 C 234.937 173.200,235.653 172.810,236.141 170.751 C 236.516 169.169,237.621 168.033,239.400 167.403 C 241.388 166.697,258.137 166.565,260.551 167.235 M146.457 240.531 C 145.602 241.561,146.682 243.582,149.681 246.565 C 151.286 248.162,153.463 250.393,154.517 251.523 C 156.098 253.218,156.905 253.724,159.113 254.406 C 162.506 255.454,163.350 256.017,164.005 257.669 C 164.986 260.147,165.425 260.400,168.762 260.402 C 173.813 260.406,175.983 261.494,176.662 264.365 C 177.273 266.945,175.873 266.800,200.200 266.800 C 223.833 266.800,223.600 266.819,223.600 264.882 C 223.600 262.083,225.819 260.729,230.800 260.491 C 235.080 260.286,235.308 260.174,236.380 257.753 C 236.959 256.443,237.528 255.849,238.675 255.357 C 239.514 254.997,240.468 254.571,240.796 254.411 C 241.123 254.250,241.704 253.237,242.087 252.159 C 242.840 250.039,243.900 248.931,245.551 248.542 C 246.852 248.236,248.399 246.872,248.401 246.030 C 248.404 244.834,249.909 242.935,251.253 242.432 C 254.535 241.202,254.512 241.217,253.992 240.590 C 253.293 239.748,147.155 239.690,146.457 240.531 " stroke="none" fill="#fcfcfc" fill-rule="evenodd"></path><path id="path1" d="M0.000 200.000 L 0.000 400.000 200.000 400.000 L 400.000 400.000 400.000 200.000 L 400.000 0.000 200.000 0.000 L 0.000 0.000 0.000 200.000 M312.671 80.233 C 313.328 80.717,314.063 81.845,314.429 82.929 C 315.202 85.216,315.184 85.198,317.471 85.971 C 321.176 87.222,320.985 86.004,321.105 109.129 C 321.223 131.843,321.266 131.468,318.400 132.899 C 316.225 133.986,84.175 133.986,82.000 132.899 C 79.134 131.468,79.177 131.843,79.295 109.129 C 79.414 86.078,79.239 87.226,82.833 85.995 C 85.265 85.161,85.461 84.996,85.754 83.529 C 85.896 82.821,86.293 81.813,86.636 81.289 C 88.072 79.097,80.858 79.222,200.671 79.315 L 311.541 79.400 312.671 80.233 M318.400 155.101 C 321.319 156.559,321.199 155.151,321.199 187.800 C 321.199 220.449,321.319 219.041,318.400 220.499 C 317.078 221.160,311.373 221.199,216.380 221.199 C 138.654 221.200,115.651 221.309,115.280 221.680 C 114.616 222.344,114.633 228.247,115.300 228.671 C 115.575 228.846,116.595 229.262,117.567 229.595 C 120.410 230.568,120.965 231.688,121.200 236.912 L 121.400 241.367 122.980 241.694 C 126.185 242.357,127.200 244.293,127.200 249.738 C 127.200 253.824,127.341 254.124,129.481 254.581 C 131.308 254.972,132.667 256.179,133.223 257.906 C 133.874 259.928,134.206 260.275,135.774 260.569 C 137.724 260.934,139.112 262.204,139.660 264.121 C 140.280 266.290,140.610 266.695,142.009 267.002 C 143.799 267.395,145.135 268.683,145.660 270.521 C 146.412 273.152,146.501 273.200,150.662 273.200 C 156.040 273.200,158.400 274.353,158.400 276.980 C 158.400 278.885,158.918 279.110,163.672 279.263 C 168.698 279.424,169.832 279.992,170.805 282.833 C 171.138 283.805,171.554 284.825,171.729 285.100 C 171.979 285.492,178.114 285.600,200.200 285.600 C 222.286 285.600,228.421 285.492,228.671 285.100 C 228.846 284.825,229.262 283.805,229.595 282.833 C 230.575 279.972,231.689 279.424,236.854 279.264 C 239.747 279.174,241.297 278.969,241.381 278.664 C 241.451 278.409,241.712 277.450,241.961 276.533 C 242.631 274.059,244.621 273.200,249.677 273.200 C 253.904 273.200,253.987 273.157,254.740 270.521 C 255.265 268.683,256.601 267.395,258.391 267.002 C 259.790 266.695,260.120 266.290,260.740 264.121 C 261.288 262.204,262.676 260.934,264.626 260.569 C 266.194 260.275,266.526 259.928,267.177 257.906 C 267.733 256.179,269.092 254.972,270.919 254.581 C 273.063 254.123,273.200 253.829,273.200 249.677 C 273.200 243.888,274.226 242.194,278.138 241.526 C 278.620 241.444,279.106 240.717,279.538 239.433 C 280.809 235.655,279.942 235.815,299.729 235.694 C 319.097 235.575,319.084 235.573,320.503 238.400 C 321.160 239.709,321.199 242.130,321.103 275.671 C 320.986 316.546,321.305 313.135,317.471 314.429 C 315.184 315.202,315.202 315.184,314.429 317.471 C 314.063 318.556,313.328 319.683,312.671 320.167 L 311.541 321.000 200.200 321.000 L 88.859 321.000 87.729 320.167 C 87.072 319.683,86.337 318.556,85.971 317.471 C 85.198 315.184,85.216 315.202,82.929 314.429 C 81.845 314.063,80.717 313.328,80.233 312.671 L 79.400 311.541 79.299 235.071 C 79.186 149.500,78.945 156.627,82.000 155.101 C 84.175 154.014,316.225 154.014,318.400 155.101 M140.495 171.700 C 140.274 171.975,139.972 172.762,139.825 173.450 C 139.245 176.166,137.039 177.200,131.823 177.200 C 127.770 177.200,127.476 177.341,127.012 179.510 C 126.612 181.382,125.000 183.126,123.390 183.428 C 121.783 183.730,121.496 184.053,120.860 186.279 C 120.322 188.162,118.989 189.411,117.081 189.819 C 115.001 190.263,114.800 190.628,114.800 193.969 C 114.800 198.102,114.623 198.000,121.813 198.000 C 130.545 198.000,131.962 197.641,134.432 194.801 C 136.417 192.519,138.157 191.600,140.495 191.600 C 141.344 191.600,141.535 191.370,141.739 190.100 C 142.305 186.580,144.148 185.600,150.200 185.600 C 156.217 185.600,157.935 186.460,158.378 189.691 C 158.590 191.240,158.686 191.335,160.500 191.795 C 162.890 192.400,163.882 193.292,164.473 195.365 C 165.260 198.122,164.763 198.000,175.200 198.000 C 186.506 198.000,188.237 197.457,182.833 195.605 C 180.011 194.639,179.424 193.486,179.264 188.591 C 179.116 184.061,179.080 183.992,176.533 183.264 C 174.880 182.792,173.200 180.518,173.200 178.754 C 173.200 177.512,172.264 177.200,168.546 177.200 C 163.362 177.200,161.154 176.161,160.575 173.450 C 160.086 171.163,160.257 171.200,150.200 171.200 C 143.240 171.200,140.797 171.326,140.495 171.700 M240.495 171.700 C 240.274 171.975,239.972 172.762,239.825 173.450 C 239.245 176.166,237.039 177.200,231.823 177.200 C 227.770 177.200,227.476 177.341,227.012 179.510 C 226.612 181.382,225.000 183.126,223.390 183.428 C 221.442 183.794,221.292 184.143,221.138 188.672 C 220.975 193.478,220.375 194.644,217.567 195.605 C 212.163 197.457,213.894 198.000,225.200 198.000 C 235.655 198.000,235.137 198.129,235.940 195.321 C 236.505 193.341,237.943 192.083,240.016 191.751 C 241.367 191.535,241.535 191.370,241.746 190.056 C 242.305 186.583,244.171 185.600,250.200 185.600 C 256.242 185.600,257.940 186.459,258.378 189.735 C 258.566 191.144,258.754 191.417,259.600 191.509 C 262.687 191.847,263.978 192.513,265.956 194.786 C 268.440 197.643,269.845 198.000,278.587 198.000 C 285.777 198.000,285.600 198.102,285.600 193.969 C 285.600 190.566,285.494 190.396,282.921 189.660 C 281.004 189.112,279.734 187.724,279.369 185.774 C 279.071 184.185,278.743 183.895,276.533 183.264 C 274.880 182.792,273.200 180.518,273.200 178.754 C 273.200 177.512,272.264 177.200,268.546 177.200 C 263.362 177.200,261.154 176.161,260.575 173.450 C 260.086 171.163,260.257 171.200,250.200 171.200 C 243.240 171.200,240.797 171.326,240.495 171.700 M255.761 236.158 C 259.838 237.861,259.366 244.435,255.079 245.660 C 252.856 246.295,252.530 246.584,252.231 248.174 C 251.866 250.124,250.596 251.512,248.679 252.060 C 246.436 252.701,246.130 252.980,245.812 254.674 C 245.453 256.591,243.628 258.400,242.054 258.400 C 240.697 258.400,240.463 258.665,239.605 261.167 C 238.628 264.022,237.506 264.576,232.392 264.735 C 227.655 264.882,227.594 264.912,226.877 267.424 C 226.622 268.317,225.946 269.487,225.375 270.024 L 224.336 271.000 201.068 271.121 C 174.859 271.257,175.306 271.298,174.033 268.667 C 173.575 267.721,173.200 266.666,173.200 266.323 C 173.200 265.169,172.223 264.875,167.928 264.737 C 162.844 264.574,161.766 264.020,160.764 261.052 C 159.897 258.483,159.905 258.487,155.528 258.335 C 151.005 258.177,149.783 257.548,148.785 254.864 C 148.018 252.800,147.600 252.382,145.536 251.615 C 140.737 249.831,139.900 238.549,144.400 236.301 C 146.322 235.340,253.475 235.203,255.761 236.158 " stroke="none" fill="#1c6cf4" fill-rule="evenodd"></path><path id="path2" d="" stroke="none" fill="#c8100f8" fill-rule="evenodd"></path><path id="path3" d="M89.277 80.810 C 88.549 81.254,87.649 82.193,87.277 82.898 C 86.904 83.602,86.055 84.724,85.389 85.389 C 84.724 86.055,83.602 86.904,82.898 87.277 C 79.940 88.839,80.003 88.354,80.003 109.600 C 80.003 130.843,79.918 130.186,82.896 132.002 C 84.953 133.256,315.447 133.256,317.504 132.002 C 320.482 130.186,320.397 130.843,320.397 109.600 C 320.397 88.354,320.460 88.839,317.502 87.277 C 315.865 86.412,313.988 84.535,313.123 82.898 C 312.751 82.193,311.851 81.254,311.123 80.810 C 309.032 79.535,91.368 79.535,89.277 80.810 M310.430 83.500 C 310.969 84.105,311.741 85.257,312.146 86.059 C 312.584 86.928,313.472 87.816,314.341 88.254 C 315.143 88.659,316.295 89.431,316.900 89.970 L 318.000 90.950 318.000 109.600 L 318.000 128.250 316.878 129.325 L 315.756 130.400 200.200 130.400 L 84.644 130.400 83.522 129.325 L 82.400 128.250 82.400 109.600 L 82.400 90.950 83.500 89.970 C 84.105 89.431,85.257 88.659,86.059 88.254 C 86.928 87.816,87.816 86.928,88.254 86.059 C 88.659 85.257,89.431 84.105,89.970 83.500 L 90.950 82.400 200.200 82.400 L 309.450 82.400 310.430 83.500 M82.955 155.962 C 82.271 156.379,81.326 157.261,80.855 157.922 L 80.000 159.123 80.001 234.462 C 80.003 319.239,79.716 311.443,82.898 313.123 C 84.535 313.988,86.412 315.865,87.277 317.502 C 88.971 320.711,76.740 320.397,200.200 320.397 C 323.660 320.397,311.429 320.711,313.123 317.502 C 313.988 315.865,315.865 313.988,317.502 313.123 C 320.589 311.493,320.397 314.010,320.397 275.200 C 320.397 241.379,320.379 240.571,319.602 239.296 C 317.814 236.364,318.079 236.403,300.159 236.401 C 281.984 236.400,282.484 236.313,280.533 239.791 C 279.970 240.796,278.889 241.807,277.527 242.604 C 274.683 244.268,274.044 245.621,274.019 250.030 C 273.998 253.798,273.699 254.349,270.908 255.759 C 270.198 256.118,268.888 257.398,267.998 258.603 C 267.107 259.809,265.709 261.137,264.889 261.555 C 263.184 262.425,262.370 263.261,261.442 265.092 C 261.082 265.802,259.803 267.111,258.600 268.000 C 257.397 268.889,256.118 270.198,255.759 270.908 C 254.349 273.699,253.798 273.998,250.030 274.019 C 245.546 274.044,244.272 274.667,242.505 277.700 L 241.164 280.000 237.682 280.001 C 233.720 280.003,232.050 280.704,230.877 282.859 C 230.504 283.542,229.779 284.618,229.264 285.250 L 228.329 286.400 200.200 286.400 L 172.071 286.400 171.136 285.250 C 170.621 284.618,169.902 283.554,169.538 282.885 C 168.404 280.800,167.060 280.222,162.833 280.000 L 159.025 279.800 157.799 277.600 C 156.172 274.680,154.854 274.044,150.370 274.019 C 146.602 273.998,146.051 273.699,144.641 270.908 C 144.282 270.198,143.002 268.888,141.797 267.998 C 140.591 267.107,139.263 265.709,138.845 264.889 C 137.975 263.184,137.139 262.370,135.308 261.442 C 134.598 261.082,133.289 259.803,132.400 258.600 C 131.511 257.397,130.202 256.118,129.492 255.759 C 126.702 254.350,126.400 253.795,126.400 250.085 C 126.400 245.760,125.569 244.110,122.524 242.392 L 120.400 241.193 120.399 237.697 C 120.397 233.719,119.698 232.052,117.541 230.877 C 114.322 229.123,114.000 228.610,114.000 225.234 C 114.000 222.516,114.113 222.033,114.926 221.270 L 115.852 220.400 216.026 220.399 C 315.278 220.397,316.212 220.390,317.504 219.602 C 320.569 217.733,320.397 219.639,320.399 187.638 L 320.400 159.076 319.379 157.737 C 318.818 157.001,317.837 156.129,317.199 155.800 C 315.169 154.750,84.681 154.909,82.955 155.962 M316.838 158.427 L 318.000 159.254 318.000 187.552 L 318.000 215.850 316.878 216.925 L 315.756 218.000 215.440 218.000 C 123.293 218.000,115.033 218.053,114.016 218.654 C 110.314 220.841,110.559 229.950,114.372 231.871 C 117.584 233.489,118.000 234.181,118.000 237.913 C 118.000 241.831,118.583 243.168,120.772 244.271 C 124.005 245.899,124.400 246.568,124.400 250.415 C 124.400 255.233,124.759 256.048,127.520 257.494 C 129.303 258.427,129.999 259.078,130.728 260.496 C 131.345 261.695,132.156 262.557,133.130 263.049 C 135.278 264.134,136.291 265.122,137.217 267.035 C 137.791 268.221,138.521 268.974,139.625 269.520 C 141.318 270.358,142.514 271.638,142.974 273.105 C 143.583 275.049,145.832 276.000,149.818 276.000 C 153.716 276.000,155.055 276.690,155.772 279.069 C 156.498 281.475,158.283 282.400,162.201 282.400 C 166.255 282.400,166.883 282.760,168.529 286.028 C 170.070 289.088,168.302 288.926,200.200 288.926 C 232.098 288.926,230.330 289.088,231.871 286.028 C 233.489 282.816,234.181 282.400,237.913 282.400 C 241.831 282.400,243.168 281.817,244.271 279.628 C 245.916 276.362,246.546 276.000,250.586 276.000 C 254.900 276.000,256.297 275.300,257.752 272.409 C 258.417 271.089,259.141 270.369,260.514 269.663 C 261.874 268.963,262.594 268.252,263.191 267.019 C 264.109 265.121,265.126 264.132,267.270 263.049 C 268.248 262.555,269.055 261.695,269.680 260.480 C 270.369 259.142,271.099 258.412,272.409 257.752 C 275.300 256.297,276.000 254.900,276.000 250.586 C 276.000 246.546,276.362 245.916,279.628 244.271 C 280.414 243.875,281.384 242.977,281.785 242.276 C 282.185 241.574,282.971 240.505,283.531 239.900 L 284.550 238.800 300.153 238.800 L 315.756 238.800 316.878 239.875 L 318.000 240.950 318.000 275.200 L 318.000 309.450 316.900 310.430 C 316.295 310.969,315.143 311.741,314.341 312.146 C 313.472 312.584,312.584 313.472,312.146 314.341 C 311.741 315.143,310.969 316.295,310.430 316.900 L 309.450 318.000 200.200 318.000 L 90.950 318.000 89.970 316.900 C 89.431 316.295,88.659 315.143,88.254 314.341 C 87.816 313.472,86.928 312.584,86.059 312.146 C 85.257 311.741,84.105 310.969,83.500 310.430 L 82.400 309.450 82.400 234.359 L 82.400 159.267 83.500 158.446 L 84.600 157.625 200.138 157.613 L 315.677 157.600 316.838 158.427 M139.119 168.691 C 138.525 169.060,137.717 170.000,137.324 170.781 C 135.702 174.004,135.030 174.400,131.185 174.400 C 126.609 174.400,125.374 174.849,124.771 176.732 C 124.164 178.630,123.078 179.794,120.958 180.821 C 119.712 181.424,119.024 182.112,118.421 183.358 C 117.495 185.269,116.478 186.267,114.372 187.328 C 112.135 188.456,111.600 189.744,111.600 194.000 C 111.600 201.022,112.152 201.315,125.072 201.135 C 135.970 200.983,135.859 201.013,138.119 197.675 C 138.734 196.766,140.198 195.448,141.371 194.746 C 142.544 194.045,143.821 192.915,144.209 192.235 C 146.487 188.241,152.085 187.169,154.759 190.214 C 155.441 190.992,156.000 191.780,156.000 191.966 C 156.000 192.463,158.475 194.800,159.001 194.800 C 159.619 194.800,161.261 196.704,162.129 198.428 C 163.478 201.107,163.918 201.200,175.200 201.200 C 186.229 201.200,186.779 201.097,188.146 198.784 C 189.344 196.755,188.480 194.528,186.013 193.287 C 182.379 191.459,182.400 191.492,182.400 187.516 C 182.400 183.249,181.827 181.975,179.375 180.788 C 177.505 179.883,176.529 178.866,175.410 176.657 C 174.423 174.710,173.578 174.400,169.249 174.400 C 165.364 174.400,164.702 174.012,163.071 170.772 C 161.723 168.096,161.269 167.999,150.138 168.011 C 141.550 168.020,140.053 168.112,139.119 168.691 M239.119 168.691 C 238.525 169.060,237.717 170.000,237.324 170.781 C 235.702 174.004,235.030 174.400,231.185 174.400 C 226.609 174.400,225.374 174.849,224.771 176.732 C 224.169 178.614,223.080 179.793,221.025 180.788 C 218.573 181.975,218.000 183.249,218.000 187.516 C 218.000 191.492,218.021 191.459,214.387 193.287 C 211.920 194.528,211.056 196.755,212.254 198.784 C 213.621 201.097,214.171 201.200,225.200 201.200 C 236.625 201.200,236.988 201.117,238.412 198.175 C 239.279 196.384,240.323 195.302,242.246 194.203 C 242.931 193.812,243.811 192.931,244.202 192.246 C 247.094 187.178,253.080 187.155,256.195 192.200 C 256.974 193.462,257.818 194.175,259.800 195.246 C 260.459 195.603,261.542 196.666,262.207 197.609 C 264.621 201.038,264.414 200.983,275.328 201.135 C 288.248 201.315,288.800 201.022,288.800 194.000 C 288.800 189.642,288.240 188.381,285.775 187.188 C 283.915 186.288,282.927 185.264,281.837 183.107 C 281.335 182.114,280.520 181.342,279.407 180.803 C 277.506 179.883,276.533 178.874,275.410 176.657 C 274.423 174.710,273.578 174.400,269.249 174.400 C 265.364 174.400,264.702 174.012,263.071 170.772 C 261.723 168.096,261.269 167.999,250.138 168.011 C 241.550 168.020,240.053 168.112,239.119 168.691 M160.537 171.598 C 161.091 172.257,161.659 173.156,161.799 173.597 C 162.333 175.281,165.155 176.400,168.865 176.400 C 172.685 176.400,173.372 176.799,174.598 179.734 C 174.971 180.627,175.745 181.535,176.468 181.929 C 179.742 183.712,180.000 184.147,180.000 187.898 C 180.000 191.753,180.797 193.372,183.321 194.647 C 184.024 195.003,185.006 195.665,185.502 196.119 L 186.404 196.944 185.533 197.872 C 184.668 198.792,184.581 198.800,175.161 198.800 L 165.661 198.800 164.808 197.700 C 164.339 197.095,163.560 195.982,163.077 195.226 C 162.595 194.470,161.397 193.382,160.417 192.809 C 159.322 192.169,158.231 191.078,157.591 189.983 C 154.553 184.785,145.841 184.795,142.800 189.999 C 141.766 191.767,141.316 192.111,138.286 193.440 C 137.297 193.874,136.427 194.693,135.775 195.806 C 134.412 198.132,133.090 198.447,123.671 198.688 C 114.042 198.935,114.000 198.914,114.000 193.966 C 114.000 190.586,114.319 190.080,117.561 188.312 C 118.256 187.933,119.133 187.056,119.512 186.361 C 120.637 184.298,121.907 182.936,123.207 182.397 C 123.963 182.084,124.832 181.185,125.482 180.045 C 127.477 176.543,127.715 176.400,131.535 176.400 C 135.245 176.400,138.067 175.281,138.601 173.597 C 138.741 173.156,139.309 172.257,139.863 171.598 L 140.871 170.400 150.200 170.400 L 159.529 170.400 160.537 171.598 M260.537 171.598 C 261.091 172.257,261.659 173.156,261.799 173.597 C 262.333 175.281,265.155 176.400,268.865 176.400 C 272.685 176.400,273.372 176.799,274.598 179.734 C 274.986 180.661,275.732 181.520,276.507 181.929 C 278.142 182.792,280.014 184.669,280.888 186.322 C 281.267 187.038,282.144 187.933,282.839 188.312 C 286.081 190.080,286.400 190.586,286.400 193.966 C 286.400 198.914,286.358 198.935,276.729 198.688 C 267.310 198.447,265.988 198.132,264.625 195.806 C 263.973 194.693,263.103 193.874,262.114 193.440 C 259.084 192.111,258.634 191.767,257.600 189.999 C 254.559 184.795,245.847 184.785,242.809 189.983 C 242.169 191.078,241.078 192.169,239.983 192.809 C 239.003 193.382,237.805 194.470,237.323 195.226 C 236.840 195.982,236.061 197.095,235.592 197.700 L 234.739 198.800 225.239 198.800 C 215.819 198.800,215.732 198.792,214.867 197.872 L 213.996 196.944 214.898 196.119 C 215.394 195.665,216.376 195.003,217.079 194.647 C 219.603 193.372,220.400 191.753,220.400 187.898 C 220.400 184.257,221.111 182.990,223.597 182.201 C 224.037 182.061,224.878 181.104,225.465 180.073 C 227.479 176.540,227.710 176.400,231.535 176.400 C 235.245 176.400,238.067 175.281,238.601 173.597 C 238.741 173.156,239.309 172.257,239.863 171.598 L 240.871 170.400 250.200 170.400 L 259.529 170.400 260.537 171.598 M145.181 237.301 C 141.137 240.026,141.838 247.631,146.391 250.432 C 147.595 251.173,148.902 252.473,149.795 253.819 C 151.529 256.431,152.640 257.067,156.409 257.601 C 159.992 258.109,160.518 258.398,161.668 260.482 C 163.201 263.258,164.703 264.000,168.789 264.000 C 172.690 264.000,173.367 264.387,174.591 267.318 C 175.927 270.514,174.955 270.397,200.120 270.399 C 225.069 270.400,223.923 270.529,225.562 267.539 C 227.404 264.181,227.713 264.000,231.611 264.000 C 235.650 264.000,237.176 263.267,238.667 260.610 C 239.157 259.736,240.478 258.414,241.654 257.622 C 242.919 256.769,244.180 255.479,244.804 254.400 C 245.376 253.410,246.448 252.240,247.185 251.800 C 248.906 250.772,250.784 248.890,251.805 247.167 C 252.248 246.421,253.375 245.388,254.309 244.873 C 255.244 244.357,256.493 243.301,257.085 242.525 L 258.160 241.114 257.380 239.669 C 256.951 238.875,255.988 237.814,255.241 237.312 L 253.882 236.400 200.200 236.400 L 146.518 236.400 145.181 237.301 M254.544 239.942 L 255.638 241.083 254.519 241.830 C 253.904 242.240,252.750 242.903,251.955 243.303 C 251.090 243.738,250.209 244.625,249.759 245.515 C 248.665 247.679,247.681 248.689,245.765 249.617 C 244.627 250.168,243.817 250.931,243.320 251.920 C 242.046 254.454,241.192 255.515,240.232 255.756 C 239.245 256.004,236.800 258.282,236.800 258.954 C 236.800 260.611,234.665 261.600,231.087 261.600 C 226.857 261.600,225.445 262.221,224.755 264.384 C 224.507 265.163,223.842 266.295,223.277 266.900 L 222.250 268.000 200.200 268.000 L 178.150 268.000 177.120 266.900 C 176.553 266.295,175.970 265.404,175.824 264.920 C 175.064 262.401,173.554 261.600,169.561 261.600 C 165.790 261.600,163.600 260.645,163.600 259.001 C 163.600 257.712,161.003 255.988,157.168 254.730 C 154.985 254.015,153.200 253.276,153.200 253.087 C 153.200 252.171,150.583 249.116,148.818 247.973 C 147.014 246.804,146.747 246.426,145.861 243.791 L 144.887 240.895 145.934 239.847 L 146.982 238.800 200.216 238.800 L 253.450 238.800 254.544 239.942 " stroke="none" fill="#54b8f8" fill-rule="evenodd"></path><path id="path4" d="M88.530 79.783 C 87.065 80.421,86.121 81.695,85.754 83.529 C 85.461 84.996,85.265 85.161,82.833 85.995 C 79.239 87.226,79.414 86.078,79.295 109.129 C 79.177 131.843,79.134 131.468,82.000 132.899 C 84.175 133.986,316.225 133.986,318.400 132.899 C 321.266 131.468,321.223 131.843,321.105 109.129 C 320.985 86.004,321.176 87.222,317.471 85.971 C 315.184 85.198,315.202 85.216,314.429 82.929 C 314.063 81.845,313.328 80.717,312.671 80.233 L 311.541 79.400 200.671 79.315 C 107.002 79.242,89.603 79.315,88.530 79.783 M311.123 80.810 C 311.851 81.254,312.751 82.193,313.123 82.898 C 313.988 84.535,315.865 86.412,317.502 87.277 C 320.460 88.839,320.397 88.354,320.397 109.600 C 320.397 130.843,320.482 130.186,317.504 132.002 C 315.447 133.256,84.953 133.256,82.896 132.002 C 79.918 130.186,80.003 130.843,80.003 109.600 C 80.003 88.354,79.940 88.839,82.898 87.277 C 83.602 86.904,84.724 86.055,85.389 85.389 C 86.055 84.724,86.904 83.602,87.277 82.898 C 87.649 82.193,88.549 81.254,89.277 80.810 C 91.368 79.535,309.032 79.535,311.123 80.810 M82.000 155.101 C 78.945 156.627,79.186 149.500,79.299 235.071 L 79.400 311.541 80.233 312.671 C 80.717 313.328,81.845 314.063,82.929 314.429 C 85.216 315.202,85.198 315.184,85.971 317.471 C 86.337 318.556,87.072 319.683,87.729 320.167 L 88.859 321.000 200.200 321.000 L 311.541 321.000 312.671 320.167 C 313.328 319.683,314.063 318.556,314.429 317.471 C 315.202 315.184,315.184 315.202,317.471 314.429 C 321.305 313.135,320.986 316.546,321.103 275.671 C 321.199 242.130,321.160 239.709,320.503 238.400 C 319.084 235.573,319.097 235.575,299.729 235.694 C 279.942 235.815,280.809 235.655,279.538 239.433 C 279.106 240.717,278.620 241.444,278.138 241.526 C 274.226 242.194,273.200 243.888,273.200 249.677 C 273.200 253.829,273.063 254.123,270.919 254.581 C 269.092 254.972,267.733 256.179,267.177 257.906 C 266.526 259.928,266.194 260.275,264.626 260.569 C 262.676 260.934,261.288 262.204,260.740 264.121 C 260.120 266.290,259.790 266.695,258.391 267.002 C 256.601 267.395,255.265 268.683,254.740 270.521 C 253.987 273.157,253.904 273.200,249.677 273.200 C 244.621 273.200,242.631 274.059,241.961 276.533 C 241.712 277.450,241.451 278.409,241.381 278.664 C 241.297 278.969,239.747 279.174,236.854 279.264 C 231.689 279.424,230.575 279.972,229.595 282.833 C 229.262 283.805,228.846 284.825,228.671 285.100 C 228.205 285.831,172.195 285.831,171.729 285.100 C 171.554 284.825,171.138 283.805,170.805 282.833 C 169.832 279.992,168.698 279.424,163.672 279.263 C 158.918 279.110,158.400 278.885,158.400 276.980 C 158.400 274.353,156.040 273.200,150.662 273.200 C 146.501 273.200,146.412 273.152,145.660 270.521 C 145.135 268.683,143.799 267.395,142.009 267.002 C 140.610 266.695,140.280 266.290,139.660 264.121 C 139.112 262.204,137.724 260.934,135.774 260.569 C 134.206 260.275,133.874 259.928,133.223 257.906 C 132.667 256.179,131.308 254.972,129.481 254.581 C 127.341 254.124,127.200 253.824,127.200 249.738 C 127.200 244.293,126.185 242.357,122.980 241.694 L 121.400 241.367 121.200 236.912 C 120.965 231.688,120.410 230.568,117.567 229.595 C 116.595 229.262,115.575 228.846,115.300 228.671 C 114.633 228.247,114.616 222.344,115.280 221.680 C 115.651 221.309,138.654 221.200,216.380 221.199 C 311.373 221.199,317.078 221.160,318.400 220.499 C 321.319 219.041,321.199 220.449,321.199 187.800 C 321.199 155.151,321.319 156.559,318.400 155.101 C 316.225 154.014,84.175 154.014,82.000 155.101 M317.199 155.800 C 317.837 156.129,318.818 157.001,319.379 157.737 L 320.400 159.076 320.399 187.638 C 320.397 219.639,320.569 217.733,317.504 219.602 C 316.212 220.390,315.278 220.397,216.026 220.399 L 115.852 220.400 114.926 221.270 C 114.113 222.033,114.000 222.516,114.000 225.234 C 114.000 228.610,114.322 229.123,117.541 230.877 C 119.698 232.052,120.397 233.719,120.399 237.697 L 120.400 241.193 122.524 242.392 C 125.569 244.110,126.400 245.760,126.400 250.085 C 126.400 253.795,126.702 254.350,129.492 255.759 C 130.202 256.118,131.511 257.397,132.400 258.600 C 133.289 259.803,134.598 261.082,135.308 261.442 C 137.139 262.370,137.975 263.184,138.845 264.889 C 139.263 265.709,140.591 267.107,141.797 267.998 C 143.002 268.888,144.282 270.198,144.641 270.908 C 146.051 273.699,146.602 273.998,150.370 274.019 C 154.854 274.044,156.172 274.680,157.799 277.600 L 159.025 279.800 162.833 280.000 C 167.060 280.222,168.404 280.800,169.538 282.885 C 169.902 283.554,170.621 284.618,171.136 285.250 L 172.071 286.400 200.200 286.400 L 228.329 286.400 229.264 285.250 C 229.779 284.618,230.504 283.542,230.877 282.859 C 232.050 280.704,233.720 280.003,237.682 280.001 L 241.164 280.000 242.505 277.700 C 244.272 274.667,245.546 274.044,250.030 274.019 C 253.798 273.998,254.349 273.699,255.759 270.908 C 256.118 270.198,257.397 268.889,258.600 268.000 C 259.803 267.111,261.082 265.802,261.442 265.092 C 262.370 263.261,263.184 262.425,264.889 261.555 C 265.709 261.137,267.107 259.809,267.998 258.603 C 268.888 257.398,270.198 256.118,270.908 255.759 C 273.699 254.349,273.998 253.798,274.019 250.030 C 274.044 245.621,274.683 244.268,277.527 242.604 C 278.889 241.807,279.970 240.796,280.533 239.791 C 282.484 236.313,281.984 236.400,300.159 236.401 C 318.079 236.403,317.814 236.364,319.602 239.296 C 320.379 240.571,320.397 241.379,320.397 275.200 C 320.397 314.010,320.589 311.493,317.502 313.123 C 315.865 313.988,313.988 315.865,313.123 317.502 C 311.429 320.711,323.660 320.397,200.200 320.397 C 76.740 320.397,88.971 320.711,87.277 317.502 C 86.412 315.865,84.535 313.988,82.898 313.123 C 79.716 311.443,80.003 319.239,80.001 234.462 L 80.000 159.123 80.855 157.922 C 81.326 157.261,82.271 156.379,82.955 155.962 C 84.681 154.909,315.169 154.750,317.199 155.800 M139.863 171.598 C 139.309 172.257,138.741 173.156,138.601 173.597 C 138.067 175.281,135.245 176.400,131.535 176.400 C 127.715 176.400,127.477 176.543,125.482 180.045 C 124.832 181.185,123.963 182.084,123.207 182.397 C 121.907 182.936,120.637 184.298,119.512 186.361 C 119.133 187.056,118.256 187.933,117.561 188.312 C 114.319 190.080,114.000 190.586,114.000 193.966 C 114.000 198.914,114.042 198.935,123.671 198.688 C 133.090 198.447,134.412 198.132,135.775 195.806 C 136.427 194.693,137.297 193.874,138.286 193.440 C 141.316 192.111,141.766 191.767,142.800 189.999 C 145.841 184.795,154.553 184.785,157.591 189.983 C 158.231 191.078,159.322 192.169,160.417 192.809 C 161.397 193.382,162.595 194.470,163.077 195.226 C 163.560 195.982,164.339 197.095,164.808 197.700 L 165.661 198.800 175.161 198.800 C 184.581 198.800,184.668 198.792,185.533 197.872 L 186.404 196.944 185.502 196.119 C 185.006 195.665,184.024 195.003,183.321 194.647 C 180.797 193.372,180.000 191.753,180.000 187.898 C 180.000 184.147,179.742 183.712,176.468 181.929 C 175.745 181.535,174.971 180.627,174.598 179.734 C 173.372 176.799,172.685 176.400,168.865 176.400 C 165.155 176.400,162.333 175.281,161.799 173.597 C 161.659 173.156,161.091 172.257,160.537 171.598 L 159.529 170.400 150.200 170.400 L 140.871 170.400 139.863 171.598 M239.863 171.598 C 239.309 172.257,238.741 173.156,238.601 173.597 C 238.067 175.281,235.245 176.400,231.535 176.400 C 227.710 176.400,227.479 176.540,225.465 180.073 C 224.878 181.104,224.037 182.061,223.597 182.201 C 221.111 182.990,220.400 184.257,220.400 187.898 C 220.400 191.753,219.603 193.372,217.079 194.647 C 216.376 195.003,215.394 195.665,214.898 196.119 L 213.996 196.944 214.867 197.872 C 215.732 198.792,215.819 198.800,225.239 198.800 L 234.739 198.800 235.592 197.700 C 236.061 197.095,236.840 195.982,237.323 195.226 C 237.805 194.470,239.003 193.382,239.983 192.809 C 241.078 192.169,242.169 191.078,242.809 189.983 C 245.847 184.785,254.559 184.795,257.600 189.999 C 258.634 191.767,259.084 192.111,262.114 193.440 C 263.103 193.874,263.973 194.693,264.625 195.806 C 265.988 198.132,267.310 198.447,276.729 198.688 C 286.358 198.935,286.400 198.914,286.400 193.966 C 286.400 190.586,286.081 190.080,282.839 188.312 C 282.144 187.933,281.267 187.038,280.888 186.322 C 280.014 184.669,278.142 182.792,276.507 181.929 C 275.732 181.520,274.986 180.661,274.598 179.734 C 273.372 176.799,272.685 176.400,268.865 176.400 C 265.155 176.400,262.333 175.281,261.799 173.597 C 261.659 173.156,261.091 172.257,260.537 171.598 L 259.529 170.400 250.200 170.400 L 240.871 170.400 239.863 171.598 M159.905 171.700 C 160.126 171.975,160.428 172.762,160.575 173.450 C 161.154 176.161,163.362 177.200,168.546 177.200 C 172.264 177.200,173.200 177.512,173.200 178.754 C 173.200 180.518,174.880 182.792,176.533 183.264 C 179.080 183.992,179.116 184.061,179.264 188.591 C 179.424 193.486,180.011 194.639,182.833 195.605 C 188.237 197.457,186.506 198.000,175.200 198.000 C 164.763 198.000,165.260 198.122,164.473 195.365 C 163.882 193.292,162.890 192.400,160.500 191.795 C 158.686 191.335,158.590 191.240,158.378 189.691 C 157.935 186.460,156.217 185.600,150.200 185.600 C 144.148 185.600,142.305 186.580,141.739 190.100 C 141.535 191.370,141.344 191.600,140.495 191.600 C 138.157 191.600,136.417 192.519,134.432 194.801 C 131.962 197.641,130.545 198.000,121.813 198.000 C 114.623 198.000,114.800 198.102,114.800 193.969 C 114.800 190.628,115.001 190.263,117.081 189.819 C 118.989 189.411,120.322 188.162,120.860 186.279 C 121.496 184.053,121.783 183.730,123.390 183.428 C 125.000 183.126,126.612 181.382,127.012 179.510 C 127.476 177.341,127.770 177.200,131.823 177.200 C 137.039 177.200,139.245 176.166,139.825 173.450 C 140.314 171.163,140.143 171.200,150.200 171.200 C 157.160 171.200,159.603 171.326,159.905 171.700 M259.905 171.700 C 260.126 171.975,260.428 172.762,260.575 173.450 C 261.154 176.161,263.362 177.200,268.546 177.200 C 272.264 177.200,273.200 177.512,273.200 178.754 C 273.200 180.518,274.880 182.792,276.533 183.264 C 278.743 183.895,279.071 184.185,279.369 185.774 C 279.734 187.724,281.004 189.112,282.921 189.660 C 285.494 190.396,285.600 190.566,285.600 193.969 C 285.600 198.102,285.777 198.000,278.587 198.000 C 269.845 198.000,268.440 197.643,265.956 194.786 C 263.978 192.513,262.687 191.847,259.600 191.509 C 258.754 191.417,258.566 191.144,258.378 189.735 C 257.940 186.459,256.242 185.600,250.200 185.600 C 244.171 185.600,242.305 186.583,241.746 190.056 C 241.535 191.370,241.367 191.535,240.016 191.751 C 237.943 192.083,236.505 193.341,235.940 195.321 C 235.137 198.129,235.655 198.000,225.200 198.000 C 213.894 198.000,212.163 197.457,217.567 195.605 C 220.375 194.644,220.975 193.478,221.138 188.672 C 221.292 184.143,221.442 183.794,223.390 183.428 C 225.000 183.126,226.612 181.382,227.012 179.510 C 227.476 177.341,227.770 177.200,231.823 177.200 C 237.039 177.200,239.245 176.166,239.825 173.450 C 240.314 171.163,240.143 171.200,250.200 171.200 C 257.160 171.200,259.603 171.326,259.905 171.700 M144.400 236.301 C 139.900 238.549,140.737 249.831,145.536 251.615 C 147.600 252.382,148.018 252.800,148.785 254.864 C 149.783 257.548,151.005 258.177,155.528 258.335 C 159.905 258.487,159.897 258.483,160.764 261.052 C 161.766 264.020,162.844 264.574,167.928 264.737 C 172.223 264.875,173.200 265.169,173.200 266.323 C 173.200 266.666,173.575 267.721,174.033 268.667 C 175.306 271.298,174.859 271.257,201.068 271.121 L 224.336 271.000 225.375 270.024 C 225.946 269.487,226.622 268.317,226.877 267.424 C 227.594 264.912,227.655 264.882,232.392 264.735 C 237.506 264.576,238.628 264.022,239.605 261.167 C 240.463 258.665,240.697 258.400,242.054 258.400 C 243.628 258.400,245.453 256.591,245.812 254.674 C 246.130 252.980,246.436 252.701,248.679 252.060 C 250.596 251.512,251.866 250.124,252.231 248.174 C 252.530 246.584,252.856 246.295,255.079 245.660 C 259.366 244.435,259.838 237.861,255.761 236.158 C 253.475 235.203,146.322 235.340,144.400 236.301 M255.241 237.312 C 255.988 237.814,256.951 238.875,257.380 239.669 L 258.160 241.114 257.085 242.525 C 256.493 243.301,255.244 244.357,254.309 244.873 C 253.375 245.388,252.248 246.421,251.805 247.167 C 250.784 248.890,248.906 250.772,247.185 251.800 C 246.448 252.240,245.376 253.410,244.804 254.400 C 244.180 255.479,242.919 256.769,241.654 257.622 C 240.478 258.414,239.157 259.736,238.667 260.610 C 237.176 263.267,235.650 264.000,231.611 264.000 C 227.713 264.000,227.404 264.181,225.562 267.539 C 223.923 270.529,225.069 270.400,200.120 270.399 C 174.955 270.397,175.927 270.514,174.591 267.318 C 173.367 264.387,172.690 264.000,168.789 264.000 C 164.703 264.000,163.201 263.258,161.668 260.482 C 160.518 258.398,159.992 258.109,156.409 257.601 C 152.640 257.067,151.529 256.431,149.795 253.819 C 148.902 252.473,147.595 251.173,146.391 250.432 C 141.838 247.631,141.137 240.026,145.181 237.301 L 146.518 236.400 200.200 236.400 L 253.882 236.400 255.241 237.312 " stroke="none" fill="#586cf8" fill-rule="evenodd"></path></g></svg>