<svg id="svg" version="1.1" xmlns="http://www.w3.org/2000/svg" xmlns:xlink="http://www.w3.org/1999/xlink" width="400" height="400" viewBox="0, 0, 400,400"><g id="svgg"><path id="path0" d="M118.700 96.501 L 116.000 96.894 116.000 100.220 C 116.000 104.075,115.590 104.583,111.292 106.047 C 110.031 106.477,108.640 106.987,108.200 107.181 C 106.067 108.122,104.361 108.400,100.714 108.400 C 96.355 108.400,95.682 108.623,93.894 110.659 C 93.227 111.419,92.173 112.304,91.551 112.625 C 89.601 113.633,83.007 120.548,82.047 122.590 C 81.556 123.634,80.355 125.216,79.377 126.106 L 77.600 127.723 77.595 131.162 C 77.593 133.053,77.316 135.590,76.981 136.800 C 74.680 145.102,74.800 140.916,74.800 212.966 C 74.800 257.766,74.937 279.779,75.227 281.567 C 76.035 286.556,78.602 291.592,80.344 291.605 C 80.705 291.607,82.395 292.796,84.100 294.247 L 87.200 296.885 87.200 300.156 L 87.200 303.427 89.100 304.142 C 92.541 305.436,102.936 305.586,104.248 304.361 L 105.276 303.400 104.989 228.600 C 104.658 142.343,104.550 145.259,108.211 142.044 C 108.942 141.403,109.816 140.342,110.155 139.687 C 111.014 138.025,112.723 136.687,115.338 135.625 L 117.570 134.719 117.685 131.277 L 117.800 127.835 119.400 126.720 C 121.528 125.238,124.178 124.799,130.955 124.806 C 141.381 124.818,143.600 125.975,143.600 131.402 L 143.600 134.655 146.900 136.227 C 149.533 137.482,150.483 138.184,151.599 139.700 L 152.999 141.600 156.515 141.600 C 161.178 141.600,164.414 143.317,165.370 146.298 C 165.494 146.684,166.382 147.323,167.344 147.718 C 168.306 148.112,170.197 149.463,171.547 150.719 L 174.000 153.004 174.015 156.202 L 174.029 159.400 176.658 161.400 C 178.103 162.500,180.457 164.525,181.889 165.900 L 184.493 168.400 187.885 168.400 C 191.742 168.400,192.937 168.965,194.577 171.563 C 195.405 172.875,196.537 173.634,200.000 175.196 C 200.330 175.345,200.959 176.122,201.398 176.923 C 201.912 177.863,202.905 178.757,204.198 179.446 C 208.260 181.612,209.200 183.219,209.200 187.996 L 209.200 191.095 213.383 191.281 C 217.836 191.479,219.867 192.316,221.336 194.558 C 221.651 195.039,222.739 196.287,223.754 197.331 C 226.068 199.712,226.997 201.521,227.596 204.810 C 227.855 206.234,228.244 207.772,228.462 208.226 C 229.002 209.358,228.648 216.285,227.845 220.273 C 226.501 226.950,223.409 231.445,218.402 233.999 C 217.601 234.407,216.711 235.025,216.424 235.371 C 216.022 235.856,215.095 236.000,212.375 236.000 C 210.237 236.000,208.740 236.174,208.575 236.441 C 207.523 238.143,199.235 239.142,193.936 238.205 C 192.101 237.880,189.196 237.611,187.480 237.607 C 184.102 237.599,182.823 237.149,181.200 235.396 C 180.650 234.802,179.085 233.787,177.723 233.140 C 175.386 232.030,175.163 231.799,173.794 229.066 C 172.956 227.393,171.855 225.840,171.191 225.394 C 169.100 223.989,167.976 219.333,168.021 212.271 C 168.065 205.510,168.984 202.616,172.067 199.533 C 172.955 198.645,174.036 197.117,174.469 196.136 C 174.946 195.060,175.762 194.057,176.529 193.606 C 181.501 190.685,181.604 185.335,176.787 180.275 C 175.910 179.354,174.609 177.986,173.896 177.237 C 173.183 176.487,171.880 175.553,171.000 175.162 C 170.120 174.770,169.080 173.907,168.689 173.244 C 167.171 170.671,166.511 170.494,159.419 170.761 L 153.038 171.000 151.677 172.800 C 150.929 173.790,149.601 174.990,148.726 175.467 C 146.498 176.682,145.651 177.530,144.599 179.600 C 144.096 180.590,142.945 182.082,142.042 182.916 L 140.400 184.432 140.400 187.724 C 140.400 189.712,140.099 192.122,139.640 193.808 C 137.165 202.897,137.355 222.146,140.013 231.742 C 140.759 234.436,141.063 235.011,142.535 236.518 C 144.041 238.059,144.782 240.459,144.791 243.822 C 144.801 247.398,145.102 248.027,148.243 251.029 C 149.146 251.893,149.956 252.780,150.043 253.000 C 150.750 254.798,153.262 256.000,156.314 256.001 C 159.697 256.003,160.522 256.347,163.400 258.952 C 164.366 259.827,166.030 260.743,167.600 261.265 C 175.176 263.787,176.400 264.866,176.400 269.027 L 176.400 272.303 178.100 272.775 C 181.059 273.597,200.570 274.221,206.148 273.671 C 208.817 273.408,212.291 273.195,213.869 273.197 C 215.448 273.199,217.653 272.989,218.769 272.731 L 220.800 272.263 220.800 268.931 C 220.800 267.099,220.955 265.600,221.144 265.600 C 221.333 265.600,222.278 264.971,223.244 264.203 C 224.210 263.435,225.630 262.616,226.400 262.383 C 229.502 261.446,233.506 259.301,235.329 257.600 C 238.718 254.437,239.726 254.004,243.714 254.002 L 247.228 254.000 247.995 252.212 C 248.416 251.229,249.490 249.634,250.381 248.667 C 251.974 246.939,252.000 246.862,252.000 243.904 C 252.000 241.589,252.153 240.772,252.665 240.349 C 253.535 239.631,255.101 236.088,256.050 232.692 C 256.467 231.202,257.166 229.315,257.604 228.498 C 258.042 227.680,258.400 226.663,258.400 226.237 C 258.400 225.811,258.680 225.153,259.023 224.775 C 259.906 223.799,260.522 215.148,260.189 208.400 C 259.825 201.016,259.534 199.728,257.025 194.413 C 255.994 192.228,255.773 191.201,255.602 187.813 C 255.363 183.071,255.134 182.649,250.212 177.902 L 247.000 174.803 243.423 174.802 L 239.846 174.800 237.789 172.642 C 236.657 171.455,235.000 170.110,234.107 169.654 C 233.213 169.199,232.059 168.266,231.541 167.582 C 229.987 165.529,228.745 164.420,226.824 163.372 C 224.433 162.068,223.896 160.932,223.625 156.600 L 223.400 153.000 220.855 151.654 C 218.897 150.619,218.030 149.858,217.095 148.354 L 215.880 146.400 212.475 146.400 C 208.583 146.400,205.995 145.181,204.396 142.594 C 203.928 141.837,202.795 140.882,201.783 140.392 C 200.800 139.916,198.917 138.421,197.598 137.068 L 195.200 134.610 195.200 131.305 C 195.200 129.487,195.045 128.000,194.856 128.000 C 194.667 128.000,193.695 127.280,192.695 126.400 C 190.879 124.801,190.875 124.800,187.475 124.800 L 184.074 124.800 181.172 122.000 C 179.576 120.460,178.126 119.200,177.949 119.200 C 177.389 119.200,174.800 116.739,174.800 116.206 C 174.800 115.579,172.651 113.933,170.925 113.237 C 170.223 112.955,168.758 111.751,167.669 110.562 C 166.089 108.836,165.439 108.400,164.449 108.400 C 163.767 108.400,162.262 108.040,161.104 107.600 C 159.627 107.039,157.986 106.794,155.600 106.778 C 152.060 106.754,150.578 106.329,147.303 104.400 L 145.606 103.400 145.603 100.159 L 145.600 96.917 142.823 96.459 C 139.490 95.908,122.574 95.938,118.700 96.501 " stroke="none" fill="#f0f0f1" fill-rule="evenodd"></path><path id="path1" d="M119.600 94.955 C 117.510 95.237,114.855 95.781,113.700 96.166 L 111.600 96.864 111.597 100.132 L 111.593 103.400 109.097 104.703 C 105.321 106.673,103.400 107.200,100.001 107.200 C 96.306 107.200,93.810 108.127,91.400 110.395 C 90.520 111.223,88.653 112.812,87.251 113.925 C 85.697 115.159,83.723 117.327,82.194 119.475 C 80.815 121.414,79.210 123.540,78.628 124.200 C 76.293 126.846,76.005 127.603,76.003 131.118 C 76.000 134.365,75.737 135.848,73.785 143.629 C 73.256 145.735,72.704 148.480,72.557 149.729 L 72.290 152.000 68.945 152.000 L 65.600 152.000 65.600 214.000 L 65.600 276.000 68.958 276.000 L 72.316 276.000 72.519 277.500 C 73.384 283.908,76.341 290.814,78.973 292.575 C 83.212 295.411,83.949 296.540,84.083 300.400 L 84.200 303.800 87.791 305.137 C 91.116 306.376,91.834 306.491,97.497 306.698 L 103.611 306.921 105.137 305.268 L 106.662 303.616 106.477 228.205 C 106.258 139.455,105.831 147.479,111.124 141.029 C 113.388 138.271,113.751 138.007,117.547 136.363 L 121.571 134.621 121.686 131.236 L 121.800 127.850 123.800 127.318 C 127.863 126.238,133.504 126.188,136.921 127.202 L 140.000 128.117 140.006 131.358 L 140.011 134.600 144.066 136.600 C 146.296 137.700,148.769 139.245,149.560 140.033 C 152.381 142.841,153.201 143.200,156.787 143.200 L 160.051 143.200 163.200 146.200 C 164.932 147.850,166.521 149.200,166.731 149.200 C 166.942 149.200,168.033 150.027,169.157 151.037 L 171.200 152.874 171.200 156.184 L 171.200 159.494 172.900 160.614 C 173.835 161.229,175.596 162.687,176.814 163.853 C 178.032 165.019,180.310 166.969,181.877 168.186 L 184.726 170.400 187.947 170.400 L 191.168 170.400 193.023 172.383 C 194.043 173.474,195.678 174.754,196.655 175.227 C 197.632 175.700,199.001 176.795,199.697 177.660 C 200.392 178.526,202.171 180.031,203.649 181.005 C 207.321 183.424,207.600 183.905,207.600 187.827 C 207.600 192.120,207.895 192.399,212.431 192.403 C 216.460 192.406,216.640 192.503,221.276 197.204 C 224.835 200.812,225.724 202.372,226.386 206.173 C 229.035 221.371,222.846 233.584,212.492 233.596 C 209.680 233.599,208.953 233.746,207.641 234.574 C 203.859 236.962,198.235 237.593,193.600 236.151 C 192.390 235.775,189.789 235.393,187.819 235.303 C 185.221 235.184,183.958 234.942,183.219 234.421 C 182.659 234.026,181.249 233.223,180.086 232.637 C 177.508 231.339,174.800 228.961,174.800 227.997 C 174.800 227.607,174.173 226.413,173.406 225.344 C 171.248 222.336,170.914 221.594,170.234 218.302 C 168.858 211.640,169.904 205.236,173.015 201.273 C 173.997 200.023,174.800 198.779,174.800 198.509 C 174.800 198.240,176.330 196.496,178.200 194.634 L 181.600 191.249 181.600 187.716 C 181.600 184.351,181.528 184.060,180.100 181.640 C 178.690 179.251,174.251 174.800,173.278 174.800 C 173.039 174.800,171.979 173.924,170.922 172.852 C 166.973 168.851,166.847 168.808,159.675 169.074 C 152.527 169.338,153.046 169.172,149.699 172.264 C 144.625 176.951,142.959 178.713,140.900 181.568 L 138.800 184.480 138.800 187.740 C 138.800 189.926,138.481 192.186,137.833 194.600 C 133.813 209.578,135.577 229.510,141.744 238.791 C 143.120 240.861,143.200 241.161,143.200 244.239 L 143.200 247.496 145.139 250.155 C 146.205 251.618,148.439 253.981,150.104 255.407 L 153.130 258.000 156.300 258.000 C 159.340 258.000,159.545 258.059,161.353 259.468 C 162.389 260.275,165.253 261.940,167.718 263.168 L 172.200 265.400 172.315 268.857 L 172.430 272.314 174.715 273.158 C 178.978 274.732,180.858 274.867,198.600 274.873 C 216.625 274.879,219.378 274.663,223.300 272.938 L 224.800 272.279 224.800 268.789 L 224.800 265.299 230.149 262.690 C 233.091 261.255,235.754 259.716,236.067 259.269 C 237.632 257.034,240.717 255.600,243.962 255.600 C 247.388 255.600,247.959 255.230,250.567 251.313 C 251.186 250.385,252.301 249.161,253.046 248.592 C 254.381 247.574,254.400 247.516,254.400 244.430 C 254.400 241.562,254.568 240.910,256.400 236.639 C 257.500 234.076,258.400 231.753,258.400 231.478 C 258.400 231.203,258.692 230.560,259.050 230.050 C 262.369 225.311,262.563 200.905,259.330 194.649 C 258.748 193.522,258.120 192.287,257.936 191.905 C 257.751 191.523,257.600 189.721,257.600 187.899 C 257.600 183.316,255.515 179.819,250.276 175.616 L 246.766 172.800 243.919 172.800 L 241.071 172.800 237.835 170.338 C 236.056 168.983,233.700 167.013,232.600 165.960 C 231.500 164.907,229.430 163.177,228.000 162.116 L 225.400 160.186 225.200 156.552 C 224.983 152.603,224.745 152.101,222.455 150.753 C 221.655 150.282,219.907 148.750,218.571 147.348 L 216.142 144.800 212.662 144.800 L 209.182 144.800 207.291 143.100 C 206.251 142.165,205.258 141.179,205.085 140.909 C 204.912 140.639,203.922 139.848,202.885 139.152 C 201.848 138.455,200.325 137.245,199.500 136.462 L 198.000 135.038 198.000 131.589 L 198.000 128.141 195.166 126.205 C 193.608 125.140,192.057 123.848,191.720 123.334 C 191.161 122.482,190.823 122.400,187.843 122.400 L 184.579 122.400 181.862 120.235 C 180.368 119.045,177.873 116.871,176.317 115.405 C 174.761 113.939,172.838 112.326,172.044 111.822 C 171.250 111.317,170.240 110.501,169.800 110.008 C 168.970 109.079,168.119 108.646,162.384 106.236 C 159.516 105.031,158.497 104.800,156.044 104.800 C 154.183 104.800,152.627 104.566,151.760 104.154 L 150.400 103.509 150.400 100.187 L 150.400 96.864 148.500 96.253 C 143.380 94.605,127.498 93.892,119.600 94.955 M142.823 96.459 L 145.600 96.917 145.603 100.159 L 145.606 103.400 147.303 104.400 C 150.578 106.329,152.060 106.754,155.600 106.778 C 157.986 106.794,159.627 107.039,161.104 107.600 C 162.262 108.040,163.767 108.400,164.449 108.400 C 165.439 108.400,166.089 108.836,167.669 110.562 C 168.758 111.751,170.223 112.955,170.925 113.237 C 172.651 113.933,174.800 115.579,174.800 116.206 C 174.800 116.739,177.389 119.200,177.949 119.200 C 178.126 119.200,179.576 120.460,181.172 122.000 L 184.074 124.800 187.475 124.800 C 190.875 124.800,190.879 124.801,192.695 126.400 C 193.695 127.280,194.667 128.000,194.856 128.000 C 195.045 128.000,195.200 129.487,195.200 131.305 L 195.200 134.610 197.598 137.068 C 198.917 138.421,200.800 139.916,201.783 140.392 C 202.795 140.882,203.928 141.837,204.396 142.594 C 205.995 145.181,208.583 146.400,212.475 146.400 L 215.880 146.400 217.095 148.354 C 218.030 149.858,218.897 150.619,220.855 151.654 L 223.400 153.000 223.625 156.600 C 223.896 160.932,224.433 162.068,226.824 163.372 C 228.745 164.420,229.987 165.529,231.541 167.582 C 232.059 168.266,233.213 169.199,234.107 169.654 C 235.000 170.110,236.657 171.455,237.789 172.642 L 239.846 174.800 243.423 174.802 L 247.000 174.803 250.212 177.902 C 255.134 182.649,255.363 183.071,255.602 187.813 C 255.773 191.201,255.994 192.228,257.025 194.413 C 259.534 199.728,259.825 201.016,260.189 208.400 C 260.522 215.148,259.906 223.799,259.023 224.775 C 258.680 225.153,258.400 225.811,258.400 226.237 C 258.400 226.663,258.042 227.680,257.604 228.498 C 257.166 229.315,256.467 231.202,256.050 232.692 C 255.101 236.088,253.535 239.631,252.665 240.349 C 252.153 240.772,252.000 241.589,252.000 243.904 C 252.000 246.862,251.974 246.939,250.381 248.667 C 249.490 249.634,248.416 251.229,247.995 252.212 L 247.228 254.000 243.714 254.002 C 239.726 254.004,238.718 254.437,235.329 257.600 C 233.506 259.301,229.502 261.446,226.400 262.383 C 225.630 262.616,224.210 263.435,223.244 264.203 C 222.278 264.971,221.333 265.600,221.144 265.600 C 220.955 265.600,220.800 267.099,220.800 268.931 L 220.800 272.263 218.769 272.731 C 217.653 272.989,215.448 273.199,213.869 273.197 C 212.291 273.195,208.817 273.408,206.148 273.671 C 200.570 274.221,181.059 273.597,178.100 272.775 L 176.400 272.303 176.400 269.027 C 176.400 264.866,175.176 263.787,167.600 261.265 C 166.030 260.743,164.366 259.827,163.400 258.952 C 160.522 256.347,159.697 256.003,156.314 256.001 C 153.262 256.000,150.750 254.798,150.043 253.000 C 149.956 252.780,149.146 251.893,148.243 251.029 C 145.102 248.027,144.801 247.398,144.791 243.822 C 144.782 240.459,144.041 238.059,142.535 236.518 C 141.063 235.011,140.759 234.436,140.013 231.742 C 137.355 222.146,137.165 202.897,139.640 193.808 C 140.099 192.122,140.400 189.712,140.400 187.724 L 140.400 184.432 142.042 182.916 C 142.945 182.082,144.096 180.590,144.599 179.600 C 145.651 177.530,146.498 176.682,148.726 175.467 C 149.601 174.990,150.929 173.790,151.677 172.800 L 153.038 171.000 159.419 170.761 C 166.511 170.494,167.171 170.671,168.689 173.244 C 169.080 173.907,170.120 174.770,171.000 175.162 C 171.880 175.553,173.183 176.487,173.896 177.237 C 174.609 177.986,175.910 179.354,176.787 180.275 C 179.562 183.190,179.997 184.211,179.999 187.819 C 180.000 191.336,179.787 191.692,176.529 193.606 C 175.762 194.057,174.946 195.060,174.469 196.136 C 174.036 197.117,172.955 198.645,172.067 199.533 C 168.984 202.616,168.065 205.510,168.021 212.271 C 167.976 219.333,169.100 223.989,171.191 225.394 C 171.855 225.840,172.956 227.393,173.794 229.066 C 175.163 231.799,175.386 232.030,177.723 233.140 C 179.085 233.787,180.650 234.802,181.200 235.396 C 182.823 237.149,184.102 237.599,187.480 237.607 C 189.196 237.611,192.101 237.880,193.936 238.205 C 199.235 239.142,207.523 238.143,208.575 236.441 C 208.740 236.174,210.237 236.000,212.375 236.000 C 215.095 236.000,216.022 235.856,216.424 235.371 C 216.711 235.025,217.601 234.407,218.402 233.999 C 223.409 231.445,226.501 226.950,227.845 220.273 C 228.648 216.285,229.002 209.358,228.462 208.226 C 228.244 207.772,227.855 206.234,227.596 204.810 C 226.997 201.521,226.068 199.712,223.754 197.331 C 222.739 196.287,221.651 195.039,221.336 194.558 C 219.867 192.316,217.836 191.479,213.383 191.281 L 209.200 191.095 209.200 187.996 C 209.200 183.219,208.260 181.612,204.198 179.446 C 202.905 178.757,201.912 177.863,201.398 176.923 C 200.959 176.122,200.330 175.345,200.000 175.196 C 196.537 173.634,195.405 172.875,194.577 171.563 C 192.937 168.965,191.742 168.400,187.885 168.400 L 184.493 168.400 181.889 165.900 C 180.457 164.525,178.103 162.500,176.658 161.400 L 174.029 159.400 174.015 156.202 L 174.000 153.004 171.547 150.719 C 170.197 149.463,168.306 148.112,167.344 147.718 C 166.382 147.323,165.494 146.684,165.370 146.298 C 164.414 143.317,161.178 141.600,156.515 141.600 L 152.999 141.600 151.599 139.700 C 150.483 138.184,149.533 137.482,146.900 136.227 L 143.600 134.655 143.600 131.402 C 143.600 125.975,141.381 124.818,130.955 124.806 C 124.178 124.799,121.528 125.238,119.400 126.720 L 117.800 127.835 117.685 131.277 L 117.570 134.719 115.338 135.625 C 112.723 136.687,111.014 138.025,110.155 139.687 C 109.816 140.342,108.942 141.403,108.211 142.044 C 104.550 145.259,104.658 142.343,104.989 228.600 L 105.276 303.400 104.248 304.361 C 102.936 305.586,92.541 305.436,89.100 304.142 L 87.200 303.427 87.200 300.156 L 87.200 296.885 84.100 294.247 C 82.395 292.796,80.705 291.607,80.344 291.605 C 78.602 291.592,76.035 286.556,75.227 281.567 C 74.937 279.779,74.800 257.766,74.800 212.966 C 74.800 140.916,74.680 145.102,76.981 136.800 C 77.316 135.590,77.593 133.053,77.595 131.162 L 77.600 127.723 79.377 126.106 C 80.355 125.216,81.556 123.634,82.047 122.590 C 83.007 120.548,89.601 113.633,91.551 112.625 C 92.173 112.304,93.227 111.419,93.894 110.659 C 95.682 108.623,96.355 108.400,100.714 108.400 C 104.361 108.400,106.067 108.122,108.200 107.181 C 108.640 106.987,110.031 106.477,111.292 106.047 C 115.590 104.583,116.000 104.075,116.000 100.220 L 116.000 96.894 118.700 96.501 C 122.574 95.938,139.490 95.908,142.823 96.459 M256.700 96.694 L 254.800 96.844 254.800 100.167 L 254.800 103.490 251.737 105.045 C 248.933 106.468,248.314 106.622,244.437 106.854 C 242.107 106.994,238.940 107.418,237.400 107.795 C 235.860 108.173,234.193 108.558,233.695 108.650 C 233.198 108.742,232.298 109.371,231.695 110.048 C 230.640 111.234,224.910 115.205,223.527 115.709 C 223.157 115.844,222.242 116.910,221.495 118.079 C 220.747 119.248,219.488 120.648,218.697 121.189 L 217.260 122.174 218.844 123.530 C 221.297 125.630,222.000 127.372,222.000 131.353 L 222.000 134.738 223.445 135.215 C 224.256 135.483,226.140 136.892,227.745 138.433 C 229.838 140.443,231.027 141.271,232.200 141.535 C 233.080 141.734,233.980 141.956,234.200 142.030 C 235.084 142.326,237.502 141.133,237.933 140.188 C 238.728 138.442,240.660 137.603,243.886 137.601 C 246.392 137.600,247.017 137.445,248.629 136.422 C 249.651 135.775,251.007 135.130,251.643 134.991 L 252.800 134.736 252.800 131.443 C 252.800 125.421,254.469 124.629,267.200 124.612 C 280.422 124.595,282.000 125.318,282.000 131.393 L 282.000 134.692 285.020 136.009 C 287.654 137.157,288.173 137.560,289.083 139.163 C 289.657 140.173,290.799 141.720,291.620 142.600 C 295.526 146.786,295.324 141.631,294.986 228.419 L 294.694 303.439 295.808 304.169 C 297.082 305.003,306.400 304.899,309.300 304.018 L 310.800 303.562 310.800 300.343 C 310.800 296.425,311.410 295.362,314.503 293.898 C 315.670 293.345,316.866 292.602,317.161 292.247 C 317.456 291.891,317.934 291.600,318.222 291.600 C 318.510 291.600,319.155 291.015,319.656 290.300 C 320.157 289.585,320.892 288.763,321.289 288.474 C 324.709 285.979,324.687 286.405,324.944 216.000 C 325.184 150.283,325.086 145.345,323.408 138.475 C 322.740 135.740,322.400 133.221,322.400 131.001 C 322.400 128.089,322.303 127.623,321.656 127.418 C 320.572 127.074,318.616 124.789,317.669 122.761 C 316.663 120.606,316.123 119.967,314.682 119.223 C 314.067 118.905,312.955 117.798,312.210 116.761 C 311.284 115.472,310.069 114.457,308.358 113.546 C 306.876 112.755,305.441 111.620,304.830 110.753 L 303.800 109.293 299.800 109.070 C 294.413 108.770,289.362 107.611,284.200 105.492 C 279.198 103.438,279.600 103.901,279.600 100.194 L 279.600 96.916 276.900 96.661 C 274.143 96.400,260.132 96.423,256.700 96.694 " stroke="none" fill="#4da7d5" fill-rule="evenodd"></path><path id="path2" d="M134.400 1.600 L 134.400 3.200 125.933 3.200 C 110.970 3.200,110.272 3.532,110.058 10.765 L 109.916 15.600 108.058 15.624 C 94.060 15.804,91.200 16.726,91.200 21.060 C 91.200 21.947,91.059 22.000,88.676 22.000 C 85.280 22.000,84.703 22.477,84.487 25.467 L 84.315 27.842 79.880 28.360 C 73.632 29.091,72.400 29.910,72.400 33.331 C 72.400 34.286,72.385 34.289,66.768 34.491 C 59.500 34.752,59.841 34.425,59.666 41.310 C 59.516 47.246,59.548 47.185,56.549 47.194 C 53.988 47.202,53.499 47.739,53.278 50.789 L 53.110 53.110 50.789 53.278 C 47.739 53.499,47.202 53.988,47.194 56.549 C 47.185 59.548,47.246 59.516,41.310 59.666 C 34.425 59.841,34.752 59.500,34.491 66.768 C 34.289 72.385,34.286 72.400,33.331 72.400 C 29.910 72.400,29.091 73.632,28.360 79.880 L 27.842 84.315 25.467 84.487 C 22.477 84.703,22.000 85.280,22.000 88.676 C 22.000 91.059,21.947 91.200,21.060 91.200 C 16.726 91.200,15.804 94.060,15.624 108.056 L 15.600 109.912 11.222 110.061 C 3.800 110.315,3.239 111.411,3.215 125.700 L 3.200 134.400 1.600 134.400 L 0.000 134.400 0.000 200.000 L 0.000 265.600 1.600 265.600 L 3.200 265.600 3.215 274.300 C 3.239 288.589,3.800 289.685,11.222 289.939 L 15.600 290.088 15.624 291.944 C 15.804 305.940,16.726 308.800,21.060 308.800 C 21.947 308.800,22.000 308.941,22.000 311.324 C 22.000 314.720,22.477 315.297,25.467 315.513 L 27.842 315.685 28.360 320.120 C 29.094 326.393,29.905 327.600,33.387 327.600 L 34.400 327.600 34.430 331.700 C 34.492 340.257,34.538 340.311,42.117 340.730 L 47.000 341.000 47.200 343.391 C 47.433 346.181,48.152 346.784,51.252 346.794 L 53.104 346.800 53.275 349.166 C 53.498 352.254,53.914 352.684,56.995 353.014 L 59.540 353.287 59.670 358.630 C 59.839 365.580,59.499 365.248,66.722 365.508 L 72.309 365.709 72.519 367.270 C 72.829 369.585,73.740 370.724,75.497 370.993 C 76.324 371.120,77.553 371.398,78.228 371.612 C 78.904 371.825,80.547 372.000,81.880 372.000 L 84.304 372.000 84.481 374.454 C 84.704 377.531,85.259 378.000,88.676 378.000 C 91.059 378.000,91.200 378.053,91.200 378.940 C 91.200 383.274,94.060 384.196,108.058 384.376 L 109.916 384.400 110.058 389.235 C 110.272 396.468,110.970 396.800,125.933 396.800 L 134.400 396.800 134.400 398.400 L 134.400 400.000 200.000 400.000 L 265.600 400.000 265.600 398.400 L 265.600 396.800 274.067 396.800 C 289.030 396.800,289.728 396.468,289.942 389.235 L 290.084 384.400 292.142 384.378 C 305.804 384.233,308.800 383.255,308.800 378.940 C 308.800 378.053,308.941 378.000,311.324 378.000 C 314.741 378.000,315.296 377.531,315.519 374.454 L 315.696 372.000 318.624 372.000 C 320.235 372.000,321.664 371.820,321.800 371.600 C 321.936 371.380,322.565 371.200,323.198 371.200 C 325.861 371.200,327.600 369.410,327.600 366.669 C 327.600 365.714,327.615 365.711,333.232 365.509 C 340.463 365.249,340.800 364.853,340.800 356.597 L 340.800 353.303 343.164 353.036 C 346.045 352.710,346.504 352.216,346.722 349.211 L 346.890 346.890 349.211 346.722 C 352.216 346.504,352.710 346.045,353.036 343.164 L 353.303 340.800 356.597 340.800 C 364.853 340.800,365.249 340.463,365.509 333.232 C 365.711 327.615,365.714 327.600,366.669 327.600 C 369.410 327.600,371.200 325.861,371.200 323.198 C 371.200 322.565,371.380 321.936,371.600 321.800 C 371.820 321.664,372.000 320.235,372.000 318.624 L 372.000 315.696 374.454 315.519 C 377.531 315.296,378.000 314.741,378.000 311.324 C 378.000 308.941,378.053 308.800,378.940 308.800 C 383.255 308.800,384.233 305.804,384.378 292.144 L 384.400 290.088 388.778 289.939 C 396.200 289.685,396.761 288.589,396.785 274.300 L 396.800 265.600 398.400 265.600 L 400.000 265.600 400.000 200.000 L 400.000 134.400 398.400 134.400 L 396.800 134.400 396.785 125.700 C 396.761 111.411,396.200 110.315,388.778 110.061 L 384.400 109.912 384.376 108.056 C 384.196 94.060,383.274 91.200,378.940 91.200 C 378.053 91.200,378.000 91.059,378.000 88.676 C 378.000 85.259,377.531 84.704,374.454 84.481 L 372.000 84.304 372.000 81.880 C 372.000 80.547,371.825 78.904,371.612 78.228 C 371.398 77.553,371.120 76.324,370.993 75.497 C 370.724 73.740,369.585 72.829,367.270 72.519 L 365.709 72.309 365.508 66.722 C 365.248 59.499,365.580 59.839,358.630 59.670 L 353.287 59.540 353.014 56.995 C 352.684 53.914,352.254 53.498,349.166 53.275 L 346.800 53.104 346.794 51.252 C 346.784 48.152,346.181 47.433,343.391 47.200 L 341.000 47.000 340.730 42.117 C 340.311 34.538,340.257 34.492,331.700 34.430 L 327.600 34.400 327.600 33.387 C 327.600 29.905,326.393 29.094,320.120 28.360 L 315.685 27.842 315.513 25.467 C 315.297 22.477,314.720 22.000,311.324 22.000 C 308.941 22.000,308.800 21.947,308.800 21.060 C 308.800 16.726,305.940 15.804,291.942 15.624 L 290.084 15.600 289.942 10.765 C 289.728 3.532,289.030 3.200,274.067 3.200 L 265.600 3.200 265.600 1.600 L 265.600 0.000 200.000 0.000 L 134.400 0.000 134.400 1.600 M148.000 92.241 C 150.090 92.590,153.690 92.997,156.000 93.145 C 162.955 93.589,164.800 95.073,164.800 100.222 L 164.800 103.527 167.300 104.368 C 169.863 105.231,174.798 108.275,174.803 108.997 C 174.805 109.219,175.822 110.030,177.064 110.800 C 179.230 112.143,180.230 113.031,183.111 116.171 L 184.423 117.600 188.004 117.600 L 191.586 117.600 193.293 119.341 C 194.232 120.299,195.382 121.604,195.848 122.241 C 196.402 122.999,197.486 123.668,198.976 124.175 C 201.959 125.188,202.501 126.187,202.785 131.200 L 203.000 135.000 205.900 135.118 L 208.800 135.235 208.800 131.682 C 208.800 128.298,208.753 128.107,207.819 127.682 C 202.312 125.172,206.016 116.400,212.583 116.400 L 215.925 116.400 217.330 114.444 C 218.319 113.067,219.367 112.190,220.872 111.478 C 222.047 110.922,223.677 109.722,224.494 108.812 C 225.899 107.247,229.288 105.383,233.300 103.968 L 234.800 103.439 234.800 100.189 C 234.800 95.407,237.270 93.600,243.807 93.600 C 245.644 93.600,248.405 93.336,249.941 93.012 C 262.412 90.389,287.189 91.861,292.600 95.546 L 294.200 96.636 294.315 100.060 C 294.454 104.211,294.693 104.400,299.804 104.400 C 303.704 104.400,306.747 105.343,308.863 107.208 C 309.598 107.857,310.416 108.390,310.680 108.394 C 310.944 108.397,311.304 108.630,311.480 108.911 C 311.656 109.191,313.111 110.383,314.713 111.558 C 316.316 112.734,318.464 114.799,319.486 116.148 C 320.509 117.497,322.002 119.328,322.805 120.217 C 325.455 123.155,326.522 126.010,326.832 131.000 C 326.983 133.420,327.336 136.068,327.616 136.885 L 328.125 138.371 331.556 138.485 L 334.987 138.600 335.884 140.228 C 338.429 144.848,338.467 146.199,338.078 217.800 L 337.750 278.200 336.646 281.393 C 335.165 285.681,335.265 285.600,331.440 285.600 L 328.178 285.600 327.025 288.300 C 326.391 289.785,325.658 291.270,325.397 291.600 C 325.135 291.930,324.810 292.514,324.674 292.898 C 324.538 293.281,323.912 293.911,323.283 294.298 C 319.870 296.393,319.600 296.850,319.600 300.533 C 319.600 305.447,317.168 307.245,308.600 308.664 C 297.321 310.533,292.040 309.525,289.385 305.000 L 288.447 303.400 288.809 254.800 C 289.389 176.943,289.331 153.488,288.547 149.949 C 287.097 143.404,283.047 139.464,276.200 137.936 C 273.053 137.233,259.724 137.195,258.359 137.885 C 257.832 138.151,256.367 138.658,255.104 139.012 C 253.452 139.474,252.331 140.123,251.104 141.327 C 248.194 144.184,247.726 144.394,244.289 144.397 C 241.046 144.400,237.504 145.692,235.365 147.652 C 234.542 148.406,234.515 148.406,233.524 147.626 C 230.670 145.381,225.237 144.435,224.382 146.034 C 224.136 146.493,223.995 146.906,224.068 146.951 C 225.754 148.000,227.735 149.439,229.000 150.533 L 230.600 151.918 230.737 155.697 L 230.873 159.477 233.113 161.039 C 234.346 161.897,236.588 163.815,238.096 165.300 L 240.838 168.000 244.257 168.000 C 248.345 168.000,249.531 168.554,251.181 171.233 C 252.024 172.602,252.905 173.369,254.655 174.258 C 256.842 175.369,257.068 175.620,258.012 177.970 C 258.569 179.356,259.469 180.850,260.012 181.290 C 261.995 182.894,262.395 183.963,262.397 187.676 C 262.399 189.588,262.566 191.255,262.769 191.381 C 264.145 192.231,265.452 207.136,265.016 217.000 C 264.499 228.699,262.837 235.640,260.061 237.700 C 258.865 238.588,258.400 240.359,258.400 244.032 C 258.400 248.959,257.217 251.593,254.460 252.800 C 253.801 253.089,253.019 254.047,252.392 255.332 C 251.018 258.152,249.384 258.950,244.600 259.138 L 241.000 259.280 239.917 261.037 C 238.846 262.776,238.277 263.141,233.700 265.022 L 232.000 265.721 232.000 269.186 C 232.000 272.454,231.938 272.707,230.900 273.658 C 228.683 275.688,218.361 277.996,211.487 277.999 C 208.809 278.000,207.105 278.200,206.087 278.635 C 204.006 279.522,197.500 280.045,195.002 279.526 C 193.901 279.297,191.020 278.967,188.600 278.793 C 178.869 278.093,168.404 275.612,166.100 273.458 C 164.845 272.285,164.800 272.133,164.786 269.022 L 164.773 265.800 161.886 264.493 C 159.394 263.365,158.565 263.187,155.815 263.193 L 152.630 263.200 150.488 260.935 C 149.310 259.690,147.683 258.321,146.873 257.893 C 144.667 256.729,143.641 255.632,142.481 253.200 C 141.905 251.990,140.660 250.238,139.716 249.307 L 138.000 247.613 138.000 244.391 C 138.000 241.978,137.803 240.781,137.215 239.629 C 136.783 238.783,136.041 236.540,135.566 234.645 L 134.702 231.200 131.378 231.200 C 125.529 231.200,124.800 229.079,124.800 212.048 C 124.800 194.696,125.447 192.800,131.374 192.800 C 135.291 192.800,135.186 192.941,135.195 187.714 C 135.205 181.120,141.029 172.892,149.993 166.805 C 151.289 165.924,152.462 165.023,152.599 164.802 C 152.735 164.581,154.373 164.400,156.238 164.400 C 164.468 164.400,166.793 162.616,166.798 156.295 L 166.800 153.190 164.504 152.175 C 161.855 151.003,160.661 149.996,159.984 148.360 C 159.513 147.224,159.440 147.200,156.451 147.196 C 152.801 147.191,150.363 146.205,147.600 143.615 C 142.720 139.041,136.701 137.452,127.427 138.289 C 120.338 138.928,115.760 140.412,114.877 142.358 C 114.517 143.151,113.711 144.568,113.087 145.507 C 112.463 146.445,111.619 148.183,111.211 149.367 C 110.804 150.552,110.164 151.988,109.791 152.558 C 109.155 153.528,109.140 156.041,109.564 191.298 C 109.813 212.034,110.198 245.635,110.420 265.966 L 110.824 302.933 109.546 305.596 C 108.324 308.140,107.871 308.611,104.445 310.898 C 102.443 312.234,95.586 311.649,91.941 309.831 C 91.217 309.469,89.140 308.915,87.327 308.599 C 80.463 307.401,78.800 305.807,78.800 300.422 L 78.800 296.871 76.936 295.969 C 75.251 295.153,74.936 294.767,73.655 291.947 L 72.238 288.828 68.619 288.714 L 65.000 288.600 63.755 286.737 C 61.345 283.131,61.400 284.840,61.400 213.400 C 61.400 144.719,61.413 144.191,63.251 140.005 C 64.668 136.778,65.273 136.400,69.023 136.400 C 72.901 136.400,72.786 136.563,72.795 131.068 C 72.802 126.260,75.003 120.234,77.233 118.917 C 77.829 118.565,78.741 117.574,79.259 116.715 C 81.410 113.145,81.910 112.556,83.564 111.643 C 84.517 111.117,86.093 109.843,87.066 108.813 C 90.237 105.453,94.091 103.826,99.265 103.665 L 103.600 103.529 103.600 100.219 C 103.600 94.868,106.167 93.112,115.800 91.874 C 119.756 91.366,144.447 91.647,148.000 92.241 M209.200 138.343 L 209.200 141.085 214.326 141.293 C 219.705 141.511,220.758 141.827,221.648 143.490 C 222.323 144.751,222.913 144.443,223.347 142.604 C 223.810 140.648,223.236 140.176,219.929 139.792 C 217.141 139.468,216.000 138.599,216.000 136.800 L 216.000 135.600 212.600 135.600 L 209.200 135.600 209.200 138.343 M170.600 164.689 C 168.766 165.140,168.741 165.663,170.499 166.812 L 172.200 167.924 173.110 166.928 L 174.021 165.931 173.047 165.166 C 172.044 164.376,171.949 164.358,170.600 164.689 M176.744 171.202 L 175.800 172.003 177.000 173.000 C 178.449 174.203,178.471 174.204,179.656 173.198 L 180.600 172.397 179.400 171.400 C 177.951 170.197,177.929 170.196,176.744 171.202 M183.575 177.247 C 183.217 177.916,183.269 178.422,183.821 179.647 L 184.521 181.200 187.999 181.200 C 192.685 181.200,192.800 181.337,192.800 186.911 C 192.800 192.631,192.346 193.198,187.754 193.205 C 184.653 193.210,184.585 193.232,183.698 194.505 C 181.657 197.437,180.320 198.981,179.095 199.820 C 174.356 203.065,173.000 218.428,176.941 224.227 C 177.523 225.084,178.000 225.916,178.000 226.075 C 178.000 227.870,183.604 230.400,187.583 230.400 C 189.323 230.400,192.064 230.686,193.674 231.036 C 197.697 231.910,201.693 231.761,205.692 230.588 C 208.005 229.909,210.001 229.614,212.326 229.608 C 216.316 229.598,216.845 229.354,218.198 226.899 C 218.858 225.700,219.879 224.613,220.966 223.950 C 222.133 223.239,222.773 222.530,222.952 221.750 C 223.561 219.098,223.704 210.316,223.196 206.773 L 222.677 203.151 220.778 202.189 C 218.740 201.156,217.452 199.778,216.584 197.700 L 216.041 196.400 212.356 196.400 C 208.165 196.400,206.038 195.523,204.346 193.098 C 203.848 192.384,203.206 191.656,202.920 191.480 C 202.561 191.259,202.400 190.136,202.400 187.854 L 202.400 184.548 201.100 183.927 C 200.385 183.586,199.018 182.652,198.062 181.853 C 197.106 181.054,195.927 180.400,195.442 180.400 C 194.399 180.400,193.600 179.700,193.600 178.784 C 193.600 178.424,193.150 177.923,192.600 177.673 C 192.050 177.422,191.600 177.033,191.600 176.809 C 191.600 175.901,184.075 176.312,183.575 177.247 " stroke="none" fill="#141434" fill-rule="evenodd"></path><path id="path3" d="M122.600 93.977 C 117.933 94.347,114.632 94.983,111.700 96.075 L 109.600 96.857 109.600 100.214 L 109.600 103.570 106.658 104.985 C 103.996 106.265,103.391 106.400,100.294 106.400 C 96.408 106.400,93.396 107.520,90.800 109.930 C 90.030 110.645,88.206 112.169,86.748 113.315 C 84.931 114.743,83.111 116.770,80.973 119.746 C 79.255 122.137,77.647 124.297,77.398 124.546 C 75.765 126.186,75.432 127.354,75.157 132.390 C 74.928 136.585,74.648 138.172,73.543 141.533 L 72.207 145.600 68.950 145.600 C 65.937 145.600,65.668 145.667,65.362 146.500 C 64.817 147.981,64.662 275.810,65.202 278.300 L 65.657 280.400 68.950 280.400 L 72.243 280.400 73.070 282.900 C 75.292 289.621,75.976 291.096,77.484 292.420 C 78.223 293.069,78.957 293.602,79.114 293.605 C 79.271 293.608,80.165 294.321,81.100 295.189 L 82.800 296.768 82.800 300.151 L 82.800 303.535 84.100 304.337 C 87.210 306.258,91.346 307.221,97.571 307.477 L 103.502 307.720 105.251 306.090 L 107.000 304.460 107.200 297.730 C 107.310 294.028,107.301 262.200,107.179 227.000 C 106.962 164.122,107.109 150.162,108.021 147.027 C 109.479 142.011,119.021 134.752,124.100 134.794 C 124.711 134.799,124.800 134.376,124.800 131.450 L 124.800 128.100 126.050 127.850 C 127.640 127.532,134.711 127.534,135.900 127.852 C 136.740 128.077,136.800 128.310,136.800 131.371 L 136.800 134.649 138.778 135.156 C 141.230 135.784,147.919 139.280,149.001 140.498 C 151.399 143.199,153.165 144.000,156.718 144.000 L 160.078 144.000 162.339 146.347 C 163.583 147.637,165.320 149.142,166.200 149.690 C 169.927 152.013,170.400 152.761,170.400 156.330 C 170.400 159.442,170.437 159.567,171.626 160.470 C 172.301 160.981,174.287 162.704,176.040 164.297 C 177.793 165.890,180.418 168.095,181.873 169.197 L 184.519 171.200 187.721 171.200 L 190.923 171.200 192.255 172.756 C 192.988 173.612,194.355 174.707,195.294 175.188 C 196.232 175.670,198.080 177.102,199.400 178.371 C 200.720 179.641,202.430 181.095,203.200 181.604 C 206.585 183.840,206.800 184.216,206.800 187.894 C 206.800 192.539,207.483 193.169,212.534 193.187 L 216.068 193.200 220.422 197.500 L 224.777 201.800 225.588 205.943 C 226.558 210.895,226.596 213.728,225.758 218.800 C 224.835 224.387,224.741 224.800,224.382 224.800 C 224.201 224.800,223.950 225.127,223.823 225.527 C 223.502 226.539,219.226 230.722,217.352 231.856 C 216.054 232.642,215.256 232.796,212.470 232.798 C 209.360 232.800,208.940 232.906,206.103 234.400 C 202.407 236.347,198.067 236.625,193.536 235.205 C 191.957 234.710,189.863 234.408,187.988 234.405 C 182.998 234.397,174.800 229.380,174.800 226.336 C 174.800 225.963,174.568 225.419,174.285 225.129 C 173.070 223.881,171.937 221.480,171.195 218.581 C 168.976 209.905,171.517 202.479,179.517 194.259 L 182.400 191.296 182.400 187.835 C 182.400 182.320,180.630 179.341,174.710 174.890 C 172.669 173.355,170.550 171.606,170.000 171.002 C 167.423 168.173,166.753 168.001,159.408 168.277 L 152.758 168.527 149.401 171.563 C 147.555 173.234,145.513 175.003,144.864 175.496 C 144.214 175.989,143.022 177.339,142.214 178.496 C 141.406 179.653,140.127 181.475,139.372 182.545 C 138.067 184.396,138.000 184.658,137.996 187.945 C 137.993 189.923,137.727 192.255,137.372 193.400 C 136.176 197.265,134.800 204.143,134.800 206.261 L 134.800 208.400 131.400 208.400 L 128.000 208.400 128.000 212.400 L 128.000 216.400 131.343 216.400 L 134.685 216.400 134.951 219.256 C 135.529 225.479,138.561 235.493,140.747 238.400 C 141.665 239.621,141.818 240.258,141.943 243.382 C 142.116 247.727,143.963 250.926,148.800 255.256 C 152.529 258.595,152.902 258.769,156.342 258.786 C 159.050 258.799,159.415 258.904,160.920 260.100 C 161.819 260.815,164.365 262.303,166.577 263.406 L 170.600 265.411 170.715 268.867 L 170.830 272.323 172.115 272.922 C 174.624 274.091,177.251 274.799,178.914 274.756 L 180.600 274.712 178.800 274.364 C 177.810 274.172,175.972 273.632,174.715 273.164 L 172.430 272.314 172.315 268.857 L 172.200 265.400 167.718 263.168 C 165.253 261.940,162.389 260.275,161.353 259.468 C 159.545 258.059,159.340 258.000,156.300 258.000 L 153.130 258.000 150.104 255.407 C 148.439 253.981,146.205 251.618,145.139 250.155 L 143.200 247.496 143.200 244.239 C 143.200 241.161,143.120 240.861,141.744 238.791 C 135.577 229.510,133.813 209.578,137.833 194.600 C 138.481 192.186,138.800 189.926,138.800 187.740 L 138.800 184.480 140.900 181.568 C 142.959 178.713,144.625 176.951,149.699 172.264 C 153.046 169.172,152.527 169.338,159.675 169.074 C 166.847 168.808,166.973 168.851,170.922 172.852 C 171.979 173.924,173.039 174.800,173.278 174.800 C 174.251 174.800,178.690 179.251,180.100 181.640 C 181.528 184.060,181.600 184.351,181.600 187.716 L 181.600 191.249 178.200 194.634 C 176.330 196.496,174.800 198.240,174.800 198.509 C 174.800 198.779,173.997 200.023,173.015 201.273 C 169.904 205.236,168.858 211.640,170.234 218.302 C 170.914 221.594,171.248 222.336,173.406 225.344 C 174.173 226.413,174.800 227.607,174.800 227.997 C 174.800 228.961,177.508 231.339,180.086 232.637 C 181.249 233.223,182.659 234.026,183.219 234.421 C 183.958 234.942,185.221 235.184,187.819 235.303 C 189.789 235.393,192.390 235.775,193.600 236.151 C 198.235 237.593,203.859 236.962,207.641 234.574 C 208.953 233.746,209.680 233.599,212.492 233.596 C 222.846 233.584,229.035 221.371,226.386 206.173 C 225.724 202.372,224.835 200.812,221.276 197.204 C 216.628 192.491,216.470 192.406,212.362 192.403 C 207.890 192.399,207.600 192.117,207.600 187.758 C 207.600 183.914,207.309 183.416,203.649 181.005 C 202.171 180.031,200.392 178.526,199.697 177.660 C 199.001 176.795,197.632 175.700,196.655 175.227 C 195.678 174.754,194.043 173.474,193.023 172.383 L 191.168 170.400 187.947 170.400 L 184.726 170.400 181.877 168.186 C 180.310 166.969,178.032 165.019,176.814 163.853 C 175.596 162.687,173.835 161.229,172.900 160.614 L 171.200 159.494 171.200 156.184 L 171.200 152.874 169.157 151.037 C 168.033 150.027,166.942 149.200,166.731 149.200 C 166.521 149.200,164.932 147.850,163.200 146.200 L 160.051 143.200 156.787 143.200 C 153.201 143.200,152.381 142.841,149.560 140.033 C 148.769 139.245,146.296 137.700,144.066 136.600 L 140.011 134.600 140.006 131.358 L 140.000 128.117 136.921 127.202 C 133.504 126.188,127.863 126.238,123.800 127.318 L 121.800 127.850 121.686 131.236 L 121.571 134.621 117.547 136.363 C 113.751 138.007,113.388 138.271,111.124 141.029 C 105.831 147.479,106.258 139.455,106.477 228.205 L 106.662 303.616 105.137 305.268 L 103.611 306.921 97.497 306.698 C 91.834 306.491,91.116 306.376,87.791 305.137 L 84.200 303.800 84.083 300.400 C 83.949 296.540,83.212 295.411,78.973 292.575 C 76.341 290.814,73.384 283.908,72.519 277.500 L 72.316 276.000 68.958 276.000 L 65.600 276.000 65.600 214.000 L 65.600 152.000 68.945 152.000 L 72.290 152.000 72.557 149.729 C 72.704 148.480,73.256 145.735,73.785 143.629 C 75.737 135.848,76.000 134.365,76.003 131.118 C 76.005 127.603,76.293 126.846,78.628 124.200 C 79.210 123.540,80.815 121.414,82.194 119.475 C 83.723 117.327,85.697 115.159,87.251 113.925 C 88.653 112.812,90.520 111.223,91.400 110.395 C 93.810 108.127,96.306 107.200,100.001 107.200 C 103.400 107.200,105.321 106.673,109.097 104.703 L 111.593 103.400 111.597 100.116 L 111.600 96.832 114.100 96.065 C 121.553 93.777,141.142 93.884,148.500 96.253 L 150.400 96.864 150.400 100.187 L 150.400 103.509 151.760 104.154 C 152.627 104.566,154.183 104.800,156.044 104.800 C 158.497 104.800,159.516 105.031,162.384 106.236 C 168.119 108.646,168.970 109.079,169.800 110.008 C 170.240 110.501,171.250 111.317,172.044 111.822 C 172.838 112.326,174.761 113.939,176.317 115.405 C 177.873 116.871,180.368 119.045,181.862 120.235 L 184.579 122.400 187.843 122.400 C 190.823 122.400,191.161 122.482,191.720 123.334 C 192.057 123.848,193.608 125.140,195.166 126.205 L 198.000 128.141 198.000 131.589 L 198.000 135.038 199.500 136.462 C 200.325 137.245,201.848 138.455,202.885 139.152 C 203.922 139.848,204.912 140.639,205.085 140.909 C 205.258 141.179,206.251 142.165,207.291 143.100 L 209.182 144.800 212.662 144.800 L 216.142 144.800 218.571 147.348 C 219.907 148.750,221.655 150.282,222.455 150.753 C 224.745 152.101,224.983 152.603,225.200 156.552 L 225.400 160.186 228.000 162.116 C 229.430 163.177,231.500 164.907,232.600 165.960 C 233.700 167.013,236.056 168.983,237.835 170.338 L 241.071 172.800 243.919 172.800 L 246.766 172.800 250.276 175.616 C 255.515 179.819,257.600 183.316,257.600 187.899 C 257.600 189.721,257.751 191.523,257.936 191.905 C 258.120 192.287,258.748 193.522,259.330 194.649 C 262.563 200.905,262.369 225.311,259.050 230.050 C 258.692 230.560,258.400 231.203,258.400 231.478 C 258.400 231.753,257.500 234.076,256.400 236.639 C 254.568 240.910,254.400 241.562,254.400 244.430 C 254.400 247.516,254.381 247.574,253.046 248.592 C 252.301 249.161,251.186 250.385,250.567 251.313 C 247.959 255.230,247.388 255.600,243.962 255.600 C 240.717 255.600,237.632 257.034,236.067 259.269 C 235.754 259.716,233.091 261.255,230.149 262.690 L 224.800 265.299 224.800 268.789 L 224.800 272.279 223.300 272.942 C 222.475 273.307,220.630 273.871,219.200 274.195 L 216.600 274.785 219.123 274.628 C 220.788 274.525,222.385 274.110,223.823 273.406 L 226.000 272.341 226.000 268.974 L 226.000 265.607 230.500 263.364 C 232.975 262.131,235.630 260.534,236.400 259.815 C 239.443 256.975,240.723 256.400,244.004 256.400 C 247.582 256.400,248.172 256.073,250.362 252.877 C 251.220 251.624,252.660 249.888,253.561 249.019 L 255.200 247.438 255.200 244.349 C 255.200 241.150,255.961 238.842,259.636 230.899 C 263.273 223.039,263.347 201.021,259.760 193.900 C 258.528 191.454,258.400 190.875,258.400 187.761 L 258.400 184.323 256.231 180.995 C 254.858 178.889,253.280 177.065,251.931 176.026 C 250.759 175.123,249.137 173.848,248.327 173.192 C 247.002 172.120,246.568 172.000,244.018 172.000 L 241.181 172.000 237.491 169.053 C 235.461 167.433,233.443 165.708,233.007 165.219 C 232.571 164.731,231.311 163.686,230.207 162.897 C 226.104 159.964,226.000 159.805,226.000 156.487 C 226.000 153.056,225.449 151.835,223.262 150.413 C 222.458 149.891,220.596 148.234,219.125 146.732 L 216.449 144.000 212.833 144.000 L 209.217 144.000 206.372 141.200 C 204.808 139.660,203.356 138.400,203.147 138.400 C 202.937 138.400,201.873 137.565,200.783 136.545 L 198.800 134.691 198.800 131.374 C 198.800 127.788,198.189 126.823,194.874 125.173 C 193.402 124.440,191.600 122.763,191.600 122.125 C 191.600 121.732,190.727 121.600,188.126 121.600 L 184.651 121.600 182.626 119.916 C 181.512 118.990,179.070 116.872,177.200 115.209 C 172.240 110.797,169.003 108.448,166.031 107.103 C 164.584 106.448,162.482 105.482,161.360 104.956 C 159.812 104.230,158.639 104.000,156.493 104.000 C 152.328 104.000,152.400 104.067,152.400 100.186 L 152.400 96.857 150.100 95.989 C 145.276 94.168,132.226 93.213,122.600 93.977 M255.623 94.426 C 253.986 94.628,251.329 95.155,249.719 95.597 C 248.100 96.041,245.556 96.400,244.028 96.400 C 239.944 96.400,240.000 96.348,240.000 100.147 C 240.000 103.043,239.905 103.467,239.146 103.941 C 238.370 104.425,232.479 106.953,229.323 108.155 C 228.620 108.422,227.079 109.555,225.899 110.671 C 224.719 111.787,223.224 112.977,222.577 113.316 C 221.930 113.654,220.199 115.207,218.732 116.766 L 216.064 119.600 212.626 119.600 C 208.497 119.600,207.120 120.765,208.203 123.344 L 208.730 124.600 212.346 124.715 L 215.963 124.830 217.367 126.470 C 218.720 128.051,218.776 128.243,218.886 131.717 L 219.000 135.324 221.000 136.616 C 222.100 137.326,223.810 138.719,224.800 139.711 C 227.060 141.974,227.866 142.469,231.670 143.929 L 234.739 145.107 237.816 143.353 C 240.761 141.675,241.032 141.600,244.171 141.600 C 247.310 141.600,247.501 141.547,248.625 140.372 C 250.203 138.723,252.012 137.642,255.600 136.203 L 258.600 135.000 258.715 131.543 C 258.853 127.398,258.318 127.698,266.216 127.339 C 270.195 127.157,272.265 127.225,273.316 127.572 L 274.800 128.062 274.800 131.416 L 274.800 134.769 276.482 135.222 C 280.244 136.235,285.721 139.415,287.228 141.461 C 290.196 145.489,291.228 147.496,291.636 150.030 C 291.858 151.411,292.110 152.654,292.195 152.792 C 292.280 152.930,292.162 186.760,291.933 227.970 C 291.644 279.928,291.644 303.178,291.933 303.812 C 293.956 308.253,304.725 308.852,313.100 304.990 L 316.000 303.652 316.000 300.271 L 316.000 296.891 318.700 294.702 C 320.185 293.499,321.869 292.214,322.443 291.848 C 323.748 291.016,324.594 289.022,326.837 281.496 C 327.476 279.349,328.000 277.054,328.000 276.396 L 328.000 275.200 331.352 275.200 L 334.704 275.200 334.970 251.500 C 335.375 215.449,335.441 150.042,335.075 147.900 L 334.751 146.000 331.452 146.000 L 328.153 146.000 326.476 140.803 C 324.950 136.071,324.800 135.234,324.800 131.462 C 324.800 126.803,325.244 127.784,320.098 121.067 C 316.308 116.121,315.602 115.400,311.800 112.579 C 310.040 111.273,308.455 109.976,308.278 109.698 C 307.314 108.184,303.823 107.019,299.600 106.802 C 295.724 106.602,295.161 106.465,292.300 105.022 L 289.200 103.458 289.200 100.162 L 289.200 96.865 286.700 96.046 C 281.527 94.350,263.737 93.423,255.623 94.426 M276.900 96.661 L 279.600 96.916 279.600 100.194 C 279.600 103.901,279.198 103.438,284.200 105.492 C 289.362 107.611,294.413 108.770,299.800 109.070 L 303.800 109.293 304.830 110.753 C 305.441 111.620,306.876 112.755,308.358 113.546 C 310.069 114.457,311.284 115.472,312.210 116.761 C 312.955 117.798,314.067 118.905,314.682 119.223 C 316.123 119.967,316.663 120.606,317.669 122.761 C 318.616 124.789,320.572 127.074,321.656 127.418 C 322.303 127.623,322.400 128.089,322.400 131.001 C 322.400 133.221,322.740 135.740,323.408 138.475 C 325.086 145.345,325.184 150.283,324.944 216.000 C 324.687 286.405,324.709 285.979,321.289 288.474 C 320.892 288.763,320.157 289.585,319.656 290.300 C 319.155 291.015,318.510 291.600,318.222 291.600 C 317.934 291.600,317.456 291.891,317.161 292.247 C 316.866 292.602,315.670 293.345,314.503 293.898 C 311.410 295.362,310.800 296.425,310.800 300.343 L 310.800 303.562 309.300 304.018 C 306.400 304.899,297.082 305.003,295.808 304.169 L 294.694 303.439 294.986 228.419 C 295.324 141.631,295.526 146.786,291.620 142.600 C 290.799 141.720,289.657 140.173,289.083 139.163 C 288.173 137.560,287.654 137.157,285.020 136.009 L 282.000 134.692 282.000 131.393 C 282.000 125.318,280.422 124.595,267.200 124.612 C 254.469 124.629,252.800 125.421,252.800 131.443 L 252.800 134.736 251.643 134.991 C 251.007 135.130,249.651 135.775,248.629 136.422 C 247.017 137.445,246.392 137.600,243.886 137.601 C 240.660 137.603,238.728 138.442,237.933 140.188 C 237.502 141.133,235.084 142.326,234.200 142.030 C 233.980 141.956,233.080 141.734,232.200 141.535 C 231.027 141.271,229.838 140.443,227.745 138.433 C 226.140 136.892,224.256 135.483,223.445 135.215 L 222.000 134.738 222.000 131.353 C 222.000 127.372,221.297 125.630,218.844 123.530 L 217.260 122.174 218.697 121.189 C 219.488 120.648,220.747 119.248,221.495 118.079 C 222.242 116.910,223.157 115.844,223.527 115.709 C 224.910 115.205,230.640 111.234,231.695 110.048 C 232.298 109.371,233.198 108.742,233.695 108.650 C 234.193 108.558,235.860 108.173,237.400 107.795 C 238.940 107.418,242.107 106.994,244.437 106.854 C 248.314 106.622,248.933 106.468,251.737 105.045 L 254.800 103.490 254.800 100.167 L 254.800 96.844 256.700 96.694 C 260.132 96.423,274.143 96.400,276.900 96.661 M182.685 275.251 C 185.264 275.714,203.850 275.788,210.600 275.363 C 215.749 275.038,214.076 274.981,198.800 274.966 C 189.010 274.956,181.758 275.084,182.685 275.251 " stroke="none" fill="#3676a4" fill-rule="evenodd"></path><path id="path4" d="M115.800 91.874 C 106.167 93.112,103.600 94.868,103.600 100.219 L 103.600 103.529 99.265 103.665 C 94.091 103.826,90.237 105.453,87.066 108.813 C 86.093 109.843,84.517 111.117,83.564 111.643 C 81.910 112.556,81.410 113.145,79.259 116.715 C 78.741 117.574,77.829 118.565,77.233 118.917 C 75.003 120.234,72.802 126.260,72.795 131.068 C 72.786 136.563,72.901 136.400,69.023 136.400 C 65.273 136.400,64.668 136.778,63.251 140.005 C 61.413 144.191,61.400 144.719,61.400 213.400 C 61.400 284.840,61.345 283.131,63.755 286.737 L 65.000 288.600 68.619 288.714 L 72.238 288.828 73.655 291.947 C 74.936 294.767,75.251 295.153,76.936 295.969 L 78.800 296.871 78.800 300.422 C 78.800 305.807,80.463 307.401,87.327 308.599 C 89.140 308.915,91.217 309.469,91.941 309.831 C 95.586 311.649,102.443 312.234,104.445 310.898 C 107.871 308.611,108.324 308.140,109.546 305.596 L 110.824 302.933 110.420 265.966 C 110.198 245.635,109.813 212.034,109.564 191.298 C 109.140 156.041,109.155 153.528,109.791 152.558 C 110.164 151.988,110.804 150.552,111.211 149.367 C 111.619 148.183,112.463 146.445,113.087 145.507 C 113.711 144.568,114.517 143.151,114.877 142.358 C 115.760 140.412,120.338 138.928,127.427 138.289 C 136.701 137.452,142.720 139.041,147.600 143.615 C 150.363 146.205,152.801 147.191,156.451 147.196 C 159.440 147.200,159.513 147.224,159.984 148.360 C 160.661 149.996,161.855 151.003,164.504 152.175 L 166.800 153.190 166.798 156.295 C 166.793 162.616,164.468 164.400,156.238 164.400 C 154.373 164.400,152.735 164.581,152.599 164.802 C 152.462 165.023,151.289 165.924,149.993 166.805 C 141.029 172.892,135.205 181.120,135.195 187.714 C 135.186 192.941,135.291 192.800,131.374 192.800 C 125.447 192.800,124.800 194.696,124.800 212.048 C 124.800 229.079,125.529 231.200,131.378 231.200 L 134.702 231.200 135.566 234.645 C 136.041 236.540,136.783 238.783,137.215 239.629 C 137.803 240.781,138.000 241.978,138.000 244.391 L 138.000 247.613 139.716 249.307 C 140.660 250.238,141.905 251.990,142.481 253.200 C 143.641 255.632,144.667 256.729,146.873 257.893 C 147.683 258.321,149.310 259.690,150.488 260.935 L 152.630 263.200 155.815 263.193 C 158.565 263.187,159.394 263.365,161.886 264.493 L 164.773 265.800 164.786 269.022 C 164.800 272.133,164.845 272.285,166.100 273.458 C 168.404 275.612,178.869 278.093,188.600 278.793 C 191.020 278.967,193.901 279.297,195.002 279.526 C 197.500 280.045,204.006 279.522,206.087 278.635 C 207.105 278.200,208.809 278.000,211.487 277.999 C 218.361 277.996,228.683 275.688,230.900 273.658 C 231.938 272.707,232.000 272.454,232.000 269.186 L 232.000 265.721 233.700 265.022 C 238.277 263.141,238.846 262.776,239.917 261.037 L 241.000 259.280 244.600 259.138 C 249.384 258.950,251.018 258.152,252.392 255.332 C 253.019 254.047,253.801 253.089,254.460 252.800 C 257.217 251.593,258.400 248.959,258.400 244.032 C 258.400 240.359,258.865 238.588,260.061 237.700 C 262.837 235.640,264.499 228.699,265.016 217.000 C 265.452 207.136,264.145 192.231,262.769 191.381 C 262.566 191.255,262.399 189.588,262.397 187.676 C 262.395 183.963,261.995 182.894,260.012 181.290 C 259.469 180.850,258.569 179.356,258.012 177.970 C 257.068 175.620,256.842 175.369,254.655 174.258 C 252.905 173.369,252.024 172.602,251.181 171.233 C 249.531 168.554,248.345 168.000,244.257 168.000 L 240.838 168.000 238.096 165.300 C 236.588 163.815,234.346 161.897,233.113 161.039 L 230.873 159.477 230.737 155.697 L 230.600 151.918 229.000 150.533 C 227.735 149.439,225.754 148.000,224.068 146.951 C 223.995 146.906,224.136 146.493,224.382 146.034 C 225.237 144.435,230.670 145.381,233.524 147.626 C 234.515 148.406,234.542 148.406,235.365 147.652 C 237.504 145.692,241.046 144.400,244.289 144.397 C 247.726 144.394,248.194 144.184,251.104 141.327 C 252.331 140.123,253.452 139.474,255.104 139.012 C 256.367 138.658,257.832 138.151,258.359 137.885 C 259.724 137.195,273.053 137.233,276.200 137.936 C 283.047 139.464,287.097 143.404,288.547 149.949 C 289.331 153.488,289.389 176.943,288.809 254.800 L 288.447 303.400 289.385 305.000 C 292.040 309.525,297.321 310.533,308.600 308.664 C 317.168 307.245,319.600 305.447,319.600 300.533 C 319.600 296.850,319.870 296.393,323.283 294.298 C 323.912 293.911,324.538 293.281,324.674 292.898 C 324.810 292.514,325.135 291.930,325.397 291.600 C 325.658 291.270,326.391 289.785,327.025 288.300 L 328.178 285.600 331.440 285.600 C 335.265 285.600,335.165 285.681,336.646 281.393 L 337.750 278.200 338.078 217.800 C 338.467 146.199,338.429 144.848,335.884 140.228 L 334.987 138.600 331.556 138.485 L 328.125 138.371 327.616 136.885 C 327.336 136.068,326.983 133.420,326.832 131.000 C 326.522 126.010,325.455 123.155,322.805 120.217 C 322.002 119.328,320.509 117.497,319.486 116.148 C 318.464 114.799,316.316 112.734,314.713 111.558 C 313.111 110.383,311.656 109.191,311.480 108.911 C 311.304 108.630,310.944 108.397,310.680 108.394 C 310.416 108.390,309.598 107.857,308.863 107.208 C 306.747 105.343,303.704 104.400,299.804 104.400 C 294.693 104.400,294.454 104.211,294.315 100.060 L 294.200 96.636 292.600 95.546 C 287.189 91.861,262.412 90.389,249.941 93.012 C 248.405 93.336,245.644 93.600,243.807 93.600 C 237.270 93.600,234.800 95.407,234.800 100.189 L 234.800 103.439 233.300 103.968 C 229.288 105.383,225.899 107.247,224.494 108.812 C 223.677 109.722,222.047 110.922,220.872 111.478 C 219.367 112.190,218.319 113.067,217.330 114.444 L 215.925 116.400 212.583 116.400 C 206.016 116.400,202.312 125.172,207.819 127.682 C 208.753 128.107,208.800 128.298,208.800 131.682 L 208.800 135.235 205.900 135.118 L 203.000 135.000 202.785 131.200 C 202.501 126.187,201.959 125.188,198.976 124.175 C 197.486 123.668,196.402 122.999,195.848 122.241 C 195.382 121.604,194.232 120.299,193.293 119.341 L 191.586 117.600 188.004 117.600 L 184.423 117.600 183.111 116.171 C 180.230 113.031,179.230 112.143,177.064 110.800 C 175.822 110.030,174.805 109.219,174.803 108.997 C 174.798 108.275,169.863 105.231,167.300 104.368 L 164.800 103.527 164.800 100.222 C 164.800 95.073,162.955 93.589,156.000 93.145 C 153.690 92.997,150.090 92.590,148.000 92.241 C 144.447 91.647,119.756 91.366,115.800 91.874 M144.400 94.562 C 146.270 94.870,148.835 95.512,150.100 95.989 L 152.400 96.857 152.400 100.186 C 152.400 104.067,152.328 104.000,156.493 104.000 C 158.639 104.000,159.812 104.230,161.360 104.956 C 162.482 105.482,164.584 106.448,166.031 107.103 C 169.003 108.448,172.240 110.797,177.200 115.209 C 179.070 116.872,181.512 118.990,182.626 119.916 L 184.651 121.600 188.126 121.600 C 190.727 121.600,191.600 121.732,191.600 122.125 C 191.600 122.763,193.402 124.440,194.874 125.173 C 198.189 126.823,198.800 127.788,198.800 131.374 L 198.800 134.691 200.783 136.545 C 201.873 137.565,202.937 138.400,203.147 138.400 C 203.356 138.400,204.808 139.660,206.372 141.200 L 209.217 144.000 212.833 144.000 L 216.449 144.000 219.125 146.732 C 220.596 148.234,222.458 149.891,223.262 150.413 C 225.449 151.835,226.000 153.056,226.000 156.487 C 226.000 159.805,226.104 159.964,230.207 162.897 C 231.311 163.686,232.571 164.731,233.007 165.219 C 233.443 165.708,235.461 167.433,237.491 169.053 L 241.181 172.000 244.018 172.000 C 246.568 172.000,247.002 172.120,248.327 173.192 C 249.137 173.848,250.759 175.123,251.931 176.026 C 253.280 177.065,254.858 178.889,256.231 180.995 L 258.400 184.323 258.400 187.761 C 258.400 190.875,258.528 191.454,259.760 193.900 C 263.347 201.021,263.273 223.039,259.636 230.899 C 255.961 238.842,255.200 241.150,255.200 244.349 L 255.200 247.438 253.561 249.019 C 252.660 249.888,251.220 251.624,250.362 252.877 C 248.172 256.073,247.582 256.400,244.004 256.400 C 240.723 256.400,239.443 256.975,236.400 259.815 C 235.630 260.534,232.975 262.131,230.500 263.364 L 226.000 265.607 226.000 268.974 L 226.000 272.341 223.878 273.379 C 221.555 274.516,217.106 275.192,211.914 275.197 C 210.217 275.199,207.067 275.397,204.914 275.637 C 198.038 276.406,177.589 275.192,174.200 273.814 C 170.662 272.376,170.841 272.632,170.715 268.846 L 170.600 265.411 166.577 263.406 C 164.365 262.303,161.819 260.815,160.920 260.100 C 159.415 258.904,159.050 258.799,156.342 258.786 C 152.902 258.769,152.529 258.595,148.800 255.256 C 143.963 250.926,142.116 247.727,141.943 243.382 C 141.818 240.258,141.665 239.621,140.747 238.400 C 138.561 235.493,135.529 225.479,134.951 219.256 L 134.685 216.400 131.343 216.400 L 128.000 216.400 128.000 212.400 L 128.000 208.400 131.400 208.400 L 134.800 208.400 134.800 206.261 C 134.800 204.143,136.176 197.265,137.372 193.400 C 137.727 192.255,137.993 189.923,137.996 187.945 C 138.000 184.658,138.067 184.396,139.372 182.545 C 140.127 181.475,141.406 179.653,142.214 178.496 C 143.022 177.339,144.214 175.989,144.864 175.496 C 145.513 175.003,147.555 173.234,149.401 171.563 L 152.758 168.527 159.408 168.277 C 166.753 168.001,167.423 168.173,170.000 171.002 C 170.550 171.606,172.669 173.355,174.710 174.890 C 180.630 179.341,182.400 182.320,182.400 187.835 L 182.400 191.296 179.517 194.259 C 171.517 202.479,168.976 209.905,171.195 218.581 C 171.937 221.480,173.070 223.881,174.285 225.129 C 174.568 225.419,174.800 225.963,174.800 226.336 C 174.800 229.380,182.998 234.397,187.988 234.405 C 189.863 234.408,191.957 234.710,193.536 235.205 C 198.067 236.625,202.407 236.347,206.103 234.400 C 208.940 232.906,209.360 232.800,212.470 232.798 C 215.256 232.796,216.054 232.642,217.352 231.856 C 219.226 230.722,223.502 226.539,223.823 225.527 C 223.950 225.127,224.201 224.800,224.382 224.800 C 224.741 224.800,224.835 224.387,225.758 218.800 C 226.596 213.728,226.558 210.895,225.588 205.943 L 224.777 201.800 220.422 197.500 L 216.068 193.200 212.534 193.187 C 207.483 193.169,206.800 192.539,206.800 187.894 C 206.800 184.216,206.585 183.840,203.200 181.604 C 202.430 181.095,200.720 179.641,199.400 178.371 C 198.080 177.102,196.232 175.670,195.294 175.188 C 194.355 174.707,192.988 173.612,192.255 172.756 L 190.923 171.200 187.721 171.200 L 184.519 171.200 181.873 169.197 C 180.418 168.095,177.793 165.890,176.040 164.297 C 174.287 162.704,172.301 160.981,171.626 160.470 C 170.437 159.567,170.400 159.442,170.400 156.330 C 170.400 152.761,169.927 152.013,166.200 149.690 C 165.320 149.142,163.583 147.637,162.339 146.347 L 160.078 144.000 156.718 144.000 C 153.165 144.000,151.399 143.199,149.001 140.498 C 147.919 139.280,141.230 135.784,138.778 135.156 L 136.800 134.649 136.800 131.371 C 136.800 128.310,136.740 128.077,135.900 127.852 C 134.711 127.534,127.640 127.532,126.050 127.850 L 124.800 128.100 124.800 131.450 C 124.800 134.376,124.711 134.799,124.100 134.794 C 119.021 134.752,109.479 142.011,108.021 147.027 C 107.109 150.162,106.962 164.122,107.179 227.000 C 107.301 262.200,107.310 294.028,107.200 297.730 L 107.000 304.460 105.251 306.090 L 103.502 307.720 97.571 307.477 C 91.346 307.221,87.210 306.258,84.100 304.337 L 82.800 303.535 82.800 300.151 L 82.800 296.768 81.100 295.189 C 80.165 294.321,79.271 293.608,79.114 293.605 C 78.957 293.602,78.223 293.069,77.484 292.420 C 75.976 291.096,75.292 289.621,73.070 282.900 L 72.243 280.400 68.950 280.400 L 65.657 280.400 65.202 278.300 C 64.662 275.810,64.817 147.981,65.362 146.500 C 65.668 145.667,65.937 145.600,68.950 145.600 L 72.207 145.600 73.543 141.533 C 74.648 138.172,74.928 136.585,75.157 132.390 C 75.432 127.354,75.765 126.186,77.398 124.546 C 77.647 124.297,79.255 122.137,80.973 119.746 C 83.111 116.770,84.931 114.743,86.748 113.315 C 88.206 112.169,90.030 110.645,90.800 109.930 C 93.396 107.520,96.408 106.400,100.294 106.400 C 103.391 106.400,103.996 106.265,106.658 104.985 L 109.600 103.570 109.600 100.214 L 109.600 96.857 111.700 96.075 C 118.044 93.711,134.565 92.947,144.400 94.562 M281.600 94.771 C 283.030 95.021,285.325 95.595,286.700 96.046 L 289.200 96.865 289.200 100.162 L 289.200 103.458 292.300 105.022 C 295.161 106.465,295.724 106.602,299.600 106.802 C 303.823 107.019,307.314 108.184,308.278 109.698 C 308.455 109.976,310.040 111.273,311.800 112.579 C 315.602 115.400,316.308 116.121,320.098 121.067 C 325.244 127.784,324.800 126.803,324.800 131.462 C 324.800 135.234,324.950 136.071,326.476 140.803 L 328.153 146.000 331.452 146.000 L 334.751 146.000 335.075 147.900 C 335.441 150.042,335.375 215.449,334.970 251.500 L 334.704 275.200 331.352 275.200 L 328.000 275.200 328.000 276.396 C 328.000 277.054,327.476 279.349,326.837 281.496 C 324.594 289.022,323.748 291.016,322.443 291.848 C 321.869 292.214,320.185 293.499,318.700 294.702 L 316.000 296.891 316.000 300.271 L 316.000 303.652 313.100 304.990 C 304.725 308.852,293.956 308.253,291.933 303.812 C 291.644 303.178,291.644 279.928,291.933 227.970 C 292.162 186.760,292.280 152.930,292.195 152.792 C 292.110 152.654,291.858 151.411,291.636 150.030 C 291.228 147.496,290.196 145.489,287.228 141.461 C 285.721 139.415,280.244 136.235,276.482 135.222 L 274.800 134.769 274.800 131.416 L 274.800 128.062 273.316 127.572 C 272.265 127.225,270.195 127.157,266.216 127.339 C 258.318 127.698,258.853 127.398,258.715 131.543 L 258.600 135.000 255.600 136.203 C 252.012 137.642,250.203 138.723,248.625 140.372 C 247.501 141.547,247.310 141.600,244.171 141.600 C 241.032 141.600,240.761 141.675,237.816 143.353 L 234.739 145.107 231.670 143.929 C 227.866 142.469,227.060 141.974,224.800 139.711 C 223.810 138.719,222.100 137.326,221.000 136.616 L 219.000 135.324 218.886 131.717 C 218.776 128.243,218.720 128.051,217.367 126.470 L 215.963 124.830 212.346 124.715 L 208.730 124.600 208.203 123.344 C 207.120 120.765,208.497 119.600,212.626 119.600 L 216.064 119.600 218.732 116.766 C 220.199 115.207,221.930 113.654,222.577 113.316 C 223.224 112.977,224.719 111.787,225.899 110.671 C 227.079 109.555,228.620 108.422,229.323 108.155 C 232.479 106.953,238.370 104.425,239.146 103.941 C 239.905 103.467,240.000 103.043,240.000 100.147 C 240.000 96.348,239.944 96.400,244.028 96.400 C 245.556 96.400,248.100 96.041,249.719 95.597 C 255.421 94.032,274.556 93.537,281.600 94.771 M216.000 136.800 C 216.000 138.599,217.141 139.468,219.929 139.792 C 223.236 140.176,223.810 140.648,223.347 142.604 C 222.913 144.443,222.323 144.751,221.648 143.490 C 220.758 141.827,219.705 141.511,214.326 141.293 L 209.200 141.085 209.200 138.343 L 209.200 135.600 212.600 135.600 L 216.000 135.600 216.000 136.800 M173.047 165.166 L 174.021 165.931 173.110 166.928 L 172.200 167.924 170.499 166.812 C 168.741 165.663,168.766 165.140,170.600 164.689 C 171.949 164.358,172.044 164.376,173.047 165.166 M179.400 171.400 L 180.600 172.397 179.656 173.198 C 178.471 174.204,178.449 174.203,177.000 173.000 L 175.800 172.003 176.744 171.202 C 177.929 170.196,177.951 170.197,179.400 171.400 M191.600 176.809 C 191.600 177.033,192.050 177.422,192.600 177.673 C 193.150 177.923,193.600 178.424,193.600 178.784 C 193.600 179.700,194.399 180.400,195.442 180.400 C 195.927 180.400,197.106 181.054,198.062 181.853 C 199.018 182.652,200.385 183.586,201.100 183.927 L 202.400 184.548 202.400 187.854 C 202.400 190.136,202.561 191.259,202.920 191.480 C 203.206 191.656,203.848 192.384,204.346 193.098 C 206.038 195.523,208.165 196.400,212.356 196.400 L 216.041 196.400 216.584 197.700 C 217.452 199.778,218.740 201.156,220.778 202.189 L 222.677 203.151 223.196 206.773 C 223.704 210.316,223.561 219.098,222.952 221.750 C 222.773 222.530,222.133 223.239,220.966 223.950 C 219.879 224.613,218.858 225.700,218.198 226.899 C 216.845 229.354,216.316 229.598,212.326 229.608 C 210.001 229.614,208.005 229.909,205.692 230.588 C 201.693 231.761,197.697 231.910,193.674 231.036 C 192.064 230.686,189.323 230.400,187.583 230.400 C 183.604 230.400,178.000 227.870,178.000 226.075 C 178.000 225.916,177.523 225.084,176.941 224.227 C 173.000 218.428,174.356 203.065,179.095 199.820 C 180.320 198.981,181.657 197.437,183.698 194.505 C 184.585 193.232,184.653 193.210,187.754 193.205 C 192.346 193.198,192.800 192.631,192.800 186.911 C 192.800 181.337,192.685 181.200,187.999 181.200 L 184.521 181.200 183.821 179.647 C 182.595 176.929,183.245 176.400,187.814 176.400 C 190.124 176.400,191.600 176.559,191.600 176.809 " stroke="none" fill="#6d7082" fill-rule="evenodd"></path></g></svg>