<svg id="svg" version="1.1" xmlns="http://www.w3.org/2000/svg" xmlns:xlink="http://www.w3.org/1999/xlink" width="400" height="400" viewBox="0, 0, 400,400"><g id="svgg"><path id="path0" d="M152.880 121.680 C 152.167 122.393,152.187 184.527,152.900 185.113 C 153.175 185.339,155.232 185.586,157.472 185.662 C 162.359 185.828,163.444 186.408,164.453 189.402 C 165.063 191.209,165.229 191.370,166.953 191.807 C 169.290 192.401,170.285 193.304,170.873 195.365 C 171.493 197.536,171.790 197.872,173.350 198.164 C 176.105 198.681,177.200 200.911,177.200 206.002 C 177.200 209.896,177.165 209.834,179.967 210.795 C 183.244 211.917,183.400 212.427,183.400 222.000 C 183.400 231.573,183.244 232.083,179.967 233.205 C 177.165 234.166,177.200 234.104,177.200 237.998 C 177.200 243.089,176.105 245.319,173.350 245.836 C 171.785 246.129,171.494 246.461,170.860 248.679 C 170.312 250.596,168.924 251.866,166.974 252.231 C 165.384 252.530,165.095 252.856,164.460 255.079 C 163.657 257.890,162.607 258.400,157.626 258.400 C 154.841 258.400,153.193 258.567,152.880 258.880 C 152.142 259.618,152.203 278.139,152.946 278.755 C 153.339 279.081,158.783 279.179,172.446 279.104 L 191.400 279.000 191.600 258.982 C 191.785 240.463,191.855 238.880,192.531 237.848 C 194.008 235.596,193.961 235.600,218.600 235.600 C 236.365 235.600,241.253 235.493,241.353 235.100 C 242.649 230.028,243.424 229.446,249.128 229.263 C 253.872 229.110,254.204 228.971,254.577 226.984 C 254.915 225.180,255.930 224.279,258.800 223.232 C 260.751 222.521,261.183 222.189,261.390 221.245 C 261.693 219.865,263.419 218.151,264.866 217.794 C 265.928 217.531,266.254 216.991,267.186 213.948 C 267.747 212.116,268.682 211.269,270.848 210.629 C 271.790 210.351,272.692 209.870,272.852 209.562 C 273.012 209.253,273.531 208.148,274.004 207.106 C 274.743 205.482,275.102 205.145,276.533 204.736 C 279.280 203.952,279.142 204.557,279.277 192.670 C 279.414 180.561,279.591 179.688,282.126 178.585 C 282.827 178.281,283.101 178.024,282.736 178.016 C 280.040 177.952,279.205 174.392,279.202 162.949 C 279.200 152.335,279.329 152.863,276.533 152.064 C 274.091 151.366,273.200 149.350,273.200 144.523 C 273.200 140.514,273.142 140.409,270.521 139.660 C 268.604 139.112,267.334 137.724,266.969 135.774 C 266.670 134.184,266.344 133.895,264.121 133.260 C 262.238 132.722,260.989 131.389,260.581 129.481 C 260.128 127.360,259.806 127.200,255.977 127.200 C 250.968 127.200,248.748 126.133,248.175 123.450 C 248.028 122.762,247.726 121.975,247.505 121.700 C 246.929 120.985,153.595 120.965,152.880 121.680 M236.982 148.567 C 239.216 149.500,239.773 150.795,240.000 155.578 L 240.200 159.793 241.400 160.310 C 246.168 162.367,245.999 161.708,245.999 178.200 C 245.999 194.681,246.174 193.994,241.437 196.086 C 240.553 196.476,240.143 197.051,239.732 198.475 C 239.121 200.590,237.790 201.853,235.774 202.231 C 234.184 202.530,233.895 202.856,233.260 205.079 C 232.272 208.537,233.122 208.400,212.635 208.400 C 196.589 208.400,194.474 208.327,193.647 207.748 C 191.595 206.311,191.600 206.380,191.601 178.313 C 191.601 149.111,191.503 150.148,194.400 148.701 C 196.321 147.741,234.717 147.620,236.982 148.567 M121.719 196.500 C 121.511 196.775,121.124 197.755,120.860 198.679 C 120.312 200.596,118.924 201.866,116.974 202.231 C 115.384 202.530,115.095 202.856,114.460 205.079 C 113.888 207.082,112.366 208.400,110.626 208.400 C 108.381 208.400,108.400 208.287,108.400 222.031 C 108.400 235.946,108.245 235.130,111.035 235.927 C 113.035 236.497,113.912 237.418,114.566 239.632 C 115.027 241.193,115.216 241.366,116.934 241.802 C 119.290 242.401,120.284 243.299,120.873 245.365 C 121.661 248.123,121.157 248.000,131.662 248.000 C 138.978 248.000,141.255 247.882,141.353 247.500 C 142.663 242.374,143.370 241.864,149.528 241.600 L 154.200 241.400 154.400 236.928 C 154.630 231.794,155.179 230.625,157.841 229.600 C 160.514 228.571,160.400 228.910,160.400 222.000 C 160.400 215.090,160.514 215.429,157.841 214.400 C 155.201 213.384,154.621 212.181,154.464 207.391 C 154.299 202.351,154.466 202.509,149.128 202.337 C 143.424 202.154,142.649 201.572,141.353 196.500 C 141.255 196.118,138.978 196.000,131.662 196.000 C 124.479 196.000,122.004 196.125,121.719 196.500 " stroke="none" fill="#fcfcfc" fill-rule="evenodd"></path><path id="path1" d="M159.200 1.600 L 159.200 3.200 147.700 3.259 C 141.375 3.292,135.840 3.337,135.400 3.359 C 134.569 3.402,134.576 3.374,134.457 7.241 L 134.400 9.082 125.759 9.369 C 116.310 9.683,115.843 9.755,116.130 10.855 C 116.237 11.265,116.145 11.600,115.924 11.600 C 115.691 11.600,115.581 12.437,115.661 13.600 L 115.800 15.600 111.000 15.665 C 108.360 15.701,105.570 15.746,104.800 15.765 L 103.400 15.800 103.277 18.790 C 103.130 22.370,103.585 21.915,99.996 22.070 L 97.000 22.200 96.970 24.200 C 96.953 25.300,96.908 26.718,96.870 27.351 L 96.800 28.503 91.417 28.284 C 84.177 27.991,84.496 27.853,84.444 31.302 C 84.392 34.719,84.720 34.392,81.289 34.444 C 78.021 34.494,77.866 34.704,78.162 38.700 L 78.317 40.800 72.659 40.847 C 69.546 40.873,66.865 40.873,66.700 40.847 C 66.535 40.821,66.400 40.991,66.400 41.224 C 66.400 41.457,66.265 41.564,66.100 41.462 C 65.935 41.360,65.753 42.462,65.695 43.910 C 65.567 47.105,65.785 46.884,62.721 46.927 C 59.748 46.969,59.706 47.013,59.363 50.500 L 59.097 53.200 57.048 53.259 C 55.922 53.292,54.640 53.337,54.200 53.359 C 53.695 53.385,53.385 53.695,53.359 54.200 C 53.337 54.640,53.292 55.922,53.259 57.048 L 53.200 59.097 50.500 59.363 C 47.013 59.706,46.969 59.748,46.927 62.721 C 46.884 65.785,47.105 65.567,43.910 65.695 C 42.462 65.753,41.360 65.935,41.462 66.100 C 41.564 66.265,41.457 66.400,41.224 66.400 C 40.991 66.400,40.821 66.535,40.847 66.700 C 40.873 66.865,40.873 69.546,40.847 72.659 L 40.800 78.317 38.700 78.162 C 34.704 77.866,34.494 78.021,34.444 81.289 C 34.392 84.720,34.719 84.392,31.302 84.444 C 27.853 84.496,27.991 84.177,28.284 91.417 L 28.503 96.800 27.351 96.870 C 26.718 96.908,25.300 96.953,24.200 96.970 L 22.200 97.000 22.070 99.996 C 21.915 103.585,22.370 103.130,18.790 103.277 L 15.800 103.400 15.765 104.800 C 15.746 105.570,15.701 108.315,15.665 110.900 L 15.600 115.600 14.224 115.600 C 13.467 115.600,12.751 115.756,12.633 115.946 C 12.515 116.137,11.981 116.209,11.445 116.106 C 9.889 115.809,9.671 116.837,9.365 125.927 L 9.080 134.400 7.240 134.457 C 3.374 134.576,3.402 134.569,3.359 135.400 C 3.337 135.840,3.292 141.375,3.259 147.700 L 3.200 159.200 1.600 159.200 L 0.000 159.200 0.000 200.000 L 0.000 240.800 1.600 240.800 L 3.200 240.800 3.259 252.300 C 3.292 258.625,3.337 264.160,3.359 264.600 C 3.395 265.311,3.722 265.413,6.300 265.518 L 9.200 265.635 9.200 269.359 C 9.200 271.407,9.316 274.189,9.457 275.541 L 9.714 278.000 12.657 278.000 L 15.600 278.000 15.665 285.900 C 15.701 290.245,15.746 294.430,15.765 295.200 L 15.800 296.600 18.900 296.717 L 22.000 296.834 22.046 299.317 C 22.072 300.683,22.117 302.070,22.146 302.400 C 22.188 302.867,22.899 303.026,25.351 303.118 L 28.501 303.235 28.284 308.601 C 27.987 315.913,27.846 315.600,31.447 315.600 L 34.400 315.600 34.446 317.700 C 34.471 318.855,34.456 320.140,34.412 320.555 C 34.292 321.673,35.098 321.987,38.100 321.994 L 40.800 322.000 40.850 327.400 C 40.877 330.370,40.945 332.980,41.000 333.200 C 41.055 333.420,41.123 333.780,41.150 334.000 C 41.178 334.224,42.433 334.400,44.000 334.400 C 47.140 334.400,46.862 334.043,46.962 338.200 C 47.019 340.590,47.298 340.800,50.424 340.800 L 53.200 340.800 53.259 342.900 C 53.292 344.055,53.337 345.360,53.359 345.800 C 53.395 346.509,53.722 346.613,56.240 346.716 L 59.080 346.833 59.440 349.916 L 59.800 353.000 62.700 353.118 L 65.600 353.235 65.657 354.918 C 65.688 355.843,65.720 357.050,65.728 357.600 C 65.750 359.101,66.116 359.187,72.459 359.194 L 78.317 359.200 78.162 361.300 C 77.859 365.390,78.019 365.600,81.432 365.600 L 84.400 365.600 84.446 367.700 C 84.471 368.855,84.456 370.140,84.412 370.555 C 84.279 371.802,85.143 371.987,91.100 371.994 C 97.564 372.001,96.905 371.574,96.970 375.800 L 97.000 377.800 100.100 377.917 L 103.200 378.034 103.243 380.317 C 103.266 381.573,103.311 382.960,103.343 383.400 C 103.398 384.172,103.724 384.204,112.700 384.307 L 122.000 384.415 122.063 386.707 C 122.098 387.968,122.111 389.267,122.092 389.594 C 122.032 390.635,122.874 390.788,128.700 390.794 L 134.400 390.800 134.457 392.700 C 134.488 393.745,134.533 395.050,134.557 395.600 L 134.600 396.600 146.900 396.706 L 159.200 396.812 159.200 398.406 L 159.200 400.000 200.000 400.000 L 240.800 400.000 240.800 398.406 L 240.800 396.812 253.100 396.706 L 265.400 396.600 265.517 393.710 L 265.635 390.821 271.717 390.710 L 277.800 390.600 277.917 387.507 L 278.033 384.415 287.317 384.307 L 296.600 384.200 296.717 381.117 L 296.833 378.033 299.917 377.917 L 303.000 377.800 303.117 374.910 L 303.235 372.021 309.317 371.910 L 315.400 371.800 315.517 368.717 L 315.633 365.633 318.717 365.517 L 321.800 365.400 321.917 362.310 L 322.033 359.221 328.117 359.110 L 334.200 359.000 334.317 356.117 L 334.434 353.233 337.517 353.117 L 340.600 353.000 340.717 349.917 L 340.833 346.834 343.717 346.717 L 346.600 346.600 346.717 343.717 L 346.834 340.833 349.917 340.717 L 353.000 340.600 353.117 337.517 L 353.233 334.434 356.117 334.317 L 359.000 334.200 359.110 328.117 L 359.221 322.033 362.310 321.917 L 365.400 321.800 365.517 318.717 L 365.633 315.633 368.717 315.517 L 371.800 315.400 371.910 309.317 L 372.021 303.235 374.910 303.117 L 377.800 303.000 377.917 299.917 L 378.033 296.833 381.117 296.717 L 384.200 296.600 384.307 287.317 L 384.415 278.033 387.507 277.917 L 390.600 277.800 390.710 271.717 L 390.821 265.635 393.710 265.517 L 396.600 265.400 396.706 253.100 L 396.812 240.800 398.406 240.800 L 400.000 240.800 400.000 200.000 L 400.000 159.200 398.406 159.200 L 396.812 159.200 396.706 146.900 L 396.600 134.600 395.600 134.557 C 395.050 134.533,393.745 134.488,392.700 134.457 L 390.800 134.400 390.794 128.700 C 390.788 122.874,390.635 122.032,389.594 122.092 C 389.267 122.111,387.968 122.098,386.707 122.063 L 384.415 122.000 384.307 112.700 C 384.204 103.724,384.172 103.398,383.400 103.343 C 382.960 103.311,381.573 103.266,380.317 103.243 L 378.034 103.200 377.917 100.100 L 377.800 97.000 375.800 96.970 C 371.574 96.905,372.001 97.564,371.994 91.100 C 371.987 85.143,371.802 84.279,370.555 84.412 C 370.140 84.456,368.855 84.471,367.700 84.446 L 365.600 84.400 365.600 81.432 C 365.600 78.019,365.390 77.859,361.300 78.162 L 359.200 78.317 359.194 72.459 C 359.187 66.116,359.101 65.750,357.600 65.728 C 357.050 65.720,355.843 65.688,354.918 65.657 L 353.235 65.600 353.118 62.700 L 353.000 59.800 349.916 59.440 L 346.833 59.080 346.716 56.240 C 346.613 53.722,346.509 53.395,345.800 53.359 C 345.360 53.337,344.055 53.292,342.900 53.259 L 340.800 53.200 340.800 50.424 C 340.800 47.298,340.590 47.019,338.200 46.962 C 334.043 46.862,334.400 47.140,334.400 44.000 C 334.400 42.433,334.224 41.178,334.000 41.150 C 333.780 41.123,333.420 41.055,333.200 41.000 C 332.980 40.945,330.370 40.877,327.400 40.850 L 322.000 40.800 321.994 38.100 C 321.987 35.098,321.673 34.292,320.555 34.412 C 320.140 34.456,318.855 34.471,317.700 34.446 L 315.600 34.400 315.600 31.447 C 315.600 27.846,315.913 27.987,308.601 28.284 L 303.235 28.501 303.118 25.351 C 303.026 22.899,302.867 22.188,302.400 22.146 C 302.070 22.117,300.683 22.072,299.317 22.046 L 296.834 22.000 296.717 18.900 L 296.600 15.800 295.200 15.765 C 294.430 15.746,290.245 15.701,285.900 15.665 L 278.000 15.600 278.000 12.657 L 278.000 9.714 275.541 9.457 C 274.189 9.316,271.407 9.200,269.359 9.200 L 265.635 9.200 265.518 6.300 C 265.413 3.722,265.311 3.395,264.600 3.359 C 264.160 3.337,258.625 3.292,252.300 3.259 L 240.800 3.200 240.800 1.600 L 240.800 0.000 200.000 0.000 L 159.200 0.000 159.200 1.600 M250.000 117.501 C 251.088 118.044,251.523 118.601,251.952 120.000 C 252.912 123.129,252.655 122.981,257.513 123.200 C 262.690 123.434,263.934 124.037,264.600 126.637 C 265.164 128.840,265.378 129.062,267.218 129.357 C 269.263 129.683,270.663 131.043,271.026 133.055 C 271.364 134.929,271.850 135.600,272.869 135.600 C 275.818 135.600,276.933 137.496,277.193 142.958 C 277.420 147.736,277.276 147.489,280.400 148.448 C 283.249 149.322,283.599 150.400,283.599 158.323 C 283.600 161.911,283.807 166.531,284.060 168.590 L 284.520 172.333 285.829 172.579 C 290.706 173.494,291.240 181.283,286.545 183.019 C 283.404 184.180,283.600 183.403,283.600 194.662 C 283.600 207.377,283.439 207.935,279.642 208.390 C 277.750 208.616,277.523 208.867,276.815 211.519 C 276.331 213.333,274.621 214.796,272.980 214.799 C 271.781 214.801,271.201 215.572,271.190 217.180 C 271.145 223.722,267.587 227.143,260.780 227.190 C 259.003 227.202,258.400 227.790,258.400 229.506 C 258.400 232.621,257.164 233.327,251.242 233.594 C 246.241 233.820,246.514 233.666,245.552 236.800 C 244.535 240.117,245.495 239.999,219.580 239.999 C 202.521 240.000,196.842 240.118,196.480 240.480 C 196.120 240.840,196.000 245.790,196.000 260.293 C 196.000 281.913,195.997 281.941,193.427 283.014 C 191.345 283.884,152.655 283.884,150.573 283.014 C 148.172 282.011,148.000 281.074,148.000 269.000 C 148.000 254.571,148.091 254.400,155.738 254.400 C 159.889 254.400,160.139 254.272,160.561 251.929 C 160.940 249.822,161.952 248.790,164.198 248.220 C 166.313 247.683,166.490 247.486,167.179 244.898 C 167.704 242.929,168.748 242.103,171.248 241.678 L 173.000 241.380 173.200 236.718 C 173.433 231.288,174.003 230.074,176.637 229.400 C 179.277 228.724,179.200 228.946,179.200 222.000 C 179.200 215.054,179.277 215.276,176.637 214.600 C 174.035 213.934,173.424 212.679,173.263 207.672 C 173.107 202.833,172.999 202.598,170.765 202.241 C 168.694 201.910,167.290 200.506,166.959 198.435 C 166.658 196.549,166.305 196.195,164.386 195.850 C 162.314 195.478,161.284 194.583,160.742 192.686 C 159.987 190.047,159.900 190.000,155.738 190.000 C 147.336 190.000,148.000 193.138,148.000 153.400 C 148.000 117.314,147.917 118.518,150.485 117.403 C 152.711 116.436,248.056 116.530,250.000 117.501 M196.480 152.880 C 195.786 153.574,195.786 203.226,196.480 203.920 C 197.187 204.627,228.137 204.608,228.699 203.900 C 228.917 203.625,229.215 202.738,229.361 201.929 C 229.740 199.822,230.752 198.790,232.998 198.220 C 235.113 197.683,235.290 197.486,235.979 194.898 C 236.504 192.931,237.642 192.026,239.985 191.711 L 241.600 191.495 241.600 178.335 C 241.600 168.142,241.487 165.146,241.100 165.047 C 236.195 163.793,235.602 162.944,235.601 157.180 C 235.600 154.743,235.426 153.186,235.120 152.880 C 234.429 152.189,197.171 152.189,196.480 152.880 M143.600 192.301 C 144.688 192.844,145.123 193.401,145.552 194.800 C 146.514 197.936,146.238 197.781,151.261 198.000 C 158.147 198.301,158.333 198.495,158.501 205.557 C 158.610 210.130,158.467 209.886,161.600 210.848 C 164.536 211.749,164.799 212.665,164.799 222.000 C 164.799 231.335,164.536 232.251,161.600 233.152 C 158.467 234.114,158.610 233.870,158.501 238.443 C 158.333 245.505,158.147 245.699,151.261 246.000 C 146.238 246.219,146.514 246.064,145.552 249.200 C 144.608 252.278,144.072 252.399,131.400 252.399 C 118.728 252.399,118.192 252.278,117.248 249.200 C 116.400 246.437,116.291 246.312,114.304 245.807 C 111.906 245.198,111.307 244.669,110.734 242.653 C 110.130 240.525,109.998 240.393,107.716 239.636 C 104.405 238.537,104.401 238.518,104.401 222.200 C 104.401 205.980,104.423 205.863,107.600 204.795 C 110.117 203.948,110.264 203.812,110.545 202.057 C 110.894 199.872,111.915 198.799,114.198 198.220 C 116.294 197.688,116.397 197.572,117.248 194.800 C 118.192 191.722,118.728 191.601,131.400 191.601 C 140.882 191.601,142.371 191.687,143.600 192.301 " stroke="none" fill="#fc3464" fill-rule="evenodd"></path><path id="path2" d="" stroke="none" fill="#fccc100" fill-rule="evenodd"></path><path id="path3" d="M151.319 118.384 C 148.674 119.997,148.800 118.249,148.801 153.480 C 148.803 191.863,148.256 189.200,156.145 189.200 C 159.854 189.200,160.288 189.460,162.092 192.769 C 162.525 193.562,163.444 194.330,164.540 194.814 C 166.543 195.701,166.927 196.093,168.131 198.479 C 168.751 199.706,169.502 200.453,170.749 201.082 C 173.834 202.639,174.000 202.921,174.000 206.613 C 174.000 210.826,174.692 212.585,176.710 213.495 C 179.996 214.977,180.000 214.986,180.000 222.000 C 180.000 229.019,179.999 229.021,176.691 230.515 C 174.721 231.404,174.279 232.533,174.016 237.359 L 173.800 241.319 171.400 242.559 C 169.478 243.553,168.821 244.156,168.099 245.587 C 166.978 247.810,166.610 248.178,164.387 249.299 C 163.092 249.952,162.357 250.682,161.718 251.949 C 160.156 255.044,159.888 255.200,156.118 255.200 C 149.125 255.200,148.800 255.808,148.801 268.862 C 148.804 284.130,146.591 282.800,172.000 282.800 C 198.121 282.800,195.196 285.678,195.199 259.970 L 195.200 240.939 196.126 240.070 L 197.052 239.200 219.226 239.199 C 244.224 239.197,243.238 239.317,244.688 236.103 C 246.063 233.056,246.519 232.800,250.570 232.799 C 255.159 232.797,256.341 232.172,257.902 228.925 C 258.970 226.702,259.060 226.626,261.200 226.150 C 266.746 224.917,269.022 222.832,270.048 218.049 C 270.615 215.401,271.270 214.527,273.290 213.718 C 274.467 213.246,275.005 212.661,275.853 210.928 C 276.788 209.016,277.200 208.613,279.053 207.794 C 282.714 206.174,282.797 205.881,282.799 194.462 C 282.800 183.798,283.001 182.838,285.351 182.248 C 289.299 181.257,289.702 175.869,285.954 174.179 C 283.397 173.026,282.811 170.166,282.802 158.800 C 282.796 151.710,282.412 150.534,279.703 149.312 C 276.696 147.955,276.400 147.451,276.400 143.685 C 276.400 139.552,275.501 137.567,273.214 136.652 C 271.528 135.978,271.062 135.485,269.869 133.121 C 269.254 131.903,268.497 131.146,267.279 130.531 C 264.897 129.329,264.500 128.942,263.626 126.965 C 262.616 124.683,261.002 124.000,256.621 124.000 C 252.960 124.000,252.438 123.688,251.088 120.697 C 249.573 117.338,253.925 117.603,200.200 117.603 C 153.694 117.603,152.571 117.621,151.319 118.384 M248.512 121.156 C 249.286 122.011,250.040 123.095,250.188 123.563 C 250.595 124.846,252.884 125.600,256.370 125.600 C 259.751 125.600,260.994 126.382,262.563 129.496 C 262.923 130.209,263.888 131.137,264.708 131.559 C 266.456 132.458,268.046 134.078,268.961 135.893 C 269.320 136.605,270.195 137.480,270.907 137.838 C 274.143 139.468,274.800 140.594,274.800 144.505 C 274.800 148.527,275.094 149.325,276.912 150.241 C 277.620 150.598,278.785 151.445,279.500 152.123 L 280.800 153.357 280.800 162.665 C 280.800 173.355,280.875 173.665,284.044 176.106 C 286.434 177.947,286.468 178.433,284.310 179.882 C 280.843 182.211,280.800 182.378,280.800 193.581 L 280.800 203.443 279.500 204.677 C 278.785 205.355,277.601 206.213,276.868 206.582 C 276.106 206.966,275.308 207.798,275.001 208.527 C 274.370 210.027,272.724 211.644,270.880 212.575 C 269.876 213.082,269.215 213.956,268.121 216.230 C 266.308 219.997,262.808 223.432,259.633 224.559 C 258.079 225.111,257.318 225.648,256.848 226.525 C 256.491 227.189,255.594 228.422,254.853 229.266 L 253.507 230.800 250.134 230.800 C 246.221 230.800,244.741 231.380,243.746 233.304 C 243.379 234.014,242.611 235.181,242.039 235.897 L 241.000 237.200 218.880 237.200 C 194.613 237.200,195.063 237.157,193.807 239.587 C 193.290 240.586,193.200 243.521,193.200 259.402 L 193.200 278.043 192.100 279.421 L 191.000 280.800 172.219 280.800 L 153.438 280.800 152.119 279.522 L 150.800 278.243 150.800 268.769 L 150.800 259.295 152.173 258.247 C 153.377 257.329,153.923 257.200,156.593 257.200 C 160.252 257.200,161.692 256.567,162.759 254.492 C 163.659 252.744,165.279 251.154,167.096 250.237 C 167.824 249.870,168.734 248.913,169.173 248.054 C 170.019 246.395,172.262 244.225,173.555 243.814 C 174.921 243.381,175.600 241.388,175.600 237.817 C 175.600 234.228,176.330 233.032,179.493 231.438 C 181.706 230.323,182.000 229.217,182.000 222.000 C 182.000 214.783,181.706 213.677,179.493 212.562 C 176.382 210.995,175.600 209.751,175.600 206.370 C 175.600 202.900,174.846 200.596,173.581 200.194 C 172.264 199.776,170.025 197.618,169.171 195.943 C 168.705 195.029,167.786 194.089,166.895 193.613 C 164.797 192.494,163.404 191.214,162.641 189.707 C 161.689 187.825,160.167 187.200,156.539 187.200 C 153.593 187.200,153.372 187.136,152.119 185.922 L 150.800 184.643 150.800 153.441 L 150.800 122.238 152.078 120.919 L 153.357 119.600 200.232 119.600 L 247.107 119.600 248.512 121.156 M195.505 150.226 C 193.144 151.507,193.200 150.826,193.200 178.400 C 193.200 206.092,193.135 205.325,195.587 206.593 C 196.578 207.106,199.224 207.200,212.600 207.200 C 230.276 207.200,230.158 207.217,231.559 204.492 C 232.459 202.744,234.079 201.154,235.896 200.237 C 236.634 199.865,237.536 198.910,237.990 198.019 C 238.429 197.159,239.540 195.858,240.458 195.128 C 241.377 194.397,242.639 193.286,243.264 192.658 L 244.400 191.515 244.400 178.538 C 244.400 164.663,244.290 163.811,242.360 162.779 C 241.903 162.534,240.825 161.698,239.965 160.920 L 238.400 159.507 238.400 156.334 C 238.400 152.694,237.789 151.125,236.013 150.207 C 234.278 149.309,197.162 149.327,195.505 150.226 M235.474 152.470 C 236.302 153.247,236.400 153.702,236.401 156.770 C 236.403 160.883,237.150 162.458,239.622 163.565 C 242.457 164.835,242.373 164.383,242.387 178.451 C 242.401 192.476,242.621 191.367,239.521 192.931 C 238.283 193.556,237.547 194.301,236.899 195.587 C 235.778 197.810,235.410 198.178,233.187 199.299 C 231.892 199.952,231.157 200.682,230.518 201.949 C 228.738 205.477,230.257 205.200,212.664 205.200 C 197.185 205.200,197.044 205.193,196.126 204.330 L 195.200 203.461 195.200 178.456 L 195.200 153.452 196.070 152.526 L 196.939 151.600 215.744 151.600 C 234.500 151.600,234.551 151.602,235.474 152.470 M120.073 193.212 C 119.279 193.696,118.437 194.719,117.977 195.758 C 117.100 197.742,116.704 198.129,114.321 199.331 C 113.094 199.951,112.347 200.702,111.718 201.949 C 110.662 204.041,109.671 205.200,108.938 205.200 C 108.642 205.200,107.680 205.920,106.800 206.800 L 105.200 208.400 105.200 221.941 C 105.200 237.182,105.198 237.174,108.400 238.853 C 109.936 239.659,111.037 240.823,112.079 242.742 C 112.463 243.448,113.421 244.293,114.279 244.681 C 116.444 245.660,117.127 246.320,117.987 248.264 C 119.404 251.466,119.930 251.597,131.400 251.597 C 142.715 251.597,143.360 251.447,144.688 248.503 C 146.058 245.468,146.528 245.200,150.490 245.200 C 156.452 245.200,157.996 243.734,157.999 238.074 C 158.000 234.078,158.282 233.467,160.595 232.444 C 163.699 231.070,163.997 230.156,163.997 222.000 C 163.997 213.844,163.699 212.930,160.595 211.556 C 158.289 210.537,158.000 209.918,158.000 206.006 C 158.000 200.284,156.474 198.804,150.570 198.801 C 146.519 198.800,146.063 198.544,144.688 195.497 C 143.360 192.553,142.715 192.403,131.400 192.403 C 122.066 192.403,121.312 192.457,120.073 193.212 M142.039 195.703 C 142.611 196.419,143.379 197.586,143.746 198.296 C 144.735 200.209,146.226 200.800,150.061 200.800 C 154.831 200.800,156.000 201.922,156.000 206.498 C 156.000 209.888,156.609 211.655,158.040 212.421 C 158.497 212.666,159.575 213.502,160.435 214.280 L 162.000 215.693 162.000 222.000 L 162.000 228.307 160.435 229.720 C 159.575 230.498,158.497 231.334,158.040 231.579 C 156.584 232.358,156.000 234.106,156.000 237.680 C 156.000 242.231,154.947 243.200,150.002 243.200 C 146.230 243.200,144.731 243.800,143.746 245.704 C 143.379 246.414,142.611 247.581,142.039 248.297 L 141.000 249.600 131.578 249.600 L 122.157 249.600 120.923 248.300 C 120.245 247.585,119.396 246.417,119.037 245.704 C 118.677 244.991,117.712 244.050,116.892 243.612 C 114.796 242.493,113.403 241.213,112.640 239.704 C 112.279 238.991,111.312 238.064,110.492 237.644 C 107.179 235.948,107.200 236.047,107.200 221.891 L 107.200 209.350 108.300 208.321 C 108.905 207.754,109.982 206.998,110.693 206.639 C 111.405 206.280,112.280 205.405,112.639 204.693 C 113.554 202.878,115.144 201.258,116.892 200.359 C 117.712 199.937,118.677 199.009,119.037 198.296 C 119.396 197.583,120.245 196.415,120.923 195.700 L 122.157 194.400 131.578 194.400 L 141.000 194.400 142.039 195.703 " stroke="none" fill="#fc64b4" fill-rule="evenodd"></path><path id="path4" d="M91.300 28.294 C 92.345 28.376,94.055 28.376,95.100 28.294 C 96.145 28.212,95.290 28.144,93.200 28.144 C 91.110 28.144,90.255 28.212,91.300 28.294 M304.900 28.294 C 305.945 28.376,307.655 28.376,308.700 28.294 C 309.745 28.212,308.890 28.144,306.800 28.144 C 304.710 28.144,303.855 28.212,304.900 28.294 M28.144 93.200 C 28.144 95.290,28.212 96.145,28.294 95.100 C 28.376 94.055,28.376 92.345,28.294 91.300 C 28.212 90.255,28.144 91.110,28.144 93.200 M150.485 117.403 C 147.917 118.518,148.000 117.314,148.000 153.400 C 148.000 193.138,147.336 190.000,155.738 190.000 C 159.900 190.000,159.987 190.047,160.742 192.686 C 161.284 194.583,162.314 195.478,164.386 195.850 C 166.305 196.195,166.658 196.549,166.959 198.435 C 167.290 200.506,168.694 201.910,170.765 202.241 C 172.999 202.598,173.107 202.833,173.263 207.672 C 173.424 212.679,174.035 213.934,176.637 214.600 C 179.277 215.276,179.200 215.054,179.200 222.000 C 179.200 228.946,179.277 228.724,176.637 229.400 C 174.003 230.074,173.433 231.288,173.200 236.718 L 173.000 241.380 171.248 241.678 C 168.748 242.103,167.704 242.929,167.179 244.898 C 166.490 247.486,166.313 247.683,164.198 248.220 C 161.952 248.790,160.940 249.822,160.561 251.929 C 160.139 254.272,159.889 254.400,155.738 254.400 C 148.091 254.400,148.000 254.571,148.000 269.000 C 148.000 281.074,148.172 282.011,150.573 283.014 C 152.655 283.884,191.345 283.884,193.427 283.014 C 195.997 281.941,196.000 281.913,196.000 260.293 C 196.000 245.790,196.120 240.840,196.480 240.480 C 196.842 240.118,202.521 240.000,219.580 239.999 C 245.495 239.999,244.535 240.117,245.552 236.800 C 246.514 233.666,246.241 233.820,251.242 233.594 C 257.164 233.327,258.400 232.621,258.400 229.506 C 258.400 227.790,259.003 227.202,260.780 227.190 C 267.587 227.143,271.145 223.722,271.190 217.180 C 271.201 215.572,271.781 214.801,272.980 214.799 C 274.621 214.796,276.331 213.333,276.815 211.519 C 277.523 208.867,277.750 208.616,279.642 208.390 C 283.439 207.935,283.600 207.377,283.600 194.662 C 283.600 183.403,283.404 184.180,286.545 183.019 C 291.240 181.283,290.706 173.494,285.829 172.579 L 284.520 172.333 284.060 168.590 C 283.807 166.531,283.600 161.911,283.599 158.323 C 283.599 150.400,283.249 149.322,280.400 148.448 C 277.276 147.489,277.420 147.736,277.193 142.958 C 276.933 137.496,275.818 135.600,272.869 135.600 C 271.850 135.600,271.364 134.929,271.026 133.055 C 270.663 131.043,269.263 129.683,267.218 129.357 C 265.378 129.062,265.164 128.840,264.600 126.637 C 263.934 124.037,262.690 123.434,257.513 123.200 C 252.655 122.981,252.912 123.129,251.952 120.000 C 250.890 116.538,255.134 116.799,200.200 116.816 C 159.161 116.829,151.600 116.918,150.485 117.403 M249.105 118.399 C 249.823 118.836,250.715 119.871,251.088 120.697 C 252.438 123.688,252.960 124.000,256.621 124.000 C 261.002 124.000,262.616 124.683,263.626 126.965 C 264.500 128.942,264.897 129.329,267.279 130.531 C 268.497 131.146,269.254 131.903,269.869 133.121 C 271.062 135.485,271.528 135.978,273.214 136.652 C 275.501 137.567,276.400 139.552,276.400 143.685 C 276.400 147.451,276.696 147.955,279.703 149.312 C 282.412 150.534,282.796 151.710,282.802 158.800 C 282.811 170.166,283.397 173.026,285.954 174.179 C 289.702 175.869,289.299 181.257,285.351 182.248 C 283.001 182.838,282.800 183.798,282.799 194.462 C 282.797 205.881,282.714 206.174,279.053 207.794 C 277.200 208.613,276.788 209.016,275.853 210.928 C 275.005 212.661,274.467 213.246,273.290 213.718 C 271.270 214.527,270.615 215.401,270.048 218.049 C 269.022 222.832,266.746 224.917,261.200 226.150 C 259.060 226.626,258.970 226.702,257.902 228.925 C 256.341 232.172,255.159 232.797,250.570 232.799 C 246.519 232.800,246.063 233.056,244.688 236.103 C 243.238 239.317,244.224 239.197,219.226 239.199 L 197.052 239.200 196.126 240.070 L 195.200 240.939 195.199 259.970 C 195.196 285.678,198.121 282.800,172.000 282.800 C 146.591 282.800,148.804 284.130,148.801 268.862 C 148.800 255.808,149.125 255.200,156.118 255.200 C 159.888 255.200,160.156 255.044,161.718 251.949 C 162.357 250.682,163.092 249.952,164.387 249.299 C 166.610 248.178,166.978 247.810,168.099 245.587 C 168.821 244.156,169.478 243.553,171.400 242.559 L 173.800 241.319 174.016 237.359 C 174.279 232.533,174.721 231.404,176.691 230.515 C 179.999 229.021,180.000 229.019,180.000 222.000 C 180.000 214.986,179.996 214.977,176.710 213.495 C 174.692 212.585,174.000 210.826,174.000 206.613 C 174.000 202.921,173.834 202.639,170.749 201.082 C 169.502 200.453,168.751 199.706,168.131 198.479 C 166.927 196.093,166.543 195.701,164.540 194.814 C 163.444 194.330,162.525 193.562,162.092 192.769 C 160.288 189.460,159.854 189.200,156.145 189.200 C 148.256 189.200,148.803 191.863,148.801 153.480 C 148.800 118.249,148.674 119.997,151.319 118.384 C 153.349 117.146,247.075 117.161,249.105 118.399 M196.070 152.526 L 195.200 153.452 195.200 178.456 L 195.200 203.461 196.126 204.330 C 197.044 205.193,197.185 205.200,212.664 205.200 C 230.257 205.200,228.738 205.477,230.518 201.949 C 231.157 200.682,231.892 199.952,233.187 199.299 C 235.410 198.178,235.778 197.810,236.899 195.587 C 237.547 194.301,238.283 193.556,239.521 192.931 C 242.621 191.367,242.401 192.476,242.387 178.451 C 242.373 164.383,242.457 164.835,239.622 163.565 C 237.150 162.458,236.403 160.883,236.401 156.770 C 236.399 151.156,238.174 151.600,215.744 151.600 L 196.939 151.600 196.070 152.526 M235.120 152.880 C 235.426 153.186,235.600 154.743,235.601 157.180 C 235.602 162.944,236.195 163.793,241.100 165.047 C 241.487 165.146,241.600 168.142,241.600 178.335 L 241.600 191.495 239.985 191.711 C 237.642 192.026,236.504 192.931,235.979 194.898 C 235.290 197.486,235.113 197.683,232.998 198.220 C 230.752 198.790,229.740 199.822,229.361 201.929 C 229.215 202.738,228.917 203.625,228.699 203.900 C 228.137 204.608,197.187 204.627,196.480 203.920 C 195.786 203.226,195.786 153.574,196.480 152.880 C 197.171 152.189,234.429 152.189,235.120 152.880 M119.200 192.301 C 118.112 192.844,117.677 193.401,117.248 194.800 C 116.397 197.572,116.294 197.688,114.198 198.220 C 111.915 198.799,110.894 199.872,110.545 202.057 C 110.264 203.812,110.117 203.948,107.600 204.795 C 104.423 205.863,104.401 205.980,104.401 222.200 C 104.401 238.518,104.405 238.537,107.716 239.636 C 109.998 240.393,110.130 240.525,110.734 242.653 C 111.307 244.669,111.906 245.198,114.304 245.807 C 116.291 246.312,116.400 246.437,117.248 249.200 C 118.192 252.278,118.728 252.399,131.400 252.399 C 144.072 252.399,144.608 252.278,145.552 249.200 C 146.514 246.064,146.238 246.219,151.261 246.000 C 158.147 245.699,158.333 245.505,158.501 238.443 C 158.610 233.870,158.467 234.114,161.600 233.152 C 164.536 232.251,164.799 231.335,164.799 222.000 C 164.799 212.665,164.536 211.749,161.600 210.848 C 158.467 209.886,158.610 210.130,158.501 205.557 C 158.333 198.495,158.147 198.301,151.261 198.000 C 146.238 197.781,146.514 197.936,145.552 194.800 C 144.608 191.722,144.072 191.601,131.400 191.601 C 121.918 191.601,120.429 191.687,119.200 192.301 M142.705 193.199 C 143.423 193.636,144.315 194.671,144.688 195.497 C 146.063 198.544,146.519 198.800,150.570 198.801 C 156.474 198.804,158.000 200.284,158.000 206.006 C 158.000 209.918,158.289 210.537,160.595 211.556 C 163.699 212.930,163.997 213.844,163.997 222.000 C 163.997 230.156,163.699 231.070,160.595 232.444 C 158.282 233.467,158.000 234.078,157.999 238.074 C 157.996 243.734,156.452 245.200,150.490 245.200 C 146.528 245.200,146.058 245.468,144.688 248.503 C 143.360 251.447,142.715 251.597,131.400 251.597 C 119.930 251.597,119.404 251.466,117.987 248.264 C 117.127 246.320,116.444 245.660,114.279 244.681 C 113.421 244.293,112.463 243.448,112.079 242.742 C 111.037 240.823,109.936 239.659,108.400 238.853 C 105.198 237.174,105.200 237.182,105.200 221.941 L 105.200 208.400 106.800 206.800 C 107.680 205.920,108.642 205.200,108.938 205.200 C 109.671 205.200,110.662 204.041,111.718 201.949 C 112.347 200.702,113.094 199.951,114.321 199.331 C 116.704 198.129,117.100 197.742,117.977 195.758 C 119.405 192.531,119.915 192.403,131.400 192.403 C 140.678 192.403,141.494 192.460,142.705 193.199 M28.144 306.800 C 28.144 308.890,28.212 309.745,28.294 308.700 C 28.376 307.655,28.376 305.945,28.294 304.900 C 28.212 303.855,28.144 304.710,28.144 306.800 " stroke="none" fill="#fc6864" fill-rule="evenodd"></path></g></svg>