<svg id="svg" version="1.1" xmlns="http://www.w3.org/2000/svg" xmlns:xlink="http://www.w3.org/1999/xlink" width="400" height="400" viewBox="0, 0, 400,400"><g id="svgg"><path id="path0" d="M185.258 141.158 C 184.932 141.363,184.631 142.557,184.503 144.150 L 184.290 146.800 181.045 146.826 C 175.658 146.868,173.031 147.107,172.877 147.568 C 172.797 147.808,172.611 147.931,172.464 147.840 C 172.317 147.749,172.157 148.854,172.107 150.295 C 171.994 153.578,172.476 153.310,166.724 153.290 C 160.341 153.267,159.600 153.677,159.600 157.227 L 159.600 159.600 156.900 159.647 C 155.415 159.673,154.043 159.666,153.851 159.631 C 153.659 159.596,153.602 159.827,153.723 160.145 C 153.845 160.462,153.822 160.844,153.672 160.994 C 153.523 161.144,153.371 162.106,153.336 163.133 C 153.301 164.160,153.256 165.124,153.236 165.275 C 153.216 165.426,152.615 165.606,151.900 165.675 L 150.600 165.800 152.000 166.491 C 153.051 167.010,153.201 167.192,152.600 167.222 C 152.140 167.246,152.020 167.351,152.317 167.470 C 152.713 167.630,152.725 167.808,152.368 168.239 C 152.003 168.678,152.033 168.800,152.508 168.800 C 153.227 168.800,153.681 169.754,153.200 170.251 C 152.601 170.869,153.228 172.800,154.028 172.800 C 154.432 172.800,155.222 173.010,155.785 173.266 C 156.880 173.765,156.953 173.964,158.391 180.400 C 159.123 183.677,159.575 184.710,161.673 187.900 C 163.011 189.935,164.500 192.725,164.983 194.100 C 165.466 195.475,166.645 197.860,167.603 199.400 C 168.561 200.940,169.927 203.387,170.638 204.837 C 171.349 206.287,172.218 207.761,172.569 208.112 C 173.269 208.812,174.800 212.158,174.800 212.988 C 174.800 213.275,175.636 215.105,176.658 217.055 C 177.680 219.005,179.223 222.023,180.086 223.763 C 180.949 225.503,182.333 227.933,183.161 229.163 C 183.988 230.393,185.529 233.422,186.584 235.894 C 187.640 238.366,189.065 241.122,189.752 242.018 L 191.000 243.647 191.265 241.723 C 191.411 240.666,191.547 238.180,191.568 236.200 C 191.589 234.220,191.775 231.160,191.982 229.400 C 192.188 227.640,192.643 223.680,192.993 220.600 C 193.342 217.520,194.092 212.404,194.660 209.230 L 195.692 203.461 194.902 201.830 C 194.467 200.934,193.822 199.210,193.468 198.000 C 192.445 194.499,191.497 193.764,187.562 193.421 L 184.254 193.132 181.827 190.609 C 180.492 189.222,178.662 187.717,177.761 187.266 C 175.933 186.352,174.800 184.906,174.800 183.489 C 174.800 182.968,174.267 182.039,173.603 181.403 L 172.406 180.256 169.303 180.771 C 163.024 181.813,161.470 181.146,161.283 177.325 C 161.032 172.207,159.479 172.421,196.926 172.410 C 231.808 172.399,229.379 172.160,229.772 175.633 C 230.191 179.333,229.428 180.000,224.784 180.000 C 220.613 180.000,219.602 180.583,218.614 183.558 C 217.851 185.856,217.338 186.361,214.353 187.757 C 212.710 188.525,211.689 189.371,210.553 190.904 C 209.313 192.577,208.355 193.324,205.800 194.605 L 202.600 196.211 202.600 199.257 L 202.600 202.304 206.600 206.181 C 208.800 208.314,211.680 210.797,213.000 211.700 C 216.744 214.260,220.743 217.625,223.800 220.790 C 225.340 222.385,228.400 225.044,230.600 226.700 C 235.049 230.048,239.672 234.361,239.357 234.869 C 239.245 235.051,239.388 235.203,239.676 235.206 C 240.057 235.211,240.036 235.318,239.600 235.600 C 239.164 235.882,239.143 235.989,239.524 235.994 C 239.812 235.997,239.924 236.200,239.772 236.445 C 239.621 236.689,239.746 237.047,240.049 237.239 C 240.480 237.512,240.441 237.589,239.871 237.594 C 239.471 237.597,238.873 237.870,238.543 238.200 C 238.010 238.733,238.013 238.800,238.571 238.800 C 238.917 238.800,239.200 238.967,239.200 239.171 C 239.200 239.904,241.614 240.829,241.859 240.190 C 242.047 239.701,242.161 239.704,242.667 240.209 C 243.087 240.630,243.462 240.688,243.975 240.413 C 244.371 240.201,244.801 240.134,244.930 240.263 C 245.649 240.983,246.500 239.973,245.813 239.215 C 245.431 238.792,245.212 238.211,245.327 237.923 C 245.456 237.601,245.549 237.688,245.568 238.149 C 245.595 238.779,245.698 238.817,246.220 238.383 C 246.561 238.100,246.811 237.493,246.776 237.034 C 246.575 234.432,246.607 234.400,249.338 234.400 C 253.574 234.400,253.200 237.859,253.093 199.710 C 253.042 181.426,252.886 166.352,252.746 166.213 C 252.451 165.917,250.899 165.710,248.500 165.646 L 246.800 165.600 246.795 163.500 C 246.784 159.378,247.150 159.600,240.353 159.600 L 234.400 159.600 234.400 157.216 C 234.400 153.538,233.974 153.292,227.484 153.223 C 221.308 153.158,222.095 153.547,221.890 150.457 C 221.723 147.952,221.333 147.272,220.000 147.164 C 219.670 147.137,219.130 147.075,218.800 147.026 C 218.470 146.977,216.183 146.906,213.718 146.868 L 209.235 146.800 209.118 143.900 L 209.000 141.000 197.400 140.908 C 191.020 140.857,185.556 140.970,185.258 141.158 M184.406 255.900 C 184.403 256.395,184.580 256.800,184.800 256.800 C 185.301 256.800,185.301 256.376,184.800 255.600 C 184.486 255.115,184.411 255.172,184.406 255.900 " stroke="none" fill="#12b8d4" fill-rule="evenodd"></path><path id="path1" d="M190.990 23.230 C 190.612 24.422,190.927 24.515,191.467 23.371 C 191.719 22.837,191.774 22.400,191.589 22.400 C 191.405 22.400,191.135 22.774,190.990 23.230 M136.000 54.800 C 135.560 55.240,135.212 55.825,135.227 56.100 C 135.242 56.375,135.441 56.214,135.669 55.742 C 135.898 55.271,136.471 54.698,136.942 54.469 C 137.414 54.241,137.575 54.042,137.300 54.027 C 137.025 54.012,136.440 54.360,136.000 54.800 M158.200 159.200 L 157.000 159.505 158.076 159.553 C 158.668 159.579,159.264 159.420,159.400 159.200 C 159.536 158.980,159.592 158.821,159.524 158.847 C 159.456 158.873,158.860 159.032,158.200 159.200 M236.300 159.495 C 237.455 159.576,239.345 159.576,240.500 159.495 C 241.655 159.414,240.710 159.348,238.400 159.348 C 236.090 159.348,235.145 159.414,236.300 159.495 M140.946 166.200 C 140.862 166.420,140.840 181.810,140.897 200.400 L 141.000 234.200 143.900 234.318 L 146.800 234.435 146.850 235.918 C 146.878 236.733,146.888 237.934,146.873 238.586 C 146.823 240.675,147.190 240.800,153.395 240.800 L 159.091 240.800 159.346 242.656 C 159.486 243.677,159.600 245.027,159.600 245.656 L 159.600 246.800 165.800 246.800 L 172.000 246.800 172.063 249.100 C 172.098 250.365,172.099 251.725,172.064 252.123 C 172.029 252.521,172.181 252.735,172.401 252.600 C 172.620 252.464,172.800 252.551,172.800 252.794 C 172.800 253.037,173.025 253.206,173.300 253.170 C 176.789 252.717,184.706 253.274,184.527 253.959 C 184.417 254.377,184.543 255.120,184.805 255.610 C 185.068 256.100,185.129 256.614,184.941 256.751 C 184.333 257.195,184.383 257.981,185.005 257.743 C 185.332 257.617,185.600 257.714,185.600 257.957 C 185.600 258.201,185.285 258.403,184.900 258.406 C 184.306 258.411,184.290 258.469,184.797 258.789 C 185.140 259.007,191.600 259.177,200.042 259.190 C 216.037 259.216,215.746 259.258,215.590 256.920 C 215.549 256.304,215.534 255.223,215.558 254.517 L 215.600 253.234 218.700 253.117 L 221.800 253.000 221.917 249.910 L 222.033 246.821 228.117 246.710 C 233.179 246.619,234.209 246.499,234.254 246.000 C 234.283 245.670,234.328 244.372,234.354 243.116 L 234.400 240.831 237.900 240.716 C 241.044 240.612,241.288 240.550,240.300 240.110 C 239.695 239.840,239.200 239.435,239.200 239.210 C 239.200 238.984,238.917 238.800,238.571 238.800 C 238.013 238.800,238.010 238.733,238.543 238.200 C 238.873 237.870,239.471 237.597,239.871 237.594 C 240.441 237.589,240.480 237.512,240.049 237.239 C 239.746 237.047,239.621 236.689,239.772 236.445 C 239.924 236.200,239.812 235.997,239.524 235.994 C 239.143 235.989,239.164 235.882,239.600 235.600 C 240.036 235.318,240.057 235.211,239.676 235.206 C 239.388 235.203,239.245 235.051,239.357 234.869 C 239.672 234.361,235.049 230.048,230.600 226.700 C 228.400 225.044,225.340 222.385,223.800 220.790 C 220.743 217.625,216.744 214.260,213.000 211.700 C 211.680 210.797,208.800 208.314,206.600 206.181 L 202.600 202.304 202.600 199.257 L 202.600 196.211 205.800 194.605 C 208.355 193.324,209.313 192.577,210.553 190.904 C 211.689 189.371,212.710 188.525,214.353 187.757 C 217.338 186.361,217.851 185.856,218.614 183.558 C 219.602 180.583,220.613 180.000,224.784 180.000 C 229.428 180.000,230.191 179.333,229.772 175.633 C 229.379 172.160,231.808 172.399,196.926 172.410 C 159.479 172.421,161.032 172.207,161.283 177.325 C 161.470 181.146,163.024 181.813,169.303 180.771 L 172.406 180.256 173.603 181.403 C 174.267 182.039,174.800 182.968,174.800 183.489 C 174.800 184.906,175.933 186.352,177.761 187.266 C 178.662 187.717,180.492 189.222,181.827 190.609 L 184.254 193.132 187.562 193.421 C 191.497 193.764,192.445 194.499,193.468 198.000 C 193.822 199.210,194.467 200.934,194.902 201.830 L 195.692 203.461 194.660 209.230 C 194.092 212.404,193.342 217.520,192.993 220.600 C 192.643 223.680,192.188 227.640,191.982 229.400 C 191.775 231.160,191.589 234.220,191.568 236.200 C 191.547 238.180,191.411 240.666,191.265 241.723 L 191.000 243.647 189.752 242.018 C 189.065 241.122,187.640 238.366,186.584 235.894 C 185.529 233.422,183.988 230.393,183.161 229.163 C 182.333 227.933,180.949 225.503,180.086 223.763 C 179.223 222.023,177.680 219.005,176.658 217.055 C 175.636 215.105,174.800 213.275,174.800 212.988 C 174.800 212.158,173.269 208.812,172.569 208.112 C 172.218 207.761,171.349 206.287,170.638 204.837 C 169.927 203.387,168.561 200.940,167.603 199.400 C 166.645 197.860,165.466 195.475,164.983 194.100 C 164.500 192.725,163.011 189.935,161.673 187.900 C 159.575 184.710,159.123 183.677,158.391 180.400 C 156.953 173.964,156.880 173.765,155.785 173.266 C 155.222 173.010,154.432 172.800,154.028 172.800 C 153.228 172.800,152.601 170.869,153.200 170.251 C 153.681 169.754,153.227 168.800,152.508 168.800 C 152.033 168.800,152.003 168.678,152.368 168.239 C 152.725 167.808,152.713 167.630,152.317 167.470 C 152.021 167.352,152.139 167.250,152.594 167.232 C 153.175 167.208,152.981 166.982,151.874 166.389 C 150.217 165.500,141.272 165.346,140.946 166.200 M245.246 238.051 C 245.221 238.409,245.468 238.924,245.796 239.196 C 246.123 239.468,246.300 239.838,246.189 240.018 C 245.923 240.449,242.670 240.335,242.356 239.884 C 242.221 239.691,242.009 239.799,241.885 240.124 C 241.701 240.602,242.112 240.721,244.045 240.748 C 246.326 240.781,247.962 239.787,246.455 239.285 C 246.076 239.159,246.083 238.974,246.483 238.461 C 246.939 237.878,246.922 237.861,246.333 238.321 C 245.769 238.763,245.638 238.732,245.480 238.121 C 245.328 237.536,245.284 237.523,245.246 238.051 " stroke="none" fill="#4fcce0" fill-rule="evenodd"></path><path id="path2" d="M192.494 22.730 C 191.468 23.277,191.292 23.532,191.674 23.914 C 192.372 24.612,192.929 24.513,192.634 23.743 C 192.424 23.196,192.483 23.171,192.986 23.588 C 193.480 23.999,193.636 23.971,193.842 23.435 C 194.029 22.947,194.227 22.890,194.615 23.213 C 195.023 23.551,195.090 23.465,194.922 22.823 C 194.663 21.832,194.210 21.815,192.494 22.730 M207.703 22.706 C 207.738 23.167,207.909 23.456,208.083 23.349 C 208.373 23.169,208.563 23.768,208.447 24.500 C 208.421 24.665,208.592 24.800,208.827 24.800 C 209.357 24.800,208.923 23.220,208.177 22.434 C 207.719 21.951,207.649 21.991,207.703 22.706 M190.976 26.215 C 191.043 27.214,191.231 28.159,191.394 28.315 C 191.557 28.472,191.621 27.835,191.535 26.900 C 191.449 25.965,191.529 25.200,191.713 25.200 C 191.897 25.200,191.936 25.020,191.800 24.800 C 191.233 23.882,190.863 24.518,190.976 26.215 M172.800 34.994 C 172.800 35.403,172.613 35.540,172.300 35.359 C 172.025 35.201,171.940 35.226,172.112 35.414 C 172.579 35.928,173.647 36.000,173.336 35.497 C 173.164 35.218,173.317 35.159,173.768 35.332 C 174.233 35.511,174.411 35.433,174.300 35.100 C 174.043 34.326,172.800 34.239,172.800 34.994 M225.800 34.800 C 225.465 35.342,225.917 36.000,226.624 36.000 C 226.941 36.000,227.200 35.640,227.200 35.200 C 227.200 34.372,226.235 34.096,225.800 34.800 M159.718 41.333 C 159.597 41.529,159.746 41.863,160.049 42.075 C 160.475 42.373,160.487 42.507,160.100 42.664 C 159.825 42.775,159.600 43.075,159.600 43.329 C 159.600 43.584,160.061 43.295,160.624 42.687 C 161.188 42.080,161.818 41.687,162.024 41.815 C 162.231 41.943,162.400 41.846,162.400 41.600 C 162.400 41.354,162.544 41.242,162.719 41.350 C 162.895 41.458,163.300 41.384,163.619 41.185 C 164.002 40.947,163.475 40.850,162.069 40.900 C 160.897 40.943,159.839 41.137,159.718 41.333 M236.170 41.152 C 236.281 41.331,236.868 41.451,237.474 41.419 C 238.205 41.380,238.876 41.703,239.468 42.380 L 240.360 43.400 240.117 42.437 C 239.926 41.681,239.995 41.548,240.437 41.814 C 240.890 42.087,240.907 42.039,240.524 41.565 C 240.028 40.951,235.798 40.550,236.170 41.152 M159.337 45.917 C 159.109 46.792,156.476 47.104,151.100 46.892 C 150.495 46.868,150.000 47.018,150.000 47.224 C 150.000 47.600,150.391 47.711,151.691 47.708 C 152.071 47.707,152.293 47.849,152.184 48.025 C 152.076 48.201,152.170 48.458,152.393 48.596 C 152.617 48.734,152.800 48.657,152.800 48.424 C 152.800 48.163,154.151 47.971,156.300 47.924 L 159.800 47.849 156.200 47.600 L 152.600 47.351 155.886 47.276 C 159.068 47.202,160.838 46.305,159.817 45.283 C 159.680 45.147,159.464 45.432,159.337 45.917 M148.964 47.142 C 149.081 47.330,148.705 47.394,148.130 47.285 C 147.184 47.104,147.104 47.184,147.285 48.130 C 147.394 48.705,147.330 49.081,147.142 48.964 C 146.954 48.848,146.800 48.913,146.800 49.109 C 146.800 49.305,147.248 49.704,147.795 49.997 C 148.563 50.408,148.689 50.652,148.346 51.065 C 148.074 51.392,148.057 51.600,148.302 51.600 C 148.522 51.600,148.926 51.330,149.200 51.000 C 149.591 50.529,149.592 50.400,149.206 50.400 C 148.936 50.400,148.810 50.152,148.926 49.849 C 149.042 49.546,148.972 49.096,148.769 48.849 C 148.518 48.543,148.543 48.518,148.849 48.769 C 149.096 48.972,149.546 49.042,149.849 48.926 C 150.152 48.810,150.400 48.936,150.400 49.206 C 150.400 49.592,150.529 49.591,151.000 49.200 C 151.330 48.926,151.600 48.522,151.600 48.302 C 151.600 48.057,151.392 48.074,151.065 48.346 C 150.652 48.689,150.408 48.563,149.997 47.795 C 149.704 47.248,149.305 46.800,149.109 46.800 C 148.913 46.800,148.848 46.954,148.964 47.142 M244.200 47.200 L 247.800 47.449 244.057 47.524 C 240.827 47.590,240.348 47.687,240.557 48.233 C 240.691 48.581,240.800 48.941,240.800 49.033 C 240.800 49.125,242.150 49.200,243.800 49.200 C 247.813 49.200,247.724 48.424,243.700 48.321 L 240.600 48.241 243.554 48.102 C 246.070 47.983,246.634 48.081,247.355 48.758 C 248.196 49.547,248.209 49.548,249.201 48.771 C 249.996 48.149,250.036 48.046,249.400 48.266 C 248.960 48.417,248.448 48.735,248.262 48.971 C 248.063 49.224,248.025 49.091,248.169 48.649 C 248.645 47.189,247.731 46.795,244.051 46.876 L 240.600 46.951 244.200 47.200 M248.400 47.252 C 248.400 47.443,248.580 47.623,248.800 47.650 C 249.020 47.678,249.380 47.745,249.600 47.800 C 249.820 47.855,250.096 47.923,250.214 47.950 C 250.332 47.977,250.235 48.360,250.000 48.800 C 249.765 49.240,249.736 49.600,249.937 49.600 C 250.521 49.600,251.222 48.560,250.897 48.176 C 250.733 47.984,250.904 48.059,251.276 48.342 C 251.648 48.626,251.848 49.130,251.721 49.463 C 251.555 49.894,251.406 49.933,251.200 49.600 C 250.995 49.269,250.842 49.314,250.673 49.754 C 250.542 50.095,250.596 50.474,250.793 50.596 C 250.990 50.717,251.081 51.182,250.995 51.628 C 250.906 52.087,251.091 52.537,251.419 52.663 C 251.739 52.785,252.000 53.041,252.000 53.230 C 252.000 53.420,251.700 53.460,251.334 53.319 C 250.851 53.134,250.758 53.209,250.996 53.594 C 251.212 53.943,251.169 54.028,250.870 53.843 C 250.621 53.689,250.064 53.752,249.633 53.983 C 249.139 54.247,248.761 54.260,248.611 54.019 C 248.282 53.485,247.200 53.964,247.200 54.643 C 247.200 55.116,240.074 55.200,199.976 55.200 C 174.003 55.200,152.835 55.065,152.935 54.900 C 153.035 54.735,152.686 54.277,152.159 53.881 C 151.631 53.486,151.200 53.354,151.200 53.589 C 151.200 53.854,150.786 53.911,150.107 53.741 C 149.506 53.590,148.786 53.467,148.507 53.467 C 148.228 53.467,148.000 53.317,148.000 53.133 C 148.000 52.950,148.191 52.800,148.424 52.800 C 148.657 52.800,148.734 52.617,148.596 52.393 C 148.458 52.170,148.201 52.076,148.025 52.184 C 147.849 52.293,147.707 52.071,147.708 51.691 C 147.711 50.374,147.598 50.000,147.194 50.000 C 146.971 50.000,146.875 50.495,146.981 51.100 C 147.299 52.913,146.761 53.297,143.845 53.338 C 142.390 53.359,141.200 53.499,141.200 53.650 C 141.200 53.801,140.795 53.847,140.300 53.751 L 139.400 53.577 140.300 53.976 C 141.526 54.519,141.438 54.947,140.166 54.627 C 139.540 54.470,139.227 54.520,139.372 54.755 C 139.504 54.968,139.254 55.256,138.816 55.395 C 138.379 55.534,137.699 56.056,137.306 56.556 C 136.913 57.055,136.324 57.375,135.996 57.267 C 135.497 57.102,135.485 57.173,135.921 57.701 C 136.365 58.239,136.306 58.376,135.521 58.626 C 134.741 58.874,134.705 58.955,135.285 59.159 C 135.662 59.292,134.492 59.443,132.685 59.496 C 128.825 59.608,128.244 60.094,128.144 63.299 C 128.065 65.807,128.578 65.608,122.066 65.658 C 115.453 65.710,115.457 65.708,115.715 69.189 C 115.937 72.189,116.394 71.974,109.675 72.024 C 103.206 72.071,103.257 72.045,103.257 75.345 C 103.257 78.250,103.864 77.958,97.682 78.024 C 94.776 78.054,92.303 78.234,92.186 78.422 C 92.070 78.611,91.710 78.664,91.387 78.540 C 90.903 78.354,90.800 78.846,90.800 81.357 L 90.800 84.400 88.500 84.447 C 87.235 84.473,86.052 84.469,85.870 84.437 C 85.689 84.406,85.625 84.520,85.728 84.690 C 85.985 85.113,84.954 86.021,84.609 85.676 C 84.458 85.524,84.370 85.580,84.414 85.800 C 84.458 86.020,84.473 87.235,84.447 88.500 L 84.400 90.800 79.000 90.800 C 76.030 90.800,73.600 90.961,73.600 91.157 C 73.600 91.354,73.310 91.626,72.955 91.762 C 72.487 91.941,72.377 91.838,72.551 91.384 C 72.689 91.024,72.623 90.862,72.395 91.003 C 72.178 91.137,72.000 92.497,72.000 94.024 L 72.000 96.800 68.100 96.862 C 65.955 96.896,63.300 96.892,62.200 96.855 C 60.748 96.805,60.365 96.896,60.800 97.187 C 61.315 97.531,61.300 97.589,60.700 97.594 C 60.315 97.597,59.990 97.645,59.977 97.700 C 59.964 97.755,59.860 98.880,59.746 100.200 C 59.478 103.311,59.752 103.164,54.122 103.226 C 50.339 103.267,49.207 103.405,49.039 103.843 C 48.920 104.154,48.682 104.384,48.511 104.356 C 47.768 104.234,46.643 104.480,47.100 104.665 C 47.375 104.776,47.600 105.042,47.600 105.257 C 47.600 105.472,47.420 105.536,47.200 105.400 C 46.980 105.264,46.800 105.433,46.800 105.776 C 46.800 106.119,47.025 106.403,47.300 106.406 C 47.697 106.411,47.696 106.478,47.296 106.732 C 46.793 107.051,46.863 129.396,47.368 129.901 C 47.481 130.014,47.706 129.318,47.867 128.353 L 48.160 126.600 48.480 128.100 C 48.656 128.925,48.959 130.275,49.154 131.100 L 49.508 132.600 49.554 131.039 L 49.600 129.478 50.347 130.339 C 51.253 131.383,51.598 131.427,51.606 130.500 C 51.611 129.902,51.669 129.887,52.000 130.400 C 52.345 130.933,52.393 130.933,52.434 130.400 C 52.459 130.070,52.624 130.250,52.800 130.800 C 53.007 131.447,53.134 131.556,53.160 131.111 C 53.205 130.337,78.629 129.798,79.100 130.562 C 79.226 130.766,79.079 130.784,78.762 130.603 C 78.344 130.365,78.311 130.404,78.635 130.756 C 78.960 131.110,79.364 131.118,80.235 130.790 C 81.173 130.435,81.302 130.448,80.900 130.855 C 79.900 131.865,80.641 132.240,82.000 131.412 C 82.532 131.088,82.533 131.129,82.003 131.781 C 81.449 132.463,81.477 132.497,82.403 132.261 C 82.951 132.122,83.175 132.111,82.900 132.237 C 82.625 132.363,82.400 132.612,82.400 132.791 C 82.400 133.332,83.556 133.595,83.849 133.121 C 84.027 132.833,83.939 132.790,83.600 133.000 C 83.240 133.222,83.173 133.168,83.383 132.827 C 83.597 132.482,83.818 132.458,84.108 132.748 C 84.399 133.039,84.354 133.385,83.963 133.883 C 83.462 134.521,83.470 134.545,84.037 134.103 C 84.387 133.830,84.821 133.740,85.001 133.903 C 85.181 134.067,85.196 133.930,85.034 133.600 C 84.873 133.270,85.024 133.349,85.370 133.776 C 85.727 134.216,86.000 134.336,86.000 134.053 C 86.000 133.776,86.207 133.680,86.463 133.839 C 86.774 134.031,86.859 133.868,86.722 133.343 C 86.495 132.478,87.767 132.099,88.254 132.887 C 88.409 133.139,88.340 133.210,88.089 133.055 C 87.851 132.908,87.532 132.987,87.380 133.232 C 87.207 133.513,87.381 133.621,87.853 133.524 C 88.297 133.433,88.552 133.093,88.482 132.685 C 88.379 132.085,88.792 131.824,89.663 131.940 C 89.808 131.960,89.842 131.441,89.739 130.788 C 89.591 129.846,89.702 129.594,90.276 129.572 C 90.923 129.547,90.915 129.507,90.200 129.200 C 89.516 128.906,89.501 128.852,90.100 128.828 C 90.485 128.813,90.800 128.525,90.800 128.190 C 90.800 127.681,91.479 127.584,94.900 127.608 C 97.155 127.623,99.270 127.556,99.600 127.459 C 101.498 126.900,102.005 126.671,102.050 126.353 C 102.124 125.834,102.288 125.214,102.383 125.100 C 102.428 125.045,102.547 124.460,102.645 123.800 C 102.961 121.688,103.016 121.648,105.376 121.814 C 106.599 121.900,107.600 121.831,107.600 121.661 C 107.600 121.490,107.967 120.957,108.416 120.475 C 108.864 119.994,109.022 119.600,108.767 119.600 C 108.428 119.600,108.421 119.457,108.738 119.075 C 108.978 118.786,109.095 118.111,108.999 117.575 C 108.681 115.799,109.064 115.679,115.602 115.512 L 121.800 115.354 121.800 112.410 C 121.800 110.791,121.980 109.414,122.200 109.349 C 122.420 109.284,125.201 109.177,128.381 109.112 L 134.161 108.993 134.257 106.253 C 134.376 102.881,133.582 103.276,140.535 103.127 L 146.458 103.000 146.634 100.028 C 146.849 96.408,145.975 96.866,152.871 96.763 L 158.725 96.676 158.962 95.488 C 159.093 94.835,159.200 93.513,159.200 92.550 L 159.200 90.800 163.600 90.733 C 166.020 90.697,168.315 90.652,168.700 90.633 C 170.141 90.565,171.792 88.424,171.909 86.472 C 172.043 84.238,171.691 84.483,175.005 84.322 L 177.800 84.186 177.935 81.193 C 178.009 79.547,178.105 78.164,178.148 78.120 C 178.191 78.076,180.740 78.013,183.813 77.980 C 187.337 77.943,189.613 77.751,189.977 77.460 C 190.435 77.094,190.484 77.115,190.215 77.562 C 189.985 77.943,190.025 78.032,190.337 77.839 C 190.590 77.682,190.773 77.069,190.742 76.477 C 190.712 75.885,190.712 74.635,190.744 73.700 L 190.800 72.000 197.000 72.000 L 203.200 72.000 203.245 73.300 C 203.270 74.015,203.285 75.172,203.279 75.870 C 203.262 77.610,203.714 77.748,210.200 77.991 L 215.800 78.200 215.661 80.948 C 215.564 82.870,215.654 83.614,215.961 83.424 C 216.203 83.275,216.400 83.399,216.400 83.701 C 216.400 84.134,217.594 84.271,222.098 84.356 C 225.232 84.415,227.832 84.499,227.875 84.542 C 227.919 84.585,227.989 85.516,228.032 86.610 C 228.075 87.705,228.374 89.027,228.697 89.549 C 229.096 90.197,229.123 90.400,228.780 90.187 C 228.453 89.986,228.377 90.038,228.562 90.338 C 228.757 90.654,230.738 90.800,234.824 90.800 L 240.800 90.800 240.859 92.500 C 240.891 93.435,240.934 94.679,240.955 95.264 C 240.976 95.849,241.117 96.251,241.269 96.157 C 241.421 96.064,241.658 96.170,241.796 96.393 C 241.947 96.637,244.278 96.800,247.624 96.800 L 253.200 96.800 253.200 98.554 C 253.200 99.519,253.461 100.811,253.780 101.426 C 254.098 102.040,254.288 102.657,254.201 102.798 C 254.115 102.938,255.143 103.079,256.487 103.111 C 259.508 103.184,259.553 103.230,259.689 106.417 C 259.787 108.706,259.895 109.017,260.600 109.031 C 261.040 109.039,263.785 109.081,266.700 109.123 L 272.000 109.200 272.000 111.120 C 272.000 112.176,272.216 113.256,272.480 113.520 C 272.853 113.893,272.853 114.000,272.480 114.000 C 271.867 114.000,271.854 115.062,272.462 115.438 C 272.738 115.609,272.815 115.549,272.655 115.288 C 272.381 114.846,273.597 114.865,274.800 115.322 C 275.130 115.447,275.940 115.542,276.600 115.532 C 277.260 115.522,279.344 115.533,281.231 115.557 L 284.661 115.600 284.485 116.804 C 284.388 117.466,284.518 118.260,284.773 118.568 C 285.092 118.952,285.106 119.211,284.819 119.388 C 284.589 119.531,284.400 120.007,284.400 120.447 C 284.400 120.887,284.580 121.136,284.800 121.000 C 285.020 120.864,285.200 121.033,285.200 121.376 C 285.200 121.719,285.515 121.997,285.900 121.994 C 286.498 121.989,286.513 121.931,286.000 121.600 C 285.487 121.269,285.502 121.211,286.100 121.206 C 286.485 121.203,286.800 121.355,286.800 121.544 C 286.800 121.732,287.565 121.883,288.500 121.877 C 295.689 121.837,297.103 121.985,297.316 122.800 C 297.431 123.240,297.362 123.600,297.163 123.600 C 296.963 123.600,296.800 123.791,296.800 124.024 C 296.800 124.257,296.943 124.359,297.117 124.251 C 297.291 124.144,297.457 124.628,297.484 125.328 C 297.531 126.515,297.512 126.533,297.207 125.600 L 296.880 124.600 296.840 125.675 C 296.805 126.605,296.975 126.766,298.100 126.875 C 298.815 126.944,299.370 127.180,299.333 127.400 C 299.291 127.653,300.909 127.756,303.727 127.680 C 309.115 127.536,309.998 127.708,310.006 128.908 C 310.017 130.537,310.657 131.018,311.120 129.745 C 311.373 129.050,311.549 128.875,311.568 129.300 C 311.599 129.971,312.018 130.170,313.100 130.030 C 313.375 129.994,313.600 130.277,313.600 130.659 C 313.600 131.282,313.664 131.274,314.225 130.576 C 314.569 130.149,314.929 129.980,315.025 130.200 C 315.139 130.462,320.823 130.531,331.500 130.400 C 340.465 130.290,347.913 130.354,348.050 130.543 C 348.188 130.731,348.454 130.641,348.642 130.343 C 348.888 129.951,349.051 130.133,349.230 131.000 L 349.476 132.200 349.913 131.200 C 350.297 130.320,350.357 130.296,350.411 131.000 C 350.450 131.517,350.612 131.315,350.867 130.426 C 351.167 129.381,351.348 129.189,351.625 129.626 C 351.914 130.084,351.995 130.038,352.022 129.400 L 352.056 128.600 352.375 129.400 C 352.754 130.354,353.336 114.643,353.115 109.394 C 353.032 107.411,352.809 105.538,352.620 105.232 C 352.386 104.854,352.424 104.768,352.738 104.962 C 353.015 105.133,353.200 104.987,353.200 104.600 C 353.200 104.244,353.012 104.069,352.782 104.211 C 352.553 104.353,351.959 104.203,351.464 103.879 C 350.813 103.452,349.241 103.271,345.798 103.227 C 340.172 103.155,340.826 103.539,340.755 100.265 C 340.723 98.790,340.542 97.488,340.353 97.371 C 340.164 97.254,340.103 97.483,340.217 97.879 C 340.361 98.378,340.288 98.343,339.979 97.763 C 339.563 96.981,339.170 96.922,333.892 96.855 C 327.261 96.771,328.070 97.170,327.896 93.896 C 327.819 92.425,327.601 91.082,327.413 90.911 C 327.225 90.740,327.194 90.814,327.345 91.076 C 327.519 91.380,327.336 91.530,326.836 91.493 C 326.407 91.460,326.144 91.291,326.251 91.117 C 326.359 90.943,325.447 90.800,324.224 90.800 C 322.715 90.800,321.998 90.639,321.994 90.300 C 321.990 89.967,321.858 90.000,321.600 90.400 C 321.174 91.060,321.026 90.604,321.179 89.100 C 321.218 88.715,321.037 88.400,320.776 88.400 C 320.440 88.400,320.462 88.203,320.851 87.723 C 321.320 87.146,321.317 87.097,320.832 87.389 C 320.407 87.645,320.328 87.565,320.518 87.070 C 320.657 86.707,320.643 86.429,320.486 86.452 C 319.696 86.570,319.179 86.357,319.397 86.005 C 319.537 85.778,319.377 85.711,319.021 85.847 C 318.667 85.983,318.400 85.874,318.400 85.594 C 318.400 85.216,318.269 85.210,317.836 85.570 C 317.423 85.913,317.197 85.918,316.995 85.592 C 316.843 85.346,316.473 85.240,316.172 85.355 C 315.872 85.471,315.528 85.407,315.408 85.213 C 315.288 85.019,315.507 84.778,315.895 84.677 C 316.283 84.576,314.935 84.472,312.900 84.446 L 309.200 84.400 309.137 81.900 C 309.102 80.525,309.077 79.205,309.081 78.967 C 309.086 78.728,308.889 78.505,308.644 78.470 C 308.400 78.436,307.750 78.331,307.200 78.237 C 306.650 78.143,304.085 78.052,301.500 78.033 L 296.800 78.000 296.800 76.019 C 296.800 72.112,296.733 72.071,290.275 72.023 C 283.655 71.975,284.487 72.385,284.339 69.097 C 284.253 67.178,284.065 66.400,283.686 66.400 C 283.393 66.400,283.250 66.243,283.368 66.051 C 283.487 65.859,281.041 65.683,277.933 65.658 C 271.294 65.607,272.037 65.986,271.906 62.586 L 271.799 59.826 270.000 59.706 C 265.647 59.418,264.580 58.585,265.369 56.097 C 265.517 55.632,265.297 55.166,264.750 54.788 C 264.284 54.464,263.691 53.999,263.432 53.753 C 262.812 53.162,255.193 53.166,254.423 53.757 C 253.984 54.094,253.918 54.080,254.147 53.700 C 254.336 53.385,254.216 53.200,253.824 53.200 C 253.126 53.200,253.107 53.110,253.155 49.925 C 253.186 47.910,253.088 47.617,252.295 47.354 C 250.978 46.917,248.400 46.849,248.400 47.252 M153.200 48.800 C 153.200 49.034,154.541 49.200,156.424 49.200 C 158.471 49.200,159.557 49.054,159.400 48.800 C 159.264 48.580,157.813 48.400,156.176 48.400 C 154.459 48.400,153.200 48.569,153.200 48.800 M151.541 50.668 C 151.179 50.764,150.783 51.238,150.661 51.721 C 150.473 52.466,150.516 52.509,150.938 52.000 C 151.212 51.670,151.689 51.175,151.998 50.900 C 152.307 50.625,152.479 50.421,152.380 50.446 C 152.281 50.472,151.903 50.572,151.541 50.668 M251.863 50.980 C 251.715 51.367,251.833 51.485,252.220 51.337 C 252.539 51.214,252.800 51.314,252.800 51.557 C 252.800 51.801,252.725 52.000,252.633 52.000 C 252.541 52.000,252.217 52.095,251.913 52.212 C 251.532 52.358,251.360 52.109,251.360 51.412 C 251.360 50.855,251.523 50.400,251.723 50.400 C 251.922 50.400,251.986 50.661,251.863 50.980 M136.769 55.367 C 136.177 56.012,136.597 56.746,137.230 56.173 C 137.654 55.789,138.000 55.444,138.000 55.405 C 138.000 55.336,136.831 55.299,136.769 55.367 " stroke="none" fill="#047199" fill-rule="evenodd"></path><path id="path3" d="M195.900 22.265 C 196.175 22.376,196.400 22.638,196.400 22.847 C 196.400 23.064,196.028 23.029,195.539 22.768 C 194.790 22.366,194.713 22.398,194.949 23.010 C 195.167 23.580,195.111 23.624,194.656 23.246 C 194.215 22.881,194.039 22.922,193.842 23.435 C 193.636 23.971,193.480 23.999,192.986 23.588 C 192.477 23.166,192.426 23.201,192.660 23.813 C 192.883 24.392,192.795 24.484,192.225 24.265 C 191.693 24.061,191.570 24.145,191.743 24.595 C 191.871 24.928,191.841 25.200,191.677 25.200 C 191.513 25.200,191.443 25.875,191.522 26.700 C 191.649 28.036,191.563 28.205,190.732 28.243 C 186.286 28.450,185.253 28.563,185.417 28.827 C 185.520 28.995,185.389 29.204,185.125 29.292 C 184.838 29.387,184.614 30.377,184.568 31.746 C 184.473 34.641,184.968 34.398,179.088 34.428 C 174.861 34.449,174.081 34.546,174.267 35.031 C 174.429 35.452,174.296 35.535,173.779 35.337 C 173.347 35.171,173.166 35.221,173.317 35.465 C 173.453 35.686,173.320 35.867,173.021 35.867 C 172.710 35.867,172.559 35.595,172.668 35.233 C 172.806 34.781,172.729 34.806,172.399 35.321 C 172.047 35.869,172.052 36.181,172.417 36.621 C 172.734 37.003,172.751 37.200,172.468 37.200 C 172.231 37.200,172.055 37.605,172.075 38.100 C 172.191 40.866,172.400 40.731,167.700 40.937 C 162.759 41.154,162.400 41.205,162.400 41.690 C 162.400 41.887,162.217 41.934,161.993 41.796 C 161.770 41.658,161.672 41.407,161.776 41.239 C 161.880 41.071,161.697 40.933,161.369 40.933 C 160.989 40.933,160.912 41.072,161.157 41.317 C 161.401 41.561,161.203 42.063,160.611 42.702 C 160.022 43.337,159.725 44.087,159.799 44.752 C 160.031 46.833,159.474 47.193,155.886 47.276 L 152.600 47.351 156.200 47.600 L 159.800 47.849 156.300 47.924 C 154.151 47.971,152.800 48.163,152.800 48.424 C 152.800 48.657,152.617 48.734,152.393 48.596 C 152.170 48.458,152.081 48.193,152.195 48.007 C 152.310 47.822,152.088 47.721,151.702 47.783 C 151.316 47.845,150.677 47.729,150.282 47.524 C 149.642 47.193,149.618 47.240,150.065 47.956 C 150.438 48.553,150.699 48.649,151.084 48.331 C 151.409 48.061,151.600 48.050,151.600 48.302 C 151.600 48.522,151.330 48.926,151.000 49.200 C 150.529 49.591,150.400 49.592,150.400 49.206 C 150.400 48.936,150.152 48.810,149.849 48.926 C 149.546 49.042,149.096 48.972,148.849 48.769 C 148.543 48.518,148.518 48.543,148.769 48.849 C 148.972 49.096,149.042 49.546,148.926 49.849 C 148.810 50.152,148.936 50.400,149.206 50.400 C 149.592 50.400,149.591 50.529,149.200 51.000 C 148.926 51.330,148.522 51.600,148.302 51.600 C 148.050 51.600,148.061 51.409,148.331 51.084 C 148.649 50.699,148.553 50.438,147.956 50.065 C 147.240 49.618,147.193 49.642,147.524 50.282 C 147.729 50.677,147.845 51.316,147.783 51.702 C 147.721 52.088,147.822 52.310,148.007 52.195 C 148.193 52.081,148.458 52.170,148.596 52.393 C 148.734 52.617,148.657 52.800,148.424 52.800 C 148.191 52.800,148.000 52.950,148.000 53.133 C 148.000 53.317,148.228 53.467,148.507 53.467 C 148.786 53.467,149.506 53.590,150.107 53.741 C 150.786 53.911,151.200 53.854,151.200 53.589 C 151.200 53.354,151.631 53.486,152.159 53.881 C 152.686 54.277,153.035 54.735,152.935 54.900 C 152.835 55.065,174.003 55.200,199.976 55.200 C 240.074 55.200,247.200 55.116,247.200 54.643 C 247.200 53.964,248.282 53.485,248.611 54.019 C 248.761 54.260,249.139 54.247,249.633 53.983 C 250.064 53.752,250.621 53.689,250.870 53.843 C 251.169 54.028,251.212 53.943,250.996 53.594 C 250.758 53.209,250.851 53.134,251.334 53.319 C 251.700 53.460,252.000 53.420,252.000 53.230 C 252.000 53.041,251.739 52.785,251.419 52.663 C 251.091 52.537,250.906 52.087,250.995 51.628 C 251.081 51.182,250.990 50.717,250.793 50.596 C 250.596 50.474,250.542 50.095,250.673 49.754 C 250.842 49.314,250.995 49.269,251.200 49.600 C 251.406 49.933,251.555 49.894,251.721 49.463 C 251.848 49.130,251.648 48.626,251.276 48.342 C 250.904 48.059,250.733 47.984,250.897 48.176 C 251.222 48.560,250.521 49.600,249.937 49.600 C 249.736 49.600,249.765 49.240,250.000 48.800 C 250.235 48.360,250.377 47.986,250.314 47.969 C 250.251 47.953,249.843 47.872,249.407 47.791 C 248.971 47.710,248.566 47.499,248.508 47.322 C 248.449 47.145,246.691 47.062,244.600 47.139 L 240.800 47.277 240.800 45.839 C 240.800 45.047,240.620 44.400,240.400 44.400 C 240.180 44.400,240.000 44.209,240.000 43.976 C 240.000 43.743,240.180 43.664,240.400 43.800 C 240.626 43.940,240.800 43.612,240.800 43.047 C 240.800 42.497,240.592 41.918,240.337 41.761 C 240.017 41.563,239.947 41.753,240.109 42.374 C 240.337 43.245,240.319 43.251,239.558 42.562 C 239.126 42.171,238.856 41.632,238.958 41.365 C 239.068 41.078,238.870 40.932,238.472 41.009 C 238.103 41.080,237.800 41.166,237.800 41.200 C 237.800 41.478,236.352 41.447,236.178 41.164 C 236.054 40.964,234.163 40.800,231.976 40.800 C 228.283 40.800,227.996 40.743,227.950 40.000 C 227.923 39.560,227.878 38.855,227.850 38.433 C 227.822 38.012,227.667 37.533,227.503 37.370 C 227.340 37.207,227.363 36.877,227.554 36.637 C 227.745 36.397,227.756 35.840,227.579 35.400 C 227.289 34.682,227.253 34.675,227.228 35.329 C 227.210 35.806,226.957 36.008,226.500 35.914 C 226.115 35.834,225.823 35.473,225.851 35.111 C 225.896 34.533,225.288 34.449,220.886 34.427 C 215.014 34.398,215.641 34.693,215.525 31.904 C 215.420 29.393,214.956 28.485,213.789 28.500 C 209.823 28.550,209.189 28.249,209.080 26.264 C 209.036 25.459,208.854 24.800,208.676 24.800 C 208.498 24.800,208.451 24.641,208.571 24.447 C 208.969 23.802,207.184 22.000,206.147 22.000 C 205.458 22.000,205.245 22.154,205.453 22.500 C 205.693 22.898,205.628 22.898,205.134 22.499 C 204.358 21.871,198.046 21.913,197.223 22.552 C 196.783 22.894,196.717 22.882,196.947 22.500 C 197.154 22.155,196.961 22.010,196.324 22.032 C 195.816 22.049,195.625 22.154,195.900 22.265 M248.190 48.534 C 248.055 49.015,248.093 49.209,248.274 48.971 C 248.453 48.735,248.960 48.417,249.400 48.266 C 250.036 48.046,249.996 48.149,249.201 48.771 C 248.209 49.548,248.196 49.547,247.355 48.758 C 246.634 48.081,246.070 47.983,243.554 48.102 L 240.600 48.241 243.700 48.321 C 247.724 48.424,247.813 49.200,243.800 49.200 C 242.150 49.200,240.800 49.125,240.800 49.033 C 240.800 48.941,240.693 48.588,240.563 48.248 C 240.362 47.724,240.888 47.614,244.063 47.515 C 248.430 47.381,248.507 47.400,248.190 48.534 M159.400 48.800 C 159.557 49.054,158.471 49.200,156.424 49.200 C 154.541 49.200,153.200 49.034,153.200 48.800 C 153.200 48.569,154.459 48.400,156.176 48.400 C 157.813 48.400,159.264 48.580,159.400 48.800 M151.998 50.900 C 151.689 51.175,151.212 51.670,150.938 52.000 C 150.516 52.509,150.473 52.466,150.661 51.721 C 150.783 51.238,151.179 50.764,151.541 50.668 C 151.903 50.572,152.281 50.472,152.380 50.446 C 152.479 50.421,152.307 50.625,151.998 50.900 M251.360 51.353 C 251.360 52.080,251.565 52.293,252.229 52.253 C 252.768 52.220,253.022 52.001,252.897 51.677 C 252.787 51.389,252.459 51.245,252.169 51.357 C 251.833 51.485,251.722 51.348,251.863 50.980 C 251.986 50.661,251.922 50.400,251.723 50.400 C 251.523 50.400,251.360 50.829,251.360 51.353 " stroke="none" fill="#048cac" fill-rule="evenodd"></path><path id="path4" d="M139.800 53.582 L 141.000 53.905 139.519 53.953 C 137.603 54.014,136.079 54.721,135.771 55.691 C 135.637 56.114,135.437 56.370,135.327 56.260 C 134.905 55.838,135.710 54.332,136.535 53.999 C 137.207 53.728,137.246 53.645,136.709 53.625 C 135.577 53.584,134.816 55.184,135.071 57.069 C 135.235 58.283,135.450 58.679,135.859 58.522 C 136.318 58.346,136.327 58.193,135.910 57.688 C 135.487 57.176,135.502 57.104,135.996 57.267 C 136.324 57.375,136.913 57.055,137.306 56.556 C 137.699 56.056,138.379 55.534,138.816 55.395 C 139.254 55.256,139.504 54.968,139.372 54.755 C 139.228 54.522,139.532 54.468,140.136 54.620 C 140.955 54.825,141.120 54.736,141.034 54.136 C 140.962 53.635,140.557 53.377,139.764 53.329 L 138.600 53.259 139.800 53.582 M263.791 53.604 C 263.034 53.870,263.039 53.894,263.900 54.168 C 264.395 54.325,264.800 54.622,264.800 54.827 C 264.800 55.032,264.980 55.200,265.200 55.200 C 265.759 55.200,265.699 54.442,265.091 53.834 C 264.795 53.538,264.253 53.441,263.791 53.604 M138.000 55.405 C 138.000 55.444,137.654 55.789,137.230 56.173 C 136.597 56.746,136.177 56.012,136.769 55.367 C 136.831 55.299,138.000 55.336,138.000 55.405 M85.541 84.668 C 85.179 84.764,84.783 85.238,84.661 85.721 C 84.473 86.466,84.516 86.509,84.938 86.000 C 85.212 85.670,85.689 85.175,85.998 84.900 C 86.307 84.625,86.479 84.421,86.380 84.446 C 86.281 84.472,85.903 84.572,85.541 84.668 M316.891 84.693 C 315.951 84.778,315.282 85.008,315.404 85.206 C 315.526 85.403,315.872 85.471,316.172 85.355 C 316.473 85.240,316.843 85.346,316.995 85.592 C 317.197 85.918,317.423 85.913,317.836 85.570 C 318.269 85.210,318.400 85.216,318.400 85.594 C 318.400 85.874,318.667 85.983,319.021 85.847 C 319.377 85.711,319.537 85.778,319.397 86.005 C 319.179 86.357,319.696 86.570,320.486 86.452 C 320.643 86.429,320.657 86.707,320.518 87.070 C 320.328 87.565,320.407 87.645,320.832 87.389 C 321.317 87.097,321.320 87.146,320.851 87.723 C 320.462 88.203,320.440 88.400,320.776 88.400 C 321.037 88.400,321.218 88.715,321.179 89.100 C 321.034 90.529,321.180 91.050,321.560 90.452 C 321.992 89.768,322.060 86.800,321.643 86.800 C 321.474 86.800,321.351 86.395,321.368 85.900 C 321.391 85.256,321.201 85.033,320.700 85.118 C 320.315 85.182,320.000 85.047,320.000 84.818 C 320.000 84.588,319.685 84.431,319.300 84.470 C 318.915 84.508,317.831 84.609,316.891 84.693 M170.500 89.456 C 169.370 90.677,169.372 90.689,170.700 90.640 C 171.613 90.607,171.807 90.413,171.840 89.500 C 171.889 88.184,171.684 88.178,170.500 89.456 M72.277 91.457 C 72.381 91.728,72.721 91.852,73.033 91.732 C 73.859 91.415,73.727 90.840,72.844 90.907 C 72.423 90.938,72.172 91.182,72.277 91.457 M184.400 93.790 L 184.400 96.779 178.300 96.890 L 172.200 97.000 172.083 100.100 L 171.966 103.200 166.083 103.247 C 162.847 103.273,160.086 103.280,159.946 103.263 C 159.806 103.245,159.568 104.547,159.417 106.156 L 159.143 109.081 153.284 109.358 C 146.625 109.673,146.815 109.563,146.806 113.082 L 146.800 115.565 143.900 115.682 L 141.000 115.800 140.883 118.900 L 140.766 122.000 134.610 122.000 C 127.635 122.000,128.081 121.759,128.037 125.561 C 128.006 128.246,128.643 127.959,122.583 128.014 C 115.213 128.080,115.600 127.890,115.600 131.433 L 115.600 134.379 109.500 134.490 L 103.400 134.600 103.299 231.300 L 103.198 328.000 106.399 328.000 L 109.600 328.000 109.600 330.324 C 109.600 334.035,109.853 334.200,115.553 334.200 C 122.588 334.200,121.780 338.242,121.910 302.386 L 122.019 272.000 125.010 272.000 L 128.000 272.000 128.047 273.500 C 128.073 274.325,128.060 275.249,128.018 275.554 C 127.689 277.908,127.936 278.000,134.591 278.000 L 140.766 278.000 140.883 281.100 L 141.000 284.200 143.900 284.318 L 146.800 284.435 146.800 287.138 C 146.800 290.829,146.747 290.800,153.446 290.800 L 159.132 290.800 159.413 293.800 L 159.694 296.800 165.830 296.800 L 171.966 296.800 172.083 299.900 L 172.200 303.000 178.300 303.110 L 184.400 303.221 184.400 306.210 L 184.400 309.200 190.600 309.200 L 196.800 309.200 196.843 311.500 C 196.921 315.753,196.624 315.386,200.100 315.517 L 203.200 315.634 203.200 318.574 C 203.200 322.173,202.856 322.000,210.015 322.000 L 215.565 322.000 215.682 324.900 L 215.800 327.800 221.900 327.910 L 228.000 328.021 228.047 329.710 C 228.073 330.640,228.065 331.561,228.028 331.757 C 227.992 331.954,228.075 332.629,228.213 333.257 L 228.464 334.400 234.632 334.400 L 240.800 334.400 240.800 337.392 C 240.800 341.159,239.266 340.848,257.200 340.711 L 271.800 340.600 271.912 334.803 C 272.042 328.002,272.041 328.000,268.141 328.000 L 265.635 328.000 265.518 325.100 L 265.400 322.200 259.300 322.090 L 253.200 321.979 253.194 319.290 C 253.188 316.629,252.868 315.493,252.163 315.626 C 251.964 315.664,249.333 315.673,246.318 315.647 L 240.835 315.600 240.718 312.700 L 240.600 309.800 238.800 309.530 C 237.810 309.381,234.989 309.246,232.530 309.230 L 228.061 309.200 227.930 306.100 C 227.859 304.395,227.852 301.610,227.917 299.910 L 228.033 296.820 234.317 296.710 L 240.600 296.600 240.717 293.717 L 240.834 290.834 243.717 290.717 L 246.600 290.600 246.717 287.510 L 246.833 284.421 252.917 284.310 L 259.000 284.200 259.117 281.110 L 259.233 278.020 265.517 277.910 L 271.800 277.800 271.917 274.910 L 272.035 272.021 278.117 271.910 L 284.200 271.800 284.317 268.710 L 284.433 265.621 290.517 265.510 L 296.600 265.400 296.701 203.100 L 296.803 140.800 293.801 140.800 L 290.800 140.800 290.800 138.233 C 290.800 134.407,290.793 134.400,287.357 134.400 L 284.400 134.400 284.394 131.900 C 284.385 128.080,284.236 128.022,274.300 128.004 L 272.000 128.000 272.000 125.633 C 272.000 121.797,272.371 122.000,265.374 122.000 L 259.234 122.000 259.117 118.900 L 259.000 115.800 252.900 115.690 L 246.800 115.579 246.800 112.647 L 246.800 109.714 244.341 109.457 C 242.989 109.316,240.207 109.200,238.159 109.200 L 234.435 109.200 234.318 106.300 L 234.200 103.400 228.100 103.290 L 222.000 103.179 222.000 100.470 C 222.000 97.072,221.727 96.800,218.320 96.800 L 215.600 96.800 215.600 93.800 L 215.600 90.800 200.000 90.800 L 184.400 90.800 184.400 93.790 M326.144 91.325 C 325.994 91.586,326.014 91.671,326.188 91.514 C 326.363 91.357,326.812 91.392,327.186 91.592 C 327.658 91.845,327.867 91.804,327.867 91.458 C 327.867 90.813,326.498 90.707,326.144 91.325 M59.824 97.483 C 59.690 97.830,59.675 98.209,59.791 98.324 C 59.906 98.439,60.000 98.337,60.000 98.096 C 60.000 97.855,60.315 97.595,60.700 97.518 C 61.340 97.388,61.343 97.354,60.733 97.113 C 60.312 96.948,59.977 97.084,59.824 97.483 M59.358 100.166 C 59.238 100.478,59.205 101.243,59.284 101.866 C 59.402 102.791,59.464 102.687,59.625 101.300 C 59.827 99.551,59.738 99.175,59.358 100.166 M146.446 101.267 C 146.421 101.853,146.175 102.424,145.900 102.535 C 145.508 102.693,145.511 102.744,145.913 102.768 C 146.547 102.808,146.930 101.887,146.680 100.923 C 146.554 100.436,146.478 100.548,146.446 101.267 M253.517 102.017 C 253.612 102.663,253.833 103.103,254.007 102.996 C 254.357 102.780,254.069 101.290,253.624 101.015 C 253.470 100.920,253.422 101.371,253.517 102.017 M47.053 103.481 C 46.914 103.620,46.800 103.889,46.800 104.080 C 46.800 104.609,48.940 104.208,49.047 103.659 C 49.098 103.396,49.049 103.363,48.938 103.587 C 48.806 103.852,48.486 103.860,48.020 103.611 C 47.627 103.400,47.192 103.342,47.053 103.481 M351.457 103.891 C 352.222 104.451,352.942 104.408,352.730 103.816 C 352.659 103.616,352.183 103.434,351.673 103.412 C 350.816 103.374,350.800 103.411,351.457 103.891 M259.301 105.000 C 259.305 105.880,259.387 106.193,259.483 105.695 C 259.579 105.198,259.575 104.478,259.475 104.095 C 259.375 103.713,259.296 104.120,259.301 105.000 M203.283 112.300 L 203.400 115.400 206.240 115.516 L 209.080 115.633 209.440 118.716 L 209.800 121.800 215.900 121.910 L 222.000 122.021 222.000 125.010 L 222.000 128.000 228.183 128.000 L 234.366 128.000 234.483 131.100 L 234.600 134.200 240.700 134.310 L 246.800 134.421 246.800 137.130 C 246.800 140.830,246.746 140.800,253.446 140.800 L 259.132 140.800 259.413 143.800 L 259.694 146.800 262.647 146.800 L 265.600 146.800 265.600 149.757 C 265.600 153.376,265.250 153.200,272.433 153.200 L 278.000 153.200 278.000 199.982 L 278.000 246.765 275.100 246.882 L 272.200 247.000 272.083 250.100 L 271.966 253.200 266.083 253.247 C 262.847 253.273,260.086 253.280,259.946 253.263 C 259.806 253.245,259.567 254.551,259.416 256.165 L 259.141 259.099 253.671 259.297 C 246.573 259.554,246.800 259.437,246.800 262.832 L 246.800 265.579 240.700 265.690 L 234.600 265.800 234.483 268.900 L 234.366 272.000 228.183 272.000 L 222.000 272.000 222.000 275.000 L 222.000 278.000 220.300 278.047 C 219.365 278.073,218.439 278.065,218.243 278.028 C 216.188 277.646,215.600 278.400,215.600 281.421 L 215.600 284.379 209.500 284.490 L 203.400 284.600 203.283 287.700 L 203.166 290.800 200.000 290.800 L 196.834 290.800 196.717 287.700 L 196.600 284.600 190.500 284.490 L 184.400 284.379 184.400 281.421 C 184.400 278.400,183.812 277.646,181.757 278.028 C 181.561 278.065,179.285 278.073,176.700 278.047 L 172.000 278.000 172.000 275.633 C 172.000 272.036,171.966 272.000,168.600 272.000 C 165.351 272.000,165.200 271.874,165.200 269.167 C 165.200 266.868,164.094 265.914,161.581 266.048 C 160.502 266.105,159.494 266.028,159.343 265.876 C 159.191 265.724,157.755 265.600,156.151 265.600 L 153.235 265.600 153.118 262.700 L 153.000 259.800 151.200 259.530 C 150.210 259.381,147.465 259.246,145.100 259.230 L 140.800 259.200 140.794 256.700 C 140.788 254.360,140.450 253.086,139.855 253.166 C 139.715 253.185,136.998 253.200,133.817 253.200 L 128.034 253.200 127.917 250.100 L 127.800 247.000 124.900 246.882 L 122.000 246.765 122.000 200.000 L 122.000 153.235 124.900 153.118 L 127.800 153.000 127.917 149.910 L 128.033 146.820 134.317 146.710 L 140.600 146.600 140.717 143.710 L 140.835 140.821 146.917 140.710 L 153.000 140.600 153.117 137.510 L 153.233 134.421 159.317 134.310 L 165.400 134.200 165.517 131.100 L 165.634 128.000 171.017 128.000 C 177.540 128.000,178.000 127.751,178.000 124.217 L 178.000 122.034 181.100 121.917 L 184.200 121.800 184.317 118.710 L 184.433 115.621 190.517 115.510 L 196.600 115.400 196.717 112.300 L 196.834 109.200 200.000 109.200 L 203.166 109.200 203.283 112.300 M272.616 115.227 C 272.743 115.432,273.317 115.600,273.890 115.600 C 275.168 115.600,274.786 115.109,273.393 114.960 C 272.839 114.901,272.489 115.021,272.616 115.227 M284.406 118.833 C 284.409 119.145,284.590 119.670,284.807 120.000 C 285.121 120.476,285.177 120.416,285.078 119.710 C 284.935 118.687,284.397 117.984,284.406 118.833 M108.096 120.795 C 107.424 121.871,107.472 122.111,108.270 121.665 C 108.928 121.297,109.388 120.000,108.861 120.000 C 108.713 120.000,108.369 120.358,108.096 120.795 M46.978 209.000 L 47.000 296.600 53.039 296.710 L 59.079 296.820 59.439 299.910 L 59.800 303.000 62.683 303.117 L 65.566 303.234 65.683 306.117 L 65.800 309.000 75.000 309.000 L 84.200 309.000 84.301 221.700 C 84.390 144.470,84.471 134.400,85.001 134.400 C 85.710 134.400,85.794 133.767,85.138 133.362 C 84.828 133.170,84.783 133.260,85.002 133.638 C 85.182 133.947,85.181 134.067,85.001 133.903 C 84.821 133.740,84.387 133.830,84.037 134.103 C 83.470 134.545,83.462 134.521,83.963 133.883 C 84.354 133.385,84.399 133.039,84.108 132.748 C 83.818 132.458,83.597 132.482,83.383 132.827 C 83.173 133.168,83.240 133.222,83.600 133.000 C 83.939 132.790,84.027 132.833,83.849 133.121 C 83.556 133.595,82.400 133.332,82.400 132.791 C 82.400 132.612,82.625 132.363,82.900 132.237 C 83.175 132.111,82.951 132.122,82.403 132.261 C 81.477 132.497,81.449 132.463,82.003 131.781 C 82.533 131.129,82.532 131.088,82.000 131.412 C 81.221 131.887,80.400 132.006,80.400 131.645 C 80.400 131.488,80.625 131.133,80.900 130.855 C 81.302 130.448,81.173 130.435,80.235 130.790 C 79.364 131.118,78.960 131.110,78.635 130.756 C 78.311 130.404,78.344 130.365,78.762 130.603 C 79.079 130.784,79.226 130.766,79.100 130.562 C 78.629 129.798,53.205 130.337,53.160 131.111 C 53.134 131.556,53.007 131.447,52.800 130.800 C 52.624 130.250,52.459 130.070,52.434 130.400 C 52.393 130.933,52.345 130.933,52.000 130.400 C 51.669 129.887,51.611 129.902,51.606 130.500 C 51.598 131.427,51.253 131.383,50.347 130.339 L 49.600 129.478 49.554 131.039 L 49.508 132.600 49.154 131.100 C 48.959 130.275,48.656 128.925,48.480 128.100 L 48.160 126.600 47.790 128.400 C 47.450 130.049,47.400 129.832,47.187 125.800 C 47.060 123.380,46.966 160.820,46.978 209.000 M103.000 122.100 C 102.903 122.375,102.744 123.140,102.645 123.800 C 102.547 124.460,102.428 125.045,102.383 125.100 C 102.288 125.214,102.124 125.834,102.050 126.353 C 101.994 126.751,100.788 127.195,99.000 127.478 C 96.799 127.825,97.394 128.042,100.213 127.920 L 103.000 127.800 103.120 125.011 C 103.190 123.404,103.444 122.093,103.720 121.917 C 104.084 121.686,104.076 121.611,103.687 121.606 C 103.406 121.603,103.096 121.825,103.000 122.100 M352.871 125.800 C 352.787 128.708,352.627 129.929,352.400 129.400 L 352.056 128.600 352.022 129.400 C 351.995 130.038,351.914 130.084,351.625 129.626 C 351.348 129.189,351.167 129.381,350.867 130.426 C 350.612 131.315,350.450 131.517,350.411 131.000 C 350.357 130.296,350.297 130.320,349.913 131.200 L 349.476 132.200 349.230 131.000 C 349.051 130.133,348.888 129.951,348.642 130.343 C 348.454 130.641,348.188 130.731,348.050 130.543 C 347.913 130.354,340.465 130.290,331.500 130.400 C 320.823 130.531,315.139 130.462,315.025 130.200 C 314.929 129.980,314.569 130.149,314.225 130.576 C 313.664 131.274,313.600 131.282,313.600 130.659 C 313.600 130.277,313.375 129.994,313.100 130.030 C 312.018 130.170,311.599 129.971,311.568 129.300 C 311.549 128.875,311.373 129.050,311.120 129.745 C 310.657 131.018,310.017 130.537,310.006 128.908 C 309.998 127.772,309.021 127.517,305.392 127.701 L 302.600 127.843 305.900 127.922 L 309.200 128.000 309.200 199.990 L 309.200 271.979 303.100 272.090 L 297.000 272.200 296.882 275.100 L 296.765 278.000 292.082 278.047 C 289.507 278.073,287.239 278.065,287.043 278.028 C 284.988 277.646,284.400 278.400,284.400 281.421 L 284.400 284.379 278.300 284.490 L 272.200 284.600 272.083 287.690 L 271.967 290.779 265.883 290.890 L 259.800 291.000 259.465 297.200 C 259.281 300.610,259.251 304.705,259.399 306.300 L 259.668 309.200 265.817 309.200 L 271.966 309.200 272.083 312.300 L 272.200 315.400 275.200 315.600 L 278.200 315.800 278.235 318.243 C 278.296 322.396,276.703 322.024,293.889 321.905 L 309.000 321.800 309.117 318.710 L 309.233 315.620 315.517 315.510 L 321.800 315.400 321.916 312.340 L 322.032 309.280 327.202 309.140 C 333.270 308.976,333.661 308.766,333.989 305.496 L 334.200 303.400 337.400 303.200 L 340.600 303.000 340.717 299.900 L 340.834 296.800 346.829 296.800 C 351.258 296.800,352.875 296.669,353.015 296.300 C 353.120 296.025,353.159 256.560,353.102 208.600 C 353.045 160.640,352.941 123.380,352.871 125.800 M297.087 124.300 C 296.998 124.465,297.063 125.050,297.230 125.600 C 297.505 126.504,297.529 126.476,297.482 125.300 C 297.428 123.957,297.361 123.787,297.087 124.300 M296.800 127.173 C 296.800 127.696,297.870 127.927,300.200 127.905 C 301.438 127.894,301.743 127.821,301.000 127.713 C 300.340 127.617,299.629 127.372,299.420 127.169 C 298.924 126.687,296.800 126.690,296.800 127.173 M92.311 127.893 C 93.251 127.978,94.691 127.977,95.511 127.891 C 96.330 127.805,95.560 127.736,93.800 127.737 C 92.040 127.739,91.370 127.809,92.311 127.893 M89.739 130.788 C 89.842 131.441,89.808 131.960,89.663 131.940 C 88.792 131.824,88.379 132.085,88.482 132.685 C 88.552 133.093,88.297 133.433,87.853 133.524 C 87.381 133.621,87.207 133.513,87.380 133.232 C 87.532 132.987,87.851 132.908,88.089 133.055 C 88.340 133.210,88.409 133.139,88.254 132.887 C 87.767 132.099,86.495 132.478,86.722 133.343 C 86.859 133.868,86.774 134.031,86.463 133.839 C 86.208 133.682,86.000 133.752,86.000 133.996 C 86.000 134.284,86.811 134.398,88.300 134.320 L 90.600 134.200 90.632 131.900 C 90.656 130.188,90.522 129.600,90.108 129.600 C 89.716 129.600,89.607 129.951,89.739 130.788 M140.800 325.000 L 140.800 346.800 143.800 346.800 L 146.800 346.800 146.800 349.520 C 146.800 353.231,146.745 353.200,153.433 353.200 L 159.106 353.200 159.387 356.200 L 159.668 359.200 165.817 359.200 L 171.966 359.200 172.083 362.300 L 172.200 365.400 178.300 365.510 L 184.400 365.621 184.400 368.568 C 184.400 371.992,184.409 372.000,188.233 372.000 L 190.800 372.000 190.800 375.000 L 190.800 378.000 200.000 378.000 L 209.200 378.000 209.200 375.017 L 209.200 372.034 212.300 371.917 L 215.400 371.800 215.517 368.710 L 215.633 365.621 221.717 365.510 L 227.800 365.400 227.917 362.317 L 228.033 359.233 231.117 359.117 L 234.200 359.000 234.311 353.100 C 234.396 348.547,234.305 347.186,233.911 347.139 C 233.630 347.106,233.220 347.036,233.000 346.985 C 232.780 346.934,231.573 346.872,230.318 346.846 L 228.035 346.800 227.918 343.900 C 227.813 341.329,227.709 340.993,227.000 340.943 C 226.560 340.911,223.823 340.866,220.917 340.843 L 215.634 340.800 215.517 337.700 C 215.437 335.583,215.241 334.584,214.900 334.550 C 214.625 334.523,211.880 334.478,208.800 334.450 L 203.200 334.400 203.200 331.614 C 203.200 328.039,203.124 328.000,196.226 328.000 L 190.800 328.000 190.800 325.633 C 190.800 321.797,191.171 322.000,184.174 322.000 L 178.034 322.000 177.917 318.900 L 177.800 315.800 174.917 315.683 L 172.034 315.566 171.917 312.683 L 171.800 309.800 170.000 309.530 C 169.010 309.381,166.175 309.246,163.700 309.230 L 159.200 309.200 159.200 306.200 L 159.200 303.200 150.000 303.200 L 140.800 303.200 140.800 325.000 " stroke="none" fill="#0c2d5d" fill-rule="evenodd"></path></g></svg>