<svg id="svg" version="1.1" xmlns="http://www.w3.org/2000/svg" xmlns:xlink="http://www.w3.org/1999/xlink" width="400" height="400" viewBox="0, 0, 400,400"><g id="svgg"><path id="path0" d="M271.481 225.129 C 270.920 225.470,270.228 226.210,269.943 226.774 C 269.659 227.338,269.368 227.910,269.298 228.044 C 269.228 228.178,269.987 228.493,270.985 228.744 C 271.983 228.995,273.628 229.408,274.640 229.663 C 276.886 230.229,280.578 232.594,281.140 233.828 C 281.674 235.000,284.779 235.709,288.600 235.531 L 291.400 235.400 291.385 233.344 C 291.371 231.383,291.261 231.175,288.985 228.822 C 285.702 225.426,285.034 225.137,280.030 224.942 C 277.703 224.852,275.058 224.717,274.151 224.644 C 273.151 224.562,272.101 224.753,271.481 225.129 M231.200 233.538 C 229.550 234.139,227.244 235.308,226.074 236.136 C 224.905 236.964,221.929 238.667,219.460 239.921 C 213.438 242.978,210.235 245.030,208.034 247.243 C 207.025 248.257,205.339 249.664,204.287 250.371 C 203.235 251.078,201.653 252.569,200.771 253.684 C 199.889 254.800,198.362 256.328,197.377 257.080 C 196.187 257.989,195.119 259.344,194.190 261.124 C 192.827 263.738,190.163 267.389,187.275 270.600 C 186.484 271.480,184.823 273.550,183.585 275.200 C 178.240 282.320,172.612 285.108,167.098 283.366 C 164.541 282.559,160.023 285.623,157.611 289.802 C 157.055 290.765,155.527 293.408,154.215 295.676 C 148.544 305.485,146.779 317.859,149.900 325.924 C 151.891 331.069,157.312 336.833,162.600 339.429 C 164.360 340.293,165.860 341.135,165.933 341.300 C 166.007 341.465,166.249 341.600,166.472 341.600 C 166.694 341.600,167.362 341.946,167.956 342.369 C 168.550 342.792,170.288 343.634,171.818 344.240 C 173.348 344.846,174.960 345.561,175.400 345.829 C 175.840 346.097,176.611 346.439,177.113 346.589 C 177.615 346.739,178.463 347.268,178.998 347.763 C 180.494 349.150,184.059 349.936,190.200 350.235 C 203.560 350.884,212.918 349.882,215.249 347.551 C 215.874 346.926,216.612 346.800,219.638 346.800 C 221.640 346.800,224.205 346.536,225.338 346.214 C 226.472 345.892,229.491 345.360,232.047 345.032 C 238.383 344.219,244.402 342.922,245.201 342.199 C 245.565 341.869,246.174 341.600,246.555 341.600 C 246.936 341.600,247.157 341.454,247.046 341.275 C 246.779 340.843,253.966 338.467,256.977 337.992 C 259.860 337.537,259.824 337.573,262.404 332.600 C 263.545 330.400,264.791 328.240,265.173 327.800 C 265.973 326.878,267.766 323.813,269.034 321.200 C 269.514 320.210,270.570 318.680,271.381 317.800 C 272.192 316.920,273.335 315.351,273.922 314.312 C 274.681 312.969,275.555 312.116,276.953 311.355 C 278.033 310.767,279.876 309.418,281.048 308.357 C 283.297 306.320,285.166 305.228,287.800 304.413 C 288.680 304.141,290.480 303.406,291.800 302.780 C 294.042 301.716,301.626 299.379,304.100 298.989 C 308.335 298.321,308.211 298.485,308.323 293.426 C 308.375 291.106,308.612 288.712,308.850 288.104 C 309.089 287.497,309.300 285.020,309.320 282.600 C 309.352 278.797,309.375 278.648,309.494 281.500 C 309.569 283.315,309.770 284.800,309.939 284.800 C 310.108 284.800,310.171 283.213,310.078 281.274 C 309.944 278.469,310.035 277.622,310.525 277.132 C 312.431 275.226,312.686 272.366,312.135 259.072 C 311.879 252.901,311.843 252.704,310.702 251.129 L 309.532 249.514 308.592 250.898 C 308.016 251.745,306.805 252.683,305.472 253.314 C 304.274 253.881,302.909 254.885,302.439 255.545 C 298.923 260.483,286.591 259.818,281.491 254.414 C 280.190 253.036,279.067 252.290,277.537 251.789 C 276.362 251.404,273.420 249.789,271.000 248.200 C 268.580 246.611,265.790 244.906,264.800 244.410 C 263.810 243.914,262.427 243.079,261.727 242.554 C 261.026 242.029,260.350 241.600,260.223 241.600 C 260.096 241.600,258.419 240.547,256.496 239.260 C 250.345 235.143,248.943 234.444,244.742 233.405 C 239.187 232.030,235.231 232.069,231.200 233.538 M108.998 238.403 C 108.856 238.633,107.528 239.431,106.045 240.177 C 104.325 241.044,102.829 242.170,101.910 243.292 C 101.118 244.258,99.820 245.488,99.025 246.024 C 98.114 246.639,97.194 247.809,96.536 249.189 C 95.962 250.393,95.154 251.835,94.741 252.394 C 92.860 254.938,95.125 259.543,97.998 259.015 C 98.769 258.873,100.528 258.604,101.906 258.417 C 104.536 258.059,108.400 256.021,108.400 254.992 C 108.400 254.704,109.161 253.777,110.091 252.934 C 115.833 247.726,115.973 247.438,114.669 243.506 C 113.756 240.755,113.650 240.642,109.728 238.272 C 109.468 238.115,109.139 238.174,108.998 238.403 " stroke="none" fill="#fc94a3" fill-rule="evenodd"></path><path id="path1" d="M137.600 1.861 C 137.600 4.721,141.145 7.772,145.128 8.342 C 148.967 8.891,147.405 9.516,141.834 9.660 C 135.430 9.826,135.118 9.995,134.804 13.480 L 134.600 15.740 132.239 16.210 C 128.301 16.993,128.202 17.514,128.483 35.983 C 128.692 49.735,128.594 50.877,127.365 49.003 C 126.562 47.778,126.493 44.825,126.877 28.000 C 126.993 22.909,126.943 22.486,126.000 20.607 C 123.538 15.699,118.526 16.540,117.169 22.088 C 116.255 25.826,117.005 48.517,118.143 51.550 C 118.545 52.621,118.797 54.484,118.793 56.350 L 118.786 59.400 116.493 60.372 C 113.106 61.807,112.157 62.596,111.157 64.810 C 110.210 66.905,110.043 67.003,106.000 67.816 C 102.372 68.546,100.000 70.696,100.000 73.254 C 100.000 74.760,100.037 74.800,101.426 74.800 C 102.211 74.800,103.198 74.985,103.620 75.211 C 104.042 75.437,105.515 75.849,106.894 76.127 C 110.376 76.830,110.768 78.218,107.602 78.637 C 104.758 79.015,103.942 79.786,103.698 82.325 C 103.237 87.121,100.000 81.829,100.000 76.281 C 100.000 75.254,99.903 75.200,98.041 75.200 C 95.017 75.200,92.824 78.340,92.319 83.393 C 92.226 84.326,91.939 84.663,91.000 84.941 C 86.193 86.368,86.368 86.193,84.941 91.000 C 84.663 91.939,84.326 92.226,83.393 92.319 C 77.278 92.930,68.878 100.739,67.602 107.000 C 67.018 109.867,66.758 110.227,64.516 111.281 C 61.571 112.666,60.773 114.459,60.197 120.985 C 59.929 124.021,59.844 124.235,58.375 125.585 C 54.029 129.578,53.719 136.979,57.835 138.467 C 59.935 139.226,60.269 141.598,58.276 141.601 C 56.457 141.605,54.868 143.044,54.210 145.285 C 53.263 148.506,53.154 148.605,51.450 147.797 L 50.000 147.109 50.000 143.714 C 50.000 138.463,47.589 136.227,44.947 139.028 C 43.628 140.428,43.600 140.529,43.600 143.982 L 43.600 147.507 41.966 148.854 C 36.863 153.057,36.416 153.985,36.115 161.000 C 35.890 166.216,35.760 166.555,33.637 167.442 C 27.395 170.050,27.192 186.751,33.378 188.793 C 34.994 189.326,35.282 189.919,34.779 191.674 C 34.570 192.401,34.400 196.827,34.400 201.510 C 34.400 207.973,34.280 210.062,33.900 210.179 C 33.625 210.264,32.900 210.443,32.290 210.577 C 29.243 211.245,28.806 212.995,28.344 226.343 L 27.965 237.287 26.582 238.591 L 25.200 239.894 25.200 250.000 L 25.200 260.106 26.558 261.386 L 27.915 262.666 28.206 272.633 C 28.509 283.023,28.630 283.765,30.085 284.227 C 30.573 284.382,31.743 285.280,32.686 286.223 L 34.400 287.937 34.400 293.141 C 34.400 297.999,34.347 298.363,33.598 298.601 C 27.565 300.515,27.223 317.435,33.167 319.888 C 35.823 320.984,36.000 321.329,36.000 325.403 C 36.000 330.210,36.715 331.433,40.208 332.600 C 43.698 333.766,43.600 333.628,43.600 337.395 C 43.600 340.647,43.639 340.784,44.947 342.172 C 47.588 344.971,50.000 342.777,50.000 337.576 C 50.000 334.514,50.043 334.364,51.026 333.990 C 52.933 333.265,53.102 333.436,53.398 336.383 C 53.710 339.489,54.051 339.948,56.264 340.245 C 59.772 340.717,59.600 340.558,59.600 343.328 C 59.600 346.032,60.016 346.800,61.480 346.800 C 62.287 346.800,62.400 346.997,62.400 348.400 C 62.400 349.998,62.398 350.000,60.814 350.000 C 59.610 350.000,58.887 350.299,57.814 351.241 C 56.004 352.831,56.036 353.386,58.042 355.239 C 59.495 356.580,59.748 357.090,60.238 359.663 C 60.887 363.067,61.577 363.915,64.248 364.593 C 66.087 365.060,66.189 365.160,66.651 366.972 C 67.546 370.481,69.675 371.475,74.881 370.815 C 79.562 370.222,81.390 369.238,82.416 366.760 C 83.319 364.582,84.285 365.258,84.472 368.199 C 84.677 371.410,84.899 371.636,88.112 371.894 L 90.699 372.101 90.927 374.314 C 91.217 377.121,91.658 377.535,94.711 377.854 C 98.715 378.272,98.244 379.161,93.356 380.411 C 88.442 381.668,87.600 381.551,87.600 379.614 C 87.600 376.036,84.519 374.248,82.437 376.619 C 80.558 378.760,82.378 381.200,85.854 381.200 L 87.600 381.200 87.600 383.040 C 87.600 386.234,89.492 387.563,96.161 389.052 C 97.019 389.243,97.860 389.670,98.030 390.000 C 98.199 390.330,98.684 391.320,99.108 392.200 C 100.138 394.340,101.647 395.133,105.650 395.639 C 112.512 396.505,112.184 396.375,112.323 398.300 L 112.446 400.000 123.023 400.000 L 133.600 400.000 133.600 398.400 L 133.600 396.800 140.600 396.800 L 147.600 396.800 147.600 398.400 L 147.600 400.000 194.000 400.000 L 240.400 400.000 240.400 398.400 L 240.400 396.800 247.600 396.800 L 254.800 396.800 254.800 398.400 L 254.800 400.000 268.000 400.000 L 281.200 400.000 281.200 398.419 C 281.200 396.417,282.379 396.005,288.123 396.002 C 293.945 395.999,295.134 395.583,298.387 392.413 C 300.494 390.360,301.718 389.518,303.595 388.834 C 307.336 387.470,308.534 384.936,306.790 382.076 C 305.338 379.695,301.128 379.126,297.868 380.871 C 296.968 381.352,296.970 381.354,296.635 379.500 L 296.364 378.000 298.556 378.000 C 301.573 378.000,302.668 377.513,302.995 376.024 L 303.264 374.800 307.832 374.800 L 312.400 374.800 312.400 373.529 C 312.400 372.603,312.732 371.979,313.623 371.229 C 314.646 370.367,314.883 369.826,315.079 367.900 C 315.370 365.024,316.497 364.680,317.800 367.069 C 319.190 369.617,320.364 370.184,324.528 370.319 C 329.545 370.481,330.452 370.002,333.000 365.844 C 333.220 365.485,334.363 364.944,335.541 364.643 C 338.440 363.902,339.103 363.120,339.762 359.663 C 340.252 357.090,340.505 356.580,341.958 355.239 C 343.965 353.386,343.996 352.831,342.181 351.237 C 340.567 349.820,339.843 349.962,338.342 351.993 C 337.297 353.406,337.042 353.512,333.457 354.020 C 331.902 354.241,330.038 354.770,329.315 355.197 L 328.000 355.973 328.000 354.633 L 328.000 353.293 330.599 353.128 C 333.826 352.922,334.122 352.626,334.328 349.399 L 334.493 346.800 336.347 346.795 C 339.923 346.784,340.800 345.909,340.800 342.348 C 340.800 340.702,340.736 340.744,344.060 340.212 C 345.996 339.903,346.270 339.482,346.607 336.300 C 346.910 333.446,347.087 333.273,348.974 333.990 C 349.957 334.364,350.000 334.514,350.000 337.576 C 350.000 342.777,352.412 344.971,355.053 342.172 C 356.360 340.786,356.400 340.643,356.400 337.420 C 356.400 333.623,356.434 333.573,359.674 332.645 C 362.068 331.958,363.410 330.738,363.865 328.835 C 364.304 327.000,365.119 325.754,367.432 323.385 C 370.314 320.433,370.925 318.994,370.909 315.200 C 370.882 308.864,369.176 302.698,366.940 300.855 L 365.574 299.729 365.687 294.769 C 365.792 290.164,365.857 289.801,366.600 289.682 C 371.016 288.980,372.000 285.719,372.000 271.794 L 372.000 262.746 373.400 261.426 L 374.800 260.106 374.800 246.894 L 374.800 233.683 373.400 232.454 L 372.000 231.224 371.993 224.512 C 371.980 211.636,370.752 206.759,367.144 205.245 L 365.608 204.600 365.604 199.288 L 365.600 193.976 366.980 192.764 C 371.341 188.935,372.429 172.174,368.541 168.715 C 368.117 168.339,367.133 167.764,366.354 167.438 C 364.241 166.556,364.109 166.212,363.885 161.000 C 363.628 155.013,363.141 153.533,360.584 150.971 C 359.140 149.524,358.298 148.225,357.649 146.446 C 354.919 138.960,347.172 142.290,349.088 150.126 C 349.604 152.235,349.717 153.321,349.430 153.406 C 346.873 154.162,346.934 154.213,346.673 151.099 C 346.384 147.656,345.945 147.200,342.924 147.200 L 340.800 147.200 340.800 145.056 C 340.800 143.877,340.687 142.084,340.548 141.073 L 340.296 139.235 341.940 138.577 C 346.340 136.817,346.201 132.240,341.682 130.076 L 339.400 128.984 339.200 124.921 C 338.969 120.235,338.436 119.154,335.655 117.731 C 333.196 116.473,332.928 116.168,332.639 114.292 C 331.935 109.732,329.510 105.994,327.640 106.587 C 325.919 107.133,323.600 111.751,323.600 114.630 C 323.600 115.415,322.926 116.000,322.023 116.000 C 321.851 116.000,321.613 114.913,321.492 113.585 C 321.213 110.503,320.834 110.089,318.006 109.769 L 315.683 109.506 315.412 106.978 C 315.087 103.937,314.814 103.673,311.659 103.343 C 308.570 103.020,308.542 102.634,311.564 102.039 C 313.990 101.562,317.513 99.258,318.426 97.551 C 318.828 96.801,317.530 95.084,314.200 91.958 C 313.760 91.545,312.173 90.051,310.673 88.637 C 305.590 83.847,299.539 83.987,298.029 88.932 C 297.269 91.423,296.965 91.287,296.654 88.318 C 296.335 85.265,296.175 85.098,293.085 84.599 L 290.600 84.198 290.333 82.009 C 289.985 79.159,289.099 78.400,286.122 78.400 C 283.238 78.400,283.468 77.609,286.530 76.998 C 287.784 76.748,289.341 76.151,289.989 75.671 C 290.637 75.192,291.725 74.800,292.406 74.800 C 293.630 74.800,293.642 74.779,293.522 72.942 C 293.346 70.256,290.147 67.448,286.398 66.690 L 283.845 66.173 283.377 64.336 C 282.531 61.021,281.250 60.227,277.006 60.388 C 270.340 60.641,271.164 60.883,269.930 58.318 C 268.199 54.723,265.097 53.895,260.522 55.807 C 259.741 56.133,258.494 56.400,257.751 56.400 C 256.480 56.400,256.400 56.481,256.400 57.768 C 256.400 59.408,255.221 59.843,251.984 59.398 C 250.047 59.131,250.000 59.093,250.000 57.762 C 250.000 56.440,249.954 56.400,248.400 56.400 L 246.800 56.400 246.800 53.992 L 246.800 51.584 248.376 52.388 C 249.735 53.081,249.968 53.398,250.076 54.696 L 250.200 56.200 253.200 56.200 L 256.200 56.200 256.330 54.600 C 256.401 53.720,256.721 52.710,257.042 52.355 C 258.232 51.037,258.339 49.086,258.021 34.504 C 257.652 17.544,257.477 16.476,254.658 13.916 C 251.506 11.054,250.195 9.726,248.860 8.046 C 246.937 5.624,243.878 5.656,243.676 8.100 L 243.552 9.600 238.976 9.600 C 234.470 9.600,234.400 9.586,234.400 8.681 C 234.400 7.730,235.740 7.317,241.600 6.463 L 243.400 6.200 243.517 3.100 L 243.634 -0.000 236.617 -0.000 L 229.600 0.000 229.600 1.600 L 229.600 3.200 221.000 3.200 L 212.400 3.200 212.400 1.600 L 212.400 0.000 189.800 0.000 L 167.200 0.000 167.200 1.600 L 167.200 3.200 161.800 3.200 L 156.400 3.200 156.400 1.600 L 156.400 0.000 147.000 0.000 L 137.600 0.000 137.600 1.861 M121.244 19.553 C 120.718 19.957,119.941 20.718,119.517 21.244 C 118.827 22.100,118.791 22.109,119.171 21.331 C 119.582 20.489,121.456 18.791,121.954 18.809 C 122.089 18.814,121.770 19.149,121.244 19.553 M247.820 20.187 C 248.838 22.624,248.653 40.447,247.600 41.400 C 246.802 42.122,246.800 42.099,246.800 30.462 C 246.800 18.392,246.852 17.869,247.820 20.187 M201.400 21.429 C 203.820 21.987,208.230 22.995,211.200 23.670 C 224.303 26.650,224.544 27.074,224.176 46.560 C 223.878 62.372,223.459 64.757,220.181 69.303 C 218.606 71.487,217.995 72.698,217.982 73.663 C 217.973 74.399,217.711 75.713,217.400 76.585 C 216.722 78.489,216.504 78.247,219.542 78.956 C 222.289 79.597,223.414 79.338,225.662 77.547 C 226.467 76.905,227.643 76.610,230.525 76.327 L 234.326 75.954 241.463 79.636 C 245.388 81.661,249.320 83.894,250.200 84.599 C 251.080 85.304,253.132 86.633,254.759 87.553 C 256.387 88.474,258.367 89.723,259.159 90.331 C 259.952 90.938,260.982 91.697,261.449 92.017 C 267.371 96.078,269.189 97.539,274.951 102.863 C 277.382 105.110,280.333 107.747,283.396 110.412 C 286.530 113.138,291.861 118.648,294.150 121.527 C 295.430 123.137,296.852 124.593,297.310 124.762 C 298.121 125.062,300.857 128.300,305.454 134.400 C 306.697 136.050,308.420 138.300,309.282 139.400 C 310.144 140.500,311.796 142.841,312.952 144.602 C 314.109 146.363,315.687 148.631,316.459 149.642 C 317.231 150.653,318.608 152.840,319.519 154.500 C 320.431 156.161,321.413 157.762,321.701 158.060 C 322.912 159.305,324.078 161.312,325.420 164.458 C 326.205 166.296,328.006 169.800,329.422 172.244 C 332.916 178.272,335.140 183.106,337.593 190.000 C 338.728 193.190,340.085 196.790,340.609 198.000 C 341.846 200.856,343.378 207.297,344.842 215.795 C 345.486 219.538,346.357 223.860,346.777 225.400 C 348.228 230.722,348.793 235.389,349.058 244.234 C 349.424 256.444,348.811 263.569,346.583 273.000 C 346.064 275.200,345.091 279.520,344.421 282.600 C 342.769 290.193,341.871 293.067,339.610 298.000 C 338.551 300.310,337.286 303.232,336.799 304.493 C 336.312 305.754,334.718 308.665,333.256 310.963 C 331.795 313.261,330.111 315.919,329.513 316.870 C 328.914 317.822,327.621 319.680,326.639 321.000 C 325.657 322.320,324.837 323.580,324.816 323.800 C 324.795 324.020,324.222 324.740,323.542 325.400 C 322.863 326.060,320.991 328.220,319.383 330.200 C 315.227 335.317,309.288 340.977,304.370 344.511 C 302.043 346.182,299.898 347.840,299.603 348.196 C 299.308 348.552,297.882 349.543,296.433 350.400 C 294.985 351.256,293.216 352.515,292.502 353.197 C 291.149 354.489,285.090 358.400,284.441 358.400 C 284.028 358.400,270.051 365.476,269.374 366.028 C 269.140 366.219,266.080 367.352,262.574 368.546 C 259.068 369.740,254.210 371.544,251.779 372.555 C 249.347 373.566,246.467 374.501,245.379 374.633 C 242.408 374.993,229.820 377.522,226.400 378.446 C 210.530 382.735,181.424 382.539,163.030 378.020 C 159.494 377.151,154.350 376.066,151.600 375.608 C 143.342 374.233,142.529 374.012,138.894 372.155 C 136.972 371.173,133.870 369.914,132.000 369.358 C 126.962 367.860,125.752 367.338,122.635 365.316 C 119.882 363.530,114.252 360.313,111.000 358.667 C 109.545 357.931,105.666 355.071,99.057 349.864 C 93.945 345.835,84.008 335.612,79.730 329.979 C 78.151 327.901,76.505 325.823,76.072 325.362 C 75.639 324.902,74.971 323.912,74.586 323.162 C 74.202 322.413,73.041 320.450,72.007 318.800 C 64.386 306.640,64.419 306.700,62.805 301.719 C 61.928 299.013,60.640 295.675,59.941 294.300 C 59.242 292.925,58.537 291.170,58.375 290.400 C 58.212 289.630,57.336 285.580,56.427 281.400 C 51.935 260.726,50.660 242.008,52.996 231.000 C 53.509 228.580,54.497 223.000,55.191 218.600 C 55.885 214.200,56.891 208.662,57.427 206.293 C 57.962 203.923,58.400 201.707,58.400 201.368 C 58.400 201.028,58.834 199.817,59.364 198.675 C 61.288 194.533,62.781 190.522,63.786 186.800 C 64.523 184.068,66.228 180.134,69.856 172.800 C 76.445 159.477,76.833 158.734,77.651 157.854 C 78.033 157.443,79.298 155.296,80.463 153.081 C 81.627 150.866,83.501 147.782,84.628 146.227 C 85.755 144.672,87.186 142.500,87.807 141.400 C 88.429 140.300,89.500 138.680,90.187 137.800 C 90.875 136.920,92.580 134.403,93.976 132.207 C 95.504 129.805,98.279 126.337,100.942 123.502 C 103.376 120.910,106.215 117.577,107.250 116.095 C 108.285 114.613,110.792 111.780,112.820 109.800 C 114.849 107.820,118.797 103.927,121.594 101.148 C 126.870 95.905,129.689 93.653,136.800 88.998 C 139.110 87.486,141.900 85.502,143.000 84.590 C 147.373 80.963,151.832 79.405,156.083 80.020 C 164.984 81.307,168.719 79.737,165.667 75.991 C 163.406 73.216,160.328 66.431,159.502 62.400 C 158.229 56.188,158.052 55.194,157.433 50.784 C 157.025 47.875,156.451 45.705,155.581 43.784 C 151.334 34.408,157.111 26.648,170.600 23.610 C 175.868 22.424,183.312 20.541,184.200 20.170 C 185.503 19.625,197.322 20.490,201.400 21.429 M134.400 54.160 L 134.400 55.920 133.000 54.520 C 131.376 52.896,131.383 52.915,132.300 52.676 C 134.187 52.183,134.400 52.333,134.400 54.160 M266.600 64.800 C 267.310 65.584,267.299 65.600,266.048 65.600 C 264.896 65.600,264.813 65.522,265.200 64.800 C 265.435 64.360,265.684 64.000,265.752 64.000 C 265.820 64.000,266.202 64.360,266.600 64.800 M120.500 71.046 C 123.377 71.476,121.970 72.000,117.938 72.000 L 113.876 72.000 114.629 71.168 C 115.411 70.304,115.528 70.302,120.500 71.046 M277.302 71.142 C 278.215 71.356,278.889 72.000,278.200 72.000 C 278.090 72.000,276.650 72.000,275.000 72.000 C 272.291 72.000,272.000 71.924,272.000 71.219 C 272.000 70.414,274.068 70.384,277.302 71.142 M293.600 76.638 C 293.600 79.392,296.099 81.751,297.821 80.623 C 301.017 78.529,299.605 75.200,295.522 75.200 L 293.600 75.200 293.600 76.638 M97.200 90.200 C 97.200 90.530,96.936 90.800,96.613 90.800 C 96.255 90.800,96.115 90.565,96.255 90.200 C 96.382 89.870,96.646 89.600,96.843 89.600 C 97.039 89.600,97.200 89.870,97.200 90.200 M90.800 96.600 C 90.800 96.930,90.530 97.200,90.200 97.200 C 89.159 97.200,89.496 96.412,90.700 96.032 C 90.755 96.014,90.800 96.270,90.800 96.600 M84.561 103.358 C 84.372 103.850,84.148 103.893,83.527 103.561 C 82.766 103.153,82.762 103.105,83.442 102.353 C 84.244 101.467,85.019 102.163,84.561 103.358 M78.481 110.836 C 78.274 115.274,78.140 115.600,76.525 115.600 C 75.343 115.600,75.159 115.487,75.392 114.900 C 75.545 114.515,75.864 113.120,76.102 111.800 C 76.897 107.386,78.675 106.666,78.481 110.836 M71.827 121.907 C 71.327 122.406,71.166 121.599,71.474 120.141 L 71.799 118.600 71.926 120.140 C 71.996 120.987,71.951 121.782,71.827 121.907 M335.509 134.464 C 334.651 135.009,334.400 134.845,334.400 133.738 C 334.400 132.697,334.416 132.691,335.209 133.409 C 335.828 133.968,335.899 134.217,335.509 134.464 M47.082 161.300 C 46.830 166.082,46.816 166.134,45.857 165.767 C 44.923 165.408,44.929 159.795,45.866 157.831 C 46.969 155.517,47.333 156.553,47.082 161.300 M354.126 157.814 C 355.161 159.984,355.077 165.424,354.000 166.000 C 353.264 166.394,353.200 166.304,353.200 164.888 C 353.200 164.040,353.009 162.311,352.774 161.045 C 352.055 157.154,352.876 155.192,354.126 157.814 M33.644 169.553 C 33.118 169.957,32.341 170.718,31.917 171.244 C 31.227 172.100,31.191 172.109,31.571 171.331 C 31.982 170.489,33.856 168.791,34.354 168.809 C 34.489 168.814,34.170 169.149,33.644 169.553 M40.775 172.700 L 40.750 175.000 39.907 173.323 C 39.208 171.930,39.152 171.540,39.581 171.023 C 40.496 169.921,40.801 170.349,40.775 172.700 M360.408 171.009 C 360.820 171.506,360.775 171.924,360.163 173.282 L 359.413 174.946 359.106 173.173 C 358.659 170.583,359.245 169.608,360.408 171.009 M40.800 183.200 C 40.800 185.206,40.631 185.461,39.698 184.869 C 39.304 184.619,39.347 184.189,39.898 182.879 C 40.781 180.776,40.800 180.783,40.800 183.200 M360.237 184.494 C 359.386 185.066,359.200 184.779,359.210 182.900 L 359.221 181.000 359.948 182.600 C 360.453 183.713,360.541 184.289,360.237 184.494 M20.228 194.947 C 17.790 197.247,18.121 203.692,20.774 205.582 L 21.950 206.419 23.375 205.168 L 24.800 203.917 24.800 200.000 L 24.800 196.083 23.386 194.841 C 21.668 193.333,21.950 193.323,20.228 194.947 M376.625 194.832 L 375.200 196.083 375.200 200.000 L 375.200 203.917 376.639 205.180 C 377.790 206.191,378.370 206.419,379.539 206.322 L 381.000 206.200 381.113 201.497 C 381.235 196.414,381.049 195.716,379.226 194.418 L 378.050 193.581 376.625 194.832 M381.095 214.500 C 380.985 221.091,380.793 223.331,380.067 226.523 C 379.024 231.108,379.027 230.953,379.493 252.000 C 379.770 264.535,379.979 268.471,380.417 269.400 C 380.823 270.262,381.041 272.964,381.191 279.000 L 381.400 287.400 382.922 287.525 C 384.240 287.634,384.654 287.440,386.022 286.072 L 387.600 284.494 387.604 278.147 C 387.608 273.328,387.768 271.318,388.270 269.800 C 388.865 267.998,389.742 244.015,389.608 233.200 C 389.578 230.777,388.592 224.558,387.986 222.962 C 387.774 222.404,387.600 219.062,387.600 215.534 L 387.600 209.120 386.240 207.760 C 385.091 206.611,384.597 206.400,383.056 206.400 L 381.231 206.400 381.095 214.500 M13.775 220.199 C 12.511 221.539,12.448 221.756,12.299 225.299 C 12.213 227.335,11.831 230.338,11.451 231.973 C 10.426 236.377,10.653 273.073,11.725 276.282 C 12.418 278.357,14.651 281.200,15.587 281.200 C 16.666 281.200,18.749 278.502,19.468 276.172 C 20.562 272.626,20.590 232.778,19.499 230.050 C 19.026 228.866,18.800 227.203,18.800 224.910 C 18.800 219.690,16.388 217.429,13.775 220.199 M20.078 288.919 C 18.485 290.563,18.489 290.741,20.160 292.361 C 21.712 293.865,22.666 293.806,23.990 292.122 C 25.076 290.741,25.013 290.152,23.631 288.769 C 22.141 287.279,21.647 287.300,20.078 288.919 M376.369 288.769 L 375.200 289.938 375.200 296.928 L 375.200 303.917 376.625 305.168 L 378.050 306.419 379.226 305.582 C 381.099 304.248,381.200 303.730,381.200 295.426 L 381.200 287.600 379.369 287.600 C 377.879 287.600,377.321 287.818,376.369 288.769 M33.644 300.753 C 33.118 301.157,32.341 301.918,31.917 302.444 C 31.227 303.300,31.191 303.309,31.571 302.531 C 31.982 301.689,33.856 299.991,34.354 300.009 C 34.489 300.014,34.170 300.349,33.644 300.753 M40.800 313.200 C 40.800 317.489,40.788 317.531,39.814 316.556 C 38.945 315.688,39.469 309.200,40.408 309.200 C 40.638 309.200,40.800 310.852,40.800 313.200 M360.582 311.700 C 360.307 314.363,359.690 317.200,359.385 317.200 C 359.283 317.200,359.200 315.400,359.200 313.200 C 359.200 309.434,359.248 309.200,360.020 309.200 C 360.786 309.200,360.823 309.363,360.582 311.700 M47.169 325.499 C 47.799 330.710,47.083 332.932,45.780 329.813 C 44.535 326.834,45.161 321.126,46.661 321.774 C 46.695 321.788,46.923 323.464,47.169 325.499 M354.226 327.000 C 354.838 328.466,354.205 331.200,353.252 331.200 C 352.571 331.200,352.333 328.917,352.838 327.230 C 353.432 325.249,353.490 325.239,354.226 327.000 M65.600 350.826 C 65.600 351.281,65.776 351.982,65.992 352.384 C 66.608 353.536,65.664 354.064,63.873 353.569 C 61.501 352.914,61.604 350.000,64.000 350.000 C 65.350 350.000,65.600 350.129,65.600 350.826 M74.741 359.430 C 75.047 359.688,72.025 360.062,71.626 359.816 C 70.633 359.203,71.295 358.805,72.900 359.051 C 73.835 359.194,74.663 359.365,74.741 359.430 M324.800 359.390 C 324.800 359.592,322.590 360.800,322.220 360.800 C 322.099 360.800,322.000 360.440,322.000 360.000 C 322.000 359.352,322.267 359.200,323.400 359.200 C 324.170 359.200,324.800 359.285,324.800 359.390 M312.400 376.772 C 312.400 379.721,315.079 381.840,316.949 380.369 C 319.671 378.227,318.155 375.200,314.359 375.200 L 312.400 375.200 312.400 376.772 M107.900 384.397 C 110.743 384.402,109.802 385.031,106.300 385.466 C 103.543 385.808,102.886 385.778,102.309 385.284 C 101.194 384.329,101.923 383.879,104.154 384.147 C 105.279 384.282,106.965 384.395,107.900 384.397 M292.970 384.351 C 293.286 384.863,291.146 385.200,287.583 385.200 C 283.075 385.200,282.284 384.648,286.400 384.375 C 292.180 383.991,292.746 383.989,292.970 384.351 M123.124 390.796 C 126.570 390.798,128.360 390.941,128.200 391.200 C 128.064 391.420,127.288 391.601,126.476 391.601 C 124.684 391.603,118.368 392.680,116.917 393.231 C 115.664 393.708,115.303 393.413,114.945 391.625 L 114.675 390.275 116.238 390.533 C 117.097 390.675,120.196 390.793,123.124 390.796 M273.824 391.413 C 272.663 392.291,259.200 392.279,259.200 391.400 C 259.200 390.887,260.317 390.802,266.900 390.813 C 273.758 390.824,274.515 390.890,273.824 391.413 " stroke="none" fill="#0f5038" fill-rule="evenodd"></path><path id="path2" d="M228.592 77.572 C 227.287 77.885,225.553 78.916,224.150 80.213 C 223.666 80.661,221.769 81.812,219.935 82.773 C 218.101 83.733,216.093 84.873,215.472 85.306 C 214.028 86.315,206.176 89.076,203.924 89.366 C 202.976 89.489,200.310 89.675,198.000 89.781 C 195.690 89.887,193.260 90.079,192.600 90.208 C 191.940 90.337,187.252 90.274,182.181 90.066 L 172.963 89.690 169.381 87.887 C 167.412 86.895,165.080 85.507,164.200 84.803 C 157.382 79.345,150.694 79.587,143.200 85.563 C 141.770 86.703,138.710 88.884,136.400 90.408 C 129.269 95.115,128.374 95.832,122.400 101.628 C 111.316 112.381,108.768 115.008,108.115 116.354 C 107.455 117.713,105.624 119.844,100.000 125.800 C 98.338 127.560,96.131 130.397,95.095 132.104 C 94.060 133.811,92.480 136.135,91.584 137.268 C 90.688 138.402,89.083 140.804,88.018 142.607 C 86.953 144.410,85.447 146.718,84.670 147.735 C 83.893 148.753,82.228 151.569,80.968 153.993 C 79.709 156.417,78.536 158.400,78.363 158.400 C 77.965 158.400,74.800 164.404,74.800 165.159 C 74.800 165.467,73.966 167.250,72.946 169.121 C 68.639 177.022,65.571 183.719,64.536 187.475 C 63.587 190.925,62.677 193.405,59.280 201.800 C 58.463 203.819,58.169 205.394,56.777 215.200 C 56.008 220.616,55.425 223.958,53.952 231.400 C 52.890 236.766,52.553 245.525,53.172 251.687 C 54.204 261.959,55.634 273.143,56.383 276.800 C 56.811 278.890,57.447 282.220,57.797 284.200 C 58.622 288.881,59.158 290.861,59.800 291.600 C 60.613 292.538,62.422 297.072,63.430 300.700 C 64.539 304.695,67.694 310.625,72.475 317.702 C 73.330 318.967,74.361 320.776,74.766 321.722 C 75.172 322.667,76.178 324.151,77.004 325.020 C 78.485 326.580,81.423 330.324,82.200 331.645 C 83.620 334.057,97.598 348.031,99.960 349.400 C 101.371 350.218,107.909 355.404,108.440 356.126 C 108.572 356.305,109.764 357.025,111.090 357.726 C 121.702 363.333,123.860 364.546,124.976 365.525 C 125.693 366.155,127.541 367.033,129.223 367.542 C 135.192 369.351,138.238 370.498,140.000 371.601 C 142.227 372.995,146.658 374.328,150.044 374.623 C 153.512 374.925,158.247 375.797,165.352 377.443 C 182.649 381.448,207.707 381.595,223.800 377.785 C 226.000 377.264,230.590 376.372,234.000 375.804 C 245.659 373.860,246.647 373.622,251.247 371.662 C 253.751 370.596,258.050 369.037,260.800 368.200 C 264.850 366.967,272.712 363.484,274.600 362.087 C 274.820 361.924,277.250 360.740,280.000 359.455 C 285.745 356.771,290.403 354.006,292.353 352.123 C 293.097 351.405,294.675 350.270,295.860 349.601 C 297.045 348.932,298.686 347.793,299.507 347.070 C 301.037 345.721,306.294 341.862,307.004 341.565 C 307.757 341.251,318.248 330.190,320.096 327.762 C 321.116 326.421,322.386 325.039,322.916 324.692 C 323.446 324.344,324.175 323.440,324.534 322.682 C 324.894 321.924,325.986 320.220,326.962 318.895 C 330.670 313.857,335.603 305.302,336.858 301.730 C 337.289 300.504,338.469 297.858,339.479 295.850 C 341.442 291.950,341.879 290.318,345.056 275.000 C 348.988 256.046,349.309 242.208,346.167 227.152 C 345.370 223.334,344.298 217.778,343.785 214.805 C 342.130 205.228,341.534 202.650,340.360 200.000 C 339.727 198.570,338.220 194.580,337.010 191.133 C 334.735 184.647,331.549 177.772,327.772 171.200 C 326.571 169.110,325.378 166.680,325.121 165.800 C 324.695 164.336,321.502 158.871,320.798 158.400 C 320.634 158.290,319.803 156.883,318.952 155.274 C 318.100 153.664,316.712 151.510,315.866 150.487 C 315.020 149.463,313.422 147.092,312.315 145.217 C 311.207 143.342,309.873 141.441,309.351 140.991 C 308.828 140.542,308.400 139.977,308.400 139.736 C 308.400 139.495,308.126 139.071,307.792 138.793 C 307.458 138.516,306.364 137.115,305.361 135.681 C 302.846 132.083,300.492 129.361,295.700 124.511 C 293.445 122.228,291.600 120.203,291.600 120.011 C 291.600 119.278,282.022 110.008,277.735 106.591 C 276.335 105.475,274.902 104.153,274.552 103.653 C 274.202 103.153,273.169 102.205,272.258 101.548 C 271.346 100.890,269.790 99.584,268.800 98.646 C 267.810 97.708,265.645 96.030,263.988 94.917 C 262.332 93.805,260.735 92.603,260.439 92.247 C 260.144 91.891,259.663 91.600,259.371 91.600 C 259.079 91.600,258.696 91.357,258.520 91.060 C 258.344 90.763,256.410 89.491,254.223 88.234 C 252.036 86.976,249.665 85.438,248.955 84.814 C 244.071 80.526,232.876 76.544,228.592 77.572 M144.105 118.987 C 152.249 120.713,157.365 133.551,154.629 145.400 C 153.839 148.823,150.531 158.156,150.052 158.316 C 149.830 158.390,149.251 159.654,148.766 161.125 C 148.281 162.596,147.640 164.155,147.342 164.589 C 145.479 167.301,151.021 168.589,159.400 167.391 C 161.820 167.045,167.130 166.604,171.200 166.411 C 177.320 166.121,179.223 165.879,182.200 165.008 C 187.800 163.369,217.909 162.552,233.200 163.623 C 236.390 163.847,241.250 164.188,244.000 164.382 C 246.750 164.575,249.788 165.019,250.750 165.367 C 251.882 165.776,253.862 166.003,256.350 166.008 C 258.468 166.013,262.720 166.278,265.800 166.596 C 268.880 166.915,272.750 167.185,274.400 167.195 C 280.533 167.234,288.292 169.073,298.027 172.795 C 300.910 173.898,303.569 174.806,303.935 174.813 C 306.857 174.872,310.290 180.371,311.588 187.072 C 313.474 196.813,316.034 200.809,322.325 203.835 C 326.420 205.804,328.731 208.592,329.394 212.364 C 330.107 216.423,330.354 216.021,325.784 218.259 C 320.289 220.951,320.005 221.947,321.815 232.175 C 322.809 237.797,322.603 251.266,321.418 258.121 C 320.878 261.245,320.160 266.140,319.822 269.000 C 319.104 275.084,316.804 283.455,315.372 285.200 C 315.101 285.530,314.404 286.970,313.822 288.400 C 313.240 289.830,312.601 291.360,312.401 291.800 C 312.201 292.240,311.484 293.852,310.807 295.382 C 310.130 296.912,309.335 298.442,309.039 298.782 C 307.541 300.509,307.230 303.123,307.756 309.600 C 308.497 318.732,307.657 322.264,303.761 326.400 C 302.828 327.390,301.690 328.679,301.231 329.265 C 300.773 329.850,299.183 331.146,297.699 332.145 C 296.214 333.143,294.190 334.532,293.200 335.232 C 287.986 338.914,281.751 340.606,272.118 340.950 L 266.037 341.167 260.918 343.239 C 258.103 344.379,255.260 345.692,254.600 346.156 C 252.811 347.415,246.616 349.676,238.200 352.145 C 237.100 352.467,234.550 353.370,232.534 354.151 C 230.518 354.932,227.728 355.769,226.334 356.010 C 202.398 360.149,171.617 358.894,158.200 353.231 C 156.220 352.396,152.890 351.306,150.800 350.809 C 146.395 349.761,143.148 348.432,139.871 346.334 C 138.591 345.514,136.881 344.629,136.071 344.367 C 135.262 344.105,133.570 343.375,132.311 342.745 C 131.053 342.115,129.768 341.600,129.457 341.600 C 129.146 341.600,127.926 340.821,126.746 339.868 C 125.566 338.916,123.766 337.661,122.746 337.078 C 117.521 334.096,104.892 321.492,100.221 314.600 C 99.178 313.060,97.913 311.350,97.412 310.800 C 96.910 310.250,95.376 307.839,94.004 305.441 C 92.631 303.044,90.983 300.255,90.342 299.244 C 89.701 298.233,88.818 296.205,88.381 294.738 C 87.445 291.594,85.983 288.194,84.668 286.100 C 83.640 284.464,82.536 281.281,81.166 276.000 C 79.239 268.571,76.004 266.116,68.867 266.667 C 65.261 266.945,65.235 266.918,64.182 261.916 C 62.407 253.478,63.954 246.507,68.000 244.714 C 73.437 242.305,74.640 241.558,75.150 240.281 C 76.646 236.532,77.536 233.467,77.795 231.169 C 78.423 225.582,81.691 209.615,82.761 206.900 C 83.187 205.818,84.344 203.328,85.331 201.366 C 86.318 199.405,87.609 196.180,88.201 194.200 C 88.792 192.220,89.769 189.700,90.371 188.600 C 91.448 186.633,92.238 182.136,93.005 173.600 C 93.443 168.732,98.139 155.583,101.314 150.335 C 104.958 144.311,106.279 142.450,109.923 138.204 C 115.288 131.953,121.977 126.105,125.946 124.194 C 127.593 123.401,129.473 122.305,130.124 121.757 C 132.021 120.161,134.135 119.252,136.858 118.863 C 140.511 118.340,141.098 118.350,144.105 118.987 M335.194 222.076 C 335.203 223.037,334.423 223.395,333.763 222.734 C 333.283 222.254,333.295 222.042,333.853 221.246 C 334.544 220.259,335.181 220.653,335.194 222.076 " stroke="none" fill="#74ba99" fill-rule="evenodd"></path><path id="path3" d="M136.858 118.863 C 134.135 119.252,132.021 120.161,130.124 121.757 C 129.473 122.305,127.593 123.401,125.946 124.194 C 121.977 126.105,115.288 131.953,109.923 138.204 C 106.279 142.450,104.958 144.311,101.314 150.335 C 98.139 155.583,93.443 168.732,93.005 173.600 C 92.238 182.136,91.448 186.633,90.371 188.600 C 89.769 189.700,88.792 192.220,88.201 194.200 C 87.609 196.180,86.318 199.405,85.331 201.366 C 84.344 203.328,83.187 205.818,82.761 206.900 C 81.691 209.615,78.423 225.582,77.795 231.169 C 77.536 233.467,76.646 236.532,75.150 240.281 C 74.640 241.558,73.437 242.305,68.000 244.714 C 63.954 246.507,62.407 253.478,64.182 261.916 C 65.235 266.918,65.261 266.945,68.867 266.667 C 76.004 266.116,79.239 268.571,81.166 276.000 C 82.536 281.281,83.640 284.464,84.668 286.100 C 85.983 288.194,87.445 291.594,88.381 294.738 C 88.818 296.205,89.701 298.233,90.342 299.244 C 90.983 300.255,92.631 303.044,94.004 305.441 C 95.376 307.839,96.910 310.250,97.412 310.800 C 97.913 311.350,99.178 313.060,100.221 314.600 C 104.892 321.492,117.521 334.096,122.746 337.078 C 123.766 337.661,125.566 338.916,126.746 339.868 C 127.926 340.821,129.146 341.600,129.457 341.600 C 129.768 341.600,131.053 342.115,132.311 342.745 C 133.570 343.375,135.262 344.105,136.071 344.367 C 136.881 344.629,138.591 345.514,139.871 346.334 C 143.148 348.432,146.395 349.761,150.800 350.809 C 152.890 351.306,156.220 352.396,158.200 353.231 C 171.617 358.894,202.398 360.149,226.334 356.010 C 227.728 355.769,230.518 354.932,232.534 354.151 C 234.550 353.370,237.100 352.467,238.200 352.145 C 246.616 349.676,252.811 347.415,254.600 346.156 C 255.260 345.692,258.103 344.379,260.918 343.239 L 266.037 341.167 272.118 340.950 C 281.751 340.606,287.986 338.914,293.200 335.232 C 294.190 334.532,296.214 333.143,297.699 332.145 C 299.183 331.146,300.773 329.850,301.231 329.265 C 301.690 328.679,302.828 327.390,303.761 326.400 C 307.657 322.264,308.497 318.732,307.756 309.600 C 307.230 303.123,307.541 300.509,309.039 298.782 C 309.335 298.442,310.130 296.912,310.807 295.382 C 311.484 293.852,312.201 292.240,312.401 291.800 C 312.601 291.360,313.240 289.830,313.822 288.400 C 314.404 286.970,315.101 285.530,315.372 285.200 C 316.804 283.455,319.104 275.084,319.822 269.000 C 320.160 266.140,320.878 261.245,321.418 258.121 C 322.603 251.266,322.809 237.797,321.815 232.175 C 320.005 221.947,320.289 220.951,325.784 218.259 C 330.354 216.021,330.107 216.423,329.394 212.364 C 328.731 208.592,326.420 205.804,322.325 203.835 C 316.034 200.809,313.474 196.813,311.588 187.072 C 310.290 180.371,306.857 174.872,303.935 174.813 C 303.569 174.806,300.910 173.898,298.027 172.795 C 288.292 169.073,280.533 167.234,274.400 167.195 C 272.750 167.185,268.880 166.915,265.800 166.596 C 262.720 166.278,258.468 166.013,256.350 166.008 C 253.862 166.003,251.882 165.776,250.750 165.367 C 249.788 165.019,246.750 164.575,244.000 164.382 C 241.250 164.188,236.390 163.847,233.200 163.623 C 217.909 162.552,187.800 163.369,182.200 165.008 C 179.223 165.879,177.320 166.121,171.200 166.411 C 167.130 166.604,161.820 167.045,159.400 167.391 C 153.552 168.227,152.667 168.212,149.500 167.216 C 146.726 166.345,146.405 165.954,147.342 164.589 C 147.640 164.155,148.281 162.596,148.766 161.125 C 149.251 159.654,149.830 158.390,150.052 158.316 C 150.531 158.156,153.839 148.823,154.629 145.400 C 156.253 138.365,154.596 128.825,150.785 123.272 C 147.993 119.203,143.786 117.871,136.858 118.863 M333.853 221.246 C 333.295 222.042,333.283 222.254,333.763 222.734 C 334.813 223.784,335.712 222.227,334.845 220.859 C 334.577 220.435,334.362 220.519,333.853 221.246 M280.030 224.942 C 285.034 225.137,285.702 225.426,288.985 228.822 C 291.261 231.175,291.371 231.383,291.385 233.344 L 291.400 235.400 288.600 235.531 C 284.779 235.709,281.674 235.000,281.140 233.828 C 280.578 232.594,276.886 230.229,274.640 229.663 C 273.628 229.408,271.983 228.995,270.985 228.744 C 269.987 228.493,269.228 228.178,269.298 228.044 C 269.368 227.910,269.659 227.338,269.943 226.774 C 270.705 225.264,272.238 224.488,274.151 224.644 C 275.058 224.717,277.703 224.852,280.030 224.942 M244.742 233.405 C 248.943 234.444,250.345 235.143,256.496 239.260 C 258.419 240.547,260.096 241.600,260.223 241.600 C 260.350 241.600,261.026 242.029,261.727 242.554 C 262.427 243.079,263.810 243.914,264.800 244.410 C 265.790 244.906,268.580 246.611,271.000 248.200 C 273.420 249.789,276.362 251.404,277.537 251.789 C 279.067 252.290,280.190 253.036,281.491 254.414 C 286.591 259.818,298.923 260.483,302.439 255.545 C 302.909 254.885,304.274 253.881,305.472 253.314 C 306.805 252.683,308.016 251.745,308.592 250.898 L 309.532 249.514 310.702 251.129 C 311.843 252.704,311.879 252.901,312.135 259.072 C 312.686 272.366,312.431 275.226,310.525 277.132 C 310.035 277.622,309.944 278.469,310.078 281.274 C 310.171 283.213,310.108 284.800,309.939 284.800 C 309.770 284.800,309.569 283.315,309.494 281.500 C 309.375 278.648,309.352 278.797,309.320 282.600 C 309.300 285.020,309.089 287.497,308.850 288.104 C 308.612 288.712,308.375 291.106,308.323 293.426 C 308.211 298.485,308.335 298.321,304.100 298.989 C 301.626 299.379,294.042 301.716,291.800 302.780 C 290.480 303.406,288.680 304.141,287.800 304.413 C 285.166 305.228,283.297 306.320,281.048 308.357 C 279.876 309.418,278.033 310.767,276.953 311.355 C 275.555 312.116,274.681 312.969,273.922 314.312 C 273.335 315.351,272.192 316.920,271.381 317.800 C 270.570 318.680,269.514 320.210,269.034 321.200 C 267.766 323.813,265.973 326.878,265.173 327.800 C 264.791 328.240,263.545 330.400,262.404 332.600 C 259.824 337.573,259.860 337.537,256.977 337.992 C 253.966 338.467,246.779 340.843,247.046 341.275 C 247.157 341.454,246.936 341.600,246.555 341.600 C 246.174 341.600,245.565 341.869,245.201 342.199 C 244.402 342.922,238.383 344.219,232.047 345.032 C 229.491 345.360,226.472 345.892,225.338 346.214 C 224.205 346.536,221.640 346.800,219.638 346.800 C 216.612 346.800,215.874 346.926,215.249 347.551 C 212.918 349.882,203.560 350.884,190.200 350.235 C 184.059 349.936,180.494 349.150,178.998 347.763 C 178.463 347.268,177.615 346.739,177.113 346.589 C 176.611 346.439,175.840 346.097,175.400 345.829 C 174.960 345.561,173.348 344.846,171.818 344.240 C 170.288 343.634,168.550 342.792,167.956 342.369 C 167.362 341.946,166.694 341.600,166.472 341.600 C 166.249 341.600,166.007 341.465,165.933 341.300 C 165.860 341.135,164.360 340.293,162.600 339.429 C 147.522 332.028,143.956 313.419,154.215 295.676 C 155.527 293.408,157.055 290.765,157.611 289.802 C 160.023 285.623,164.541 282.559,167.098 283.366 C 172.612 285.108,178.240 282.320,183.585 275.200 C 184.823 273.550,186.484 271.480,187.275 270.600 C 190.163 267.389,192.827 263.738,194.190 261.124 C 195.119 259.344,196.187 257.989,197.377 257.080 C 198.362 256.328,199.889 254.800,200.771 253.684 C 201.653 252.569,203.235 251.078,204.287 250.371 C 205.339 249.664,207.025 248.257,208.034 247.243 C 210.235 245.030,213.438 242.978,219.460 239.921 C 221.929 238.667,224.905 236.964,226.074 236.136 C 231.331 232.413,237.239 231.548,244.742 233.405 M111.988 239.685 C 113.708 240.769,115.512 244.344,115.579 246.800 C 115.595 247.415,113.098 250.206,110.091 252.934 C 109.161 253.777,108.400 254.704,108.400 254.992 C 108.400 256.021,104.536 258.059,101.906 258.417 C 100.528 258.604,98.769 258.873,97.998 259.015 C 95.125 259.543,92.860 254.938,94.741 252.394 C 95.154 251.835,95.962 250.393,96.536 249.189 C 97.194 247.809,98.114 246.639,99.025 246.024 C 99.820 245.488,101.118 244.258,101.910 243.292 C 102.829 242.170,104.325 241.044,106.045 240.177 C 107.528 239.431,108.856 238.633,108.998 238.403 C 109.139 238.174,109.468 238.115,109.728 238.272 C 109.987 238.429,111.004 239.065,111.988 239.685 " stroke="none" fill="#f4b9c3" fill-rule="evenodd"></path><path id="path4" d="M120.651 19.631 C 120.070 20.088,119.404 20.853,119.171 21.331 C 118.791 22.109,118.827 22.100,119.517 21.244 C 119.941 20.718,120.718 19.957,121.244 19.553 C 121.770 19.149,122.089 18.814,121.954 18.809 C 121.819 18.804,121.232 19.174,120.651 19.631 M184.200 20.170 C 183.312 20.541,175.868 22.424,170.600 23.610 C 157.111 26.648,151.334 34.408,155.581 43.784 C 156.451 45.705,157.025 47.875,157.433 50.784 C 158.052 55.194,158.229 56.188,159.502 62.400 C 160.328 66.431,163.406 73.216,165.667 75.991 C 168.719 79.737,164.984 81.307,156.083 80.020 C 151.832 79.405,147.373 80.963,143.000 84.590 C 141.900 85.502,139.110 87.486,136.800 88.998 C 129.689 93.653,126.870 95.905,121.594 101.148 C 118.797 103.927,114.849 107.820,112.820 109.800 C 110.792 111.780,108.285 114.613,107.250 116.095 C 106.215 117.577,103.376 120.910,100.942 123.502 C 98.279 126.337,95.504 129.805,93.976 132.207 C 92.580 134.403,90.875 136.920,90.187 137.800 C 89.500 138.680,88.429 140.300,87.807 141.400 C 87.186 142.500,85.755 144.672,84.628 146.227 C 83.501 147.782,81.627 150.866,80.463 153.081 C 79.298 155.296,78.033 157.443,77.651 157.854 C 76.833 158.734,76.445 159.477,69.856 172.800 C 66.228 180.134,64.523 184.068,63.786 186.800 C 62.781 190.522,61.288 194.533,59.364 198.675 C 58.834 199.817,58.400 201.028,58.400 201.368 C 58.400 201.707,57.962 203.923,57.427 206.293 C 56.891 208.662,55.885 214.200,55.191 218.600 C 54.497 223.000,53.509 228.580,52.996 231.000 C 50.660 242.008,51.935 260.726,56.427 281.400 C 57.336 285.580,58.212 289.630,58.375 290.400 C 58.537 291.170,59.242 292.925,59.941 294.300 C 60.640 295.675,61.928 299.013,62.805 301.719 C 64.419 306.700,64.386 306.640,72.007 318.800 C 73.041 320.450,74.202 322.413,74.586 323.162 C 74.971 323.912,75.639 324.902,76.072 325.362 C 76.505 325.823,78.151 327.901,79.730 329.979 C 84.008 335.612,93.945 345.835,99.057 349.864 C 105.666 355.071,109.545 357.931,111.000 358.667 C 114.252 360.313,119.882 363.530,122.635 365.316 C 125.752 367.338,126.962 367.860,132.000 369.358 C 133.870 369.914,136.972 371.173,138.894 372.155 C 142.529 374.012,143.342 374.233,151.600 375.608 C 154.350 376.066,159.494 377.151,163.030 378.020 C 181.424 382.539,210.530 382.735,226.400 378.446 C 229.820 377.522,242.408 374.993,245.379 374.633 C 246.467 374.501,249.347 373.566,251.779 372.555 C 254.210 371.544,259.068 369.740,262.574 368.546 C 266.080 367.352,269.140 366.219,269.374 366.028 C 270.051 365.476,284.028 358.400,284.441 358.400 C 285.090 358.400,291.149 354.489,292.502 353.197 C 293.216 352.515,294.985 351.256,296.433 350.400 C 297.882 349.543,299.308 348.552,299.603 348.196 C 299.898 347.840,302.043 346.182,304.370 344.511 C 309.288 340.977,315.227 335.317,319.383 330.200 C 320.991 328.220,322.863 326.060,323.542 325.400 C 324.222 324.740,324.795 324.020,324.816 323.800 C 324.837 323.580,325.657 322.320,326.639 321.000 C 327.621 319.680,328.914 317.822,329.513 316.870 C 330.111 315.919,331.795 313.261,333.256 310.963 C 334.718 308.665,336.312 305.754,336.799 304.493 C 337.286 303.232,338.551 300.310,339.610 298.000 C 341.871 293.067,342.769 290.193,344.421 282.600 C 345.091 279.520,346.064 275.200,346.583 273.000 C 348.811 263.569,349.424 256.444,349.058 244.234 C 348.793 235.389,348.228 230.722,346.777 225.400 C 346.357 223.860,345.486 219.538,344.842 215.795 C 343.378 207.297,341.846 200.856,340.609 198.000 C 340.085 196.790,338.728 193.190,337.593 190.000 C 335.140 183.106,332.916 178.272,329.422 172.244 C 328.006 169.800,326.205 166.296,325.420 164.458 C 324.078 161.312,322.912 159.305,321.701 158.060 C 321.413 157.762,320.431 156.161,319.519 154.500 C 318.608 152.840,317.231 150.653,316.459 149.642 C 315.687 148.631,314.109 146.363,312.952 144.602 C 311.796 142.841,310.144 140.500,309.282 139.400 C 308.420 138.300,306.697 136.050,305.454 134.400 C 300.857 128.300,298.121 125.062,297.310 124.762 C 296.852 124.593,295.430 123.137,294.150 121.527 C 291.861 118.648,286.530 113.138,283.396 110.412 C 280.333 107.747,277.382 105.110,274.951 102.863 C 269.189 97.539,267.371 96.078,261.449 92.017 C 260.982 91.697,259.952 90.938,259.159 90.331 C 258.367 89.723,256.387 88.474,254.759 87.553 C 253.132 86.633,251.080 85.304,250.200 84.599 C 249.320 83.894,245.388 81.661,241.463 79.636 L 234.326 75.954 230.525 76.327 C 227.643 76.610,226.467 76.905,225.662 77.547 C 223.414 79.338,222.289 79.597,219.542 78.956 C 216.504 78.247,216.722 78.489,217.400 76.585 C 217.711 75.713,217.973 74.399,217.982 73.663 C 217.995 72.698,218.606 71.487,220.181 69.303 C 223.459 64.757,223.878 62.372,224.176 46.560 C 224.544 27.074,224.303 26.650,211.200 23.670 C 208.230 22.995,203.820 21.987,201.400 21.429 C 197.322 20.490,185.503 19.625,184.200 20.170 M241.082 80.440 C 244.702 82.223,248.245 84.191,248.955 84.814 C 249.665 85.438,252.036 86.976,254.223 88.234 C 256.410 89.491,258.344 90.763,258.520 91.060 C 258.696 91.357,259.079 91.600,259.371 91.600 C 259.663 91.600,260.144 91.891,260.439 92.247 C 260.735 92.603,262.332 93.805,263.988 94.917 C 265.645 96.030,267.810 97.708,268.800 98.646 C 269.790 99.584,271.346 100.890,272.258 101.548 C 273.169 102.205,274.202 103.153,274.552 103.653 C 274.902 104.153,276.335 105.475,277.735 106.591 C 282.022 110.008,291.600 119.278,291.600 120.011 C 291.600 120.203,293.445 122.228,295.700 124.511 C 300.492 129.361,302.846 132.083,305.361 135.681 C 306.364 137.115,307.458 138.516,307.792 138.793 C 308.126 139.071,308.400 139.495,308.400 139.736 C 308.400 139.977,308.828 140.542,309.351 140.991 C 309.873 141.441,311.207 143.342,312.315 145.217 C 313.422 147.092,315.020 149.463,315.866 150.487 C 316.712 151.510,318.100 153.664,318.952 155.274 C 319.803 156.883,320.634 158.290,320.798 158.400 C 321.502 158.871,324.695 164.336,325.121 165.800 C 325.378 166.680,326.571 169.110,327.772 171.200 C 331.549 177.772,334.735 184.647,337.010 191.133 C 338.220 194.580,339.727 198.570,340.360 200.000 C 341.534 202.650,342.130 205.228,343.785 214.805 C 344.298 217.778,345.370 223.334,346.167 227.152 C 349.309 242.208,348.988 256.046,345.056 275.000 C 341.879 290.318,341.442 291.950,339.479 295.850 C 338.469 297.858,337.289 300.504,336.858 301.730 C 335.603 305.302,330.670 313.857,326.962 318.895 C 325.986 320.220,324.894 321.924,324.534 322.682 C 324.175 323.440,323.446 324.344,322.916 324.692 C 322.386 325.039,321.116 326.421,320.096 327.762 C 318.248 330.190,307.757 341.251,307.004 341.565 C 306.294 341.862,301.037 345.721,299.507 347.070 C 298.686 347.793,297.045 348.932,295.860 349.601 C 294.675 350.270,293.097 351.405,292.353 352.123 C 290.403 354.006,285.745 356.771,280.000 359.455 C 277.250 360.740,274.820 361.924,274.600 362.087 C 272.712 363.484,264.850 366.967,260.800 368.200 C 258.050 369.037,253.751 370.596,251.247 371.662 C 246.647 373.622,245.659 373.860,234.000 375.804 C 230.590 376.372,226.000 377.264,223.800 377.785 C 207.707 381.595,182.649 381.448,165.352 377.443 C 158.247 375.797,153.512 374.925,150.044 374.623 C 146.658 374.328,142.227 372.995,140.000 371.601 C 138.238 370.498,135.192 369.351,129.223 367.542 C 127.541 367.033,125.693 366.155,124.976 365.525 C 123.860 364.546,121.702 363.333,111.090 357.726 C 109.764 357.025,108.572 356.305,108.440 356.126 C 107.909 355.404,101.371 350.218,99.960 349.400 C 97.598 348.031,83.620 334.057,82.200 331.645 C 81.423 330.324,78.485 326.580,77.004 325.020 C 76.178 324.151,75.172 322.667,74.766 321.722 C 74.361 320.776,73.330 318.967,72.475 317.702 C 67.694 310.625,64.539 304.695,63.430 300.700 C 62.422 297.072,60.613 292.538,59.800 291.600 C 59.158 290.861,58.622 288.881,57.797 284.200 C 57.447 282.220,56.811 278.890,56.383 276.800 C 55.634 273.143,54.204 261.959,53.172 251.687 C 52.553 245.525,52.890 236.766,53.952 231.400 C 55.425 223.958,56.008 220.616,56.777 215.200 C 58.169 205.394,58.463 203.819,59.280 201.800 C 62.677 193.405,63.587 190.925,64.536 187.475 C 65.571 183.719,68.639 177.022,72.946 169.121 C 73.966 167.250,74.800 165.467,74.800 165.159 C 74.800 164.404,77.965 158.400,78.363 158.400 C 78.536 158.400,79.709 156.417,80.968 153.993 C 82.228 151.569,83.893 148.753,84.670 147.735 C 85.447 146.718,86.953 144.410,88.018 142.607 C 89.083 140.804,90.688 138.402,91.584 137.268 C 92.480 136.135,94.060 133.811,95.095 132.104 C 96.131 130.397,98.338 127.560,100.000 125.800 C 105.624 119.844,107.455 117.713,108.115 116.354 C 108.768 115.008,111.316 112.381,122.400 101.628 C 128.374 95.832,129.269 95.115,136.400 90.408 C 138.710 88.884,141.770 86.703,143.200 85.563 C 150.694 79.587,157.382 79.345,164.200 84.803 C 165.080 85.507,167.412 86.895,169.381 87.887 L 172.963 89.690 182.181 90.066 C 187.252 90.274,191.940 90.337,192.600 90.208 C 193.260 90.079,195.690 89.887,198.000 89.781 C 200.310 89.675,202.976 89.489,203.924 89.366 C 206.176 89.076,214.028 86.315,215.472 85.306 C 216.093 84.873,218.101 83.733,219.935 82.773 C 221.769 81.812,223.666 80.661,224.150 80.213 C 228.678 76.025,232.210 76.073,241.082 80.440 M33.051 169.631 C 32.470 170.088,31.804 170.853,31.571 171.331 C 31.191 172.109,31.227 172.100,31.917 171.244 C 32.341 170.718,33.118 169.957,33.644 169.553 C 34.170 169.149,34.489 168.814,34.354 168.809 C 34.219 168.804,33.632 169.174,33.051 169.631 M33.051 300.831 C 32.470 301.288,31.804 302.053,31.571 302.531 C 31.191 303.309,31.227 303.300,31.917 302.444 C 32.341 301.918,33.118 301.157,33.644 300.753 C 34.170 300.349,34.489 300.014,34.354 300.009 C 34.219 300.004,33.632 300.374,33.051 300.831 " stroke="none" fill="#ca9146" fill-rule="evenodd"></path></g></svg>