<svg id="svg" version="1.1" xmlns="http://www.w3.org/2000/svg" xmlns:xlink="http://www.w3.org/1999/xlink" width="400" height="400" viewBox="0, 0, 400,400"><g id="svgg"><path id="path0" d="M46.066 167.679 C 46.508 168.846,46.929 169.859,47.001 169.932 C 47.072 170.005,48.575 169.439,50.340 168.674 L 53.549 167.283 56.474 167.844 C 58.782 168.286,60.074 168.313,62.591 167.971 C 66.264 167.471,66.875 167.820,67.336 170.677 C 67.529 171.865,67.978 172.508,69.381 173.600 C 70.371 174.370,71.410 175.512,71.690 176.138 C 72.176 177.224,72.293 177.266,74.200 177.042 C 75.300 176.913,76.665 176.805,77.232 176.803 C 77.887 176.801,78.446 176.471,78.760 175.900 C 79.032 175.405,80.056 174.370,81.036 173.600 C 82.418 172.514,82.873 171.859,83.064 170.677 C 83.525 167.820,84.136 167.471,87.809 167.971 C 90.332 168.314,91.617 168.286,93.947 167.840 C 96.871 167.279,96.911 167.283,99.369 168.386 C 103.583 170.277,103.413 170.289,104.150 168.036 C 104.508 166.944,104.800 165.939,104.800 165.804 C 104.800 165.669,99.085 165.660,92.100 165.786 C 76.375 166.068,74.112 166.068,58.131 165.786 L 45.261 165.559 46.066 167.679 M137.284 166.215 C 137.001 166.537,136.248 166.800,135.611 166.800 C 134.810 166.800,134.377 167.043,134.203 167.590 C 133.851 168.699,132.025 169.900,130.000 170.355 C 126.318 171.183,126.617 168.638,126.478 200.363 L 126.356 228.304 127.347 229.452 L 128.338 230.600 129.569 229.425 L 130.800 228.250 130.800 202.705 C 130.800 181.244,130.892 176.982,131.376 176.045 C 131.898 175.037,136.971 172.400,138.391 172.400 C 138.616 172.400,138.800 171.522,138.800 170.449 C 138.800 167.677,139.230 167.439,143.706 167.737 C 149.200 168.102,172.540 168.149,176.036 167.802 C 180.057 167.404,181.664 168.094,182.635 170.636 C 183.124 171.917,183.530 172.400,184.117 172.400 C 187.679 172.400,188.967 175.609,188.852 184.200 C 188.700 195.577,188.949 195.367,174.892 195.993 C 162.760 196.534,162.616 196.600,161.429 202.222 C 161.157 203.509,165.492 208.400,166.904 208.400 C 167.220 208.400,168.541 209.524,169.839 210.899 C 171.138 212.273,172.560 213.583,173.000 213.809 C 173.440 214.035,173.857 214.614,173.926 215.096 C 174.085 216.202,177.430 219.955,178.681 220.431 C 179.198 220.627,179.752 221.129,179.911 221.545 C 180.242 222.412,184.889 226.400,185.567 226.400 C 185.815 226.400,186.224 226.853,186.476 227.407 C 186.889 228.314,190.088 230.800,190.841 230.800 C 191.175 230.800,192.800 228.643,192.800 228.200 C 192.800 227.346,191.025 225.626,189.895 225.384 C 188.143 225.010,187.600 224.500,187.600 223.232 C 187.600 221.911,184.966 219.200,183.683 219.200 C 182.513 219.200,181.200 217.841,181.200 216.629 C 181.200 215.085,178.625 213.200,176.516 213.200 C 175.068 213.200,174.791 213.066,174.649 212.300 C 174.558 211.805,174.273 210.230,174.015 208.800 C 173.758 207.370,173.120 205.546,172.599 204.747 C 170.298 201.220,174.723 198.706,181.360 199.771 C 183.910 200.179,184.875 200.179,186.360 199.771 C 187.372 199.492,188.857 199.155,189.661 199.021 C 192.641 198.526,193.341 194.882,193.091 181.176 C 192.891 170.205,192.563 169.200,189.187 169.200 C 186.279 169.200,185.290 168.688,184.977 167.018 L 184.711 165.600 161.255 165.615 C 141.193 165.628,137.725 165.715,137.284 166.215 M221.328 168.988 C 220.848 169.328,219.371 169.720,218.046 169.858 C 213.190 170.366,213.240 170.058,213.184 199.744 L 213.141 223.000 214.421 225.600 C 215.125 227.030,215.750 228.258,215.811 228.328 C 215.872 228.398,217.219 228.983,218.803 229.628 L 221.683 230.800 243.825 230.800 C 273.294 230.800,273.432 230.778,274.389 225.874 C 274.654 224.513,275.124 223.117,275.433 222.772 C 276.144 221.975,275.170 217.763,274.088 216.961 C 272.424 215.727,272.134 215.962,271.626 218.952 C 270.781 223.926,270.552 224.366,268.256 225.435 L 266.200 226.392 246.200 226.384 C 222.759 226.374,219.380 226.088,218.598 224.051 C 217.315 220.707,217.061 178.559,218.309 176.016 C 219.197 174.205,221.439 172.967,224.444 172.627 C 225.740 172.480,226.800 172.231,226.800 172.073 C 226.800 171.473,224.749 168.800,224.286 168.795 C 224.019 168.792,223.440 168.695,223.000 168.579 C 222.560 168.464,221.807 168.648,221.328 168.988 M358.422 170.057 C 357.972 170.795,357.589 171.580,357.571 171.800 C 357.553 172.020,357.508 176.520,357.470 181.800 C 357.363 196.571,359.254 195.662,328.637 195.651 C 308.076 195.644,307.264 195.582,304.601 193.837 C 304.154 193.544,303.200 193.176,302.481 193.018 C 300.242 192.526,299.963 191.621,299.737 184.124 C 299.625 180.415,299.715 176.234,299.939 174.800 L 300.343 172.200 298.872 170.906 C 295.803 168.208,295.481 169.240,295.572 181.471 C 295.653 192.304,295.821 193.181,297.964 193.928 C 298.900 194.254,299.212 194.656,299.430 195.817 C 299.643 196.956,300.110 197.576,301.483 198.544 L 303.260 199.796 312.936 199.658 C 324.510 199.492,323.886 199.249,325.680 204.617 L 326.878 208.200 326.820 218.313 C 326.767 227.557,326.825 228.505,327.494 229.356 L 328.225 230.286 329.608 229.338 L 330.991 228.391 330.882 221.095 C 330.823 217.083,330.668 212.843,330.538 211.674 C 330.272 209.288,331.122 207.295,334.088 203.342 C 336.682 199.886,338.251 199.438,346.800 199.710 L 353.800 199.932 356.800 198.466 L 359.800 197.000 360.745 194.400 C 361.807 191.478,362.252 172.765,361.301 170.989 C 360.172 168.879,359.310 168.600,358.422 170.057 M266.229 169.829 C 265.883 170.174,265.600 170.592,265.600 170.756 C 265.600 170.920,265.015 171.346,264.300 171.702 L 263.000 172.349 264.655 172.374 C 266.522 172.403,269.563 174.211,270.971 176.129 C 271.774 177.222,271.806 177.838,272.000 195.729 L 272.200 214.200 273.000 212.800 C 273.965 211.111,274.357 196.726,273.648 188.977 C 273.282 184.972,273.320 184.246,274.017 181.955 C 275.371 177.501,275.145 171.561,273.569 170.236 C 272.062 168.967,267.351 168.706,266.229 169.829 " stroke="none" fill="#76bfcc" fill-rule="evenodd"></path><path id="path1" d="M0.000 200.000 L 0.000 400.000 200.000 400.000 L 400.000 400.000 400.000 200.000 L 400.000 0.000 200.000 0.000 L 0.000 0.000 0.000 200.000 M111.400 162.000 C 114.224 163.412,115.428 169.414,113.759 173.763 C 112.891 176.025,95.733 177.497,87.000 176.060 C 84.659 175.674,84.571 175.693,83.425 176.815 L 82.250 177.966 82.625 181.683 C 82.838 183.793,82.914 195.257,82.800 208.200 C 82.574 233.911,82.707 232.853,79.518 234.394 C 75.826 236.178,70.025 235.071,68.507 232.294 C 67.673 230.768,67.063 188.686,67.773 181.683 L 68.150 177.966 66.975 176.815 C 65.829 175.693,65.741 175.674,63.400 176.060 C 59.195 176.752,40.911 176.300,38.937 175.455 C 35.314 173.904,35.026 163.965,38.550 162.112 C 40.663 161.000,44.332 160.890,77.400 160.946 L 109.400 161.000 111.400 162.000 M189.087 161.737 C 192.423 162.834,196.127 167.476,196.612 171.167 C 196.744 172.175,197.242 173.720,197.718 174.600 C 199.097 177.151,199.148 190.568,197.789 193.200 C 197.278 194.190,196.667 196.170,196.432 197.600 C 195.899 200.849,195.044 202.037,192.690 202.800 C 191.380 203.225,190.772 203.662,190.613 204.295 C 190.276 205.633,188.863 206.355,185.357 206.982 C 177.132 208.455,176.706 208.772,180.505 210.600 C 182.084 211.360,183.294 212.264,183.800 213.064 C 184.240 213.759,185.550 214.909,186.711 215.619 C 188.754 216.869,189.222 217.343,191.800 220.768 C 192.460 221.645,193.194 222.371,193.430 222.381 C 194.811 222.441,196.489 225.561,196.541 228.168 C 196.621 232.104,196.203 233.053,193.514 235.032 L 191.070 236.831 189.835 235.684 C 188.699 234.629,184.254 232.400,183.286 232.400 C 182.719 232.400,180.800 230.070,180.800 229.383 C 180.800 228.356,178.434 226.122,176.609 225.425 C 175.163 224.873,174.800 224.543,174.800 223.781 C 174.800 222.513,172.651 220.119,171.233 219.807 C 169.918 219.518,168.617 218.229,168.200 216.800 C 167.770 215.328,166.421 214.000,164.518 213.174 C 163.200 212.602,162.637 212.031,161.918 210.534 C 161.146 208.929,160.629 208.444,158.670 207.489 C 155.723 206.052,155.200 204.940,155.201 200.113 C 155.202 192.579,155.732 192.324,172.107 191.979 C 178.875 191.837,184.545 191.588,184.707 191.426 C 184.868 191.265,185.013 188.673,185.029 185.666 C 185.045 182.660,185.179 179.750,185.326 179.200 C 186.042 176.536,186.769 176.626,162.483 176.366 L 140.600 176.132 138.508 177.127 C 136.203 178.224,136.209 178.196,137.491 181.800 C 137.961 183.119,138.052 187.370,138.011 205.986 C 137.950 233.666,138.502 231.340,131.135 234.989 L 128.070 236.507 126.053 234.806 C 123.040 232.266,123.128 233.385,123.273 199.400 L 123.400 169.800 124.315 168.087 C 124.998 166.807,125.536 166.313,126.445 166.131 C 127.278 165.964,127.966 165.405,128.629 164.354 C 130.825 160.875,130.955 160.863,162.800 160.970 C 184.445 161.042,187.220 161.123,189.087 161.737 M269.280 161.649 C 272.139 162.255,274.356 163.432,274.790 164.574 C 275.220 165.705,278.226 168.866,279.538 169.567 C 280.054 169.843,280.954 171.088,281.538 172.334 L 282.600 174.600 282.600 199.200 C 282.600 226.917,282.740 225.638,279.510 227.388 C 278.436 227.971,277.992 228.516,277.812 229.476 C 277.316 232.121,275.420 233.524,271.433 234.197 C 270.447 234.363,269.570 234.838,269.066 235.479 C 267.410 237.585,267.222 237.602,245.513 237.576 C 223.083 237.550,221.950 237.465,220.373 235.700 C 219.360 234.567,217.119 233.600,214.111 232.999 C 212.717 232.720,210.800 230.776,210.800 229.641 C 210.800 228.267,209.506 225.178,208.764 224.781 C 206.590 223.617,206.591 223.629,206.706 199.873 C 206.819 176.476,206.834 176.293,208.814 174.185 C 209.241 173.730,209.775 172.388,210.000 171.203 C 210.625 167.905,211.567 166.875,214.906 165.839 C 215.294 165.719,215.769 165.211,215.960 164.710 C 216.495 163.311,217.812 162.327,219.900 161.765 C 222.449 161.080,266.109 160.977,269.280 161.649 M301.243 163.277 C 306.562 165.507,307.251 167.508,307.213 180.611 C 307.192 188.065,307.316 191.224,307.637 191.423 C 308.229 191.789,349.809 191.770,351.984 191.403 L 353.649 191.121 353.553 180.461 C 353.429 166.739,354.388 163.221,358.536 162.180 C 361.804 161.360,365.600 165.557,365.600 169.991 C 365.600 170.630,365.780 171.264,366.000 171.400 C 367.009 172.023,366.467 187.857,365.232 193.851 C 363.873 200.449,363.595 200.999,361.201 201.847 C 358.305 202.872,357.834 203.166,357.137 204.380 C 355.557 207.133,349.832 208.197,343.948 206.832 L 340.896 206.124 339.248 207.692 C 337.383 209.466,337.401 209.379,338.160 213.074 C 339.679 220.474,338.201 232.167,335.580 233.484 C 328.163 237.211,328.248 237.194,326.263 235.350 C 323.451 232.736,322.373 223.994,323.508 213.000 C 324.152 206.762,323.285 205.959,317.200 207.157 C 312.025 208.176,302.880 206.644,301.167 204.471 C 300.631 203.791,298.747 202.520,296.942 201.619 C 292.117 199.210,291.598 197.233,291.602 181.271 C 291.607 163.724,293.570 160.060,301.243 163.277 M263.528 176.205 C 263.415 176.318,254.120 176.453,242.873 176.505 C 222.988 176.597,222.402 176.622,221.711 177.400 C 221.043 178.152,221.013 179.483,221.216 199.600 C 221.436 221.344,221.495 222.186,222.831 222.610 C 224.414 223.112,266.405 222.955,266.916 222.444 C 267.281 222.079,267.410 216.928,267.443 201.480 C 267.466 190.216,267.619 180.399,267.783 179.663 C 268.253 177.545,264.908 174.825,263.528 176.205 " stroke="none" fill="#2b2b2b" fill-rule="evenodd"></path><path id="path2" d="M43.840 162.865 C 39.358 163.475,38.320 164.700,38.645 169.000 C 39.072 174.663,39.515 174.818,55.043 174.756 C 66.976 174.708,67.359 174.762,68.604 176.662 C 69.276 177.688,69.315 179.320,69.232 203.059 C 69.125 233.782,68.848 232.400,75.115 232.400 C 81.584 232.400,81.275 233.901,81.167 202.983 C 81.087 180.008,81.141 177.550,81.739 176.636 C 82.963 174.769,83.422 174.707,95.439 174.776 C 110.873 174.864,111.311 174.709,111.751 169.000 C 112.093 164.556,111.163 163.562,106.000 162.855 C 102.452 162.369,47.426 162.378,43.840 162.865 M137.200 162.667 C 133.837 162.881,133.276 163.098,131.265 164.961 C 130.239 165.911,128.640 167.163,127.710 167.743 C 124.367 169.829,124.615 167.368,124.479 199.785 C 124.345 231.520,124.312 231.039,126.719 232.658 C 128.684 233.981,132.343 232.417,133.779 229.641 C 134.287 228.659,134.658 190.593,134.268 179.439 L 134.200 177.478 136.801 176.119 L 139.402 174.760 160.201 174.784 C 184.906 174.814,184.512 174.782,185.877 176.845 C 186.638 177.995,186.823 178.654,186.616 179.480 C 186.464 180.086,186.345 183.015,186.351 185.991 C 186.367 193.349,187.205 192.840,174.420 193.246 C 158.426 193.754,157.600 194.113,157.600 200.543 C 157.600 204.395,157.085 203.644,163.923 209.766 C 166.606 212.167,168.800 214.278,168.800 214.457 C 168.800 215.563,185.365 231.172,187.823 232.381 C 194.202 235.522,198.383 227.839,192.387 223.992 C 191.054 223.136,190.171 222.179,189.569 220.937 C 188.723 219.188,186.055 216.800,184.949 216.800 C 184.657 216.800,184.112 216.305,183.736 215.700 C 182.526 213.748,181.042 212.347,179.175 211.394 C 176.388 209.971,176.240 209.657,177.181 207.142 L 177.985 204.993 181.219 205.140 C 184.245 205.278,184.576 205.210,186.390 204.082 C 187.456 203.420,189.014 202.635,189.853 202.339 C 194.983 200.526,195.800 197.896,195.800 183.200 L 195.800 172.600 194.710 170.400 C 193.591 168.142,189.696 164.653,186.712 163.234 C 185.470 162.644,144.874 162.179,137.200 162.667 M222.579 163.166 C 220.999 163.426,218.400 164.928,218.400 165.581 C 218.400 165.760,217.233 166.488,215.806 167.197 C 212.705 168.739,211.994 169.750,210.580 174.630 L 209.552 178.179 209.678 200.189 L 209.805 222.200 211.344 225.900 C 213.222 230.413,214.024 231.142,218.887 232.762 L 222.602 234.000 244.269 234.000 C 264.741 234.000,266.128 233.955,269.398 233.178 C 274.349 232.002,274.527 231.880,276.421 228.361 C 277.351 226.632,278.408 225.124,278.770 225.010 C 280.982 224.308,281.000 224.098,281.000 199.600 C 281.000 182.333,280.882 176.764,280.501 176.000 C 280.031 175.060,279.056 173.596,275.924 169.123 C 275.154 168.024,273.922 166.903,272.949 166.417 C 272.035 165.961,271.072 165.327,270.807 165.009 C 269.086 162.934,267.443 162.796,245.085 162.850 C 233.598 162.878,223.471 163.020,222.579 163.166 M108.200 164.862 C 109.787 165.493,109.799 165.514,109.697 167.449 C 109.377 173.529,109.697 173.400,94.984 173.400 L 83.768 173.400 82.072 174.743 C 79.939 176.432,79.040 178.101,79.372 179.755 C 79.970 182.741,79.615 228.518,78.986 229.477 C 78.079 230.861,72.329 230.875,71.426 229.495 C 70.790 228.525,70.396 181.894,71.003 179.512 C 71.371 178.069,70.062 175.956,67.862 174.442 L 66.195 173.296 56.398 173.500 C 47.117 173.694,42.356 173.289,41.280 172.214 C 40.893 171.826,40.446 165.794,40.780 165.460 C 42.333 163.907,104.409 163.357,108.200 164.862 M185.676 164.441 C 186.130 164.683,187.301 165.493,188.281 166.241 C 189.260 166.988,190.267 167.600,190.519 167.600 C 191.079 167.600,193.024 169.785,193.861 171.355 C 194.714 172.954,195.047 187.810,194.354 193.341 C 193.793 197.815,192.488 200.100,190.200 200.612 C 189.540 200.760,187.920 201.403,186.600 202.042 L 184.200 203.204 181.240 202.637 C 176.680 201.764,175.776 202.326,175.406 206.270 C 175.070 209.857,175.507 210.734,178.343 212.171 C 180.171 213.097,182.800 215.593,182.800 216.402 C 182.800 216.607,183.800 217.415,185.022 218.197 C 186.448 219.109,187.683 220.324,188.468 221.586 C 189.140 222.668,190.397 224.021,191.261 224.593 C 194.625 226.819,194.850 228.699,192.069 231.343 L 190.866 232.486 188.755 231.343 C 186.377 230.056,178.233 222.632,173.400 217.344 C 169.288 212.847,167.807 211.372,163.079 207.072 L 159.200 203.545 159.200 200.201 L 159.200 196.857 161.500 195.973 C 163.429 195.230,165.024 195.036,171.400 194.768 C 184.548 194.214,184.773 194.183,186.283 192.720 L 187.600 191.443 187.600 184.502 C 187.600 175.430,187.111 174.428,182.395 173.841 C 176.193 173.068,139.876 173.502,137.475 174.377 C 132.254 176.280,132.689 173.625,132.773 203.034 L 132.846 228.320 131.625 229.711 C 129.759 231.835,128.214 232.340,127.017 231.216 C 125.144 229.456,125.158 229.699,125.282 200.142 L 125.400 172.137 126.533 170.652 C 127.156 169.835,128.333 168.900,129.148 168.574 C 129.963 168.248,131.401 167.185,132.344 166.213 C 133.629 164.887,134.425 164.406,135.529 164.290 C 139.356 163.886,184.896 164.023,185.676 164.441 M270.018 166.487 C 274.294 168.695,275.727 170.148,276.783 173.349 C 277.047 174.147,277.395 174.800,277.557 174.800 C 279.410 174.800,279.601 176.963,279.579 197.654 C 279.555 221.230,279.464 222.451,277.607 224.110 C 276.870 224.769,275.859 226.318,275.360 227.554 C 273.450 232.288,272.733 232.400,244.266 232.400 L 222.203 232.400 219.075 231.359 C 215.101 230.035,214.349 229.333,212.615 225.335 L 211.200 222.070 211.214 199.935 C 211.230 173.504,211.612 170.584,215.266 168.955 C 218.344 167.583,219.973 166.648,220.167 166.142 C 220.788 164.524,222.089 164.432,244.487 164.416 L 265.974 164.400 270.018 166.487 M357.719 166.429 C 354.959 169.403,355.013 169.135,354.876 180.702 L 354.752 191.205 353.676 191.744 C 351.144 193.014,347.814 193.206,328.988 193.165 C 318.654 193.142,310.019 193.186,309.798 193.262 C 309.577 193.338,308.363 192.860,307.099 192.200 L 304.802 191.000 304.720 188.000 C 304.676 186.350,304.699 182.000,304.772 178.333 C 304.942 169.874,304.292 168.618,298.349 165.919 L 296.899 165.260 295.670 166.530 C 293.189 169.093,293.055 169.884,293.150 181.400 C 293.283 197.647,294.701 199.982,306.767 203.811 L 310.134 204.880 316.144 204.402 C 322.945 203.860,322.543 203.721,324.040 207.133 C 324.725 208.695,324.800 209.928,324.800 219.602 L 324.800 230.339 325.843 231.578 C 328.020 234.166,331.174 233.653,334.363 230.194 L 336.000 228.418 335.991 222.309 C 335.987 218.949,335.746 214.627,335.457 212.704 L 334.931 209.208 337.838 206.389 C 340.147 204.151,340.936 203.612,341.672 203.770 C 348.125 205.153,350.704 204.869,356.400 202.152 C 363.807 198.618,364.382 197.115,364.393 181.287 C 364.401 170.116,364.268 169.355,361.880 166.867 C 359.722 164.620,359.428 164.589,357.719 166.429 M362.027 169.507 L 363.200 171.357 363.200 181.186 C 363.200 195.874,362.587 197.616,356.401 200.500 L 353.003 202.084 347.601 202.025 C 344.631 201.993,341.720 201.947,341.133 201.924 C 338.710 201.828,332.478 208.302,332.987 210.386 C 333.124 210.944,333.341 215.143,333.471 219.717 L 333.708 228.034 332.754 229.055 C 332.229 229.617,331.009 230.541,330.043 231.109 L 328.286 232.143 326.943 230.677 L 325.600 229.212 325.600 219.225 C 325.600 208.422,325.269 205.953,323.454 203.210 L 322.505 201.775 317.952 202.111 C 304.898 203.073,298.818 200.819,295.349 193.731 C 294.423 191.839,293.867 179.374,294.361 171.578 C 294.382 171.236,294.942 170.101,295.605 169.056 L 296.811 167.155 298.446 168.074 C 299.345 168.579,300.691 169.668,301.437 170.494 L 302.793 171.994 302.577 176.297 C 302.458 178.664,302.277 181.135,302.173 181.789 C 301.757 184.411,302.836 191.085,303.750 191.544 C 304.218 191.779,305.526 192.503,306.659 193.152 L 308.717 194.332 328.338 194.365 C 350.156 194.401,352.731 194.183,354.893 192.111 L 356.000 191.050 356.000 181.203 L 356.000 171.357 357.250 169.378 C 359.226 166.250,359.974 166.270,362.027 169.507 M224.047 174.244 C 218.471 175.184,218.724 173.942,218.875 199.644 C 219.011 222.851,219.047 223.222,221.266 224.454 C 221.999 224.862,227.033 224.976,244.691 224.986 L 267.183 225.000 268.373 223.800 C 270.269 221.889,270.455 219.482,270.419 197.400 C 270.383 175.421,270.592 176.970,267.362 174.705 L 265.800 173.610 246.379 173.682 C 233.209 173.730,226.022 173.911,224.047 174.244 M267.680 176.300 L 269.123 177.800 269.165 196.800 C 269.212 218.175,268.972 221.537,267.271 223.328 L 266.200 224.457 244.309 224.328 L 222.418 224.200 221.309 223.091 L 220.200 221.982 219.999 200.091 L 219.798 178.200 220.840 176.800 C 222.249 174.906,221.931 174.930,245.819 174.860 L 266.238 174.800 267.680 176.300 " stroke="none" fill="#4c747c" fill-rule="evenodd"></path><path id="path3" d="M43.271 164.592 C 42.100 164.871,40.979 165.261,40.780 165.460 C 40.446 165.794,40.893 171.826,41.280 172.214 C 42.356 173.289,47.117 173.694,56.398 173.500 L 66.195 173.296 67.862 174.442 C 70.062 175.956,71.371 178.069,71.003 179.512 C 70.396 181.894,70.790 228.525,71.426 229.495 C 72.329 230.875,78.079 230.861,78.986 229.477 C 79.615 228.518,79.970 182.741,79.372 179.755 C 79.040 178.101,79.939 176.432,82.072 174.743 L 83.768 173.400 94.984 173.400 C 109.697 173.400,109.377 173.529,109.697 167.449 C 109.875 164.083,111.464 164.238,76.000 164.156 C 52.494 164.102,44.906 164.203,43.271 164.592 M135.529 164.290 C 134.425 164.406,133.629 164.887,132.344 166.213 C 131.401 167.185,129.963 168.248,129.148 168.574 C 128.333 168.900,127.156 169.835,126.533 170.652 L 125.400 172.137 125.282 200.142 C 125.158 229.699,125.144 229.456,127.017 231.216 C 128.214 232.340,129.759 231.835,131.625 229.711 L 132.846 228.320 132.773 203.034 C 132.689 173.625,132.254 176.280,137.475 174.377 C 139.876 173.502,176.193 173.068,182.395 173.841 C 187.111 174.428,187.600 175.430,187.600 184.502 L 187.600 191.443 186.283 192.720 C 184.773 194.183,184.548 194.214,171.400 194.768 C 165.024 195.036,163.429 195.230,161.500 195.973 L 159.200 196.857 159.200 200.201 L 159.200 203.545 163.079 207.072 C 167.807 211.372,169.288 212.847,173.400 217.344 C 178.233 222.632,186.377 230.056,188.755 231.343 L 190.866 232.486 192.069 231.343 C 194.850 228.699,194.625 226.819,191.261 224.593 C 190.397 224.021,189.140 222.668,188.468 221.586 C 187.683 220.324,186.448 219.109,185.022 218.197 C 183.800 217.415,182.800 216.607,182.800 216.402 C 182.800 215.593,180.171 213.097,178.343 212.171 C 175.507 210.734,175.070 209.857,175.406 206.270 C 175.776 202.326,176.680 201.764,181.240 202.637 L 184.200 203.204 186.600 202.042 C 187.920 201.403,189.540 200.760,190.200 200.612 C 192.488 200.100,193.793 197.815,194.354 193.341 C 195.047 187.810,194.714 172.954,193.861 171.355 C 193.024 169.785,191.079 167.600,190.519 167.600 C 190.267 167.600,189.260 166.988,188.281 166.241 C 187.301 165.493,186.130 164.683,185.676 164.441 C 184.896 164.023,139.356 163.886,135.529 164.290 M221.694 164.999 C 220.975 165.311,220.288 165.825,220.167 166.142 C 219.973 166.648,218.344 167.583,215.266 168.955 C 211.612 170.584,211.230 173.504,211.214 199.935 L 211.200 222.070 212.615 225.335 C 214.349 229.333,215.101 230.035,219.075 231.359 L 222.203 232.400 244.266 232.400 C 272.733 232.400,273.450 232.288,275.360 227.554 C 275.859 226.318,276.870 224.769,277.607 224.110 C 279.464 222.451,279.555 221.230,279.579 197.654 C 279.601 176.963,279.410 174.800,277.557 174.800 C 277.395 174.800,277.047 174.147,276.783 173.349 C 275.727 170.148,274.294 168.695,270.018 166.487 L 265.974 164.400 244.487 164.416 C 226.838 164.429,222.767 164.533,221.694 164.999 M75.200 166.013 C 77.510 166.013,85.115 165.911,92.100 165.786 C 99.085 165.660,104.800 165.669,104.800 165.804 C 104.800 165.939,104.508 166.944,104.150 168.036 C 103.413 170.289,103.583 170.277,99.369 168.386 C 96.911 167.283,96.871 167.279,93.947 167.840 C 91.617 168.286,90.332 168.314,87.809 167.971 C 84.136 167.471,83.525 167.820,83.064 170.677 C 82.873 171.859,82.418 172.514,81.036 173.600 C 80.056 174.370,79.032 175.405,78.760 175.900 C 78.446 176.471,77.887 176.801,77.232 176.803 C 76.665 176.805,75.300 176.913,74.200 177.042 C 72.293 177.266,72.176 177.224,71.690 176.138 C 71.410 175.512,70.371 174.370,69.381 173.600 C 67.978 172.508,67.529 171.865,67.336 170.677 C 66.875 167.820,66.264 167.471,62.591 167.971 C 60.074 168.313,58.782 168.286,56.474 167.844 L 53.549 167.283 50.340 168.674 C 48.575 169.439,47.072 170.005,47.001 169.932 C 46.929 169.859,46.508 168.846,46.066 167.679 L 45.261 165.559 58.131 165.786 C 65.209 165.911,72.890 166.013,75.200 166.013 M184.977 167.018 C 185.290 168.688,186.279 169.200,189.187 169.200 C 192.563 169.200,192.891 170.205,193.091 181.176 C 193.341 194.882,192.641 198.526,189.661 199.021 C 188.857 199.155,187.372 199.492,186.360 199.771 C 184.875 200.179,183.910 200.179,181.360 199.771 C 174.723 198.706,170.298 201.220,172.599 204.747 C 173.120 205.546,173.758 207.370,174.015 208.800 C 174.273 210.230,174.558 211.805,174.649 212.300 C 174.791 213.066,175.068 213.200,176.516 213.200 C 178.625 213.200,181.200 215.085,181.200 216.629 C 181.200 217.841,182.513 219.200,183.683 219.200 C 184.966 219.200,187.600 221.911,187.600 223.232 C 187.600 224.500,188.143 225.010,189.895 225.384 C 191.025 225.626,192.800 227.346,192.800 228.200 C 192.800 228.643,191.175 230.800,190.841 230.800 C 190.088 230.800,186.889 228.314,186.476 227.407 C 186.224 226.853,185.815 226.400,185.567 226.400 C 184.889 226.400,180.242 222.412,179.911 221.545 C 179.752 221.129,179.198 220.627,178.681 220.431 C 177.430 219.955,174.085 216.202,173.926 215.096 C 173.857 214.614,173.440 214.035,173.000 213.809 C 172.560 213.583,171.138 212.273,169.839 210.899 C 168.541 209.524,167.220 208.400,166.904 208.400 C 165.492 208.400,161.157 203.509,161.429 202.222 C 162.616 196.600,162.760 196.534,174.892 195.993 C 188.949 195.367,188.700 195.577,188.852 184.200 C 188.967 175.609,187.679 172.400,184.117 172.400 C 183.530 172.400,183.124 171.917,182.635 170.636 C 181.664 168.094,180.057 167.404,176.036 167.802 C 172.540 168.149,149.200 168.102,143.706 167.737 C 139.230 167.439,138.800 167.677,138.800 170.449 C 138.800 171.522,138.616 172.400,138.391 172.400 C 136.971 172.400,131.898 175.037,131.376 176.045 C 130.892 176.982,130.800 181.244,130.800 202.705 L 130.800 228.250 129.569 229.425 L 128.338 230.600 127.347 229.452 L 126.356 228.304 126.478 200.363 C 126.617 168.638,126.318 171.183,130.000 170.355 C 132.025 169.900,133.851 168.699,134.203 167.590 C 134.377 167.043,134.810 166.800,135.611 166.800 C 136.248 166.800,137.001 166.537,137.284 166.215 C 137.725 165.715,141.193 165.628,161.255 165.615 L 184.711 165.600 184.977 167.018 M358.928 167.128 C 358.693 167.278,357.938 168.290,357.250 169.378 L 356.000 171.357 356.000 181.203 L 356.000 191.050 354.893 192.111 C 352.731 194.183,350.156 194.401,328.338 194.365 L 308.717 194.332 306.659 193.152 C 305.526 192.503,304.218 191.779,303.750 191.544 C 302.836 191.085,301.757 184.411,302.173 181.789 C 302.277 181.135,302.458 178.664,302.577 176.297 L 302.793 171.994 301.437 170.494 C 300.691 169.668,299.345 168.579,298.446 168.074 L 296.811 167.155 295.605 169.056 C 294.942 170.101,294.382 171.236,294.361 171.578 C 292.699 197.810,297.204 203.641,317.952 202.111 L 322.505 201.775 323.454 203.210 C 325.269 205.953,325.600 208.422,325.600 219.225 L 325.600 229.212 326.943 230.677 L 328.286 232.143 330.043 231.109 C 331.009 230.541,332.229 229.617,332.754 229.055 L 333.708 228.034 333.471 219.717 C 333.341 215.143,333.124 210.944,332.987 210.386 C 332.478 208.302,338.710 201.828,341.133 201.924 C 341.720 201.947,344.631 201.993,347.601 202.025 L 353.003 202.084 356.401 200.500 C 362.587 197.616,363.200 195.874,363.200 181.186 L 363.200 171.357 362.027 169.507 C 360.790 167.556,359.642 166.675,358.928 167.128 M224.286 168.795 C 224.749 168.800,226.800 171.473,226.800 172.073 C 226.800 172.231,225.740 172.480,224.444 172.627 C 221.439 172.967,219.197 174.205,218.309 176.016 C 217.061 178.559,217.315 220.707,218.598 224.051 C 219.380 226.088,222.759 226.374,246.200 226.384 L 266.200 226.392 268.256 225.435 C 270.552 224.366,270.781 223.926,271.626 218.952 C 272.134 215.962,272.424 215.727,274.088 216.961 C 275.170 217.763,276.144 221.975,275.433 222.772 C 275.124 223.117,274.654 224.513,274.389 225.874 C 273.432 230.778,273.294 230.800,243.825 230.800 L 221.683 230.800 218.803 229.628 C 217.219 228.983,215.872 228.398,215.811 228.328 C 215.750 228.258,215.125 227.030,214.421 225.600 L 213.141 223.000 213.184 199.744 C 213.240 170.058,213.190 170.366,218.046 169.858 C 219.371 169.720,220.848 169.328,221.328 168.988 C 221.807 168.648,222.560 168.464,223.000 168.579 C 223.440 168.695,224.019 168.792,224.286 168.795 M361.301 170.989 C 362.252 172.765,361.807 191.478,360.745 194.400 L 359.800 197.000 356.800 198.466 L 353.800 199.932 346.800 199.710 C 338.251 199.438,336.682 199.886,334.088 203.342 C 331.122 207.295,330.272 209.288,330.538 211.674 C 330.668 212.843,330.823 217.083,330.882 221.095 L 330.991 228.391 329.608 229.338 L 328.225 230.286 327.494 229.356 C 326.825 228.505,326.767 227.557,326.820 218.313 L 326.878 208.200 325.680 204.617 C 323.886 199.249,324.510 199.492,312.936 199.658 L 303.260 199.796 301.483 198.544 C 300.110 197.576,299.643 196.956,299.430 195.817 C 299.212 194.656,298.900 194.254,297.964 193.928 C 295.821 193.181,295.653 192.304,295.572 181.471 C 295.481 169.240,295.803 168.208,298.872 170.906 L 300.343 172.200 299.939 174.800 C 299.715 176.234,299.625 180.415,299.737 184.124 C 299.963 191.621,300.242 192.526,302.481 193.018 C 303.200 193.176,304.154 193.544,304.601 193.837 C 307.264 195.582,308.076 195.644,328.637 195.651 C 359.254 195.662,357.363 196.571,357.470 181.800 C 357.508 176.520,357.553 172.020,357.571 171.800 C 357.793 169.027,359.995 168.549,361.301 170.989 M273.569 170.236 C 275.145 171.561,275.371 177.501,274.017 181.955 C 273.320 184.246,273.282 184.972,273.648 188.977 C 274.357 196.726,273.965 211.111,273.000 212.800 L 272.200 214.200 272.000 195.729 C 271.806 177.838,271.774 177.222,270.971 176.129 C 269.563 174.211,266.522 172.403,264.655 172.374 L 263.000 172.349 264.300 171.702 C 265.015 171.346,265.600 170.920,265.600 170.756 C 265.600 168.892,271.514 168.506,273.569 170.236 M267.362 174.705 C 270.592 176.970,270.383 175.421,270.419 197.400 C 270.455 219.482,270.269 221.889,268.373 223.800 L 267.183 225.000 244.691 224.986 C 219.947 224.972,220.843 225.062,219.666 222.468 C 218.816 220.595,218.400 179.132,219.211 177.173 C 220.531 173.987,222.215 173.771,246.379 173.682 L 265.800 173.610 267.362 174.705 " stroke="none" fill="#5c8c94" fill-rule="evenodd"></path><path id="path4" d="M42.600 161.173 C 37.218 161.713,35.976 163.292,36.280 169.200 C 36.632 176.042,36.777 176.113,50.800 176.311 C 56.416 176.390,62.079 176.277,63.400 176.060 C 65.741 175.674,65.829 175.693,66.975 176.815 L 68.150 177.966 67.773 181.683 C 67.557 183.809,67.483 195.160,67.598 208.200 C 67.826 233.911,67.693 232.853,70.882 234.394 C 74.574 236.178,80.375 235.071,81.893 232.294 C 82.725 230.771,83.333 188.705,82.625 181.683 L 82.250 177.966 83.425 176.815 C 84.571 175.693,84.659 175.674,87.000 176.060 C 95.733 177.497,112.891 176.025,113.759 173.763 C 115.428 169.414,114.224 163.412,111.400 162.000 L 109.400 161.000 77.400 160.946 C 59.800 160.916,44.140 161.018,42.600 161.173 M135.125 161.182 C 131.198 161.514,130.076 162.062,128.629 164.354 C 127.966 165.405,127.278 165.964,126.445 166.131 C 125.536 166.313,124.998 166.807,124.315 168.087 L 123.400 169.800 123.273 199.400 C 123.128 233.385,123.040 232.266,126.053 234.806 L 128.070 236.507 131.135 234.989 C 138.502 231.340,137.950 233.666,138.011 205.986 C 138.052 187.370,137.961 183.119,137.491 181.800 C 136.209 178.196,136.203 178.224,138.508 177.127 L 140.600 176.132 162.483 176.366 C 186.769 176.626,186.042 176.536,185.326 179.200 C 185.179 179.750,185.045 182.660,185.029 185.666 C 185.013 188.673,184.868 191.265,184.707 191.426 C 184.545 191.588,178.875 191.837,172.107 191.979 C 155.732 192.324,155.202 192.579,155.201 200.113 C 155.200 204.940,155.723 206.052,158.670 207.489 C 160.629 208.444,161.146 208.929,161.918 210.534 C 162.637 212.031,163.200 212.602,164.518 213.174 C 166.421 214.000,167.770 215.328,168.200 216.800 C 168.617 218.229,169.918 219.518,171.233 219.807 C 172.651 220.119,174.800 222.513,174.800 223.781 C 174.800 224.543,175.163 224.873,176.609 225.425 C 178.434 226.122,180.800 228.356,180.800 229.383 C 180.800 230.070,182.719 232.400,183.286 232.400 C 184.254 232.400,188.699 234.629,189.835 235.684 L 191.070 236.831 193.514 235.032 C 196.203 233.053,196.621 232.104,196.541 228.168 C 196.489 225.561,194.811 222.441,193.430 222.381 C 193.194 222.371,192.460 221.645,191.800 220.768 C 189.222 217.343,188.754 216.869,186.711 215.619 C 185.550 214.909,184.240 213.759,183.800 213.064 C 183.294 212.264,182.084 211.360,180.505 210.600 C 176.706 208.772,177.132 208.455,185.357 206.982 C 188.863 206.355,190.276 205.633,190.613 204.295 C 190.772 203.662,191.380 203.225,192.690 202.800 C 195.044 202.037,195.899 200.849,196.432 197.600 C 196.667 196.170,197.278 194.190,197.789 193.200 C 199.148 190.568,199.097 177.151,197.718 174.600 C 197.242 173.720,196.744 172.175,196.612 171.167 C 196.127 167.476,192.423 162.834,189.087 161.737 C 186.814 160.990,142.762 160.537,135.125 161.182 M219.900 161.765 C 217.812 162.327,216.495 163.311,215.960 164.710 C 215.769 165.211,215.294 165.719,214.906 165.839 C 211.567 166.875,210.625 167.905,210.000 171.203 C 209.775 172.388,209.241 173.730,208.814 174.185 C 206.834 176.293,206.819 176.476,206.706 199.873 C 206.591 223.629,206.590 223.617,208.764 224.781 C 209.506 225.178,210.800 228.267,210.800 229.641 C 210.800 230.776,212.717 232.720,214.111 232.999 C 217.119 233.600,219.360 234.567,220.373 235.700 C 221.950 237.465,223.083 237.550,245.513 237.576 C 267.222 237.602,267.410 237.585,269.066 235.479 C 269.570 234.838,270.447 234.363,271.433 234.197 C 275.420 233.524,277.316 232.121,277.812 229.476 C 277.992 228.516,278.436 227.971,279.510 227.388 C 282.740 225.638,282.600 226.917,282.600 199.200 L 282.600 174.600 281.538 172.334 C 280.954 171.088,280.054 169.843,279.538 169.567 C 278.226 168.866,275.220 165.705,274.790 164.574 C 274.356 163.432,272.139 162.255,269.280 161.649 C 266.109 160.977,222.449 161.080,219.900 161.765 M295.559 162.722 C 292.436 164.281,291.606 168.174,291.602 181.271 C 291.598 197.233,292.117 199.210,296.942 201.619 C 298.747 202.520,300.631 203.791,301.167 204.471 C 302.880 206.644,312.025 208.176,317.200 207.157 C 323.285 205.959,324.152 206.762,323.508 213.000 C 322.373 223.994,323.451 232.736,326.263 235.350 C 328.248 237.194,328.163 237.211,335.580 233.484 C 338.201 232.167,339.679 220.474,338.160 213.074 C 337.401 209.379,337.383 209.466,339.248 207.692 L 340.896 206.124 343.948 206.832 C 349.832 208.197,355.557 207.133,357.137 204.380 C 357.834 203.166,358.305 202.872,361.201 201.847 C 363.595 200.999,363.873 200.449,365.232 193.851 C 366.467 187.857,367.009 172.023,366.000 171.400 C 365.780 171.264,365.600 170.630,365.600 169.991 C 365.600 165.557,361.804 161.360,358.536 162.180 C 354.388 163.221,353.429 166.739,353.553 180.461 L 353.649 191.121 351.984 191.403 C 349.809 191.770,308.229 191.789,307.637 191.423 C 307.316 191.224,307.192 188.065,307.213 180.611 C 307.239 171.804,307.139 169.827,306.602 168.540 C 304.840 164.310,298.777 161.115,295.559 162.722 M106.000 162.855 C 111.163 163.562,112.093 164.556,111.751 169.000 C 111.311 174.709,110.873 174.864,95.439 174.776 C 83.422 174.707,82.963 174.769,81.739 176.636 C 81.141 177.550,81.087 180.008,81.167 202.983 C 81.275 233.901,81.584 232.400,75.115 232.400 C 68.848 232.400,69.125 233.782,69.232 203.059 C 69.315 179.320,69.276 177.688,68.604 176.662 C 67.359 174.762,66.976 174.708,55.043 174.756 C 39.515 174.818,39.072 174.663,38.645 169.000 C 38.320 164.700,39.358 163.475,43.840 162.865 C 47.426 162.378,102.452 162.369,106.000 162.855 M186.712 163.234 C 189.696 164.653,193.591 168.142,194.710 170.400 L 195.800 172.600 195.800 183.200 C 195.800 197.896,194.983 200.526,189.853 202.339 C 189.014 202.635,187.456 203.420,186.390 204.082 C 184.576 205.210,184.245 205.278,181.219 205.140 L 177.985 204.993 177.181 207.142 C 176.240 209.657,176.388 209.971,179.175 211.394 C 181.042 212.347,182.526 213.748,183.736 215.700 C 184.112 216.305,184.657 216.800,184.949 216.800 C 186.055 216.800,188.723 219.188,189.569 220.937 C 190.171 222.179,191.054 223.136,192.387 223.992 C 198.383 227.839,194.202 235.522,187.823 232.381 C 185.365 231.172,168.800 215.563,168.800 214.457 C 168.800 214.278,166.606 212.167,163.923 209.766 C 157.085 203.644,157.600 204.395,157.600 200.543 C 157.600 194.113,158.426 193.754,174.420 193.246 C 187.205 192.840,186.367 193.349,186.351 185.991 C 186.345 183.015,186.464 180.086,186.616 179.480 C 186.823 178.654,186.638 177.995,185.877 176.845 C 184.512 174.782,184.906 174.814,160.201 174.784 L 139.402 174.760 136.801 176.119 L 134.200 177.478 134.268 179.439 C 134.658 190.593,134.287 228.659,133.779 229.641 C 132.343 232.417,128.684 233.981,126.719 232.658 C 124.312 231.039,124.345 231.520,124.479 199.785 C 124.615 167.368,124.367 169.829,127.710 167.743 C 128.640 167.163,130.239 165.911,131.265 164.961 C 134.051 162.380,132.300 162.515,162.400 162.569 C 182.349 162.605,185.574 162.693,186.712 163.234 M268.149 163.615 C 269.347 164.063,270.543 164.691,270.807 165.009 C 271.072 165.327,272.035 165.961,272.949 166.417 C 273.922 166.903,275.154 168.024,275.924 169.123 C 279.056 173.596,280.031 175.060,280.501 176.000 C 280.882 176.764,281.000 182.333,281.000 199.600 C 281.000 224.098,280.982 224.308,278.770 225.010 C 278.408 225.124,277.351 226.632,276.421 228.361 C 274.527 231.880,274.349 232.002,269.398 233.178 C 266.128 233.955,264.741 234.000,244.269 234.000 L 222.602 234.000 218.887 232.762 C 214.024 231.142,213.222 230.413,211.344 225.900 L 209.805 222.200 209.678 200.189 L 209.552 178.179 210.580 174.630 C 211.994 169.750,212.705 168.739,215.806 167.197 C 217.233 166.488,218.400 165.760,218.400 165.581 C 218.400 164.928,220.999 163.426,222.579 163.166 C 227.235 162.402,265.923 162.782,268.149 163.615 M361.880 166.867 C 364.268 169.355,364.401 170.116,364.393 181.287 C 364.382 197.115,363.807 198.618,356.400 202.152 C 350.704 204.869,348.125 205.153,341.672 203.770 C 340.936 203.612,340.147 204.151,337.838 206.389 L 334.931 209.208 335.457 212.704 C 335.746 214.627,335.987 218.949,335.991 222.309 L 336.000 228.418 334.363 230.194 C 331.174 233.653,328.020 234.166,325.843 231.578 L 324.800 230.339 324.800 219.602 C 324.800 209.928,324.725 208.695,324.040 207.133 C 322.543 203.721,322.945 203.860,316.144 204.402 L 310.134 204.880 306.767 203.811 C 294.701 199.982,293.283 197.647,293.150 181.400 C 293.055 169.884,293.189 169.093,295.670 166.530 L 296.899 165.260 298.349 165.919 C 304.292 168.618,304.942 169.874,304.772 178.333 C 304.699 182.000,304.676 186.350,304.720 188.000 L 304.802 191.000 307.099 192.200 C 308.363 192.860,309.577 193.338,309.798 193.262 C 310.019 193.186,318.654 193.142,328.988 193.165 C 347.814 193.206,351.144 193.014,353.676 191.744 L 354.752 191.205 354.876 180.702 C 355.013 169.135,354.959 169.403,357.719 166.429 C 359.428 164.589,359.722 164.620,361.880 166.867 M223.641 175.160 C 222.236 175.352,221.671 175.682,220.840 176.800 L 219.798 178.200 219.999 200.091 L 220.200 221.982 221.309 223.091 L 222.418 224.200 244.309 224.328 L 266.200 224.457 267.271 223.328 C 268.972 221.537,269.212 218.175,269.165 196.800 L 269.123 177.800 267.680 176.300 L 266.238 174.800 245.819 174.860 C 234.588 174.893,224.608 175.028,223.641 175.160 M266.965 177.163 C 267.914 178.154,268.035 178.526,267.783 179.663 C 267.619 180.399,267.466 190.216,267.443 201.480 C 267.410 216.928,267.281 222.079,266.916 222.444 C 266.405 222.955,224.414 223.112,222.831 222.610 C 221.495 222.186,221.436 221.344,221.216 199.600 C 221.013 179.483,221.043 178.152,221.711 177.400 C 222.402 176.622,222.988 176.597,242.873 176.505 C 254.120 176.453,263.415 176.318,263.528 176.205 C 264.130 175.603,265.958 176.113,266.965 177.163 " stroke="none" fill="#3c4c4c" fill-rule="evenodd"></path></g></svg>