<svg id="svg" version="1.1" xmlns="http://www.w3.org/2000/svg" xmlns:xlink="http://www.w3.org/1999/xlink" width="400" height="400" viewBox="0, 0, 400,400"><g id="svgg"><path id="path0" d="M159.200 1.594 L 159.200 3.188 146.900 3.294 L 134.600 3.400 134.482 6.300 L 134.365 9.200 127.482 9.243 C 123.697 9.267,119.520 9.402,118.200 9.543 L 115.800 9.800 115.683 12.690 L 115.565 15.579 109.483 15.690 L 103.400 15.800 103.283 18.900 L 103.166 22.000 97.783 22.000 C 91.254 22.000,90.800 22.247,90.800 25.800 L 90.800 28.000 88.500 28.005 C 84.441 28.015,84.400 28.049,84.400 31.447 L 84.400 34.400 81.447 34.400 C 78.051 34.400,78.015 34.442,78.005 38.490 L 78.000 40.779 71.900 40.890 L 65.800 41.000 65.683 43.883 L 65.566 46.766 62.683 46.883 L 59.800 47.000 59.440 50.084 L 59.080 53.167 56.240 53.284 L 53.400 53.400 53.284 56.240 L 53.167 59.080 50.084 59.440 L 47.000 59.800 46.883 62.683 L 46.766 65.566 43.883 65.683 L 41.000 65.800 40.890 71.900 L 40.779 78.000 38.490 78.005 C 34.442 78.015,34.400 78.051,34.400 81.447 L 34.400 84.400 31.447 84.400 C 28.049 84.400,28.015 84.441,28.005 88.500 L 28.000 90.800 25.800 90.800 C 22.247 90.800,22.000 91.254,22.000 97.783 L 22.000 103.166 18.900 103.283 L 15.800 103.400 15.690 109.483 L 15.579 115.565 12.690 115.683 L 9.800 115.800 9.550 118.600 C 9.412 120.140,9.277 124.317,9.250 127.882 L 9.200 134.365 6.300 134.482 L 3.400 134.600 3.294 146.900 L 3.188 159.200 1.594 159.200 L 0.000 159.200 0.000 200.000 L 0.000 240.800 1.594 240.800 L 3.188 240.800 3.294 253.100 L 3.400 265.400 6.241 265.516 L 9.081 265.633 9.359 274.516 C 9.678 284.708,9.556 284.400,13.266 284.400 L 15.579 284.400 15.690 290.500 L 15.800 296.600 18.883 296.717 L 21.967 296.833 22.083 299.917 L 22.200 303.000 25.100 303.118 L 28.000 303.235 28.005 308.518 C 28.013 315.911,27.862 315.600,31.447 315.600 L 34.400 315.600 34.400 318.557 C 34.400 321.992,34.408 322.000,38.222 322.000 L 40.779 322.000 40.890 328.100 L 41.000 334.200 43.900 334.318 L 46.800 334.435 46.800 337.138 C 46.800 340.524,47.076 340.800,50.462 340.800 L 53.165 340.800 53.282 343.700 L 53.400 346.600 56.240 346.716 L 59.080 346.833 59.440 349.916 L 59.800 353.000 62.683 353.117 L 65.566 353.234 65.683 356.117 L 65.800 359.000 71.900 359.110 L 78.000 359.221 78.005 361.510 C 78.015 365.558,78.051 365.600,81.447 365.600 L 84.400 365.600 84.400 368.557 C 84.400 372.176,84.052 372.000,91.215 372.000 L 96.765 372.000 96.882 374.900 L 97.000 377.800 100.083 377.917 L 103.167 378.033 103.283 381.117 L 103.400 384.200 112.700 384.307 L 122.000 384.415 122.000 387.365 C 122.000 390.975,121.654 390.800,128.815 390.800 L 134.365 390.800 134.482 393.700 L 134.600 396.600 146.900 396.706 L 159.200 396.812 159.200 398.406 L 159.200 400.000 200.000 400.000 L 240.800 400.000 240.800 398.406 L 240.800 396.812 253.100 396.706 L 265.400 396.600 265.517 393.710 L 265.635 390.821 271.717 390.710 L 277.800 390.600 277.917 387.500 L 278.034 384.400 286.788 384.400 C 297.090 384.400,296.800 384.510,296.800 380.588 L 296.800 378.034 299.900 377.917 L 303.000 377.800 303.117 374.910 L 303.235 372.021 309.317 371.910 L 315.400 371.800 315.517 368.717 L 315.633 365.633 318.717 365.517 L 321.800 365.400 321.917 362.310 L 322.033 359.221 328.117 359.110 L 334.200 359.000 334.317 356.117 L 334.434 353.233 337.517 353.117 L 340.600 353.000 340.717 349.917 L 340.833 346.834 343.717 346.717 L 346.600 346.600 346.717 343.717 L 346.834 340.833 349.917 340.717 L 353.000 340.600 353.117 337.517 L 353.233 334.434 356.117 334.317 L 359.000 334.200 359.110 328.117 L 359.221 322.033 362.310 321.917 L 365.400 321.800 365.517 318.717 L 365.633 315.633 368.717 315.517 L 371.800 315.400 371.910 309.317 L 372.021 303.235 374.910 303.117 L 377.800 303.000 377.917 299.900 L 378.034 296.800 380.737 296.800 C 384.558 296.800,384.400 297.225,384.400 286.937 L 384.400 278.034 387.500 277.917 L 390.600 277.800 390.710 271.717 L 390.821 265.635 393.710 265.517 L 396.600 265.400 396.706 253.100 L 396.812 240.800 398.406 240.800 L 400.000 240.800 400.000 200.000 L 400.000 159.200 398.406 159.200 L 396.812 159.200 396.706 146.900 L 396.600 134.600 393.700 134.482 L 390.800 134.365 390.800 128.815 C 390.800 121.654,390.975 122.000,387.365 122.000 L 384.415 122.000 384.307 112.700 L 384.200 103.400 381.117 103.283 L 378.033 103.167 377.917 100.083 L 377.800 97.000 374.900 96.882 L 372.000 96.765 372.000 91.215 C 372.000 84.052,372.176 84.400,368.557 84.400 L 365.600 84.400 365.600 81.447 C 365.600 78.051,365.558 78.015,361.510 78.005 L 359.221 78.000 359.110 71.900 L 359.000 65.800 356.117 65.683 L 353.234 65.566 353.117 62.683 L 353.000 59.800 349.916 59.440 L 346.833 59.080 346.716 56.240 L 346.600 53.400 343.700 53.282 L 340.800 53.165 340.800 50.462 C 340.800 47.076,340.524 46.800,337.138 46.800 L 334.435 46.800 334.318 43.900 L 334.200 41.000 328.100 40.890 L 322.000 40.779 322.000 38.222 C 322.000 34.408,321.992 34.400,318.557 34.400 L 315.600 34.400 315.600 31.447 C 315.600 27.862,315.911 28.013,308.518 28.005 L 303.235 28.000 303.118 25.100 L 303.000 22.200 299.917 22.083 L 296.833 21.967 296.717 18.883 L 296.600 15.800 290.500 15.690 L 284.400 15.579 284.400 13.266 C 284.400 9.556,284.708 9.678,274.516 9.359 L 265.633 9.081 265.516 6.241 L 265.400 3.400 253.100 3.294 L 240.800 3.188 240.800 1.594 L 240.800 0.000 200.000 0.000 L 159.200 0.000 159.200 1.594 M130.861 124.156 C 133.114 125.320,133.353 126.185,133.520 133.752 C 133.711 142.421,132.564 145.590,129.231 145.599 C 127.777 145.602,127.200 146.841,127.198 149.962 C 127.194 155.040,125.559 158.400,123.093 158.400 C 121.945 158.400,121.011 159.364,120.637 160.934 C 120.282 162.426,118.714 163.957,117.238 164.252 C 115.819 164.536,114.603 165.785,114.236 167.334 C 113.892 168.786,112.387 170.292,110.934 170.637 C 109.364 171.011,108.400 171.945,108.400 173.093 C 108.400 176.437,105.183 177.283,93.063 177.125 C 77.957 176.929,79.400 179.750,79.400 150.418 C 79.400 123.242,79.082 125.109,84.000 123.452 C 86.021 122.771,129.444 123.423,130.861 124.156 M224.666 124.166 C 227.050 125.609,226.982 124.903,227.200 150.667 C 227.310 163.684,227.523 174.457,227.673 174.607 C 228.210 175.143,228.699 174.385,229.380 171.957 C 230.139 169.252,231.322 167.778,233.066 167.363 C 235.243 166.844,235.599 166.182,235.609 162.638 C 235.620 158.413,236.519 156.281,238.679 155.355 C 239.515 154.996,240.470 154.571,240.800 154.410 C 241.252 154.189,241.455 153.093,241.625 149.958 C 241.893 145.020,242.543 143.463,244.718 142.544 C 247.752 141.263,248.093 140.989,248.630 139.400 C 249.228 137.627,250.359 136.518,251.951 136.142 C 253.201 135.848,254.800 134.483,254.800 133.710 C 254.800 130.998,257.865 129.222,262.569 129.209 C 265.782 129.200,267.200 128.633,267.200 127.357 C 267.200 123.386,267.080 123.400,300.200 123.400 C 332.464 123.400,331.683 123.334,332.871 126.148 C 333.792 128.329,333.630 173.084,332.696 174.509 C 331.053 177.017,331.295 176.989,310.215 177.115 C 289.193 177.241,289.950 177.149,289.454 179.631 C 289.157 181.113,287.629 182.682,286.134 183.037 C 283.957 183.556,283.601 184.218,283.591 187.762 C 283.578 192.493,281.819 195.600,279.151 195.600 C 277.779 195.600,277.200 196.893,277.198 199.962 C 277.194 205.040,275.559 208.400,273.093 208.400 C 271.929 208.400,271.009 209.370,270.625 211.000 C 270.248 212.605,268.574 214.300,267.044 214.627 C 265.007 215.062,264.800 215.441,264.798 218.749 C 264.794 223.813,263.708 225.982,260.835 226.662 C 258.676 227.174,258.400 227.788,258.400 232.082 C 258.400 237.155,257.084 239.600,254.351 239.600 C 253.011 239.600,252.400 240.901,252.398 243.762 C 252.394 248.681,251.103 251.319,248.438 251.852 C 247.019 252.136,245.803 253.385,245.436 254.934 C 245.092 256.386,243.588 257.891,242.134 258.239 C 240.200 258.702,240.000 259.086,239.998 262.349 C 239.994 267.437,238.798 270.004,236.134 270.637 C 234.016 271.142,233.600 271.851,233.598 274.962 C 233.594 279.881,232.303 282.519,229.638 283.052 C 228.214 283.337,227.003 284.586,226.632 286.151 C 226.205 287.952,224.395 289.493,222.365 289.785 C 217.698 290.456,152.241 289.822,150.907 289.093 C 148.169 287.597,148.213 287.951,148.085 266.423 C 148.006 253.123,147.833 246.881,147.532 246.518 C 146.612 245.410,146.095 246.757,145.924 250.711 C 145.722 255.356,145.050 256.937,142.882 257.864 C 142.067 258.212,141.130 258.629,140.800 258.790 C 140.352 259.009,140.142 260.087,139.972 263.042 C 139.674 268.222,138.204 270.800,135.546 270.800 C 134.762 270.800,133.200 272.465,133.200 273.300 C 133.200 274.369,131.085 276.363,129.646 276.651 C 127.671 277.046,127.304 277.821,127.119 282.000 C 126.840 288.302,125.631 289.657,120.049 289.923 C 114.584 290.182,111.633 288.952,110.963 286.134 C 110.458 284.016,109.749 283.600,106.638 283.598 C 101.769 283.594,99.187 282.359,98.563 279.734 C 98.058 277.616,97.349 277.200,94.238 277.198 C 89.528 277.194,86.000 275.522,86.000 273.293 C 86.000 271.799,84.806 271.297,80.800 271.107 C 76.273 270.893,75.107 270.411,74.190 268.378 C 72.685 265.040,74.418 260.800,77.287 260.800 C 78.589 260.800,79.200 259.472,79.202 256.638 C 79.206 251.769,80.442 249.185,83.066 248.564 C 85.138 248.073,86.000 246.903,86.000 244.581 C 86.000 240.775,87.429 237.985,89.917 236.932 C 91.319 236.339,91.320 236.337,92.008 233.654 C 92.526 231.633,93.846 230.148,95.466 229.763 C 97.584 229.258,98.000 228.549,98.002 225.438 C 98.006 220.569,99.241 217.987,101.866 217.363 C 104.043 216.844,104.399 216.182,104.409 212.638 C 104.421 208.269,105.313 206.259,107.713 205.197 C 109.745 204.298,110.590 203.432,110.963 201.866 C 111.308 200.413,112.813 198.908,114.266 198.563 C 116.384 198.058,116.800 197.349,116.802 194.238 C 116.806 189.369,118.041 186.787,120.666 186.163 C 122.816 185.651,123.200 184.966,123.202 181.638 C 123.206 176.631,124.218 174.344,126.690 173.756 C 128.814 173.251,129.200 172.558,129.202 169.238 C 129.206 164.164,130.405 161.596,133.066 160.963 C 134.629 160.590,135.498 159.746,136.390 157.730 C 136.959 156.443,137.534 155.846,138.675 155.357 C 139.514 154.997,140.470 154.571,140.800 154.410 C 141.252 154.189,141.455 153.093,141.625 149.958 C 141.893 145.020,142.543 143.463,144.718 142.544 C 147.752 141.263,148.093 140.989,148.630 139.400 C 149.228 137.627,150.359 136.518,151.951 136.142 C 153.201 135.848,154.800 134.483,154.800 133.710 C 154.800 130.998,157.865 129.222,162.569 129.209 C 165.782 129.200,167.200 128.633,167.200 127.357 C 167.200 125.658,168.519 124.487,171.600 123.453 C 173.675 122.756,223.442 123.425,224.666 124.166 M190.316 177.900 C 189.981 178.285,189.586 179.111,189.437 179.734 C 189.289 180.358,188.740 181.296,188.218 181.818 C 187.696 182.340,186.758 182.889,186.134 183.037 C 183.957 183.556,183.601 184.218,183.591 187.762 C 183.578 192.539,181.820 195.600,179.090 195.600 C 178.293 195.600,176.949 197.214,176.632 198.551 C 176.295 199.971,174.331 202.000,173.293 202.000 C 171.824 202.000,171.200 203.260,171.198 206.231 C 171.194 211.029,169.946 213.616,167.334 214.237 C 165.184 214.749,164.800 215.434,164.798 218.762 C 164.794 223.813,163.706 225.983,160.835 226.662 C 159.220 227.045,158.400 227.986,158.400 229.458 C 158.400 230.191,158.062 231.681,157.649 232.768 L 156.898 234.744 157.949 235.178 C 158.660 235.471,164.229 235.577,175.181 235.506 L 191.362 235.400 192.073 233.400 C 192.839 231.242,193.892 230.134,195.551 229.741 C 197.578 229.261,198.000 228.521,198.002 225.438 C 198.006 220.569,199.242 217.985,201.866 217.364 C 203.241 217.038,204.799 215.693,204.801 214.830 C 204.804 213.645,206.304 211.737,207.653 211.202 C 210.119 210.225,210.400 209.758,210.402 206.638 C 210.406 201.769,211.641 199.187,214.266 198.563 C 216.384 198.058,216.800 197.349,216.802 194.238 C 216.806 189.293,218.096 186.681,220.802 186.140 C 222.175 185.865,223.600 184.308,223.600 183.081 C 223.600 182.635,223.907 181.298,224.281 180.109 C 224.873 178.233,224.886 177.899,224.381 177.580 C 223.164 176.810,191.000 177.112,190.316 177.900 M306.258 205.801 C 307.137 206.377,307.963 207.778,308.558 209.700 C 308.742 210.293,309.283 210.400,312.087 210.402 C 317.445 210.406,319.995 211.558,320.636 214.266 C 320.981 215.721,322.324 217.200,323.300 217.200 C 324.332 217.200,326.296 219.233,326.632 220.649 C 326.943 221.962,328.289 223.600,329.056 223.600 C 332.441 223.600,333.341 225.647,333.520 233.752 C 333.713 242.474,332.568 245.590,329.170 245.599 C 328.303 245.601,326.962 247.161,326.632 248.551 C 326.304 249.932,324.341 252.000,323.357 252.000 C 322.503 252.000,320.800 253.525,320.800 254.290 C 320.800 258.051,319.324 258.400,303.400 258.400 C 287.476 258.400,286.000 258.051,286.000 254.290 C 286.000 253.497,284.388 252.150,283.066 251.836 C 279.598 251.015,279.204 249.257,279.204 234.600 C 279.204 219.943,279.598 218.185,283.066 217.364 C 284.388 217.050,286.000 215.703,286.000 214.910 C 286.000 212.190,288.537 210.728,293.775 210.428 L 297.750 210.200 298.775 208.200 C 300.423 204.984,303.504 203.997,306.258 205.801 " stroke="none" fill="#fcfcfc" fill-rule="evenodd"></path><path id="path1" d="M82.831 126.431 L 81.600 127.662 81.600 150.172 L 81.600 172.683 82.581 173.742 L 83.562 174.800 93.904 174.800 C 105.256 174.800,104.812 174.891,106.542 172.200 C 107.979 169.964,108.416 169.492,109.918 168.557 C 110.643 168.106,111.814 166.852,112.521 165.772 C 113.228 164.691,114.691 163.228,115.772 162.521 C 116.852 161.814,118.106 160.643,118.557 159.918 C 119.492 158.416,119.964 157.979,122.200 156.542 C 124.658 154.961,124.800 154.635,124.800 150.554 C 124.800 146.497,125.459 145.114,128.026 143.787 C 131.158 142.167,131.200 142.045,131.200 134.485 L 131.200 127.662 129.969 126.431 L 128.738 125.200 106.400 125.200 L 84.062 125.200 82.831 126.431 M170.946 125.909 C 170.476 126.289,169.645 127.320,169.098 128.200 C 167.298 131.096,166.750 131.378,162.469 131.600 L 158.617 131.800 156.987 134.200 C 156.079 135.538,154.547 137.134,153.527 137.806 C 152.519 138.470,151.082 139.820,150.331 140.806 C 149.581 141.793,148.110 143.163,147.064 143.850 C 144.223 145.717,144.027 146.118,144.013 150.086 C 143.999 153.953,143.274 155.300,140.180 157.213 C 139.429 157.676,138.311 158.808,137.694 159.728 C 137.078 160.648,135.716 161.963,134.667 162.650 C 131.828 164.512,131.627 164.920,131.613 168.846 C 131.598 172.760,130.996 173.973,128.563 174.990 C 125.835 176.129,125.201 177.291,125.194 181.158 C 125.187 185.286,124.787 186.201,122.269 187.850 C 119.451 189.697,119.227 190.138,119.213 193.869 C 119.198 197.594,118.530 198.802,115.557 200.472 C 114.634 200.991,113.481 202.154,112.812 203.243 C 112.176 204.275,111.179 205.453,110.595 205.860 C 106.850 208.471,106.800 208.557,106.800 212.411 C 106.800 216.316,106.111 217.702,103.497 219.053 C 100.918 220.387,100.400 221.386,100.400 225.028 C 100.400 228.833,99.801 229.903,96.625 231.764 C 95.168 232.618,94.620 233.311,93.449 235.779 C 92.670 237.419,91.406 239.456,90.639 240.304 C 89.657 241.391,89.005 242.713,88.432 244.782 C 87.536 248.013,86.974 248.823,84.600 250.298 C 81.937 251.952,81.619 252.587,81.609 256.269 C 81.599 259.889,80.850 261.333,78.297 262.653 C 73.221 265.278,74.884 268.800,81.200 268.800 C 85.104 268.800,86.501 269.488,87.836 272.069 C 89.107 274.527,89.681 274.800,93.569 274.800 C 97.520 274.800,98.897 275.481,100.253 278.103 C 101.587 280.682,102.586 281.200,106.228 281.200 C 109.894 281.200,111.326 281.936,112.653 284.503 C 114.021 287.148,114.947 287.600,119.000 287.600 C 124.269 287.600,124.800 287.074,124.800 281.850 C 124.800 277.515,125.540 276.106,128.476 274.851 C 129.492 274.417,130.433 273.535,131.303 272.203 C 132.020 271.105,133.469 269.643,134.523 268.953 C 137.376 267.086,137.573 266.686,137.587 262.720 C 137.600 259.306,138.830 256.812,140.507 256.802 C 142.181 256.792,143.600 253.853,143.600 250.396 C 143.600 244.804,146.038 242.344,148.821 245.127 L 150.400 246.706 150.400 265.922 L 150.400 285.138 151.631 286.369 L 152.862 287.600 187.772 287.600 L 222.683 287.600 223.742 286.619 C 224.324 286.080,224.800 285.373,224.800 285.050 C 224.800 284.200,226.695 282.075,228.103 281.347 C 230.682 280.013,231.200 279.014,231.200 275.372 C 231.200 271.706,231.936 270.274,234.503 268.947 C 237.121 267.593,237.600 266.636,237.600 262.762 C 237.600 259.355,238.810 256.814,240.439 256.802 C 240.971 256.798,242.601 255.084,243.767 253.301 C 244.449 252.259,245.869 250.843,246.923 250.153 C 249.749 248.304,249.973 247.864,249.987 244.131 C 250.001 240.511,250.752 239.066,253.303 237.747 C 255.913 236.397,256.400 235.431,256.400 231.606 C 256.400 227.637,257.420 225.633,259.867 224.794 C 261.751 224.148,262.295 222.975,262.616 218.868 C 262.925 214.917,263.194 214.485,266.959 211.882 C 267.531 211.487,268.296 210.587,268.660 209.882 C 269.385 208.479,269.812 208.076,272.200 206.542 C 274.658 204.961,274.800 204.635,274.800 200.554 C 274.800 196.497,275.459 195.114,278.026 193.787 C 280.802 192.351,281.200 191.611,281.200 187.885 C 281.200 183.982,281.828 182.822,284.866 181.115 C 285.795 180.593,286.900 179.489,287.473 178.511 C 288.020 177.578,289.006 176.361,289.665 175.807 L 290.861 174.800 310.050 174.800 L 329.238 174.800 330.219 173.742 L 331.200 172.683 331.200 150.172 L 331.200 127.662 329.969 126.431 L 328.738 125.200 300.269 125.209 C 268.375 125.219,271.113 124.956,269.098 128.200 C 267.298 131.096,266.750 131.378,262.469 131.600 L 258.617 131.800 256.987 134.200 C 256.079 135.538,254.547 137.134,253.527 137.806 C 252.519 138.470,251.082 139.820,250.331 140.806 C 249.581 141.793,248.110 143.163,247.064 143.850 C 244.228 145.714,244.027 146.122,244.013 150.046 C 243.998 154.034,243.678 154.631,240.154 157.234 L 238.000 158.825 238.000 162.382 C 238.000 166.448,237.451 167.474,234.278 169.333 C 232.330 170.475,231.936 171.110,230.760 175.000 C 230.106 177.165,229.486 178.254,228.028 179.801 C 226.968 180.925,225.817 182.679,225.402 183.801 C 224.474 186.308,224.186 186.678,222.206 187.900 C 219.539 189.547,219.219 190.185,219.209 193.869 C 219.199 197.489,218.450 198.933,215.897 200.253 C 213.318 201.587,212.800 202.586,212.800 206.228 C 212.800 209.872,212.063 211.327,209.559 212.621 C 208.928 212.947,207.730 214.246,206.896 215.507 C 206.010 216.847,204.586 218.320,203.470 219.050 C 200.651 220.896,200.427 221.337,200.413 225.069 C 200.398 228.795,199.730 230.002,196.754 231.674 C 195.877 232.167,194.781 233.206,194.317 233.985 C 193.854 234.763,192.927 235.985,192.259 236.700 L 191.043 238.000 175.265 238.000 C 158.138 238.000,155.266 237.677,152.892 235.485 L 151.985 234.646 153.573 233.023 C 154.446 232.130,155.606 230.410,156.149 229.200 C 157.234 226.783,158.896 224.800,159.835 224.800 C 161.508 224.800,162.400 222.842,162.400 219.172 C 162.400 215.286,163.093 213.897,165.703 212.547 C 168.282 211.213,168.800 210.214,168.800 206.572 C 168.800 202.766,169.399 201.697,172.575 199.836 C 173.816 199.109,174.472 198.395,174.793 197.422 C 175.209 196.161,177.587 193.600,178.342 193.600 C 180.035 193.600,181.200 191.275,181.200 187.895 C 181.200 183.981,181.826 182.824,184.866 181.115 C 185.795 180.593,186.900 179.489,187.473 178.511 C 188.020 177.578,189.006 176.361,189.665 175.807 L 190.861 174.800 207.169 174.800 C 222.459 174.800,223.517 174.754,224.138 174.069 C 224.738 173.406,224.800 171.171,224.800 150.249 L 224.800 127.162 223.742 126.181 L 222.683 125.200 197.242 125.209 C 173.740 125.217,171.735 125.270,170.946 125.909 M302.379 207.870 C 301.828 208.204,300.972 209.096,300.476 209.852 C 298.989 212.121,297.468 212.795,293.800 212.811 C 290.143 212.827,289.690 213.061,287.847 215.877 C 287.157 216.931,285.731 218.357,284.677 219.047 C 281.453 221.156,281.625 220.280,281.625 234.600 C 281.625 248.920,281.453 248.044,284.677 250.153 C 285.731 250.843,287.157 252.269,287.847 253.323 C 289.956 256.547,289.080 256.375,303.400 256.375 C 317.720 256.375,316.844 256.547,318.953 253.323 C 319.643 252.269,321.105 250.820,322.203 250.103 C 323.535 249.233,324.417 248.292,324.851 247.276 C 325.443 245.892,327.630 243.600,328.359 243.600 C 328.522 243.600,329.228 243.089,329.928 242.464 L 331.200 241.329 331.200 234.523 C 331.200 226.917,330.988 226.306,327.892 225.013 C 326.324 224.358,325.458 223.447,324.737 221.698 C 324.408 220.899,323.427 219.892,322.203 219.094 C 321.105 218.379,319.643 216.931,318.953 215.877 C 317.087 213.025,316.685 212.827,312.731 212.813 C 308.945 212.799,307.657 212.174,306.149 209.621 C 305.079 207.811,303.605 207.126,302.379 207.870 " stroke="none" fill="#1c5cfc" fill-rule="evenodd"></path><path id="path2" d="" stroke="none" fill="#c4100fc" fill-rule="evenodd"></path><path id="path3" d="" stroke="none" fill="#c4100fc" fill-rule="evenodd"></path><path id="path4" d="" stroke="none" fill="#c4100fc" fill-rule="evenodd"></path></g></svg>