<svg id="svg" version="1.1" xmlns="http://www.w3.org/2000/svg" xmlns:xlink="http://www.w3.org/1999/xlink" width="400" height="400" viewBox="0, 0, 400,400"><g id="svgg"><path id="path0" d="M167.600 22.400 C 169.744 22.583,170.143 22.690,169.000 22.774 C 168.097 22.841,167.730 22.977,168.158 23.087 C 168.699 23.226,168.774 23.369,168.420 23.587 C 168.034 23.826,168.061 24.157,168.542 25.087 C 169.007 25.986,169.046 26.394,168.700 26.740 C 168.357 27.083,168.355 27.315,168.694 27.654 C 169.979 28.939,166.074 31.086,161.185 31.780 C 160.423 31.888,158.916 32.252,157.836 32.588 C 153.045 34.081,148.568 32.597,147.227 29.071 L 146.799 27.944 141.099 28.139 C 137.965 28.246,135.310 28.369,135.200 28.414 C 135.090 28.458,134.870 28.475,134.711 28.451 C 134.553 28.427,134.597 28.866,134.810 29.427 C 135.066 30.100,135.062 30.362,134.799 30.199 C 134.579 30.064,134.400 30.133,134.400 30.353 C 134.400 30.573,134.583 30.866,134.807 31.004 C 135.030 31.142,135.086 31.460,134.932 31.711 C 134.505 32.401,134.413 33.961,134.786 34.191 C 135.235 34.469,135.630 33.343,135.345 32.600 C 135.075 31.898,135.819 31.784,136.238 32.462 C 136.423 32.761,136.347 32.814,136.022 32.614 C 135.634 32.374,135.617 32.484,135.946 33.099 C 136.180 33.537,136.333 33.963,136.286 34.047 C 136.239 34.131,136.280 34.150,136.378 34.088 C 136.758 33.851,136.731 32.618,136.329 31.867 C 135.965 31.188,136.010 31.118,136.653 31.363 C 137.252 31.591,137.301 31.548,136.900 31.144 C 136.303 30.542,136.226 29.445,136.807 29.804 C 137.030 29.942,137.109 30.223,136.983 30.428 C 136.856 30.632,137.028 30.800,137.364 30.800 C 137.769 30.800,137.889 30.576,137.719 30.134 C 137.548 29.687,137.617 29.564,137.932 29.758 C 138.213 29.932,138.400 29.798,138.400 29.424 C 138.400 29.081,138.580 28.800,138.800 28.800 C 139.323 28.800,139.318 29.880,138.793 30.204 C 138.297 30.511,138.667 31.202,139.324 31.194 C 139.610 31.190,139.561 31.033,139.200 30.800 C 138.800 30.542,138.767 30.410,139.100 30.406 C 139.375 30.403,139.600 30.108,139.600 29.751 C 139.600 29.228,139.713 29.196,140.182 29.585 C 140.503 29.851,140.998 29.929,141.282 29.758 C 141.703 29.505,141.703 29.566,141.281 30.088 C 140.927 30.524,140.896 30.812,141.186 30.991 C 141.435 31.145,141.473 31.498,141.277 31.848 C 140.108 33.936,143.222 36.079,149.400 37.438 C 150.927 37.774,154.319 39.512,155.531 40.580 C 156.380 41.327,157.075 41.411,163.383 41.525 C 171.540 41.673,172.001 41.865,171.999 45.116 L 171.998 47.000 174.999 46.868 L 178.000 46.737 178.000 42.368 L 178.000 38.000 176.210 38.000 C 174.651 38.000,174.345 37.854,173.837 36.871 C 173.516 36.250,172.983 35.518,172.653 35.244 C 172.046 34.741,173.015 33.200,173.938 33.200 C 175.563 33.200,176.687 26.344,175.291 24.948 C 174.827 24.484,174.834 24.400,175.338 24.400 C 175.665 24.400,175.994 24.218,176.068 23.996 C 176.142 23.774,177.012 23.433,178.001 23.240 C 179.773 22.893,179.755 22.886,176.800 22.759 C 174.786 22.673,175.904 22.555,180.200 22.400 C 185.579 22.206,184.844 22.167,175.600 22.157 C 169.550 22.150,165.950 22.259,167.600 22.400 M263.700 228.298 C 265.625 228.371,268.775 228.371,270.700 228.298 C 272.625 228.225,271.050 228.165,267.200 228.165 C 263.350 228.165,261.775 228.225,263.700 228.298 M204.849 241.097 L 202.698 241.245 202.913 244.236 C 203.031 245.881,202.950 247.873,202.732 248.662 C 201.299 253.851,193.295 253.774,191.238 248.553 C 190.766 247.355,190.630 247.295,187.810 247.039 C 185.113 246.795,174.480 247.160,175.400 247.465 C 176.414 247.802,175.598 253.918,174.363 255.240 C 172.758 256.958,168.374 256.179,166.424 253.829 C 165.733 252.996,152.829 252.874,152.756 253.700 C 152.731 253.975,152.746 255.395,152.789 256.854 C 152.998 263.941,144.134 266.480,141.254 260.158 C 140.825 259.218,140.721 259.200,135.709 259.225 C 132.444 259.242,130.907 259.375,131.451 259.594 C 132.920 260.188,132.814 265.863,131.308 267.268 C 128.774 269.633,127.403 269.581,123.751 266.985 C 121.688 265.519,117.332 265.104,111.864 265.853 L 110.016 266.107 110.244 269.068 C 110.551 273.040,110.399 273.190,106.712 272.543 C 104.874 272.220,99.999 272.026,93.500 272.016 L 83.200 272.000 83.200 275.325 C 83.200 281.676,78.517 283.614,73.367 279.395 L 71.665 278.000 62.933 278.025 C 57.305 278.042,54.520 278.179,55.100 278.412 C 56.469 278.963,56.450 284.238,55.074 285.530 C 53.885 286.647,53.011 286.625,49.312 285.383 C 47.018 284.613,45.640 284.395,43.641 284.483 L 41.000 284.600 41.000 289.800 L 41.000 295.000 44.268 295.200 C 46.066 295.310,47.602 295.490,47.682 295.600 C 47.761 295.710,48.047 296.090,48.316 296.445 C 48.712 296.965,48.610 297.766,47.786 300.611 C 47.069 303.083,46.800 304.857,46.883 306.566 L 47.000 309.000 50.100 309.117 L 53.200 309.234 53.247 310.917 C 53.273 311.843,53.287 312.695,53.277 312.811 C 53.267 312.927,54.692 312.990,56.442 312.950 C 60.546 312.857,62.365 314.188,62.450 317.347 C 62.543 320.810,62.588 320.970,63.600 321.482 C 64.150 321.761,64.915 321.991,65.300 321.994 C 65.749 321.998,66.011 322.323,66.030 322.900 C 66.133 326.025,66.176 326.065,69.686 326.302 C 73.603 326.567,74.000 326.957,74.000 330.549 C 74.000 333.111,73.901 333.460,72.938 334.287 C 72.295 334.840,72.098 335.202,72.438 335.206 C 72.786 335.210,72.843 335.324,72.587 335.506 C 72.359 335.668,72.179 336.835,72.187 338.100 C 72.194 339.365,72.200 340.410,72.200 340.423 C 72.200 340.818,76.997 340.732,77.250 340.332 C 77.489 339.955,77.590 339.941,77.594 340.285 C 77.599 340.657,81.912 340.775,96.200 340.792 C 108.569 340.807,114.800 340.678,114.800 340.407 C 114.800 340.183,114.665 340.000,114.500 340.001 C 114.335 340.001,114.260 338.743,114.333 337.204 C 114.628 330.971,124.035 328.208,127.412 333.362 C 128.089 334.395,128.117 334.400,133.546 334.401 L 139.000 334.402 138.871 331.251 L 138.742 328.101 140.551 326.619 C 144.304 323.544,149.607 323.479,152.173 326.477 L 153.477 328.000 160.038 328.001 L 166.600 328.002 166.468 324.999 C 166.170 318.187,171.844 315.222,176.440 319.790 C 177.298 320.643,178.000 321.489,178.000 321.670 C 178.000 321.852,181.105 321.976,184.900 321.947 C 188.695 321.918,191.170 321.783,190.400 321.647 C 189.022 321.404,189.000 321.368,188.978 319.388 C 188.966 318.281,188.829 317.170,188.674 316.920 C 188.375 316.435,189.176 315.455,190.411 314.794 C 190.823 314.574,191.394 313.910,191.680 313.318 C 193.662 309.220,201.506 309.490,202.771 313.700 L 203.341 315.600 207.771 315.554 C 210.207 315.528,211.840 315.421,211.400 315.315 C 210.063 314.993,209.879 314.548,209.895 311.686 C 209.924 306.656,212.194 304.307,217.400 303.926 L 219.000 303.808 219.334 301.604 C 219.518 300.392,219.809 290.130,219.979 278.800 C 220.290 258.193,220.416 256.168,221.493 254.518 C 221.810 254.032,221.963 253.463,221.832 253.252 C 221.702 253.042,222.092 252.500,222.698 252.048 C 223.304 251.595,223.566 251.220,223.280 251.213 C 222.951 251.205,223.148 250.691,223.813 249.819 C 225.378 247.766,224.933 246.924,222.094 246.569 C 218.028 246.061,216.708 245.218,216.196 242.800 C 215.757 240.727,214.005 240.464,204.849 241.097 M103.477 265.857 C 103.328 266.005,103.407 266.368,103.652 266.663 C 103.897 266.958,103.934 267.200,103.735 267.200 C 103.535 267.200,103.371 267.560,103.371 268.000 C 103.371 268.978,103.725 269.018,104.451 268.123 C 104.917 267.549,104.916 267.497,104.448 267.779 C 104.065 268.010,103.956 267.941,104.091 267.556 C 104.198 267.250,104.580 267.025,104.939 267.055 C 105.298 267.085,105.493 266.950,105.372 266.755 C 105.251 266.560,105.568 266.395,106.076 266.388 C 106.914 266.377,106.933 266.336,106.279 265.956 C 105.775 265.663,105.405 265.664,105.050 265.959 C 104.713 266.238,104.407 266.247,104.144 265.984 C 103.925 265.765,103.625 265.708,103.477 265.857 M223.900 309.095 C 225.055 309.176,226.945 309.176,228.100 309.095 C 229.255 309.014,228.310 308.948,226.000 308.948 C 223.690 308.948,222.745 309.014,223.900 309.095 M59.341 324.100 C 59.480 325.255,59.595 326.592,59.597 327.070 C 59.600 327.884,59.792 327.941,62.600 327.956 C 65.448 327.971,66.538 327.539,64.799 327.084 C 64.359 326.969,64.100 327.038,64.223 327.237 C 64.346 327.437,64.066 327.600,63.600 327.600 C 63.134 327.600,62.854 327.437,62.977 327.237 C 63.100 327.038,62.865 326.962,62.455 327.070 C 60.841 327.492,59.391 324.388,60.700 323.314 C 61.085 322.999,61.174 322.855,60.897 322.996 C 60.621 323.136,60.286 322.969,60.154 322.625 C 59.596 321.169,59.097 322.073,59.341 324.100 M208.982 359.570 C 209.243 359.993,215.819 359.914,216.250 359.483 C 216.406 359.327,214.783 359.200,212.643 359.200 C 210.360 359.200,208.847 359.353,208.982 359.570 " stroke="none" fill="#d5de4e" fill-rule="evenodd"></path><path id="path1" d="M236.583 22.427 C 236.438 22.662,236.067 22.758,235.760 22.640 C 235.452 22.522,234.796 22.588,234.300 22.787 C 233.805 22.986,233.580 23.163,233.800 23.181 C 234.020 23.198,233.930 23.387,233.600 23.600 C 233.067 23.945,233.067 23.989,233.600 24.000 C 234.133 24.011,234.133 24.055,233.600 24.400 C 233.129 24.705,233.118 24.789,233.549 24.794 C 234.014 24.799,234.014 24.903,233.549 25.477 C 233.173 25.940,233.158 26.058,233.501 25.852 C 233.858 25.638,233.959 25.817,233.850 26.476 C 233.617 27.891,234.667 30.042,236.383 31.667 C 237.235 32.474,237.849 33.218,237.747 33.319 C 237.646 33.421,238.034 33.622,238.609 33.767 L 239.656 34.029 239.565 38.715 C 239.511 41.466,239.658 43.846,239.919 44.480 C 240.585 46.094,239.778 51.776,238.555 54.076 C 238.241 54.667,238.032 55.298,238.092 55.478 C 238.151 55.657,237.853 56.648,237.428 57.678 L 236.656 59.552 234.028 59.954 C 232.583 60.175,230.230 60.463,228.800 60.593 C 223.265 61.099,218.907 62.354,216.640 64.094 C 215.963 64.613,215.702 64.580,214.240 63.786 C 213.338 63.296,212.060 62.769,211.400 62.615 L 210.200 62.335 211.098 63.292 C 211.593 63.818,212.284 65.090,212.634 66.119 C 213.796 69.528,214.410 69.781,222.841 70.322 C 226.889 70.582,231.151 70.680,232.313 70.540 C 234.683 70.255,235.881 70.984,237.036 73.419 C 238.453 76.405,246.323 76.858,268.000 75.200 C 270.970 74.972,275.920 74.791,279.000 74.796 C 285.750 74.808,295.144 74.191,300.600 73.379 C 302.800 73.051,305.725 72.787,307.100 72.792 L 309.600 72.800 309.600 71.600 C 309.600 70.940,309.420 70.400,309.200 70.400 C 308.980 70.400,308.800 70.158,308.800 69.861 C 308.800 69.565,308.170 68.674,307.400 67.881 C 305.884 66.320,305.640 65.600,306.629 65.600 C 308.245 65.600,309.284 62.175,309.165 57.241 C 309.075 53.472,308.980 53.365,305.609 53.236 C 302.966 53.135,303.241 53.417,303.152 50.705 C 303.060 47.896,302.887 47.620,300.958 47.211 C 299.001 46.797,292.435 46.890,291.500 47.345 C 290.881 47.646,290.353 43.506,290.900 42.642 C 291.674 41.419,289.266 40.800,283.738 40.800 L 278.000 40.800 277.972 39.100 C 277.896 34.369,278.274 34.639,271.472 34.465 C 264.855 34.296,265.582 34.578,265.534 32.159 C 265.491 30.022,264.717 28.470,263.672 28.426 C 253.235 27.985,247.867 27.971,245.895 28.380 C 244.639 28.641,243.522 28.854,243.413 28.853 C 243.304 28.852,242.685 29.004,242.037 29.190 C 239.849 29.817,238.047 23.999,239.970 22.513 C 240.492 22.109,240.278 22.023,238.724 22.013 C 237.692 22.006,236.728 22.192,236.583 22.427 M162.000 45.613 C 162.000 48.624,164.705 50.806,168.396 50.772 C 171.202 50.746,174.423 50.101,172.115 50.028 C 170.502 49.977,166.966 48.416,164.795 46.797 C 162.589 45.150,162.000 44.901,162.000 45.613 M180.400 52.231 C 180.400 55.051,183.779 57.214,187.615 56.849 L 190.600 56.565 187.288 55.822 C 184.558 55.210,183.661 54.802,182.188 53.505 C 181.204 52.640,180.400 52.066,180.400 52.231 M198.475 60.100 C 200.271 62.487,202.627 63.328,205.853 62.733 L 208.600 62.227 206.000 61.981 C 202.729 61.672,201.819 61.380,199.680 59.950 C 197.477 58.477,197.274 58.503,198.475 60.100 M253.858 62.512 C 254.088 62.655,255.024 62.890,255.938 63.037 C 256.852 63.183,257.600 63.459,257.600 63.651 C 257.600 63.843,257.842 64.000,258.139 64.000 C 258.435 64.000,259.093 64.360,259.600 64.800 C 260.107 65.240,260.630 65.600,260.761 65.599 C 260.893 65.599,260.942 67.105,260.872 68.946 L 260.744 72.294 253.072 72.758 C 248.852 73.013,244.392 73.313,243.160 73.424 C 240.655 73.650,240.493 73.543,239.069 70.721 C 237.751 68.110,236.240 67.493,231.800 67.752 C 228.564 67.940,219.701 66.634,218.920 65.853 C 218.681 65.614,222.547 64.212,225.000 63.648 C 226.100 63.395,229.610 63.110,232.800 63.015 C 240.594 62.783,251.381 62.339,251.481 62.247 C 251.668 62.073,253.474 62.275,253.858 62.512 M288.756 80.815 C 286.839 81.464,284.800 83.090,284.800 83.970 C 284.800 84.149,285.835 84.051,287.100 83.754 C 291.792 82.650,291.985 82.813,291.995 87.900 L 292.000 90.800 293.400 90.800 L 294.800 90.800 294.800 87.560 C 294.800 81.781,292.729 79.470,288.756 80.815 M157.869 98.860 C 154.937 100.375,153.171 109.200,155.800 109.200 C 156.774 109.200,156.800 109.125,156.800 106.322 C 156.800 100.718,159.298 99.141,163.900 101.838 C 165.730 102.910,165.911 102.718,165.039 100.631 C 164.157 98.521,160.346 97.580,157.869 98.860 M338.003 99.837 C 336.407 100.529,334.800 101.918,334.800 102.606 C 334.800 102.951,335.597 102.923,337.878 102.498 C 341.731 101.780,342.000 102.026,342.000 106.276 L 342.000 109.200 343.344 109.200 L 344.687 109.200 344.765 105.971 C 344.914 99.814,342.696 97.802,338.003 99.837 M247.570 109.638 C 247.554 109.727,247.466 110.196,247.376 110.680 C 247.285 111.164,247.416 111.687,247.667 111.842 C 247.969 112.028,248.013 111.944,247.796 111.594 C 247.560 111.211,247.650 111.134,248.122 111.315 C 249.114 111.696,249.281 110.998,248.391 110.191 C 247.956 109.798,247.587 109.549,247.570 109.638 M253.400 109.831 C 253.636 109.929,253.746 111.325,253.669 113.230 C 253.553 116.077,253.458 116.426,252.869 116.162 C 252.171 115.849,218.846 115.410,216.400 115.682 L 215.000 115.837 216.143 116.325 C 217.093 116.731,217.204 116.914,216.794 117.407 C 216.421 117.856,216.417 118.000,216.778 118.000 C 217.093 118.000,217.153 118.305,216.957 118.900 C 216.794 119.395,216.647 120.340,216.630 121.000 C 216.589 122.640,216.116 123.244,215.075 122.987 C 212.579 122.371,209.563 122.251,193.165 122.117 L 175.330 121.971 175.384 125.168 C 175.500 132.142,172.074 133.822,166.852 129.352 L 165.273 128.000 157.536 128.031 C 150.658 128.058,149.978 128.118,151.400 128.573 C 152.571 128.948,152.828 129.160,152.357 129.364 C 151.855 129.581,151.717 130.231,151.730 132.321 C 151.754 136.196,150.765 138.536,148.666 139.575 C 146.364 140.713,146.242 140.424,146.220 133.801 L 146.200 128.003 143.400 128.062 C 141.860 128.094,141.050 128.190,141.600 128.276 C 143.158 128.520,142.443 136.800,140.864 136.800 C 140.263 136.800,135.394 135.090,135.020 134.748 C 134.243 134.037,125.600 134.501,125.600 135.254 C 125.600 135.444,126.241 135.600,127.024 135.600 C 128.793 135.600,128.476 136.378,126.676 136.453 L 125.400 136.505 126.765 136.753 C 128.146 137.003,128.008 137.519,126.400 138.115 C 126.005 138.261,126.107 138.348,126.700 138.368 C 127.195 138.386,127.600 138.446,127.600 138.503 C 127.600 138.559,127.433 139.187,127.229 139.897 C 127.002 140.692,127.002 141.278,127.231 141.419 C 127.456 141.558,127.443 141.946,127.197 142.406 C 126.872 143.013,127.032 143.437,128.005 144.544 C 129.100 145.791,129.157 145.986,128.598 146.545 C 128.087 147.056,127.986 148.260,128.022 153.382 L 128.065 159.600 129.633 159.600 C 131.157 159.600,131.200 159.638,131.200 161.000 C 131.200 162.208,131.070 162.400,130.247 162.400 C 129.305 162.400,129.300 162.419,129.862 164.051 C 130.559 166.072,130.968 165.841,126.116 166.163 L 122.032 166.434 121.734 164.317 C 121.571 163.153,121.466 162.086,121.502 161.948 C 121.872 160.530,119.946 160.200,111.256 160.193 C 102.648 160.186,101.200 160.010,101.200 158.971 C 101.200 157.664,98.592 155.804,95.786 155.108 C 91.571 154.063,62.638 153.383,55.200 154.154 C 53.040 154.378,51.441 154.301,49.490 153.880 L 46.781 153.294 47.542 154.547 C 47.987 155.278,49.221 156.269,50.505 156.927 L 52.706 158.054 71.653 158.445 C 92.575 158.876,91.600 158.794,91.600 160.139 C 91.600 163.078,92.890 164.267,97.100 165.210 C 98.350 165.490,99.200 165.896,99.200 166.214 C 99.200 167.245,98.360 168.940,97.186 170.277 C 96.534 171.020,96.000 171.992,96.000 172.438 C 96.000 172.883,95.820 173.136,95.600 173.000 C 94.343 172.223,96.603 175.819,98.341 177.362 C 99.158 178.086,99.200 178.472,99.207 185.162 C 99.212 189.831,99.414 193.143,99.807 195.000 C 100.133 196.540,100.400 199.065,100.400 200.612 L 100.400 203.425 98.000 205.800 C 95.332 208.440,94.517 211.602,96.355 212.186 C 97.102 212.423,98.172 215.398,97.753 216.076 C 97.643 216.254,97.750 216.400,97.990 216.400 C 98.304 216.400,98.307 216.627,98.000 217.200 C 97.652 217.850,97.696 218.000,98.235 218.000 C 99.292 218.000,98.145 219.132,96.650 219.566 C 95.429 219.920,95.440 219.929,97.167 219.964 C 99.280 220.007,99.041 220.441,96.693 220.824 L 95.000 221.100 96.800 221.207 L 98.600 221.314 97.000 221.606 C 96.120 221.768,101.116 221.907,108.103 221.916 C 117.135 221.927,120.728 221.807,120.537 221.498 C 120.368 221.225,120.508 221.156,120.914 221.312 C 121.389 221.494,121.494 221.389,121.312 220.914 C 121.147 220.484,121.220 220.365,121.533 220.558 C 121.870 220.767,121.989 220.254,121.958 218.724 C 121.934 217.556,121.934 216.375,121.957 216.100 C 121.990 215.714,124.414 215.600,132.624 215.600 C 138.699 215.600,143.153 215.448,143.028 215.245 C 142.907 215.050,143.122 214.645,143.504 214.345 C 144.134 213.852,144.148 213.867,143.651 214.500 C 143.349 214.885,143.169 215.216,143.251 215.237 C 144.795 215.616,145.956 215.534,146.387 215.015 C 146.805 214.512,146.798 214.399,146.349 214.394 C 145.895 214.389,145.893 214.329,146.334 214.049 C 146.628 213.863,146.853 213.596,146.834 213.455 C 146.815 213.315,146.800 212.300,146.800 211.200 L 146.800 209.200 151.511 209.200 C 157.232 209.200,158.040 208.846,157.635 206.513 C 157.315 204.670,157.320 204.617,157.991 202.495 C 158.568 200.668,159.085 200.058,160.259 199.819 C 160.667 199.737,161.360 199.530,161.800 199.360 C 162.497 199.090,162.533 199.133,162.078 199.693 C 161.632 200.242,161.661 200.316,162.278 200.198 C 162.675 200.123,163.180 200.045,163.400 200.024 C 163.620 200.004,163.530 199.813,163.200 199.600 C 162.839 199.367,162.790 199.210,163.076 199.206 C 163.737 199.198,164.102 199.890,163.600 200.200 C 163.373 200.340,163.297 200.634,163.432 200.852 C 163.573 201.080,163.910 200.941,164.226 200.524 C 164.759 199.820,165.040 200.204,164.831 201.349 C 164.796 201.541,165.054 201.588,165.404 201.454 C 165.773 201.312,165.939 201.376,165.797 201.605 C 165.651 201.841,166.325 202.025,167.476 202.063 L 169.400 202.126 167.400 202.400 C 165.878 202.609,166.524 202.689,170.100 202.737 C 174.702 202.799,175.291 202.651,174.320 201.680 C 173.947 201.307,173.947 201.200,174.320 201.200 C 174.996 201.200,174.947 196.323,174.255 194.687 C 173.533 192.980,172.514 192.158,170.727 191.838 L 169.254 191.574 169.127 187.755 L 169.000 183.936 171.000 184.092 C 173.246 184.266,174.099 184.466,174.417 184.890 C 174.537 185.049,174.987 185.238,175.417 185.309 C 175.848 185.381,176.605 185.662,177.100 185.934 C 177.595 186.206,178.003 186.287,178.006 186.114 C 178.009 185.941,178.150 186.017,178.319 186.282 C 178.874 187.156,183.263 188.000,187.250 188.000 C 190.622 188.000,191.556 188.162,194.366 189.235 L 197.600 190.470 197.642 192.535 C 197.666 193.671,197.652 195.095,197.612 195.700 L 197.540 196.800 206.770 196.800 C 214.522 196.800,216.000 196.708,216.000 196.226 C 216.000 195.910,216.209 195.145,216.465 194.526 C 216.720 193.907,216.900 193.265,216.865 193.100 C 216.829 192.935,216.991 192.800,217.224 192.800 C 217.457 192.800,217.547 192.638,217.425 192.440 C 217.303 192.243,218.035 191.208,219.053 190.140 C 220.071 189.073,221.134 187.660,221.417 187.000 C 222.722 183.950,225.937 182.421,231.074 182.409 C 236.069 182.397,236.249 182.308,239.872 178.084 L 241.000 176.769 247.600 176.419 C 255.403 176.005,257.410 175.441,259.950 172.948 C 262.116 170.823,264.302 170.063,269.000 169.803 C 278.856 169.257,278.917 169.239,282.000 165.996 C 284.247 163.633,284.176 163.642,302.202 163.227 C 316.834 162.889,316.999 162.859,319.045 160.177 C 320.837 157.827,321.653 157.600,328.319 157.600 C 334.913 157.600,335.966 157.875,337.545 160.011 C 339.432 162.564,340.275 162.795,347.800 162.819 C 358.231 162.853,359.806 163.107,361.493 165.026 C 362.253 165.892,363.218 166.985,363.637 167.456 C 364.056 167.926,365.254 168.710,366.299 169.196 C 367.345 169.683,369.100 171.045,370.200 172.222 L 372.200 174.363 375.000 174.082 L 377.800 173.800 377.898 164.200 C 378.010 153.167,378.115 153.527,374.748 153.315 C 373.359 153.227,372.183 153.116,372.135 153.068 C 372.087 153.021,372.010 149.161,371.964 144.491 C 371.916 139.732,371.720 136.000,371.516 136.000 C 371.316 136.000,371.256 135.832,371.383 135.628 C 371.747 135.039,371.008 134.782,368.319 134.558 C 366.943 134.444,365.785 134.316,365.746 134.275 C 365.707 134.234,365.613 131.650,365.537 128.533 C 365.372 121.698,365.695 122.152,360.900 122.040 L 359.200 122.000 359.200 116.280 C 359.200 112.364,359.049 110.409,358.720 110.080 C 358.351 109.711,346.049 109.607,305.620 109.632 C 276.679 109.649,253.180 109.738,253.400 109.831 M113.400 110.968 C 111.468 111.832,111.049 112.947,110.872 117.700 L 110.712 122.000 111.756 122.000 C 112.791 122.000,112.800 121.975,112.801 118.900 C 112.805 112.589,116.606 110.752,121.112 114.883 L 122.113 115.800 121.838 114.600 C 121.050 111.155,116.939 109.385,113.400 110.968 M246.800 113.033 C 246.800 113.740,247.661 113.617,247.908 112.875 C 247.995 112.614,247.782 112.400,247.433 112.400 C 247.085 112.400,246.800 112.685,246.800 113.033 M88.400 117.475 C 86.309 118.558,85.601 120.333,85.601 124.500 L 85.600 128.000 86.800 128.000 L 88.000 128.000 88.000 125.028 C 88.000 122.191,88.062 121.991,89.379 120.595 C 90.916 118.965,91.147 118.965,94.586 120.612 C 96.884 121.712,97.047 121.657,96.557 119.948 C 95.795 117.293,91.353 115.947,88.400 117.475 M51.752 124.764 C 49.918 125.883,48.814 131.086,49.843 133.767 C 50.244 134.814,58.218 134.688,58.786 133.626 C 60.534 130.360,58.798 125.587,55.507 124.609 C 52.986 123.861,53.251 123.850,51.752 124.764 M112.373 134.700 C 112.358 134.865,112.368 136.463,112.396 138.251 L 112.447 141.503 110.967 142.723 L 109.486 143.943 107.476 143.151 C 106.370 142.715,104.941 141.985,104.301 141.529 L 103.136 140.700 103.419 142.650 C 103.948 146.291,104.469 146.600,110.087 146.598 C 114.965 146.597,114.963 146.600,115.139 139.786 L 115.278 134.400 113.839 134.400 C 113.048 134.400,112.388 134.535,112.373 134.700 M57.200 147.155 C 58.190 147.291,62.420 147.300,66.600 147.174 L 74.200 146.945 64.800 146.926 C 59.630 146.915,56.210 147.018,57.200 147.155 M142.423 167.600 C 146.098 168.621,146.540 171.989,143.232 173.762 L 141.065 174.923 140.132 173.839 C 139.022 172.549,138.897 170.330,139.829 168.461 C 140.538 167.042,140.481 167.060,142.423 167.600 M181.607 192.701 C 179.620 193.698,178.495 198.727,179.456 202.314 C 179.750 203.414,189.161 203.582,190.236 202.507 C 190.877 201.866,190.580 200.911,189.666 200.669 C 189.251 200.559,189.377 200.473,190.000 200.440 C 190.750 200.401,190.859 200.298,190.436 200.031 C 190.126 199.835,189.586 199.764,189.236 199.875 C 188.699 200.044,188.690 200.012,189.181 199.664 C 189.500 199.438,189.893 199.334,190.053 199.433 C 190.214 199.532,190.458 199.430,190.596 199.207 C 190.734 198.983,190.539 198.800,190.162 198.800 C 189.523 198.800,189.521 198.750,190.138 198.069 C 193.030 194.872,186.041 190.474,181.607 192.701 M188.998 202.002 C 188.598 202.444,188.166 202.699,188.036 202.570 C 187.907 202.440,188.150 202.079,188.577 201.767 C 189.673 200.966,189.848 201.063,188.998 202.002 M83.698 217.847 C 81.147 218.500,77.976 220.126,76.946 221.311 C 76.200 222.169,76.121 222.863,76.329 226.700 L 76.400 228.000 82.938 228.000 C 88.674 228.000,89.548 227.914,90.065 227.300 C 90.737 226.501,91.111 220.800,90.491 220.800 C 90.282 220.800,90.190 220.305,90.287 219.700 C 90.409 218.937,90.348 218.763,90.087 219.134 C 89.795 219.549,89.662 219.479,89.490 218.822 C 89.368 218.357,89.118 218.011,88.934 218.052 C 88.751 218.093,88.330 218.024,88.000 217.899 C 86.582 217.360,85.643 217.349,83.698 217.847 M279.333 222.569 C 279.486 222.969,279.353 223.320,278.993 223.458 C 278.667 223.583,278.400 223.857,278.400 224.066 C 278.400 224.276,278.625 224.312,278.900 224.147 C 279.293 223.910,279.297 223.973,278.919 224.442 C 278.654 224.769,278.511 225.619,278.601 226.331 C 278.698 227.092,278.607 227.528,278.383 227.389 C 278.172 227.259,278.000 227.334,278.000 227.555 C 278.000 227.777,277.145 228.028,276.100 228.112 C 274.417 228.249,274.475 228.268,276.600 228.282 C 277.920 228.290,280.260 228.568,281.800 228.899 C 285.396 229.674,290.000 229.047,290.000 227.783 C 290.000 227.494,290.315 227.176,290.700 227.076 C 291.098 226.972,290.882 226.870,290.200 226.840 C 289.360 226.804,289.164 226.684,289.545 226.442 C 290.006 226.151,290.006 226.065,289.545 225.894 C 289.181 225.759,289.332 225.552,290.000 225.271 L 291.000 224.851 290.033 224.825 C 288.556 224.787,289.176 224.530,291.400 224.259 C 292.500 224.125,293.112 224.147,292.760 224.308 C 292.383 224.480,292.141 225.038,292.172 225.669 C 292.200 226.257,292.095 226.659,291.938 226.562 C 291.781 226.465,291.668 226.913,291.686 227.557 C 291.711 228.436,291.872 228.670,292.329 228.495 C 292.768 228.327,292.869 228.443,292.690 228.910 C 292.512 229.373,292.612 229.494,293.037 229.331 C 293.365 229.205,293.581 229.259,293.519 229.451 C 293.456 229.643,293.793 230.430,294.267 231.200 C 294.741 231.970,295.215 233.154,295.319 233.832 C 295.526 235.177,296.571 237.428,297.461 238.445 C 298.172 239.259,298.269 282.708,297.567 285.981 C 297.287 287.284,297.278 288.198,297.538 288.685 C 297.800 289.173,297.793 289.669,297.520 290.158 C 297.216 290.700,297.249 290.983,297.642 291.226 C 298.078 291.495,298.065 291.600,297.573 291.789 C 296.209 292.312,296.942 294.481,298.628 294.910 C 299.053 295.019,298.590 295.146,297.600 295.193 L 295.800 295.279 297.600 295.787 L 299.400 296.295 297.400 296.475 C 296.300 296.575,299.945 296.688,305.500 296.728 C 314.805 296.794,315.604 296.855,315.647 297.500 C 315.690 298.124,315.772 299.171,315.945 301.271 C 316.050 302.554,317.075 303.076,319.638 303.153 C 321.416 303.207,322.728 303.525,324.170 304.253 C 325.287 304.816,327.115 305.622,328.234 306.043 C 329.353 306.464,330.690 307.257,331.206 307.806 L 332.143 308.804 331.649 313.601 C 330.907 320.802,330.997 320.540,328.967 321.388 C 327.626 321.948,327.593 322.017,327.754 323.882 C 327.845 324.937,327.938 326.288,327.960 326.884 C 327.998 327.905,330.397 328.511,330.399 327.500 C 330.400 327.335,330.591 327.200,330.824 327.200 C 331.057 327.200,331.136 327.380,331.000 327.600 C 330.864 327.820,330.913 328.000,331.109 328.000 C 331.305 328.000,331.706 327.550,332.000 327.000 C 332.294 326.450,332.689 326.000,332.877 326.000 C 333.065 326.000,332.913 326.467,332.539 327.037 C 331.872 328.055,331.877 328.072,332.794 327.937 C 333.307 327.862,333.771 327.530,333.825 327.200 C 333.879 326.870,334.042 326.303,334.189 325.940 C 334.335 325.578,334.262 325.162,334.027 325.017 C 333.792 324.872,333.600 324.573,333.600 324.353 C 333.600 324.133,333.757 324.050,333.950 324.169 C 334.143 324.288,334.300 323.931,334.300 323.376 C 334.300 322.038,334.252 322.062,337.091 321.959 C 340.646 321.831,340.710 321.756,340.769 317.700 L 340.800 315.600 342.920 315.600 C 344.086 315.600,345.282 315.375,345.579 315.100 C 346.017 314.693,346.055 314.712,345.782 315.200 C 345.504 315.696,345.552 315.715,346.058 315.305 C 346.547 314.910,346.688 313.663,346.762 309.111 C 346.870 302.417,346.483 303.250,349.549 303.120 C 352.907 302.978,353.028 302.816,353.157 298.300 L 353.200 296.800 355.500 296.794 C 359.039 296.784,358.981 296.889,359.130 290.215 L 359.259 284.400 361.630 284.400 C 365.379 284.400,365.600 284.010,365.600 277.400 C 365.600 274.430,365.735 271.980,365.900 271.956 C 366.065 271.932,367.335 271.881,368.722 271.844 C 371.971 271.757,371.803 272.263,371.943 262.124 C 372.074 252.548,371.939 253.000,374.665 253.000 C 377.747 253.000,377.918 252.682,377.906 246.956 C 377.900 244.240,377.739 242.114,377.548 242.232 C 377.252 242.415,377.063 241.956,377.121 241.195 C 377.129 241.083,376.030 240.938,374.678 240.872 C 371.710 240.729,371.938 240.944,371.876 238.230 C 371.837 236.519,371.683 235.999,371.213 235.994 C 370.716 235.989,370.703 235.922,371.143 235.644 C 372.426 234.830,369.925 234.477,362.500 234.424 L 359.200 234.400 359.194 232.100 C 359.184 228.275,358.533 228.060,346.858 228.021 C 340.971 228.001,340.668 227.960,339.574 227.039 C 338.379 226.034,336.307 225.206,333.090 224.448 C 332.040 224.200,330.469 223.548,329.598 222.999 L 328.016 222.000 310.508 222.050 C 300.462 222.079,293.906 222.232,295.126 222.409 C 298.695 222.929,298.026 223.327,294.039 223.056 C 291.970 222.915,289.000 222.773,287.439 222.740 C 284.771 222.683,284.708 222.662,286.400 222.385 C 287.928 222.136,287.716 222.092,285.000 222.099 C 283.240 222.103,281.587 222.275,281.326 222.481 C 281.025 222.718,280.527 222.682,279.965 222.381 C 279.199 221.971,279.113 221.997,279.333 222.569 M291.910 223.626 C 291.463 223.887,290.759 223.895,289.910 223.650 C 288.648 223.286,288.673 223.271,290.600 223.248 C 292.123 223.230,292.436 223.320,291.910 223.626 M252.917 228.297 C 254.411 228.374,256.751 228.374,258.117 228.296 C 259.482 228.218,258.260 228.155,255.400 228.155 C 252.540 228.156,251.422 228.220,252.917 228.297 M279.373 303.679 C 279.207 303.965,279.218 304.068,279.396 303.906 C 279.575 303.745,279.952 303.925,280.235 304.306 C 280.714 304.952,280.742 304.946,280.640 304.222 C 280.506 303.275,279.784 302.965,279.373 303.679 M197.100 328.289 C 197.815 328.378,198.985 328.378,199.700 328.289 C 200.415 328.201,199.830 328.128,198.400 328.128 C 196.970 328.128,196.385 328.201,197.100 328.289 M267.800 346.064 C 262.022 346.318,258.309 346.963,250.800 349.018 C 249.382 349.406,245.186 349.754,239.000 349.998 C 228.469 350.413,226.235 350.810,223.525 352.748 C 221.957 353.869,221.218 354.059,215.400 354.835 C 208.283 355.785,198.715 358.117,197.245 359.259 C 196.437 359.887,191.740 361.600,190.826 361.600 C 190.666 361.600,189.560 360.690,188.368 359.578 C 184.836 356.285,184.907 356.297,164.486 355.359 L 158.771 355.096 157.086 353.202 C 153.641 349.332,150.876 348.733,135.800 348.589 C 130.080 348.534,121.800 348.303,117.400 348.075 C 105.019 347.434,99.022 348.567,97.460 351.844 C 97.104 352.590,96.866 353.200,96.931 353.200 C 96.996 353.200,97.759 352.858,98.625 352.439 C 101.595 351.005,104.771 350.664,112.535 350.945 C 116.531 351.090,125.830 351.378,133.200 351.587 C 148.937 352.032,149.853 352.201,152.937 355.221 C 155.837 358.061,157.173 358.398,165.571 358.411 C 175.587 358.426,179.818 358.888,181.151 360.110 C 181.728 360.639,182.785 361.303,183.500 361.585 C 184.215 361.867,184.800 362.252,184.800 362.442 C 184.800 363.344,189.033 364.876,192.670 365.289 C 198.409 365.941,198.692 366.502,198.948 377.737 C 199.037 381.669,199.221 383.366,199.582 383.589 C 199.986 383.839,199.979 383.948,199.545 384.120 C 198.692 384.459,217.654 384.343,219.000 384.000 L 220.200 383.695 219.000 383.641 C 218.180 383.605,217.969 383.481,218.334 383.250 C 218.770 382.973,218.761 382.871,218.283 382.687 C 217.620 382.433,217.822 380.398,218.560 379.906 C 218.879 379.693,218.879 379.611,218.560 379.606 C 218.281 379.602,218.184 378.959,218.295 377.848 C 218.407 376.723,218.243 375.656,217.835 374.868 C 217.074 373.397,217.009 372.002,217.700 371.994 C 217.975 371.990,220.360 371.808,223.000 371.588 C 228.509 371.130,230.000 371.444,230.000 373.063 C 230.000 374.218,230.977 375.871,232.378 377.086 C 233.815 378.331,234.513 378.262,234.258 376.900 C 234.144 376.295,233.940 374.953,233.804 373.917 C 233.341 370.397,231.230 369.390,223.600 369.048 C 215.595 368.688,208.400 367.439,208.400 366.408 C 208.400 366.228,206.825 364.904,204.900 363.466 C 200.288 360.021,199.887 359.373,201.855 358.551 C 205.231 357.141,209.205 356.452,215.454 356.194 C 222.341 355.910,223.907 355.608,225.052 354.342 C 227.731 351.379,240.839 350.861,257.500 353.060 C 259.098 353.271,259.623 353.691,258.870 354.157 C 258.688 354.269,258.520 355.765,258.496 357.480 C 258.471 359.196,258.192 361.815,257.875 363.300 C 257.547 364.835,257.459 366.000,257.672 366.000 C 257.879 366.000,257.931 366.188,257.789 366.418 C 257.647 366.647,257.749 367.097,258.015 367.418 C 258.398 367.879,258.384 368.001,257.949 368.006 C 257.526 368.011,257.515 368.085,257.898 368.329 C 258.172 368.502,258.436 369.130,258.485 369.722 C 258.534 370.315,258.715 370.800,258.887 370.800 C 259.059 370.800,259.200 371.079,259.200 371.420 C 259.200 371.964,260.281 372.033,267.900 371.981 C 278.218 371.911,278.000 371.994,278.000 368.138 C 278.000 365.867,278.084 365.600,278.800 365.600 C 279.532 365.600,279.600 365.333,279.600 362.449 C 279.600 359.164,280.316 356.677,281.541 355.706 C 284.945 353.008,289.430 353.996,290.416 357.660 L 290.829 359.194 293.115 359.097 C 294.372 359.044,295.658 358.755,295.973 358.455 C 296.703 357.762,296.959 354.402,296.282 354.394 C 295.952 354.390,295.971 354.280,296.343 354.044 C 296.933 353.670,296.558 353.289,295.302 352.985 C 287.454 351.089,284.800 349.785,284.800 347.822 C 284.800 346.512,276.690 345.673,267.800 346.064 " stroke="none" fill="#579fa7" fill-rule="evenodd"></path><path id="path2" d="M147.430 22.448 C 147.549 22.642,147.482 22.800,147.281 22.800 C 147.080 22.800,146.934 24.015,146.957 25.499 L 147.000 28.198 150.098 28.768 C 155.086 29.685,155.692 28.858,154.841 22.284 C 154.818 22.110,153.093 21.997,151.006 22.032 C 148.919 22.067,147.310 22.254,147.430 22.448 M240.164 22.525 C 237.990 23.762,239.702 29.859,242.037 29.190 C 242.685 29.004,243.256 28.849,243.307 28.847 C 243.358 28.844,244.165 28.719,245.100 28.570 L 246.800 28.298 246.800 26.182 C 246.800 24.864,246.612 23.991,246.300 23.865 C 245.931 23.716,245.944 23.655,246.349 23.632 C 246.814 23.605,246.814 23.497,246.349 22.923 C 245.876 22.340,245.883 22.293,246.400 22.582 C 246.897 22.860,246.911 22.822,246.483 22.362 C 246.043 21.889,245.911 21.895,245.589 22.403 C 245.382 22.732,245.209 22.820,245.206 22.600 C 245.197 22.022,241.153 21.962,240.164 22.525 M290.800 47.200 C 290.800 47.701,291.224 47.701,292.000 47.200 C 292.485 46.886,292.428 46.811,291.700 46.806 C 291.205 46.803,290.800 46.980,290.800 47.200 M251.481 62.247 C 251.381 62.339,240.594 62.783,232.800 63.015 C 229.610 63.110,226.100 63.395,225.000 63.648 C 222.547 64.212,218.681 65.614,218.920 65.853 C 219.701 66.634,228.564 67.940,231.800 67.752 C 236.240 67.493,237.751 68.110,239.069 70.721 C 240.493 73.543,240.655 73.650,243.160 73.424 C 244.392 73.313,248.852 73.013,253.072 72.758 L 260.744 72.294 260.872 68.946 C 260.942 67.105,260.893 65.599,260.761 65.599 C 260.630 65.600,260.107 65.240,259.600 64.800 C 259.093 64.360,258.435 64.000,258.139 64.000 C 257.842 64.000,257.600 63.843,257.600 63.651 C 257.600 63.459,256.852 63.183,255.938 63.037 C 255.024 62.890,254.088 62.655,253.858 62.512 C 253.474 62.275,251.668 62.073,251.481 62.247 M288.200 83.477 C 287.760 83.578,286.711 83.838,285.869 84.054 L 284.338 84.448 284.462 87.124 C 284.624 90.608,284.848 90.800,288.771 90.800 L 292.000 90.800 291.995 87.900 C 291.986 83.129,291.611 82.692,288.200 83.477 M157.881 101.883 C 156.951 103.225,156.800 103.845,156.800 106.322 L 156.800 109.200 160.567 109.200 C 165.731 109.200,165.600 109.289,165.600 105.774 L 165.600 102.834 163.900 101.838 C 160.820 100.033,159.155 100.045,157.881 101.883 M338.000 102.433 C 334.055 103.190,334.341 102.900,334.469 106.013 C 334.532 107.546,334.767 108.844,334.992 108.897 C 335.216 108.951,316.410 109.086,293.200 109.197 C 257.039 109.371,251.018 109.481,251.123 109.968 C 251.226 110.448,251.145 110.452,250.592 109.993 C 250.042 109.537,249.885 109.538,249.600 110.000 C 249.314 110.463,249.147 110.460,248.530 109.981 C 247.829 109.437,247.828 109.447,248.501 110.239 C 249.273 111.149,249.071 111.679,248.095 111.304 C 247.648 111.133,247.563 111.216,247.796 111.594 C 248.007 111.934,247.968 112.028,247.689 111.855 C 247.451 111.708,247.142 111.770,247.004 111.993 C 246.866 112.217,247.033 112.400,247.376 112.400 C 248.172 112.400,248.189 113.152,247.400 113.455 C 247.070 113.582,246.800 114.108,246.800 114.625 C 246.800 115.643,247.312 115.806,251.471 116.121 L 253.543 116.277 253.671 113.137 C 253.747 111.297,253.635 109.929,253.400 109.831 C 253.180 109.738,275.860 109.609,303.800 109.542 C 331.740 109.476,351.765 109.367,348.300 109.301 L 342.000 109.180 342.000 106.364 C 342.000 102.016,341.702 101.723,338.000 102.433 M114.887 113.024 C 113.374 114.084,112.800 115.725,112.800 118.993 L 112.800 122.026 117.300 121.913 L 121.800 121.800 121.919 118.846 C 122.061 115.303,121.498 114.468,118.119 113.204 C 115.558 112.246,115.966 112.268,114.887 113.024 M89.379 120.595 C 88.062 121.991,88.000 122.191,88.000 125.028 L 88.000 128.000 92.400 128.000 L 96.800 128.000 96.800 124.829 L 96.800 121.659 94.700 120.661 C 91.120 118.961,90.922 118.958,89.379 120.595 M165.867 122.267 C 164.814 123.319,165.634 128.370,167.047 129.534 C 172.767 134.249,176.585 130.880,175.247 122.300 C 175.189 121.929,166.236 121.897,165.867 122.267 M135.143 128.261 C 134.304 128.492,134.093 134.061,134.899 134.695 C 135.391 135.081,140.260 136.800,140.864 136.800 C 141.593 136.800,142.202 134.770,142.394 131.700 L 142.600 128.399 141.600 128.373 C 141.050 128.359,139.520 128.287,138.200 128.213 C 136.880 128.140,135.505 128.161,135.143 128.261 M103.421 134.713 C 103.299 134.834,103.200 136.241,103.200 137.839 C 103.200 141.151,103.571 141.612,107.476 143.151 L 109.486 143.943 110.962 142.727 L 112.439 141.510 112.366 137.937 L 112.294 134.364 107.968 134.428 C 105.588 134.463,103.542 134.591,103.421 134.713 M22.257 153.476 C 22.145 153.588,22.036 157.747,22.015 162.719 C 21.993 167.690,21.935 171.799,21.884 171.849 C 21.834 171.899,20.444 171.999,18.796 172.070 L 15.800 172.200 15.800 193.800 L 15.800 215.400 18.997 215.600 L 22.194 215.800 22.123 218.108 C 22.076 219.614,22.195 220.327,22.465 220.160 C 22.731 219.995,22.722 220.197,22.440 220.725 C 21.937 221.665,22.746 222.116,24.708 221.987 C 25.308 221.948,27.727 221.934,30.082 221.958 L 34.365 222.000 34.482 224.900 L 34.600 227.800 55.491 227.904 L 76.381 228.007 76.242 225.029 C 76.078 221.531,76.514 220.920,80.554 218.982 C 83.055 217.783,87.695 217.182,88.196 217.993 C 88.338 218.224,88.635 218.302,88.855 218.166 C 89.074 218.031,89.357 218.313,89.482 218.794 C 89.659 219.470,89.796 219.547,90.087 219.134 C 90.348 218.763,90.409 218.937,90.287 219.700 C 90.190 220.305,90.266 220.800,90.455 220.800 C 90.645 220.800,90.800 221.070,90.800 221.400 C 90.800 222.080,93.632 222.184,96.800 221.620 L 98.600 221.300 96.800 221.200 L 95.000 221.100 96.693 220.824 C 99.041 220.441,99.280 220.007,97.167 219.964 C 95.440 219.929,95.429 219.920,96.650 219.566 C 98.145 219.132,99.292 218.000,98.235 218.000 C 97.696 218.000,97.652 217.850,98.000 217.200 C 98.307 216.627,98.304 216.400,97.990 216.400 C 97.750 216.400,97.643 216.254,97.753 216.076 C 98.172 215.398,97.102 212.423,96.355 212.186 C 94.517 211.602,95.332 208.440,98.000 205.800 L 100.400 203.425 100.400 200.612 C 100.400 199.065,100.133 196.540,99.807 195.000 C 99.414 193.143,99.212 189.831,99.207 185.162 C 99.200 178.472,99.158 178.086,98.341 177.362 C 96.603 175.819,94.343 172.223,95.600 173.000 C 95.820 173.136,96.000 172.883,96.000 172.438 C 96.000 171.992,96.534 171.020,97.186 170.277 C 98.360 168.940,99.200 167.245,99.200 166.214 C 99.200 165.896,98.350 165.490,97.100 165.210 C 92.890 164.267,91.600 163.078,91.600 160.139 C 91.600 158.794,92.571 158.876,71.697 158.446 C 50.210 158.003,49.648 157.914,47.623 154.637 L 46.717 153.171 34.589 153.222 C 27.919 153.250,22.369 153.364,22.257 153.476 M190.000 198.200 C 189.592 198.691,189.620 198.800,190.151 198.800 C 190.508 198.800,190.800 198.530,190.800 198.200 C 190.800 197.870,190.732 197.600,190.649 197.600 C 190.566 197.600,190.274 197.870,190.000 198.200 M189.173 199.617 C 188.921 199.773,189.184 199.900,189.757 199.900 C 190.331 199.900,190.800 199.773,190.800 199.617 C 190.800 199.461,190.537 199.333,190.216 199.333 C 189.894 199.333,189.425 199.461,189.173 199.617 M189.600 200.692 C 189.930 200.817,190.332 201.118,190.494 201.360 C 190.675 201.631,190.790 201.532,190.794 201.100 C 190.798 200.630,190.505 200.410,189.900 200.432 C 189.299 200.453,189.199 200.539,189.600 200.692 M188.433 201.967 C 188.012 202.388,187.533 202.613,187.369 202.467 C 187.206 202.320,187.210 202.439,187.378 202.730 C 187.641 203.186,189.600 201.952,189.600 201.330 C 189.600 201.009,189.140 201.260,188.433 201.967 M241.559 228.273 C 241.036 228.406,240.925 229.000,240.959 231.487 L 241.000 234.538 243.200 235.052 C 246.123 235.735,247.400 235.723,247.994 235.007 C 248.493 234.406,248.808 229.460,248.390 228.784 C 248.152 228.399,242.674 227.989,241.559 228.273 M192.399 241.597 C 192.877 242.492,192.492 242.877,191.597 242.399 C 191.022 242.091,190.900 242.197,190.900 243.005 C 190.900 243.544,191.075 243.877,191.290 243.744 C 191.504 243.612,191.482 243.873,191.240 244.325 C 190.072 246.509,191.029 247.200,195.220 247.200 L 197.139 247.200 197.270 243.999 L 197.400 240.798 196.274 240.799 C 195.654 240.800,194.778 240.998,194.325 241.240 C 193.873 241.482,193.612 241.504,193.744 241.290 C 193.877 241.075,193.544 240.900,193.005 240.900 C 192.197 240.900,192.091 241.022,192.399 241.597 M140.856 256.370 L 140.751 259.449 143.786 259.921 C 148.003 260.576,148.454 260.268,148.339 256.800 C 148.223 253.273,148.105 253.170,144.223 253.236 L 140.961 253.292 140.856 256.370 M127.700 259.487 C 128.305 259.578,129.295 259.578,129.900 259.487 C 130.505 259.395,130.010 259.320,128.800 259.320 C 127.590 259.320,127.095 259.395,127.700 259.487 M72.036 275.056 C 71.945 278.495,71.830 278.395,76.027 278.515 L 79.000 278.600 79.200 275.737 C 79.318 274.043,79.250 272.968,79.032 273.103 C 78.828 273.229,78.782 273.025,78.927 272.645 C 79.165 272.026,78.846 271.967,75.652 272.031 L 72.114 272.103 72.036 275.056 M316.253 303.080 C 316.208 303.125,308.806 303.189,299.802 303.222 C 290.798 303.256,283.026 303.438,282.530 303.627 C 281.991 303.832,281.533 303.815,281.391 303.585 C 280.946 302.866,280.445 303.196,280.608 304.100 C 280.765 304.973,280.752 304.976,280.185 304.223 C 279.529 303.352,278.341 303.017,278.453 303.734 C 278.493 303.990,278.379 304.539,278.200 304.953 C 278.007 305.398,278.057 306.000,278.322 306.424 C 278.660 306.965,278.651 307.187,278.286 307.319 C 277.908 307.456,277.912 307.685,278.303 308.348 L 278.807 309.200 271.427 309.200 C 267.368 309.200,263.951 309.355,263.834 309.544 C 263.717 309.734,262.710 309.817,261.595 309.729 L 259.569 309.569 259.729 311.595 C 259.817 312.710,259.734 313.717,259.544 313.834 C 259.355 313.951,259.200 314.394,259.200 314.818 C 259.200 315.560,258.740 315.592,246.900 315.694 L 234.600 315.800 234.483 318.900 L 234.366 322.000 222.030 322.000 L 209.694 322.000 209.413 325.000 L 209.132 328.000 204.866 328.097 C 202.520 328.151,198.710 328.211,196.400 328.231 C 194.090 328.251,191.904 328.297,191.543 328.334 C 190.993 328.389,190.896 328.886,190.943 331.400 L 191.000 334.400 180.800 334.434 C 175.190 334.453,169.520 334.498,168.200 334.534 L 165.800 334.600 165.781 337.600 L 165.761 340.600 146.777 340.704 L 127.792 340.808 127.934 337.646 L 128.076 334.485 125.193 333.999 C 121.150 333.317,120.417 333.737,120.354 336.768 C 120.328 337.995,120.283 339.270,120.254 339.600 C 120.224 339.930,120.380 340.332,120.600 340.494 C 120.910 340.721,105.779 340.927,92.357 340.877 L 90.914 340.871 90.839 346.870 C 90.789 350.954,90.898 352.787,91.182 352.611 C 91.412 352.469,91.600 352.543,91.600 352.776 C 91.600 354.056,96.800 353.228,97.460 351.844 C 99.022 348.567,105.019 347.434,117.400 348.075 C 121.800 348.303,130.080 348.534,135.800 348.589 C 150.876 348.733,153.641 349.332,157.086 353.202 L 158.771 355.096 164.486 355.359 C 184.907 356.297,184.836 356.285,188.368 359.578 C 189.560 360.690,190.666 361.600,190.826 361.600 C 191.740 361.600,196.437 359.887,197.245 359.259 C 198.715 358.117,208.283 355.785,215.400 354.835 C 221.218 354.059,221.957 353.869,223.525 352.748 C 226.235 350.810,228.469 350.413,239.000 349.998 C 245.186 349.754,249.382 349.406,250.800 349.018 C 258.249 346.980,262.029 346.324,267.800 346.067 C 276.718 345.670,284.800 346.505,284.800 347.822 C 284.800 349.345,286.977 350.790,290.800 351.806 C 292.890 352.361,294.960 352.911,295.400 353.028 C 297.191 353.504,306.676 353.171,307.600 352.600 C 307.961 352.377,308.027 352.432,307.814 352.777 C 307.601 353.122,307.737 353.232,308.253 353.131 C 309.040 352.978,309.090 352.758,309.157 349.117 L 309.200 346.834 312.300 346.717 C 314.417 346.637,315.416 346.441,315.450 346.100 C 315.478 345.825,315.523 344.528,315.550 343.217 L 315.600 340.834 318.700 340.717 L 321.800 340.600 321.917 337.500 L 322.034 334.400 323.917 334.349 C 324.953 334.322,326.250 334.277,326.800 334.249 L 327.800 334.200 327.800 328.030 L 327.800 321.860 329.069 321.341 C 330.978 320.562,330.911 320.763,331.649 313.601 L 332.143 308.804 331.206 307.806 C 330.690 307.257,329.345 306.463,328.216 306.040 C 327.087 305.618,325.362 304.851,324.382 304.336 C 322.907 303.561,316.725 302.606,316.253 303.080 M196.298 315.094 C 195.866 315.573,195.620 316.766,195.533 318.800 L 195.405 321.800 199.202 321.800 L 203.000 321.800 203.115 318.700 C 203.178 316.995,203.166 315.600,203.088 315.600 C 202.764 315.600,198.149 314.741,197.567 314.572 C 197.219 314.471,196.648 314.706,196.298 315.094 M171.367 322.142 C 171.252 322.440,171.213 323.835,171.279 325.242 L 171.400 327.800 174.616 327.832 L 177.833 327.863 177.933 324.987 L 178.034 322.110 176.517 321.859 C 173.912 321.429,171.592 321.556,171.367 322.142 M333.747 324.548 C 333.961 325.153,333.857 325.256,333.205 325.086 C 332.762 324.970,332.500 325.038,332.623 325.237 C 332.932 325.737,333.895 325.693,334.222 325.165 C 334.369 324.926,334.263 324.521,333.986 324.265 C 333.591 323.900,333.539 323.961,333.747 324.548 M332.069 326.839 C 331.310 328.054,331.766 328.216,332.555 327.012 C 332.920 326.456,333.078 326.000,332.905 326.000 C 332.733 326.000,332.357 326.378,332.069 326.839 M145.899 327.700 C 145.450 328.044,145.228 328.887,145.189 330.400 C 145.073 334.849,144.670 334.445,149.100 334.314 L 153.000 334.200 153.116 331.144 L 153.232 328.088 150.683 327.644 C 147.430 327.077,146.702 327.086,145.899 327.700 M282.507 355.072 C 280.366 356.460,279.600 358.423,279.600 362.525 L 279.600 365.623 285.100 365.511 L 290.600 365.400 290.600 361.329 C 290.600 356.486,290.056 355.404,287.187 354.546 C 284.729 353.812,284.393 353.849,282.507 355.072 M224.400 371.462 C 223.630 371.535,221.695 371.702,220.100 371.832 C 216.862 372.096,216.590 372.460,217.835 374.868 C 218.243 375.656,218.407 376.723,218.295 377.848 C 218.184 378.959,218.281 379.602,218.560 379.606 C 218.879 379.611,218.879 379.693,218.560 379.906 C 217.822 380.398,217.620 382.433,218.283 382.687 C 218.761 382.871,218.770 382.973,218.334 383.250 C 217.969 383.481,218.180 383.605,219.000 383.641 L 220.200 383.695 219.000 384.015 C 218.312 384.198,221.301 384.306,226.000 384.267 L 234.200 384.200 234.257 381.100 C 234.296 379.015,234.165 377.995,233.857 377.986 C 232.568 377.945,230.000 374.678,230.000 373.078 C 230.000 372.449,229.657 371.972,228.981 371.664 C 227.991 371.213,227.317 371.183,224.400 371.462 " stroke="none" fill="#66b6d9" fill-rule="evenodd"></path><path id="path3" d="M155.059 25.126 C 155.278 29.269,154.750 29.648,150.026 28.748 L 146.876 28.147 147.266 29.173 C 148.566 32.594,153.108 34.061,157.836 32.588 C 158.916 32.252,160.423 31.888,161.185 31.780 C 166.074 31.086,169.979 28.939,168.694 27.654 C 168.355 27.315,168.357 27.083,168.700 26.740 C 169.046 26.394,169.007 25.986,168.542 25.087 C 168.061 24.157,168.034 23.826,168.420 23.587 C 168.774 23.369,168.699 23.226,168.158 23.087 C 167.736 22.979,168.110 22.845,169.000 22.784 C 171.443 22.619,164.534 22.086,159.347 22.040 L 154.894 22.000 155.059 25.126 M180.200 22.400 C 175.904 22.555,174.786 22.673,176.800 22.759 C 179.755 22.886,179.773 22.893,178.001 23.240 C 177.012 23.433,176.142 23.774,176.068 23.996 C 175.994 24.218,175.665 24.400,175.338 24.400 C 174.834 24.400,174.827 24.484,175.291 24.948 C 176.687 26.344,175.563 33.200,173.938 33.200 C 173.015 33.200,172.046 34.741,172.653 35.244 C 172.983 35.518,173.516 36.250,173.837 36.871 C 174.345 37.854,174.651 38.000,176.210 38.000 L 178.000 38.000 178.000 42.368 L 178.000 46.737 174.999 46.868 L 171.998 47.000 171.999 45.116 C 172.001 41.865,171.540 41.673,163.383 41.525 C 157.075 41.411,156.380 41.327,155.531 40.580 C 154.319 39.512,150.927 37.774,149.400 37.438 C 143.222 36.079,140.108 33.936,141.277 31.848 C 141.473 31.498,141.435 31.145,141.186 30.991 C 140.896 30.812,140.927 30.524,141.281 30.088 C 141.703 29.566,141.703 29.505,141.282 29.758 C 140.998 29.929,140.503 29.851,140.182 29.585 C 139.713 29.196,139.600 29.228,139.600 29.751 C 139.600 30.108,139.375 30.403,139.100 30.406 C 138.767 30.410,138.800 30.542,139.200 30.800 C 139.561 31.033,139.610 31.190,139.324 31.194 C 138.667 31.202,138.297 30.511,138.793 30.204 C 139.318 29.880,139.323 28.800,138.800 28.800 C 138.580 28.800,138.400 29.081,138.400 29.424 C 138.400 29.798,138.213 29.932,137.932 29.758 C 137.617 29.564,137.548 29.687,137.719 30.134 C 137.889 30.576,137.769 30.800,137.364 30.800 C 137.028 30.800,136.856 30.632,136.983 30.428 C 137.109 30.223,137.030 29.942,136.807 29.804 C 136.226 29.445,136.303 30.542,136.900 31.144 C 137.301 31.548,137.252 31.591,136.653 31.363 C 136.010 31.118,135.965 31.188,136.329 31.867 C 136.806 32.759,136.740 33.826,136.178 34.288 C 135.970 34.460,135.929 34.441,136.086 34.247 C 136.243 34.053,136.180 33.537,135.946 33.099 C 135.617 32.484,135.634 32.374,136.022 32.614 C 136.347 32.814,136.423 32.761,136.238 32.462 C 135.819 31.784,135.075 31.898,135.345 32.600 C 135.665 33.435,135.212 34.449,134.658 34.136 C 134.406 33.993,134.728 34.444,135.374 35.137 C 136.934 36.813,139.860 37.834,143.973 38.137 L 147.346 38.386 149.773 40.964 C 152.422 43.778,154.123 44.402,157.617 43.844 C 159.383 43.561,161.934 44.654,165.139 47.064 C 167.578 48.898,170.761 49.986,174.775 50.356 C 178.671 50.716,179.114 50.899,181.977 53.343 C 183.860 54.950,184.414 55.182,188.320 55.994 C 194.026 57.181,196.991 58.196,199.400 59.788 C 201.809 61.379,203.862 61.993,206.800 62.003 C 209.400 62.011,212.697 62.824,214.541 63.912 C 215.719 64.607,215.944 64.628,216.630 64.101 C 218.908 62.354,223.257 61.100,228.800 60.593 C 230.230 60.463,232.583 60.175,234.028 59.954 L 236.656 59.552 237.428 57.678 C 237.853 56.648,238.151 55.657,238.092 55.478 C 238.032 55.298,238.241 54.667,238.555 54.076 C 239.778 51.776,240.585 46.094,239.919 44.480 C 239.658 43.846,239.511 41.466,239.565 38.715 L 239.656 34.029 238.609 33.767 C 238.034 33.622,237.646 33.421,237.747 33.319 C 237.849 33.218,237.235 32.474,236.383 31.667 C 234.667 30.042,233.617 27.891,233.850 26.476 C 233.959 25.817,233.858 25.638,233.501 25.852 C 233.158 26.058,233.173 25.940,233.549 25.477 C 234.014 24.903,234.014 24.799,233.549 24.794 C 233.118 24.789,233.129 24.705,233.600 24.400 C 234.133 24.055,234.133 24.011,233.600 24.000 C 233.067 23.989,233.067 23.945,233.600 23.600 C 233.930 23.387,234.020 23.198,233.800 23.181 C 233.580 23.163,233.805 22.986,234.300 22.787 C 234.796 22.588,235.452 22.522,235.760 22.640 C 236.067 22.758,236.438 22.662,236.583 22.427 C 236.864 21.973,192.638 21.951,180.200 22.400 M147.305 128.287 C 147.914 128.379,148.814 128.377,149.305 128.282 C 149.797 128.187,149.300 128.111,148.200 128.114 C 147.100 128.117,146.697 128.195,147.305 128.287 M286.400 222.373 C 284.689 222.665,284.741 222.683,287.439 222.740 C 289.000 222.773,291.970 222.895,294.039 223.010 C 296.801 223.164,297.551 223.111,296.864 222.810 C 295.638 222.272,288.696 221.982,286.400 222.373 M289.910 223.650 C 290.759 223.895,291.463 223.887,291.910 223.626 C 292.436 223.320,292.123 223.230,290.600 223.248 C 288.673 223.271,288.648 223.286,289.910 223.650 M290.400 224.400 C 289.248 224.643,289.177 224.708,290.000 224.773 L 291.000 224.851 290.010 225.246 C 289.267 225.542,289.153 225.724,289.555 225.972 C 290.001 226.248,289.999 226.340,289.545 226.520 C 289.245 226.639,289.540 226.772,290.200 226.815 C 290.912 226.861,291.115 226.967,290.700 227.076 C 290.315 227.176,290.000 227.494,290.000 227.783 C 290.000 228.998,285.428 229.669,281.946 228.966 C 280.044 228.582,274.546 228.398,262.546 228.315 C 253.336 228.252,246.339 228.261,246.999 228.336 C 248.558 228.513,248.631 228.674,248.552 231.784 C 248.451 235.806,247.901 236.122,242.988 234.983 C 240.150 234.324,217.455 234.148,216.438 234.776 C 216.173 234.940,215.866 236.306,215.756 237.811 C 215.646 239.315,215.466 240.693,215.355 240.873 C 215.244 241.053,215.323 241.200,215.532 241.200 C 215.740 241.200,216.037 241.875,216.191 242.700 C 216.658 245.197,217.964 246.053,222.094 246.569 C 224.933 246.924,225.378 247.766,223.813 249.819 C 223.148 250.691,222.951 251.205,223.280 251.213 C 223.566 251.220,223.304 251.595,222.698 252.048 C 222.092 252.500,221.702 253.042,221.832 253.252 C 221.963 253.463,221.810 254.032,221.493 254.518 C 220.416 256.168,220.290 258.193,219.979 278.800 C 219.809 290.130,219.518 300.392,219.334 301.604 L 219.000 303.808 217.400 303.926 C 212.194 304.307,209.924 306.656,209.895 311.686 C 209.874 315.372,209.891 315.383,215.887 315.493 C 222.027 315.606,222.000 315.622,222.000 311.748 L 222.000 308.794 233.510 309.059 C 247.117 309.373,246.629 309.488,246.758 305.931 C 246.808 304.549,246.894 303.373,246.949 303.318 C 247.004 303.263,253.818 303.205,262.091 303.191 C 276.934 303.164,277.831 303.091,277.966 301.900 C 277.985 301.735,278.000 300.520,278.000 299.200 L 278.000 296.800 285.900 296.797 C 290.245 296.796,295.060 296.672,296.600 296.523 L 299.400 296.252 297.600 295.765 L 295.800 295.279 297.600 295.193 C 298.590 295.146,299.053 295.019,298.628 294.910 C 296.942 294.481,296.209 292.312,297.573 291.789 C 298.061 291.602,298.075 291.494,297.647 291.229 C 297.260 290.990,297.227 290.697,297.525 290.141 C 297.795 289.636,297.799 289.141,297.537 288.673 C 297.274 288.203,297.283 287.303,297.565 285.990 C 298.269 282.708,298.173 239.260,297.461 238.445 C 296.571 237.428,295.526 235.177,295.319 233.832 C 295.215 233.154,294.741 231.970,294.267 231.200 C 293.793 230.430,293.456 229.643,293.519 229.451 C 293.581 229.259,293.365 229.205,293.037 229.331 C 292.612 229.494,292.512 229.373,292.690 228.910 C 292.869 228.443,292.768 228.327,292.329 228.495 C 291.872 228.670,291.711 228.436,291.686 227.557 C 291.668 226.913,291.781 226.465,291.938 226.562 C 292.095 226.659,292.200 226.257,292.172 225.669 C 292.141 225.031,292.378 224.490,292.760 224.328 C 293.629 223.959,292.303 223.999,290.400 224.400 M190.962 241.261 C 190.644 241.777,191.927 242.893,192.460 242.563 C 192.865 242.313,192.135 240.800,191.610 240.800 C 191.410 240.800,191.119 241.007,190.962 241.261 M197.467 241.067 C 197.320 241.213,197.200 242.671,197.200 244.307 L 197.200 247.281 192.300 247.095 C 189.605 246.994,188.147 246.985,189.060 247.075 C 190.490 247.218,190.790 247.418,191.225 248.520 C 193.297 253.773,201.293 253.871,202.732 248.662 C 202.950 247.873,203.031 245.881,202.913 244.236 L 202.698 241.245 204.849 241.097 C 206.032 241.015,204.915 240.915,202.367 240.874 C 199.818 240.833,197.613 240.920,197.467 241.067 M167.141 247.099 C 165.943 247.264,165.771 247.693,165.651 250.814 C 165.490 254.993,171.664 258.129,174.363 255.240 C 175.593 253.923,176.428 247.712,175.400 247.526 C 175.180 247.486,176.440 247.336,178.200 247.193 C 180.620 246.996,179.790 246.935,174.800 246.943 C 171.170 246.948,167.723 247.019,167.141 247.099 M147.878 253.700 C 148.084 253.975,148.293 255.381,148.342 256.824 C 148.454 260.134,147.818 260.654,144.445 260.011 C 140.707 259.298,140.303 259.626,142.477 261.611 C 147.436 266.141,152.949 263.335,152.743 256.384 L 152.648 253.200 150.075 253.200 C 148.083 253.200,147.587 253.313,147.878 253.700 M122.169 260.050 C 121.968 260.376,122.052 260.418,122.438 260.185 C 122.879 259.919,122.905 259.970,122.559 260.423 C 122.316 260.740,122.083 262.080,122.041 263.400 L 121.965 265.800 123.882 267.090 C 129.120 270.612,132.555 268.927,132.322 262.950 L 132.200 259.800 127.331 259.688 C 123.904 259.609,122.375 259.716,122.169 260.050 M106.400 266.000 C 106.883 266.312,106.819 266.389,106.076 266.394 C 105.568 266.397,105.249 266.556,105.367 266.746 C 105.485 266.937,105.041 267.030,104.381 266.953 C 103.378 266.836,103.265 266.904,103.690 267.365 C 103.971 267.668,104.380 267.831,104.600 267.728 C 104.820 267.624,104.595 267.897,104.100 268.334 C 102.502 269.745,102.836 271.904,104.700 272.208 C 105.525 272.343,106.962 272.598,107.893 272.776 C 110.233 273.224,110.529 272.753,110.242 269.040 L 110.011 266.050 111.306 265.889 C 112.094 265.791,111.700 265.703,110.300 265.664 C 108.991 265.628,108.000 265.772,108.000 266.000 C 108.000 266.220,107.809 266.400,107.576 266.400 C 107.343 266.400,107.264 266.220,107.400 266.000 C 107.538 265.777,107.239 265.603,106.724 265.606 C 105.981 265.611,105.917 265.688,106.400 266.000 M79.067 272.267 C 78.701 272.632,78.729 273.292,79.100 273.061 C 79.265 272.958,79.310 274.163,79.200 275.737 C 78.969 279.051,78.736 279.177,74.192 278.465 L 71.812 278.092 73.406 279.437 C 78.392 283.647,83.200 281.628,83.200 275.325 L 83.200 272.000 81.267 272.000 C 80.203 272.000,79.213 272.120,79.067 272.267 M50.290 278.243 C 50.193 278.341,49.475 278.444,48.694 278.473 C 47.121 278.533,46.979 278.840,46.836 282.512 C 46.764 284.368,46.807 284.444,48.257 285.049 C 54.007 287.452,56.000 286.595,56.000 281.720 C 56.000 279.004,55.929 278.753,55.062 278.423 C 54.100 278.058,50.607 277.926,50.290 278.243 M40.800 298.651 C 40.800 302.988,40.883 303.090,44.446 303.157 L 47.093 303.207 47.773 300.704 C 48.148 299.327,48.525 297.930,48.611 297.600 C 49.000 296.111,47.702 295.408,44.183 295.200 L 40.799 295.000 40.800 298.651 M195.463 310.652 C 193.544 311.316,191.600 312.699,191.600 313.400 C 191.600 313.700,191.015 314.354,190.300 314.853 C 188.735 315.946,188.371 316.429,188.704 316.969 C 188.842 317.192,188.966 318.278,188.978 319.381 L 189.000 321.386 190.600 321.670 C 191.480 321.826,192.926 321.964,193.814 321.977 L 195.428 322.000 195.532 318.900 C 195.678 314.588,196.034 314.278,199.964 315.035 C 203.448 315.707,203.377 315.742,202.811 313.639 C 202.097 310.988,198.599 309.566,195.463 310.652 M53.600 313.200 C 53.003 313.569,53.159 319.903,53.786 320.777 C 54.106 321.223,54.073 321.277,53.638 321.015 C 53.245 320.778,53.167 320.824,53.379 321.165 C 53.545 321.434,53.933 321.558,54.240 321.440 C 54.548 321.322,54.800 321.359,54.800 321.522 C 54.800 321.685,55.912 321.849,57.271 321.886 C 59.055 321.935,59.840 322.129,60.096 322.585 C 60.290 322.933,60.663 323.110,60.925 322.979 C 61.186 322.848,61.085 322.999,60.700 323.314 C 59.391 324.388,60.841 327.492,62.455 327.070 C 62.865 326.962,63.100 327.038,62.977 327.237 C 62.854 327.437,63.134 327.600,63.600 327.600 C 64.066 327.600,64.346 327.437,64.223 327.237 C 64.100 327.038,64.359 326.969,64.799 327.084 C 65.502 327.268,65.600 327.629,65.600 330.023 C 65.600 331.524,65.783 332.866,66.007 333.004 C 66.230 333.142,66.309 333.423,66.183 333.628 C 66.056 333.832,66.188 334.020,66.476 334.044 C 66.764 334.069,67.990 334.158,69.200 334.242 C 70.410 334.327,71.628 334.482,71.907 334.588 C 73.187 335.073,74.000 333.513,74.000 330.573 C 74.000 326.955,73.608 326.567,69.686 326.302 C 66.176 326.065,66.133 326.025,66.030 322.900 C 66.011 322.323,65.749 321.998,65.300 321.994 C 64.915 321.991,64.150 321.761,63.600 321.482 C 62.588 320.970,62.543 320.810,62.450 317.347 C 62.357 313.903,56.730 311.266,53.600 313.200 M170.104 318.189 C 167.203 319.532,166.331 321.142,166.482 324.876 L 166.600 327.800 169.000 327.917 L 171.400 328.034 171.400 324.917 L 171.400 321.800 174.700 321.867 C 178.488 321.943,178.542 321.879,176.440 319.790 C 174.073 317.437,172.555 317.053,170.104 318.189 M144.491 324.595 C 143.207 324.913,141.676 325.697,140.575 326.599 L 138.768 328.080 138.884 331.140 L 139.000 334.200 142.131 334.317 C 145.181 334.432,145.260 334.411,145.187 333.517 C 144.701 327.595,145.365 326.780,150.045 327.553 C 151.620 327.813,152.985 327.949,153.079 327.855 C 153.478 327.455,150.707 324.881,149.650 324.670 C 149.014 324.543,148.067 324.356,147.547 324.256 C 147.026 324.155,145.651 324.308,144.491 324.595 M119.718 331.070 C 116.004 332.180,114.490 333.890,114.333 337.154 C 114.166 340.598,114.385 340.808,118.083 340.768 C 119.687 340.751,120.816 340.660,120.590 340.565 C 119.896 340.274,120.369 334.718,121.140 334.105 C 121.782 333.594,123.790 333.658,126.951 334.290 C 128.182 334.536,128.186 334.532,127.554 333.569 C 126.037 331.252,122.686 330.183,119.718 331.070 M230.400 351.953 C 228.006 352.254,226.219 353.053,225.051 354.344 C 223.907 355.608,222.339 355.911,215.454 356.194 C 209.205 356.452,205.231 357.141,201.855 358.551 C 199.887 359.373,200.288 360.021,204.900 363.466 C 206.825 364.904,208.400 366.228,208.400 366.408 C 208.400 367.439,215.595 368.688,223.600 369.048 C 231.230 369.390,233.341 370.397,233.804 373.917 C 233.940 374.953,234.146 376.302,234.261 376.915 L 234.470 378.030 246.441 377.978 C 257.151 377.931,258.447 377.856,258.751 377.263 C 259.204 376.376,259.345 370.800,258.914 370.800 C 258.727 370.800,258.534 370.315,258.485 369.722 C 258.436 369.130,258.172 368.502,257.898 368.329 C 257.515 368.085,257.526 368.011,257.949 368.006 C 258.384 368.001,258.398 367.879,258.015 367.418 C 257.749 367.097,257.647 366.647,257.789 366.418 C 257.931 366.188,257.879 366.000,257.672 366.000 C 257.459 366.000,257.547 364.835,257.875 363.300 C 258.192 361.815,258.471 359.196,258.496 357.480 C 258.520 355.765,258.688 354.269,258.870 354.157 C 259.623 353.691,259.098 353.271,257.500 353.060 C 250.022 352.073,234.482 351.438,230.400 351.953 M216.250 359.483 C 215.819 359.914,209.243 359.993,208.982 359.570 C 208.847 359.353,210.360 359.200,212.643 359.200 C 214.783 359.200,216.406 359.327,216.250 359.483 " stroke="none" fill="#9fcd7c" fill-rule="evenodd"></path><path id="path4" d="M122.267 34.667 C 122.120 34.813,122.000 36.253,122.000 37.867 L 122.000 40.800 115.834 40.800 L 109.668 40.800 109.387 43.800 L 109.106 46.800 103.433 46.800 C 96.745 46.800,96.800 46.769,96.800 50.480 L 96.800 53.200 93.800 53.200 L 90.800 53.200 90.800 56.146 L 90.800 59.091 84.761 59.285 C 77.831 59.508,78.015 59.404,78.006 63.082 L 78.000 65.565 75.100 65.682 L 72.200 65.800 72.083 68.883 L 71.967 71.967 68.883 72.083 L 65.800 72.200 65.682 75.100 L 65.565 78.000 63.882 78.046 C 62.957 78.071,61.874 78.058,61.476 78.017 C 60.182 77.882,59.649 78.793,59.371 81.615 L 59.100 84.367 56.250 84.483 L 53.400 84.600 53.290 90.700 L 53.179 96.800 50.890 96.847 C 49.630 96.873,48.446 96.867,48.258 96.833 C 47.367 96.673,46.911 97.785,46.842 100.283 C 46.753 103.511,47.154 103.136,43.690 103.237 L 40.800 103.321 40.800 109.444 L 40.800 115.566 37.700 115.683 L 34.600 115.800 34.600 125.000 L 34.600 134.200 42.203 134.308 L 49.807 134.417 49.665 131.288 C 49.492 127.487,50.167 125.548,51.991 124.605 C 53.877 123.629,57.246 124.665,58.505 126.608 L 59.400 127.990 72.500 127.995 L 85.600 128.000 85.601 124.500 C 85.602 118.714,87.446 116.531,91.976 116.954 C 94.769 117.216,96.091 118.187,96.577 120.334 L 96.954 122.000 103.833 122.000 L 110.712 122.000 110.868 117.700 C 111.050 112.692,111.601 111.472,114.004 110.751 C 117.402 109.734,120.806 111.191,121.656 114.029 L 122.131 115.614 131.365 115.507 L 140.600 115.400 140.717 112.300 L 140.834 109.200 147.817 109.200 L 154.800 109.200 154.809 106.100 C 154.825 100.402,157.162 97.648,161.320 98.425 C 164.120 98.948,164.757 99.429,165.291 101.423 L 165.769 103.211 178.184 103.106 L 190.600 103.000 190.717 99.900 L 190.834 96.800 200.017 96.800 L 209.200 96.800 209.200 93.804 L 209.200 90.808 227.900 90.704 L 246.600 90.600 246.717 87.500 L 246.834 84.400 265.790 84.400 C 283.949 84.400,284.756 84.369,284.983 83.653 C 285.356 82.478,286.625 81.536,288.851 80.783 C 292.721 79.473,294.800 81.841,294.800 87.560 L 294.800 90.800 305.182 90.800 L 315.565 90.800 315.682 93.700 L 315.800 96.600 321.900 96.710 L 328.000 96.821 328.046 98.510 C 328.071 99.440,328.061 100.508,328.024 100.884 C 327.842 102.692,328.673 103.200,331.814 103.200 C 334.027 103.200,334.800 103.063,334.800 102.670 C 334.800 101.334,338.470 99.200,340.768 99.200 C 343.916 99.200,344.909 100.862,344.762 105.886 L 344.671 109.000 348.836 109.000 L 353.000 109.000 353.112 103.455 C 353.243 96.907,353.260 96.940,349.717 96.842 C 346.489 96.753,346.864 97.154,346.763 93.690 L 346.679 90.800 343.739 90.800 L 340.800 90.800 340.800 88.233 C 340.800 84.407,340.793 84.400,337.357 84.400 L 334.400 84.400 334.400 81.447 C 334.400 78.049,334.359 78.015,330.300 78.005 L 328.000 78.000 328.000 75.000 L 328.000 72.000 325.000 72.000 L 322.000 72.000 322.000 69.433 C 322.000 65.607,321.993 65.600,318.557 65.600 L 315.600 65.600 315.600 62.657 L 315.600 59.714 313.141 59.457 C 309.451 59.071,309.200 59.106,309.200 59.994 C 309.200 62.600,307.824 65.600,306.629 65.600 C 305.640 65.600,305.884 66.320,307.400 67.881 C 308.170 68.674,308.800 69.565,308.800 69.861 C 308.800 70.158,308.980 70.400,309.200 70.400 C 309.420 70.400,309.600 70.940,309.600 71.600 L 309.600 72.800 307.100 72.792 C 305.725 72.787,302.800 73.051,300.600 73.379 C 295.144 74.191,285.750 74.808,279.000 74.796 C 275.920 74.791,270.970 74.972,268.000 75.200 C 246.323 76.858,238.453 76.405,237.036 73.419 C 235.881 70.984,234.683 70.255,232.313 70.540 C 231.151 70.680,226.889 70.582,222.841 70.322 C 214.364 69.778,213.772 69.528,212.600 66.000 C 211.776 63.520,209.929 61.831,208.447 62.203 C 203.025 63.564,200.611 63.046,198.518 60.073 C 196.872 57.735,192.394 56.378,187.830 56.833 C 183.828 57.232,182.846 56.778,181.132 53.740 C 179.312 50.517,178.509 50.263,171.230 50.604 L 165.400 50.877 164.103 49.594 C 163.389 48.888,162.588 47.586,162.323 46.701 C 161.582 44.228,160.299 43.645,156.167 43.903 L 152.794 44.113 150.046 41.248 L 147.297 38.382 143.949 38.135 C 140.077 37.850,136.933 36.819,135.596 35.396 C 134.670 34.410,123.154 33.780,122.267 34.667 M209.778 115.956 C 209.680 116.053,209.613 116.418,209.628 116.767 C 209.649 117.232,209.747 117.188,210.000 116.600 C 210.280 115.948,210.349 115.925,210.372 116.476 C 210.387 116.848,210.217 117.266,209.993 117.404 C 209.770 117.542,209.683 117.810,209.800 118.000 C 209.917 118.190,209.830 118.458,209.607 118.596 C 209.029 118.953,209.102 121.491,209.700 121.865 C 210.282 122.229,210.876 122.370,212.800 122.602 C 213.570 122.695,214.594 122.868,215.075 122.987 C 216.116 123.244,216.589 122.640,216.630 121.000 C 216.647 120.340,216.794 119.395,216.957 118.900 C 217.153 118.305,217.093 118.000,216.778 118.000 C 216.415 118.000,216.412 117.867,216.768 117.438 C 217.144 116.985,216.986 116.752,215.956 116.238 C 214.356 115.440,214.254 115.443,214.574 116.278 C 214.798 116.859,214.715 116.847,213.995 116.195 C 213.281 115.549,213.032 115.512,212.336 115.947 C 211.885 116.229,211.635 116.267,211.780 116.032 C 212.033 115.623,210.181 115.552,209.778 115.956 M146.112 134.022 C 146.309 140.464,146.413 140.689,148.666 139.575 C 150.765 138.536,151.754 136.196,151.730 132.321 C 151.717 130.225,151.854 129.584,152.357 129.378 C 153.475 128.919,151.689 128.459,148.670 128.428 L 145.940 128.400 146.112 134.022 M115.139 139.739 C 114.979 145.895,114.833 146.210,111.973 146.604 C 106.544 147.350,103.886 146.180,103.444 142.849 L 103.170 140.780 91.016 140.812 C 78.227 140.845,77.900 140.891,78.059 142.647 C 78.096 143.061,78.098 144.144,78.063 145.052 L 78.000 146.705 74.300 146.947 C 69.592 147.255,60.168 147.300,53.128 147.047 C 46.745 146.818,46.931 146.711,46.971 150.580 L 47.000 153.361 49.600 153.910 C 51.412 154.293,53.109 154.366,55.200 154.151 C 62.679 153.383,91.580 154.065,95.786 155.108 C 98.592 155.804,101.200 157.664,101.200 158.971 C 101.200 160.010,102.648 160.186,111.256 160.193 C 119.946 160.200,121.872 160.530,121.502 161.948 C 121.466 162.086,121.571 163.153,121.734 164.317 L 122.032 166.434 126.116 166.163 C 130.968 165.841,130.559 166.072,129.862 164.051 C 129.300 162.419,129.305 162.400,130.247 162.400 C 131.070 162.400,131.200 162.208,131.200 161.000 C 131.200 159.638,131.157 159.600,129.633 159.600 L 128.065 159.600 128.022 153.382 C 127.986 148.260,128.087 147.056,128.598 146.545 C 129.157 145.986,129.100 145.791,128.005 144.544 C 127.032 143.437,126.872 143.013,127.197 142.406 C 127.443 141.946,127.456 141.558,127.231 141.419 C 127.002 141.278,127.002 140.692,127.229 139.897 C 127.433 139.187,127.600 138.559,127.600 138.503 C 127.600 138.446,127.195 138.386,126.700 138.368 C 126.107 138.348,126.005 138.261,126.400 138.115 C 128.008 137.519,128.146 137.003,126.765 136.753 L 125.400 136.505 126.676 136.453 C 128.476 136.378,128.793 135.600,127.024 135.600 C 125.242 135.600,125.148 134.907,126.900 134.689 C 127.615 134.601,125.293 134.499,121.739 134.464 L 115.278 134.400 115.139 139.739 M321.163 158.196 C 320.592 158.506,319.638 159.399,319.042 160.180 C 316.999 162.859,316.831 162.889,302.202 163.227 C 284.176 163.642,284.247 163.633,282.000 165.996 C 278.917 169.239,278.856 169.257,269.000 169.803 C 264.302 170.063,262.116 170.823,259.950 172.948 C 257.410 175.441,255.403 176.005,247.600 176.419 L 241.000 176.769 239.872 178.084 C 236.249 182.308,236.069 182.397,231.074 182.409 C 225.937 182.421,222.722 183.950,221.417 187.000 C 221.134 187.660,220.071 189.073,219.053 190.140 C 218.035 191.208,217.303 192.243,217.425 192.440 C 217.547 192.638,217.457 192.800,217.224 192.800 C 216.991 192.800,216.829 192.935,216.865 193.100 C 216.900 193.265,216.692 193.940,216.401 194.600 C 215.707 196.178,215.504 202.490,216.134 202.891 C 216.390 203.054,222.045 203.191,228.700 203.194 L 240.800 203.200 240.800 206.200 L 240.800 209.200 253.183 209.200 L 265.566 209.200 265.683 212.300 L 265.800 215.400 278.300 215.506 L 290.800 215.611 290.800 218.563 C 290.800 222.334,288.931 222.000,310.041 222.000 L 328.016 222.000 329.598 222.999 C 330.469 223.548,332.040 224.200,333.090 224.448 C 336.282 225.200,338.376 226.031,339.535 227.007 C 340.604 227.906,340.905 227.939,349.019 228.033 C 353.629 228.086,357.625 228.302,357.900 228.514 C 358.231 228.768,358.400 228.746,358.400 228.449 C 358.400 228.129,361.221 228.000,368.200 228.000 L 378.000 228.000 378.000 200.876 L 378.000 173.753 375.100 174.065 L 372.200 174.376 370.200 172.229 C 369.100 171.048,367.345 169.683,366.299 169.196 C 365.254 168.710,364.056 167.926,363.637 167.456 C 363.218 166.985,362.253 165.892,361.493 165.026 C 359.806 163.107,358.231 162.853,347.800 162.819 C 340.275 162.795,339.432 162.564,337.545 160.011 C 335.958 157.865,334.923 157.598,328.239 157.616 C 323.826 157.628,321.921 157.784,321.163 158.196 M139.829 168.461 C 138.897 170.330,139.022 172.549,140.132 173.839 L 141.065 174.923 143.232 173.762 C 146.540 171.989,146.098 168.621,142.423 167.600 C 140.481 167.060,140.538 167.042,139.829 168.461 M169.127 187.755 L 169.254 191.574 170.727 191.838 C 172.514 192.158,173.533 192.980,174.255 194.687 C 174.947 196.323,174.996 201.200,174.320 201.200 C 173.947 201.200,173.947 201.307,174.320 201.680 C 175.291 202.651,174.702 202.799,170.100 202.737 C 166.524 202.689,165.878 202.609,167.400 202.400 L 169.400 202.126 167.476 202.063 C 166.325 202.025,165.651 201.841,165.797 201.605 C 165.939 201.376,165.773 201.312,165.404 201.454 C 165.054 201.588,164.796 201.541,164.831 201.349 C 165.040 200.204,164.759 199.820,164.226 200.524 C 163.910 200.941,163.573 201.080,163.432 200.852 C 163.297 200.634,163.373 200.340,163.600 200.200 C 164.102 199.890,163.737 199.198,163.076 199.206 C 162.790 199.210,162.839 199.367,163.200 199.600 C 163.530 199.813,163.620 200.004,163.400 200.024 C 163.180 200.045,162.675 200.123,162.278 200.198 C 161.661 200.316,161.632 200.242,162.078 199.693 C 162.533 199.133,162.497 199.090,161.800 199.360 C 161.360 199.530,160.667 199.737,160.259 199.819 C 159.085 200.058,158.568 200.668,157.991 202.495 C 157.320 204.617,157.315 204.670,157.635 206.513 C 157.853 207.772,157.756 208.125,157.060 208.613 C 156.303 209.143,156.676 209.200,160.911 209.200 L 165.600 209.200 165.600 206.200 L 165.600 203.200 172.534 203.200 L 179.468 203.200 179.308 200.100 C 179.090 195.845,179.782 193.622,181.611 192.701 C 184.665 191.163,189.032 192.443,190.265 195.238 L 190.954 196.800 194.250 196.800 L 197.547 196.800 197.673 195.700 C 197.743 195.095,197.739 193.665,197.664 192.521 L 197.528 190.443 194.330 189.221 C 191.559 188.163,190.613 188.000,187.250 188.000 C 183.263 188.000,178.874 187.156,178.319 186.282 C 178.150 186.017,178.009 185.941,178.006 186.114 C 178.003 186.287,177.595 186.206,177.100 185.934 C 176.605 185.662,175.848 185.381,175.417 185.309 C 174.987 185.238,174.537 185.049,174.417 184.890 C 174.099 184.466,173.246 184.266,171.000 184.092 L 169.000 183.936 169.127 187.755 M120.904 221.021 C 120.631 221.316,120.541 221.638,120.704 221.737 C 120.867 221.835,121.223 221.674,121.496 221.379 C 121.769 221.084,121.859 220.762,121.696 220.663 C 121.533 220.565,121.177 220.726,120.904 221.021 M377.090 241.882 C 377.830 243.011,377.808 243.012,377.906 241.825 C 377.967 241.094,377.800 240.865,377.238 240.907 C 376.550 240.959,376.538 241.038,377.090 241.882 M371.295 270.266 C 370.501 270.586,369.932 271.867,370.583 271.867 C 370.900 271.867,371.028 271.618,370.892 271.264 C 370.732 270.846,370.846 270.732,371.264 270.892 C 371.625 271.031,371.867 270.898,371.867 270.562 C 371.867 270.253,371.852 270.014,371.833 270.032 C 371.815 270.049,371.573 270.155,371.295 270.266 M101.800 351.332 C 100.700 351.619,99.118 352.180,98.284 352.580 L 96.767 353.307 96.884 356.153 L 97.000 359.000 103.059 359.110 L 109.119 359.220 109.401 362.410 L 109.683 365.600 115.842 365.600 L 122.000 365.600 122.000 368.557 C 122.000 372.176,121.652 372.000,128.815 372.000 L 134.365 372.000 134.482 374.900 L 134.600 377.800 150.083 377.905 L 165.567 378.009 165.683 381.105 L 165.800 384.200 182.000 384.311 C 197.897 384.420,200.744 384.307,199.616 383.610 C 199.213 383.361,199.042 381.858,198.948 377.737 C 198.692 366.502,198.409 365.941,192.670 365.289 C 189.033 364.876,184.800 363.344,184.800 362.442 C 184.800 362.252,184.215 361.867,183.500 361.585 C 182.785 361.303,181.728 360.639,181.151 360.110 C 179.818 358.888,175.587 358.426,165.571 358.411 C 157.173 358.398,155.837 358.061,152.937 355.221 C 149.855 352.203,148.936 352.033,133.200 351.581 C 106.058 350.800,103.908 350.783,101.800 351.332 " stroke="none" fill="#4c5b88" fill-rule="evenodd"></path></g></svg>